<svg width="138" height="202" viewBox="0 0 138 202" fill="none" xmlns="http://www.w3.org/2000/svg">
<path d="M122.432 78.0106C120.96 85.37 117.928 91.817 112.879 96.5123C109.553 99.5886 97.8808 108.287 92.6408 101.502C85.2814 91.8317 97.5864 89.7269 101.178 86.2826C107.89 79.9535 110.76 72.7265 112.835 64.2042C109.665 60.4424 106.221 56.9199 102.532 53.6654C99.3868 50.9086 96.0948 48.3241 92.6703 45.9232C93.0604 46.8732 93.3562 47.8592 93.5534 48.867C95.3638 58.1252 78.3782 87.3424 72.5936 71.9611C70.1503 65.4994 74.5659 59.3175 77.0093 54.6368C79.5202 49.8738 81.3108 44.7647 82.3228 39.4763C75.7834 35.8508 68.9784 32.7263 61.9665 30.1297C61.611 33.2487 60.7562 36.2902 59.4348 39.1377C58.8001 40.9096 57.7863 42.5216 56.4644 43.8613C55.1425 45.2011 53.5442 46.2362 51.781 46.8946C49.4701 48.0133 45.128 51.5606 44.1124 45.8349C47.11 43.534 49.4542 40.4896 50.9125 37.0035C51.6043 35.09 51.8546 30.5419 52.8113 26.9652C49.9264 25.9839 47.0267 25.0959 44.1124 24.301C42.2578 23.7564 40.3443 23.1677 38.4308 22.4906C37.1061 26.1851 34.7953 29.6146 32.9848 30.3505C27.7891 32.4848 29.1726 27.1124 30.9389 24.2569C31.7995 22.9703 32.7856 21.7722 33.8827 20.6802C30.5064 19.2389 27.3461 17.3368 24.492 15.0281C20.0027 11.2895 14.3801 2.00178 9.24314 0C6.71147 5.44602 9.9938 13.4826 10.0232 19.6204C9.84758 26.6095 8.96484 33.5629 7.38853 40.3741C6.96168 42.4642 6.52014 44.6132 6.07857 46.7916C6.80764 46.565 7.52064 46.2896 8.21279 45.9674C11.1566 44.4955 19.0607 44.937 16.3082 50.3831C14.0709 54.7987 9.06649 55.6819 4.53305 54.7987H4.44474C2.60624 63.9888 1.29898 73.2771 0.529485 82.6176C3.31855 83.0252 6.15416 82.9954 8.93405 82.5293C11.8778 81.9111 19.2373 72.226 19.2373 80.6305C19.2373 86.5181 10.8917 90.3156 6.38765 90.5658C4.12041 90.3088 1.97983 89.387 0.235132 87.9164C-0.468049 99.9524 1.11005 112.013 4.88633 123.463C8.91933 123.698 12.7757 124.302 17 121.844C22.7846 118.488 23.6383 110.863 29.4081 107.684C35.6489 113.101 33.8238 128.541 24.3006 130.219C18.4818 130.489 12.6533 129.964 6.9764 128.659C9.28724 133.845 12.2554 138.713 15.8078 143.142C19.7074 147.976 24.1194 152.373 28.9666 156.257C31.5879 155.324 34.0354 153.961 36.2083 152.224C39.0785 149.721 41.5513 138.417 45.4812 139.668C54.0182 142.362 47.483 154.961 46.4821 159.127C46.2055 160.365 45.6688 161.53 44.9075 162.546C44.1462 163.561 43.1778 164.402 42.0664 165.014C47.3537 167.938 53.088 169.967 59.0374 171.02C65.2782 172.006 70.8126 170.46 74.2568 165.132C76.9945 160.952 76.7296 155.094 79.1583 150.884C85.3108 140.184 100.412 143.834 110.686 143.525C126.789 143.083 132.147 125.671 131.543 109.333C131.037 98.3165 127.913 87.5795 122.432 78.0106ZM18.1334 94.5694C17.9238 95.4904 17.4041 96.3114 16.6615 96.895C15.1896 97.3955 14.1446 94.7607 15.3662 93.8629C16.2494 93.2741 18.1334 93.1711 18.1334 94.5694ZM49.0433 107.92C50.1472 108.597 51.1922 110.746 49.5437 111.452C48.3813 111.651 47.1858 111.459 46.1436 110.907C44.8189 109.406 47.3653 106.948 49.0433 107.934V107.92ZM40.0058 104.873C40.2536 105.059 40.4536 105.302 40.5892 105.581C40.7249 105.86 40.7923 106.167 40.7859 106.477C40.6093 108.641 37.9157 106.654 40.0058 104.873ZM69.532 142.141C64.5865 149.265 52.1784 146.557 58.6253 138.594C60.892 135.812 64.2332 136.636 66.0584 137.46C67.8835 138.285 72.1667 138.476 69.5615 142.2L69.532 142.141ZM76.3322 113.94C74.8603 115.308 73.2559 118.355 70.9892 116.265C66.6618 112.35 73.6239 103.46 78.1132 108.494C79.747 110.319 77.7452 112.718 76.3617 113.998L76.3322 113.94ZM65.8376 83.4566C65.1602 85.8375 63.5744 87.8568 61.4219 89.0792C60.1266 89.771 57.1681 91.081 57.5508 88.4316C57.8599 86.2973 60.2885 85.4878 61.3777 83.8245C62.202 82.6029 64.1596 77.4807 65.7934 77.4512C67.9718 77.466 66.2644 82.4704 65.867 83.5154L65.8376 83.4566ZM115.352 126.951C112.688 130.793 105.976 129.321 109.465 125.023C109.966 124.481 110.638 124.126 111.368 124.017C112.098 123.907 112.844 124.049 113.483 124.419C114.528 124.832 116.751 124.876 115.352 126.951Z" fill="#4FA14D"/>
<path d="M18.0747 29.8795C17.8293 28.9136 17.8293 27.9016 18.0747 26.9357C18.3197 25.9929 18.739 25.1042 19.3111 24.3157C19.8756 23.5422 20.5674 22.8703 21.357 22.3287C22.1657 21.7764 23.0764 21.3911 24.0359 21.1953C23.7392 22.0929 23.3287 22.9486 22.8142 23.7417C22.358 24.4924 21.8722 25.2136 21.3423 25.8318C20.8125 26.45 20.3709 27.1271 19.8704 27.7894C19.3355 28.5383 18.7345 29.2378 18.0747 29.8795Z" fill="#8DC63F"/>
<path d="M26.7578 50.8241C28.0498 48.8554 29.5936 47.0641 31.3501 45.4958C33.0722 43.9061 34.8532 42.4637 36.5459 40.9918L37.8265 39.8879C38.2386 39.5052 38.6949 39.1225 38.9599 38.8281C39.6324 37.9954 40.2284 37.1037 40.7408 36.164C41.3314 35.1292 42.0058 34.1447 42.7573 33.2202C43.1209 32.7113 43.5884 32.2854 44.1288 31.9708C44.6693 31.6561 45.2705 31.4599 45.8925 31.395C44.9367 31.976 44.2053 32.863 43.8171 33.912C43.3461 34.8981 42.9928 35.9726 42.566 37.0471C42.1472 38.2195 41.5782 39.3327 40.8733 40.3589C40.4677 40.8763 40.0302 41.3679 39.5633 41.8308C39.1218 42.2282 38.6949 42.6256 38.2386 43.0083C36.46 44.5125 34.5815 45.8943 32.616 47.1443C30.6289 48.3218 28.7302 49.5729 26.7578 50.8241Z" fill="#8DC63F"/>
<path d="M30.4982 64.2039C29.0263 65.087 27.6575 65.8966 26.1708 66.6178C24.7116 67.3655 23.2016 68.0098 21.6521 68.546C20.0781 69.1087 18.4505 69.5082 16.7949 69.7382C15.1056 70.0357 13.3713 69.9553 11.7168 69.5027C13.3359 68.9434 14.7931 68.3694 16.2944 67.7953C17.7958 67.2213 19.2382 66.6325 20.8131 66.1174C22.3468 65.5749 23.9095 65.1179 25.4938 64.7485C27.122 64.3001 28.8117 64.1162 30.4982 64.2039Z" fill="#8DC63F"/>
<path d="M37.4434 76.9065C39.5735 74.3163 41.9011 71.8952 44.4054 69.6648C46.8454 67.5565 49.0737 65.2148 51.0584 62.6732C52.0151 61.3633 52.8541 60.0827 53.7961 58.5961C54.7567 57.1997 55.7884 55.8536 56.8871 54.5631C57.9912 53.2724 59.1813 52.0578 60.4491 50.9275C61.0806 50.3768 61.7604 49.8842 62.4803 49.4556C63.1762 48.9407 64.014 48.6529 64.8795 48.6313C64.0918 48.8599 63.3834 49.3033 62.8336 49.9119C62.2581 50.4868 61.7127 51.091 61.1998 51.7223C60.1694 53.0176 59.198 54.3276 58.256 55.7112C57.3139 57.0948 56.4455 58.4489 55.636 59.8472C55.2533 60.4948 54.8412 61.3191 54.4438 62.0403C54.0463 62.7616 53.5459 63.5122 53.0454 64.204C51.0176 67.0027 48.529 69.4365 45.6859 71.4016C43.066 73.2415 40.343 75.1108 37.4434 76.9065Z" fill="#8DC63F"/>
<path d="M42.8472 90.3447C40.4333 91.9933 38.2254 93.789 35.8998 95.5111C33.5773 97.2696 31.1544 98.8914 28.6434 100.368C26.0736 101.889 23.2902 103.015 20.3861 103.71C17.4119 104.521 14.2377 104.124 11.5547 102.606C14.3222 103.09 17.1698 102.8 19.7826 101.767C22.3945 100.774 24.9159 99.5574 27.3187 98.1311C29.7915 96.7475 32.2054 95.1873 34.7518 93.8331C37.2811 92.3116 40.0041 91.1382 42.8472 90.3447Z" fill="#8DC63F"/>
<path d="M57.1543 104.239C59.421 101.928 61.8497 99.8235 64.1311 97.7334C66.4126 95.6433 68.6351 93.4207 70.7693 91.1246C71.8438 89.9912 72.8594 88.8137 73.9487 87.6362C75.1627 86.4551 76.5469 85.4628 78.0553 84.6924C79.4797 83.8996 80.9548 83.2014 82.4709 82.6023C83.9501 81.9364 85.5008 81.4425 87.0927 81.1304C84.3039 82.6098 81.6276 84.2923 79.0856 86.1643C77.8693 87.0226 76.7491 88.0096 75.7444 89.1081C74.7876 90.3739 73.772 91.6397 72.6828 92.832C70.5355 95.2619 68.1322 97.453 65.5147 99.3672C62.8899 101.255 60.0904 102.886 57.1543 104.239Z" fill="#8DC63F"/>
<path d="M60.8039 118.458C58.6994 121.117 56.3594 123.58 53.8124 125.818C51.259 128.046 48.4933 130.018 45.555 131.706C42.5822 133.443 39.3532 134.7 35.9877 135.429C35.1436 135.615 34.2879 135.742 33.4266 135.812C32.5287 135.9 31.837 135.93 30.998 136.092C29.3332 136.526 27.5847 136.526 25.9199 136.092C27.5732 135.991 29.1897 135.561 30.6742 134.826C31.4852 134.542 32.3106 134.301 33.1469 134.105L34.3245 133.81L35.4726 133.442C38.5448 132.399 41.5037 131.048 44.3039 129.409C47.1447 127.82 49.8677 125.98 52.5907 124.111C55.3137 122.241 57.9779 120.298 60.8039 118.458Z" fill="#8DC63F"/>
<path d="M72.9629 131.264C76.5985 129.601 79.0271 126.569 81.912 123.904C83.3541 122.444 84.9764 121.172 86.7398 120.122C88.5542 119.206 90.4394 118.438 92.3772 117.826C94.2465 117.193 96.1011 116.589 97.9115 115.927C99.7133 115.312 101.461 114.549 103.137 113.645C106.502 111.703 109.538 109.239 112.13 106.345C110.273 109.946 107.552 113.031 104.211 115.323C100.789 117.435 97.1015 119.083 93.2456 120.225C91.4314 120.772 89.6562 121.44 87.9321 122.226C86.2679 123.113 84.6994 124.169 83.2514 125.376C81.7795 126.583 80.1899 127.849 78.5267 128.968C76.8585 130.124 74.9609 130.907 72.9629 131.264Z" fill="#8DC63F"/>
<g style="mix-blend-mode:multiply" opacity="0.5">
<path d="M46.4246 159.112C46.148 160.35 45.6113 161.515 44.85 162.53C44.0887 163.545 43.1202 164.387 42.0089 164.999C47.2962 167.923 53.0305 169.952 58.9799 171.005C65.2208 171.991 70.7551 170.445 74.1993 165.117C76.937 160.937 76.6721 155.079 79.1007 150.869C80.2423 148.857 81.8788 147.17 83.855 145.968C30.4987 80.9538 16.2065 26.4348 11.5701 9.19884L8.9501 0.514648C6.86 5.94595 9.92154 13.6587 9.95097 19.6493C9.77532 26.6384 8.89262 33.5918 7.31631 40.4031C6.88946 42.4932 6.44787 44.6421 6.0063 46.8205C6.73538 46.5939 7.44842 46.3185 8.14057 45.9963C11.0844 44.5244 18.9885 44.966 16.236 50.412C13.9987 54.8277 8.99427 55.7108 4.46083 54.8277H4.37252C2.53402 64.0177 1.22676 73.306 0.457264 82.6465C3.24633 83.0542 6.0819 83.0243 8.86178 82.5582C11.8056 81.94 19.1651 72.2549 19.1651 80.6595C19.1651 86.5471 10.8194 90.3446 6.31539 90.5948C4.04815 90.3377 1.90756 89.4159 0.162867 87.9454C-0.540315 99.9814 1.03779 112.042 4.81407 123.492C8.84707 123.727 12.7035 124.331 16.9278 121.873C22.7124 118.517 23.566 110.892 29.3359 107.713C35.5767 113.13 33.7516 128.57 24.2284 130.248C18.4096 130.518 12.5811 129.993 6.90418 128.687C9.21502 133.874 12.1832 138.742 15.7356 143.171C19.6351 148.005 24.0472 152.402 28.8943 156.286C31.5157 155.353 33.9631 153.99 36.136 152.253C39.0062 149.75 41.4791 138.446 45.409 139.697C53.9607 142.347 47.3666 154.917 46.4246 159.112ZM15.4117 93.8771C16.2507 93.2736 18.1348 93.1706 18.1348 94.5836C17.9251 95.5046 17.4055 96.3256 16.6629 96.9092C15.2057 97.4096 14.1901 94.775 15.4117 93.8771ZM40.0071 104.872C40.255 105.059 40.455 105.301 40.5906 105.58C40.7262 105.859 40.7936 106.166 40.7872 106.477C40.6106 108.64 37.917 106.653 40.0071 104.872ZM46.1155 110.863C44.7908 109.391 47.3813 106.889 49.0593 107.919C50.1632 108.596 51.2083 110.745 49.5597 111.452C48.3942 111.658 47.1931 111.472 46.145 110.922L46.1155 110.863ZM58.6266 138.593C60.8933 135.811 64.2346 136.636 66.0597 137.46C67.8849 138.284 72.1386 138.417 69.5334 142.141C64.6172 149.323 52.2092 146.586 58.6561 138.726L58.6266 138.593Z" fill="#4FA14D"/>
</g>
<path d="M137.24 201.297C133.599 198.088 129.973 194.86 126.362 191.612C122.756 188.359 119.077 185.194 115.676 181.721L105.373 171.417C103.622 169.725 101.988 167.929 100.339 166.133L95.3937 160.805C88.6377 153.784 82.6912 146.086 76.4504 138.594C70.5628 130.822 64.5869 123.154 59.2144 115.044C48.2887 98.9163 38.6899 81.9288 30.5124 64.2485L27.5686 57.5955C26.5972 55.3583 25.7288 53.0915 24.8015 50.8395C22.9175 46.3503 21.3131 41.7579 19.6351 37.195C16.5442 27.9662 13.7475 18.6344 11.6133 9.229C16.9608 27.8297 23.8841 45.9407 32.3082 63.3654C40.6982 80.8099 50.4065 97.5892 61.3487 113.557C66.6181 121.682 72.5351 129.351 78.2903 137.107C84.4133 144.614 90.3745 152.253 96.8656 159.436C109.436 174.214 123.33 187.755 137.24 201.297Z" fill="#8DC63F"/>
</svg>
