<svg width="140" height="224" viewBox="0 0 140 224" fill="none" xmlns="http://www.w3.org/2000/svg">
<path d="M138.503 89.1231C136.621 82.8655 129.186 79.1946 123.018 80.0624C116.688 80.7833 111.187 86.7166 109.474 92.6803C108.681 94.375 108.111 96.1653 107.778 98.0064C104.42 98.6691 102.249 96.5065 98.6496 97.89C97.0898 98.0674 97.037 98.4778 95.5966 97.9593C93.8119 91.8181 91.2446 85.297 85.6048 81.6511C77.9777 77.8998 68.3773 81.5513 64.5971 89.0289C61.6328 98.8881 64.9884 109.077 67.6501 118.59C73.1289 133.515 72.3879 124.889 69.6124 138.109C68.7575 145.936 71.186 153.776 72.5349 161.545C74.0809 169.27 77.2727 176.631 78.8631 184.413C80.3147 187.025 81.0058 189.942 81.5997 192.883C83.9339 196.241 83.7174 200.486 85.4577 204.129C90.176 207.572 95.6854 209.885 101.683 209.222C107.465 209.63 113.526 207.941 117.998 204.182C123.704 184.244 131.653 164.653 133.768 144.017C134.046 141.009 133.601 138.034 133.507 135.128C132.572 132.009 129.913 130.074 132.153 126.877C134.145 123.45 134.712 119.236 136.621 115.712C136.766 112.623 138.62 110.025 138.464 106.887C140.568 101.322 140.443 94.6405 138.503 89.1231ZM75.2217 126.156C71.4553 115.74 66.2068 104.591 68.0248 93.3319C69.0489 86.0096 77.0424 81.9478 83.6009 85.0835C88.8577 89.3339 91.8135 96.0351 91.7552 102.742C91.3167 107.791 92.2465 113.164 91.9274 118.268C89.8692 118.734 87.8647 119.411 85.9462 120.289C82.3103 122.227 77.9417 123.018 75.23 126.151L75.2217 126.156ZM111.65 118.094C112.411 110.175 110.154 101.736 113.401 94.3078C114.925 84.7176 127.068 80.8027 133.693 88.1916C136.996 94.8457 135.88 103.258 133.671 110.114C132.194 115.587 130.618 121.407 128.145 126.456C125.267 123.406 121.206 121.967 117.365 120.356C115.658 119.18 113.707 118.405 111.658 118.088L111.65 118.094Z" fill="#E64C4A"/>
<path d="M49.598 218.324C54.9019 223.314 72.11 224.423 79.1764 222.652C88.8657 221.573 94.9967 218.645 94.7664 207.957C95.8016 203.149 93.6839 198.411 92.2684 193.817C91.2665 190.074 92.2407 189.292 87.8471 190.662C84.2834 189.766 81.1859 190.149 77.5611 190.534C75.292 190.188 72.9898 190.113 70.7028 190.31C67.0586 190.31 63.9834 190.798 60.4141 189.994C57.8662 190.271 56.1315 190.548 53.553 190.598C51.8378 190.598 51.81 189.974 50.1642 190.454C49.3036 192.671 48.6079 194.949 48.0826 197.269C44.8297 204.042 46.3479 211.83 49.598 218.324Z" fill="#44BC9F"/>
<path d="M57.2695 56.9012C57.2922 56.8768 57.3128 56.8506 57.3312 56.8228L57.2695 56.9012Z" fill="#333333"/>
<path d="M137.39 38.3159C136.928 36.7408 136.175 35.2662 135.17 33.9685C134.306 32.8966 133.316 31.9323 132.222 31.0961C131.667 30.6691 131.112 30.2644 130.573 29.8429L129.807 29.2718L129.53 29.0527L129.166 28.7755C128.685 28.3894 128.227 27.9746 127.795 27.5334C127.403 27.1427 127.061 26.705 126.776 26.2303C126.466 25.7442 126.233 25.2129 126.085 24.6555C125.863 23.8708 125.783 23.0474 125.619 22.2489C125.284 20.5769 124.792 18.9402 124.148 17.3609C122.947 14.4689 121.15 11.8617 118.875 9.7086C117.681 8.58772 116.403 7.55978 115.053 6.63383C113.476 5.5248 111.836 4.47678 110.015 3.828C108.476 3.25785 106.812 3.11228 105.197 3.40657C103.744 3.72739 102.385 4.37821 101.225 5.30854C98.4498 7.44064 96.5069 10.3851 94.367 13.105C93.2346 14.5384 91.9606 15.969 90.3675 16.9006C88.5523 17.9625 86.3708 17.9209 84.3363 17.8544C82.2519 17.7878 80.2286 17.7767 78.2303 18.4699C76.6433 19.0298 75.177 19.8849 73.9089 20.9901C71.3915 23.1583 69.6457 26.0417 67.8638 28.8032C67.6806 29.0805 67.5085 29.3771 67.3392 29.6682L67.1394 29.8928C67.1295 29.9053 67.1202 29.9182 67.1116 29.9316C61.3608 33.2754 56.0902 37.5922 52.0768 42.9155C51.9713 43.0542 51.8714 43.1928 51.7687 43.3342C51.6818 43.4198 51.6096 43.5191 51.555 43.6281C48.4159 47.945 45.9457 52.7775 43.9862 57.7543C43.9862 57.6656 43.9862 57.5768 43.9862 57.477C43.9548 55.9761 43.9307 54.4771 43.9141 52.9799C43.8974 51.5687 43.8585 50.1464 43.9141 48.7351C43.9363 48.1806 43.9945 47.5124 44.0556 47.0522C44.0778 46.8942 44.1361 46.5337 44.1805 46.2953C44.2332 46.018 44.2915 45.7241 44.3581 45.4413C44.8661 43.3096 45.6823 41.2632 46.7811 39.3667C47.9085 37.4044 49.1465 35.5077 50.4892 33.6857C53.1592 29.9677 55.9958 26.3079 57.7638 22.0409C58.6436 19.931 59.1904 17.7047 59.8981 15.5365C60.2169 14.504 60.6121 13.4967 61.0805 12.5227C61.3287 12.0097 61.6067 11.5117 61.9131 11.0311C62.0547 10.8148 62.2046 10.6041 62.3572 10.3934L62.3905 10.3518C62.4405 10.2853 62.4932 10.2187 62.546 10.155C62.6375 10.0413 62.7347 9.9304 62.8235 9.82227C64.4527 7.97852 66.7758 6.73918 69.0711 5.87137C71.5691 4.92593 74.1947 4.35478 76.8176 3.86127C77.4421 3.74205 78.0693 3.63115 78.6994 3.51747C78.8896 3.4654 79.0542 3.34556 79.1621 3.18059C79.27 3.01561 79.3137 2.81689 79.285 2.62193C79.2556 2.42828 79.1588 2.2512 79.0115 2.12187C78.8643 1.99253 78.6761 1.91925 78.4801 1.91493C75.7046 1.65431 72.9984 0.938993 70.2535 0.462112C67.3614 -0.0424935 64.4083 -0.228255 61.5163 0.392798C56.6231 1.4436 52.9955 5.62184 51.1553 10.0746C50.7001 11.1593 50.3623 12.2895 50.1478 13.446C49.8703 15.0513 49.8703 16.6788 49.8342 18.3035C49.812 19.7979 49.7564 21.284 49.3762 22.7396C48.9818 24.1848 48.423 25.5802 47.7109 26.8985C47.0226 28.2127 46.2177 29.4575 45.4905 30.7412C44.7633 32.0249 44.1028 33.2975 43.4977 34.6228C42.224 37.3416 41.323 40.2196 40.8194 43.1789C40.5814 44.65 40.4719 46.1389 40.4919 47.6289C40.5404 49.1021 40.6822 50.5708 40.9165 52.0262C41.3495 54.9318 42.0267 57.8042 42.3792 60.7237C42.4236 61.0786 42.4736 61.4307 42.5235 61.7856C40.181 68.7807 38.871 76.0726 36.3564 83.0178C36.0677 83.8108 35.7772 84.6019 35.4849 85.3912C35.5432 83.6583 35.5265 81.9144 35.4266 80.187C35.2518 77.4237 34.7439 74.6915 33.9139 72.0496C33.4893 70.6633 33.0119 69.3103 32.5262 67.9462C32.0405 66.5821 31.4992 65.1542 31.2023 63.6986C30.6194 60.8318 30.8942 57.8541 31.4798 55.0094C32.0793 52.0733 33.1618 49.2397 33.628 46.2814C34.0397 43.414 34.0602 40.504 33.6891 37.631C33.5198 36.1644 33.3005 34.706 33.0702 33.2504C32.8398 31.7948 32.5623 30.342 32.4235 28.8781C32.2007 26.2966 32.5271 23.6973 33.3811 21.2508C34.186 18.8719 35.36 16.6455 36.4979 14.4164C36.7921 13.8342 37.0891 13.2519 37.3777 12.6697C37.7802 11.8573 36.781 11.0062 36.0899 11.6743C34.2498 13.4848 32.0349 14.8711 30.2614 16.7398C29.3046 17.7167 28.526 18.8529 27.9605 20.0974C27.3986 21.434 27.0448 22.8487 26.9114 24.2923C26.5977 27.2561 26.9447 30.2782 27.4665 33.1977C27.78 34.7004 27.985 36.2237 28.0798 37.7558C28.1178 39.2638 27.9365 40.7693 27.5414 42.2252C27.1667 43.6641 26.6532 45.0615 26.1814 46.4727C25.6752 47.9632 25.3137 49.4989 25.1017 51.0585C24.7264 54.2137 24.836 57.4075 25.4265 60.5296C25.9612 63.5573 26.7981 66.524 27.9244 69.3852C29.0207 72.1827 30.3002 74.9053 31.3022 77.7361C32.2603 80.3237 32.8217 83.0409 32.9675 85.7959C33.0207 87.1731 33.0003 88.5521 32.9064 89.9271C32.8315 91.0527 32.7566 92.1812 32.6067 93.3013C31.2955 96.9715 30.2592 100.734 29.5064 104.558C29.0128 107.326 28.6782 110.119 28.5045 112.925C28.2936 112.173 28.0882 111.42 27.8883 110.666C27.2944 108.401 26.8253 106.097 26.1703 103.851C25.5292 101.655 24.7465 99.5035 24.1498 97.2965C23.553 95.0896 23.2283 92.7689 22.8231 90.4954C22.4277 88.153 21.9061 85.8336 21.2605 83.5474C20.635 81.4454 19.8213 79.4039 18.8291 77.4478C17.9049 75.6123 16.8863 73.8268 15.9759 71.983C15.0902 70.1814 14.3783 68.2996 13.8499 66.3631C13.3503 64.536 12.859 62.7061 12.5121 60.8429C12.1818 59.0712 11.957 57.1027 12.1818 55.3366C12.2384 54.9443 12.3208 54.5563 12.4288 54.1749C12.6842 53.2821 11.3714 52.7082 10.9162 53.5372C9.80494 55.5938 8.97149 57.7884 8.43765 60.0638C7.85214 62.3545 7.6136 64.7199 7.72992 67.0812C8.00747 71.4258 10.0363 75.4654 12.2318 79.1418C13.3059 80.944 14.4522 82.7018 15.5207 84.5067C16.0481 85.3912 16.556 86.2867 17.0278 87.1989C17.4878 88.0804 17.901 88.9855 18.2657 89.9104C19.0266 91.8134 19.4773 93.826 19.6007 95.8714C19.6562 97.0137 19.6368 98.1588 19.6895 99.3011C19.7478 100.552 19.856 101.796 20.0337 103.038C20.3695 105.412 21.0217 107.785 22.2818 109.848C22.9923 111.007 23.8167 112.108 24.6216 113.203C25.4405 114.371 26.3207 115.496 27.2583 116.571C27.5858 116.926 27.8994 117.289 28.2158 117.655C28.2023 117.77 28.2156 117.885 28.2547 117.994C28.1464 121.279 28.1132 124.57 27.9994 127.831C27.9217 130.076 27.8661 132.322 27.819 134.568C27.5246 134.578 27.2299 134.572 26.9363 134.549C26.2563 134.49 25.5791 134.418 24.8991 134.363C23.5856 134.243 22.2622 134.291 20.9607 134.504C19.0179 134.263 17.075 134.618 15.1155 134.521C14.7214 134.501 14.3106 134.49 13.922 134.438C13.6007 134.365 13.2718 134.33 12.9423 134.335C12.3206 134.391 11.2326 134.654 11.2437 135.444C11.2437 136.093 11.932 136.276 12.3983 136.512C13.1255 136.886 13.5085 137.518 13.9498 138.175C15.039 139.767 16.0415 141.416 16.9529 143.116C18.7984 146.51 20.1773 150.136 21.0523 153.898C21.2383 154.73 21.1494 155.562 21.0773 156.394C21.0142 157.193 20.9021 157.987 20.7414 158.772C20.4501 160.377 19.8199 161.9 18.893 163.242C18.6812 163.519 18.4532 163.784 18.2102 164.035C17.9323 164.399 17.6774 164.781 17.4469 165.177C16.9601 165.876 16.4221 166.538 15.8371 167.157C14.6515 168.385 13.3879 169.537 12.0541 170.603C10.7413 171.687 9.40353 172.749 8.16843 173.908C7.86868 174.185 7.58282 174.482 7.28584 174.765C6.93613 175.092 6.54201 175.375 6.17564 175.691C5.55513 176.238 4.97102 176.825 4.42707 177.448C2.37244 179.815 0.987031 182.686 0.413713 185.766C-0.160815 188.794 -0.0720218 191.899 0.286017 194.946C0.477526 196.562 0.732879 198.171 1.02153 199.773C1.29908 201.331 1.69876 202.889 1.8986 204.459C2.02902 205.815 2.46656 207.123 3.1781 208.285C3.89074 209.358 4.80391 210.285 5.86757 211.013C8.00748 212.53 10.5859 213.384 13.0616 214.135C14.2662 214.501 15.4819 214.834 16.6698 215.208C17.1157 215.321 17.5708 215.395 18.0298 215.427C18.5849 215.493 19.1622 215.557 19.7284 215.613C20.7646 215.718 21.8007 215.805 22.8369 215.873C27.0164 216.106 31.2075 216.02 35.3738 215.615C38.7822 215.319 42.1683 214.623 45.3101 213.239C46.8589 212.56 48.314 211.685 49.6399 210.636C49.9619 210.381 50.2699 210.115 50.5697 209.84C50.9387 209.542 51.2705 209.2 51.5578 208.823C52.0574 208.055 52.371 207.07 52.668 206.205C53.2581 204.319 53.6689 202.38 53.8947 200.416C54.0196 199.482 54.3582 198.581 54.497 197.644C54.6396 196.633 54.7239 195.615 54.7496 194.594C54.7774 193.648 54.7718 192.706 54.7801 191.76C54.7685 191.309 54.8001 190.858 54.8745 190.413C54.9522 190.008 55.0382 189.606 55.1132 189.201C55.3354 187.859 55.2316 186.483 54.8106 185.189C53.9974 182.384 52.4792 179.874 50.5974 177.656C46.8561 173.245 41.8991 170.079 38.03 165.79C37.1177 164.785 36.2914 163.705 35.5598 162.563C34.3358 159.879 33.7335 156.884 34.136 153.943C34.2413 153.198 34.4056 152.463 34.6273 151.744C34.7383 151.386 34.8604 151.034 34.9936 150.685C35.0981 150.349 35.1614 150.002 35.1824 149.651C35.3628 148.42 35.9068 147.294 36.4979 146.216C37.1585 145.009 37.8634 143.831 38.3436 142.536C39.0763 141.68 39.7314 140.767 40.3947 139.85C41.058 138.932 41.6104 138.009 42.3376 137.219C42.8011 136.728 43.8502 136.356 43.8641 135.58C43.8835 134.668 42.5207 134.341 41.813 134.371C41.4466 134.388 41.1552 134.463 40.7944 134.471C40.1755 134.471 39.551 134.452 38.9293 134.471C38.3936 134.471 37.8551 134.51 37.3167 134.54C37.0391 134.56 36.7255 134.607 36.4368 134.599C36.1223 134.566 35.8106 134.511 35.5043 134.432C33.5281 134.069 31.5353 134.291 29.5481 134.463C29.6425 128.979 29.7091 123.492 29.9339 118.019L29.9505 117.983C29.9672 117.933 29.9894 117.883 30.006 117.833V117.816L30.1365 117.539C30.2614 117.287 30.3946 117.04 30.5334 116.796C30.8109 116.302 31.1107 115.817 31.4132 115.335C32.0432 114.334 32.6705 113.327 33.3144 112.335C34.7385 110.098 36.4686 108.071 38.4546 106.313C40.4993 104.575 42.6298 102.941 44.8383 101.417C45.9485 100.618 47.0587 99.8196 48.1439 98.9906C49.095 98.2957 49.9671 97.4989 50.7445 96.6145C53.7393 93.0517 55.0549 88.416 56.3483 84.0354C57.6972 79.4551 58.7657 74.7889 60.3589 70.2835C61.1058 68.1169 62.0343 66.0171 63.1344 64.0064C64.2807 61.9206 65.6546 59.9679 67.231 58.184C67.6445 57.7155 68.0636 57.2608 68.516 56.8199C68.621 56.7032 68.6907 56.5592 68.7172 56.4046C68.7437 56.2499 68.7259 56.091 68.6658 55.946C68.6058 55.8011 68.5059 55.6761 68.3777 55.5854C68.2495 55.4947 68.0983 55.4421 67.9415 55.4336C65.8238 55.3671 63.8976 56.3514 62.3045 57.6656C60.6392 59.0518 59.2847 60.8069 58.1412 62.6312C55.4046 66.9647 53.8836 71.9359 52.1906 76.7352C50.4975 81.5345 48.6851 86.3338 45.5294 90.4178L45.4572 90.5121L45.3184 90.6867C45.2352 90.7921 45.1491 90.8975 45.0631 91C44.8633 91.2468 44.6551 91.4908 44.447 91.7292C44.0565 92.1765 43.6541 92.6118 43.2396 93.0351C42.3265 93.9722 41.3412 94.8289 40.3808 95.7162C38.4686 97.4668 36.7398 99.4075 35.2212 101.508C33.7389 103.615 32.5032 105.885 31.5381 108.273C31.1773 109.144 30.7554 110.006 30.3752 110.885C30.6454 107.66 31.1717 104.461 31.9489 101.319C32.873 97.7884 33.9753 94.3062 35.2517 90.8864C35.4488 90.3318 35.6486 89.8023 35.8512 89.2589C35.882 89.2253 35.9099 89.1891 35.9345 89.1507C35.9817 89.0786 36.0289 89.0066 36.0788 88.9345C36.0998 88.9088 36.1193 88.882 36.1371 88.8541C36.2537 88.721 36.3619 88.5768 36.4813 88.4548C36.7588 88.1609 37.0364 87.8837 37.3417 87.6231C37.647 87.3624 37.9967 87.0686 38.3353 86.7913L38.3658 86.7663L38.5046 86.6638L38.7489 86.478C38.9376 86.3394 39.1235 86.2007 39.304 86.0704C40.6917 85.0834 42.1627 84.2211 43.4922 83.1565C44.9877 81.9586 46.2785 80.5259 47.314 78.9145C47.9798 77.845 48.5589 76.7241 49.0459 75.5624C50.0507 73.2501 50.875 70.8657 51.7299 68.4952C52.1712 67.2725 52.618 66.0525 53.0954 64.8465C53.2203 64.5332 53.3452 64.2227 53.4728 63.9121C53.5228 63.7846 53.5783 63.6598 53.6311 63.5323C53.6311 63.5073 53.6533 63.4768 53.6644 63.4491L53.7809 63.1719C54.0344 62.5859 54.3 62.0046 54.5775 61.4279C55.1123 60.309 55.7167 59.2247 56.3871 58.1812C56.5481 57.9289 56.7174 57.6794 56.8923 57.4354C56.9783 57.3134 57.0643 57.1942 57.1531 57.075L57.2781 56.9086L57.3086 56.8698L57.3308 56.8421C57.3316 56.8347 57.3316 56.8273 57.3308 56.8199C57.6888 56.3735 58.0608 55.9382 58.4604 55.5279C58.8546 55.1198 59.2746 54.7373 59.7177 54.3828L59.7621 54.344L59.8843 54.2553C60.0036 54.1666 60.1257 54.0806 60.2478 53.9947C60.481 53.8366 60.7169 53.6869 60.9612 53.5455C61.2054 53.4041 61.4552 53.2683 61.7077 53.1491C61.8354 53.0853 61.9659 53.0298 62.0963 52.9716L62.31 52.8857C62.8672 52.6728 63.4408 52.5059 64.0253 52.3866C64.1641 52.3561 64.3028 52.3311 64.4444 52.3062L64.6581 52.2729C64.697 52.2729 64.8302 52.2729 64.6859 52.2729C64.5415 52.2729 64.722 52.2729 64.7442 52.2729C65.0606 52.2341 65.3797 52.2092 65.6961 52.1953C66.3766 52.1662 67.0584 52.1856 67.7361 52.2535L68.0609 52.2896H68.0858L68.2218 52.3117C68.4577 52.3478 68.6964 52.3921 68.9296 52.4448C69.3555 52.5388 69.7761 52.6554 70.1896 52.7942C70.3923 52.8635 70.5921 52.9356 70.7892 53.016L70.9668 53.0881L71.2221 53.2017C71.5996 53.3764 71.9687 53.5705 72.3323 53.7784C72.6959 53.9864 73.0651 54.2165 73.4176 54.4549C73.5786 54.5631 73.734 54.674 73.8922 54.7876L74.1254 54.9568L74.2586 55.0566L74.3723 55.1453L74.3973 55.1647L74.5278 55.2673L74.7553 55.4475L75.2744 55.8523C75.5945 56.1203 75.9081 56.3976 76.2152 56.6841C77.4642 57.7931 78.6633 58.9742 79.9456 60.0527C80.8552 60.8166 81.8498 61.4734 82.9098 62.0102C83.0402 62.0767 83.1679 62.1432 83.3011 62.2042C83.6952 62.3872 83.501 62.2957 83.4149 62.2541L83.5315 62.3068L83.7619 62.4094C84.106 62.5563 84.4502 62.6867 84.7999 62.8308C85.4069 63.06 86.028 63.2498 86.6595 63.3992C87.9503 63.7348 89.2961 63.8037 90.6145 63.6016C91.2081 63.5098 91.7794 63.3086 92.2993 63.0083C92.3382 62.9833 92.3742 62.9556 92.4103 62.9279L92.4547 62.9002C92.5157 62.8613 92.5741 62.8142 92.6323 62.7726C92.7739 62.6645 92.9099 62.5563 93.0459 62.4344C93.261 62.2245 93.4596 61.9983 93.6398 61.7578L93.7314 61.6359C93.8008 61.5444 93.8702 61.4556 93.934 61.3586C93.9979 61.2616 94.0867 61.1146 94.1561 60.9871C94.3265 60.6624 94.4713 60.325 94.5891 59.9779C94.634 59.8136 94.613 59.6383 94.5306 59.4892C94.4482 59.34 94.3109 59.2289 94.1477 59.1794C92.7989 58.9825 91.4166 58.6969 90.2343 58.0371C89.0519 57.3772 88.1665 56.3735 87.2701 55.2784C85.3911 52.9938 83.6925 50.5013 81.3333 48.6714C79.0137 46.8721 76.3188 45.6166 73.4481 44.9977C70.9084 44.4678 68.2835 44.499 65.7572 45.0892C60.6225 46.2842 56.1679 49.6362 52.9039 53.6842C51.1502 55.8824 49.672 58.2865 48.502 60.8429C47.1891 63.6681 45.9401 66.5211 44.6634 69.3602C43.3589 72.2603 42.0267 75.1465 40.6084 77.994C39.909 79.3932 39.1846 80.7795 38.4352 82.1528C38.6406 81.5595 38.8405 80.9652 39.0347 80.37C40.181 76.8184 41.0581 73.1863 41.999 69.5765C43.7836 62.731 46.0873 56.0769 49.5483 49.8913C50.5791 48.0415 51.7277 46.2597 52.9871 44.5569C53.1814 44.4072 53.3757 44.2575 53.5672 44.105L54.25 43.653C55.1243 43.0791 56.0263 42.544 56.9533 42.056C58.7633 41.1031 60.6661 40.3376 62.632 39.7715C66.7431 38.5936 71.0915 38.5123 75.2438 39.5358C77.344 40.0725 79.3808 40.8319 81.3194 41.801C82.313 42.2862 83.2928 42.8019 84.2642 43.3231C85.2356 43.8443 86.1876 44.4016 87.1979 44.8397C90.8671 46.4256 95.1941 46.6724 98.2776 49.4144C99.7181 50.6953 100.703 52.345 101.489 54.1028C102.232 55.8528 102.853 57.6518 103.348 59.4871C103.462 59.8919 103.582 60.2967 103.682 60.7071C103.711 60.8037 103.768 60.8899 103.845 60.9551C103.922 61.0204 104.016 61.062 104.117 61.0748C104.217 61.0877 104.319 61.0714 104.41 61.0278C104.501 60.9842 104.578 60.9152 104.631 60.829C105.836 58.987 106.388 56.7944 106.199 54.6019C106.091 53.5801 105.837 52.5791 105.444 51.6297C105.394 51.5077 105.336 51.3774 105.314 51.3247C105.25 51.1722 105.189 51.0225 105.125 50.8728C105.08 50.7674 105.033 50.6648 104.986 50.5623L104.9 50.3793C104.9 50.3571 104.778 50.1408 104.82 50.2323C104.582 49.7475 104.303 49.2837 103.987 48.846C103.343 47.9214 102.622 47.0532 101.83 46.2509C101.06 45.4621 100.241 44.7214 99.3796 44.0329C97.7437 42.7253 95.9764 41.5908 94.1061 40.6476C93.1048 40.1622 92.1392 39.6063 91.2168 38.9841C90.9892 38.8232 90.7644 38.6624 90.5424 38.4961L90.362 38.3574L90.2509 38.2743L89.9429 38.0303C89.4905 37.6699 89.0464 37.3011 88.6023 36.9213C86.8343 35.4407 85.0552 33.8964 82.9597 32.8927C81.8101 32.349 80.5914 31.9647 79.3377 31.7504C77.8847 31.4799 76.4109 31.3361 74.933 31.3207C72.1289 31.3254 69.3487 31.8354 66.7258 32.8262C65.6032 33.2377 64.5083 33.7211 63.448 34.2735C68.6215 30.5555 74.4223 27.6776 80.6283 26.1554C82.7464 25.6341 84.8978 25.259 87.0675 25.0325C87.5587 25.0325 88.0555 25.0492 88.544 25.0547C89.0325 25.0603 89.4933 25.1129 89.9485 25.1712C91.3084 25.3375 92.6074 26.0029 93.762 26.7099C95.9293 27.9864 97.8782 29.6011 99.535 31.4926C100.95 33.1975 102.042 35.1449 102.76 37.2401C103.11 38.2271 103.36 39.2419 103.779 40.2012C104.132 40.9986 104.558 41.7615 105.053 42.4802C107.193 45.6326 110.162 48.1085 112.849 50.773C113.526 51.4467 114.195 52.1315 114.831 52.8468C115.426 53.5091 115.975 54.2112 116.474 54.9484C116.958 55.6504 117.382 56.3925 117.739 57.1665C117.759 57.2164 117.781 57.2663 117.803 57.3134V57.3412V57.3717C117.845 57.4687 117.884 57.5685 117.923 57.6683C117.998 57.8652 118.064 58.0648 118.128 58.2672C118.254 58.6716 118.354 59.0837 118.428 59.501C118.444 59.5925 118.458 59.684 118.472 59.7782C118.472 59.8004 118.492 59.9418 118.494 59.9723C118.517 60.2024 118.533 60.4353 118.539 60.671C118.549 61.1155 118.529 61.5601 118.478 62.0018C118.478 62.0018 118.478 62.0434 118.478 62.0767C118.478 62.11 118.456 62.2264 118.461 62.2015C118.433 62.3734 118.406 62.5453 118.372 62.7199C118.308 63.0748 118.236 63.4297 118.147 63.7818C117.986 64.4361 117.814 65.0877 117.592 65.7226C116.735 68.3011 115.372 70.6938 113.865 72.9507C113.495 73.5052 113.115 74.0514 112.727 74.5893C112.33 75.1438 113.102 75.8591 113.648 75.5098C116.038 73.9547 118.175 72.0446 119.988 69.8454C121.781 67.6939 123.451 65.1709 124.068 62.3983C124.613 59.8057 124.135 57.1029 122.733 54.8542C121.306 52.4836 119.26 50.6038 117.459 48.5244C117.254 48.2888 117.054 48.0503 116.857 47.8091L116.579 47.4681L116.443 47.2962L116.377 47.2102V47.1908V47.177C116.019 46.7084 115.677 46.2343 115.353 45.7463C114.694 44.7543 114.116 43.7112 113.623 42.6272L113.449 42.2307C113.449 42.2085 113.429 42.1836 113.418 42.1614C113.382 42.0699 113.343 41.9812 113.307 41.8841C113.188 41.5903 113.077 41.2964 112.968 40.9997C112.738 40.3565 112.53 39.7021 112.338 39.045C111.982 37.7648 111.413 36.5531 110.656 35.4601C109.177 33.3613 107.115 31.8114 104.981 30.4307C103.87 29.7071 102.724 29.0084 101.586 28.3097C100.352 27.529 99.0697 26.8262 97.7476 26.2053C97.0315 25.8782 96.3016 25.5926 95.5605 25.332L95.3773 25.2654L95.3301 25.246C95.2219 25.1961 95.1136 25.1462 95.0054 25.0908L94.7279 24.9466C96.4914 25.1012 98.2393 25.3998 99.9541 25.8393C101.332 26.1792 102.683 26.6174 103.998 27.1508C104.325 27.3448 104.647 27.5445 104.969 27.7496C105.902 28.343 106.832 28.9391 107.745 29.5518C109.591 30.7285 111.323 32.0743 112.918 33.572C113.693 34.3164 114.399 35.1293 115.028 36.0008C115.677 36.9157 116.232 37.9 116.801 38.8648C117.899 40.8126 119.094 42.704 120.382 44.5319C121.06 45.4643 121.802 46.3489 122.602 47.1797C123.402 47.9733 124.252 48.7142 125.147 49.3978C126.829 50.7258 128.514 52.1343 129.588 53.9725C130.175 54.9744 130.547 56.0878 130.679 57.2414C130.782 58.4753 130.773 59.7159 130.654 60.9483C130.562 62.2347 130.51 63.5212 130.421 64.8077C130.326 66.1413 130.174 67.4638 130.027 68.7891C129.893 69.9979 129.749 71.1014 129.496 72.2492C129.229 73.3466 129.079 74.4694 129.05 75.5985C129.042 76.1199 129.098 76.6403 129.216 77.1483C129.248 77.2598 129.308 77.361 129.391 77.4421C129.473 77.5232 129.576 77.5814 129.688 77.6108C129.8 77.6402 129.918 77.6398 130.03 77.6098C130.142 77.5798 130.244 77.521 130.326 77.4394C131.228 76.4275 131.739 75.0855 132.191 73.8351C132.663 72.5265 133.118 71.1956 133.513 69.8648C133.978 68.1967 134.333 66.5 134.576 64.7855C134.853 63.0305 135.181 61.2782 135.381 59.5176C135.583 57.7815 135.655 56.0327 135.597 54.2858C135.564 52.7463 135.378 51.2139 135.042 49.7111C134.772 48.5355 134.294 47.4174 133.632 46.409C132.861 45.3118 131.924 44.3402 130.856 43.5283C129.449 42.4192 128.025 41.3102 126.629 40.2012C125.314 39.1421 123.926 38.0913 122.819 36.8076C122.344 36.2518 121.909 35.6635 121.517 35.047C121.09 34.3982 120.684 33.7273 120.293 33.0619C119.677 32.0332 119.086 30.9769 118.27 30.0897C116.943 28.6452 115.217 27.5611 113.471 26.6683C109.42 24.6431 105.045 23.3435 100.545 22.8284C98.9105 22.6565 97.1564 22.5511 95.5494 22.9975C95.258 23.0778 94.9738 23.1826 94.7001 23.3108C91.8191 23.107 88.9251 23.1878 86.06 23.552C81.1696 24.1307 76.3962 25.4518 71.905 27.4696C72.8629 26.6448 73.8674 25.8756 74.9136 25.1656C77.3421 23.5021 80.026 22.1158 82.9153 21.4947C84.5418 21.1454 86.2015 21.1842 87.8557 21.2175C89.4127 21.301 90.9738 21.1732 92.4963 20.8376C93.8021 20.5287 95.0624 20.0525 96.246 19.4209C97.3575 18.792 98.3835 18.0233 99.2991 17.1335C99.8542 16.6123 100.357 16.0494 100.939 15.5642C101.467 15.1294 102.044 14.7572 102.657 14.4552C103.765 13.9081 104.989 13.6378 106.224 13.6678C107.463 13.7061 108.686 13.9672 109.832 14.4386C111.022 14.9374 112.151 15.5709 113.196 16.3267C116.948 18.9495 119.843 22.7618 122.741 26.3384C124.328 28.2986 125.877 30.2754 127.634 32.0942C129.661 34.1936 131.886 36.0924 134.279 37.7641C134.95 38.2327 135.619 38.7068 136.307 39.1504C136.434 39.2287 136.581 39.2666 136.73 39.2591C136.878 39.2515 137.021 39.1988 137.138 39.1081C137.256 39.0173 137.343 38.8929 137.388 38.7513C137.433 38.6097 137.434 38.4578 137.39 38.3159ZM27.0224 114.107C26.2119 112.967 25.3959 111.833 24.6132 110.674C23.1901 108.767 22.2339 106.554 21.8211 104.211C21.4009 101.925 21.1973 99.6043 21.2133 97.2799C21.2205 95.1377 20.9176 93.0057 20.314 90.9501C19.0845 86.9771 16.7836 83.4642 14.6159 79.9569C12.4233 76.4025 10.35 72.8259 9.55618 68.7114C9.53398 68.5922 9.51178 68.473 9.49235 68.3538C9.49235 68.3316 9.45626 68.1098 9.45349 68.1015C9.41741 67.8242 9.39245 67.547 9.37024 67.2697C9.32861 66.7152 9.3175 66.1607 9.32583 65.6256C9.34659 64.4998 9.45424 63.3773 9.64779 62.268C9.85891 61.0485 10.151 59.8444 10.522 58.6637C10.5443 58.891 10.5692 59.1156 10.5998 59.3402C10.8773 61.3325 11.2862 63.3044 11.8238 65.243C12.3057 67.195 12.929 69.1094 13.6889 70.9711C14.5049 72.8675 15.5041 74.6752 16.4644 76.4968C17.4572 78.2725 18.3145 80.1206 19.0289 82.0253C19.8099 84.3067 20.424 86.6418 20.8663 89.0121C21.3215 91.3133 21.6296 93.6478 22.1236 95.9435C22.6066 98.181 23.3559 100.346 24.0498 102.523C24.4023 103.632 24.7409 104.741 25.024 105.875C25.3071 107.009 25.5791 108.201 25.8567 109.36C26.3007 111.098 26.7865 112.837 27.3249 114.556C27.2389 114.409 27.1306 114.259 27.0224 114.107ZM12.4899 134.967C12.4122 134.94 12.4538 134.951 12.4899 134.967V134.967ZM32.0599 135.702C33.125 135.589 34.2008 135.629 35.2545 135.821C35.5321 135.874 35.8096 135.949 36.0872 135.996C36.4015 136.025 36.7181 136.017 37.0308 135.974C37.6192 135.935 38.2049 135.904 38.7933 135.888C39.3817 135.871 39.9256 135.888 40.4946 135.888C40.7475 135.895 41.0007 135.886 41.2524 135.86C41.4799 135.835 41.6104 135.802 41.7491 135.794C40.9609 136.456 40.3781 137.349 39.7813 138.181C39.1069 139.126 38.4546 140.091 37.7247 140.998C37.5498 141.214 37.3639 141.422 37.1862 141.638C37.0302 141.876 36.9104 142.136 36.831 142.409C36.6395 142.874 36.4217 143.327 36.1787 143.767C35.2184 145.564 34.0527 147.311 33.7557 149.368C33.7363 149.628 33.6983 149.887 33.6419 150.141C33.5587 150.419 33.4255 150.696 33.3311 150.973C33.1299 151.576 32.9686 152.191 32.8482 152.814C32.6155 154.001 32.5223 155.21 32.5706 156.419C32.6944 158.707 33.249 160.951 34.2054 163.034C34.2239 163.109 34.2558 163.181 34.2997 163.245C34.3209 163.291 34.349 163.334 34.383 163.372C38.1938 169.294 44.4636 172.901 49.0931 178.089C50.2266 179.339 51.2119 180.716 52.0296 182.192C52.9077 183.727 53.4983 185.409 53.7726 187.155C53.8435 187.792 53.8041 188.436 53.656 189.06C53.5561 189.562 53.4423 190.061 53.3618 190.565C53.3035 191.18 53.2896 191.798 53.3202 192.415C53.3202 193.604 53.3202 194.796 53.2231 195.983C53.1208 197.148 52.9089 198.301 52.5903 199.427C52.4763 199.976 52.392 200.531 52.3377 201.09C52.2461 201.697 52.1406 202.304 52.0185 202.906C51.7922 204.065 51.4786 205.205 51.0804 206.316C50.8945 206.825 50.6795 207.323 50.4365 207.808C50.2116 208.257 49.7398 208.615 49.3679 208.945C48.6236 209.607 47.8199 210.2 46.9671 210.716C43.4922 212.835 39.3928 213.783 35.3738 214.135C32.9231 214.351 30.4668 214.534 28.0049 214.551C25.4487 214.551 22.8924 214.434 20.3473 214.193C19.2121 214.088 17.9798 214.063 16.8863 213.727C16.1619 213.506 15.4347 213.295 14.7047 213.084C13.1671 212.635 11.6295 212.177 10.139 211.592C7.4801 210.547 4.69908 208.925 3.71378 206.122C3.43623 205.318 3.37516 204.5 3.21696 203.671C3.03192 202.699 2.84689 201.726 2.66186 200.752C2.30382 198.85 1.96522 196.945 1.73485 195.024C1.30187 191.4 1.20473 187.649 2.28995 184.125C2.82543 182.385 3.65629 180.751 4.74626 179.292C5.33945 178.506 6.00072 177.774 6.72241 177.105C7.09248 176.75 7.48381 176.41 7.89644 176.084C8.32109 175.741 8.69302 175.35 9.08992 174.975C12.143 172.125 15.715 169.838 18.2491 166.475C18.5516 166.078 18.8374 165.665 19.1011 165.241C19.3648 164.817 19.7561 164.442 20.0642 164.029C20.6566 163.213 21.1329 162.32 21.4797 161.373C22.1875 159.516 22.4678 157.505 22.5733 155.531C22.6315 155.037 22.6315 154.537 22.5733 154.042C22.4567 153.446 22.2957 152.853 22.1542 152.262C21.8581 151.124 21.5102 149.999 21.1106 148.888C20.3066 146.645 19.3361 144.464 18.2074 142.364C17.1052 140.293 15.8616 138.299 14.4855 136.398C14.3397 136.197 14.1741 136.011 13.9914 135.843H14.0442C15.2451 135.936 16.4514 135.936 17.6523 135.843C18.2074 135.807 18.7903 135.774 19.3592 135.774C20.0115 135.774 20.7053 135.949 21.3437 135.841C22.5246 135.667 23.7222 135.637 24.9102 135.752C25.4903 135.799 26.0676 135.86 26.6477 135.91C27.0306 135.944 27.4151 135.958 27.7995 135.952C27.694 141.078 27.5997 146.21 27.2999 151.325C27.0668 155.262 26.6616 159.169 26.1425 163.078C25.6235 166.988 25.3488 170.861 25.1517 174.767C24.9713 178.325 24.7021 181.904 24.7409 185.467C24.7742 188.533 24.9158 191.591 24.7409 194.658C24.7009 196.005 24.4787 197.34 24.0804 198.628C23.9055 199.141 24.7465 199.507 24.9657 199.002C26.0759 196.424 26.2869 193.599 26.3535 190.823C26.434 187.823 26.3285 184.832 26.4673 181.832C26.6421 178.031 26.7809 174.227 27.0529 170.431C27.3249 166.635 27.8856 162.856 28.3047 159.064C29.1651 151.359 29.3982 143.609 29.5425 135.852C30.3696 135.835 31.2189 135.782 32.0599 135.702ZM32.1432 110.35C32.7121 109.202 33.2006 108.015 33.7807 106.87C34.3353 105.772 34.9467 104.703 35.6125 103.668C36.9464 101.619 38.5007 99.7226 40.2476 98.0118C41.1857 97.0775 42.1905 96.2208 43.1619 95.3197C44.049 94.4978 44.8921 93.6297 45.6876 92.719C47.2127 90.9645 48.5365 89.045 49.6343 86.9965C50.8501 84.6634 51.9053 82.2503 52.7929 79.7739C53.8281 76.9764 54.7524 74.1401 55.7904 71.3454C56.5469 69.2065 57.4578 67.1253 58.5159 65.1182C59.0117 64.2062 59.5545 63.3205 60.1424 62.4649C60.7132 61.6188 61.3518 60.8205 62.0519 60.0777C62.4032 59.7046 62.7738 59.3502 63.1621 59.0158C63.5084 58.7082 63.8798 58.43 64.2723 58.184C64.6661 57.9282 65.0791 57.703 65.5074 57.5103C65.5508 57.4959 65.5934 57.4793 65.6351 57.4604C64.5064 58.7254 63.4851 60.0822 62.582 61.5166C61.3292 63.5461 60.2636 65.6852 59.3986 67.9074C57.625 72.3435 56.5065 77.0291 55.2047 81.626C54.5747 83.8441 53.928 86.0871 53.162 88.2802C52.4182 90.4039 51.5827 92.3919 50.2672 94.3105C49.6734 95.1823 48.9743 95.9775 48.1855 96.6782C47.2474 97.51 46.1844 98.2309 45.1575 98.9822C42.9038 100.646 40.6195 102.243 38.4658 104.026C37.4034 104.892 36.3906 105.818 35.4321 106.798C34.4891 107.792 33.6182 108.852 32.826 109.97C32.1404 110.926 31.5243 111.911 30.8831 112.914C31.0191 112.637 31.1606 112.382 31.305 112.119C31.5908 111.528 31.8573 110.932 32.1432 110.353V110.35ZM30.6805 71.7197C29.512 68.9305 28.424 66.1329 27.694 63.1968C26.9041 60.1918 26.514 57.0959 26.5339 53.9891C26.5571 52.4525 26.7329 50.922 27.0585 49.42C27.4277 47.9493 27.8743 46.4991 28.3962 45.0754C28.8929 43.6877 29.2699 42.2602 29.5231 40.8084C29.7668 39.2371 29.7901 37.6395 29.5925 36.0618C29.401 34.5175 29.079 32.9981 28.832 31.4649C28.6101 30.0479 28.4822 28.6179 28.449 27.184C28.3768 24.4503 28.6877 21.6223 30.2586 19.3017C31.28 17.7934 32.6899 16.6206 34.1165 15.4866C32.4318 18.883 30.9358 22.3598 30.7249 26.2164C30.5667 29.1581 31.2467 32.0859 31.6824 34.9777C32.1071 37.7835 32.4263 40.6171 32.2792 43.459C32.2033 44.919 31.9914 46.3689 31.6464 47.7897C31.2883 49.2425 30.8304 50.6704 30.4585 52.1204C29.7174 55.0039 29.1512 57.9844 29.2483 60.9732C29.2909 62.4822 29.5221 63.9799 29.9367 65.4315C30.3474 66.84 30.8831 68.204 31.3633 69.5903C32.3042 72.313 33.1756 75.0772 33.6003 77.9357C33.7502 78.9533 33.8557 79.9902 33.925 81.0327C33.8529 80.6861 33.7724 80.3423 33.6864 79.9957C32.9592 77.1594 31.8157 74.4285 30.6805 71.7224V71.7197ZM53.6255 63.5517C53.6255 63.5683 53.6255 63.5711 53.6255 63.5517V63.5517ZM40.7195 80.9634C42.2598 78.2158 43.6559 75.385 44.9688 72.5209C46.2816 69.6569 47.5305 66.8095 48.8211 63.9565C49.9951 61.3669 51.1747 58.8023 52.7956 56.4539C53.5431 55.3693 54.3668 54.339 55.2603 53.3709C56.1351 52.4137 57.0785 51.5213 58.083 50.7009C58.3605 50.4791 58.5104 50.3599 58.7435 50.1824C59.0211 49.9772 59.2986 49.7776 59.5762 49.5835C60.0924 49.2324 60.6244 48.9006 61.1721 48.5882C62.2032 47.9915 63.291 47.4984 64.4194 47.116C65.008 46.9156 65.6064 46.7454 66.2124 46.6058C66.5093 46.5365 66.8063 46.4755 67.1061 46.4228C67.4502 46.3618 67.6612 46.3313 67.9165 46.3036C69.1409 46.1631 70.377 46.1585 71.6024 46.2897C72.2045 46.3606 72.8022 46.4652 73.3926 46.603C74.0504 46.7558 74.6991 46.9455 75.3354 47.1714C76.6275 47.6405 77.8652 48.2475 79.0268 48.9819C80.2643 49.7586 81.3904 50.6997 82.3741 51.7794C83.3622 52.8496 84.2504 53.9975 85.1496 55.1481C86.0489 56.2987 86.9315 57.4548 88.0417 58.3476C89.1497 59.1794 90.4207 59.7689 91.7719 60.0777C92.191 60.1803 92.6046 60.2634 93.0403 60.3328C93.0181 60.3799 92.9931 60.4242 92.9737 60.4603C92.8988 60.5934 92.821 60.7209 92.7322 60.8484C92.7183 60.8679 92.6573 60.9427 92.6518 60.9538L92.5185 61.0952C92.4186 61.1922 92.3159 61.281 92.2105 61.3725L92.1411 61.4251L91.9579 61.5444C91.8969 61.5832 91.833 61.6165 91.7691 61.6525L91.6997 61.6913L91.6581 61.7079L91.4277 61.8216L91.3112 61.8688C91.0677 61.9632 90.8172 62.0383 90.5618 62.0933L90.3398 62.1377L90.2038 62.1571H90.0899L89.8596 62.1737C89.5527 62.1918 89.245 62.1918 88.9381 62.1737L88.5107 62.1349C88.4358 62.1349 88.2831 62.0989 88.4441 62.1349L88.1665 62.0906C87.5351 61.979 86.9127 61.8214 86.3042 61.6192C85.9961 61.5166 85.6908 61.4057 85.3883 61.2837L85.1773 61.1978H85.1607L85.1135 61.1756C84.9581 61.1063 84.7999 61.037 84.6472 60.9649C83.5935 60.4712 82.5921 59.873 81.658 59.1794L81.522 59.0712C81.3888 58.9631 81.2611 58.8494 81.1307 58.7385C80.8143 58.4613 80.5034 58.184 80.1953 57.9068C79.5653 57.3301 78.9519 56.7423 78.3302 56.1573C77.1029 54.9592 75.7883 53.8536 74.3973 52.8496C71.6828 50.9329 68.3744 50.0426 65.0633 50.3377C62.5396 50.5705 60.1471 51.5667 58.2051 53.1934C56.3427 54.735 54.9189 56.7783 53.7643 58.8855C52.5366 61.2201 51.4819 63.6415 50.6085 66.1302C49.7343 68.4924 48.9433 70.8851 48.019 73.2307C47.9135 73.508 47.8025 73.7852 47.6915 74.0486L47.5305 74.4395V74.4673C47.5028 74.5366 47.4722 74.6087 47.4417 74.678C47.2224 75.1826 46.9948 75.6816 46.7506 76.1752C46.4265 76.837 46.0641 77.4795 45.6654 78.0993C45.5469 78.2842 45.4248 78.4644 45.299 78.64L45.1075 78.9172L44.9965 79.0642C44.9832 79.0799 44.9711 79.0965 44.9604 79.1141L44.941 79.1363C44.6634 79.4967 44.3553 79.8488 44.0417 80.1843C43.4097 80.8605 42.7248 81.4854 41.9934 82.053C41.9129 82.1168 41.9712 82.0696 41.9934 82.053L41.8435 82.1667L41.566 82.3607C41.3606 82.5105 41.1524 82.6546 40.9415 82.796L40.0478 83.3811C39.5593 83.7027 39.0745 84.0317 38.5934 84.3681C39.3317 83.2535 40.0506 82.1251 40.7 80.9634H40.7195ZM42.0767 45.6576C42.3215 42.7707 42.9959 39.9365 44.0778 37.2484C45.1103 34.5895 46.4925 32.1247 47.9635 29.6849C49.5344 27.0704 50.9277 24.2701 51.2941 21.2092C51.4828 19.6676 51.4412 18.1122 51.4884 16.5624C51.5064 15.2186 51.6863 13.8818 52.024 12.581C52.3215 11.4867 52.7327 10.4264 53.2508 9.41748C53.5228 8.88515 53.8198 8.36668 54.1417 7.86207C54.4433 7.39128 54.7684 6.936 55.1159 6.49797C55.4903 6.03487 55.8897 5.59246 56.3122 5.17269C56.5009 4.98693 56.6952 4.80394 56.895 4.61818C57.0061 4.51837 57.1171 4.4241 57.2309 4.34092L57.4002 4.19952L57.5584 4.07476C58.0061 3.731 58.4772 3.4188 58.9683 3.14041C59.207 3.00178 59.4513 2.86315 59.7011 2.75502C59.8315 2.69125 59.962 2.63025 60.0952 2.57203L60.1396 2.55262L60.3811 2.45835C62.879 1.50182 65.7183 1.50459 68.344 1.82621C70.1203 2.04524 71.9299 2.45281 73.7395 2.81879C69.8927 3.65056 66.1014 4.84275 63.0095 7.3131C59.1765 10.3629 58.2911 15.2925 56.8201 19.687C56.4761 20.7478 56.0569 21.7828 55.5656 22.784C55.0632 23.8154 54.4998 24.8135 53.9003 25.7867C52.6929 27.7441 51.3385 29.6073 49.9896 31.4676C47.2946 35.1829 44.5524 38.9813 43.1508 43.4063C42.809 44.4866 42.5601 45.5941 42.4069 46.7167C42.2567 47.9362 42.1909 49.1646 42.2099 50.3931C42.016 48.8225 41.9649 47.2375 42.0572 45.6576H42.0767ZM90.8144 25.1739C90.8337 25.1766 90.8533 25.1766 90.8727 25.1739C90.7366 25.1989 90.7394 25.1767 90.7949 25.1739H90.8144ZM98.9271 28.6091C100.165 29.2967 101.358 30.0592 102.558 30.805C103.584 31.4427 104.611 32.0831 105.597 32.7846C105.835 32.9537 106.071 33.1284 106.304 33.3031L106.34 33.3308L106.371 33.3558L106.543 33.4888C106.676 33.5942 106.807 33.7023 106.934 33.8105C107.396 34.1945 107.835 34.6045 108.25 35.0387C108.447 35.2466 108.639 35.4601 108.822 35.6792L108.958 35.8455L109.033 35.9398C109.127 36.0645 109.219 36.1893 109.31 36.3168C109.662 36.8161 109.971 37.3448 110.232 37.8972C110.265 37.9665 110.296 38.0358 110.326 38.1024C110.326 38.1024 110.365 38.1911 110.379 38.2271C110.432 38.3547 110.484 38.485 110.532 38.6181C110.651 38.9425 110.745 39.2752 110.842 39.6079C111.031 40.2483 111.236 40.886 111.464 41.5126C112.285 43.7896 113.443 45.9308 114.9 47.8646C115.686 48.9043 116.532 49.8968 117.398 50.8562C118.264 51.8155 119.258 52.7775 120.11 53.8117C120.21 53.9337 120.31 54.0557 120.407 54.1804L120.501 54.2997L120.618 54.4522C120.815 54.7294 121.006 54.99 121.189 55.2673C121.532 55.7811 121.84 56.3174 122.111 56.8726C122.225 57.0945 122.325 57.3232 122.411 57.5574C122.522 57.8485 122.616 58.1452 122.688 58.4446C122.847 58.9853 122.933 59.5448 122.944 60.1082C123.01 62.7088 121.753 65.1542 120.265 67.3168C119.067 69.0323 117.67 70.5996 116.102 71.9858C116.873 70.7421 117.554 69.4449 118.139 68.1042C118.712 66.8216 119.156 65.4851 119.463 64.1145C119.727 62.9919 119.848 61.8405 119.824 60.6876C119.635 56.9225 117.251 53.8755 114.756 51.2609C112.091 48.4634 109.038 46.018 106.637 42.9793C105.545 41.6401 104.711 40.1095 104.178 38.4656C102.995 33.9484 100.219 30.01 96.3598 27.3753C96.5624 27.4585 96.765 27.5445 96.9704 27.636C97.6365 27.9271 98.2777 28.257 98.9077 28.6091H98.9271ZM105.166 25.368C106.243 25.6471 107.307 25.9687 108.358 26.3329C108.891 26.5159 109.418 26.7127 109.94 26.9179L110.298 27.062L110.476 27.1369L110.57 27.1757C110.812 27.2783 111.053 27.3837 111.292 27.4918C112.253 27.9246 113.188 28.4124 114.092 28.9529C114.5 29.2025 114.903 29.4631 115.294 29.7403L115.572 29.9483L115.694 30.0425H115.711C115.885 30.1812 116.06 30.3198 116.227 30.4695C116.546 30.7452 116.847 31.0406 117.129 31.354C117.19 31.4233 117.251 31.4926 117.309 31.5647L117.395 31.6645V31.6506V31.6673C117.456 31.7449 117.456 31.7588 117.426 31.7172C117.523 31.8641 117.637 31.9944 117.734 32.1525C118.567 33.4445 119.299 34.7975 120.149 36.0784C120.585 36.7391 121.061 37.3724 121.575 37.9748C122.106 38.5734 122.684 39.1296 123.302 39.6384C124.628 40.7751 125.994 41.8564 127.368 42.9377C128.611 43.9109 129.932 44.8342 131.053 45.9515C131.27 46.165 131.481 46.3896 131.678 46.6224C131.756 46.7139 131.831 46.8082 131.906 46.8997L131.961 46.9746L132.114 47.1881C132.416 47.6468 132.683 48.1279 132.913 48.627C132.913 48.627 132.913 48.6492 132.913 48.6603C132.941 48.7296 132.971 48.8017 132.996 48.871C133.046 49.0069 133.094 49.1483 133.141 49.2758C133.232 49.553 133.31 49.8303 133.382 50.1297C133.454 50.4292 133.518 50.7369 133.571 51.0447C133.599 51.1916 133.624 51.3413 133.646 51.4911L133.679 51.7184C133.679 51.7739 133.693 51.8293 133.699 51.882C133.894 53.5425 133.961 55.2157 133.898 56.8865C133.868 57.7515 133.81 58.6165 133.724 59.476C133.638 60.3355 133.54 61.012 133.407 61.841C133.13 63.5351 132.924 65.2346 132.611 66.9231C132.458 67.7549 132.28 68.57 132.055 69.3768C131.87 70.0506 131.639 70.7104 131.434 71.3786C131.228 72.0468 131.045 72.6623 130.834 73.3C130.723 73.63 130.612 73.9599 130.49 74.2843L130.335 74.6863C130.371 74.3647 130.423 74.0375 130.482 73.7159C130.679 72.6235 130.943 71.5422 131.156 70.4526C131.675 67.7826 131.831 65.0766 131.989 62.365C132.139 59.8254 132.491 57.2136 131.567 54.7682C130.734 52.5724 129.166 50.8284 127.404 49.3368C126.543 48.6104 125.625 47.9505 124.775 47.213C123.918 46.4652 123.126 45.6462 122.408 44.7648C121.003 43.0653 119.813 41.1051 118.666 39.1837C117.49 37.2096 116.366 35.2051 114.8 33.4999C113.23 31.856 111.478 30.3965 109.577 29.1498C108.664 28.5287 107.728 27.9409 106.801 27.3559C105.816 26.7404 104.836 26.1111 103.801 25.5787C103.036 25.1764 102.237 24.8415 101.414 24.5778C101.611 24.6056 101.808 24.6361 102.002 24.6693C103.054 24.8745 104.106 25.1018 105.147 25.368H105.166ZM67.0894 34.5757C67.7241 34.3335 68.3717 34.1182 69.0323 33.9297C69.6929 33.7356 70.3645 33.572 71.0417 33.4417C71.3332 33.3863 71.6246 33.3336 71.9188 33.2892L72.1269 33.2587L72.299 33.2365L72.8291 33.1783C74.1779 33.0536 75.5354 33.0536 76.8842 33.1783C77.6225 33.2449 78.0887 33.3086 78.8104 33.4362C79.4616 33.5409 80.1051 33.6891 80.7365 33.8798C80.9808 33.9546 81.2195 34.0378 81.4582 34.1321L81.6691 34.2152H81.6941L81.7357 34.2347L82.141 34.4232C82.6315 34.6596 83.1078 34.9244 83.5675 35.2161C84.0477 35.5156 84.514 35.8427 84.9553 36.181L85.2079 36.3723L85.3105 36.4499L85.4854 36.5886L86.1238 37.1043C87.9085 38.5709 89.6376 40.1374 91.6415 41.3075C92.5019 41.8065 93.4234 42.1919 94.3004 42.6632C95.1775 43.1346 96.0268 43.6447 96.8511 44.1937C97.3035 44.4931 97.742 44.8064 98.1778 45.128L98.4553 45.3388L98.6274 45.4691L98.7162 45.5356L98.805 45.6049L98.9743 45.7408C99.0881 45.8295 99.1992 45.921 99.3102 46.018C100.147 46.7035 100.936 47.4445 101.672 48.2361C102.026 48.6168 102.362 49.0096 102.682 49.4144C102.716 49.456 102.782 49.542 102.871 49.6612L103.074 49.9384C103.235 50.1602 103.39 50.3904 103.534 50.6233C103.679 50.8562 103.751 50.9421 103.906 51.1916C104.062 51.4412 104.184 51.6491 104.306 51.8875C104.509 52.2962 104.681 52.7198 104.82 53.1546C105.451 55.0082 105.361 57.0315 104.567 58.8217C104.514 58.9354 104.461 59.0491 104.406 59.16C104.096 57.7025 103.688 56.2677 103.185 54.8653C102.463 52.9716 101.553 51.1334 100.24 49.578C98.8522 47.9283 97.001 46.8054 95.0054 46.0347C93.1153 45.3055 91.1197 44.8868 89.2101 44.2325C87.1202 43.52 85.2439 42.3472 83.29 41.338C81.3175 40.2838 79.2567 39.4034 77.1312 38.7068C70.8797 36.7289 64.1035 37.2548 58.2328 40.1735L58.8989 39.619C59.3847 39.2169 59.8704 38.8177 60.3672 38.4295L60.5004 38.327L60.6669 38.1994L61.0111 37.9416C61.2886 37.7364 61.5662 37.5368 61.8437 37.3399C62.9156 36.5945 64.0461 35.9371 65.2243 35.3742C65.896 35.0387 66.3761 34.8363 67.07 34.5757H67.0894ZM129.716 32.3576C127.855 30.5251 126.121 28.5688 124.526 26.502C123.049 24.6277 121.642 22.6509 120.182 20.8044C118.733 18.9571 117.076 17.2826 115.244 15.8138C113.154 14.1502 110.79 12.678 108.131 12.1845C106.77 11.9163 105.368 11.9286 104.012 12.2205C102.571 12.5645 101.226 13.2278 100.076 14.1613C98.966 15.043 98.0501 16.1576 96.9205 17.0282C96.001 17.7215 94.9881 18.2815 93.9118 18.6917C92.5865 19.2005 91.1888 19.4962 89.7708 19.5678C88.1055 19.6205 86.4402 19.4625 84.7749 19.5678C81.6386 19.7841 78.6688 20.9901 75.9682 22.5566C73.8978 23.7677 71.9569 25.1873 70.1758 26.7931C71.0008 25.5935 71.8961 24.4436 72.8569 23.3496C75.1384 20.8349 78.147 18.9856 81.6164 18.8525C83.7313 18.7693 85.849 19.0909 87.9584 18.7943C89.8739 18.4911 91.6572 17.6298 93.0847 16.3184C95.752 13.9645 97.6005 10.8259 100.054 8.26409C101.052 7.16436 102.222 6.23362 103.518 5.50817C104.724 4.8644 106.091 4.58503 107.453 4.70413C109.158 4.8483 110.845 5.63848 112.313 6.54788C113.713 7.40153 115.054 8.34624 116.329 9.37589C118.668 11.2364 120.603 13.5533 122.016 16.1853C122.731 17.5718 123.299 19.0288 123.712 20.5327C123.954 21.3949 124.154 22.2683 124.32 23.1472C124.423 23.8906 124.577 24.6261 124.781 25.3486C125.614 27.8245 127.615 29.4381 129.632 30.9436C131.747 32.5184 133.873 34.1681 135.147 36.583C135.181 36.644 135.208 36.7078 135.239 36.7715C133.255 35.4815 131.399 34.0054 129.696 32.3632L129.716 32.3576Z" fill="#333333"/>
</svg>
