<svg width="32" height="26" viewBox="0 0 32 26" fill="none" xmlns="http://www.w3.org/2000/svg">
<path d="M31.6029 12.1239L16.6546 0.228744C16.4685 0.0806338 16.2378 0 16 0C15.7622 0 15.5315 0.0806338 15.3454 0.228744L0.397072 12.1239C0.178772 12.2977 0.0383777 12.5511 0.00677577 12.8284C-0.0248262 13.1057 0.0549527 13.3842 0.228561 13.6027C0.402169 13.8211 0.655386 13.9616 0.932508 13.9932C1.20963 14.0248 1.48795 13.945 1.70625 13.7713L16 2.3967L30.2937 13.7713C30.512 13.945 30.7904 14.0248 31.0675 13.9932C31.3446 13.9616 31.5978 13.8211 31.7714 13.6027C31.9451 13.3842 32.0248 13.1057 31.9932 12.8284C31.9616 12.5511 31.8212 12.2977 31.6029 12.1239Z" fill="white"/>
<path d="M25.9535 12C25.676 12 25.4098 12.1089 25.2135 12.3027C25.0173 12.4966 24.907 12.7595 24.907 13.0336V23.9329H20.9944V19.5872C20.9944 16.8674 18.7539 14.6547 16 14.6547C13.2461 14.6547 11.0056 16.8674 11.0056 19.5872V23.9329H7.093V13.0336C7.093 12.7595 6.98274 12.4966 6.78648 12.3027C6.59023 12.1089 6.32405 12 6.0465 12C5.76895 12 5.50277 12.1089 5.30651 12.3027C5.11026 12.4966 5 12.7595 5 13.0336V24.9664C5 25.2405 5.11026 25.5034 5.30651 25.6973C5.50277 25.8911 5.76895 26 6.0465 26H12.0521C12.3296 26 12.5958 25.8911 12.7921 25.6973C12.9883 25.5034 13.0986 25.2405 13.0986 24.9664V19.5872C13.0986 18.8272 13.4043 18.0983 13.9484 17.5609C14.4925 17.0235 15.2305 16.7216 16 16.7216C16.7695 16.7216 17.5075 17.0235 18.0516 17.5609C18.5957 18.0983 18.9014 18.8272 18.9014 19.5872V24.9664C18.9014 25.2405 19.0117 25.5034 19.2079 25.6973C19.4042 25.8911 19.6704 26 19.9479 26H25.9535C26.2311 26 26.4972 25.8911 26.6935 25.6973C26.8897 25.5034 27 25.2405 27 24.9664V13.0336C27 12.7595 26.8897 12.4966 26.6935 12.3027C26.4972 12.1089 26.2311 12 25.9535 12Z" fill="white"/>
</svg>
