<svg width="161" height="161" viewBox="0 0 161 161" fill="none" xmlns="http://www.w3.org/2000/svg">
<path d="M86.6839 92.8318C82.2377 86.9021 84.8071 84.0876 85.1566 83.7535C88.0505 81.0197 92.0249 82.2874 96.9876 87.5298L97.0394 87.5989L123.734 120.56C124.303 121.102 124.645 121.84 124.689 122.625C124.734 123.41 124.478 124.182 123.973 124.784C123.348 125.259 122.564 125.476 121.784 125.393C121.003 125.309 120.283 124.931 119.772 124.335L88.7534 95.2878L88.7073 95.2264C87.9874 94.4677 87.3118 93.6682 86.6839 92.8318ZM86.8845 85.4818C86.7558 85.6622 85.2329 87.9201 90.474 93.4697L121.476 122.493L121.522 122.555C121.51 122.642 121.526 122.73 121.567 122.808C121.608 122.886 121.673 122.948 121.751 122.988C121.83 123.027 121.918 123.041 122.005 123.028C122.092 123.014 122.172 122.974 122.235 122.913C122.298 122.851 122.34 122.772 122.356 122.686C122.372 122.599 122.36 122.51 122.323 122.431C122.286 122.351 122.224 122.285 122.148 122.242C122.072 122.199 121.983 122.181 121.896 122.19L121.844 122.121L95.1422 89.1655C91.9131 85.7551 89.8875 84.91 88.7451 84.7946C88.4045 84.7651 88.0618 84.816 87.7446 84.9434C87.4274 85.0708 87.1446 85.271 86.919 85.5279L86.8845 85.4818Z" fill="black"/>
<path d="M89.4851 67.6482C86.395 74.3848 82.6956 73.4694 82.2353 73.3216C78.452 72.0826 77.67 67.9849 79.9096 61.1223L79.9456 61.0438L96.178 21.8577C96.3825 21.0988 96.8683 20.4463 97.5367 20.0328C98.2051 19.6193 99.0059 19.476 99.7762 19.6319C100.492 19.9556 101.057 20.5401 101.356 21.2661C101.655 21.9922 101.665 22.805 101.385 23.5386L90.6562 64.6577L90.6242 64.7275C90.3009 65.7221 89.9206 66.6973 89.4851 67.6482ZM82.9298 70.9786C83.1498 71.0055 85.8607 71.2668 88.2375 64.0129L98.9544 22.92L98.9865 22.8502C99.0684 22.8188 99.1386 22.7626 99.1872 22.6895C99.2358 22.6163 99.2603 22.5299 99.2575 22.4421C99.2546 22.3544 99.2245 22.2696 99.1713 22.1998C99.1181 22.13 99.0444 22.0785 98.9606 22.0524C98.8767 22.0264 98.7868 22.0271 98.7034 22.0545C98.62 22.0819 98.5472 22.1346 98.4952 22.2053C98.4431 22.276 98.4143 22.3612 98.4129 22.449C98.4115 22.5368 98.4375 22.6228 98.4872 22.6952L98.4512 22.7737L82.2276 61.9637C80.7709 66.4288 80.9946 68.6121 81.4382 69.6712C81.5747 69.9846 81.783 70.2615 82.0463 70.4795C82.3096 70.6975 82.6205 70.8505 82.9538 70.9262L82.9298 70.9786Z" fill="black"/>
<path d="M65.1544 76.631C72.544 76.0618 73.5398 79.7403 73.6341 80.2145C74.3878 84.1235 71.1851 86.7967 64.0982 88.1706L64.0121 88.1772L21.8734 93.0115C21.1107 93.2012 20.3044 93.0933 19.6184 92.7097C18.9324 92.3261 18.4183 91.6956 18.1806 90.9465C18.1162 90.1639 18.3529 89.3863 18.8425 88.7723C19.3321 88.1584 20.0375 87.7545 20.8148 87.6431L61.9714 77.0591L62.048 77.0532C63.0745 76.8529 64.1117 76.7119 65.1544 76.631ZM71.2485 80.7449C71.1653 80.5395 70.0775 78.0427 62.582 79.4866L21.4542 90.0685L21.3776 90.0744C21.3103 90.018 21.2271 89.9839 21.1396 89.977C21.052 89.97 20.9645 89.9905 20.8892 90.0356C20.8139 90.0807 20.7544 90.1481 20.7192 90.2286C20.684 90.309 20.6747 90.3984 20.6927 90.4843C20.7106 90.5703 20.7549 90.6485 20.8193 90.7082C20.8838 90.7678 20.9652 90.8058 21.0523 90.817C21.1394 90.8282 21.2278 90.812 21.3052 90.7706C21.3827 90.7292 21.4453 90.6647 21.4844 90.5861L21.5705 90.5795L63.7084 85.7356C68.3191 84.8413 70.1193 83.5857 70.8298 82.6836C71.0375 82.4122 71.1784 82.0956 71.2412 81.7596C71.304 81.4236 71.2868 81.0775 71.1911 80.7493L71.2485 80.7449Z" fill="black"/>
<path d="M78.3745 85.279C77.3035 84.9434 76.3563 84.2976 75.6526 83.4233C74.949 82.549 74.5207 81.4855 74.4219 80.3676C74.3231 79.2497 74.5582 78.1276 75.0976 77.1435C75.6369 76.1593 76.4562 75.3573 77.4517 74.8391C78.4471 74.3208 79.574 74.1097 80.6895 74.2323C81.8051 74.355 82.8591 74.8059 83.7182 75.5281C84.5773 76.2502 85.2028 77.211 85.5154 78.2889C85.828 79.3667 85.8138 80.5131 85.4744 81.5828C85.0208 83.0129 84.0188 84.2049 82.6881 84.8977C81.3573 85.5905 79.8061 85.7276 78.3745 85.279ZM81.0055 76.9339C80.4226 76.7502 79.7984 76.7433 79.2117 76.9144C78.6249 77.0854 78.1021 77.4266 77.7093 77.8947C77.3165 78.3629 77.0713 78.9371 77.0047 79.5446C76.9382 80.1521 77.0533 80.7657 77.3355 81.3078C77.6177 81.8499 78.0544 82.2961 78.5902 82.59C79.126 82.884 79.7369 83.0124 80.3457 82.9592C80.9545 82.9059 81.5339 82.6733 82.0105 82.2907C82.4871 81.9082 82.8396 81.3929 83.0234 80.8101C83.1515 80.4214 83.2011 80.0113 83.1694 79.6033C83.1377 79.1954 83.0252 78.7978 82.8386 78.4337C82.652 78.0695 82.395 77.7461 82.0824 77.4821C81.7697 77.2181 81.4078 77.0188 81.0175 76.8958L81.0055 76.9339Z" fill="black"/>
</svg>
