<svg width="64" height="64" viewBox="0 0 64 64" fill="none" xmlns="http://www.w3.org/2000/svg">
<g clip-path="url(#clip0_273_583)">
<path d="M56.4502 0H7.54981C3.38016 0 0 3.38044 0 7.55042V56.4496C0 60.6196 3.38016 64 7.54981 64H56.4502C60.6198 64 64 60.6196 64 56.4496V7.55042C64 3.38044 60.6198 0 56.4502 0Z" fill="url(#paint0_linear_273_583)"/>
<path d="M26.3147 30.1401C26.3147 30.1401 31.5647 29.7501 31.5647 23.5951C31.5647 17.4401 27.2697 14.4351 21.8297 14.4351H3.92969V48.8351H21.8297C21.8297 48.8351 32.7547 49.1801 32.7547 38.6801C32.7547 38.6801 33.2347 30.1401 26.3147 30.1401ZM11.8147 20.5501H21.8147C21.8147 20.5501 24.2497 20.5501 24.2497 24.1301C24.2497 27.7101 22.8197 28.2301 21.1947 28.2301H11.8197L11.8147 20.5501ZM21.3647 42.7201H11.8197V33.5301H21.8197C21.8197 33.5301 25.4447 33.4801 25.4447 38.2551C25.4547 42.2301 22.8047 42.6801 21.3697 42.7201H21.3647ZM47.3297 23.1901C34.0997 23.1901 34.1147 36.4051 34.1147 36.4051C34.1147 36.4051 33.2047 49.5551 47.3297 49.5551C47.3297 49.5551 59.0997 50.2251 59.0997 40.4101H53.0497C53.0497 40.4101 53.2497 44.1101 47.5497 44.1101C47.5497 44.1101 41.4947 44.5151 41.4947 38.1101H59.3197C59.3197 38.1101 61.2547 23.1901 47.3297 23.1901ZM52.7097 33.5301H41.4097C41.4097 33.5301 42.1497 28.2301 47.4647 28.2301C52.7797 28.2301 52.7097 33.5301 52.7097 33.5301ZM39.9297 16.4651H54.1197V20.7001H39.9297V16.4651Z" fill="white"/>
</g>
<defs>
<linearGradient id="paint0_linear_273_583" x1="32" y1="0" x2="32" y2="64.0052" gradientUnits="userSpaceOnUse">
<stop stop-color="#005CFF"/>
<stop offset="1" stop-color="#0047AD"/>
</linearGradient>
<clipPath id="clip0_273_583">
<rect width="64" height="64" fill="white"/>
</clipPath>
</defs>
</svg>
