<svg width="326" height="174" viewBox="0 0 326 174" fill="none" xmlns="http://www.w3.org/2000/svg">
<path d="M241.852 168.096L225.21 152.18C224.655 151.625 223.396 150.848 223.063 150.122C222.897 149.599 222.848 149.047 222.919 148.503C222.99 147.96 223.179 147.439 223.473 146.976C223.832 146.548 224.234 146.158 224.672 145.811C227.9 142.656 231.133 139.503 234.369 136.352L239.245 131.593C240.061 130.799 240.943 129.579 241.919 128.98C244.765 127.232 248.182 132.419 249.719 133.972L259.755 144.202C261.585 146.066 265.341 148.463 262.778 151.336C259.716 154.743 255.871 157.711 252.504 160.845L247.006 165.938C245.786 167.047 243.927 169.644 241.852 168.112C240.998 167.48 239.922 168.75 240.787 169.388C244.371 172.035 247.4 167.824 249.841 165.561L261.791 154.465C264.143 152.285 267.377 149.85 264.409 146.543C261.441 143.237 258.307 140.308 255.228 137.201C252.149 134.094 249.27 130.766 246.052 127.859C242.94 125.052 240.443 128.081 238.252 130.217L226.436 141.745C224.355 143.775 219.357 147.065 221.332 150.521C222.031 151.741 223.44 152.74 224.433 153.7L230.802 159.802L240.787 169.366C241.558 170.115 242.624 168.834 241.852 168.096Z" fill="#BCBBC4"/>
<path d="M243.758 157.1L235.126 148.49C235.159 148.884 235.198 149.272 235.231 149.666L243.841 141.051L242.67 141.156L251.297 149.749C251.264 149.361 251.23 148.967 251.192 148.579L242.582 157.189C241.822 157.949 243.103 159.014 243.858 158.259L252.467 149.649C252.607 149.479 252.674 149.261 252.655 149.041C252.637 148.822 252.534 148.618 252.368 148.473C249.494 145.607 246.624 142.737 243.758 139.863C243.587 139.724 243.369 139.657 243.149 139.675C242.93 139.694 242.726 139.797 242.582 139.963L233.972 148.595C233.838 148.764 233.774 148.978 233.792 149.192C233.811 149.407 233.911 149.606 234.072 149.749L242.687 158.359C243.447 159.136 244.507 157.854 243.758 157.1Z" fill="#BCBBC4"/>
<path d="M218.332 134.349L252.794 168.811L257.754 173.771C258.514 174.531 259.573 173.249 258.824 172.495L224.363 138.039L219.403 133.107C218.643 132.347 217.578 133.628 218.332 134.377V134.349Z" fill="#BCBBC4"/>
<path d="M227.177 125.506L261.639 159.968L266.598 164.928C267.358 165.688 268.424 164.406 267.669 163.652L233.207 129.223L228.248 124.23C227.493 123.476 226.428 124.752 227.177 125.506Z" fill="#BCBBC4"/>
<path d="M232.164 138.865L253.584 160.29C254.344 161.05 255.409 159.768 254.655 159.014L233.23 137.595C232.475 136.834 231.41 138.116 232.164 138.865Z" fill="#BCBBC4"/>
<path d="M257.649 124.336L223.192 158.792L218.233 163.757C217.473 164.512 218.754 165.577 219.503 164.822L253.987 130.366L258.947 125.406C259.707 124.646 258.425 123.581 257.671 124.336H257.649Z" fill="#BCBBC4"/>
<path d="M266.498 133.179L232.036 167.64L227.076 172.6C226.316 173.36 227.598 174.42 228.352 173.671L262.809 139.209L267.768 134.249C268.528 133.489 267.247 132.424 266.498 133.179Z" fill="#BCBBC4"/>
<path d="M253.138 138.16L231.713 159.585C230.953 160.345 232.235 161.41 232.989 160.656L254.408 139.209C255.168 138.454 253.887 137.389 253.138 138.138V138.16Z" fill="#BCBBC4"/>
<path d="M55.1445 10.706C53.3109 12.4112 52.6997 15.6933 52.168 18.0403C51.2515 22.2217 50.8411 26.4981 50.9456 30.7775C51.0312 34.4446 51.4468 38.5457 53.3415 41.7789C55.2361 45.0121 59.0316 46.6134 62.7293 46.9556C69.8252 47.6035 80.2704 44.7065 82.813 37.2133C84.2798 32.8861 84.2554 27.911 83.8337 23.4065C83.5036 19.8983 83.0025 15.241 80.6005 12.4051C78.0579 9.42863 72.8506 8.62187 69.2263 8.21237C64.6973 7.70508 59.1477 7.65006 55.3339 10.5288C54.3927 11.2377 55.4501 12.7413 56.3913 12.0262C59.5084 9.67311 64.025 9.61199 67.7533 9.91148C71.1698 10.1804 75.4787 10.7305 78.333 12.8146C80.7777 14.5993 81.3339 18.5353 81.7373 21.304C82.3717 25.3253 82.3985 29.4191 81.8168 33.4484C81.2056 37.1766 79.8243 39.8292 76.5544 41.8522C72.9668 44.0211 68.859 45.1784 64.6668 45.2015C60.9691 45.2015 56.7702 44.1564 54.8389 40.7154C53.2681 37.91 52.9258 34.4324 52.8036 31.2786C52.6661 27.3395 52.984 23.3977 53.751 19.5316C54.2155 17.1602 54.6922 13.6214 56.5746 11.8856C57.412 11.0849 56.0001 9.91758 55.1445 10.706Z" fill="#A6838A"/>
<path d="M70.1672 16.286C60.6205 12.0871 53.5918 33.1181 64.0004 36.2046C68.5659 37.5554 71.903 32.4153 73.1682 28.797C74.6778 24.4392 74.6534 18.8163 70.1795 16.286C69.1527 15.6748 68.3765 17.3617 69.3971 17.9423C72.7159 19.8248 72.6242 24.1703 71.7013 27.4035C70.919 30.1416 68.6454 34.8478 65.1861 34.5666C60.5166 34.1877 60.2293 27.7274 61.2989 24.4331C62.2951 21.3772 65.4855 16.2187 69.3971 17.9423C70.4606 18.419 71.2491 16.7566 70.1672 16.286Z" fill="#A6838A"/>
<path d="M68.0938 0.969408V8.98821C68.0938 10.1678 69.9273 10.0028 69.9273 8.82929V0.804375C69.9273 -0.37522 68.0938 -0.204075 68.0938 0.969408Z" fill="#A6838A"/>
<path d="M56.0572 1.97172C56.8069 4.64466 57.5566 7.31556 58.3063 9.98442C58.6242 11.1212 60.3416 10.4795 60.0238 9.37323C59.2781 6.70437 58.5304 4.03144 57.7807 1.35444C57.4629 0.223736 55.7455 0.865485 56.0572 1.96563V1.97172Z" fill="#A6838A"/>
<path d="M78.2093 3.48731L76.0518 10.9255C75.7217 12.0562 77.5308 12.3801 77.8548 11.2555L80.0123 3.81736C80.3423 2.68666 78.5332 2.36273 78.2093 3.48731Z" fill="#A6838A"/>
<path d="M69.9234 53.977V45.9521C69.9234 44.7725 68.0898 44.9376 68.0898 46.111V54.1421C68.0898 55.3217 69.9234 55.1505 69.9234 53.977Z" fill="#A6838A"/>
<path d="M57.8221 53.4581C58.5678 50.7852 59.3155 48.1142 60.0652 45.4454C60.383 44.3086 58.5739 43.9846 58.2622 45.1153C57.5084 47.7883 56.7607 50.4592 56.0191 53.128C55.6952 54.2649 57.5043 54.5888 57.8527 53.4581H57.8221Z" fill="#A6838A"/>
<path d="M79.948 50.9833C79.2268 48.51 78.5076 46.0326 77.7905 43.5512C77.4665 42.4205 75.743 43.0623 76.073 44.1624C76.7942 46.6438 77.5134 49.1232 78.2305 51.6006C78.5606 52.7313 80.278 52.0895 79.948 50.9588V50.9833Z" fill="#A6838A"/>
<path d="M91.0597 26.1992H83.0042C81.8246 26.1992 81.9958 28.0328 83.1631 28.0328H91.1941C92.3737 28.0328 92.2087 26.1992 91.0352 26.1992H91.0597Z" fill="#A6838A"/>
<path d="M90.2633 16.188L82.2445 18.431C81.1138 18.7489 81.7555 20.4663 82.8862 20.1546L90.8989 17.9054C92.0358 17.5876 91.394 15.8702 90.2878 16.188H90.2633Z" fill="#A6838A"/>
<path d="M89.9751 37.6712L82.5431 35.5137C81.4063 35.1836 81.0885 36.9927 82.2069 37.3472L89.6451 39.5047C90.7758 39.8348 91.0997 38.0257 89.9751 37.7017V37.6712Z" fill="#A6838A"/>
<path d="M43.966 29.3834H51.9971C53.1766 29.3834 53.0055 27.5498 51.832 27.5498H43.8071C42.6275 27.5498 42.7925 29.3834 43.966 29.3834Z" fill="#A6838A"/>
<path d="M44.7301 17.2763L52.7428 19.5255C53.8796 19.8433 54.2035 18.0342 53.0728 17.7225L45.0601 15.4733C43.9233 15.1555 43.5994 16.9646 44.7301 17.2763Z" fill="#A6838A"/>
<path d="M44.4979 39.4315L51.9299 37.274C53.0667 36.944 52.425 35.2265 51.3187 35.5566L43.8867 37.7141C42.756 38.038 43.3977 39.7554 44.4979 39.4315Z" fill="#A6838A"/>
<path d="M11.6875 99.375V109.406C11.6875 109.469 11.5625 109.625 11.3125 109.875C11.125 110.125 10.875 110.406 10.5625 110.719C10.25 110.969 9.90625 111.25 9.53125 111.562C9.15625 111.875 8.84375 112.062 8.59375 112.125C8.46875 112.188 8.34375 112.219 8.21875 112.219C8.15625 112.219 8.0625 112.219 7.9375 112.219H7.65625C7.28125 112.219 6.9375 112.188 6.625 112.125C6.3125 112.062 6.0625 111.781 5.875 111.281V109.875C5.875 109.125 5.84375 108.375 5.78125 107.625C5.78125 106.812 5.78125 106.062 5.78125 105.375V103.969C5.78125 98.7812 6.15625 94.2188 6.90625 90.2812C7.65625 86.2812 9.0625 82.8438 11.125 79.9688C13.25 77.0938 16.1562 74.8438 19.8438 73.2188C23.5312 71.5312 28.3125 70.5312 34.1875 70.2188C35.0625 70.4688 35.8438 70.8438 36.5312 71.3438C37.2188 71.8438 37.7812 72.4688 38.2188 73.2188C38.7188 73.9062 39.0938 74.6562 39.3438 75.4688C39.5938 76.2188 39.7188 77.0312 39.7188 77.9062C39.7188 79.5312 39.2812 81.0625 38.4062 82.5C37.5312 83.875 36.4375 85.1875 35.125 86.4375C33.875 87.6875 32.4688 88.8438 30.9062 89.9062C29.4062 90.9062 28 91.8125 26.6875 92.625C25.4375 93.4375 24.375 94.1875 23.5 94.875C22.625 95.5625 22.1875 96.1562 22.1875 96.6562C22.1875 97.4062 22.4688 98.1875 23.0312 99C23.5938 99.8125 24.3438 100.594 25.2812 101.344C26.2188 102.094 27.25 102.812 28.375 103.5C29.5 104.125 30.5938 104.719 31.6562 105.281C32.7812 105.844 33.8125 106.344 34.75 106.781C35.6875 107.156 36.375 107.469 36.8125 107.719H38.5C39.3125 107.719 40.1562 107.719 41.0312 107.719C41.9062 107.719 42.7188 107.719 43.4688 107.719H45.1562C46.4688 107.719 47.7188 107.656 48.9062 107.531C50.1562 107.406 51.375 107.281 52.5625 107.156C53.75 106.969 54.9375 106.812 56.125 106.688C57.375 106.562 58.6562 106.5 59.9688 106.5C59.9688 107.812 59.5938 108.906 58.8438 109.781C58.1562 110.656 57.25 111.375 56.125 111.938C55 112.5 53.7188 112.938 52.2812 113.25C50.9062 113.562 49.5312 113.781 48.1562 113.906C46.8438 113.969 45.5312 114 44.2188 114H41.4062C38.8438 114 36.3125 113.594 33.8125 112.781C31.375 111.969 29 110.875 26.6875 109.5C24.4375 108.125 22.3125 106.562 20.3125 104.812C18.3125 103.062 16.5 101.25 14.875 99.375H11.6875ZM13.0938 90.375C13.0938 91.125 13.375 91.625 13.9375 91.875C14.5625 92.0625 15.2188 92.1562 15.9062 92.1562C16.7812 92.1562 17.8438 91.9688 19.0938 91.5938C20.3438 91.1562 21.625 90.625 22.9375 90C24.25 89.375 25.5312 88.625 26.7812 87.75C28.0312 86.875 29.125 85.9375 30.0625 84.9375C31.0625 83.875 31.875 82.7812 32.5 81.6562C33.125 80.5312 33.4375 79.4375 33.4375 78.375C33.4375 77.5 33.2812 76.8438 32.9688 76.4062C32.6562 75.9062 31.9688 75.6562 30.9062 75.6562C28.8438 75.6562 26.75 76 24.625 76.6875C22.5625 77.3125 20.6562 78.25 18.9062 79.5C17.2188 80.75 15.8125 82.3125 14.6875 84.1875C13.625 86 13.0938 88.0625 13.0938 90.375ZM62.3125 97.5C62.3125 95.375 62.9062 93.3125 64.0938 91.3125C65.2812 89.3125 66.7812 87.5625 68.5938 86.0625C70.4688 84.5625 72.5 83.375 74.6875 82.5C76.9375 81.625 79.0625 81.1875 81.0625 81.1875C82.6875 81.1875 84.2812 81.4062 85.8438 81.8438C87.4688 82.2188 88.9062 82.8438 90.1562 83.7188C91.4062 84.5938 92.4062 85.6875 93.1562 87C93.9688 88.25 94.375 89.75 94.375 91.5C94.375 92.3125 94.3125 92.9688 94.1875 93.4688C94.125 93.9062 93.9375 94.3125 93.625 94.6875C93.3125 95 92.9062 95.3125 92.4062 95.625C91.9688 95.875 91.4062 96.2188 90.7188 96.6562C90.3438 96.7188 89.7812 96.875 89.0312 97.125C88.2812 97.3125 87.4062 97.5312 86.4062 97.7812C85.4688 98.0312 84.4688 98.2812 83.4062 98.5312C82.3438 98.7812 81.3125 99.0312 80.3125 99.2812C79.375 99.5312 78.5312 99.75 77.7812 99.9375C77.0312 100.125 76.4688 100.25 76.0938 100.312C75.9062 100.375 75.5 100.438 74.875 100.5C74.25 100.562 73.5625 100.656 72.8125 100.781C72.125 100.844 71.4688 100.938 70.8438 101.062C70.2188 101.125 69.8438 101.188 69.7188 101.25C69.5312 101.312 69.3125 101.469 69.0625 101.719C68.875 101.906 68.7812 102.031 68.7812 102.094C68.7812 103.344 69.125 104.406 69.8125 105.281C70.5 106.094 71.375 106.781 72.4375 107.344C73.5 107.906 74.6875 108.344 76 108.656C77.375 108.906 78.7188 109.125 80.0312 109.312C81.3438 109.438 82.5625 109.5 83.6875 109.5C84.8125 109.5 85.7188 109.5 86.4062 109.5C89.5312 109.5 92.5938 109.344 95.5938 109.031C98.5938 108.656 101.656 108.469 104.781 108.469V109.219C104.781 109.594 104.719 110 104.594 110.438C104.531 110.812 104.406 111.188 104.219 111.562C104.031 111.875 103.781 112.062 103.469 112.125C101.094 112.625 98.9688 113.031 97.0938 113.344C95.2812 113.594 93.5625 113.781 91.9375 113.906C90.3125 113.969 88.625 114 86.875 114C85.125 114.062 83.1875 114.094 81.0625 114.094H79.4688C78.7812 114.094 78.0312 114.062 77.2188 114C76.4062 114 75.625 114 74.875 114H73.2812C71.3438 113.5 69.6562 112.719 68.2188 111.656C66.8438 110.531 65.7188 109.219 64.8438 107.719C63.9688 106.219 63.3125 104.594 62.875 102.844C62.5 101.094 62.3125 99.3125 62.3125 97.5ZM83.3125 86.4375C82.5 86.4375 81.5625 86.5312 80.5 86.7188C79.5 86.8438 78.4375 87.0938 77.3125 87.4688C76.25 87.7812 75.1875 88.2188 74.125 88.7812C73.0625 89.2812 72.125 89.9062 71.3125 90.6562C70.5 91.3438 69.8125 92.125 69.25 93C68.75 93.875 68.5 94.8438 68.5 95.9062H72.3438C73.7188 95.9062 75.125 95.8438 76.5625 95.7188C78 95.5938 79.4062 95.4062 80.7812 95.1562C82.1562 94.8438 83.3438 94.4062 84.3438 93.8438C85.4062 93.2188 86.25 92.4375 86.875 91.5C87.5625 90.5625 87.9062 89.4062 87.9062 88.0312V87.5625L86.9688 86.625C86.8438 86.625 86.5938 86.625 86.2188 86.625C85.9062 86.5625 85.5625 86.5312 85.1875 86.5312C84.8125 86.4688 84.4375 86.4375 84.0625 86.4375C83.75 86.4375 83.5 86.4375 83.3125 86.4375ZM116.125 108.281V106.312C116.125 105.5 116.188 104.719 116.312 103.969C116.438 103.219 116.688 102.562 117.062 102C117.438 101.438 117.969 101.156 118.656 101.156V101.25H118.938L120.812 108.469C120.812 108.719 120.938 108.906 121.188 109.031C121.438 109.156 121.688 109.281 121.938 109.406C122.25 109.469 122.531 109.5 122.781 109.5C123.094 109.5 123.344 109.5 123.531 109.5C123.656 109.5 123.812 109.5 124 109.5C124.25 109.438 124.406 109.406 124.469 109.406C124.844 109.344 125.562 109.188 126.625 108.938C127.688 108.625 128.781 108.344 129.906 108.094C131.094 107.844 132.188 107.594 133.188 107.344C134.25 107.031 135 106.844 135.438 106.781C135.75 106.281 136.219 105.844 136.844 105.469C137.469 105.031 138.094 104.625 138.719 104.25C139.344 103.875 139.875 103.469 140.312 103.031C140.75 102.594 140.969 102.031 140.969 101.344C140.969 99.7812 140.562 98.5312 139.75 97.5938C139 96.6562 138 95.9688 136.75 95.5312C135.562 95.0312 134.281 94.6875 132.906 94.5C131.531 94.3125 130.219 94.125 128.969 93.9375C128.469 93.875 127.656 93.7812 126.531 93.6562C125.469 93.4688 124.25 93.2812 122.875 93.0938C121.5 92.9062 120.062 92.7188 118.562 92.5312C117.062 92.2812 115.594 92.0938 114.156 91.9688C112.781 91.7812 111.531 91.625 110.406 91.5C109.344 91.375 108.562 91.2812 108.062 91.2188C107.688 90.9688 107.281 90.5312 106.844 89.9062C106.406 89.2812 106.188 88.7812 106.188 88.4062C106.188 87.3438 106.75 86.375 107.875 85.5C109.062 84.5625 110.531 83.7188 112.281 82.9688C114.031 82.2188 116 81.5625 118.188 81C120.438 80.4375 122.625 79.9375 124.75 79.5C126.938 79.0625 128.938 78.75 130.75 78.5625C132.625 78.375 134.062 78.2812 135.062 78.2812C135.812 78.2812 136.5 78.5312 137.125 79.0312C137.812 79.5312 138.156 80.25 138.156 81.1875C138.156 81.9375 137.938 82.5 137.5 82.875C137.125 83.1875 136.625 83.4062 136 83.5312C135.438 83.5938 134.844 83.6562 134.219 83.7188C133.656 83.7188 133.125 83.75 132.625 83.8125C131.625 84 130.344 84.25 128.781 84.5625C127.281 84.875 125.781 85.1875 124.281 85.5C122.781 85.8125 121.531 86.0625 120.531 86.25L118.938 86.625V87.6562C120.125 87.6562 121.625 87.6875 123.438 87.75C125.25 87.8125 127.188 87.9688 129.25 88.2188C131.312 88.4688 133.344 88.875 135.344 89.4375C137.406 89.9375 139.25 90.6562 140.875 91.5938C142.5 92.4688 143.812 93.5938 144.812 94.9688C145.875 96.2812 146.406 97.9062 146.406 99.8438C146.406 102.469 145.688 104.688 144.25 106.5C142.812 108.312 141 109.781 138.812 110.906C136.625 112.031 134.25 112.844 131.688 113.344C129.125 113.844 126.75 114.094 124.562 114.094C123.688 114.094 122.75 114.031 121.75 113.906C120.75 113.719 119.812 113.406 118.938 112.969C118.125 112.531 117.438 111.938 116.875 111.188C116.375 110.438 116.125 109.469 116.125 108.281ZM181.469 105.75C179.844 105.75 178.219 106.156 176.594 106.969C175.031 107.719 173.406 108.594 171.719 109.594C170.031 110.594 168.281 111.5 166.469 112.312C164.656 113.062 162.812 113.438 160.938 113.438C160.688 113.438 160.312 113.438 159.812 113.438C159.312 113.375 158.75 113.344 158.125 113.344C157.562 113.281 157.031 113.25 156.531 113.25C156.031 113.25 155.688 113.219 155.5 113.156C154.312 112.469 153.344 111.656 152.594 110.719C151.906 109.781 151.344 108.781 150.906 107.719C150.531 106.594 150.25 105.438 150.062 104.25C149.875 103.062 149.781 101.875 149.781 100.688V98.0625C149.781 96.9375 149.812 95.7188 149.875 94.4062C150 93.0938 150.125 91.75 150.25 90.375C150.438 89 150.688 87.75 151 86.625C151.312 85.4375 151.75 84.4375 152.312 83.625C152.875 82.8125 153.625 82.2812 154.562 82.0312C154.938 81.9062 155.312 82 155.688 82.3125C156.062 82.625 156.344 83 156.531 83.4375C156.781 83.8125 156.969 84.25 157.094 84.75C157.219 85.1875 157.281 85.5 157.281 85.6875C157.281 85.875 157.188 86.2812 157 86.9062C156.812 87.5312 156.594 88.2188 156.344 88.9688C156.156 89.6562 155.969 90.3125 155.781 90.9375C155.594 91.5625 155.5 91.9375 155.5 92.0625C155.5 92.125 155.469 92.4062 155.406 92.9062C155.406 93.3438 155.375 93.8438 155.312 94.4062C155.312 94.9688 155.312 95.5938 155.312 96.2812C155.312 96.9062 155.312 97.4062 155.312 97.7812C155.312 98.5938 155.281 99.5312 155.219 100.594C155.156 101.594 155.188 102.594 155.312 103.594C155.5 104.594 155.781 105.531 156.156 106.406C156.531 107.281 157.219 107.969 158.219 108.469C158.281 108.469 158.469 108.5 158.781 108.562C159.156 108.562 159.531 108.562 159.906 108.562C160.344 108.562 160.719 108.594 161.031 108.656C161.406 108.656 161.656 108.656 161.781 108.656C165.156 108.656 168.344 107.906 171.344 106.406C174.344 104.906 176.969 102.875 179.219 100.312C179.156 99.9375 179.094 99.2188 179.031 98.1562C179.031 97.0938 179.031 96 179.031 94.875C179.031 93.6875 179.031 92.5938 179.031 91.5938C179.094 90.5312 179.156 89.7812 179.219 89.3438C179.219 88.9688 179.281 88.5938 179.406 88.2188C179.531 87.7812 179.688 87.375 179.875 87C180.062 86.625 180.312 86.3125 180.625 86.0625C181 85.8125 181.406 85.6875 181.844 85.6875C182.781 85.6875 183.438 86.0312 183.812 86.7188C184.188 87.4062 184.438 88.3125 184.562 89.4375C184.75 90.5625 184.875 91.875 184.938 93.375C185.062 94.8125 185.281 96.2812 185.594 97.7812C185.906 99.2812 186.438 100.781 187.188 102.281C187.938 103.719 189.031 105.031 190.469 106.219C191.906 107.344 193.781 108.312 196.094 109.125C198.406 109.875 201.312 110.281 204.812 110.344C204.812 110.469 204.812 110.625 204.812 110.812C204.812 111 204.812 111.156 204.812 111.281C204.812 112.219 204.406 112.906 203.594 113.344C202.781 113.719 201.781 113.969 200.594 114.094C199.469 114.219 198.344 114.25 197.219 114.188C196.094 114.125 195.25 114.094 194.688 114.094C192.812 114.094 191.125 113.656 189.625 112.781C188.125 111.906 186.781 110.969 185.594 109.969C184.406 108.906 183.438 107.938 182.688 107.062C182 106.188 181.594 105.75 181.469 105.75ZM261.812 92.9062C259.938 92.9062 258.312 93.3125 256.938 94.125C255.625 94.875 254.406 95.8438 253.281 97.0312C252.156 98.1562 251.125 99.4062 250.188 100.781C249.25 102.156 248.25 103.438 247.188 104.625C246.188 105.75 245.094 106.719 243.906 107.531C242.719 108.281 241.344 108.656 239.781 108.656C239.781 107.469 239.75 106.125 239.688 104.625C239.625 103.125 239.469 101.594 239.219 100.031C238.969 98.4688 238.625 96.9375 238.188 95.4375C237.75 93.875 237.125 92.5312 236.312 91.4062C235.5 90.2188 234.469 89.2812 233.219 88.5938C232.031 87.8438 230.594 87.4688 228.906 87.4688C226.781 87.4688 224.938 87.9688 223.375 88.9688C221.875 89.9688 220.594 91.25 219.531 92.8125C218.531 94.375 217.781 96.125 217.281 98.0625C216.781 99.9375 216.531 101.812 216.531 103.688C215.719 103.688 215.094 103.781 214.656 103.969C214.281 104.094 213.875 104.25 213.438 104.438C213.062 104.625 212.656 104.812 212.219 105C211.844 105.188 211.281 105.281 210.531 105.281C210.531 103.719 210.406 102.188 210.156 100.688C209.906 99.125 209.656 97.5938 209.406 96.0938C209.156 94.5938 208.906 93.0938 208.656 91.5938C208.469 90.0938 208.375 88.5938 208.375 87.0938V86.4375C208.375 86.125 208.375 85.8125 208.375 85.5C208.438 85.125 208.469 84.8125 208.469 84.5625V83.8125C208.656 83.3125 208.906 83.0312 209.219 82.9688C209.531 82.9062 209.875 82.875 210.25 82.875C211.062 82.875 211.688 83.1875 212.125 83.8125C212.562 84.4375 212.906 85.1875 213.156 86.0625C213.406 86.875 213.562 87.7188 213.625 88.5938C213.75 89.4062 213.844 89.9688 213.906 90.2812H214.844C216.844 87.5312 219.156 85.4688 221.781 84.0938C224.469 82.7188 227.469 82.0312 230.781 82.0312C233.031 82.0312 234.906 82.5312 236.406 83.5312C237.969 84.5312 239.281 85.7812 240.344 87.2812C241.406 88.7812 242.281 90.4688 242.969 92.3438C243.656 94.1562 244.312 95.9062 244.938 97.5938H245.875C247.25 96.3438 248.656 95.0938 250.094 93.8438C251.594 92.5938 253.094 91.5312 254.594 90.6562C256.156 89.7188 257.781 88.9688 259.469 88.4062C261.219 87.7812 263.125 87.4688 265.188 87.4688C266.688 87.4688 268.062 87.9688 269.312 88.9688C270.625 89.9062 271.781 91.1562 272.781 92.7188C273.844 94.2812 274.75 96.0312 275.5 97.9688C276.25 99.8438 276.875 101.781 277.375 103.781C277.875 105.781 278.25 107.688 278.5 109.5C278.75 111.312 278.875 112.906 278.875 114.281C276.562 114.281 274.875 113.75 273.812 112.688C272.75 111.625 271.969 110.312 271.469 108.75C270.969 107.125 270.625 105.406 270.438 103.594C270.25 101.719 269.906 100 269.406 98.4375C268.906 96.875 268.094 95.5625 266.969 94.5C265.844 93.4375 264.125 92.9062 261.812 92.9062ZM281.406 97.5C281.406 95.375 282 93.3125 283.188 91.3125C284.375 89.3125 285.875 87.5625 287.688 86.0625C289.562 84.5625 291.594 83.375 293.781 82.5C296.031 81.625 298.156 81.1875 300.156 81.1875C301.781 81.1875 303.375 81.4062 304.938 81.8438C306.562 82.2188 308 82.8438 309.25 83.7188C310.5 84.5938 311.5 85.6875 312.25 87C313.062 88.25 313.469 89.75 313.469 91.5C313.469 92.3125 313.406 92.9688 313.281 93.4688C313.219 93.9062 313.031 94.3125 312.719 94.6875C312.406 95 312 95.3125 311.5 95.625C311.062 95.875 310.5 96.2188 309.812 96.6562C309.438 96.7188 308.875 96.875 308.125 97.125C307.375 97.3125 306.5 97.5312 305.5 97.7812C304.562 98.0312 303.562 98.2812 302.5 98.5312C301.438 98.7812 300.406 99.0312 299.406 99.2812C298.469 99.5312 297.625 99.75 296.875 99.9375C296.125 100.125 295.562 100.25 295.188 100.312C295 100.375 294.594 100.438 293.969 100.5C293.344 100.562 292.656 100.656 291.906 100.781C291.219 100.844 290.562 100.938 289.938 101.062C289.312 101.125 288.938 101.188 288.812 101.25C288.625 101.312 288.406 101.469 288.156 101.719C287.969 101.906 287.875 102.031 287.875 102.094C287.875 103.344 288.219 104.406 288.906 105.281C289.594 106.094 290.469 106.781 291.531 107.344C292.594 107.906 293.781 108.344 295.094 108.656C296.469 108.906 297.812 109.125 299.125 109.312C300.438 109.438 301.656 109.5 302.781 109.5C303.906 109.5 304.812 109.5 305.5 109.5C308.625 109.5 311.688 109.344 314.688 109.031C317.688 108.656 320.75 108.469 323.875 108.469V109.219C323.875 109.594 323.812 110 323.688 110.438C323.625 110.812 323.5 111.188 323.312 111.562C323.125 111.875 322.875 112.062 322.562 112.125C320.188 112.625 318.062 113.031 316.188 113.344C314.375 113.594 312.656 113.781 311.031 113.906C309.406 113.969 307.719 114 305.969 114C304.219 114.062 302.281 114.094 300.156 114.094H298.562C297.875 114.094 297.125 114.062 296.312 114C295.5 114 294.719 114 293.969 114H292.375C290.438 113.5 288.75 112.719 287.312 111.656C285.938 110.531 284.812 109.219 283.938 107.719C283.062 106.219 282.406 104.594 281.969 102.844C281.594 101.094 281.406 99.3125 281.406 97.5ZM302.406 86.4375C301.594 86.4375 300.656 86.5312 299.594 86.7188C298.594 86.8438 297.531 87.0938 296.406 87.4688C295.344 87.7812 294.281 88.2188 293.219 88.7812C292.156 89.2812 291.219 89.9062 290.406 90.6562C289.594 91.3438 288.906 92.125 288.344 93C287.844 93.875 287.594 94.8438 287.594 95.9062H291.438C292.812 95.9062 294.219 95.8438 295.656 95.7188C297.094 95.5938 298.5 95.4062 299.875 95.1562C301.25 94.8438 302.438 94.4062 303.438 93.8438C304.5 93.2188 305.344 92.4375 305.969 91.5C306.656 90.5625 307 89.4062 307 88.0312V87.5625L306.062 86.625C305.938 86.625 305.688 86.625 305.312 86.625C305 86.5625 304.656 86.5312 304.281 86.5312C303.906 86.4688 303.531 86.4375 303.156 86.4375C302.844 86.4375 302.594 86.4375 302.406 86.4375Z" fill="#E1E1E1"/>
<path d="M7.6875 94.375V104.406C7.6875 104.469 7.5625 104.625 7.3125 104.875C7.125 105.125 6.875 105.406 6.5625 105.719C6.25 105.969 5.90625 106.25 5.53125 106.562C5.15625 106.875 4.84375 107.062 4.59375 107.125C4.46875 107.188 4.34375 107.219 4.21875 107.219C4.15625 107.219 4.0625 107.219 3.9375 107.219H3.65625C3.28125 107.219 2.9375 107.188 2.625 107.125C2.3125 107.062 2.0625 106.781 1.875 106.281V104.875C1.875 104.125 1.84375 103.375 1.78125 102.625C1.78125 101.812 1.78125 101.062 1.78125 100.375V98.9688C1.78125 93.7812 2.15625 89.2188 2.90625 85.2812C3.65625 81.2812 5.0625 77.8438 7.125 74.9688C9.25 72.0938 12.1562 69.8438 15.8438 68.2188C19.5312 66.5312 24.3125 65.5312 30.1875 65.2188C31.0625 65.4688 31.8438 65.8438 32.5312 66.3438C33.2188 66.8438 33.7812 67.4688 34.2188 68.2188C34.7188 68.9062 35.0938 69.6562 35.3438 70.4688C35.5938 71.2188 35.7188 72.0312 35.7188 72.9062C35.7188 74.5312 35.2812 76.0625 34.4062 77.5C33.5312 78.875 32.4375 80.1875 31.125 81.4375C29.875 82.6875 28.4688 83.8438 26.9062 84.9062C25.4062 85.9062 24 86.8125 22.6875 87.625C21.4375 88.4375 20.375 89.1875 19.5 89.875C18.625 90.5625 18.1875 91.1562 18.1875 91.6562C18.1875 92.4062 18.4688 93.1875 19.0312 94C19.5938 94.8125 20.3438 95.5938 21.2812 96.3438C22.2188 97.0938 23.25 97.8125 24.375 98.5C25.5 99.125 26.5938 99.7188 27.6562 100.281C28.7812 100.844 29.8125 101.344 30.75 101.781C31.6875 102.156 32.375 102.469 32.8125 102.719H34.5C35.3125 102.719 36.1562 102.719 37.0312 102.719C37.9062 102.719 38.7188 102.719 39.4688 102.719H41.1562C42.4688 102.719 43.7188 102.656 44.9062 102.531C46.1562 102.406 47.375 102.281 48.5625 102.156C49.75 101.969 50.9375 101.812 52.125 101.688C53.375 101.562 54.6562 101.5 55.9688 101.5C55.9688 102.812 55.5938 103.906 54.8438 104.781C54.1562 105.656 53.25 106.375 52.125 106.938C51 107.5 49.7188 107.938 48.2812 108.25C46.9062 108.562 45.5312 108.781 44.1562 108.906C42.8438 108.969 41.5312 109 40.2188 109H37.4062C34.8438 109 32.3125 108.594 29.8125 107.781C27.375 106.969 25 105.875 22.6875 104.5C20.4375 103.125 18.3125 101.562 16.3125 99.8125C14.3125 98.0625 12.5 96.25 10.875 94.375H7.6875ZM9.09375 85.375C9.09375 86.125 9.375 86.625 9.9375 86.875C10.5625 87.0625 11.2188 87.1562 11.9062 87.1562C12.7812 87.1562 13.8438 86.9688 15.0938 86.5938C16.3438 86.1562 17.625 85.625 18.9375 85C20.25 84.375 21.5312 83.625 22.7812 82.75C24.0312 81.875 25.125 80.9375 26.0625 79.9375C27.0625 78.875 27.875 77.7812 28.5 76.6562C29.125 75.5312 29.4375 74.4375 29.4375 73.375C29.4375 72.5 29.2812 71.8438 28.9688 71.4062C28.6562 70.9062 27.9688 70.6562 26.9062 70.6562C24.8438 70.6562 22.75 71 20.625 71.6875C18.5625 72.3125 16.6562 73.25 14.9062 74.5C13.2188 75.75 11.8125 77.3125 10.6875 79.1875C9.625 81 9.09375 83.0625 9.09375 85.375ZM58.3125 92.5C58.3125 90.375 58.9062 88.3125 60.0938 86.3125C61.2812 84.3125 62.7812 82.5625 64.5938 81.0625C66.4688 79.5625 68.5 78.375 70.6875 77.5C72.9375 76.625 75.0625 76.1875 77.0625 76.1875C78.6875 76.1875 80.2812 76.4062 81.8438 76.8438C83.4688 77.2188 84.9062 77.8438 86.1562 78.7188C87.4062 79.5938 88.4062 80.6875 89.1562 82C89.9688 83.25 90.375 84.75 90.375 86.5C90.375 87.3125 90.3125 87.9688 90.1875 88.4688C90.125 88.9062 89.9375 89.3125 89.625 89.6875C89.3125 90 88.9062 90.3125 88.4062 90.625C87.9688 90.875 87.4062 91.2188 86.7188 91.6562C86.3438 91.7188 85.7812 91.875 85.0312 92.125C84.2812 92.3125 83.4062 92.5312 82.4062 92.7812C81.4688 93.0312 80.4688 93.2812 79.4062 93.5312C78.3438 93.7812 77.3125 94.0312 76.3125 94.2812C75.375 94.5312 74.5312 94.75 73.7812 94.9375C73.0312 95.125 72.4688 95.25 72.0938 95.3125C71.9062 95.375 71.5 95.4375 70.875 95.5C70.25 95.5625 69.5625 95.6562 68.8125 95.7812C68.125 95.8438 67.4688 95.9375 66.8438 96.0625C66.2188 96.125 65.8438 96.1875 65.7188 96.25C65.5312 96.3125 65.3125 96.4688 65.0625 96.7188C64.875 96.9062 64.7812 97.0312 64.7812 97.0938C64.7812 98.3438 65.125 99.4062 65.8125 100.281C66.5 101.094 67.375 101.781 68.4375 102.344C69.5 102.906 70.6875 103.344 72 103.656C73.375 103.906 74.7188 104.125 76.0312 104.312C77.3438 104.438 78.5625 104.5 79.6875 104.5C80.8125 104.5 81.7188 104.5 82.4062 104.5C85.5312 104.5 88.5938 104.344 91.5938 104.031C94.5938 103.656 97.6562 103.469 100.781 103.469V104.219C100.781 104.594 100.719 105 100.594 105.438C100.531 105.812 100.406 106.188 100.219 106.562C100.031 106.875 99.7812 107.062 99.4688 107.125C97.0938 107.625 94.9688 108.031 93.0938 108.344C91.2812 108.594 89.5625 108.781 87.9375 108.906C86.3125 108.969 84.625 109 82.875 109C81.125 109.062 79.1875 109.094 77.0625 109.094H75.4688C74.7812 109.094 74.0312 109.062 73.2188 109C72.4062 109 71.625 109 70.875 109H69.2812C67.3438 108.5 65.6562 107.719 64.2188 106.656C62.8438 105.531 61.7188 104.219 60.8438 102.719C59.9688 101.219 59.3125 99.5938 58.875 97.8438C58.5 96.0938 58.3125 94.3125 58.3125 92.5ZM79.3125 81.4375C78.5 81.4375 77.5625 81.5312 76.5 81.7188C75.5 81.8438 74.4375 82.0938 73.3125 82.4688C72.25 82.7812 71.1875 83.2188 70.125 83.7812C69.0625 84.2812 68.125 84.9062 67.3125 85.6562C66.5 86.3438 65.8125 87.125 65.25 88C64.75 88.875 64.5 89.8438 64.5 90.9062H68.3438C69.7188 90.9062 71.125 90.8438 72.5625 90.7188C74 90.5938 75.4062 90.4062 76.7812 90.1562C78.1562 89.8438 79.3438 89.4062 80.3438 88.8438C81.4062 88.2188 82.25 87.4375 82.875 86.5C83.5625 85.5625 83.9062 84.4062 83.9062 83.0312V82.5625L82.9688 81.625C82.8438 81.625 82.5938 81.625 82.2188 81.625C81.9062 81.5625 81.5625 81.5312 81.1875 81.5312C80.8125 81.4688 80.4375 81.4375 80.0625 81.4375C79.75 81.4375 79.5 81.4375 79.3125 81.4375ZM112.125 103.281V101.312C112.125 100.5 112.188 99.7188 112.312 98.9688C112.438 98.2188 112.688 97.5625 113.062 97C113.438 96.4375 113.969 96.1562 114.656 96.1562V96.25H114.938L116.812 103.469C116.812 103.719 116.938 103.906 117.188 104.031C117.438 104.156 117.688 104.281 117.938 104.406C118.25 104.469 118.531 104.5 118.781 104.5C119.094 104.5 119.344 104.5 119.531 104.5C119.656 104.5 119.812 104.5 120 104.5C120.25 104.438 120.406 104.406 120.469 104.406C120.844 104.344 121.562 104.188 122.625 103.938C123.688 103.625 124.781 103.344 125.906 103.094C127.094 102.844 128.188 102.594 129.188 102.344C130.25 102.031 131 101.844 131.438 101.781C131.75 101.281 132.219 100.844 132.844 100.469C133.469 100.031 134.094 99.625 134.719 99.25C135.344 98.875 135.875 98.4688 136.312 98.0312C136.75 97.5938 136.969 97.0312 136.969 96.3438C136.969 94.7812 136.562 93.5312 135.75 92.5938C135 91.6562 134 90.9688 132.75 90.5312C131.562 90.0312 130.281 89.6875 128.906 89.5C127.531 89.3125 126.219 89.125 124.969 88.9375C124.469 88.875 123.656 88.7812 122.531 88.6562C121.469 88.4688 120.25 88.2812 118.875 88.0938C117.5 87.9062 116.062 87.7188 114.562 87.5312C113.062 87.2812 111.594 87.0938 110.156 86.9688C108.781 86.7812 107.531 86.625 106.406 86.5C105.344 86.375 104.562 86.2812 104.062 86.2188C103.688 85.9688 103.281 85.5312 102.844 84.9062C102.406 84.2812 102.188 83.7812 102.188 83.4062C102.188 82.3438 102.75 81.375 103.875 80.5C105.062 79.5625 106.531 78.7188 108.281 77.9688C110.031 77.2188 112 76.5625 114.188 76C116.438 75.4375 118.625 74.9375 120.75 74.5C122.938 74.0625 124.938 73.75 126.75 73.5625C128.625 73.375 130.062 73.2812 131.062 73.2812C131.812 73.2812 132.5 73.5312 133.125 74.0312C133.812 74.5312 134.156 75.25 134.156 76.1875C134.156 76.9375 133.938 77.5 133.5 77.875C133.125 78.1875 132.625 78.4062 132 78.5312C131.438 78.5938 130.844 78.6562 130.219 78.7188C129.656 78.7188 129.125 78.75 128.625 78.8125C127.625 79 126.344 79.25 124.781 79.5625C123.281 79.875 121.781 80.1875 120.281 80.5C118.781 80.8125 117.531 81.0625 116.531 81.25L114.938 81.625V82.6562C116.125 82.6562 117.625 82.6875 119.438 82.75C121.25 82.8125 123.188 82.9688 125.25 83.2188C127.312 83.4688 129.344 83.875 131.344 84.4375C133.406 84.9375 135.25 85.6562 136.875 86.5938C138.5 87.4688 139.812 88.5938 140.812 89.9688C141.875 91.2812 142.406 92.9062 142.406 94.8438C142.406 97.4688 141.688 99.6875 140.25 101.5C138.812 103.312 137 104.781 134.812 105.906C132.625 107.031 130.25 107.844 127.688 108.344C125.125 108.844 122.75 109.094 120.562 109.094C119.688 109.094 118.75 109.031 117.75 108.906C116.75 108.719 115.812 108.406 114.938 107.969C114.125 107.531 113.438 106.938 112.875 106.188C112.375 105.438 112.125 104.469 112.125 103.281ZM177.469 100.75C175.844 100.75 174.219 101.156 172.594 101.969C171.031 102.719 169.406 103.594 167.719 104.594C166.031 105.594 164.281 106.5 162.469 107.312C160.656 108.062 158.812 108.438 156.938 108.438C156.688 108.438 156.312 108.438 155.812 108.438C155.312 108.375 154.75 108.344 154.125 108.344C153.562 108.281 153.031 108.25 152.531 108.25C152.031 108.25 151.688 108.219 151.5 108.156C150.312 107.469 149.344 106.656 148.594 105.719C147.906 104.781 147.344 103.781 146.906 102.719C146.531 101.594 146.25 100.438 146.062 99.25C145.875 98.0625 145.781 96.875 145.781 95.6875V93.0625C145.781 91.9375 145.812 90.7188 145.875 89.4062C146 88.0938 146.125 86.75 146.25 85.375C146.438 84 146.688 82.75 147 81.625C147.312 80.4375 147.75 79.4375 148.312 78.625C148.875 77.8125 149.625 77.2812 150.562 77.0312C150.938 76.9062 151.312 77 151.688 77.3125C152.062 77.625 152.344 78 152.531 78.4375C152.781 78.8125 152.969 79.25 153.094 79.75C153.219 80.1875 153.281 80.5 153.281 80.6875C153.281 80.875 153.188 81.2812 153 81.9062C152.812 82.5312 152.594 83.2188 152.344 83.9688C152.156 84.6562 151.969 85.3125 151.781 85.9375C151.594 86.5625 151.5 86.9375 151.5 87.0625C151.5 87.125 151.469 87.4062 151.406 87.9062C151.406 88.3438 151.375 88.8438 151.312 89.4062C151.312 89.9688 151.312 90.5938 151.312 91.2812C151.312 91.9062 151.312 92.4062 151.312 92.7812C151.312 93.5938 151.281 94.5312 151.219 95.5938C151.156 96.5938 151.188 97.5938 151.312 98.5938C151.5 99.5938 151.781 100.531 152.156 101.406C152.531 102.281 153.219 102.969 154.219 103.469C154.281 103.469 154.469 103.5 154.781 103.562C155.156 103.562 155.531 103.562 155.906 103.562C156.344 103.562 156.719 103.594 157.031 103.656C157.406 103.656 157.656 103.656 157.781 103.656C161.156 103.656 164.344 102.906 167.344 101.406C170.344 99.9062 172.969 97.875 175.219 95.3125C175.156 94.9375 175.094 94.2188 175.031 93.1562C175.031 92.0938 175.031 91 175.031 89.875C175.031 88.6875 175.031 87.5938 175.031 86.5938C175.094 85.5312 175.156 84.7812 175.219 84.3438C175.219 83.9688 175.281 83.5938 175.406 83.2188C175.531 82.7812 175.688 82.375 175.875 82C176.062 81.625 176.312 81.3125 176.625 81.0625C177 80.8125 177.406 80.6875 177.844 80.6875C178.781 80.6875 179.438 81.0312 179.812 81.7188C180.188 82.4062 180.438 83.3125 180.562 84.4375C180.75 85.5625 180.875 86.875 180.938 88.375C181.062 89.8125 181.281 91.2812 181.594 92.7812C181.906 94.2812 182.438 95.7812 183.188 97.2812C183.938 98.7188 185.031 100.031 186.469 101.219C187.906 102.344 189.781 103.312 192.094 104.125C194.406 104.875 197.312 105.281 200.812 105.344C200.812 105.469 200.812 105.625 200.812 105.812C200.812 106 200.812 106.156 200.812 106.281C200.812 107.219 200.406 107.906 199.594 108.344C198.781 108.719 197.781 108.969 196.594 109.094C195.469 109.219 194.344 109.25 193.219 109.188C192.094 109.125 191.25 109.094 190.688 109.094C188.812 109.094 187.125 108.656 185.625 107.781C184.125 106.906 182.781 105.969 181.594 104.969C180.406 103.906 179.438 102.938 178.688 102.062C178 101.188 177.594 100.75 177.469 100.75ZM257.812 87.9062C255.938 87.9062 254.312 88.3125 252.938 89.125C251.625 89.875 250.406 90.8438 249.281 92.0312C248.156 93.1562 247.125 94.4062 246.188 95.7812C245.25 97.1562 244.25 98.4375 243.188 99.625C242.188 100.75 241.094 101.719 239.906 102.531C238.719 103.281 237.344 103.656 235.781 103.656C235.781 102.469 235.75 101.125 235.688 99.625C235.625 98.125 235.469 96.5938 235.219 95.0312C234.969 93.4688 234.625 91.9375 234.188 90.4375C233.75 88.875 233.125 87.5312 232.312 86.4062C231.5 85.2188 230.469 84.2812 229.219 83.5938C228.031 82.8438 226.594 82.4688 224.906 82.4688C222.781 82.4688 220.938 82.9688 219.375 83.9688C217.875 84.9688 216.594 86.25 215.531 87.8125C214.531 89.375 213.781 91.125 213.281 93.0625C212.781 94.9375 212.531 96.8125 212.531 98.6875C211.719 98.6875 211.094 98.7812 210.656 98.9688C210.281 99.0938 209.875 99.25 209.438 99.4375C209.062 99.625 208.656 99.8125 208.219 100C207.844 100.188 207.281 100.281 206.531 100.281C206.531 98.7188 206.406 97.1875 206.156 95.6875C205.906 94.125 205.656 92.5938 205.406 91.0938C205.156 89.5938 204.906 88.0938 204.656 86.5938C204.469 85.0938 204.375 83.5938 204.375 82.0938V81.4375C204.375 81.125 204.375 80.8125 204.375 80.5C204.438 80.125 204.469 79.8125 204.469 79.5625V78.8125C204.656 78.3125 204.906 78.0312 205.219 77.9688C205.531 77.9062 205.875 77.875 206.25 77.875C207.062 77.875 207.688 78.1875 208.125 78.8125C208.562 79.4375 208.906 80.1875 209.156 81.0625C209.406 81.875 209.562 82.7188 209.625 83.5938C209.75 84.4062 209.844 84.9688 209.906 85.2812H210.844C212.844 82.5312 215.156 80.4688 217.781 79.0938C220.469 77.7188 223.469 77.0312 226.781 77.0312C229.031 77.0312 230.906 77.5312 232.406 78.5312C233.969 79.5312 235.281 80.7812 236.344 82.2812C237.406 83.7812 238.281 85.4688 238.969 87.3438C239.656 89.1562 240.312 90.9062 240.938 92.5938H241.875C243.25 91.3438 244.656 90.0938 246.094 88.8438C247.594 87.5938 249.094 86.5312 250.594 85.6562C252.156 84.7188 253.781 83.9688 255.469 83.4062C257.219 82.7812 259.125 82.4688 261.188 82.4688C262.688 82.4688 264.062 82.9688 265.312 83.9688C266.625 84.9062 267.781 86.1562 268.781 87.7188C269.844 89.2812 270.75 91.0312 271.5 92.9688C272.25 94.8438 272.875 96.7812 273.375 98.7812C273.875 100.781 274.25 102.688 274.5 104.5C274.75 106.312 274.875 107.906 274.875 109.281C272.562 109.281 270.875 108.75 269.812 107.688C268.75 106.625 267.969 105.312 267.469 103.75C266.969 102.125 266.625 100.406 266.438 98.5938C266.25 96.7188 265.906 95 265.406 93.4375C264.906 91.875 264.094 90.5625 262.969 89.5C261.844 88.4375 260.125 87.9062 257.812 87.9062ZM277.406 92.5C277.406 90.375 278 88.3125 279.188 86.3125C280.375 84.3125 281.875 82.5625 283.688 81.0625C285.562 79.5625 287.594 78.375 289.781 77.5C292.031 76.625 294.156 76.1875 296.156 76.1875C297.781 76.1875 299.375 76.4062 300.938 76.8438C302.562 77.2188 304 77.8438 305.25 78.7188C306.5 79.5938 307.5 80.6875 308.25 82C309.062 83.25 309.469 84.75 309.469 86.5C309.469 87.3125 309.406 87.9688 309.281 88.4688C309.219 88.9062 309.031 89.3125 308.719 89.6875C308.406 90 308 90.3125 307.5 90.625C307.062 90.875 306.5 91.2188 305.812 91.6562C305.438 91.7188 304.875 91.875 304.125 92.125C303.375 92.3125 302.5 92.5312 301.5 92.7812C300.562 93.0312 299.562 93.2812 298.5 93.5312C297.438 93.7812 296.406 94.0312 295.406 94.2812C294.469 94.5312 293.625 94.75 292.875 94.9375C292.125 95.125 291.562 95.25 291.188 95.3125C291 95.375 290.594 95.4375 289.969 95.5C289.344 95.5625 288.656 95.6562 287.906 95.7812C287.219 95.8438 286.562 95.9375 285.938 96.0625C285.312 96.125 284.938 96.1875 284.812 96.25C284.625 96.3125 284.406 96.4688 284.156 96.7188C283.969 96.9062 283.875 97.0312 283.875 97.0938C283.875 98.3438 284.219 99.4062 284.906 100.281C285.594 101.094 286.469 101.781 287.531 102.344C288.594 102.906 289.781 103.344 291.094 103.656C292.469 103.906 293.812 104.125 295.125 104.312C296.438 104.438 297.656 104.5 298.781 104.5C299.906 104.5 300.812 104.5 301.5 104.5C304.625 104.5 307.688 104.344 310.688 104.031C313.688 103.656 316.75 103.469 319.875 103.469V104.219C319.875 104.594 319.812 105 319.688 105.438C319.625 105.812 319.5 106.188 319.312 106.562C319.125 106.875 318.875 107.062 318.562 107.125C316.188 107.625 314.062 108.031 312.188 108.344C310.375 108.594 308.656 108.781 307.031 108.906C305.406 108.969 303.719 109 301.969 109C300.219 109.062 298.281 109.094 296.156 109.094H294.562C293.875 109.094 293.125 109.062 292.312 109C291.5 109 290.719 109 289.969 109H288.375C286.438 108.5 284.75 107.719 283.312 106.656C281.938 105.531 280.812 104.219 279.938 102.719C279.062 101.219 278.406 99.5938 277.969 97.8438C277.594 96.0938 277.406 94.3125 277.406 92.5ZM298.406 81.4375C297.594 81.4375 296.656 81.5312 295.594 81.7188C294.594 81.8438 293.531 82.0938 292.406 82.4688C291.344 82.7812 290.281 83.2188 289.219 83.7812C288.156 84.2812 287.219 84.9062 286.406 85.6562C285.594 86.3438 284.906 87.125 284.344 88C283.844 88.875 283.594 89.8438 283.594 90.9062H287.438C288.812 90.9062 290.219 90.8438 291.656 90.7188C293.094 90.5938 294.5 90.4062 295.875 90.1562C297.25 89.8438 298.438 89.4062 299.438 88.8438C300.5 88.2188 301.344 87.4375 301.969 86.5C302.656 85.5625 303 84.4062 303 83.0312V82.5625L302.062 81.625C301.938 81.625 301.688 81.625 301.312 81.625C301 81.5625 300.656 81.5312 300.281 81.5312C299.906 81.4688 299.531 81.4375 299.156 81.4375C298.844 81.4375 298.594 81.4375 298.406 81.4375Z" fill="#4A1520"/>
</svg>
