<svg width="58" height="64" viewBox="0 0 58 64" fill="none" xmlns="http://www.w3.org/2000/svg">
<path d="M27.592 19.0677C21.4508 19.9355 15.96 24.3272 16.0002 30.7702C16.0404 38.0021 21.6252 45.7731 29.5899 44.9382C35.8987 44.2807 41.5638 39.0212 41.9661 32.736C42.1035 30.8694 41.8222 28.9959 41.1421 27.2473C40.462 25.4987 39.3996 23.9175 38.0296 22.6147C36.6595 21.3119 35.015 20.3192 33.2118 19.7064C31.4086 19.0936 29.4904 18.8756 27.592 19.0677C27.3253 19.0904 27.0787 19.216 26.9064 19.417C26.7342 19.6179 26.6504 19.8778 26.6735 20.1393C26.6966 20.4009 26.8248 20.6427 27.0297 20.8116C27.2346 20.9805 27.4996 21.0627 27.7663 21.04C29.4558 20.866 31.1634 21.0749 32.7574 21.6507C34.3515 22.2265 35.7893 23.1537 36.96 24.3608C38.1307 25.5678 39.0029 27.0225 39.5094 28.6126C40.0158 30.2027 40.143 31.8856 39.8811 33.5315C39.1168 38.436 34.3902 42.4727 29.4156 42.9921C22.7113 43.6956 18.2127 37.0357 18.0182 31.02C17.8372 25.5041 22.5638 21.8158 27.7663 21.0466C29.0402 20.8494 28.8725 18.9165 27.592 19.0677Z" fill="#9E4E0C"/>
<path d="M28.662 28.0377C25.8632 28.3566 22.2387 30.5308 24.9676 35.4194C27.6964 40.308 33.3641 37.4113 33.9238 33.6553C34.4836 29.8994 31.8807 27.6796 28.662 28.0377Z" fill="#9E4E0C"/>
<path d="M20.1265 17.3585C21.0186 19.0321 21.9083 20.7034 22.7956 22.3722C23.4462 23.5949 25.5312 22.857 24.8732 21.6488L22.2115 16.6278C21.5608 15.4051 19.4684 16.143 20.1265 17.3512V17.3585Z" fill="#9E4E0C"/>
<path d="M12.5786 26.8497L17.527 28.9088C18.752 29.4187 19.6379 27.6472 18.4129 27.1373L13.4576 25.0912C12.2326 24.5813 11.3813 26.3528 12.5717 26.8627L12.5786 26.8497Z" fill="#9E4E0C"/>
<path d="M12.4044 37.9642L18.3258 36.6178C19.6131 36.3205 18.8825 34.7441 17.5952 35.0358L11.6808 36.3822C10.3865 36.6795 11.1172 38.2559 12.3766 37.9642H12.4044Z" fill="#9E4E0C"/>
<path d="M21.5329 48.4837L23.8973 43.3341C24.3933 42.2544 22.9579 41.4174 22.4671 42.5163L20.1027 47.6659C19.6067 48.7456 21.0421 49.5826 21.5329 48.4837Z" fill="#9E4E0C"/>
<path d="M37.8826 47.5561L34.7659 42.4099C34.1586 41.4056 32.5302 42.4396 33.1308 43.4439L36.2341 48.5901C36.8414 49.5944 38.4698 48.5604 37.8692 47.5561H37.8826Z" fill="#9E4E0C"/>
<path d="M46.2137 35.1722L40.1115 34.0111C39.8635 33.9739 39.6102 34.0309 39.4055 34.17C39.2008 34.3091 39.0609 34.5192 39.0157 34.7555C38.9705 34.9919 39.0236 35.2359 39.1635 35.4353C39.3035 35.6348 39.5193 35.774 39.765 35.8233L45.8608 36.9844C46.1118 37.0292 46.3711 36.9767 46.5817 36.8385C46.7923 36.7002 46.9369 36.4875 46.9837 36.2472C47.0305 36.0069 46.9757 35.7586 46.8313 35.557C46.6869 35.3554 46.4647 35.217 46.2137 35.1722Z" fill="#9E4E0C"/>
<path d="M43.5204 22.178L39.4041 25.1244C38.3922 25.8193 39.4791 27.5496 40.491 26.8269L44.5948 23.8805C45.6067 23.1509 44.5261 21.4483 43.508 22.178H43.5204Z" fill="#9E4E0C"/>
<path d="M32.5956 15.7758L31.0421 20.8614C30.6578 22.116 33.02 22.4716 33.4044 21.2236C33.9249 19.5329 34.4454 17.8691 34.9579 16.1448C35.3422 14.8835 32.98 14.5279 32.5956 15.7758Z" fill="#9E4E0C"/>
<path d="M24.183 9.70688C25.5681 6.9618 27.078 4.29908 28.3383 1.47165H26.4281C27.4772 3.91025 28.3783 6.41553 29.1261 8.97258C29.5003 10.2422 31.2727 9.52845 30.9641 8.28631C30.2303 5.68728 29.3536 3.13469 28.3383 0.641272C28.2546 0.449956 28.1201 0.287809 27.9508 0.174122C27.7815 0.0604361 27.5845 0 27.3832 0C27.182 0 26.985 0.0604361 26.8156 0.174122C26.6463 0.287809 26.5118 0.449956 26.4281 0.641272C25.0591 3.39236 23.9213 6.26261 23.0277 9.21963C22.8176 9.9059 23.8614 10.3245 24.183 9.67943V9.70688Z" fill="#9E4E0C"/>
<path d="M10.2957 18.1927C9.52288 15.288 8.89664 12.3434 7.99726 9.47851L6.62487 10.8544C9.01101 11.8714 11.3297 13.0392 13.5668 14.3507C14.5261 14.9091 15.5654 13.3205 14.6394 12.7023C13.1798 11.7931 11.667 10.9718 10.1091 10.2429C9.12315 9.75103 7.75742 8.66757 6.63153 9.09963C6.41731 9.20211 6.2416 9.37032 6.13011 9.57963C6.01863 9.78894 5.97722 10.0284 6.01196 10.2628C6.2879 11.6332 6.71002 12.9702 7.27109 14.251C7.81771 15.7644 8.44711 17.2467 9.15647 18.6912C9.46959 19.3559 10.4889 18.8374 10.2957 18.1728V18.1927Z" fill="#9E4E0C"/>
<path d="M8.38989 33.9185C6.16174 32.3406 3.69017 30.3814 1.58684 29.027C1.51819 29.6187 1.44953 30.217 1.37463 30.8087C3.60949 30.0555 5.88547 29.4452 8.19017 28.981C9.33857 28.7509 9.24496 26.8574 8.04038 27.0086C5.61669 27.4589 3.22009 28.0583 0.862846 28.8035C0.107645 29.0073 -0.385421 30.1184 0.394746 30.6575C2.74052 32.3362 5.22651 33.7864 7.82193 34.9902C7.95026 35.0138 8.08239 34.9945 8.1998 34.9351C8.31721 34.8756 8.41402 34.7789 8.47664 34.6586C8.53927 34.5382 8.56458 34.4003 8.54902 34.264C8.53347 34.1278 8.47782 34.0001 8.38989 33.8988V33.9185Z" fill="#9E4E0C"/>
<path d="M14.3878 48.5126C12.6044 48.7729 10.8082 48.9347 9.02476 49.2161C8.29605 49.3286 7.56734 49.4201 6.84502 49.5467C6.58933 49.5889 5.68804 49.828 5.86063 49.7929C6.16745 50.3838 6.49984 50.9746 6.79388 51.5655C8.04866 49.1976 9.4341 46.9166 10.9424 44.7352C11.6775 43.666 10.3032 42.3365 9.49138 43.3776C7.94037 45.5672 6.50406 47.8524 5.18945 50.222C5.07565 50.3979 5.01027 50.6062 5.00111 50.822C4.99196 51.0377 5.0394 51.2518 5.13779 51.4387C5.23618 51.6256 5.38137 51.7774 5.55601 51.876C5.73065 51.9745 5.92737 52.0157 6.1227 51.9946C9.00037 51.5798 11.8347 50.8589 14.586 49.8421C15.2252 49.61 15.0973 48.4353 14.3878 48.5337V48.5126Z" fill="#9E4E0C"/>
<path d="M48.8541 18.7555C50.1733 16.0029 51.224 13.1312 51.9917 10.1798C52.0148 9.99803 51.9894 9.8134 51.9182 9.64434C51.847 9.47527 51.7324 9.32767 51.5858 9.21623C51.4392 9.1048 51.2658 9.03342 51.0827 9.0092C50.8997 8.98498 50.7134 9.00877 50.5426 9.0782C48.1039 10.1749 45.7312 11.4105 43.4363 12.7789C42.3594 13.4716 43.4828 15.0218 44.573 14.3885C46.7601 13.1137 49.0272 11.979 51.3602 10.9912L49.9841 9.63232C49.1598 12.2248 48.4419 15.4902 47.6841 18.3201C47.6799 18.4567 47.7185 18.5912 47.7946 18.705C47.8707 18.8188 47.9805 18.9064 48.109 18.9557C48.2374 19.0049 48.378 19.0134 48.5115 18.9799C48.645 18.9464 48.7647 18.8726 48.8541 18.7687V18.7555Z" fill="#9E4E0C"/>
<path d="M50.1004 34.9488C52.7276 33.7496 55.2419 32.2956 57.6102 30.6059C58.3866 30.0468 57.8835 28.9871 57.1443 28.7791C54.8322 28.0445 52.48 27.4562 50.1004 27.0172C49.859 26.969 49.6093 27.023 49.406 27.1675C49.2027 27.312 49.0626 27.535 49.0165 27.7876C48.9703 28.0402 49.022 28.3017 49.16 28.5144C49.2981 28.7272 49.5112 28.8738 49.7525 28.9221C52.0831 29.3762 54.384 29.9842 56.6412 30.7425L56.4176 28.9871C54.1131 30.4759 51.8893 32.2378 49.6283 33.8306C49.1065 34.2011 49.4606 35.2414 50.1066 34.9488H50.1004Z" fill="#9E4E0C"/>
<path d="M43.3017 49.8345C45.1206 50.4914 46.9722 51.0351 48.8476 51.463C49.549 51.6188 50.2568 51.7958 50.9712 51.909C51.1855 51.9444 52.0362 52.0153 51.8544 51.994C52.0539 52.0165 52.2551 51.9754 52.4337 51.876C52.6123 51.7765 52.7606 51.6227 52.8609 51.4333C52.9611 51.2439 53.009 51.027 52.9986 50.8086C52.9883 50.5902 52.9201 50.3798 52.8025 50.2027C51.4909 47.8428 50.051 45.5706 48.4904 43.3983C47.7047 42.3787 46.1396 43.5116 46.9059 44.6091C48.3966 46.7637 49.7797 49.0043 51.0491 51.3214L52.1336 49.7778C49.4905 49.2539 46.3994 48.9353 43.5874 48.5317C43.4527 48.5457 43.3254 48.6054 43.2232 48.7022C43.1211 48.7991 43.0493 48.9283 43.0178 49.0718C42.9863 49.2153 42.9968 49.366 43.0477 49.5027C43.0986 49.6395 43.1874 49.7555 43.3017 49.8345Z" fill="#9E4E0C"/>
<path d="M30.9159 54.7412C29.3185 57.2038 27.3268 59.9153 25.9529 62.2327L27.7343 62.4678C27.0081 59.9839 26.422 57.457 25.9792 54.9003C25.7623 53.6206 23.8691 53.7312 24.0072 55.0663C24.4284 57.7583 25.0013 60.4215 25.7229 63.042C25.9266 63.8859 27.0047 64.4255 27.5766 63.5608C29.2779 60.9783 30.7542 58.2395 31.9873 55.3776C32.0146 55.2334 31.9976 55.0839 31.9387 54.9507C31.8798 54.8174 31.7822 54.7073 31.6598 54.6364C31.5375 54.5655 31.3969 54.5374 31.2584 54.5563C31.1199 54.5751 30.9907 54.6399 30.8896 54.7412H30.9159Z" fill="#9E4E0C"/>
</svg>
