<svg width="59" height="59" viewBox="0 0 59 59" fill="none" xmlns="http://www.w3.org/2000/svg">
<path d="M46.6151 47.8868H16.6843C15.1737 47.8868 13.068 48.2731 11.5967 47.8868C9.47793 47.3368 9.05287 45.8441 9.05287 44.0568V18.3927C9.05287 16.9 8.71282 14.9425 9.05287 13.4759C9.94223 9.61323 17.6783 11.119 20.3137 11.119H39.1798C42.1617 11.119 48.2303 9.73108 48.8711 13.967C49.1981 16.0882 48.8711 18.5106 48.8711 20.658V41.3267C48.8711 43.245 49.7016 47.4743 46.6151 47.8737C45.366 48.0439 45.5361 50.0014 46.7851 49.8378C52.2782 49.098 50.8264 42.0403 50.8264 38.0532V17.0048C50.8264 13.1355 50.8983 9.27934 45.8826 9.1484C39.9972 9.01746 34.1118 9.1484 28.2263 9.1484C22.6679 9.1484 16.9982 8.8145 11.4528 9.1484C6.22133 9.46265 7.0976 14.8115 7.0976 18.5564V39.5852C7.0976 43.4087 5.96628 49.4973 11.407 49.8312C17.456 50.211 23.6422 49.8312 29.7173 49.8312H46.8047C48.0472 49.8443 47.8706 47.8868 46.6151 47.8868Z" fill="#808C36"/>
<path d="M19.763 10.6117L28.7875 1.5891L27.4196 1.71217L36.4506 10.7283C37.3323 11.6157 38.5771 10.1195 37.7018 9.24507L28.6708 0.222431C28.4724 0.0603062 28.2186 -0.0182015 27.9632 0.00356534C27.7078 0.0253322 27.4709 0.145661 27.3029 0.33902L18.2719 9.36165C17.3837 10.249 18.8813 11.4926 19.763 10.6117Z" fill="#808C36"/>
<path d="M20.3303 49.7622L29.8044 58.7826C30.0142 58.9425 30.2808 59.0189 30.5485 58.996C30.8161 58.9731 31.0641 58.8525 31.2405 58.6595L40.7146 49.6391C41.647 48.7578 40.0748 47.5136 39.1492 48.3949L29.6615 57.4088L31.1044 57.2922L21.6303 48.2717C20.6979 47.384 19.3911 48.8809 20.3167 49.7622H20.3303Z" fill="#808C36"/>
<path d="M9.583 35.2298L1.67884 27.711C1.7199 28.1732 1.7678 28.6289 1.80886 29.0911L9.71303 21.5593C10.6506 20.6675 9.06974 19.4176 8.13904 20.3029L0.234878 27.8347C0.0627069 28.0341 -0.020159 28.2898 0.00416684 28.5468C0.0284927 28.8038 0.158061 29.0414 0.364905 29.2083L8.26222 36.727C9.19977 37.6189 10.5137 36.1151 9.583 35.2298Z" fill="#808C36"/>
<path d="M49.4032 23.7676L57.3125 31.2927C57.2646 30.837 57.2236 30.3748 57.1825 29.9192L49.2869 37.4443C48.3496 38.3296 49.9301 39.5794 50.8606 38.7006L58.7699 31.1755C58.9391 30.9738 59.02 30.7178 58.9958 30.4607C58.9716 30.2036 58.8441 29.9654 58.6399 29.7955L50.7169 22.2704C49.7864 21.3851 48.4727 22.8823 49.4032 23.7676Z" fill="#808C36"/>
<path d="M44.9208 43.0694H13.903L14.9821 43.9494V15.8824L14.0751 16.937H45.093L44.0138 16.0506V44.1176C44.0138 45.3663 46 45.1916 46 43.9494V15.8824C45.9731 15.6283 45.8462 15.3945 45.646 15.2302C45.4459 15.066 45.1882 14.9843 44.9275 15.0025H13.903C13.643 15.0287 13.4036 15.1528 13.2356 15.3484C13.0675 15.544 12.984 15.7959 13.0025 16.0506V44.1176C13.0294 44.3717 13.1563 44.6055 13.3565 44.7698C13.5567 44.934 13.8144 45.0157 14.0751 44.9975H45.093C46.3708 44.9975 46.192 43.0694 44.9208 43.0694Z" fill="#808C36"/>
<path d="M38.9051 37.0493H19.9161L21.011 37.9352V20.8945L20.0975 21.9497H39.0798L37.9849 21.0638V38.1111C37.9849 39.3683 40 39.1859 40 37.9352V20.8945C39.9728 20.6382 39.8442 20.402 39.6413 20.2356C39.4385 20.0693 39.177 19.9855 38.9118 20.0021H19.9161C19.6518 20.03 19.409 20.1563 19.2386 20.3543C19.0683 20.5523 18.9837 20.8066 19.0026 21.0638V38.1111C19.0299 38.3681 19.1596 38.6046 19.3642 38.7701C19.5687 38.9356 19.8319 39.0171 20.0975 38.997H39.0798C40.3762 38.997 40.1881 37.0493 38.9051 37.0493Z" fill="#808C36"/>
<path d="M13.3258 15.8375L19.4125 21.7334C20.3428 22.6305 21.6008 21.0487 20.677 20.1584L14.5903 14.2693C13.6599 13.3654 12.3954 14.9541 13.3258 15.8375Z" fill="#808C36"/>
<path d="M14.757 44.6953L20.7146 38.6585C21.6253 37.739 20.1439 36.3912 19.2461 37.3038L13.282 43.3475C12.3778 44.2671 13.8592 45.6078 14.757 44.6953Z" fill="#808C36"/>
<path d="M38.323 38.8375L44.4097 44.7334C45.3401 45.6305 46.6046 44.0487 45.6742 43.1584L39.5875 37.2693C38.6572 36.3654 37.3992 37.9541 38.323 38.8375Z" fill="#808C36"/>
<path d="M44.243 15.2658L38.2853 20.5486C37.3747 21.3533 38.8561 22.5327 39.7603 21.7342L45.718 16.4514C46.6222 15.6467 45.1408 14.4673 44.243 15.2658Z" fill="#808C36"/>
</svg>
