<svg width="823" height="1083" viewBox="0 0 823 1083" fill="none" xmlns="http://www.w3.org/2000/svg">
<path d="M283.868 451.966C279.192 453.195 274.515 452.375 270.23 450.735C262.826 448.685 255.034 448.276 247.24 450.325C244.246 450.988 241.571 452.193 239 453.632V467.438H304V445.438C300.539 445.6 297.068 445.848 293.603 446.22C289.712 446.636 286.984 450.735 283.868 451.966Z" stroke="#3E3A3A" stroke-width="4.36" stroke-linecap="round" stroke-linejoin="round"/>
<path d="M239 424.442V454.437C241.565 453.067 244.24 451.919 247.241 451.288C255.035 449.336 262.828 449.726 270.233 451.678C274.519 453.24 279.196 454.021 283.872 452.85C286.989 451.678 289.717 447.774 293.615 447.383C297.078 447.029 300.539 446.798 304 446.633V424.438L239 424.442Z" stroke="#3E3A3A" stroke-width="4.36" stroke-linecap="round" stroke-linejoin="round"/>
<path d="M269.5 438.438C269.5 441.475 267.038 443.938 264 443.938C260.962 443.938 258.5 441.475 258.5 438.438C258.5 435.4 260.962 432.938 264 432.938C267.038 432.938 269.5 435.4 269.5 438.438Z" fill="#1A1A1A" stroke="#5B4F4F"/>
<path d="M184.5 550C192.508 550 199 543.284 199 535C199 526.716 192.508 520 184.5 520C176.492 520 170 526.716 170 535C170 543.284 176.492 550 184.5 550Z" fill="#786D50"/>
<path d="M558.266 520.643C558.266 520.643 527.703 482.502 545.646 473.489C563.588 464.476 583.814 502.089 583.814 502.089C583.814 502.089 592.488 453.41 631.863 451.438C640.075 464.784 622.132 499.966 616.353 506.184C643.419 499.966 653 512.401 653 512.401C653 512.401 648.437 534.43 621.371 540.913C594.152 545.309 558.266 520.643 558.266 520.643Z" fill="#199F87" stroke="#1A1A1A" stroke-width="3.69" stroke-linecap="round" stroke-linejoin="round"/>
<path d="M618 475.438L596 509.438" stroke="#1A1A1A" stroke-width="3.69" stroke-linecap="round" stroke-linejoin="round"/>
<path d="M558 490.438L567 503.438" stroke="#1A1A1A" stroke-width="3.69" stroke-linecap="round" stroke-linejoin="round"/>
<path d="M636 520.438L619 525.438" stroke="#1A1A1A" stroke-width="3.69" stroke-linecap="round" stroke-linejoin="round"/>
<path d="M425.463 228.438C348.233 267.753 310.075 341.688 338.262 405.183C362.916 460.734 428.411 502.278 487.035 544.157C516.905 565.481 547.306 590.359 547.988 619.92C548.59 645.649 526.327 668.802 503.073 688.997C455.998 729.857 401.325 766.314 340.449 797.437" stroke="#7A7A7A" stroke-width="4.03" stroke-linecap="round" stroke-linejoin="round" stroke-dasharray="24.06 24.06"/>
<path d="M473.022 267.438C396.145 304.127 358.161 373.125 386.22 432.38C410.761 484.22 475.958 522.99 534.314 562.072C564.047 581.972 594.309 605.189 594.988 632.776C595.588 656.786 573.426 678.393 550.278 697.239C503.418 735.37 448.995 769.392 388.397 798.437" stroke="#4E4E4E" stroke-width="4.03" stroke-linecap="round" stroke-linejoin="round" stroke-dasharray="24.06 24.06"/>
<path d="M516.963 305.438C454.545 339.087 423.704 402.368 446.486 456.712C466.411 504.257 519.346 539.814 566.727 575.657C590.868 593.909 615.439 615.202 615.99 640.503C616.477 662.523 598.484 682.34 579.689 699.625C541.642 734.596 497.455 765.799 448.253 792.438" stroke="#1F1D1D" stroke-width="4.03" stroke-linecap="round" stroke-linejoin="round" stroke-dasharray="24.06 24.06"/>
<path d="M203.589 513.438H594.411C598.545 513.438 602.51 515.076 605.434 517.992C608.358 520.908 610 524.864 610 528.988V764.438H188V528.988C188 526.946 188.403 524.924 189.187 523.037C189.97 521.15 191.118 519.436 192.566 517.992C194.014 516.548 195.732 515.403 197.624 514.621C199.515 513.84 201.542 513.438 203.589 513.438Z" fill="white"/>
<path d="M609.591 764.438H188.409C188.301 764.438 188.197 764.394 188.12 764.318C188.043 764.241 188 764.137 188 764.028V528.405C188.007 524.172 189.692 520.114 192.685 517.121C195.678 514.127 199.736 512.443 203.968 512.438H594.032C598.265 512.443 602.323 514.128 605.316 517.122C608.31 520.116 609.994 524.175 610 528.409V764.032C609.999 764.14 609.955 764.243 609.878 764.318C609.802 764.394 609.699 764.437 609.591 764.438ZM188.814 763.619H609.182V528.409C609.177 524.391 607.58 520.54 604.74 517.699C601.899 514.858 598.048 513.26 594.032 513.256H203.968C199.953 513.262 196.104 514.861 193.265 517.701C190.427 520.542 188.83 524.392 188.826 528.409L188.814 763.619Z" fill="black"/>
<path d="M595.59 750.438H202.41C202.356 750.438 202.303 750.427 202.253 750.407C202.203 750.386 202.158 750.356 202.12 750.318C202.081 750.28 202.051 750.235 202.031 750.186C202.01 750.136 202 750.083 202 750.029V529.403C202 528.882 202.208 528.383 202.577 528.014C202.946 527.646 203.447 527.438 203.969 527.438H594.031C594.553 527.438 595.054 527.646 595.423 528.014C595.792 528.383 596 528.882 596 529.403V750.029C596 750.083 595.99 750.136 595.969 750.186C595.949 750.235 595.919 750.28 595.88 750.318C595.842 750.356 595.797 750.386 595.747 750.407C595.697 750.427 595.644 750.438 595.59 750.438ZM202.82 749.62H595.173V529.403C595.172 529.099 595.051 528.808 594.836 528.593C594.62 528.378 594.328 528.257 594.023 528.257H203.969C203.665 528.257 203.372 528.378 203.157 528.593C202.941 528.808 202.82 529.099 202.82 529.403V749.62Z" fill="black"/>
<path d="M559.009 549.438H239.991C234.473 549.438 230 553.858 230 559.312V566.563C230 572.017 234.473 576.438 239.991 576.438H559.009C564.527 576.438 569 572.017 569 566.563V559.312C569 553.858 564.527 549.438 559.009 549.438Z" fill="white"/>
<path d="M559.594 576.438H240.406C237.647 576.434 235.003 575.343 233.052 573.403C231.102 571.464 230.004 568.834 230 566.091V558.786C230.003 556.042 231.101 553.412 233.052 551.472C235.002 549.532 237.647 548.441 240.406 548.438H559.594C562.353 548.441 564.998 549.532 566.948 551.472C568.899 553.412 569.997 556.042 570 558.786V566.087C569.997 568.831 568.9 571.462 566.949 573.402C564.998 575.342 562.353 576.434 559.594 576.438ZM240.406 549.252C237.864 549.255 235.427 550.26 233.63 552.047C231.833 553.835 230.822 556.258 230.819 558.786V566.087C230.822 568.615 231.833 571.038 233.63 572.825C235.427 574.612 237.864 575.617 240.406 575.62H559.594C562.135 575.617 564.572 574.611 566.369 572.824C568.166 571.037 569.177 568.614 569.18 566.087V558.786C569.177 556.258 568.166 553.835 566.369 552.048C564.572 550.26 562.136 549.255 559.594 549.252H240.406Z" fill="black"/>
<path d="M550.5 566.438C549.412 566.438 548.349 566.115 547.444 565.511C546.54 564.906 545.835 564.047 545.419 563.042C545.002 562.037 544.893 560.931 545.106 559.865C545.318 558.798 545.842 557.818 546.611 557.048C547.38 556.279 548.36 555.755 549.427 555.543C550.494 555.331 551.6 555.44 552.605 555.856C553.61 556.272 554.469 556.977 555.073 557.882C555.677 558.786 556 559.85 556 560.937C555.999 562.396 555.419 563.794 554.388 564.825C553.356 565.856 551.958 566.436 550.5 566.438ZM550.5 556.202C549.563 556.201 548.647 556.479 547.868 556.999C547.089 557.519 546.482 558.259 546.123 559.124C545.765 559.989 545.671 560.942 545.853 561.86C546.036 562.779 546.487 563.623 547.149 564.286C547.811 564.948 548.655 565.399 549.574 565.582C550.492 565.765 551.445 565.671 552.31 565.313C553.176 564.955 553.915 564.348 554.436 563.569C554.956 562.79 555.234 561.874 555.234 560.937C555.233 559.682 554.734 558.479 553.846 557.591C552.959 556.703 551.755 556.203 550.5 556.202Z" fill="black"/>
<path d="M559.582 570.438C559.528 570.437 559.473 570.426 559.423 570.405C559.372 570.384 559.326 570.353 559.287 570.314L554.123 565.153C554.084 565.114 554.053 565.068 554.032 565.017C554.011 564.967 554 564.912 554 564.857C554 564.802 554.011 564.748 554.032 564.697C554.053 564.646 554.083 564.6 554.122 564.561C554.161 564.522 554.207 564.491 554.258 564.47C554.309 564.449 554.363 564.438 554.418 564.438C554.473 564.437 554.528 564.448 554.579 564.469C554.63 564.49 554.676 564.521 554.715 564.56L559.879 569.722C559.937 569.781 559.977 569.856 559.992 569.937C560.008 570.018 560 570.102 559.968 570.178C559.936 570.255 559.883 570.32 559.814 570.366C559.746 570.412 559.665 570.437 559.582 570.438Z" fill="black"/>
<path d="M529.86 558.438H478.14C476.406 558.438 475 559.747 475 561.362V563.513C475 565.128 476.406 566.438 478.14 566.438H529.86C531.594 566.438 533 565.128 533 563.513V561.362C533 559.747 531.594 558.438 529.86 558.438Z" fill="#E2EAFF"/>
<path d="M458.86 558.438H397.14C395.406 558.438 394 559.747 394 561.362V563.513C394 565.128 395.406 566.438 397.14 566.438H458.86C460.594 566.438 462 565.128 462 563.513V561.362C462 559.747 460.594 558.438 458.86 558.438Z" fill="#E2EAFF"/>
<path d="M350.112 557.438H284.888C282.741 557.438 281 559.075 281 561.095V563.78C281 565.8 282.741 567.438 284.888 567.438H350.112C352.259 567.438 354 565.8 354 563.78V561.095C354 559.075 352.259 557.438 350.112 557.438Z" fill="#5479F7"/>
<path d="M266.583 560.437H250.417C250.306 560.437 250.2 560.385 250.122 560.291C250.044 560.197 250 560.07 250 559.938C250 559.805 250.044 559.678 250.122 559.584C250.2 559.49 250.306 559.438 250.417 559.438H266.583C266.694 559.438 266.8 559.49 266.878 559.584C266.956 559.678 267 559.805 267 559.938C267 560.07 266.956 560.197 266.878 560.291C266.8 560.385 266.694 560.437 266.583 560.437Z" fill="#5479F7"/>
<path d="M264.579 565.438H248.417C248.306 565.438 248.2 565.385 248.122 565.291C248.044 565.197 248 565.07 248 564.938C248 564.805 248.044 564.678 248.122 564.584C248.2 564.49 248.306 564.438 248.417 564.438H264.583C264.694 564.438 264.8 564.49 264.878 564.584C264.956 564.678 265 564.805 265 564.938C265 565.07 264.956 565.197 264.878 565.291C264.8 565.385 264.694 565.438 264.583 565.438H264.579Z" fill="#5479F7"/>
<path d="M250.393 572.438C250.343 572.438 250.293 572.427 250.247 572.407C250.199 572.387 250.155 572.357 250.118 572.319C250.082 572.281 250.052 572.236 250.032 572.185C250.012 572.135 250.001 572.081 250 572.027C249.999 571.972 250.009 571.918 250.028 571.867L257.238 552.72C257.255 552.666 257.282 552.617 257.317 552.575C257.353 552.533 257.396 552.499 257.445 552.476C257.493 552.452 257.545 552.439 257.598 552.438C257.651 552.436 257.704 552.446 257.754 552.467C257.803 552.488 257.848 552.52 257.886 552.559C257.923 552.599 257.953 552.647 257.972 552.7C257.992 552.752 258.001 552.808 258 552.865C257.998 552.921 257.986 552.977 257.964 553.028L250.756 572.177C250.727 572.254 250.677 572.32 250.612 572.366C250.547 572.413 250.471 572.438 250.393 572.438Z" fill="#5479F7"/>
<path d="M257.431 572.437C257.36 572.436 257.291 572.418 257.229 572.386C257.166 572.354 257.113 572.308 257.074 572.252C257.035 572.197 257.01 572.133 257.003 572.066C256.995 572 257.004 571.933 257.03 571.87L265.149 552.7C265.17 552.649 265.202 552.603 265.243 552.563C265.283 552.524 265.331 552.493 265.384 552.471C265.438 552.45 265.495 552.438 265.553 552.438C265.611 552.437 265.668 552.447 265.722 552.467C265.776 552.487 265.825 552.517 265.867 552.555C265.908 552.594 265.941 552.639 265.964 552.689C265.987 552.74 265.999 552.794 266 552.848C266.001 552.903 265.99 552.957 265.969 553.008L257.84 572.177C257.807 572.254 257.751 572.32 257.678 572.366C257.605 572.413 257.519 572.438 257.431 572.437Z" fill="#5479F7"/>
<path d="M644 647.434L527.185 647.438L527 609.441L643.815 609.438L644 647.434Z" fill="white"/>
<path d="M527.593 647.437C527.485 647.437 527.382 647.395 527.305 647.318C527.229 647.241 527.186 647.138 527.185 647.029L527 608.85C527 608.741 527.043 608.636 527.119 608.559C527.156 608.52 527.201 608.489 527.251 608.469C527.301 608.448 527.354 608.437 527.408 608.438H643.407C643.515 608.438 643.618 608.48 643.695 608.557C643.771 608.634 643.814 608.737 643.815 608.846L644 647.025C644 647.079 643.99 647.133 643.97 647.183C643.949 647.233 643.919 647.278 643.881 647.316C643.844 647.355 643.799 647.386 643.749 647.406C643.699 647.427 643.646 647.438 643.592 647.437H527.593ZM527.819 609.258L528.004 646.617H643.189L643.003 609.258H527.819Z" fill="black"/>
<path d="M654 635.434L538.185 635.438L538 597.443L653.817 597.438L654 635.434Z" fill="#91AF91"/>
<path d="M562.409 641.438C562.329 641.437 562.25 641.413 562.182 641.368C562.115 641.323 562.063 641.259 562.031 641.184C562 641.109 561.992 641.026 562.008 640.946C562.023 640.867 562.062 640.793 562.119 640.736L598.379 604.085C598.415 604.044 598.46 604.012 598.511 603.991C598.561 603.969 598.615 603.96 598.67 603.963C598.778 603.963 598.882 604.007 598.958 604.083L616.356 621.525L646.271 584.59C646.34 584.505 646.439 584.451 646.547 584.44C646.656 584.428 646.764 584.461 646.848 584.53C646.933 584.599 646.987 584.699 646.998 584.808C647.009 584.917 646.977 585.025 646.908 585.11L616.7 622.399C616.664 622.444 616.619 622.48 616.568 622.506C616.517 622.532 616.461 622.547 616.404 622.55C616.346 622.553 616.289 622.544 616.236 622.524C616.182 622.503 616.134 622.472 616.093 622.431L598.664 604.965L562.693 641.323C562.616 641.397 562.515 641.437 562.409 641.438Z" fill="black"/>
<path d="M645.325 590.438L644.496 590.175L646.38 585.245L641.45 587.921L641 587.236L648 583.438L645.325 590.438Z" fill="black"/>
<path d="M272.596 672.438H231.404C231.297 672.438 231.194 672.385 231.118 672.291C231.043 672.197 231 672.07 231 671.938C231 671.805 231.043 671.678 231.118 671.584C231.194 671.49 231.297 671.438 231.404 671.438H272.596C272.703 671.438 272.806 671.49 272.882 671.584C272.957 671.678 273 671.805 273 671.938C273 672.07 272.957 672.197 272.882 672.291C272.806 672.385 272.703 672.438 272.596 672.438Z" fill="black"/>
<path d="M311.59 684.438H231.41C231.301 684.438 231.197 684.385 231.12 684.291C231.043 684.197 231 684.07 231 683.938C231 683.805 231.043 683.678 231.12 683.584C231.197 683.49 231.301 683.438 231.41 683.438H311.59C311.699 683.438 311.803 683.49 311.88 683.584C311.957 683.678 312 683.805 312 683.938C312 684.07 311.957 684.197 311.88 684.291C311.803 684.385 311.699 684.438 311.59 684.438Z" fill="black"/>
<path d="M284.675 653.438H239.325C237.117 653.438 234.999 652.595 233.438 651.094C231.877 649.594 231 647.559 231 645.438C231 643.316 231.877 641.281 233.438 639.781C234.999 638.28 237.117 637.438 239.325 637.438H284.675C286.883 637.438 289 638.28 290.562 639.781C292.123 641.281 293 643.316 293 645.438C293 647.559 292.123 649.594 290.562 651.094C289 652.595 286.883 653.438 284.675 653.438ZM239.325 638.222C237.355 638.252 235.477 639.025 234.095 640.374C232.713 641.723 231.939 643.54 231.939 645.433C231.939 647.326 232.713 649.143 234.095 650.492C235.477 651.841 237.355 652.614 239.325 652.644H284.675C285.67 652.659 286.659 652.483 287.583 652.128C288.507 651.772 289.348 651.243 290.058 650.572C290.767 649.901 291.331 649.101 291.715 648.219C292.1 647.337 292.298 646.39 292.298 645.433C292.298 644.476 292.1 643.529 291.715 642.647C291.331 641.765 290.767 640.965 290.058 640.294C289.348 639.623 288.507 639.094 287.583 638.738C286.659 638.383 285.67 638.207 284.675 638.222H239.325Z" fill="#5479F7"/>
<path d="M274.588 648.438H241.412C241.303 648.438 241.198 648.385 241.121 648.291C241.043 648.197 241 648.07 241 647.937C241 647.805 241.043 647.678 241.121 647.584C241.198 647.49 241.303 647.438 241.412 647.438H274.588C274.697 647.438 274.802 647.49 274.879 647.584C274.957 647.678 275 647.805 275 647.937C275 648.07 274.957 648.197 274.879 648.291C274.802 648.385 274.697 648.438 274.588 648.438Z" fill="black"/>
<path d="M282.973 644.312L284.728 642.553L285.754 643.581L283.998 645.342L286 647.345L284.908 648.438L282.908 646.434L281.143 648.203L280.117 647.175L281.883 645.406L280 643.53L281.09 642.438L282.973 644.312Z" fill="black"/>
<path d="M351.817 653.438H311.183C309.012 653.438 306.931 652.595 305.397 651.094C303.862 649.594 303 647.559 303 645.438C303 643.316 303.862 641.281 305.397 639.781C306.931 638.28 309.012 637.438 311.183 637.438H351.817C352.892 637.437 353.956 637.644 354.949 638.046C355.941 638.448 356.844 639.038 357.603 639.781C358.363 640.524 358.966 641.405 359.377 642.376C359.788 643.347 360 644.387 360 645.438C360 646.488 359.788 647.528 359.377 648.499C358.966 649.47 358.363 650.351 357.603 651.094C356.844 651.837 355.941 652.426 354.949 652.829C353.956 653.231 352.892 653.438 351.817 653.438ZM311.183 638.222C310.204 638.207 309.233 638.383 308.324 638.738C307.416 639.094 306.589 639.623 305.892 640.294C305.195 640.965 304.641 641.765 304.263 642.647C303.885 643.529 303.69 644.476 303.69 645.433C303.69 646.39 303.885 647.337 304.263 648.219C304.641 649.101 305.195 649.901 305.892 650.572C306.589 651.243 307.416 651.772 308.324 652.128C309.233 652.483 310.204 652.659 311.183 652.644H351.817C352.796 652.659 353.767 652.483 354.676 652.128C355.584 651.772 356.411 651.243 357.108 650.572C357.805 649.901 358.359 649.101 358.737 648.219C359.115 647.337 359.31 646.39 359.31 645.433C359.31 644.476 359.115 643.529 358.737 642.647C358.359 641.765 357.805 640.965 357.108 640.294C356.411 639.623 355.584 639.094 354.676 638.738C353.767 638.383 352.796 638.207 351.817 638.222H311.183Z" fill="#5479F7"/>
<path d="M338.598 648.438H314.402C314.295 648.438 314.193 648.385 314.118 648.291C314.042 648.197 314 648.07 314 647.938C314 647.805 314.042 647.678 314.118 647.584C314.193 647.49 314.295 647.438 314.402 647.438H338.598C338.705 647.438 338.807 647.49 338.882 647.584C338.958 647.678 339 647.805 339 647.938C339 648.07 338.958 648.197 338.882 648.291C338.807 648.385 338.705 648.438 338.598 648.438Z" fill="black"/>
<path d="M347.968 644.311L349.726 642.552L350.754 643.58L348.995 645.339L351 647.345L349.907 648.438L347.903 646.431L346.135 648.201L345.106 647.173L346.874 645.404L345 643.53L346.092 642.438L347.968 644.311Z" fill="black"/>
<path d="M372.715 621.438H239.285C237.088 621.438 234.98 620.542 233.427 618.948C231.873 617.354 231 615.192 231 612.938C231 610.683 231.873 608.521 233.427 606.927C234.98 605.333 237.088 604.438 239.285 604.438H372.715C373.803 604.437 374.88 604.657 375.886 605.085C376.891 605.512 377.804 606.138 378.573 606.927C379.343 607.716 379.953 608.653 380.369 609.685C380.786 610.716 381 611.821 381 612.938C381 614.054 380.786 615.159 380.369 616.19C379.953 617.222 379.343 618.159 378.573 618.948C377.804 619.737 376.891 620.363 375.886 620.79C374.88 621.218 373.803 621.438 372.715 621.438ZM239.285 605.275C238.294 605.259 237.311 605.446 236.391 605.823C235.471 606.201 234.634 606.763 233.928 607.476C233.222 608.189 232.661 609.039 232.279 609.976C231.896 610.914 231.699 611.92 231.699 612.937C231.699 613.953 231.896 614.959 232.279 615.897C232.661 616.834 233.222 617.684 233.928 618.397C234.634 619.11 235.471 619.672 236.391 620.05C237.311 620.427 238.294 620.614 239.285 620.598H372.715C373.706 620.614 374.689 620.427 375.609 620.05C376.529 619.672 377.366 619.11 378.072 618.397C378.778 617.684 379.339 616.834 379.721 615.897C380.104 614.959 380.301 613.953 380.301 612.937C380.301 611.92 380.104 610.914 379.721 609.976C379.339 609.039 378.778 608.189 378.072 607.476C377.366 606.763 376.529 606.201 375.609 605.823C374.689 605.446 373.706 605.259 372.715 605.275H239.285Z" fill="#5479F7"/>
<path d="M367.461 611.625L369.515 609.573L370.714 610.771L368.66 612.824L371 615.163L369.726 616.437L367.386 614.098L365.322 616.161L364.124 614.963L366.187 612.899L364 610.712L365.274 609.438L367.461 611.625Z" fill="black"/>
<path d="M471.077 669.288C488.656 653.387 489.958 626.202 473.985 608.567C458.013 590.933 430.814 589.528 413.235 605.428C395.657 621.329 394.355 648.514 410.328 666.149C426.3 683.783 453.499 685.189 471.077 669.288Z" fill="white"/>
<path d="M442.663 680.432C418.68 680.432 399.094 661.145 399 637.436C398.973 631.796 400.074 626.207 402.24 620.99C404.406 615.772 407.594 611.029 411.621 607.033C415.648 603.037 420.435 599.868 425.706 597.706C430.977 595.544 436.628 594.434 442.335 594.438C466.318 594.438 485.906 613.725 485.999 637.434C486.027 643.073 484.926 648.662 482.761 653.88C480.595 659.098 477.408 663.841 473.381 667.837C469.354 671.834 464.568 675.004 459.297 677.166C454.027 679.329 448.375 680.44 442.669 680.438L442.663 680.432ZM442.33 595.242C436.731 595.239 431.187 596.33 426.016 598.451C420.845 600.572 416.149 603.683 412.199 607.604C408.248 611.524 405.121 616.178 402.997 621.297C400.873 626.416 399.793 631.899 399.82 637.432C399.911 660.697 419.131 679.622 442.667 679.622C448.266 679.625 453.81 678.534 458.981 676.412C464.151 674.291 468.847 671.181 472.798 667.26C476.748 663.339 479.875 658.686 482 653.567C484.125 648.448 485.205 642.965 485.178 637.432C485.089 614.167 465.869 595.24 442.335 595.242H442.33Z" fill="black"/>
<path d="M490 625.745C484.793 603.828 465.259 587.507 442 587.438L442.185 637.438C442.185 637.438 482.038 627.605 490 625.745Z" fill="#A5649E"/>
<path d="M413.94 600.438C409.066 604.135 404.971 608.767 401.891 614.067C398.812 619.366 396.809 625.227 396 631.31C407.275 632.825 442 637.438 442 637.438C442 637.438 418.541 606.64 413.94 600.438Z" fill="#CB7676"/>
<path d="M476.841 689.436C476.744 689.436 476.649 689.4 476.576 689.336L452.14 668.149C452.1 668.114 452.067 668.072 452.043 668.024C452.019 667.977 452.005 667.925 452.001 667.872C451.997 667.819 452.004 667.766 452.021 667.715C452.037 667.665 452.064 667.618 452.099 667.578C452.134 667.537 452.176 667.504 452.224 667.481C452.271 667.457 452.323 667.442 452.376 667.439C452.429 667.435 452.483 667.441 452.533 667.458C452.584 667.475 452.631 667.501 452.671 667.536L476.992 688.626H491.62C491.723 688.633 491.82 688.679 491.89 688.754C491.961 688.829 492 688.929 492 689.032C492 689.135 491.961 689.234 491.89 689.309C491.82 689.385 491.723 689.431 491.62 689.438L476.841 689.436Z" fill="black"/>
<path d="M530.592 669.438H501.408C498.421 669.438 496 671.801 496 674.717V703.158C496 706.074 498.421 708.438 501.408 708.438H530.592C533.579 708.438 536 706.074 536 703.158V674.717C536 671.801 533.579 669.438 530.592 669.438Z" fill="#AF8F72"/>
<path d="M507.051 700.437C506.919 700.437 506.788 700.413 506.666 700.366C506.405 700.268 506.196 700.075 506.086 699.831C505.975 699.586 505.971 699.311 506.076 699.064L514.944 678.096C514.992 677.97 515.067 677.854 515.164 677.756C515.261 677.658 515.378 677.579 515.507 677.525C515.637 677.47 515.777 677.44 515.918 677.438C516.06 677.435 516.201 677.459 516.333 677.509C516.465 677.559 516.585 677.633 516.686 677.727C516.787 677.822 516.866 677.934 516.92 678.058C516.974 678.182 517.001 678.315 517 678.449C516.999 678.583 516.969 678.716 516.912 678.839L508.044 699.807C507.965 699.995 507.828 700.155 507.651 700.268C507.474 700.38 507.265 700.439 507.051 700.437Z" fill="#E2EAFF"/>
<path d="M516.052 700.437C515.92 700.437 515.789 700.413 515.666 700.366C515.405 700.267 515.196 700.074 515.086 699.83C514.975 699.585 514.971 699.309 515.076 699.062L523.952 678.069C524.004 677.947 524.081 677.835 524.178 677.741C524.275 677.646 524.391 677.571 524.519 677.519C524.648 677.467 524.785 677.439 524.925 677.438C525.064 677.436 525.202 677.46 525.332 677.509C525.461 677.558 525.579 677.63 525.679 677.722C525.779 677.814 525.859 677.924 525.914 678.045C525.969 678.166 525.998 678.296 526 678.428C526.002 678.56 525.976 678.691 525.924 678.813L517.048 699.806C516.969 699.994 516.831 700.155 516.654 700.268C516.476 700.38 516.266 700.439 516.052 700.437Z" fill="#E2EAFF"/>
<path d="M525.98 687.438H508.02C507.75 687.438 507.49 687.332 507.299 687.145C507.107 686.957 507 686.703 507 686.438C507 686.172 507.107 685.918 507.299 685.73C507.49 685.543 507.75 685.438 508.02 685.438H525.98C526.25 685.438 526.51 685.543 526.701 685.73C526.893 685.918 527 686.172 527 686.438C527 686.703 526.893 686.957 526.701 687.145C526.51 687.332 526.25 687.438 525.98 687.438Z" fill="#E2EAFF"/>
<path d="M523.98 693.438H506.02C505.75 693.438 505.49 693.332 505.299 693.145C505.107 692.957 505 692.703 505 692.438C505 692.172 505.107 691.918 505.299 691.73C505.49 691.543 505.75 691.438 506.02 691.438H523.98C524.25 691.438 524.51 691.543 524.701 691.73C524.893 691.918 525 692.172 525 692.438C525 692.703 524.893 692.957 524.701 693.145C524.51 693.332 524.25 693.438 523.98 693.438Z" fill="#E2EAFF"/>
<path d="M433 734.438L394 733.601L400.009 694.438H428.463L433 734.438Z" fill="white"/>
<path d="M432.603 734.438L394.395 733.597C394.338 733.596 394.281 733.582 394.229 733.557C394.177 733.532 394.131 733.496 394.094 733.452C394.058 733.407 394.031 733.355 394.015 733.299C394 733.243 393.996 733.185 394.004 733.127L399.893 693.785C399.907 693.688 399.955 693.6 400.028 693.536C400.101 693.472 400.195 693.437 400.291 693.438H428.166C428.267 693.437 428.364 693.475 428.438 693.544C428.513 693.613 428.559 693.707 428.568 693.809L432.998 733.981C433.004 734.039 432.998 734.097 432.98 734.153C432.962 734.208 432.933 734.259 432.895 734.302C432.858 734.344 432.813 734.377 432.763 734.4C432.713 734.424 432.658 734.436 432.603 734.438ZM394.863 732.79L432.15 733.61L427.797 694.267H400.629L394.863 732.79Z" fill="black"/>
<path d="M446 684.808C446.012 683.764 445.787 682.732 445.343 681.786C444.898 680.841 444.245 680.007 443.431 679.346C444.89 677.279 445.667 674.813 445.653 672.289C445.653 665.932 440.921 660.778 435.086 660.778C434.722 660.778 434.357 660.798 433.995 660.839C432.884 655.392 428.428 651.317 423.093 651.317C420.61 651.328 418.211 652.211 416.322 653.809C414.794 650.617 411.729 648.438 408.194 648.438C403.736 648.438 400.023 651.904 399.201 656.498C398.037 656.117 396.819 655.923 395.593 655.923C388.632 655.923 383 662.069 383 669.65C382.983 672.753 383.968 675.78 385.811 678.287C385.465 679.324 385.289 680.409 385.291 681.502C385.291 684.973 387.028 688 389.606 689.616C388.776 690.997 388.341 692.577 388.347 694.186C388.347 698.781 391.765 702.506 395.984 702.506C396.092 702.506 396.197 702.493 396.305 702.488C396.18 703.024 396.118 703.573 396.119 704.123C396.119 707.799 398.855 710.778 402.231 710.778C403.474 710.774 404.682 710.368 405.672 709.62C406.9 711.333 408.807 712.438 410.955 712.438C411.839 712.431 412.712 712.242 413.518 711.883C414.325 711.525 415.047 711.004 415.641 710.353C416.768 711.336 418.215 711.881 419.715 711.888C421.785 711.888 423.632 710.851 424.847 709.231C425.798 709.988 426.981 710.403 428.201 710.409C431.388 710.409 433.971 707.595 433.971 704.123C433.971 703.987 433.96 703.853 433.953 703.719C437.918 703.364 441.036 699.753 441.036 695.342C441.039 694.026 440.75 692.726 440.192 691.532C443.42 691.327 446 688.399 446 684.808Z" fill="black"/>
<path d="M343.509 726.7C382.409 718.142 448.188 718.205 483.357 727.816C526.463 739.606 612.178 792.417 590.563 827.633C570.388 860.497 498.524 817.077 498.524 817.077V843.348C498.525 844.541 498.29 845.723 497.833 846.826C497.376 847.929 496.706 848.931 495.862 849.775C495.018 850.619 494.015 851.289 492.912 851.746C491.809 852.202 490.626 852.438 489.432 852.438H332.385C331.19 852.438 330.008 852.203 328.904 851.746C327.801 851.289 326.798 850.62 325.954 849.776C325.109 848.932 324.439 847.929 323.982 846.826C323.525 845.723 323.29 844.541 323.291 843.348V814.271C323.291 814.271 251.397 861.632 228.636 830.034C199.812 790.017 313.616 733.273 343.509 726.7Z" fill="#5479F7"/>
<path d="M498.587 817.434C498.484 817.434 498.384 817.396 498.308 817.328C498.232 817.26 498.184 817.166 498.175 817.065C495.732 787.826 486.116 757.273 486.019 756.965C485.986 756.862 485.996 756.751 486.048 756.655C486.099 756.56 486.186 756.488 486.291 756.456C486.396 756.424 486.51 756.434 486.607 756.484C486.704 756.534 486.777 756.62 486.81 756.723C486.906 757.03 496.555 787.671 498.999 816.998C499.008 817.105 498.973 817.212 498.903 817.294C498.832 817.376 498.732 817.428 498.623 817.437L498.587 817.434Z" fill="black"/>
<path d="M323.411 814.438H323.377C323.268 814.428 323.168 814.377 323.097 814.295C323.027 814.213 322.993 814.107 323.001 814C325.444 784.674 335.092 754.027 335.19 753.728C335.206 753.677 335.232 753.628 335.266 753.587C335.301 753.545 335.344 753.511 335.392 753.485C335.44 753.46 335.493 753.444 335.548 753.439C335.602 753.434 335.657 753.44 335.71 753.456C335.762 753.472 335.811 753.498 335.852 753.533C335.894 753.567 335.929 753.61 335.954 753.657C335.979 753.705 335.994 753.758 335.999 753.811C336.003 753.865 335.997 753.919 335.979 753.97C335.882 754.274 326.262 784.831 323.824 814.065C323.816 814.167 323.769 814.261 323.692 814.331C323.615 814.4 323.515 814.438 323.411 814.438Z" fill="black"/>
<path d="M648.478 813.202C648.478 813.202 660.992 810.374 667.815 804.073C674.638 797.771 678.484 786.478 678.484 786.478C673.738 787.386 669.059 788.614 664.48 790.153C663.359 791.35 661.215 793.813 660.241 796.134C660.123 794.711 660.112 793.28 660.209 791.855C658.607 792.553 657.11 793.468 655.758 794.574C650.083 799.522 648.478 813.202 648.478 813.202Z" fill="#FFC727"/>
<path d="M670.687 791.964C672.39 790.789 674.121 789.653 675.818 788.462C675.835 788.447 675.847 788.426 675.85 788.403C675.853 788.38 675.848 788.356 675.836 788.337C675.823 788.317 675.804 788.303 675.782 788.296C675.76 788.289 675.736 788.29 675.715 788.299C672.494 790.218 669.322 792.274 666.253 794.421C665.165 795.172 664.131 795.949 663.092 796.748L663.31 796.379C663.685 795.748 664.082 795.134 664.474 794.519C665.26 793.27 666.148 792.087 667.129 790.985C667.162 790.941 667.102 790.882 667.064 790.925C666.095 792.045 665.121 793.154 664.235 794.345C663.81 794.889 663.424 795.492 663.048 796.09C662.853 796.406 662.668 796.716 662.504 797.037L662.314 797.357C660.682 798.624 659.131 799.945 657.629 801.343C656.701 802.206 655.807 803.099 654.947 804.023C655.426 802.512 655.85 800.984 656.411 799.5C656.413 799.493 656.414 799.486 656.413 799.479C656.412 799.472 656.41 799.465 656.406 799.46C656.402 799.454 656.396 799.449 656.39 799.446C656.384 799.443 656.377 799.441 656.37 799.441C656.363 799.441 656.356 799.443 656.35 799.446C656.343 799.449 656.338 799.454 656.334 799.46C656.33 799.465 656.328 799.472 656.327 799.479C656.326 799.486 656.327 799.493 656.329 799.5C655.785 801.06 655.186 802.626 654.767 804.23C653.81 805.263 652.896 806.329 652.047 807.443C652.047 807.378 652.074 807.307 652.091 807.242C652.232 806.655 652.379 806.068 652.537 805.481C652.841 804.355 653.173 803.23 653.554 802.126C654.273 799.826 655.412 797.678 656.911 795.791C656.944 795.753 656.884 795.694 656.846 795.737C654.408 798.619 652.977 802.082 652.063 805.714C651.933 806.258 651.802 806.802 651.683 807.313C651.617 807.601 651.547 807.889 651.498 808.177C651.117 808.689 650.747 809.205 650.409 809.732C648.284 812.978 646.513 816.441 645.126 820.063C643.566 824.145 642.229 828.309 641.122 832.536C641.122 832.618 641.225 832.645 641.252 832.536C643.695 825.234 646.187 817.856 650.371 811.298C651.254 809.923 652.206 808.593 653.222 807.313C655.291 807.178 657.332 806.773 659.294 806.106C661.439 805.384 663.485 804.396 665.383 803.164C666.463 802.436 667.504 801.65 668.5 800.81C668.506 800.807 668.511 800.803 668.515 800.798C668.519 800.792 668.522 800.786 668.523 800.78C668.524 800.774 668.524 800.767 668.522 800.761C668.521 800.754 668.518 800.748 668.514 800.743C668.51 800.738 668.504 800.734 668.498 800.732C668.492 800.729 668.486 800.728 668.479 800.728C668.473 800.728 668.467 800.73 668.461 800.732C668.455 800.735 668.45 800.74 668.446 800.745C666.703 802.152 664.778 803.317 662.722 804.208C660.704 805.135 658.591 805.843 656.422 806.318C655.502 806.519 654.566 806.671 653.63 806.796C654.784 805.372 656.014 804.011 657.314 802.718C657.733 802.3 658.168 801.897 658.603 801.49C660.059 800.47 661.606 799.586 663.223 798.847C665.268 797.858 667.281 796.808 669.305 795.781C670.448 795.199 671.585 794.606 672.739 794.046C672.788 794.019 672.739 793.948 672.69 793.97C670.638 794.965 668.555 795.889 666.482 796.835C664.534 797.727 662.559 798.624 660.687 799.674L660.453 799.815C662.145 798.347 663.897 796.944 665.687 795.59C667.298 794.367 668.99 793.144 670.687 791.964Z" fill="#263238"/>
<path d="M669.975 798.402C668.957 798.842 667.924 799.239 666.923 799.707C665.921 800.174 664.904 800.756 663.925 801.338C663.917 801.343 663.912 801.351 663.91 801.361C663.909 801.37 663.91 801.379 663.915 801.387C663.92 801.395 663.927 801.401 663.936 801.404C663.945 801.407 663.954 801.407 663.963 801.403C664.958 800.924 665.97 800.479 666.955 799.984C667.94 799.489 668.963 798.934 670.002 798.483C670.078 798.461 670.024 798.38 669.975 798.402Z" fill="#263238"/>
<path d="M607.911 750.309C610.217 753.284 611.524 756.911 611.644 760.673C611.682 761.793 611.508 763.353 611.377 765.186C616.034 767.67 619.538 772.145 619.538 772.145C616.894 770.558 613.26 769.916 611.301 770.177C611.365 771.431 611.525 772.677 611.78 773.907C612.645 773.858 614.315 773.972 617.074 774.951C615.434 774.935 613.81 775.259 612.302 775.902C614.527 782.971 621.143 790.251 639.414 793.339C639.414 793.339 642.939 780.943 636.182 767.643C630.692 756.877 607.911 750.309 607.911 750.309Z" fill="#FFC727"/>
<path d="M645.73 823.646C645.415 820.623 645.012 817.606 644.544 814.604C643.622 808.586 642.393 802.619 640.861 796.727C640.147 793.957 639.266 791.234 638.222 788.571C638.276 788.085 638.299 787.597 638.293 787.108C638.293 786.526 638.293 785.939 638.293 785.357C638.293 784.183 638.227 783.019 638.13 781.85C637.942 779.542 637.566 777.252 637.003 775.005C636.671 773.706 636.28 772.422 635.915 771.134C635.91 771.124 635.902 771.117 635.893 771.113C635.883 771.109 635.873 771.109 635.863 771.112C635.853 771.116 635.844 771.122 635.839 771.131C635.834 771.14 635.832 771.151 635.833 771.161C636.437 773.398 636.884 775.675 637.172 777.974C637.502 780.244 637.707 782.531 637.787 784.825C637.787 785.455 637.819 786.081 637.825 786.711C637.825 786.978 637.825 787.255 637.825 787.516C636.915 785.337 635.876 783.215 634.713 781.16C632.856 777.895 630.765 774.77 628.456 771.808C628.45 771.462 628.401 771.119 628.309 770.786C628.222 770.378 628.135 769.97 628.042 769.562C627.852 768.73 627.645 767.899 627.416 767.078C626.965 765.446 626.366 763.815 625.844 762.184C625.841 762.176 625.835 762.169 625.828 762.163C625.821 762.158 625.812 762.156 625.803 762.156C625.794 762.156 625.786 762.158 625.778 762.163C625.771 762.169 625.766 762.176 625.762 762.184C626.247 763.815 626.568 765.479 626.938 767.126C627.123 767.937 627.302 768.758 627.482 769.568L627.743 770.791V770.884C627.017 769.956 626.263 769.039 625.48 768.132C621.987 764.044 618.162 760.27 614.315 756.524C613.842 756.062 613.352 755.616 612.873 755.159C612.835 755.121 612.775 755.159 612.813 755.224C616.497 759.03 620.12 762.94 623.548 767.001C624.364 767.969 625.18 768.943 625.958 769.932L624.712 769.106C623.624 768.41 622.569 767.735 621.448 767.116C620.327 766.496 619.223 765.887 618.085 765.321C616.948 764.756 615.659 764.272 614.533 763.614C614.484 763.587 614.44 763.668 614.489 763.69C615.645 764.222 616.759 764.838 617.824 765.533C618.912 766.191 620.044 766.855 621.138 767.551C622.231 768.247 623.314 768.899 624.359 769.595C625.246 770.171 626.122 770.802 627.047 771.335C629.165 774.054 631.12 776.898 632.901 779.85C634.006 781.709 635.016 783.623 635.926 785.586L635.268 785.298L633.625 784.585C632.536 784.107 631.448 783.645 630.393 783.172C628.341 782.285 626.258 781.464 624.25 780.486C623.122 779.954 622.032 779.347 620.985 778.67C620.942 778.637 620.898 778.713 620.942 778.74C624.691 781.323 628.891 783.139 633.037 784.977L634.838 785.771C635.328 785.988 635.823 786.233 636.334 786.423C637.562 789.167 638.595 791.994 639.424 794.883C641.065 800.698 642.398 806.595 643.418 812.549C644.463 818.53 645.17 824.511 645.72 830.552C645.79 831.302 645.856 832.052 645.943 832.803C645.951 832.859 645.98 832.911 646.023 832.948C646.067 832.985 646.122 833.006 646.179 833.006C646.237 833.006 646.292 832.985 646.335 832.948C646.379 832.911 646.407 832.859 646.416 832.803C646.362 829.731 646.051 826.664 645.73 823.646Z" fill="#263238"/>
<path d="M634.615 773.195C634.277 771.34 633.782 769.524 633.282 767.708C633.282 767.654 633.189 767.676 633.2 767.708C633.663 769.492 633.994 771.313 634.332 773.146C634.669 774.978 634.974 776.843 635.235 778.702C635.235 778.735 635.289 778.735 635.284 778.702C635.165 776.855 634.941 775.017 634.615 773.195Z" fill="#263238"/>
<path d="M626.736 778.229C625.466 777.394 624.138 776.647 622.765 775.995C622.101 775.652 621.426 775.326 620.751 775C620.077 774.673 619.331 774.38 618.64 774.032C618.631 774.029 618.621 774.03 618.611 774.034C618.602 774.038 618.595 774.045 618.591 774.054C618.586 774.063 618.585 774.073 618.587 774.083C618.589 774.093 618.595 774.102 618.602 774.108C619.266 774.445 619.903 774.847 620.561 775.195L622.585 776.283C623.924 777 625.235 777.794 626.638 778.376C626.656 778.377 626.674 778.373 626.69 778.365C626.705 778.357 626.719 778.345 626.729 778.33C626.739 778.315 626.744 778.298 626.746 778.281C626.747 778.263 626.744 778.245 626.736 778.229Z" fill="#263238"/>
<path opacity="0.1" d="M648.707 791.567C648.707 791.567 660.263 788.81 665.573 781.062C670.644 773.662 672.282 761.053 672.412 759.944C672.2 760.961 669.817 771.982 661.95 777.115C655.932 781.068 650.099 784.303 648.707 791.567Z" fill="#263238"/>
<path d="M659.376 771.629C657.32 773.517 655.841 775.949 655.111 778.643C655.111 778.643 655.143 778.681 655.149 778.643C655.999 776.014 657.467 773.627 659.431 771.683C659.469 771.656 659.414 771.591 659.376 771.629Z" fill="#263238"/>
<path d="M648.707 791.567C648.707 791.567 660.263 788.81 665.573 781.062C670.644 773.662 672.282 761.053 672.412 759.944C672.415 759.917 672.415 759.89 672.412 759.863C672.412 759.863 666.874 767.736 661.046 769.747C655.219 771.759 647.036 778.713 648.707 791.567Z" fill="#FFC727"/>
<path d="M670.372 764.223C669.34 766.344 668.151 768.385 666.814 770.329C665.466 772.175 663.865 773.822 662.058 775.223C660.492 776.468 658.832 777.599 657.243 778.817L657.276 778.762C657.575 778.316 657.896 777.887 658.223 777.468C658.886 776.625 659.61 775.837 660.339 775.038C661.776 773.483 663.239 771.955 664.529 770.269C665.241 769.337 665.861 768.337 666.379 767.284C666.406 767.235 666.324 767.208 666.297 767.257C664.425 771.161 660.682 773.657 658.01 776.952C657.63 777.425 657.271 777.909 656.922 778.414C656.659 778.786 656.436 779.185 656.259 779.605C654.795 780.774 653.473 782.11 652.319 783.585C652.418 782.828 652.573 782.079 652.782 781.345C653.052 780.318 653.464 779.333 654.006 778.42C654.033 778.371 653.962 778.327 653.935 778.371C653.375 779.285 652.923 780.262 652.586 781.28C652.342 782.089 652.201 782.925 652.167 783.77C651.596 784.544 651.074 785.354 650.605 786.195C650.654 785.95 650.698 785.7 650.747 785.455C650.975 784.303 651.231 783.155 651.53 782.025C652.071 779.705 653.012 777.497 654.311 775.5C654.343 775.456 654.273 775.407 654.24 775.451C652.913 777.415 651.876 779.559 651.16 781.818C650.79 782.949 650.497 784.102 650.235 785.265C650.11 785.836 649.996 786.407 649.887 786.978C649.827 787.271 649.768 787.576 649.719 787.88C648.571 790.395 647.678 793.018 647.053 795.71C645.916 800.518 645.093 805.394 644.588 810.309C643.989 815.457 643.722 820.639 643.788 825.821C643.788 826.468 643.837 827.121 643.87 827.768C643.87 827.936 644.131 827.958 644.136 827.768C644.251 825.201 644.316 822.64 644.468 820.08C644.621 817.519 644.844 814.958 645.121 812.408C645.647 807.39 646.449 802.406 647.526 797.477C648.467 793.252 649.702 789 651.987 785.303C653.135 783.462 654.54 781.794 656.161 780.35C657.793 778.893 659.55 777.631 661.259 776.277C662.985 774.962 664.555 773.453 665.938 771.781C667.351 769.909 668.583 767.906 669.616 765.8C669.888 765.256 670.16 764.761 670.443 764.239C670.465 764.223 670.394 764.174 670.372 764.223Z" fill="#263238"/>
<path d="M668.375 765.914C667.619 767.471 666.759 768.975 665.802 770.416C665.802 770.449 665.829 770.481 665.856 770.449C666.847 769.021 667.717 767.514 668.457 765.941C668.479 765.892 668.397 765.865 668.375 765.914Z" fill="#263238"/>
<path d="M606.301 786.478C606.301 786.478 606.116 802.887 615.936 807.629C625.757 812.37 631.018 808.417 637.7 810.005C637.444 809.613 632.683 802.768 625.11 800.886C617.302 798.94 608.662 793.318 606.301 786.478Z" fill="#FFC727"/>
<path opacity="0.1" d="M606.301 786.478C606.301 786.478 606.116 802.887 615.936 807.629C625.757 812.37 631.018 808.417 637.7 810.005C634.177 808.326 630.411 807.214 626.541 806.71C620.327 805.959 608.493 801.93 606.301 786.478Z" fill="#263238"/>
<path d="M638.336 810.298C637.169 809.235 635.856 808.345 634.435 807.656C634.223 807.552 634.005 807.471 633.793 807.378C633.69 807.248 633.576 807.123 633.461 807.003C633.168 806.699 632.863 806.405 632.536 806.128C631.923 805.594 631.262 805.117 630.561 804.703C628.929 803.746 627.155 803.072 625.491 802.191C625.442 802.164 625.398 802.24 625.447 802.262C626.269 802.692 627.079 803.159 627.868 803.627C628.657 804.094 629.441 804.513 630.197 805.002C630.878 805.441 631.528 805.928 632.139 806.46C632.313 806.612 632.482 806.775 632.645 806.943C631.56 806.574 630.451 806.28 629.326 806.063C627.531 805.698 625.714 805.443 623.918 805.057C623.037 804.87 622.168 804.635 621.312 804.355C620.496 803.697 619.68 803.05 618.913 802.338C617.979 801.483 617.128 800.542 616.372 799.527C616.339 799.478 616.268 799.527 616.301 799.571C617.493 801.179 618.841 802.665 620.327 804.007C619.903 803.848 619.484 803.667 619.07 803.464C615.699 801.952 612.805 799.547 610.702 796.509C610.675 796.466 610.599 796.509 610.632 796.553C612.413 799.171 614.717 801.393 617.4 803.078C618.744 803.912 620.179 804.591 621.676 805.1C623.418 805.638 625.194 806.058 626.992 806.356C628.755 806.642 630.495 807.055 632.199 807.591C633.76 808.125 635.229 808.899 636.552 809.885C639.052 811.827 641.065 814.323 642.433 817.176C644.294 820.901 645.181 825.066 645.698 829.176C645.698 829.35 645.992 829.35 645.975 829.176C645.507 822.266 643.663 815.088 638.336 810.298Z" fill="#263238"/>
<path d="M626.943 804.948C626.431 804.181 625.738 803.552 624.925 803.115C623.992 802.632 623.174 801.956 622.525 801.131C622.493 801.087 622.416 801.131 622.449 801.174C623.039 801.927 623.757 802.569 624.571 803.072C625.464 803.544 626.251 804.194 626.883 804.98C626.911 805.018 626.97 804.986 626.943 804.948Z" fill="#263238"/>
<path d="M632.156 822.412L632.602 831.432L633.973 859.01H654.572L655.943 831.432L656.389 822.412H632.156Z" fill="#37474F"/>
<path d="M632.156 822.412L632.602 831.432H655.943L656.389 822.412H632.156Z" fill="#263238"/>
<path d="M630.708 827.251H657.831V818.644H630.708V827.251Z" fill="#37474F"/>
<path d="M669.926 400.976H669.707C593.871 398.615 518.032 396.246 442.19 393.869L438.01 393.74C436.091 393.679 434.275 392.859 432.959 391.461C431.644 390.062 430.937 388.198 430.993 386.279C432.486 334.258 432.583 281.559 431.282 229.665C431.193 226.017 431.097 222.37 430.993 218.722C430.94 216.801 431.65 214.937 432.966 213.537C434.282 212.138 436.099 211.315 438.02 211.25L669.707 204.003C670.625 203.975 671.54 204.131 672.396 204.462C673.253 204.794 674.034 205.294 674.694 205.934C676.24 207.423 677.133 209.463 677.18 211.609C677.302 215.561 677.402 219.526 677.502 223.484C678.917 279.992 678.809 337.152 677.18 393.379C677.132 395.52 676.239 397.556 674.695 399.042C673.412 400.274 671.705 400.967 669.926 400.976ZM669.926 204.775H669.734L438.047 212.018C436.331 212.076 434.709 212.811 433.533 214.062C432.357 215.312 431.723 216.977 431.77 218.693C431.871 222.341 431.968 225.989 432.059 229.636C433.36 281.55 433.264 334.256 431.77 386.293C431.719 388.007 432.35 389.671 433.525 390.92C434.7 392.17 436.322 392.902 438.036 392.956L442.214 393.087C518.05 395.461 593.889 397.83 669.731 400.195C671.378 400.23 672.971 399.611 674.163 398.475C675.557 397.131 676.362 395.291 676.405 393.356C678.033 337.144 678.142 279.998 676.726 223.504C676.624 219.546 676.517 215.588 676.405 211.632C676.363 209.692 675.557 207.847 674.162 206.499C673.023 205.402 671.506 204.785 669.924 204.775H669.926Z" fill="#2096FC"/>
<path d="M672.027 228.777C673.445 285.395 673.339 342.021 671.708 398.654C671.589 402.757 668.41 405.995 664.631 405.876L432.936 398.637C431.119 398.577 429.399 397.799 428.153 396.474C426.908 395.149 426.238 393.384 426.29 391.566C427.798 339.368 427.896 287.159 426.585 234.939L672.027 228.777Z" fill="#ABC0C9"/>
<path d="M671.709 216.909C671.823 220.86 671.93 224.817 672.03 228.778L426.579 234.938C426.487 231.29 426.389 227.642 426.284 223.995C426.23 222.174 426.9 220.407 428.147 219.081C429.394 217.754 431.116 216.976 432.936 216.918L664.627 209.682C668.416 209.562 671.59 212.796 671.709 216.909Z" fill="#CAD5FF"/>
<path d="M473.304 224.712C473.313 225.438 473.108 226.15 472.714 226.759C472.32 227.368 471.755 227.848 471.09 228.137C470.424 228.426 469.688 228.512 468.974 228.384C468.26 228.256 467.599 227.92 467.076 227.418C466.552 226.916 466.188 226.27 466.03 225.562C465.872 224.854 465.927 224.115 466.188 223.437C466.449 222.76 466.904 222.175 467.496 221.756C468.088 221.337 468.791 221.102 469.516 221.081C470.003 221.07 470.488 221.156 470.942 221.333C471.396 221.509 471.811 221.774 472.163 222.111C472.515 222.448 472.796 222.852 472.992 223.298C473.188 223.744 473.294 224.225 473.304 224.712Z" fill="#ABC0C9"/>
<path d="M458.437 225.131C458.45 225.858 458.248 226.572 457.857 227.183C457.465 227.795 456.901 228.277 456.236 228.569C455.571 228.861 454.834 228.95 454.119 228.824C453.403 228.698 452.741 228.363 452.215 227.862C451.69 227.36 451.325 226.714 451.165 226.006C451.006 225.297 451.06 224.557 451.32 223.879C451.581 223.2 452.036 222.615 452.629 222.195C453.221 221.775 453.925 221.539 454.651 221.519C455.137 221.507 455.621 221.591 456.074 221.766C456.527 221.942 456.941 222.205 457.293 222.54C457.645 222.876 457.927 223.277 458.123 223.722C458.319 224.167 458.426 224.646 458.437 225.131Z" fill="#ABC0C9"/>
<path d="M443.57 225.549C443.587 226.276 443.388 226.992 442.999 227.607C442.61 228.221 442.047 228.706 441.382 229.001C440.718 229.296 439.981 229.387 439.264 229.264C438.547 229.14 437.883 228.807 437.356 228.306C436.828 227.806 436.461 227.16 436.3 226.451C436.139 225.742 436.192 225.001 436.452 224.321C436.711 223.642 437.166 223.055 437.759 222.634C438.353 222.213 439.057 221.977 439.784 221.956C440.268 221.943 440.751 222.026 441.203 222.2C441.656 222.373 442.07 222.634 442.421 222.968C442.773 223.302 443.055 223.702 443.252 224.145C443.45 224.587 443.557 225.065 443.57 225.549Z" fill="#ABC0C9"/>
<path d="M480.413 255.07C481.141 295.893 481.023 336.718 480.061 377.545C480.053 378.081 479.939 378.609 479.727 379.101C479.515 379.592 479.208 380.037 478.823 380.41C478.439 380.782 477.985 381.076 477.487 381.273C476.989 381.47 476.457 381.567 475.922 381.558L447.281 380.842C446.207 380.811 445.189 380.356 444.45 379.575C443.711 378.794 443.313 377.752 443.342 376.678C444.293 336.366 444.41 296.049 443.691 255.725C443.669 254.65 444.073 253.611 444.816 252.834C445.559 252.058 446.579 251.608 447.654 251.583L476.302 251.033C476.837 251.028 477.368 251.128 477.865 251.328C478.361 251.528 478.813 251.824 479.195 252.199C479.577 252.574 479.881 253.02 480.09 253.513C480.299 254.006 480.409 254.535 480.413 255.07Z" fill="#ABC0C9"/>
<path d="M545.309 304.619C537.172 313.091 523.979 313.04 515.839 304.66C507.698 296.281 507.632 282.754 515.653 274.284C520.757 268.916 527.903 266.852 534.557 268.204C538.58 269.008 542.265 271.014 545.122 273.959C548.051 276.948 550.056 280.718 550.898 284.817C552.32 291.732 550.457 299.25 545.309 304.619Z" fill="#2096FC"/>
<path d="M550.897 284.811C544.103 286.343 537.308 287.863 530.513 289.371C531.886 282.322 533.233 275.262 534.555 268.193C538.579 268.996 542.264 271.003 545.121 273.947C548.051 276.938 550.056 280.71 550.897 284.811Z" fill="#ABC0C9"/>
<path d="M645.536 345.13C645.396 356.869 645.189 368.608 644.916 380.347L504.059 377.07C504.299 366.735 504.485 356.4 504.618 346.064C504.633 346.029 521.453 363.543 540.774 359.462C560.117 355.358 560.341 347.77 577.923 356.316C617.591 375.874 645.569 345.265 645.536 345.13Z" fill="#B4C2F7"/>
<path d="M654.113 251.082C654.259 259.196 654.375 267.311 654.46 275.428C654.48 277.315 653.074 278.856 651.325 278.872L627.02 279.097C625.27 279.113 623.837 277.613 623.819 275.745C623.735 267.708 623.62 259.672 623.475 251.637C623.442 249.77 624.83 248.229 626.579 248.196L650.881 247.728C652.63 247.694 654.08 249.199 654.113 251.082Z" fill="#ABC0C9"/>
<path d="M597.62 248.7L615.151 248.363L597.62 248.7Z" fill="#CAD5FF"/>
<path d="M578.091 249.076L592.733 248.794L578.091 249.076Z" fill="#CAD5FF"/>
<path d="M597.015 264.033L615.405 263.77L597.015 264.033Z" fill="#CAD5FF"/>
<path d="M578.345 264.297L590.352 264.127L578.345 264.297Z" fill="#CAD5FF"/>
<path d="M578.524 279.521L615.868 279.176L578.524 279.521Z" fill="#CAD5FF"/>
<path d="M644.363 293.795L651.949 293.76L644.363 293.795Z" fill="#CAD5FF"/>
<path d="M598.927 293.999L638.967 293.819L598.927 293.999Z" fill="#CAD5FF"/>
<path d="M578.625 294.09L593.268 294.023L578.625 294.09Z" fill="#CAD5FF"/>
<path d="M632.619 309.341L651.98 309.35L632.619 309.341Z" fill="#CAD5FF"/>
<path d="M601.011 309.324L628.094 309.337L601.011 309.324Z" fill="#CAD5FF"/>
<path d="M642.253 324.889L651.933 324.942L642.253 324.889Z" fill="#CAD5FF"/>
<path d="M615.813 324.738L636.27 324.85L615.813 324.738Z" fill="#CAD5FF"/>
<path d="M578.609 324.537L609.074 324.704L578.609 324.537Z" fill="#CAD5FF"/>
<path d="M450.134 259.694L473.468 259.311L450.134 259.694Z" fill="#CAD5FF"/>
<path d="M450.297 270.912L473.632 270.618L450.297 270.912Z" fill="#CAD5FF"/>
<path d="M450.417 282.13L473.752 281.927L450.417 282.13Z" fill="#CAD5FF"/>
<path d="M450.494 293.348L473.829 293.234L450.494 293.348Z" fill="#CAD5FF"/>
<path d="M450.528 304.568L473.865 304.542L450.528 304.568Z" fill="#CAD5FF"/>
<path d="M450.518 315.786L473.855 315.85L450.518 315.786Z" fill="#CAD5FF"/>
<path d="M450.473 327.006L473.81 327.158L450.473 327.006Z" fill="#CAD5FF"/>
<path d="M450.371 338.225L473.706 338.468L450.371 338.225Z" fill="#CAD5FF"/>
<path d="M450.233 349.443L473.567 349.774L450.233 349.443Z" fill="#CAD5FF"/>
<path d="M450.052 360.66L473.384 361.082L450.052 360.66Z" fill="#CAD5FF"/>
<path d="M449.827 371.878L473.158 372.388L449.827 371.878Z" fill="#CAD5FF"/>
<path d="M588.456 222.775L660.085 220.769C660.761 220.769 660.845 219.687 660.052 219.661L588.445 221.667C588.303 221.676 588.17 221.739 588.073 221.843C587.976 221.947 587.923 222.084 587.924 222.226C587.926 222.369 587.982 222.505 588.081 222.607C588.179 222.709 588.314 222.769 588.456 222.775Z" fill="#031951"/>
<path d="M476.295 250.483L447.648 251.022C446.426 251.053 445.266 251.566 444.421 252.448C443.576 253.331 443.114 254.512 443.136 255.734C443.856 295.868 443.734 336.547 442.791 376.66C442.757 377.881 443.21 379.067 444.05 379.955C444.891 380.842 446.049 381.36 447.271 381.394L475.906 382.114H476.029C477.199 382.113 478.322 381.66 479.166 380.85C479.613 380.424 479.972 379.914 480.221 379.349C480.47 378.784 480.606 378.175 480.619 377.558C481.172 354.43 481.438 331.115 481.438 307.821C481.438 290.19 481.283 272.602 480.973 255.058C480.968 254.45 480.843 253.849 480.604 253.289C480.366 252.73 480.02 252.223 479.585 251.798C479.15 251.373 478.636 251.038 478.071 250.812C477.507 250.586 476.903 250.474 476.295 250.483ZM479.509 377.527C479.5 377.999 479.398 378.465 479.207 378.897C479.017 379.329 478.743 379.719 478.401 380.044C478.075 380.359 477.689 380.607 477.267 380.772C476.844 380.938 476.393 381.018 475.939 381.008L447.292 380.288C446.366 380.26 445.489 379.867 444.853 379.194C444.217 378.52 443.874 377.622 443.9 376.696C444.842 336.56 444.964 295.861 444.244 255.713C444.225 254.784 444.575 253.886 445.217 253.214C445.859 252.543 446.741 252.153 447.669 252.13L476.383 251.588C477.306 251.598 478.188 251.97 478.839 252.624C479.49 253.277 479.859 254.161 479.865 255.084C480.585 295.707 480.475 336.905 479.509 377.527Z" fill="#031951"/>
<path d="M495.863 320.482C495.85 322.761 497.67 324.64 499.919 324.651L561.168 324.994C563.331 324.994 565.224 323.152 565.224 320.77C565.331 299.966 565.191 276.086 564.759 253.018C564.714 250.586 562.771 248.804 560.613 248.849C470.365 250.59 589.16 248.302 499.416 250.024C497.165 250.07 495.381 251.976 495.413 254.271C495.806 276.238 495.961 298.51 495.863 320.482ZM499.433 251.134C551.601 250.131 560.529 249.96 560.681 249.959C562.267 249.959 563.619 251.298 563.642 253.04C564.028 274.8 564.223 296.619 564.107 320.77C564.107 322.562 562.7 323.886 561.136 323.886L499.928 323.543C499.13 323.528 498.371 323.197 497.816 322.623C497.261 322.05 496.956 321.28 496.968 320.482C497.068 298.507 496.913 276.222 496.512 254.249C496.495 252.567 497.791 251.175 499.433 251.137V251.134Z" fill="#031951"/>
<path d="M651.858 335.574C490.119 334.17 495.773 333.796 495.773 334.721C495.628 350.42 495.362 366.335 494.964 382.028C494.963 382.175 495.018 382.318 495.119 382.425C495.221 382.533 495.359 382.598 495.507 382.605C663.176 386.79 650.34 386.486 651.006 386.486C651.149 386.486 651.287 386.431 651.39 386.332C651.494 386.232 651.555 386.097 651.56 385.954C651.969 369.356 652.258 352.592 652.402 336.139C652.404 336.066 652.392 335.994 652.365 335.925C652.339 335.857 652.299 335.795 652.249 335.743C652.198 335.69 652.138 335.648 652.071 335.619C652.003 335.59 651.931 335.575 651.858 335.574ZM650.462 385.365L496.095 381.508C496.472 366.174 496.738 350.619 496.87 335.285L651.293 336.683C651.15 352.77 650.861 369.145 650.462 385.365Z" fill="#031951"/>
<path d="M545.707 305.007C557.908 292.277 551.069 270.884 534.665 267.656C527.592 266.226 520.33 268.554 515.253 273.898C507.07 282.534 507.147 296.516 515.441 305.056C523.838 313.68 537.357 313.68 545.707 305.007ZM550.186 284.176C550.208 284.253 550.219 284.328 550.242 284.396L531.217 288.652C532.481 282.177 533.744 275.524 534.998 268.861C542.503 270.743 548.064 276.052 550.186 284.176ZM516.05 274.663C520.833 269.647 527.543 267.519 533.911 268.642C529.846 290.463 529.739 289.383 530.13 289.769C530.196 289.831 530.275 289.877 530.362 289.902C530.448 289.927 530.54 289.931 530.629 289.913C537.237 288.449 543.844 286.967 550.452 285.467C552.8 298.426 543.308 310.35 530.641 310.403C530.528 310.378 522.738 310.973 516.239 304.272C508.357 296.163 508.28 282.878 516.05 274.663Z" fill="#031951"/>
<path d="M504.044 377.629C662.561 381.309 643.355 380.898 644.919 380.898C645.063 380.896 645.202 380.839 645.305 380.738C645.408 380.637 645.469 380.5 645.474 380.356C645.74 368.581 645.949 356.729 646.094 345.132H646.074C646.191 344.661 645.395 344.317 645.076 344.828C644.422 345.588 617.082 374.996 578.17 355.805C560.3 347.123 559.932 354.837 540.664 358.908C523.368 362.556 508.014 348.587 505.109 345.749C504.554 345.236 504.068 345.631 504.068 346.053C503.934 356.274 503.746 366.707 503.503 377.059C503.503 377.205 503.559 377.346 503.66 377.452C503.76 377.558 503.898 377.621 504.044 377.629ZM505.152 347.339C509.559 351.408 524.309 363.492 540.895 360C560.263 355.896 560.288 348.366 577.674 356.808C608.25 371.897 632.075 357.164 640.899 350.12C640.932 350.098 643.449 348.069 644.957 346.54C644.825 357.493 644.624 368.668 644.37 379.778L504.626 376.529C504.852 366.783 505.035 356.972 505.152 347.338V347.339Z" fill="#031951"/>
<path d="M650.872 247.178L626.572 247.644C624.52 247.677 622.88 249.467 622.924 251.645C623.067 259.64 623.178 267.756 623.268 275.749C623.289 277.911 624.953 279.651 626.993 279.651L651.327 279.431C653.464 279.405 655.041 277.523 655.019 275.427C654.93 267.39 654.819 259.196 654.664 251.069C654.643 248.987 653.006 247.128 650.872 247.178ZM651.316 278.321L626.999 278.543C625.569 278.543 624.394 277.291 624.382 275.737C624.294 267.744 624.183 259.626 624.038 251.624C624.005 250.072 625.159 248.774 626.599 248.753L650.938 248.286C652.447 248.286 653.534 249.618 653.555 251.092C653.707 259.207 653.821 267.401 653.909 275.438C653.911 276.95 652.842 278.295 651.316 278.321Z" fill="#031951"/>
<path d="M597.636 249.252L615.162 248.919C615.235 248.918 615.308 248.903 615.375 248.874C615.442 248.845 615.503 248.803 615.553 248.751C615.604 248.698 615.644 248.636 615.67 248.567C615.696 248.499 615.709 248.427 615.706 248.353C615.698 248.208 615.635 248.072 615.53 247.971C615.425 247.87 615.286 247.812 615.141 247.809L597.613 248.142C596.883 248.168 596.889 249.252 597.636 249.252Z" fill="#031951"/>
<path d="M578.089 249.629L592.747 249.35C592.892 249.343 593.029 249.281 593.13 249.176C593.231 249.071 593.288 248.931 593.289 248.785C593.274 248.642 593.209 248.51 593.105 248.41C593.002 248.311 592.867 248.252 592.724 248.242L578.079 248.519C578.006 248.52 577.934 248.535 577.867 248.563C577.8 248.592 577.739 248.633 577.688 248.685C577.637 248.737 577.597 248.799 577.57 248.866C577.542 248.934 577.529 249.006 577.529 249.079C577.53 249.152 577.545 249.224 577.574 249.291C577.602 249.358 577.644 249.419 577.696 249.47C577.748 249.521 577.809 249.561 577.877 249.588C577.944 249.616 578.016 249.629 578.089 249.629Z" fill="#031951"/>
<path d="M597.014 264.584H597.026L615.416 264.329C615.563 264.325 615.703 264.264 615.805 264.158C615.907 264.052 615.963 263.91 615.96 263.763C615.961 263.691 615.947 263.619 615.919 263.552C615.891 263.485 615.85 263.425 615.798 263.374C615.746 263.324 615.685 263.284 615.617 263.258C615.55 263.231 615.478 263.219 615.406 263.221L597.002 263.476C596.856 263.481 596.717 263.543 596.616 263.649C596.515 263.754 596.459 263.895 596.459 264.041C596.462 264.187 596.521 264.325 596.625 264.427C596.729 264.528 596.869 264.585 597.014 264.584Z" fill="#031951"/>
<path d="M590.364 264.685C590.437 264.684 590.509 264.669 590.576 264.64C590.643 264.612 590.703 264.57 590.754 264.518C590.805 264.466 590.845 264.405 590.873 264.337C590.9 264.269 590.913 264.197 590.912 264.124C590.912 264.051 590.896 263.979 590.868 263.912C590.839 263.845 590.798 263.785 590.746 263.734C590.694 263.683 590.632 263.643 590.564 263.615C590.497 263.588 590.424 263.575 590.352 263.575L578.334 263.743C578.188 263.748 578.049 263.81 577.948 263.915C577.846 264.021 577.79 264.162 577.79 264.308C577.793 264.453 577.853 264.591 577.957 264.693C578.06 264.794 578.2 264.851 578.345 264.851L590.364 264.685Z" fill="#031951"/>
<path d="M578.522 278.964C577.805 278.964 577.762 280.074 578.533 280.074L615.872 279.73C615.944 279.731 616.016 279.717 616.083 279.689C616.15 279.661 616.211 279.62 616.262 279.569C616.312 279.517 616.352 279.455 616.379 279.388C616.405 279.32 616.418 279.248 616.416 279.176C616.416 279.103 616.402 279.03 616.375 278.963C616.347 278.895 616.306 278.834 616.255 278.782C616.203 278.73 616.141 278.69 616.074 278.662C616.006 278.634 615.934 278.62 615.861 278.621L578.522 278.964Z" fill="#031951"/>
<path d="M651.948 294.32C652.096 294.317 652.237 294.256 652.34 294.15C652.444 294.044 652.502 293.902 652.502 293.754C652.501 293.682 652.487 293.611 652.459 293.545C652.43 293.478 652.39 293.418 652.338 293.368C652.287 293.317 652.226 293.278 652.159 293.251C652.092 293.224 652.02 293.211 651.948 293.212L644.365 293.245C644.292 293.244 644.219 293.258 644.152 293.286C644.084 293.313 644.023 293.354 643.972 293.405C643.92 293.457 643.879 293.518 643.852 293.586C643.824 293.653 643.81 293.726 643.811 293.798C643.812 293.945 643.87 294.086 643.974 294.19C644.077 294.294 644.218 294.352 644.365 294.353L651.948 294.32Z" fill="#031951"/>
<path d="M639.52 293.821C639.521 293.748 639.507 293.676 639.479 293.608C639.451 293.541 639.411 293.479 639.359 293.428C639.307 293.376 639.246 293.335 639.178 293.307C639.111 293.28 639.038 293.266 638.965 293.266L598.921 293.444C598.846 293.44 598.771 293.452 598.7 293.478C598.63 293.504 598.565 293.544 598.51 293.596C598.456 293.648 598.412 293.71 598.382 293.779C598.353 293.848 598.337 293.923 598.337 293.998C598.337 294.074 598.353 294.148 598.382 294.217C598.412 294.286 598.456 294.349 598.51 294.401C598.565 294.452 598.63 294.493 598.7 294.519C598.771 294.545 598.846 294.556 598.921 294.552H598.932L638.965 294.376C639.112 294.375 639.253 294.317 639.357 294.213C639.461 294.109 639.52 293.968 639.52 293.821Z" fill="#031951"/>
<path d="M593.821 294.02C593.821 293.874 593.762 293.733 593.659 293.63C593.555 293.526 593.414 293.467 593.268 293.467L578.623 293.532C578.476 293.532 578.335 293.591 578.231 293.695C578.127 293.799 578.068 293.94 578.068 294.087C578.068 294.234 578.127 294.375 578.231 294.479C578.335 294.583 578.476 294.642 578.623 294.642L593.268 294.575C593.341 294.576 593.413 294.562 593.481 294.534C593.548 294.506 593.609 294.465 593.661 294.414C593.712 294.362 593.753 294.301 593.781 294.233C593.808 294.166 593.822 294.093 593.821 294.02Z" fill="#031951"/>
<path d="M651.981 308.799L632.623 308.789C631.886 308.789 631.894 309.897 632.623 309.897L651.981 309.907C652.128 309.907 652.269 309.848 652.373 309.745C652.477 309.641 652.535 309.501 652.536 309.354C652.537 309.281 652.523 309.208 652.496 309.141C652.468 309.073 652.427 309.012 652.376 308.96C652.324 308.908 652.262 308.867 652.195 308.84C652.127 308.812 652.055 308.798 651.981 308.799Z" fill="#031951"/>
<path d="M628.101 308.789L601.017 308.766C600.87 308.767 600.73 308.825 600.626 308.929C600.522 309.033 600.463 309.174 600.463 309.321C600.462 309.394 600.476 309.466 600.503 309.534C600.531 309.601 600.572 309.663 600.623 309.714C600.675 309.766 600.737 309.807 600.804 309.834C600.872 309.862 600.944 309.875 601.017 309.874L628.101 309.897C628.247 309.895 628.387 309.835 628.49 309.732C628.594 309.628 628.653 309.489 628.655 309.342C628.655 309.195 628.596 309.055 628.492 308.951C628.388 308.848 628.247 308.789 628.101 308.789Z" fill="#031951"/>
<path d="M578.654 308.755C578.508 308.756 578.367 308.814 578.264 308.918C578.16 309.022 578.102 309.162 578.101 309.309C578.1 309.382 578.114 309.454 578.141 309.522C578.169 309.589 578.209 309.651 578.261 309.703C578.312 309.754 578.374 309.795 578.441 309.823C578.509 309.85 578.581 309.864 578.654 309.863L590.661 309.874C590.803 309.867 590.936 309.805 591.034 309.702C591.132 309.599 591.187 309.462 591.187 309.32C591.187 309.178 591.132 309.041 591.034 308.938C590.936 308.835 590.803 308.773 590.661 308.766L578.654 308.755Z" fill="#031951"/>
<path d="M651.937 324.387L642.258 324.332C641.527 324.332 641.521 325.44 642.247 325.44L651.937 325.495C652.084 325.493 652.223 325.434 652.326 325.331C652.43 325.227 652.489 325.088 652.491 324.942C652.492 324.869 652.478 324.796 652.451 324.729C652.423 324.661 652.383 324.599 652.331 324.548C652.279 324.496 652.218 324.455 652.15 324.428C652.083 324.4 652.01 324.386 651.937 324.387Z" fill="#031951"/>
<path d="M615.807 325.296L636.271 325.407C636.346 325.411 636.421 325.399 636.492 325.373C636.563 325.347 636.627 325.307 636.682 325.255C636.736 325.204 636.78 325.141 636.81 325.072C636.839 325.003 636.855 324.928 636.855 324.853C636.855 324.778 636.839 324.703 636.81 324.634C636.78 324.565 636.736 324.502 636.682 324.451C636.627 324.399 636.563 324.359 636.492 324.332C636.421 324.306 636.346 324.295 636.271 324.299L615.817 324.188C615.085 324.188 615.079 325.296 615.807 325.296Z" fill="#031951"/>
<path d="M578.593 325.087L609.07 325.263C609.217 325.261 609.356 325.202 609.459 325.099C609.563 324.996 609.622 324.856 609.624 324.71C609.625 324.637 609.611 324.564 609.584 324.497C609.556 324.429 609.516 324.368 609.464 324.316C609.412 324.264 609.351 324.223 609.283 324.196C609.216 324.168 609.143 324.154 609.07 324.155L578.61 323.977C578.463 323.978 578.322 324.036 578.218 324.14C578.114 324.244 578.056 324.385 578.055 324.532C578.053 324.677 578.109 324.817 578.21 324.921C578.311 325.025 578.449 325.084 578.593 325.087Z" fill="#031951"/>
<path d="M450.134 260.248C450.249 260.248 473.349 259.868 473.477 259.865C473.624 259.864 473.764 259.804 473.868 259.699C473.971 259.595 474.028 259.453 474.027 259.306C474.026 259.159 473.966 259.018 473.861 258.915C473.756 258.812 473.615 258.754 473.468 258.756C473.354 258.756 450.252 259.136 450.126 259.139C449.979 259.14 449.838 259.199 449.735 259.304C449.632 259.409 449.574 259.55 449.575 259.697C449.576 259.844 449.636 259.985 449.74 260.088C449.845 260.192 449.987 260.249 450.134 260.248Z" fill="#031951"/>
<path d="M450.291 270.357C450.143 270.357 450.002 270.415 449.898 270.519C449.794 270.623 449.736 270.764 449.736 270.911C449.736 271.058 449.794 271.2 449.898 271.304C450.002 271.408 450.143 271.466 450.291 271.466L473.626 271.171C474.348 271.162 474.363 270.069 473.612 270.063L450.291 270.357Z" fill="#031951"/>
<path d="M473.752 281.372L450.412 281.572C450.265 281.572 450.124 281.631 450.02 281.735C449.916 281.839 449.858 281.98 449.858 282.127C449.858 282.274 449.916 282.415 450.02 282.519C450.124 282.623 450.265 282.682 450.412 282.682L473.757 282.484C473.899 282.477 474.032 282.415 474.13 282.312C474.228 282.209 474.283 282.072 474.283 281.93C474.283 281.788 474.228 281.651 474.13 281.548C474.032 281.445 473.899 281.384 473.757 281.376L473.752 281.372Z" fill="#031951"/>
<path d="M473.826 292.68L450.491 292.795C450.349 292.803 450.215 292.864 450.117 292.967C450.02 293.07 449.965 293.207 449.965 293.349C449.965 293.491 450.02 293.628 450.117 293.731C450.215 293.834 450.349 293.896 450.491 293.903L473.826 293.788C473.973 293.787 474.113 293.727 474.217 293.623C474.32 293.519 474.378 293.378 474.378 293.232C474.381 293.158 474.369 293.085 474.343 293.016C474.316 292.948 474.276 292.886 474.224 292.834C474.172 292.782 474.11 292.741 474.041 292.715C473.973 292.688 473.899 292.676 473.826 292.68Z" fill="#031951"/>
<path d="M473.865 303.988L450.528 304.014C450.381 304.014 450.24 304.072 450.136 304.176C450.032 304.28 449.973 304.421 449.973 304.568C449.973 304.716 450.032 304.857 450.136 304.961C450.24 305.065 450.381 305.123 450.528 305.123L473.865 305.097C474.012 305.097 474.153 305.039 474.257 304.935C474.361 304.831 474.419 304.69 474.419 304.543C474.419 304.395 474.361 304.254 474.257 304.15C474.153 304.046 474.012 303.988 473.865 303.988Z" fill="#031951"/>
<path d="M473.856 315.296L450.517 315.232C450.37 315.232 450.229 315.29 450.125 315.394C450.021 315.498 449.963 315.639 449.963 315.786C449.963 315.934 450.021 316.075 450.125 316.179C450.229 316.283 450.37 316.341 450.517 316.341L473.854 316.405C474.001 316.405 474.142 316.347 474.246 316.243C474.351 316.139 474.409 315.997 474.409 315.85C474.409 315.703 474.351 315.562 474.246 315.458C474.142 315.354 474.001 315.296 473.854 315.296H473.856Z" fill="#031951"/>
<path d="M473.806 326.605L450.466 326.453C450.324 326.461 450.19 326.522 450.093 326.625C449.995 326.728 449.94 326.865 449.94 327.007C449.94 327.149 449.995 327.286 450.093 327.389C450.19 327.492 450.324 327.554 450.466 327.561L473.803 327.713C473.945 327.706 474.078 327.644 474.176 327.541C474.274 327.438 474.328 327.301 474.328 327.159C474.328 327.017 474.274 326.88 474.176 326.777C474.078 326.674 473.945 326.613 473.803 326.605H473.806Z" fill="#031951"/>
<path d="M473.711 337.913L450.371 337.67C450.229 337.678 450.095 337.739 449.997 337.842C449.899 337.945 449.845 338.082 449.845 338.224C449.845 338.366 449.899 338.503 449.997 338.606C450.095 338.709 450.229 338.771 450.371 338.778L473.706 339.021C473.848 339.014 473.982 338.952 474.079 338.849C474.177 338.746 474.232 338.609 474.232 338.467C474.232 338.325 474.177 338.189 474.079 338.085C473.982 337.982 473.848 337.921 473.706 337.913H473.711Z" fill="#031951"/>
<path d="M473.575 349.221L450.233 348.888C450.091 348.895 449.957 348.955 449.858 349.058C449.76 349.16 449.704 349.296 449.703 349.439C449.702 349.581 449.756 349.718 449.853 349.822C449.95 349.925 450.084 349.988 450.226 349.996L473.559 350.329C473.701 350.323 473.835 350.262 473.934 350.16C474.033 350.057 474.088 349.921 474.089 349.779C474.09 349.637 474.036 349.499 473.939 349.396C473.842 349.292 473.709 349.229 473.567 349.221H473.575Z" fill="#031951"/>
<path d="M473.395 360.527L450.061 360.106C449.986 360.101 449.911 360.111 449.84 360.136C449.769 360.161 449.704 360.2 449.649 360.251C449.594 360.302 449.549 360.364 449.518 360.432C449.487 360.501 449.471 360.575 449.47 360.65C449.468 360.725 449.482 360.8 449.511 360.869C449.539 360.939 449.581 361.002 449.635 361.055C449.688 361.107 449.752 361.149 449.822 361.176C449.892 361.204 449.967 361.217 450.042 361.214L473.375 361.637H473.385C473.532 361.638 473.673 361.581 473.778 361.478C473.883 361.375 473.943 361.234 473.945 361.087C473.946 360.94 473.889 360.799 473.786 360.693C473.683 360.588 473.542 360.529 473.395 360.527Z" fill="#031951"/>
<path d="M473.17 371.834L449.84 371.323C449.765 371.318 449.69 371.328 449.619 371.353C449.548 371.378 449.483 371.416 449.427 371.467C449.372 371.518 449.327 371.579 449.296 371.647C449.265 371.716 449.248 371.79 449.246 371.865C449.245 371.94 449.258 372.014 449.286 372.084C449.314 372.154 449.356 372.217 449.41 372.27C449.463 372.323 449.526 372.364 449.596 372.392C449.666 372.42 449.74 372.433 449.815 372.431L473.146 372.944H473.158C473.231 372.944 473.303 372.931 473.371 372.904C473.439 372.877 473.5 372.836 473.552 372.785C473.604 372.734 473.646 372.674 473.674 372.607C473.703 372.54 473.718 372.468 473.719 372.395C473.72 372.322 473.706 372.25 473.679 372.182C473.652 372.115 473.612 372.053 473.561 372.001C473.51 371.949 473.449 371.907 473.382 371.879C473.315 371.85 473.243 371.835 473.17 371.834Z" fill="#031951"/>
<path d="M546.541 397.931C546.4 398.065 546.267 398.208 546.144 398.358C544.497 397.299 542.701 396.493 540.816 395.967C540.916 395.319 540.882 394.658 540.716 394.023C540.55 393.389 540.257 392.795 539.853 392.279C539.449 391.763 538.944 391.335 538.368 391.021C537.793 390.708 537.159 390.516 536.506 390.457C535.854 390.398 535.196 390.473 534.574 390.679C533.951 390.884 533.378 391.215 532.888 391.65C532.398 392.086 532.003 392.617 531.727 393.212C531.45 393.806 531.298 394.451 531.281 395.106C531.276 395.301 531.283 395.495 531.302 395.689C529.389 396.104 527.548 396.804 525.842 397.764C525.727 397.607 525.603 397.456 525.471 397.314C525.024 396.83 524.482 396.444 523.88 396.179C523.277 395.914 522.626 395.776 521.968 395.773C521.31 395.771 520.658 395.904 520.054 396.164C519.449 396.424 518.904 396.806 518.453 397.286C518.002 397.766 517.655 398.333 517.433 398.953C517.211 399.573 517.118 400.232 517.162 400.889C517.205 401.546 517.383 402.188 517.684 402.773C517.986 403.358 518.405 403.875 518.915 404.292C517.855 405.937 517.048 407.732 516.521 409.617C515.874 409.517 515.214 409.551 514.581 409.717C513.948 409.882 513.355 410.176 512.84 410.579C512.324 410.983 511.897 411.487 511.584 412.062C511.271 412.637 511.079 413.27 511.02 413.922C510.96 414.574 511.035 415.232 511.24 415.854C511.444 416.476 511.774 417.049 512.208 417.539C512.643 418.028 513.173 418.424 513.765 418.701C514.358 418.978 515.002 419.13 515.656 419.149C515.851 419.154 516.045 419.147 516.239 419.128C516.654 421.04 517.353 422.879 518.314 424.583C518.156 424.698 518.006 424.822 517.863 424.955C517.384 425.404 517.002 425.946 516.741 426.549C516.48 427.151 516.346 427.801 516.345 428.457C516.345 429.114 516.48 429.764 516.741 430.366C517.002 430.968 517.384 431.511 517.863 431.96C518.342 432.409 518.908 432.754 519.526 432.975C520.144 433.197 520.8 433.288 521.455 433.245C522.11 433.202 522.749 433.025 523.333 432.725C523.917 432.425 524.433 432.008 524.849 431.5C526.494 432.559 528.287 433.365 530.171 433.892C530.14 434.084 530.122 434.278 530.115 434.472C530.093 435.129 530.205 435.783 530.446 436.395C530.687 437.006 531.05 437.562 531.514 438.027C531.978 438.492 532.532 438.857 533.142 439.099C533.753 439.342 534.407 439.456 535.063 439.435C535.719 439.414 536.364 439.259 536.958 438.979C537.552 438.698 538.083 438.299 538.516 437.805C538.95 437.312 539.277 436.734 539.479 436.109C539.68 435.484 539.751 434.824 539.687 434.17C541.6 433.755 543.441 433.055 545.147 432.095C545.262 432.25 545.386 432.398 545.518 432.539C545.95 432.998 546.468 433.367 547.043 433.626C547.617 433.884 548.237 434.027 548.867 434.046C549.496 434.065 550.124 433.96 550.713 433.736C551.302 433.512 551.841 433.175 552.299 432.743C552.758 432.311 553.127 431.793 553.386 431.218C553.644 430.643 553.787 430.023 553.806 429.393C553.825 428.763 553.72 428.135 553.496 427.546C553.273 426.956 552.935 426.417 552.503 425.958C552.369 425.817 552.226 425.684 552.075 425.561C553.135 423.916 553.942 422.121 554.469 420.236C555.117 420.337 555.778 420.304 556.412 420.139C557.046 419.974 557.64 419.681 558.157 419.277C558.673 418.874 559.101 418.369 559.415 417.793C559.729 417.217 559.921 416.584 559.98 415.931C560.04 415.278 559.964 414.62 559.759 413.997C559.554 413.374 559.224 412.8 558.789 412.31C558.353 411.82 557.822 411.425 557.228 411.148C556.634 410.872 555.989 410.72 555.334 410.703C555.139 410.699 554.945 410.706 554.751 410.725C554.336 408.812 553.637 406.973 552.676 405.268C553.203 404.88 553.644 404.388 553.973 403.823C554.302 403.258 554.513 402.631 554.591 401.981C554.669 401.332 554.613 400.673 554.428 400.046C554.242 399.419 553.93 398.836 553.511 398.334C553.092 397.832 552.574 397.421 551.991 397.126C551.407 396.832 550.769 396.66 550.116 396.621C549.464 396.582 548.81 396.677 548.195 396.901C547.581 397.124 547.018 397.471 546.543 397.92L546.541 397.931ZM541.605 421.412C540.324 422.621 538.713 423.423 536.976 423.716C535.239 424.008 533.455 423.779 531.848 423.057C530.241 422.335 528.884 421.153 527.949 419.659C527.015 418.165 526.543 416.428 526.595 414.666C526.648 412.905 527.221 411.198 528.242 409.763C529.264 408.327 530.688 407.227 532.335 406.601C533.981 405.975 535.776 405.852 537.493 406.248C539.21 406.643 540.77 407.539 541.978 408.821C543.593 410.543 544.46 412.834 544.39 415.194C544.32 417.553 543.319 419.789 541.605 421.412Z" fill="#1D2305"/>
<path d="M205.954 811.105C198.638 817.519 190.188 819.849 187.076 816.299C183.965 812.749 187.369 804.666 194.685 798.251C202 791.835 210.445 789.507 213.557 793.057C216.668 796.607 213.264 804.687 205.954 811.105Z" fill="#2096FC"/>
<path d="M174.731 763.73C177.889 773.883 176.387 783.351 171.38 784.878C166.373 786.404 159.742 779.415 156.591 769.263C153.439 759.11 154.935 749.647 159.953 748.121C164.971 746.594 171.579 753.588 174.731 763.73Z" fill="#CAD5FF"/>
<path d="M202.64 834.903L196.637 875.36C196.56 875.843 196.378 876.303 196.104 876.707C195.804 877.159 195.397 877.53 194.918 877.785C194.44 878.041 193.906 878.174 193.363 878.172H158.369C157.579 878.172 156.815 877.888 156.216 877.372C155.618 876.856 155.224 876.142 155.108 875.36L149.104 834.903C149.033 834.434 149.065 833.955 149.197 833.498C149.328 833.042 149.557 832.62 149.867 832.26C150.177 831.901 150.561 831.612 150.992 831.414C151.424 831.216 151.893 831.114 152.368 831.114H199.378C199.853 831.114 200.321 831.217 200.753 831.415C201.184 831.613 201.568 831.901 201.877 832.261C202.187 832.621 202.415 833.043 202.547 833.499C202.679 833.955 202.71 834.434 202.64 834.903Z" fill="white"/>
<path d="M196.103 876.707C195.803 877.159 195.396 877.53 194.917 877.785C194.439 878.041 193.905 878.174 193.363 878.172H158.369C157.579 878.172 156.815 877.888 156.216 877.372C155.618 876.856 155.224 876.142 155.108 875.36L149.104 834.903C149.033 834.434 149.065 833.955 149.197 833.498C149.328 833.042 149.557 832.62 149.867 832.26C150.177 831.901 150.561 831.612 150.992 831.414C151.424 831.216 151.893 831.114 152.368 831.114H161.347C161.681 832.444 161.935 833.737 162.17 834.903C162.784 838.057 163.048 841.268 162.956 844.479C162.803 849.652 161.736 854.996 163.418 859.906C165.19 865.117 169.856 868.903 174.892 871.11C179.943 873.316 185.444 874.184 190.824 875.369C192.585 875.749 194.366 876.174 196.103 876.707Z" fill="#CAD5FF"/>
<path d="M205.621 791.634C202.013 792.623 198.059 794.898 194.492 798.027C187.867 803.834 184.429 811.05 186.054 815.15C181.902 818.501 178.154 822.159 174.862 826.91C174.991 825.853 174.508 802.795 183.511 775.678C183.952 775.807 184.409 775.872 184.868 775.871C189.219 775.871 194.821 770.426 198.201 762.507C202.079 753.425 201.593 744.477 197.114 742.565C190.143 739.589 179.328 754.625 179.328 767.176C179.328 771.265 180.556 774.399 182.96 775.475C180.394 783.218 177.508 793.959 175.784 806.928C175.209 798.892 174.123 791.482 172.527 784.698C173.532 784.119 174.381 783.189 175.052 781.915C177.246 777.774 177.228 770.77 175.012 763.644C171.813 753.363 165.023 746.28 159.866 747.842C158.386 748.292 157.175 749.385 156.275 751.087C154.081 755.216 154.099 762.217 156.309 769.352C159.204 778.674 165.064 785.377 169.982 785.377C170.672 785.379 171.356 785.241 171.991 784.971C175.024 797.969 175.287 809.45 175.403 810.017C175.04 813.149 174.749 816.411 174.55 819.777C172.279 815.749 169.616 811.955 166.6 808.451C166.673 808.295 167.439 807.471 167.362 805.542C167.115 799.471 159.239 791.301 152.37 789.219C149.539 788.366 147.276 788.652 146.007 790.026C143.452 792.81 145.927 799.278 151.528 804.449C154.465 807.155 159.277 810.283 163.207 810.061C164.476 810.014 165.482 809.622 166.213 808.903C169.246 812.432 171.918 816.255 174.189 820.315C174.214 820.361 174.251 820.398 174.296 820.425C174.341 820.451 174.392 820.465 174.444 820.465C174.468 820.462 174.491 820.456 174.514 820.447C174.471 821.489 174.219 825.665 174.25 830.819H152.368C151.851 830.819 151.34 830.931 150.87 831.147C150.399 831.362 149.981 831.677 149.644 832.069C149.306 832.461 149.057 832.921 148.914 833.418C148.77 833.915 148.736 834.437 148.812 834.948L154.818 875.401C154.949 876.252 155.379 877.028 156.03 877.59C156.682 878.152 157.513 878.463 158.374 878.466H193.369C194.23 878.462 195.06 878.151 195.712 877.589C196.363 877.027 196.793 876.252 196.925 875.401L202.931 834.948C203.006 834.437 202.97 833.916 202.826 833.42C202.681 832.924 202.432 832.464 202.095 832.073C201.758 831.681 201.341 831.367 200.872 831.15C200.403 830.934 199.892 830.821 199.376 830.819H174.83C174.823 829.627 174.83 828.836 174.842 827.962C178.18 822.958 182.025 819.166 186.307 815.7C186.394 815.771 187.372 818.251 191.442 818.251C199.307 818.251 210.4 809.501 213.94 801.115C217.037 793.753 213.136 789.552 205.621 791.634ZM182.48 755.785C186.228 747 192.691 741.31 196.878 743.099C201.066 744.889 201.416 753.492 197.662 762.276C194.036 770.768 187.881 776.377 183.691 775.119C186.457 766.903 188.808 762.241 188.866 762.124C188.902 762.055 188.909 761.975 188.885 761.901C188.862 761.827 188.81 761.765 188.741 761.729C188.672 761.694 188.591 761.687 188.517 761.71C188.443 761.734 188.381 761.786 188.346 761.855C188.287 761.972 185.925 766.657 183.147 774.909C179.079 773.013 178.767 764.492 182.48 755.785ZM171.292 784.6C166.444 786.079 159.971 779.16 156.872 769.174C154.731 762.29 154.702 755.296 156.792 751.354C157.78 749.488 159.309 748.202 161.388 748.202C163.713 748.202 166.271 749.839 168.603 752.606C176.666 762.164 178.625 780.186 172.39 784.091C170.912 777.946 169.018 772.343 166.711 767.323C166.698 767.285 166.676 767.25 166.649 767.221C166.621 767.191 166.587 767.168 166.55 767.152C166.513 767.137 166.473 767.129 166.432 767.129C166.392 767.13 166.352 767.139 166.315 767.155C166.279 767.172 166.246 767.196 166.219 767.226C166.192 767.256 166.171 767.291 166.158 767.33C166.146 767.368 166.141 767.409 166.145 767.449C166.148 767.489 166.16 767.528 166.18 767.563C168.49 772.592 170.382 778.211 171.857 784.378C171.673 784.464 171.485 784.537 171.292 784.599V784.6ZM163.181 809.478C160.088 809.607 155.661 807.46 151.924 804.016C146.552 799.068 144.098 792.968 146.438 790.424C147.801 788.94 150.275 789.195 152.198 789.782C160.937 792.415 169.059 803.653 166.21 807.988V807.993C163.626 805.05 160.821 802.308 157.82 799.791C157.79 799.765 157.756 799.745 157.719 799.732C157.682 799.719 157.643 799.714 157.604 799.717C157.564 799.719 157.526 799.73 157.491 799.748C157.456 799.765 157.425 799.79 157.4 799.82C157.374 799.85 157.355 799.885 157.344 799.922C157.332 799.96 157.328 799.999 157.332 800.039C157.336 800.078 157.348 800.115 157.367 800.15C157.386 800.184 157.412 800.214 157.443 800.239C160.447 802.758 163.253 805.504 165.836 808.454C165.637 808.579 165.034 809.392 163.181 809.478ZM199.376 831.404C199.809 831.404 200.236 831.498 200.63 831.678C201.023 831.859 201.373 832.122 201.655 832.45C201.938 832.778 202.146 833.163 202.267 833.579C202.387 833.995 202.416 834.432 202.353 834.86L196.346 875.314C196.236 876.026 195.876 876.675 195.331 877.145C194.785 877.616 194.09 877.876 193.369 877.88H158.374C157.653 877.876 156.958 877.616 156.413 877.145C155.867 876.675 155.507 876.026 155.397 875.314L149.391 834.86C149.327 834.432 149.356 833.995 149.476 833.579C149.597 833.163 149.805 832.778 150.088 832.45C150.37 832.122 150.72 831.858 151.114 831.678C151.507 831.497 151.935 831.404 152.368 831.404H199.376ZM213.399 800.893C210.433 807.9 202.12 815.159 194.86 817.157C188.182 818.991 186.832 815.364 186.763 815.324C190.615 812.247 194.856 809.37 199.139 806.286C199.176 806.266 199.209 806.239 199.234 806.206C199.26 806.173 199.278 806.135 199.288 806.094C199.297 806.053 199.298 806.011 199.29 805.97C199.282 805.929 199.265 805.89 199.241 805.856C199.217 805.822 199.185 805.794 199.149 805.773C199.113 805.752 199.072 805.739 199.031 805.735C198.989 805.731 198.947 805.736 198.908 805.75C198.868 805.763 198.832 805.785 198.802 805.814C194.536 808.885 190.312 811.755 186.522 814.773C185.113 810.901 188.511 804.053 194.879 798.468C206.251 788.496 218.075 789.747 213.399 800.893Z" fill="white"/>
<path d="M264 458.438H218V491.438H264V458.438Z" fill="#1D1D1D" stroke="#DD4545" stroke-width="4.36" stroke-linecap="round" stroke-linejoin="round"/>
<path opacity="0.5" d="M248.262 473.639L236.233 466.639C236.007 466.507 235.75 466.438 235.489 466.438C235.228 466.437 234.971 466.506 234.745 466.638C234.519 466.769 234.331 466.959 234.2 467.187C234.069 467.415 234 467.673 234 467.937V481.939C234.001 482.203 234.07 482.461 234.201 482.689C234.331 482.916 234.519 483.106 234.746 483.237C234.972 483.368 235.228 483.438 235.489 483.438C235.75 483.437 236.007 483.368 236.233 483.237L248.262 476.231C248.487 476.099 248.673 475.909 248.802 475.682C248.932 475.455 249 475.197 249 474.935C249 474.673 248.932 474.415 248.802 474.188C248.673 473.96 248.487 473.771 248.262 473.639Z" fill="#DD4545"/>
<g clip-path="url(#clip0_259_2)">
<rect width="823" height="70" fill="white"/>
<rect width="663" height="70" fill="#5479F7"/>
<path d="M24.9 32.05C28.8333 31.6833 31.7167 30.7667 33.55 29.3C35.4167 27.8 36.35 26.3333 36.35 24.9C36.35 23.4333 35.6333 22.3667 34.2 21.7C32.7667 21 30.95 20.65 28.75 20.65C27.5833 20.65 26.4 20.75 25.2 20.95C25 22.3833 24.9 26.0833 24.9 32.05ZM25.45 49.3C25.0833 49.6667 24.35 49.95 23.25 50.15C22.15 50.3833 21.2333 50.5 20.5 50.5C19.7667 50.5 19.1333 50.4 18.6 50.2L18.9 21.35C18.4667 20.8167 18.0333 19.9333 17.6 18.7C17.2 17.4667 17 16.7167 17 16.45C17 16.15 17.0333 15.9667 17.1 15.9C17.1667 15.8 18.2167 15.7 20.25 15.6C22.3167 15.4667 24.4 15.4 26.5 15.4C28.6 15.4 30.4667 15.5167 32.1 15.75C33.7333 15.9833 35.4333 16.4 37.2 17C38.9667 17.5667 40.3667 18.4833 41.4 19.75C42.4333 21.0167 42.95 22.65 42.95 24.65C42.95 26.6167 42.25 28.45 40.85 30.15C39.45 31.85 37.55 33.2833 35.15 34.45C35.15 34.9833 36.2 37.3833 38.3 41.65C40.4 45.8833 42.0667 48.6167 43.3 49.85C43.3333 49.8833 43.35 49.9333 43.35 50C43.35 50.1 43.0833 50.2667 42.55 50.5C41.0833 51.2 39.5 51.55 37.8 51.55L36.55 51.45C35.8167 50.7167 34.5333 48.2833 32.7 44.15C30.9 40.0167 29.9 37.4833 29.7 36.55C29.3 36.7833 27.7167 37.1333 24.95 37.6C25.0167 44.3 25.1833 48.2 25.45 49.3ZM58.3957 33.1C58.3957 32.1333 57.879 31.65 56.8457 31.65C55.479 31.65 54.279 32.35 53.2457 33.75C52.2124 35.15 51.6957 36.8333 51.6957 38.8C51.6957 39.2667 51.7624 39.5 51.8957 39.5C53.0957 39.4667 54.479 38.7833 56.0457 37.45C57.6124 36.0833 58.3957 34.6333 58.3957 33.1ZM62.7457 49C61.6124 49.7667 59.3957 50.15 56.0957 50.15C52.7957 50.15 50.2624 49.1667 48.4957 47.2C46.729 45.2333 45.8457 42.6167 45.8457 39.35C45.8457 36.05 46.8957 33.2 48.9957 30.8C51.129 28.3667 54.1124 27.15 57.9457 27.15C59.5124 27.15 60.9457 27.5667 62.2457 28.4C63.579 29.2333 64.2457 30.7 64.2457 32.8C64.2457 34.8667 63.329 36.9167 61.4957 38.95C59.6957 40.9833 57.229 42.5333 54.0957 43.6C54.0957 44 54.4957 44.3333 55.2957 44.6C56.129 44.8333 56.9457 44.95 57.7457 44.95C60.279 44.95 62.279 44.5 63.7457 43.6C63.779 43.5667 63.829 43.55 63.8957 43.55C63.9624 43.55 63.9957 43.8667 63.9957 44.5C63.9957 46.4333 63.579 47.9333 62.7457 49ZM82.0383 43.25C82.0383 45.05 81.1883 46.6667 79.4883 48.1C77.8216 49.5 76.0049 50.5 74.0383 51.1C72.1049 51.7333 70.4049 52.05 68.9383 52.05C68.7716 52.05 68.5383 51.85 68.2383 51.45C67.4049 50.35 66.9883 49.0667 66.9883 47.6V47.25C69.5883 47.25 71.5716 46.8 72.9383 45.9C74.3049 45 74.9883 44.0667 74.9883 43.1C74.9883 42.4667 74.5716 41.8 73.7383 41.1C72.9049 40.4 71.9883 39.7833 70.9883 39.25C69.9883 38.7167 69.0716 38.0167 68.2383 37.15C67.4049 36.25 66.9883 35.3167 66.9883 34.35C66.9883 32.3167 68.2549 30.45 70.7883 28.75C73.3216 27.05 76.0216 26.2 78.8883 26.2C79.2216 26.2 79.6549 26.6667 80.1883 27.6C80.7216 28.5 81.0049 29.4333 81.0383 30.4C80.3716 30.4 79.3716 30.6 78.0383 31C75.4049 31.8333 74.0883 32.8667 74.0883 34.1C74.0883 34.9667 75.3883 36.15 77.9883 37.65C78.9883 38.2167 79.9049 39 80.7383 40C81.5716 41 82.0049 42.0833 82.0383 43.25ZM97.3605 33.1C97.3605 32.1333 96.8439 31.65 95.8105 31.65C94.4439 31.65 93.2439 32.35 92.2105 33.75C91.1772 35.15 90.6605 36.8333 90.6605 38.8C90.6605 39.2667 90.7272 39.5 90.8605 39.5C92.0605 39.4667 93.4439 38.7833 95.0105 37.45C96.5772 36.0833 97.3605 34.6333 97.3605 33.1ZM101.711 49C100.577 49.7667 98.3605 50.15 95.0605 50.15C91.7605 50.15 89.2272 49.1667 87.4605 47.2C85.6939 45.2333 84.8105 42.6167 84.8105 39.35C84.8105 36.05 85.8605 33.2 87.9605 30.8C90.0939 28.3667 93.0772 27.15 96.9105 27.15C98.4772 27.15 99.9105 27.5667 101.211 28.4C102.544 29.2333 103.211 30.7 103.211 32.8C103.211 34.8667 102.294 36.9167 100.461 38.95C98.6605 40.9833 96.1939 42.5333 93.0605 43.6C93.0605 44 93.4605 44.3333 94.2605 44.6C95.0939 44.8333 95.9105 44.95 96.7105 44.95C99.2439 44.95 101.244 44.5 102.711 43.6C102.744 43.5667 102.794 43.55 102.861 43.55C102.927 43.55 102.961 43.8667 102.961 44.5C102.961 46.4333 102.544 47.9333 101.711 49ZM124.803 37.85C124.803 42.0167 124.853 44.45 124.953 45.15C125.22 46.9833 125.786 48.3 126.653 49.1C126.653 49.4667 125.986 50.0167 124.653 50.75C123.353 51.4833 122.17 51.85 121.103 51.85C120.803 51.85 120.486 51.4 120.153 50.5C119.82 49.6333 119.62 48.9833 119.553 48.55C119.52 48.1167 119.486 47.9 119.453 47.9L119.303 48C117.536 49.4 115.47 50.1 113.103 50.1C110.736 50.1 108.903 49.5333 107.603 48.4C106.336 47.2333 105.703 45.7167 105.703 43.85C105.703 41.9833 106.103 40.4167 106.903 39.15C107.736 37.85 108.703 36.8667 109.803 36.2C110.903 35.5333 112.12 35 113.453 34.6C115.486 33.9333 117.086 33.6 118.253 33.6L118.353 33.55C118.353 31.9167 116.286 31.1 112.153 31.1C110.52 31.1 109.303 31.1667 108.503 31.3H108.453C108.453 30.6333 108.653 29.8 109.053 28.8C109.486 27.8 109.836 27.15 110.103 26.85C110.403 26.55 111.603 26.4 113.703 26.4C117.503 26.4 120.303 27.1333 122.103 28.6C123.903 30.0333 124.803 32.2667 124.803 35.3V37.85ZM119.253 41.05V39.15C119.253 38.4167 119.236 38.05 119.203 38.05C116.97 38.05 115.036 38.6333 113.403 39.8C112.37 40.5333 111.853 41.45 111.853 42.55C111.853 43.25 112.103 43.8333 112.603 44.3C113.103 44.7667 113.853 45 114.853 45C115.886 45 116.87 44.7 117.803 44.1C118.77 43.5 119.253 42.4833 119.253 41.05ZM130.002 42.25L129.902 30.9C129.902 28.9333 129.969 27.8833 130.102 27.75C130.469 27.3833 131.102 27.0667 132.002 26.8C132.902 26.5 133.736 26.35 134.502 26.35C135.302 26.35 135.702 26.4333 135.702 26.6C135.602 27.5 135.552 28.5333 135.552 29.7C135.552 30.8333 135.586 31.4 135.652 31.4C135.719 31.4 135.786 31.3667 135.852 31.3C135.919 31.2 136.019 31.0667 136.152 30.9C136.319 30.7 136.636 30.3667 137.102 29.9C137.602 29.4333 138.136 29.0333 138.702 28.7C140.136 27.7667 141.669 27.3 143.302 27.3C143.569 27.7333 143.702 28.4 143.702 29.3C143.702 31.2 143.469 32.55 143.002 33.35L142.802 33.75L142.152 33.65C139.752 33.65 137.869 34.6333 136.502 36.6C135.969 37.4 135.702 38 135.702 38.4V42.8C135.702 46.8 135.652 48.85 135.552 48.95C134.619 49.85 132.786 50.3 130.052 50.3C129.786 50.3 129.652 50.25 129.652 50.15C129.886 48.85 130.002 46.2167 130.002 42.25ZM155.434 50.45C151.634 50.45 148.818 49.4833 146.984 47.55C145.151 45.6167 144.234 43.1833 144.234 40.25C144.234 36.15 145.601 32.8833 148.334 30.45C151.101 28.0167 154.468 26.8 158.434 26.8C159.201 26.8 159.651 26.8167 159.784 26.85C159.984 27.0167 160.084 27.8167 160.084 29.25C160.084 30.6833 159.884 31.55 159.484 31.85H159.134C156.568 31.85 154.484 32.45 152.884 33.65C152.218 34.15 151.634 34.9333 151.134 36C150.634 37.0667 150.384 38.35 150.384 39.85C150.384 41.35 150.834 42.6 151.734 43.6C152.634 44.5667 154.084 45.05 156.084 45.05C157.651 45.05 159.034 44.75 160.234 44.15C160.368 44.0833 160.451 44.05 160.484 44.05C160.751 44.3167 160.884 45.2167 160.884 46.75C160.884 48.2833 160.701 49.2 160.334 49.5C159.234 50.1333 157.601 50.45 155.434 50.45ZM164.421 39.3L164.271 21.95C164.271 18.7167 164.355 17.0167 164.521 16.85C164.921 16.45 165.571 16.0667 166.471 15.7C167.371 15.3333 168.238 15.15 169.071 15.15C169.905 15.15 170.321 15.2167 170.321 15.35C170.288 15.65 170.221 17.8333 170.121 21.9C170.021 25.9667 169.971 28.6333 169.971 29.9V30.35C169.971 30.5167 170.021 30.6 170.121 30.6L171.121 29.6C171.488 29.2667 172.221 28.8167 173.321 28.25C174.455 27.65 175.505 27.35 176.471 27.35C177.471 27.35 178.288 27.5167 178.921 27.85C179.588 28.1833 180.138 28.5833 180.571 29.05C181.005 29.5167 181.371 30.2 181.671 31.1C181.971 31.9667 182.188 32.7833 182.321 33.55C182.488 34.2833 182.621 35.3 182.721 36.6C182.821 38.3667 182.871 40.6 182.871 43.3L182.671 49.95C182.571 50.2167 182.005 50.45 180.971 50.65C179.938 50.85 179.088 50.95 178.421 50.95L176.771 50.7C177.105 47.7 177.271 44.8167 177.271 42.05C177.271 39.2833 177.071 37.1833 176.671 35.75C176.271 34.3167 175.455 33.6 174.221 33.6C173.421 33.6 172.671 33.9167 171.971 34.55C171.271 35.1833 170.788 35.8167 170.521 36.45L170.071 37.4C170.138 39.7 170.171 42.1667 170.171 44.8C170.171 47.4333 170.088 48.8167 169.921 48.95C168.921 49.85 167.088 50.3 164.421 50.3C164.155 50.3 164.021 50.25 164.021 50.15C164.288 48.6833 164.421 45.0667 164.421 39.3Z" fill="white"/>
<path d="M626.507 56.5C623.535 56.5 620.74 55.9362 618.122 54.8087C615.506 53.6795 613.229 52.1474 611.292 50.2124C609.356 48.2774 607.823 46.0032 606.694 43.3898C605.565 40.7763 605 37.9821 605 35.0072C605 32.0322 605.565 29.2372 606.694 26.6222C607.821 24.0055 609.351 21.7289 611.283 19.7923C613.215 17.8557 615.49 16.3229 618.108 15.1937C620.726 14.0646 623.521 13.5 626.493 13.5C629.465 13.5 632.26 14.0646 634.878 15.1937C637.494 16.3213 639.771 17.8518 641.708 19.7852C643.644 21.7186 645.177 23.9936 646.306 26.6102C647.435 29.2268 648 32.0211 648 34.9928C648 37.9646 647.436 40.7596 646.309 43.3778C645.181 45.9961 643.649 48.2727 641.712 50.2077C639.776 52.1427 637.502 53.6755 634.89 54.8063C632.278 55.937 629.484 56.5016 626.507 56.5ZM626.5 54.1111C629.037 54.1111 631.475 53.6254 633.815 52.6539C636.154 51.6824 638.22 50.304 640.012 48.5187L626.5 35V15.8889C621.165 15.8889 616.646 17.7403 612.943 21.4431C609.24 25.1458 607.389 29.6648 607.389 35C607.389 40.3352 609.24 44.8542 612.943 48.5569C616.646 52.2597 621.165 54.1111 626.5 54.1111Z" fill="white"/>
<rect x="663" width="20" height="70" fill="#54CAFA"/>
<rect x="683" width="20" height="70" fill="#9FD3CC"/>
<rect x="703" width="20" height="70" fill="#92E3A9"/>
<rect x="723" width="20" height="70" fill="#23C8AC"/>
<rect x="743" width="20" height="70" fill="#CB8ED6"/>
<rect x="763" width="20" height="70" fill="#ECDD82"/>
<rect x="783" width="20" height="70" fill="#CC4E7E"/>
<rect x="803" width="20" height="70" fill="#CD4B4B"/>
</g>
<defs>
<clipPath id="clip0_259_2">
<rect width="823" height="70" fill="white"/>
</clipPath>
</defs>
</svg>
