<svg width="823" height="1083" viewBox="0 0 823 1083" fill="none" xmlns="http://www.w3.org/2000/svg">
<path d="M282.868 488.966C278.192 490.195 273.515 489.375 269.23 487.735C261.826 485.685 254.034 485.276 246.24 487.325C243.246 487.988 240.571 489.193 238 490.632V504.438H303V482.438C299.539 482.6 296.068 482.848 292.603 483.22C288.712 483.636 285.984 487.735 282.868 488.966Z" stroke="#3E3A3A" stroke-width="4.36" stroke-linecap="round" stroke-linejoin="round"/>
<path d="M238 461.442V491.437C240.565 490.067 243.24 488.919 246.241 488.288C254.035 486.336 261.828 486.726 269.233 488.678C273.519 490.24 278.196 491.021 282.872 489.85C285.989 488.678 288.717 484.774 292.615 484.383C296.078 484.029 299.539 483.798 303 483.633V461.438L238 461.442Z" stroke="#3E3A3A" stroke-width="4.36" stroke-linecap="round" stroke-linejoin="round"/>
<path d="M268.5 475.438C268.5 478.475 266.038 480.938 263 480.938C259.962 480.938 257.5 478.475 257.5 475.438C257.5 472.4 259.962 469.938 263 469.938C266.038 469.938 268.5 472.4 268.5 475.438Z" fill="#1A1A1A" stroke="#5B4F4F"/>
<path d="M183.5 587C191.508 587 198 580.284 198 572C198 563.716 191.508 557 183.5 557C175.492 557 169 563.716 169 572C169 580.284 175.492 587 183.5 587Z" fill="#786D50"/>
<path d="M557.266 557.643C557.266 557.643 526.703 519.502 544.646 510.489C562.588 501.476 582.814 539.089 582.814 539.089C582.814 539.089 591.488 490.41 630.863 488.438C639.075 501.784 621.132 536.966 615.353 543.184C642.419 536.966 652 549.401 652 549.401C652 549.401 647.437 571.43 620.371 577.913C593.152 582.309 557.266 557.643 557.266 557.643Z" fill="#199F87" stroke="#1A1A1A" stroke-width="3.69" stroke-linecap="round" stroke-linejoin="round"/>
<path d="M617 512.438L595 546.438" stroke="#1A1A1A" stroke-width="3.69" stroke-linecap="round" stroke-linejoin="round"/>
<path d="M557 527.438L566 540.438" stroke="#1A1A1A" stroke-width="3.69" stroke-linecap="round" stroke-linejoin="round"/>
<path d="M635 557.438L618 562.438" stroke="#1A1A1A" stroke-width="3.69" stroke-linecap="round" stroke-linejoin="round"/>
<path d="M424.463 265.438C347.233 304.753 309.075 378.688 337.262 442.183C361.916 497.734 427.411 539.278 486.035 581.157C515.905 602.481 546.306 627.359 546.988 656.92C547.59 682.649 525.327 705.802 502.073 725.997C454.998 766.857 400.325 803.314 339.449 834.437" stroke="#7A7A7A" stroke-width="4.03" stroke-linecap="round" stroke-linejoin="round" stroke-dasharray="24.06 24.06"/>
<path d="M472.022 304.438C395.145 341.127 357.161 410.125 385.22 469.38C409.761 521.22 474.958 559.99 533.314 599.072C563.047 618.972 593.309 642.189 593.988 669.776C594.588 693.786 572.426 715.393 549.278 734.239C502.418 772.37 447.995 806.392 387.397 835.437" stroke="#4E4E4E" stroke-width="4.03" stroke-linecap="round" stroke-linejoin="round" stroke-dasharray="24.06 24.06"/>
<path d="M515.963 342.438C453.545 376.087 422.704 439.368 445.486 493.712C465.411 541.257 518.346 576.814 565.727 612.657C589.868 630.909 614.439 652.202 614.99 677.503C615.477 699.523 597.484 719.34 578.689 736.625C540.642 771.596 496.455 802.799 447.253 829.438" stroke="#1F1D1D" stroke-width="4.03" stroke-linecap="round" stroke-linejoin="round" stroke-dasharray="24.06 24.06"/>
<path d="M202.589 550.438H593.411C597.545 550.438 601.51 552.076 604.434 554.992C607.358 557.908 609 561.864 609 565.988V801.438H187V565.988C187 563.946 187.403 561.924 188.187 560.037C188.97 558.15 190.118 556.436 191.566 554.992C193.014 553.548 194.732 552.403 196.624 551.621C198.515 550.84 200.542 550.438 202.589 550.438Z" fill="white"/>
<path d="M608.591 801.438H187.409C187.301 801.438 187.197 801.394 187.12 801.318C187.043 801.241 187 801.137 187 801.028V565.405C187.007 561.172 188.692 557.114 191.685 554.121C194.678 551.127 198.736 549.443 202.968 549.438H593.032C597.265 549.443 601.323 551.128 604.316 554.122C607.31 557.116 608.994 561.175 609 565.409V801.032C608.999 801.14 608.955 801.243 608.878 801.318C608.802 801.394 608.699 801.437 608.591 801.438ZM187.814 800.619H608.182V565.409C608.177 561.391 606.58 557.54 603.74 554.699C600.899 551.858 597.048 550.26 593.032 550.256H202.968C198.953 550.262 195.104 551.861 192.265 554.701C189.427 557.542 187.83 561.392 187.826 565.409L187.814 800.619Z" fill="black"/>
<path d="M594.59 787.438H201.41C201.356 787.438 201.303 787.427 201.253 787.407C201.203 787.386 201.158 787.356 201.12 787.318C201.081 787.28 201.051 787.235 201.031 787.186C201.01 787.136 201 787.083 201 787.029V566.403C201 565.882 201.208 565.383 201.577 565.014C201.946 564.646 202.447 564.438 202.969 564.438H593.031C593.553 564.438 594.054 564.646 594.423 565.014C594.792 565.383 594.999 565.882 595 566.403V787.029C595 787.083 594.99 787.136 594.969 787.186C594.949 787.235 594.919 787.28 594.881 787.318C594.842 787.356 594.797 787.386 594.747 787.407C594.697 787.427 594.644 787.438 594.59 787.438ZM201.82 786.62H594.173V566.403C594.172 566.099 594.051 565.808 593.836 565.593C593.62 565.378 593.328 565.257 593.023 565.257H202.969C202.665 565.257 202.372 565.378 202.157 565.593C201.941 565.808 201.82 566.099 201.82 566.403V786.62Z" fill="black"/>
<path d="M558.009 586.438H238.991C233.473 586.438 229 590.858 229 596.312V603.563C229 609.017 233.473 613.438 238.991 613.438H558.009C563.527 613.438 568 609.017 568 603.563V596.312C568 590.858 563.527 586.438 558.009 586.438Z" fill="white"/>
<path d="M558.594 613.437H239.406C236.647 613.434 234.003 612.343 232.052 610.403C230.102 608.464 229.004 605.834 229 603.091V595.786C229.003 593.042 230.101 590.412 232.052 588.472C234.002 586.532 236.647 585.441 239.406 585.438H558.594C561.353 585.441 563.998 586.532 565.948 588.472C567.899 590.412 568.997 593.042 569 595.786V603.087C568.997 605.831 567.9 608.462 565.949 610.402C563.998 612.342 561.353 613.434 558.594 613.437ZM239.406 586.252C236.864 586.255 234.427 587.26 232.63 589.047C230.833 590.835 229.822 593.258 229.819 595.786V603.087C229.822 605.615 230.833 608.038 232.63 609.825C234.427 611.612 236.864 612.617 239.406 612.62H558.594C561.135 612.617 563.572 611.611 565.369 609.824C567.166 608.037 568.177 605.614 568.18 603.087V595.786C568.177 593.258 567.166 590.835 565.369 589.048C563.572 587.26 561.136 586.255 558.594 586.252H239.406Z" fill="black"/>
<path d="M549.5 603.437C548.412 603.437 547.349 603.115 546.444 602.511C545.54 601.906 544.835 601.047 544.419 600.042C544.002 599.037 543.893 597.931 544.106 596.865C544.318 595.798 544.842 594.818 545.611 594.048C546.38 593.279 547.36 592.755 548.427 592.543C549.494 592.331 550.6 592.44 551.605 592.856C552.61 593.272 553.469 593.977 554.073 594.882C554.677 595.786 555 596.85 555 597.937C554.999 599.396 554.419 600.794 553.388 601.825C552.356 602.856 550.958 603.436 549.5 603.437ZM549.5 593.202C548.563 593.201 547.647 593.479 546.868 593.999C546.089 594.519 545.482 595.259 545.123 596.124C544.765 596.989 544.671 597.942 544.853 598.86C545.036 599.779 545.487 600.623 546.149 601.286C546.811 601.948 547.655 602.399 548.574 602.582C549.492 602.765 550.445 602.671 551.31 602.313C552.176 601.955 552.915 601.348 553.436 600.569C553.956 599.79 554.234 598.874 554.234 597.937C554.233 596.682 553.734 595.479 552.846 594.591C551.959 593.703 550.755 593.203 549.5 593.202Z" fill="black"/>
<path d="M558.582 607.437C558.528 607.437 558.473 607.426 558.423 607.405C558.372 607.384 558.326 607.353 558.287 607.314L553.123 602.153C553.084 602.114 553.053 602.068 553.032 602.017C553.011 601.967 553 601.912 553 601.857C553 601.802 553.011 601.748 553.032 601.697C553.053 601.646 553.083 601.6 553.122 601.561C553.161 601.522 553.207 601.491 553.258 601.47C553.309 601.449 553.363 601.438 553.418 601.438C553.473 601.437 553.528 601.448 553.579 601.469C553.63 601.49 553.676 601.521 553.715 601.56L558.879 606.722C558.937 606.781 558.977 606.856 558.992 606.937C559.008 607.018 559 607.102 558.968 607.178C558.936 607.255 558.883 607.32 558.814 607.366C558.746 607.412 558.665 607.437 558.582 607.437Z" fill="black"/>
<path d="M528.86 595.438H477.14C475.406 595.438 474 596.747 474 598.362V600.513C474 602.128 475.406 603.438 477.14 603.438H528.86C530.594 603.438 532 602.128 532 600.513V598.362C532 596.747 530.594 595.438 528.86 595.438Z" fill="#E2EAFF"/>
<path d="M457.86 595.438H396.14C394.406 595.438 393 596.747 393 598.362V600.513C393 602.128 394.406 603.438 396.14 603.438H457.86C459.594 603.438 461 602.128 461 600.513V598.362C461 596.747 459.594 595.438 457.86 595.438Z" fill="#E2EAFF"/>
<path d="M349.112 594.438H283.888C281.741 594.438 280 596.075 280 598.095V600.78C280 602.8 281.741 604.438 283.888 604.438H349.112C351.259 604.438 353 602.8 353 600.78V598.095C353 596.075 351.259 594.438 349.112 594.438Z" fill="#5479F7"/>
<path d="M265.583 597.437H249.417C249.306 597.437 249.2 597.385 249.122 597.291C249.044 597.197 249 597.07 249 596.938C249 596.805 249.044 596.678 249.122 596.584C249.2 596.49 249.306 596.438 249.417 596.438H265.583C265.694 596.438 265.8 596.49 265.878 596.584C265.956 596.678 266 596.805 266 596.938C266 597.07 265.956 597.197 265.878 597.291C265.8 597.385 265.694 597.437 265.583 597.437Z" fill="#5479F7"/>
<path d="M263.579 602.438H247.417C247.306 602.438 247.2 602.385 247.122 602.291C247.044 602.197 247 602.07 247 601.938C247 601.805 247.044 601.678 247.122 601.584C247.2 601.49 247.306 601.438 247.417 601.438H263.583C263.694 601.438 263.8 601.49 263.878 601.584C263.956 601.678 264 601.805 264 601.938C264 602.07 263.956 602.197 263.878 602.291C263.8 602.385 263.694 602.438 263.583 602.438H263.579Z" fill="#5479F7"/>
<path d="M249.393 609.437C249.343 609.438 249.293 609.427 249.247 609.407C249.199 609.387 249.155 609.357 249.118 609.319C249.082 609.281 249.052 609.236 249.032 609.185C249.012 609.135 249.001 609.081 249 609.027C248.999 608.972 249.009 608.918 249.028 608.867L256.238 589.72C256.255 589.666 256.282 589.617 256.317 589.575C256.353 589.533 256.396 589.499 256.445 589.476C256.493 589.452 256.545 589.439 256.598 589.438C256.651 589.436 256.704 589.446 256.754 589.467C256.803 589.488 256.848 589.52 256.886 589.559C256.923 589.599 256.953 589.647 256.972 589.7C256.992 589.752 257.001 589.808 257 589.865C256.998 589.921 256.986 589.977 256.964 590.028L249.756 609.177C249.727 609.254 249.677 609.32 249.612 609.366C249.547 609.413 249.471 609.438 249.393 609.437Z" fill="#5479F7"/>
<path d="M256.431 609.437C256.36 609.436 256.291 609.418 256.229 609.386C256.166 609.354 256.113 609.308 256.074 609.252C256.035 609.197 256.01 609.133 256.003 609.066C255.995 609 256.004 608.933 256.03 608.87L264.149 589.7C264.17 589.649 264.202 589.603 264.243 589.563C264.283 589.524 264.331 589.493 264.384 589.471C264.438 589.45 264.495 589.438 264.553 589.438C264.611 589.437 264.668 589.447 264.722 589.467C264.776 589.487 264.825 589.517 264.867 589.555C264.908 589.594 264.941 589.639 264.964 589.689C264.987 589.74 264.999 589.794 265 589.848C265.001 589.903 264.99 589.957 264.969 590.008L256.84 609.177C256.807 609.254 256.751 609.32 256.678 609.366C256.605 609.413 256.519 609.438 256.431 609.437Z" fill="#5479F7"/>
<path d="M643 684.434L526.185 684.437L526 646.441L642.815 646.438L643 684.434Z" fill="white"/>
<path d="M526.593 684.437C526.485 684.437 526.382 684.395 526.305 684.318C526.229 684.241 526.186 684.138 526.185 684.029L526 645.85C526 645.741 526.043 645.636 526.119 645.559C526.156 645.52 526.201 645.489 526.251 645.469C526.301 645.448 526.354 645.437 526.408 645.438H642.407C642.515 645.438 642.618 645.48 642.695 645.557C642.771 645.634 642.814 645.737 642.815 645.846L643 684.025C643 684.079 642.99 684.133 642.97 684.183C642.949 684.233 642.919 684.278 642.881 684.316C642.844 684.355 642.799 684.386 642.749 684.406C642.699 684.427 642.646 684.438 642.592 684.437H526.593ZM526.819 646.258L527.004 683.617H642.189L642.003 646.258H526.819Z" fill="black"/>
<path d="M653 672.434L537.185 672.438L537 634.443L652.817 634.438L653 672.434Z" fill="#91AF91"/>
<path d="M561.409 678.437C561.329 678.437 561.25 678.413 561.182 678.368C561.115 678.323 561.063 678.259 561.031 678.184C561 678.109 560.992 678.026 561.008 677.946C561.023 677.867 561.062 677.793 561.119 677.736L597.379 641.085C597.415 641.044 597.46 641.012 597.511 640.991C597.561 640.969 597.615 640.96 597.67 640.963C597.778 640.963 597.882 641.007 597.958 641.083L615.356 658.525L645.271 621.59C645.34 621.505 645.439 621.451 645.547 621.44C645.656 621.428 645.764 621.461 645.848 621.53C645.933 621.599 645.987 621.699 645.998 621.808C646.009 621.917 645.977 622.025 645.908 622.11L615.7 659.399C615.664 659.444 615.619 659.48 615.568 659.506C615.517 659.532 615.461 659.547 615.404 659.55C615.346 659.553 615.289 659.544 615.236 659.524C615.182 659.503 615.134 659.472 615.093 659.431L597.664 641.965L561.693 678.323C561.616 678.397 561.515 678.437 561.409 678.437Z" fill="black"/>
<path d="M644.325 627.438L643.496 627.175L645.38 622.245L640.45 624.921L640 624.236L647 620.438L644.325 627.438Z" fill="black"/>
<path d="M271.596 709.438H230.404C230.297 709.438 230.194 709.385 230.118 709.291C230.043 709.197 230 709.07 230 708.938C230 708.805 230.043 708.678 230.118 708.584C230.194 708.49 230.297 708.438 230.404 708.438H271.596C271.703 708.438 271.806 708.49 271.882 708.584C271.957 708.678 272 708.805 272 708.938C272 709.07 271.957 709.197 271.882 709.291C271.806 709.385 271.703 709.438 271.596 709.438Z" fill="black"/>
<path d="M310.59 721.438H230.41C230.301 721.438 230.197 721.385 230.12 721.291C230.043 721.197 230 721.07 230 720.938C230 720.805 230.043 720.678 230.12 720.584C230.197 720.49 230.301 720.438 230.41 720.438H310.59C310.699 720.438 310.803 720.49 310.88 720.584C310.957 720.678 311 720.805 311 720.938C311 721.07 310.957 721.197 310.88 721.291C310.803 721.385 310.699 721.438 310.59 721.438Z" fill="black"/>
<path d="M283.675 690.437H238.325C236.117 690.437 233.999 689.595 232.438 688.094C230.877 686.594 230 684.559 230 682.437C230 680.316 230.877 678.281 232.438 676.781C233.999 675.28 236.117 674.438 238.325 674.438H283.675C285.883 674.438 288 675.28 289.562 676.781C291.123 678.281 292 680.316 292 682.437C292 684.559 291.123 686.594 289.562 688.094C288 689.595 285.883 690.437 283.675 690.437ZM238.325 675.222C236.355 675.252 234.477 676.025 233.095 677.374C231.713 678.723 230.939 680.54 230.939 682.433C230.939 684.326 231.713 686.143 233.095 687.492C234.477 688.841 236.355 689.614 238.325 689.644H283.675C284.67 689.659 285.659 689.483 286.583 689.128C287.507 688.772 288.348 688.243 289.058 687.572C289.767 686.901 290.331 686.101 290.715 685.219C291.1 684.337 291.298 683.39 291.298 682.433C291.298 681.476 291.1 680.529 290.715 679.647C290.331 678.765 289.767 677.965 289.058 677.294C288.348 676.623 287.507 676.094 286.583 675.738C285.659 675.383 284.67 675.207 283.675 675.222H238.325Z" fill="#5479F7"/>
<path d="M273.588 685.438H240.412C240.303 685.438 240.198 685.385 240.121 685.291C240.043 685.197 240 685.07 240 684.937C240 684.805 240.043 684.678 240.121 684.584C240.198 684.49 240.303 684.438 240.412 684.438H273.588C273.697 684.438 273.802 684.49 273.879 684.584C273.957 684.678 274 684.805 274 684.937C274 685.07 273.957 685.197 273.879 685.291C273.802 685.385 273.697 685.438 273.588 685.438Z" fill="black"/>
<path d="M281.973 681.312L283.728 679.553L284.754 680.581L282.998 682.342L285 684.345L283.908 685.438L281.908 683.434L280.143 685.203L279.117 684.175L280.883 682.406L279 680.53L280.09 679.438L281.973 681.312Z" fill="black"/>
<path d="M350.817 690.437H310.183C308.012 690.437 305.931 689.595 304.397 688.094C302.862 686.594 302 684.559 302 682.437C302 680.316 302.862 678.281 304.397 676.781C305.931 675.28 308.012 674.438 310.183 674.438H350.817C351.892 674.437 352.956 674.644 353.949 675.046C354.941 675.448 355.844 676.038 356.603 676.781C357.363 677.524 357.966 678.405 358.377 679.376C358.788 680.347 359 681.387 359 682.437C359 683.488 358.788 684.528 358.377 685.499C357.966 686.47 357.363 687.351 356.603 688.094C355.844 688.837 354.941 689.426 353.949 689.829C352.956 690.231 351.892 690.437 350.817 690.437ZM310.183 675.222C309.204 675.207 308.233 675.383 307.324 675.738C306.416 676.094 305.589 676.623 304.892 677.294C304.195 677.965 303.641 678.765 303.263 679.647C302.885 680.529 302.69 681.476 302.69 682.433C302.69 683.39 302.885 684.337 303.263 685.219C303.641 686.101 304.195 686.901 304.892 687.572C305.589 688.243 306.416 688.772 307.324 689.128C308.233 689.483 309.204 689.659 310.183 689.644H350.817C351.796 689.659 352.767 689.483 353.676 689.128C354.584 688.772 355.411 688.243 356.108 687.572C356.805 686.901 357.359 686.101 357.737 685.219C358.115 684.337 358.31 683.39 358.31 682.433C358.31 681.476 358.115 680.529 357.737 679.647C357.359 678.765 356.805 677.965 356.108 677.294C355.411 676.623 354.584 676.094 353.676 675.738C352.767 675.383 351.796 675.207 350.817 675.222H310.183Z" fill="#5479F7"/>
<path d="M337.598 685.438H313.402C313.295 685.438 313.193 685.385 313.118 685.291C313.042 685.197 313 685.07 313 684.938C313 684.805 313.042 684.678 313.118 684.584C313.193 684.49 313.295 684.438 313.402 684.438H337.598C337.705 684.438 337.807 684.49 337.882 684.584C337.958 684.678 338 684.805 338 684.938C338 685.07 337.958 685.197 337.882 685.291C337.807 685.385 337.705 685.438 337.598 685.438Z" fill="black"/>
<path d="M346.968 681.311L348.726 679.552L349.754 680.58L347.995 682.339L350 684.345L348.907 685.437L346.903 683.431L345.135 685.201L344.106 684.173L345.874 682.404L344 680.53L345.092 679.438L346.968 681.311Z" fill="black"/>
<path d="M371.715 658.437H238.285C236.088 658.437 233.98 657.542 232.427 655.948C230.873 654.354 230 652.192 230 649.938C230 647.683 230.873 645.521 232.427 643.927C233.98 642.333 236.088 641.438 238.285 641.438H371.715C372.803 641.437 373.88 641.657 374.886 642.085C375.891 642.512 376.804 643.138 377.573 643.927C378.343 644.716 378.953 645.653 379.369 646.685C379.786 647.716 380 648.821 380 649.938C380 651.054 379.786 652.159 379.369 653.19C378.953 654.222 378.343 655.159 377.573 655.948C376.804 656.737 375.891 657.363 374.886 657.79C373.88 658.218 372.803 658.437 371.715 658.437ZM238.285 642.275C237.294 642.259 236.311 642.446 235.391 642.823C234.471 643.201 233.634 643.763 232.928 644.476C232.222 645.189 231.661 646.039 231.279 646.976C230.896 647.914 230.699 648.92 230.699 649.937C230.699 650.953 230.896 651.959 231.279 652.897C231.661 653.834 232.222 654.684 232.928 655.397C233.634 656.11 234.471 656.672 235.391 657.05C236.311 657.427 237.294 657.614 238.285 657.598H371.715C372.706 657.614 373.689 657.427 374.609 657.05C375.529 656.672 376.366 656.11 377.072 655.397C377.778 654.684 378.339 653.834 378.721 652.897C379.104 651.959 379.301 650.953 379.301 649.937C379.301 648.92 379.104 647.914 378.721 646.976C378.339 646.039 377.778 645.189 377.072 644.476C376.366 643.763 375.529 643.201 374.609 642.823C373.689 642.446 372.706 642.259 371.715 642.275H238.285Z" fill="#5479F7"/>
<path d="M366.461 648.625L368.515 646.573L369.714 647.771L367.66 649.824L370 652.163L368.726 653.437L366.386 651.098L364.322 653.161L363.124 651.963L365.187 649.899L363 647.712L364.274 646.438L366.461 648.625Z" fill="black"/>
<path d="M470.077 706.288C487.656 690.387 488.958 663.202 472.985 645.567C457.013 627.933 429.814 626.528 412.235 642.428C394.657 658.329 393.355 685.514 409.328 703.149C425.3 720.783 452.499 722.189 470.077 706.288Z" fill="white"/>
<path d="M441.663 717.432C417.68 717.432 398.094 698.145 398 674.436C397.973 668.796 399.074 663.207 401.24 657.99C403.406 652.772 406.594 648.029 410.621 644.033C414.648 640.037 419.435 636.868 424.706 634.706C429.977 632.544 435.628 631.434 441.335 631.438C465.318 631.438 484.906 650.725 485 674.434C485.027 680.073 483.926 685.662 481.761 690.88C479.595 696.098 476.408 700.841 472.381 704.837C468.354 708.834 463.568 712.004 458.297 714.166C453.027 716.329 447.375 717.44 441.669 717.437L441.663 717.432ZM441.33 632.242C435.731 632.239 430.187 633.33 425.016 635.451C419.845 637.572 415.149 640.683 411.199 644.604C407.248 648.524 404.121 653.178 401.997 658.297C399.873 663.416 398.793 668.899 398.82 674.432C398.911 697.697 418.131 716.622 441.667 716.622C447.266 716.625 452.81 715.534 457.981 713.412C463.151 711.291 467.847 708.181 471.798 704.26C475.748 700.339 478.875 695.686 481 690.567C483.125 685.448 484.205 679.965 484.178 674.432C484.089 651.167 464.869 632.24 441.335 632.242H441.33Z" fill="black"/>
<path d="M489 662.745C483.793 640.828 464.259 624.507 441 624.438L441.185 674.438C441.185 674.438 481.038 664.605 489 662.745Z" fill="#A5649E"/>
<path d="M412.94 637.438C408.066 641.135 403.971 645.767 400.891 651.067C397.812 656.366 395.809 662.227 395 668.31C406.275 669.825 441 674.437 441 674.437C441 674.437 417.541 643.64 412.94 637.438Z" fill="#CB7676"/>
<path d="M475.841 726.436C475.744 726.436 475.649 726.4 475.576 726.336L451.14 705.149C451.1 705.114 451.067 705.072 451.043 705.024C451.019 704.977 451.005 704.925 451.001 704.872C450.997 704.819 451.004 704.766 451.021 704.715C451.037 704.665 451.064 704.618 451.099 704.578C451.134 704.537 451.176 704.504 451.224 704.481C451.271 704.457 451.323 704.442 451.376 704.439C451.429 704.435 451.483 704.441 451.533 704.458C451.584 704.475 451.631 704.501 451.671 704.536L475.992 725.626H490.62C490.723 725.633 490.82 725.679 490.89 725.754C490.961 725.829 491 725.929 491 726.032C491 726.135 490.961 726.234 490.89 726.309C490.82 726.385 490.723 726.431 490.62 726.437L475.841 726.436Z" fill="black"/>
<path d="M529.592 706.438H500.408C497.421 706.438 495 708.801 495 711.717V740.158C495 743.074 497.421 745.438 500.408 745.438H529.592C532.579 745.438 535 743.074 535 740.158V711.717C535 708.801 532.579 706.438 529.592 706.438Z" fill="#AF8F72"/>
<path d="M506.051 737.437C505.919 737.437 505.788 737.413 505.666 737.366C505.405 737.268 505.196 737.075 505.086 736.831C504.975 736.586 504.971 736.311 505.076 736.064L513.944 715.096C513.992 714.97 514.067 714.854 514.164 714.756C514.261 714.658 514.378 714.579 514.507 714.525C514.637 714.47 514.777 714.44 514.918 714.438C515.06 714.435 515.201 714.459 515.333 714.509C515.465 714.559 515.585 714.633 515.686 714.727C515.787 714.822 515.866 714.934 515.92 715.058C515.974 715.182 516.001 715.315 516 715.449C515.999 715.583 515.969 715.716 515.912 715.839L507.044 736.807C506.965 736.995 506.828 737.155 506.651 737.268C506.474 737.38 506.265 737.439 506.051 737.437Z" fill="#E2EAFF"/>
<path d="M515.052 737.437C514.92 737.437 514.789 737.413 514.666 737.366C514.405 737.267 514.196 737.074 514.086 736.83C513.975 736.585 513.971 736.309 514.076 736.062L522.952 715.069C523.004 714.947 523.081 714.835 523.178 714.741C523.275 714.646 523.391 714.571 523.519 714.519C523.648 714.467 523.785 714.439 523.925 714.438C524.064 714.436 524.202 714.46 524.332 714.509C524.461 714.558 524.579 714.63 524.679 714.722C524.779 714.814 524.859 714.924 524.914 715.045C524.969 715.166 524.998 715.296 525 715.428C525.002 715.56 524.976 715.691 524.924 715.813L516.048 736.806C515.969 736.994 515.831 737.155 515.654 737.268C515.476 737.38 515.266 737.439 515.052 737.437Z" fill="#E2EAFF"/>
<path d="M524.98 724.438H507.02C506.75 724.438 506.49 724.332 506.299 724.145C506.107 723.957 506 723.703 506 723.438C506 723.172 506.107 722.918 506.299 722.73C506.49 722.543 506.75 722.438 507.02 722.438H524.98C525.25 722.438 525.51 722.543 525.701 722.73C525.893 722.918 526 723.172 526 723.438C526 723.703 525.893 723.957 525.701 724.145C525.51 724.332 525.25 724.438 524.98 724.438Z" fill="#E2EAFF"/>
<path d="M522.98 730.438H505.02C504.75 730.438 504.49 730.332 504.299 730.145C504.107 729.957 504 729.703 504 729.438C504 729.172 504.107 728.918 504.299 728.73C504.49 728.543 504.75 728.438 505.02 728.438H522.98C523.25 728.438 523.51 728.543 523.701 728.73C523.893 728.918 524 729.172 524 729.438C524 729.703 523.893 729.957 523.701 730.145C523.51 730.332 523.25 730.438 522.98 730.438Z" fill="#E2EAFF"/>
<path d="M432 771.437L393 770.601L399.009 731.438H427.463L432 771.437Z" fill="white"/>
<path d="M431.603 771.437L393.395 770.597C393.338 770.596 393.281 770.582 393.229 770.557C393.177 770.532 393.131 770.496 393.094 770.452C393.058 770.407 393.031 770.355 393.015 770.299C393 770.243 392.996 770.185 393.004 770.127L398.893 730.785C398.907 730.688 398.955 730.6 399.028 730.536C399.101 730.472 399.195 730.437 399.291 730.438H427.166C427.267 730.437 427.364 730.475 427.438 730.544C427.513 730.613 427.559 730.707 427.568 730.809L431.998 770.981C432.004 771.039 431.998 771.097 431.98 771.153C431.962 771.208 431.933 771.259 431.895 771.302C431.858 771.344 431.813 771.377 431.763 771.4C431.713 771.424 431.658 771.436 431.603 771.437ZM393.863 769.79L431.15 770.61L426.797 731.267H399.629L393.863 769.79Z" fill="black"/>
<path d="M445 721.808C445.012 720.764 444.787 719.732 444.343 718.786C443.898 717.841 443.245 717.007 442.431 716.346C443.89 714.279 444.667 711.813 444.653 709.289C444.653 702.932 439.921 697.778 434.086 697.778C433.722 697.778 433.357 697.798 432.995 697.839C431.884 692.392 427.428 688.317 422.093 688.317C419.61 688.328 417.211 689.211 415.322 690.809C413.794 687.617 410.729 685.438 407.194 685.438C402.736 685.438 399.023 688.904 398.201 693.498C397.037 693.117 395.819 692.923 394.593 692.923C387.632 692.923 382 699.069 382 706.65C381.983 709.753 382.968 712.78 384.811 715.287C384.465 716.324 384.289 717.409 384.291 718.502C384.291 721.973 386.028 725 388.606 726.616C387.776 727.997 387.341 729.577 387.347 731.186C387.347 735.781 390.765 739.506 394.984 739.506C395.092 739.506 395.197 739.493 395.305 739.488C395.18 740.024 395.118 740.573 395.119 741.123C395.119 744.799 397.855 747.778 401.231 747.778C402.474 747.774 403.682 747.368 404.672 746.62C405.9 748.333 407.807 749.438 409.955 749.438C410.839 749.431 411.712 749.242 412.518 748.883C413.325 748.525 414.047 748.004 414.641 747.353C415.768 748.336 417.215 748.881 418.715 748.888C420.785 748.888 422.632 747.851 423.847 746.231C424.798 746.988 425.981 747.403 427.201 747.409C430.388 747.409 432.971 744.595 432.971 741.123C432.971 740.987 432.96 740.853 432.953 740.719C436.918 740.364 440.036 736.753 440.036 732.342C440.039 731.026 439.75 729.726 439.192 728.532C442.42 728.327 445 725.399 445 721.808Z" fill="black"/>
<path d="M342.509 763.7C381.409 755.142 447.188 755.205 482.357 764.816C525.463 776.606 611.178 829.417 589.563 864.633C569.388 897.497 497.524 854.077 497.524 854.077V880.348C497.525 881.541 497.29 882.723 496.833 883.826C496.376 884.929 495.706 885.931 494.862 886.775C494.018 887.619 493.015 888.289 491.912 888.746C490.809 889.202 489.626 889.437 488.432 889.437H331.385C330.19 889.438 329.008 889.203 327.904 888.746C326.801 888.289 325.798 887.62 324.954 886.776C324.109 885.932 323.439 884.929 322.982 883.826C322.525 882.723 322.29 881.541 322.291 880.348V851.271C322.291 851.271 250.397 898.632 227.636 867.034C198.812 827.017 312.616 770.273 342.509 763.7Z" fill="#5479F7"/>
<path d="M497.587 854.434C497.484 854.434 497.384 854.396 497.308 854.328C497.232 854.26 497.184 854.166 497.175 854.065C494.732 824.826 485.116 794.273 485.019 793.965C484.986 793.862 484.996 793.751 485.048 793.655C485.099 793.56 485.186 793.488 485.291 793.456C485.396 793.424 485.51 793.434 485.607 793.484C485.704 793.534 485.777 793.62 485.81 793.723C485.906 794.03 495.555 824.671 497.999 853.998C498.008 854.105 497.973 854.212 497.903 854.294C497.832 854.376 497.732 854.428 497.623 854.437L497.587 854.434Z" fill="black"/>
<path d="M322.411 851.438H322.377C322.268 851.428 322.168 851.377 322.097 851.295C322.027 851.213 321.993 851.107 322.001 851C324.444 821.674 334.092 791.027 334.19 790.728C334.206 790.677 334.232 790.628 334.266 790.587C334.301 790.545 334.344 790.511 334.392 790.485C334.44 790.46 334.493 790.444 334.548 790.439C334.602 790.434 334.657 790.44 334.71 790.456C334.762 790.472 334.811 790.498 334.852 790.533C334.894 790.567 334.929 790.61 334.954 790.657C334.979 790.705 334.994 790.758 334.999 790.811C335.003 790.865 334.997 790.919 334.979 790.97C334.882 791.274 325.262 821.831 322.824 851.065C322.816 851.167 322.769 851.261 322.692 851.331C322.615 851.4 322.515 851.438 322.411 851.438Z" fill="black"/>
<path d="M647.478 850.202C647.478 850.202 659.992 847.374 666.815 841.073C673.638 834.771 677.484 823.478 677.484 823.478C672.738 824.386 668.059 825.614 663.48 827.153C662.359 828.35 660.215 830.813 659.241 833.134C659.123 831.711 659.112 830.28 659.209 828.855C657.607 829.553 656.11 830.468 654.758 831.574C649.083 836.522 647.478 850.202 647.478 850.202Z" fill="#FFC727"/>
<path d="M669.687 828.964C671.39 827.789 673.121 826.653 674.818 825.462C674.835 825.447 674.847 825.426 674.85 825.403C674.853 825.38 674.848 825.356 674.836 825.337C674.823 825.317 674.804 825.303 674.782 825.296C674.76 825.289 674.736 825.29 674.715 825.299C671.494 827.218 668.322 829.274 665.253 831.421C664.165 832.172 663.131 832.949 662.092 833.748L662.31 833.379C662.685 832.748 663.082 832.134 663.474 831.519C664.26 830.27 665.148 829.087 666.129 827.985C666.162 827.941 666.102 827.882 666.064 827.925C665.095 829.045 664.121 830.154 663.235 831.345C662.81 831.889 662.424 832.492 662.048 833.09C661.853 833.406 661.668 833.716 661.504 834.037L661.314 834.357C659.682 835.624 658.131 836.945 656.629 838.343C655.701 839.206 654.807 840.099 653.947 841.023C654.426 839.512 654.85 837.984 655.411 836.5C655.413 836.493 655.414 836.486 655.413 836.479C655.412 836.472 655.41 836.465 655.406 836.46C655.402 836.454 655.396 836.449 655.39 836.446C655.384 836.443 655.377 836.441 655.37 836.441C655.363 836.441 655.356 836.443 655.35 836.446C655.343 836.449 655.338 836.454 655.334 836.46C655.33 836.465 655.328 836.472 655.327 836.479C655.326 836.486 655.327 836.493 655.329 836.5C654.785 838.06 654.186 839.626 653.767 841.23C652.81 842.263 651.896 843.329 651.047 844.443C651.047 844.378 651.074 844.307 651.091 844.242C651.232 843.655 651.379 843.068 651.537 842.481C651.841 841.355 652.173 840.23 652.554 839.126C653.273 836.826 654.412 834.678 655.911 832.791C655.944 832.753 655.884 832.694 655.846 832.737C653.408 835.619 651.977 839.082 651.063 842.714C650.933 843.258 650.802 843.802 650.683 844.313C650.617 844.601 650.547 844.889 650.498 845.177C650.117 845.689 649.747 846.205 649.409 846.732C647.284 849.978 645.513 853.441 644.126 857.063C642.566 861.145 641.229 865.309 640.122 869.536C640.122 869.618 640.225 869.645 640.252 869.536C642.695 862.234 645.187 854.856 649.371 848.298C650.254 846.923 651.206 845.593 652.222 844.313C654.291 844.178 656.332 843.773 658.294 843.106C660.439 842.384 662.485 841.396 664.383 840.164C665.463 839.436 666.504 838.65 667.5 837.81C667.506 837.807 667.511 837.803 667.515 837.798C667.519 837.792 667.522 837.786 667.523 837.78C667.524 837.774 667.524 837.767 667.522 837.761C667.521 837.754 667.518 837.748 667.514 837.743C667.51 837.738 667.504 837.734 667.498 837.732C667.492 837.729 667.486 837.728 667.479 837.728C667.473 837.728 667.467 837.73 667.461 837.732C667.455 837.735 667.45 837.74 667.446 837.745C665.703 839.152 663.778 840.317 661.722 841.208C659.704 842.135 657.591 842.843 655.422 843.318C654.502 843.519 653.566 843.671 652.63 843.796C653.784 842.372 655.014 841.011 656.314 839.718C656.733 839.3 657.168 838.897 657.603 838.49C659.059 837.47 660.606 836.586 662.223 835.847C664.268 834.858 666.281 833.808 668.305 832.781C669.448 832.199 670.585 831.606 671.739 831.046C671.788 831.019 671.739 830.948 671.69 830.97C669.638 831.965 667.555 832.889 665.482 833.835C663.534 834.727 661.559 835.624 659.687 836.674L659.453 836.815C661.145 835.347 662.897 833.944 664.687 832.59C666.298 831.367 667.99 830.144 669.687 828.964Z" fill="#263238"/>
<path d="M668.975 835.402C667.957 835.842 666.924 836.239 665.923 836.707C664.921 837.174 663.904 837.756 662.925 838.338C662.917 838.343 662.912 838.351 662.91 838.361C662.909 838.37 662.91 838.379 662.915 838.387C662.92 838.395 662.927 838.401 662.936 838.404C662.945 838.407 662.954 838.407 662.963 838.403C663.958 837.924 664.97 837.479 665.955 836.984C666.94 836.489 667.963 835.934 669.002 835.483C669.078 835.461 669.024 835.38 668.975 835.402Z" fill="#263238"/>
<path d="M606.911 787.309C609.217 790.284 610.524 793.911 610.644 797.673C610.682 798.793 610.508 800.353 610.377 802.186C615.034 804.67 618.538 809.145 618.538 809.145C615.894 807.558 612.26 806.916 610.301 807.177C610.365 808.431 610.525 809.677 610.78 810.907C611.645 810.858 613.315 810.972 616.074 811.951C614.434 811.935 612.81 812.259 611.302 812.902C613.527 819.971 620.143 827.251 638.414 830.339C638.414 830.339 641.939 817.943 635.182 804.643C629.692 793.877 606.911 787.309 606.911 787.309Z" fill="#FFC727"/>
<path d="M644.73 860.646C644.415 857.623 644.012 854.606 643.544 851.604C642.622 845.586 641.393 839.619 639.861 833.727C639.147 830.957 638.266 828.234 637.222 825.571C637.276 825.085 637.299 824.597 637.293 824.108C637.293 823.526 637.293 822.939 637.293 822.357C637.293 821.183 637.227 820.019 637.13 818.85C636.942 816.542 636.566 814.252 636.003 812.005C635.671 810.706 635.28 809.422 634.915 808.134C634.91 808.124 634.902 808.117 634.893 808.113C634.883 808.109 634.873 808.109 634.863 808.112C634.853 808.116 634.844 808.122 634.839 808.131C634.834 808.14 634.832 808.151 634.833 808.161C635.437 810.398 635.884 812.675 636.172 814.974C636.502 817.244 636.707 819.531 636.787 821.825C636.787 822.455 636.819 823.081 636.825 823.711C636.825 823.978 636.825 824.255 636.825 824.516C635.915 822.337 634.876 820.215 633.713 818.16C631.856 814.895 629.765 811.77 627.456 808.808C627.45 808.462 627.401 808.119 627.309 807.786C627.222 807.378 627.135 806.97 627.042 806.562C626.852 805.73 626.645 804.899 626.416 804.078C625.965 802.446 625.366 800.815 624.844 799.184C624.841 799.176 624.835 799.169 624.828 799.163C624.821 799.158 624.812 799.156 624.803 799.156C624.794 799.156 624.786 799.158 624.778 799.163C624.771 799.169 624.766 799.176 624.762 799.184C625.247 800.815 625.568 802.479 625.938 804.126C626.123 804.937 626.302 805.758 626.482 806.568L626.743 807.791V807.884C626.017 806.956 625.263 806.039 624.48 805.132C620.987 801.044 617.162 797.27 613.315 793.524C612.842 793.062 612.352 792.616 611.873 792.159C611.835 792.121 611.775 792.159 611.813 792.224C615.497 796.03 619.12 799.94 622.548 804.001C623.364 804.969 624.18 805.943 624.958 806.932L623.712 806.106C622.624 805.41 621.569 804.735 620.448 804.116C619.327 803.496 618.223 802.887 617.085 802.321C615.948 801.756 614.659 801.272 613.533 800.614C613.484 800.587 613.44 800.668 613.489 800.69C614.645 801.222 615.759 801.838 616.824 802.533C617.912 803.191 619.044 803.855 620.138 804.551C621.231 805.247 622.314 805.899 623.359 806.595C624.246 807.171 625.122 807.802 626.047 808.335C628.165 811.054 630.12 813.898 631.901 816.85C633.006 818.709 634.016 820.623 634.926 822.586L634.268 822.298L632.625 821.585C631.536 821.107 630.448 820.645 629.393 820.172C627.341 819.285 625.258 818.464 623.25 817.486C622.122 816.954 621.032 816.347 619.985 815.67C619.942 815.637 619.898 815.713 619.942 815.74C623.691 818.323 627.891 820.139 632.037 821.977L633.838 822.771C634.328 822.988 634.823 823.233 635.334 823.423C636.562 826.167 637.595 828.994 638.424 831.883C640.065 837.698 641.398 843.595 642.418 849.549C643.463 855.53 644.17 861.511 644.72 867.552C644.79 868.302 644.856 869.052 644.943 869.803C644.951 869.859 644.98 869.911 645.023 869.948C645.067 869.985 645.122 870.006 645.179 870.006C645.237 870.006 645.292 869.985 645.335 869.948C645.379 869.911 645.407 869.859 645.416 869.803C645.362 866.731 645.051 863.664 644.73 860.646Z" fill="#263238"/>
<path d="M633.615 810.195C633.277 808.34 632.782 806.524 632.282 804.708C632.282 804.654 632.189 804.676 632.2 804.708C632.663 806.492 632.994 808.313 633.332 810.146C633.669 811.978 633.974 813.843 634.235 815.702C634.235 815.735 634.289 815.735 634.284 815.702C634.165 813.855 633.941 812.017 633.615 810.195Z" fill="#263238"/>
<path d="M625.736 815.229C624.466 814.394 623.138 813.647 621.765 812.995C621.101 812.652 620.426 812.326 619.751 812C619.077 811.673 618.331 811.38 617.64 811.032C617.631 811.029 617.621 811.03 617.611 811.034C617.602 811.038 617.595 811.045 617.591 811.054C617.586 811.063 617.585 811.073 617.587 811.083C617.589 811.093 617.595 811.102 617.602 811.108C618.266 811.445 618.903 811.847 619.561 812.195L621.585 813.283C622.924 814 624.235 814.794 625.638 815.376C625.656 815.377 625.674 815.373 625.69 815.365C625.705 815.357 625.719 815.345 625.729 815.33C625.739 815.315 625.744 815.298 625.746 815.281C625.747 815.263 625.744 815.245 625.736 815.229Z" fill="#263238"/>
<path opacity="0.1" d="M647.707 828.567C647.707 828.567 659.263 825.81 664.573 818.062C669.644 810.662 671.282 798.053 671.412 796.944C671.2 797.961 668.817 808.982 660.95 814.115C654.932 818.068 649.099 821.303 647.707 828.567Z" fill="#263238"/>
<path d="M658.376 808.629C656.32 810.517 654.841 812.949 654.111 815.643C654.111 815.643 654.143 815.681 654.149 815.643C654.999 813.014 656.467 810.627 658.431 808.683C658.469 808.656 658.414 808.591 658.376 808.629Z" fill="#263238"/>
<path d="M647.707 828.567C647.707 828.567 659.263 825.81 664.573 818.062C669.644 810.662 671.282 798.053 671.412 796.944C671.415 796.917 671.415 796.89 671.412 796.863C671.412 796.863 665.874 804.736 660.046 806.747C654.219 808.759 646.036 815.713 647.707 828.567Z" fill="#FFC727"/>
<path d="M669.372 801.223C668.34 803.344 667.151 805.385 665.814 807.329C664.466 809.175 662.865 810.822 661.058 812.223C659.492 813.468 657.832 814.599 656.243 815.817L656.276 815.762C656.575 815.316 656.896 814.887 657.223 814.468C657.886 813.625 658.61 812.837 659.339 812.038C660.776 810.483 662.239 808.955 663.529 807.269C664.241 806.337 664.861 805.337 665.379 804.284C665.406 804.235 665.324 804.208 665.297 804.257C663.425 808.161 659.682 810.657 657.01 813.952C656.63 814.425 656.271 814.909 655.922 815.414C655.659 815.786 655.436 816.185 655.259 816.605C653.795 817.774 652.473 819.11 651.319 820.585C651.418 819.828 651.573 819.079 651.782 818.345C652.052 817.318 652.464 816.333 653.006 815.42C653.033 815.371 652.962 815.327 652.935 815.371C652.375 816.285 651.923 817.262 651.586 818.28C651.342 819.089 651.201 819.925 651.167 820.77C650.596 821.544 650.074 822.354 649.605 823.195C649.654 822.95 649.698 822.7 649.747 822.455C649.975 821.303 650.231 820.155 650.53 819.025C651.071 816.705 652.012 814.497 653.311 812.5C653.343 812.456 653.273 812.407 653.24 812.451C651.913 814.415 650.876 816.559 650.16 818.818C649.79 819.949 649.497 821.102 649.235 822.265C649.11 822.836 648.996 823.407 648.887 823.978C648.827 824.271 648.768 824.576 648.719 824.88C647.571 827.395 646.678 830.018 646.053 832.71C644.916 837.518 644.093 842.394 643.588 847.309C642.989 852.457 642.722 857.639 642.788 862.821C642.788 863.468 642.837 864.121 642.87 864.768C642.87 864.936 643.131 864.958 643.136 864.768C643.251 862.201 643.316 859.64 643.468 857.08C643.621 854.519 643.844 851.958 644.121 849.408C644.647 844.39 645.449 839.406 646.526 834.477C647.467 830.252 648.702 826 650.987 822.303C652.135 820.462 653.54 818.794 655.161 817.35C656.793 815.893 658.55 814.631 660.259 813.277C661.985 811.962 663.555 810.453 664.938 808.781C666.351 806.909 667.583 804.906 668.616 802.8C668.888 802.256 669.16 801.761 669.443 801.239C669.465 801.223 669.394 801.174 669.372 801.223Z" fill="#263238"/>
<path d="M667.375 802.914C666.619 804.471 665.759 805.975 664.802 807.416C664.802 807.449 664.829 807.481 664.856 807.449C665.847 806.021 666.717 804.514 667.457 802.941C667.479 802.892 667.397 802.865 667.375 802.914Z" fill="#263238"/>
<path d="M605.301 823.478C605.301 823.478 605.116 839.887 614.936 844.629C624.757 849.37 630.018 845.417 636.7 847.005C636.444 846.613 631.683 839.768 624.11 837.886C616.302 835.94 607.662 830.318 605.301 823.478Z" fill="#FFC727"/>
<path opacity="0.1" d="M605.301 823.478C605.301 823.478 605.116 839.887 614.936 844.629C624.757 849.37 630.018 845.417 636.7 847.005C633.177 845.326 629.411 844.214 625.541 843.71C619.327 842.959 607.493 838.93 605.301 823.478Z" fill="#263238"/>
<path d="M637.336 847.298C636.169 846.235 634.856 845.345 633.435 844.656C633.223 844.552 633.005 844.471 632.793 844.378C632.69 844.248 632.576 844.123 632.461 844.003C632.168 843.699 631.863 843.405 631.536 843.128C630.923 842.594 630.262 842.117 629.561 841.703C627.929 840.746 626.155 840.072 624.491 839.191C624.442 839.164 624.398 839.24 624.447 839.262C625.269 839.692 626.079 840.159 626.868 840.627C627.657 841.094 628.441 841.513 629.197 842.002C629.878 842.441 630.528 842.928 631.139 843.46C631.313 843.612 631.482 843.775 631.645 843.943C630.56 843.574 629.451 843.28 628.326 843.063C626.531 842.698 624.714 842.443 622.918 842.057C622.037 841.87 621.168 841.635 620.312 841.355C619.496 840.697 618.68 840.05 617.913 839.338C616.979 838.483 616.128 837.542 615.372 836.527C615.339 836.478 615.268 836.527 615.301 836.571C616.493 838.179 617.841 839.665 619.327 841.007C618.903 840.848 618.484 840.667 618.07 840.464C614.699 838.952 611.805 836.547 609.702 833.509C609.675 833.466 609.599 833.509 609.632 833.553C611.413 836.171 613.717 838.393 616.4 840.078C617.744 840.912 619.179 841.591 620.676 842.1C622.418 842.638 624.194 843.058 625.992 843.356C627.755 843.642 629.495 844.055 631.199 844.591C632.76 845.125 634.229 845.899 635.552 846.885C638.052 848.827 640.065 851.323 641.433 854.176C643.294 857.901 644.181 862.066 644.698 866.176C644.698 866.35 644.992 866.35 644.975 866.176C644.507 859.266 642.663 852.088 637.336 847.298Z" fill="#263238"/>
<path d="M625.943 841.948C625.431 841.181 624.738 840.552 623.925 840.115C622.992 839.632 622.174 838.956 621.525 838.131C621.493 838.087 621.416 838.131 621.449 838.174C622.039 838.927 622.757 839.569 623.571 840.072C624.464 840.544 625.251 841.194 625.883 841.98C625.911 842.018 625.97 841.986 625.943 841.948Z" fill="#263238"/>
<path d="M631.156 859.412L631.602 868.432L632.973 896.01H653.572L654.943 868.432L655.389 859.412H631.156Z" fill="#37474F"/>
<path d="M631.156 859.412L631.602 868.432H654.943L655.389 859.412H631.156Z" fill="#263238"/>
<path d="M629.708 864.251H656.831V855.644H629.708V864.251Z" fill="#37474F"/>
<path d="M668.926 437.976H668.707C592.871 435.615 517.032 433.246 441.19 430.869L437.01 430.74C435.091 430.679 433.275 429.859 431.959 428.461C430.644 427.062 429.937 425.198 429.993 423.279C431.486 371.258 431.583 318.559 430.282 266.665C430.193 263.017 430.097 259.37 429.993 255.722C429.94 253.801 430.65 251.937 431.966 250.537C433.282 249.138 435.099 248.315 437.02 248.25L668.707 241.003C669.625 240.975 670.54 241.131 671.396 241.462C672.253 241.794 673.034 242.294 673.694 242.934C675.24 244.423 676.133 246.463 676.18 248.609C676.302 252.561 676.402 256.526 676.502 260.484C677.917 316.992 677.809 374.152 676.18 430.379C676.132 432.52 675.239 434.556 673.695 436.042C672.412 437.274 670.705 437.967 668.926 437.976ZM668.926 241.775H668.734L437.047 249.018C435.331 249.076 433.709 249.811 432.533 251.062C431.357 252.312 430.723 253.977 430.77 255.693C430.871 259.341 430.968 262.989 431.059 266.636C432.36 318.55 432.264 371.256 430.77 423.293C430.719 425.007 431.35 426.671 432.525 427.92C433.7 429.17 435.322 429.902 437.036 429.956L441.214 430.087C517.05 432.461 592.889 434.83 668.731 437.195C670.378 437.23 671.971 436.611 673.163 435.475C674.557 434.131 675.362 432.291 675.405 430.356C677.033 374.144 677.142 316.998 675.726 260.504C675.624 256.546 675.517 252.588 675.405 248.632C675.363 246.692 674.557 244.847 673.162 243.499C672.023 242.402 670.506 241.785 668.924 241.775H668.926Z" fill="#2096FC"/>
<path d="M671.027 265.777C672.445 322.395 672.339 379.021 670.708 435.654C670.589 439.757 667.41 442.995 663.631 442.876L431.936 435.637C430.119 435.577 428.399 434.799 427.153 433.474C425.908 432.149 425.238 430.384 425.29 428.566C426.798 376.368 426.896 324.159 425.585 271.939L671.027 265.777Z" fill="#ABC0C9"/>
<path d="M670.709 253.909C670.823 257.86 670.93 261.817 671.03 265.778L425.579 271.938C425.487 268.29 425.389 264.642 425.284 260.995C425.23 259.174 425.9 257.407 427.147 256.081C428.394 254.754 430.116 253.976 431.936 253.918L663.627 246.682C667.416 246.562 670.59 249.796 670.709 253.909Z" fill="#CAD5FF"/>
<path d="M472.304 261.712C472.313 262.438 472.108 263.15 471.714 263.759C471.32 264.368 470.755 264.848 470.09 265.137C469.424 265.426 468.688 265.512 467.974 265.384C467.26 265.256 466.599 264.92 466.076 264.418C465.552 263.916 465.188 263.27 465.03 262.562C464.872 261.854 464.927 261.115 465.188 260.437C465.449 259.76 465.904 259.175 466.496 258.756C467.088 258.337 467.791 258.102 468.516 258.081C469.003 258.07 469.488 258.156 469.942 258.333C470.396 258.509 470.811 258.774 471.163 259.111C471.515 259.448 471.796 259.852 471.992 260.298C472.188 260.744 472.294 261.225 472.304 261.712Z" fill="#ABC0C9"/>
<path d="M457.437 262.131C457.45 262.858 457.248 263.572 456.857 264.183C456.465 264.795 455.901 265.277 455.236 265.569C454.571 265.861 453.834 265.95 453.119 265.824C452.403 265.698 451.741 265.363 451.215 264.862C450.69 264.36 450.325 263.714 450.165 263.006C450.006 262.297 450.06 261.557 450.32 260.879C450.581 260.2 451.036 259.615 451.629 259.195C452.221 258.775 452.925 258.539 453.651 258.519C454.137 258.507 454.621 258.591 455.074 258.766C455.527 258.942 455.941 259.205 456.293 259.54C456.645 259.876 456.927 260.277 457.123 260.722C457.319 261.167 457.426 261.646 457.437 262.131Z" fill="#ABC0C9"/>
<path d="M442.57 262.549C442.587 263.276 442.388 263.992 441.999 264.607C441.61 265.221 441.047 265.706 440.382 266.001C439.718 266.296 438.981 266.387 438.264 266.264C437.547 266.14 436.883 265.807 436.356 265.306C435.828 264.806 435.461 264.16 435.3 263.451C435.139 262.742 435.192 262.001 435.452 261.321C435.711 260.642 436.166 260.055 436.759 259.634C437.353 259.213 438.057 258.977 438.784 258.956C439.268 258.943 439.751 259.026 440.203 259.2C440.656 259.373 441.07 259.634 441.421 259.968C441.773 260.302 442.055 260.702 442.252 261.145C442.45 261.587 442.557 262.065 442.57 262.549Z" fill="#ABC0C9"/>
<path d="M479.413 292.07C480.141 332.893 480.023 373.718 479.061 414.545C479.053 415.081 478.939 415.609 478.727 416.101C478.515 416.592 478.208 417.037 477.823 417.41C477.439 417.782 476.985 418.076 476.487 418.273C475.989 418.47 475.457 418.567 474.922 418.558L446.281 417.842C445.207 417.811 444.189 417.356 443.45 416.575C442.711 415.794 442.313 414.752 442.342 413.678C443.293 373.366 443.41 333.049 442.691 292.725C442.669 291.65 443.073 290.611 443.816 289.834C444.559 289.058 445.579 288.608 446.654 288.583L475.302 288.033C475.837 288.028 476.368 288.128 476.865 288.328C477.361 288.528 477.813 288.824 478.195 289.199C478.577 289.574 478.881 290.02 479.09 290.513C479.299 291.006 479.409 291.535 479.413 292.07Z" fill="#ABC0C9"/>
<path d="M544.309 341.619C536.172 350.091 522.979 350.04 514.839 341.66C506.698 333.281 506.632 319.754 514.653 311.284C519.757 305.916 526.903 303.852 533.557 305.204C537.58 306.008 541.265 308.014 544.122 310.959C547.051 313.948 549.056 317.718 549.898 321.817C551.32 328.732 549.457 336.25 544.309 341.619Z" fill="#2096FC"/>
<path d="M549.897 321.811C543.103 323.343 536.308 324.863 529.513 326.371C530.886 319.322 532.233 312.262 533.555 305.193C537.579 305.996 541.264 308.003 544.121 310.947C547.051 313.938 549.056 317.71 549.897 321.811Z" fill="#ABC0C9"/>
<path d="M644.536 382.13C644.396 393.869 644.189 405.608 643.916 417.347L503.059 414.07C503.299 403.735 503.485 393.4 503.618 383.064C503.633 383.029 520.453 400.543 539.774 396.462C559.117 392.358 559.341 384.77 576.923 393.316C616.591 412.874 644.569 382.265 644.536 382.13Z" fill="#B4C2F7"/>
<path d="M653.113 288.082C653.259 296.196 653.375 304.311 653.46 312.428C653.48 314.315 652.074 315.856 650.325 315.872L626.02 316.097C624.27 316.113 622.837 314.613 622.819 312.745C622.735 304.708 622.62 296.672 622.475 288.637C622.442 286.77 623.83 285.229 625.579 285.196L649.881 284.728C651.63 284.694 653.08 286.199 653.113 288.082Z" fill="#ABC0C9"/>
<path d="M596.62 285.7L614.151 285.363Z" fill="#CAD5FF"/>
<path d="M577.091 286.076L591.733 285.794Z" fill="#CAD5FF"/>
<path d="M596.015 301.033L614.405 300.77Z" fill="#CAD5FF"/>
<path d="M577.345 301.297L589.352 301.127Z" fill="#CAD5FF"/>
<path d="M577.524 316.521L614.868 316.176Z" fill="#CAD5FF"/>
<path d="M643.363 330.795L650.949 330.76Z" fill="#CAD5FF"/>
<path d="M597.927 330.999L637.967 330.819Z" fill="#CAD5FF"/>
<path d="M577.625 331.09L592.268 331.023Z" fill="#CAD5FF"/>
<path d="M631.619 346.341L650.98 346.35Z" fill="#CAD5FF"/>
<path d="M600.011 346.324L627.094 346.337Z" fill="#CAD5FF"/>
<path d="M641.253 361.889L650.933 361.942Z" fill="#CAD5FF"/>
<path d="M614.813 361.738L635.27 361.85Z" fill="#CAD5FF"/>
<path d="M577.609 361.537L608.074 361.704Z" fill="#CAD5FF"/>
<path d="M449.134 296.694L472.468 296.311Z" fill="#CAD5FF"/>
<path d="M449.297 307.912L472.632 307.618Z" fill="#CAD5FF"/>
<path d="M449.417 319.13L472.752 318.927Z" fill="#CAD5FF"/>
<path d="M449.494 330.348L472.829 330.234Z" fill="#CAD5FF"/>
<path d="M449.528 341.568L472.865 341.542Z" fill="#CAD5FF"/>
<path d="M449.518 352.786L472.855 352.85Z" fill="#CAD5FF"/>
<path d="M449.473 364.006L472.81 364.158Z" fill="#CAD5FF"/>
<path d="M449.371 375.225L472.706 375.468Z" fill="#CAD5FF"/>
<path d="M449.233 386.443L472.567 386.774Z" fill="#CAD5FF"/>
<path d="M449.052 397.66L472.384 398.082Z" fill="#CAD5FF"/>
<path d="M448.827 408.878L472.158 409.388Z" fill="#CAD5FF"/>
<path d="M587.456 259.775L659.085 257.769C659.761 257.769 659.845 256.687 659.052 256.661L587.445 258.667C587.303 258.676 587.17 258.739 587.073 258.843C586.976 258.947 586.923 259.084 586.924 259.226C586.926 259.369 586.982 259.505 587.081 259.607C587.179 259.709 587.314 259.769 587.456 259.775Z" fill="#031951"/>
<path d="M475.295 287.483L446.648 288.022C445.426 288.053 444.266 288.566 443.421 289.448C442.576 290.331 442.114 291.512 442.136 292.734C442.856 332.868 442.734 373.547 441.791 413.66C441.757 414.881 442.21 416.067 443.05 416.955C443.891 417.842 445.049 418.36 446.271 418.394L474.906 419.114H475.029C476.199 419.113 477.322 418.66 478.166 417.85C478.613 417.424 478.972 416.914 479.221 416.349C479.47 415.784 479.606 415.175 479.619 414.558C480.172 391.43 480.438 368.115 480.438 344.821C480.438 327.19 480.283 309.602 479.973 292.058C479.968 291.45 479.843 290.849 479.604 290.289C479.366 289.73 479.02 289.223 478.585 288.798C478.15 288.373 477.636 288.038 477.071 287.812C476.507 287.586 475.903 287.474 475.295 287.483ZM478.509 414.527C478.5 414.999 478.398 415.465 478.207 415.897C478.017 416.329 477.743 416.719 477.401 417.044C477.075 417.359 476.689 417.607 476.267 417.772C475.844 417.938 475.393 418.018 474.939 418.008L446.292 417.288C445.366 417.26 444.489 416.867 443.853 416.194C443.217 415.52 442.874 414.622 442.9 413.696C443.842 373.56 443.964 332.861 443.244 292.713C443.225 291.784 443.575 290.886 444.217 290.214C444.859 289.543 445.741 289.153 446.669 289.13L475.383 288.588C476.306 288.598 477.188 288.97 477.839 289.624C478.49 290.277 478.859 291.161 478.865 292.084C479.585 332.707 479.475 373.905 478.509 414.527Z" fill="#031951"/>
<path d="M494.863 357.482C494.85 359.761 496.67 361.64 498.919 361.651L560.168 361.994C562.331 361.994 564.224 360.152 564.224 357.77C564.331 336.966 564.191 313.086 563.759 290.018C563.714 287.586 561.771 285.804 559.613 285.849C469.365 287.59 588.16 285.302 498.416 287.024C496.165 287.07 494.381 288.976 494.413 291.271C494.806 313.238 494.961 335.51 494.863 357.482ZM498.433 288.134C550.601 287.131 559.529 286.96 559.681 286.959C561.267 286.959 562.619 288.298 562.642 290.04C563.028 311.8 563.223 333.619 563.107 357.77C563.107 359.562 561.7 360.886 560.136 360.886L498.928 360.543C498.13 360.528 497.371 360.197 496.816 359.623C496.261 359.05 495.956 358.28 495.968 357.482C496.068 335.507 495.913 313.222 495.512 291.249C495.495 289.567 496.791 288.175 498.433 288.137V288.134Z" fill="#031951"/>
<path d="M650.858 372.574C489.119 371.17 494.773 370.796 494.773 371.721C494.628 387.42 494.362 403.335 493.964 419.028C493.963 419.175 494.018 419.318 494.119 419.425C494.221 419.533 494.359 419.598 494.507 419.605C662.176 423.79 649.34 423.486 650.006 423.486C650.149 423.486 650.287 423.431 650.39 423.332C650.494 423.232 650.555 423.097 650.56 422.954C650.969 406.356 651.258 389.592 651.402 373.139C651.404 373.066 651.392 372.994 651.365 372.925C651.339 372.857 651.299 372.795 651.249 372.743C651.198 372.69 651.138 372.648 651.071 372.619C651.003 372.59 650.931 372.575 650.858 372.574ZM649.462 422.365L495.095 418.508C495.472 403.174 495.738 387.619 495.87 372.285L650.293 373.683C650.15 389.77 649.861 406.145 649.462 422.365Z" fill="#031951"/>
<path d="M544.707 342.007C556.908 329.277 550.069 307.884 533.665 304.656C526.592 303.226 519.33 305.554 514.253 310.898C506.07 319.534 506.147 333.516 514.441 342.056C522.838 350.68 536.357 350.68 544.707 342.007ZM549.186 321.176C549.208 321.253 549.219 321.328 549.242 321.396L530.217 325.652C531.481 319.177 532.744 312.524 533.998 305.861C541.503 307.743 547.064 313.052 549.186 321.176ZM515.05 311.663C519.833 306.647 526.543 304.519 532.911 305.642C528.846 327.463 528.739 326.383 529.13 326.769C529.196 326.831 529.275 326.877 529.362 326.902C529.448 326.927 529.54 326.931 529.629 326.913C536.237 325.449 542.844 323.967 549.452 322.467C551.8 335.426 542.308 347.35 529.641 347.403C529.528 347.378 521.738 347.973 515.239 341.272C507.357 333.163 507.28 319.878 515.05 311.663Z" fill="#031951"/>
<path d="M503.044 414.629C661.561 418.309 642.355 417.898 643.919 417.898C644.063 417.896 644.202 417.839 644.305 417.738C644.408 417.637 644.469 417.5 644.474 417.356C644.74 405.581 644.949 393.729 645.094 382.132H645.074C645.191 381.661 644.395 381.317 644.076 381.828C643.422 382.588 616.082 411.996 577.17 392.805C559.3 384.123 558.932 391.837 539.664 395.908C522.368 399.556 507.014 385.587 504.109 382.749C503.554 382.236 503.068 382.631 503.068 383.053C502.934 393.274 502.746 403.707 502.503 414.059C502.503 414.205 502.559 414.346 502.66 414.452C502.76 414.558 502.898 414.621 503.044 414.629ZM504.152 384.339C508.559 388.408 523.309 400.492 539.895 397C559.263 392.896 559.288 385.366 576.674 393.808C607.25 408.897 631.075 394.164 639.899 387.12C639.932 387.098 642.449 385.069 643.957 383.54C643.825 394.493 643.624 405.668 643.37 416.778L503.626 413.529C503.852 403.783 504.035 393.972 504.152 384.338V384.339Z" fill="#031951"/>
<path d="M649.872 284.178L625.572 284.644C623.52 284.677 621.88 286.467 621.924 288.645C622.067 296.64 622.178 304.756 622.268 312.749C622.289 314.911 623.953 316.651 625.993 316.651L650.327 316.431C652.464 316.405 654.041 314.523 654.019 312.427C653.93 304.39 653.819 296.196 653.664 288.069C653.643 285.987 652.006 284.128 649.872 284.178ZM650.316 315.321L625.999 315.543C624.569 315.543 623.394 314.291 623.382 312.737C623.294 304.744 623.183 296.626 623.038 288.624C623.005 287.072 624.159 285.774 625.599 285.753L649.938 285.286C651.447 285.286 652.534 286.618 652.555 288.092C652.707 296.207 652.821 304.401 652.909 312.438C652.911 313.95 651.842 315.295 650.316 315.321Z" fill="#031951"/>
<path d="M596.636 286.252L614.162 285.919C614.235 285.918 614.308 285.903 614.375 285.874C614.442 285.845 614.503 285.803 614.553 285.751C614.604 285.698 614.644 285.636 614.67 285.567C614.696 285.499 614.709 285.427 614.706 285.353C614.698 285.208 614.635 285.072 614.53 284.971C614.425 284.87 614.286 284.812 614.141 284.809L596.613 285.142C595.883 285.168 595.889 286.252 596.636 286.252Z" fill="#031951"/>
<path d="M577.089 286.629L591.747 286.35C591.892 286.343 592.029 286.281 592.13 286.176C592.231 286.071 592.288 285.931 592.289 285.785C592.274 285.642 592.209 285.51 592.105 285.41C592.002 285.311 591.867 285.252 591.724 285.242L577.079 285.519C577.006 285.52 576.934 285.535 576.867 285.563C576.8 285.592 576.739 285.633 576.688 285.685C576.637 285.737 576.597 285.799 576.57 285.866C576.542 285.934 576.529 286.006 576.529 286.079C576.53 286.152 576.545 286.224 576.574 286.291C576.602 286.358 576.644 286.419 576.696 286.47C576.748 286.521 576.809 286.561 576.877 286.588C576.944 286.616 577.016 286.629 577.089 286.629Z" fill="#031951"/>
<path d="M596.014 301.584H596.026L614.416 301.329C614.563 301.325 614.703 301.264 614.805 301.158C614.907 301.052 614.963 300.91 614.96 300.763C614.961 300.691 614.947 300.619 614.919 300.552C614.891 300.485 614.85 300.425 614.798 300.374C614.746 300.324 614.685 300.284 614.617 300.258C614.55 300.231 614.478 300.219 614.406 300.221L596.002 300.476C595.856 300.481 595.717 300.543 595.616 300.649C595.515 300.754 595.459 300.895 595.459 301.041C595.462 301.187 595.521 301.325 595.625 301.427C595.729 301.528 595.869 301.585 596.014 301.584Z" fill="#031951"/>
<path d="M589.364 301.685C589.437 301.684 589.509 301.669 589.576 301.64C589.643 301.612 589.703 301.57 589.754 301.518C589.805 301.466 589.845 301.405 589.873 301.337C589.9 301.269 589.913 301.197 589.912 301.124C589.912 301.051 589.896 300.979 589.868 300.912C589.839 300.845 589.798 300.785 589.746 300.734C589.694 300.683 589.632 300.643 589.564 300.615C589.497 300.588 589.424 300.575 589.352 300.575L577.334 300.743C577.188 300.748 577.049 300.81 576.948 300.915C576.846 301.021 576.79 301.162 576.79 301.308C576.793 301.453 576.853 301.591 576.957 301.693C577.06 301.794 577.2 301.851 577.345 301.851L589.364 301.685Z" fill="#031951"/>
<path d="M577.522 315.964C576.805 315.964 576.762 317.074 577.533 317.074L614.872 316.73C614.944 316.731 615.016 316.717 615.083 316.689C615.15 316.661 615.211 316.62 615.262 316.569C615.312 316.517 615.352 316.455 615.379 316.388C615.405 316.32 615.418 316.248 615.416 316.176C615.416 316.103 615.402 316.03 615.375 315.963C615.347 315.895 615.306 315.834 615.255 315.782C615.203 315.73 615.141 315.69 615.074 315.662C615.006 315.634 614.934 315.62 614.861 315.621L577.522 315.964Z" fill="#031951"/>
<path d="M650.948 331.32C651.096 331.317 651.237 331.256 651.34 331.15C651.444 331.044 651.502 330.902 651.502 330.754C651.501 330.682 651.487 330.611 651.459 330.545C651.43 330.478 651.39 330.418 651.338 330.368C651.287 330.317 651.226 330.278 651.159 330.251C651.092 330.224 651.02 330.211 650.948 330.212L643.365 330.245C643.292 330.244 643.219 330.258 643.152 330.286C643.084 330.313 643.023 330.354 642.972 330.405C642.92 330.457 642.879 330.518 642.852 330.586C642.824 330.653 642.81 330.726 642.811 330.798C642.812 330.945 642.87 331.086 642.974 331.19C643.077 331.294 643.218 331.352 643.365 331.353L650.948 331.32Z" fill="#031951"/>
<path d="M638.52 330.821C638.521 330.748 638.507 330.676 638.479 330.608C638.452 330.541 638.411 330.479 638.359 330.428C638.307 330.376 638.246 330.335 638.178 330.307C638.111 330.28 638.038 330.266 637.965 330.266L597.921 330.444C597.846 330.44 597.771 330.452 597.7 330.478C597.63 330.504 597.565 330.544 597.51 330.596C597.456 330.648 597.412 330.71 597.382 330.779C597.353 330.848 597.337 330.923 597.337 330.998C597.337 331.074 597.353 331.148 597.382 331.217C597.412 331.286 597.456 331.349 597.51 331.401C597.565 331.452 597.63 331.493 597.7 331.519C597.771 331.545 597.846 331.556 597.921 331.552H597.932L637.965 331.376C638.112 331.375 638.253 331.317 638.357 331.213C638.461 331.109 638.52 330.968 638.52 330.821Z" fill="#031951"/>
<path d="M592.821 331.02C592.821 330.874 592.762 330.733 592.659 330.63C592.555 330.526 592.414 330.467 592.268 330.467L577.623 330.532C577.476 330.532 577.335 330.591 577.231 330.695C577.127 330.799 577.068 330.94 577.068 331.087C577.068 331.234 577.127 331.375 577.231 331.479C577.335 331.583 577.476 331.642 577.623 331.642L592.268 331.575C592.341 331.576 592.413 331.562 592.481 331.534C592.548 331.506 592.609 331.465 592.661 331.414C592.712 331.362 592.753 331.301 592.781 331.233C592.808 331.166 592.822 331.093 592.821 331.02Z" fill="#031951"/>
<path d="M650.981 345.799L631.623 345.789C630.886 345.789 630.894 346.897 631.623 346.897L650.981 346.907C651.128 346.907 651.269 346.848 651.373 346.745C651.477 346.641 651.535 346.501 651.536 346.354C651.537 346.281 651.523 346.208 651.496 346.141C651.468 346.073 651.427 346.012 651.376 345.96C651.324 345.908 651.262 345.867 651.195 345.84C651.127 345.812 651.055 345.798 650.981 345.799Z" fill="#031951"/>
<path d="M627.101 345.789L600.017 345.766C599.87 345.767 599.73 345.825 599.626 345.929C599.522 346.033 599.463 346.174 599.463 346.321C599.462 346.394 599.476 346.466 599.503 346.534C599.531 346.601 599.572 346.663 599.623 346.714C599.675 346.766 599.737 346.807 599.804 346.834C599.872 346.862 599.944 346.875 600.017 346.874L627.101 346.897C627.247 346.895 627.387 346.835 627.49 346.732C627.594 346.628 627.653 346.489 627.655 346.342C627.655 346.195 627.596 346.055 627.492 345.951C627.388 345.848 627.247 345.789 627.101 345.789Z" fill="#031951"/>
<path d="M577.654 345.755C577.508 345.756 577.367 345.814 577.264 345.918C577.16 346.022 577.102 346.162 577.101 346.309C577.1 346.382 577.114 346.454 577.141 346.522C577.169 346.589 577.209 346.651 577.261 346.703C577.312 346.754 577.374 346.795 577.441 346.823C577.509 346.85 577.581 346.864 577.654 346.863L589.661 346.874C589.803 346.867 589.936 346.805 590.034 346.702C590.132 346.599 590.187 346.462 590.187 346.32C590.187 346.178 590.132 346.041 590.034 345.938C589.936 345.835 589.803 345.773 589.661 345.766L577.654 345.755Z" fill="#031951"/>
<path d="M650.937 361.387L641.258 361.332C640.527 361.332 640.521 362.44 641.247 362.44L650.937 362.495C651.084 362.493 651.223 362.434 651.326 362.331C651.43 362.227 651.489 362.088 651.491 361.942C651.492 361.869 651.478 361.796 651.451 361.729C651.423 361.661 651.383 361.599 651.331 361.548C651.279 361.496 651.218 361.455 651.15 361.428C651.083 361.4 651.01 361.386 650.937 361.387Z" fill="#031951"/>
<path d="M614.807 362.296L635.271 362.407C635.346 362.411 635.421 362.399 635.492 362.373C635.563 362.347 635.627 362.307 635.682 362.255C635.736 362.204 635.78 362.141 635.81 362.072C635.839 362.003 635.855 361.928 635.855 361.853C635.855 361.778 635.839 361.703 635.81 361.634C635.78 361.565 635.736 361.502 635.682 361.451C635.627 361.399 635.563 361.359 635.492 361.332C635.421 361.306 635.346 361.295 635.271 361.299L614.817 361.188C614.085 361.188 614.079 362.296 614.807 362.296Z" fill="#031951"/>
<path d="M577.593 362.087L608.07 362.263C608.217 362.261 608.356 362.202 608.459 362.099C608.563 361.996 608.622 361.856 608.624 361.71C608.625 361.637 608.611 361.564 608.584 361.497C608.556 361.429 608.516 361.368 608.464 361.316C608.412 361.264 608.351 361.223 608.283 361.196C608.216 361.168 608.143 361.154 608.07 361.155L577.61 360.977C577.463 360.978 577.322 361.036 577.218 361.14C577.114 361.244 577.056 361.385 577.055 361.532C577.053 361.677 577.109 361.817 577.21 361.921C577.311 362.025 577.449 362.084 577.593 362.087Z" fill="#031951"/>
<path d="M449.134 297.248C449.249 297.248 472.349 296.868 472.477 296.865C472.624 296.864 472.764 296.804 472.868 296.699C472.971 296.595 473.028 296.453 473.027 296.306C473.026 296.159 472.966 296.018 472.861 295.915C472.756 295.812 472.615 295.754 472.468 295.756C472.354 295.756 449.252 296.136 449.126 296.139C448.979 296.14 448.838 296.199 448.735 296.304C448.632 296.409 448.574 296.55 448.575 296.697C448.576 296.844 448.636 296.985 448.74 297.088C448.845 297.192 448.987 297.249 449.134 297.248Z" fill="#031951"/>
<path d="M449.291 307.357C449.143 307.357 449.002 307.415 448.898 307.519C448.794 307.623 448.736 307.764 448.736 307.911C448.736 308.058 448.794 308.2 448.898 308.304C449.002 308.408 449.143 308.466 449.291 308.466L472.626 308.171C473.348 308.162 473.363 307.069 472.612 307.063L449.291 307.357Z" fill="#031951"/>
<path d="M472.752 318.372L449.412 318.572C449.265 318.572 449.124 318.631 449.02 318.735C448.916 318.839 448.858 318.98 448.858 319.127C448.858 319.274 448.916 319.415 449.02 319.519C449.124 319.623 449.265 319.682 449.412 319.682L472.757 319.484C472.899 319.477 473.032 319.415 473.13 319.312C473.228 319.209 473.283 319.072 473.283 318.93C473.283 318.788 473.228 318.651 473.13 318.548C473.032 318.445 472.899 318.384 472.757 318.376L472.752 318.372Z" fill="#031951"/>
<path d="M472.826 329.68L449.491 329.795C449.349 329.803 449.215 329.864 449.117 329.967C449.02 330.07 448.965 330.207 448.965 330.349C448.965 330.491 449.02 330.628 449.117 330.731C449.215 330.834 449.349 330.896 449.491 330.903L472.826 330.788C472.973 330.787 473.113 330.727 473.217 330.623C473.32 330.519 473.378 330.378 473.378 330.232C473.381 330.158 473.369 330.085 473.343 330.016C473.316 329.948 473.276 329.886 473.224 329.834C473.172 329.782 473.11 329.741 473.041 329.715C472.973 329.688 472.899 329.676 472.826 329.68Z" fill="#031951"/>
<path d="M472.865 340.988L449.528 341.014C449.381 341.014 449.24 341.072 449.136 341.176C449.032 341.28 448.973 341.421 448.973 341.568C448.973 341.716 449.032 341.857 449.136 341.961C449.24 342.065 449.381 342.123 449.528 342.123L472.865 342.097C473.012 342.097 473.153 342.039 473.257 341.935C473.361 341.831 473.419 341.69 473.419 341.543C473.419 341.395 473.361 341.254 473.257 341.15C473.153 341.046 473.012 340.988 472.865 340.988Z" fill="#031951"/>
<path d="M472.856 352.296L449.517 352.232C449.37 352.232 449.229 352.29 449.125 352.394C449.021 352.498 448.963 352.639 448.963 352.786C448.963 352.934 449.021 353.075 449.125 353.179C449.229 353.283 449.37 353.341 449.517 353.341L472.854 353.405C473.001 353.405 473.142 353.347 473.246 353.243C473.351 353.139 473.409 352.997 473.409 352.85C473.409 352.703 473.351 352.562 473.246 352.458C473.142 352.354 473.001 352.296 472.854 352.296H472.856Z" fill="#031951"/>
<path d="M472.806 363.605L449.466 363.453C449.324 363.461 449.19 363.522 449.093 363.625C448.995 363.728 448.94 363.865 448.94 364.007C448.94 364.149 448.995 364.286 449.093 364.389C449.19 364.492 449.324 364.554 449.466 364.561L472.803 364.713C472.945 364.706 473.078 364.644 473.176 364.541C473.274 364.438 473.328 364.301 473.328 364.159C473.328 364.017 473.274 363.88 473.176 363.777C473.078 363.674 472.945 363.613 472.803 363.605H472.806Z" fill="#031951"/>
<path d="M472.711 374.913L449.371 374.67C449.229 374.678 449.095 374.739 448.997 374.842C448.899 374.945 448.845 375.082 448.845 375.224C448.845 375.366 448.899 375.503 448.997 375.606C449.095 375.709 449.229 375.771 449.371 375.778L472.706 376.021C472.848 376.014 472.982 375.952 473.079 375.849C473.177 375.746 473.232 375.609 473.232 375.467C473.232 375.325 473.177 375.189 473.079 375.085C472.982 374.982 472.848 374.921 472.706 374.913H472.711Z" fill="#031951"/>
<path d="M472.575 386.221L449.233 385.888C449.091 385.895 448.957 385.955 448.858 386.058C448.76 386.16 448.704 386.296 448.703 386.439C448.702 386.581 448.756 386.718 448.853 386.822C448.95 386.925 449.084 386.988 449.226 386.996L472.559 387.329C472.701 387.323 472.835 387.262 472.934 387.16C473.033 387.057 473.088 386.921 473.089 386.779C473.09 386.637 473.036 386.499 472.939 386.396C472.842 386.292 472.709 386.229 472.567 386.221H472.575Z" fill="#031951"/>
<path d="M472.395 397.527L449.061 397.106C448.986 397.101 448.911 397.111 448.84 397.136C448.769 397.161 448.704 397.2 448.649 397.251C448.594 397.302 448.549 397.364 448.518 397.432C448.487 397.501 448.471 397.575 448.47 397.65C448.468 397.725 448.482 397.8 448.511 397.869C448.539 397.939 448.581 398.002 448.635 398.055C448.688 398.107 448.752 398.149 448.822 398.176C448.892 398.204 448.967 398.217 449.042 398.214L472.375 398.637H472.385C472.532 398.638 472.673 398.581 472.778 398.478C472.883 398.375 472.943 398.234 472.945 398.087C472.946 397.94 472.889 397.799 472.786 397.693C472.683 397.588 472.542 397.529 472.395 397.527Z" fill="#031951"/>
<path d="M472.17 408.834L448.84 408.323C448.765 408.318 448.69 408.328 448.619 408.353C448.548 408.378 448.483 408.416 448.427 408.467C448.372 408.518 448.327 408.579 448.296 408.647C448.265 408.716 448.248 408.79 448.246 408.865C448.245 408.94 448.258 409.014 448.286 409.084C448.314 409.154 448.356 409.217 448.41 409.27C448.463 409.323 448.526 409.364 448.596 409.392C448.666 409.42 448.74 409.433 448.815 409.431L472.146 409.944H472.158C472.231 409.944 472.303 409.931 472.371 409.904C472.439 409.877 472.5 409.836 472.552 409.785C472.604 409.734 472.646 409.674 472.674 409.607C472.703 409.54 472.718 409.468 472.719 409.395C472.72 409.322 472.706 409.25 472.679 409.182C472.652 409.115 472.612 409.053 472.561 409.001C472.51 408.949 472.449 408.907 472.382 408.879C472.315 408.85 472.243 408.835 472.17 408.834Z" fill="#031951"/>
<path d="M545.541 434.931C545.4 435.065 545.267 435.208 545.144 435.358C543.497 434.299 541.701 433.493 539.816 432.967C539.916 432.319 539.882 431.658 539.716 431.023C539.55 430.389 539.257 429.795 538.853 429.279C538.449 428.763 537.944 428.335 537.368 428.021C536.793 427.708 536.159 427.516 535.506 427.457C534.854 427.398 534.196 427.473 533.574 427.679C532.951 427.884 532.378 428.215 531.888 428.65C531.398 429.086 531.003 429.617 530.727 430.212C530.45 430.806 530.298 431.451 530.281 432.106C530.276 432.301 530.283 432.495 530.302 432.689C528.389 433.104 526.548 433.804 524.842 434.764C524.727 434.607 524.603 434.456 524.471 434.314C524.024 433.83 523.482 433.444 522.88 433.179C522.277 432.914 521.626 432.776 520.968 432.773C520.31 432.771 519.658 432.904 519.054 433.164C518.449 433.424 517.904 433.806 517.453 434.286C517.002 434.766 516.655 435.333 516.433 435.953C516.211 436.573 516.118 437.232 516.162 437.889C516.205 438.546 516.383 439.188 516.684 439.773C516.986 440.358 517.405 440.875 517.915 441.292C516.855 442.937 516.048 444.732 515.521 446.617C514.874 446.517 514.214 446.551 513.581 446.717C512.948 446.882 512.355 447.176 511.84 447.579C511.324 447.983 510.897 448.487 510.584 449.062C510.271 449.637 510.079 450.27 510.02 450.922C509.96 451.574 510.035 452.232 510.24 452.854C510.444 453.476 510.774 454.049 511.208 454.539C511.643 455.028 512.173 455.424 512.765 455.701C513.358 455.978 514.002 456.13 514.656 456.149C514.851 456.154 515.045 456.147 515.239 456.128C515.654 458.04 516.353 459.879 517.314 461.583C517.156 461.698 517.006 461.822 516.863 461.955C516.384 462.404 516.002 462.946 515.741 463.549C515.48 464.151 515.346 464.801 515.345 465.457C515.345 466.114 515.48 466.764 515.741 467.366C516.002 467.968 516.384 468.511 516.863 468.96C517.342 469.409 517.908 469.754 518.526 469.975C519.144 470.197 519.8 470.288 520.455 470.245C521.11 470.202 521.749 470.025 522.333 469.725C522.917 469.425 523.433 469.008 523.849 468.5C525.494 469.559 527.287 470.365 529.171 470.892C529.14 471.084 529.122 471.278 529.115 471.472C529.093 472.129 529.205 472.783 529.446 473.395C529.687 474.006 530.05 474.562 530.514 475.027C530.978 475.492 531.532 475.857 532.142 476.099C532.753 476.342 533.407 476.456 534.063 476.435C534.719 476.414 535.364 476.259 535.958 475.979C536.552 475.698 537.083 475.299 537.516 474.805C537.95 474.312 538.277 473.734 538.479 473.109C538.68 472.484 538.751 471.824 538.687 471.17C540.6 470.755 542.441 470.055 544.147 469.095C544.262 469.25 544.386 469.398 544.518 469.539C544.95 469.998 545.468 470.367 546.043 470.626C546.617 470.884 547.237 471.027 547.867 471.046C548.496 471.065 549.124 470.96 549.713 470.736C550.302 470.512 550.841 470.175 551.299 469.743C551.758 469.311 552.127 468.793 552.386 468.218C552.644 467.643 552.787 467.023 552.806 466.393C552.825 465.763 552.72 465.135 552.496 464.546C552.273 463.956 551.935 463.417 551.503 462.958C551.369 462.817 551.226 462.684 551.075 462.561C552.135 460.916 552.942 459.121 553.469 457.236C554.117 457.337 554.778 457.304 555.412 457.139C556.046 456.974 556.64 456.681 557.157 456.277C557.673 455.874 558.101 455.369 558.415 454.793C558.729 454.217 558.921 453.584 558.98 452.931C559.04 452.278 558.964 451.62 558.759 450.997C558.554 450.374 558.224 449.8 557.789 449.31C557.353 448.82 556.822 448.425 556.228 448.148C555.634 447.872 554.989 447.72 554.334 447.703C554.139 447.699 553.945 447.706 553.751 447.725C553.336 445.812 552.637 443.973 551.676 442.268C552.203 441.88 552.644 441.388 552.973 440.823C553.302 440.258 553.513 439.631 553.591 438.981C553.669 438.332 553.613 437.673 553.428 437.046C553.242 436.419 552.93 435.836 552.511 435.334C552.092 434.832 551.574 434.421 550.991 434.126C550.407 433.832 549.769 433.66 549.116 433.621C548.464 433.582 547.81 433.677 547.195 433.901C546.581 434.124 546.018 434.471 545.543 434.92L545.541 434.931ZM540.605 458.412C539.324 459.621 537.713 460.423 535.976 460.716C534.239 461.008 532.455 460.779 530.848 460.057C529.241 459.335 527.884 458.153 526.949 456.659C526.015 455.165 525.543 453.428 525.595 451.666C525.648 449.905 526.221 448.198 527.242 446.763C528.264 445.327 529.688 444.227 531.335 443.601C532.981 442.975 534.776 442.852 536.493 443.248C538.21 443.643 539.77 444.539 540.978 445.821C542.593 447.543 543.46 449.834 543.39 452.194C543.32 454.553 542.319 456.789 540.605 458.412Z" fill="#1D2305"/>
<path d="M204.954 848.105C197.638 854.519 189.188 856.849 186.076 853.299C182.965 849.749 186.369 841.666 193.685 835.251C201 828.835 209.445 826.507 212.557 830.057C215.668 833.607 212.264 841.687 204.954 848.105Z" fill="#2096FC"/>
<path d="M173.731 800.73C176.889 810.883 175.387 820.351 170.38 821.878C165.373 823.404 158.742 816.415 155.591 806.263C152.439 796.11 153.935 786.647 158.953 785.121C163.971 783.594 170.579 790.588 173.731 800.73Z" fill="#CAD5FF"/>
<path d="M201.64 871.903L195.637 912.36C195.56 912.843 195.378 913.303 195.104 913.707C194.804 914.159 194.397 914.53 193.918 914.785C193.44 915.041 192.906 915.174 192.363 915.172H157.369C156.579 915.172 155.815 914.888 155.216 914.372C154.618 913.856 154.224 913.142 154.108 912.36L148.104 871.903C148.033 871.434 148.065 870.955 148.197 870.498C148.328 870.042 148.557 869.62 148.867 869.26C149.177 868.901 149.561 868.612 149.992 868.414C150.424 868.216 150.893 868.114 151.368 868.114H198.378C198.853 868.114 199.321 868.217 199.753 868.415C200.184 868.613 200.568 868.901 200.877 869.261C201.187 869.621 201.415 870.043 201.547 870.499C201.679 870.955 201.71 871.434 201.64 871.903Z" fill="white"/>
<path d="M195.103 913.707C194.803 914.159 194.396 914.53 193.917 914.785C193.439 915.041 192.905 915.174 192.363 915.172H157.369C156.579 915.172 155.815 914.888 155.216 914.372C154.618 913.856 154.224 913.142 154.108 912.36L148.104 871.903C148.033 871.434 148.065 870.955 148.197 870.498C148.328 870.042 148.557 869.62 148.867 869.26C149.177 868.901 149.561 868.612 149.992 868.414C150.424 868.216 150.893 868.114 151.368 868.114H160.347C160.681 869.444 160.935 870.737 161.17 871.903C161.784 875.057 162.048 878.268 161.956 881.479C161.803 886.652 160.736 891.996 162.418 896.906C164.19 902.117 168.856 905.903 173.892 908.11C178.943 910.316 184.444 911.184 189.824 912.369C191.585 912.749 193.366 913.174 195.103 913.707Z" fill="#CAD5FF"/>
<path d="M204.621 828.634C201.013 829.623 197.059 831.898 193.492 835.027C186.867 840.834 183.429 848.05 185.054 852.15C180.902 855.501 177.154 859.159 173.862 863.91C173.991 862.853 173.508 839.795 182.511 812.678C182.952 812.807 183.409 812.872 183.868 812.871C188.219 812.871 193.821 807.426 197.201 799.507C201.079 790.425 200.593 781.477 196.114 779.565C189.143 776.589 178.328 791.625 178.328 804.176C178.328 808.265 179.556 811.399 181.96 812.475C179.394 820.218 176.508 830.959 174.784 843.928C174.209 835.892 173.123 828.482 171.527 821.698C172.532 821.119 173.381 820.189 174.052 818.915C176.246 814.774 176.228 807.77 174.012 800.644C170.813 790.363 164.023 783.28 158.866 784.842C157.386 785.292 156.175 786.385 155.275 788.087C153.081 792.216 153.099 799.217 155.309 806.352C158.204 815.674 164.064 822.377 168.982 822.377C169.672 822.379 170.356 822.241 170.991 821.971C174.024 834.969 174.287 846.45 174.403 847.017C174.04 850.149 173.749 853.411 173.55 856.777C171.279 852.749 168.616 848.955 165.6 845.451C165.673 845.295 166.439 844.471 166.362 842.542C166.115 836.471 158.239 828.301 151.37 826.219C148.539 825.366 146.276 825.652 145.007 827.026C142.452 829.81 144.927 836.278 150.528 841.449C153.465 844.155 158.277 847.283 162.207 847.061C163.476 847.014 164.482 846.622 165.213 845.903C168.246 849.432 170.918 853.255 173.189 857.315C173.214 857.361 173.251 857.398 173.296 857.425C173.341 857.451 173.392 857.465 173.444 857.465C173.468 857.462 173.491 857.456 173.514 857.447C173.471 858.489 173.219 862.665 173.25 867.819H151.368C150.851 867.819 150.34 867.931 149.87 868.147C149.399 868.362 148.981 868.677 148.644 869.069C148.306 869.461 148.057 869.921 147.914 870.418C147.77 870.915 147.736 871.437 147.812 871.948L153.818 912.401C153.949 913.252 154.379 914.028 155.03 914.59C155.682 915.152 156.513 915.463 157.374 915.466H192.369C193.23 915.462 194.06 915.151 194.712 914.589C195.363 914.027 195.793 913.252 195.925 912.401L201.931 871.948C202.006 871.437 201.97 870.916 201.826 870.42C201.681 869.924 201.432 869.464 201.095 869.073C200.758 868.681 200.341 868.367 199.872 868.15C199.403 867.934 198.892 867.821 198.376 867.819H173.83C173.823 866.627 173.83 865.836 173.842 864.962C177.18 859.958 181.025 856.166 185.307 852.7C185.394 852.771 186.372 855.251 190.442 855.251C198.307 855.251 209.4 846.501 212.94 838.115C216.037 830.753 212.136 826.552 204.621 828.634ZM181.48 792.785C185.228 784 191.691 778.31 195.878 780.099C200.066 781.889 200.416 790.492 196.662 799.276C193.036 807.768 186.881 813.377 182.691 812.119C185.457 803.903 187.808 799.241 187.866 799.124C187.902 799.055 187.909 798.975 187.885 798.901C187.862 798.827 187.81 798.765 187.741 798.729C187.672 798.694 187.591 798.687 187.517 798.71C187.443 798.734 187.381 798.786 187.346 798.855C187.287 798.972 184.925 803.657 182.147 811.909C178.079 810.013 177.767 801.492 181.48 792.785ZM170.292 821.6C165.444 823.079 158.971 816.16 155.872 806.174C153.731 799.29 153.702 792.296 155.792 788.354C156.78 786.488 158.309 785.202 160.388 785.202C162.713 785.202 165.271 786.839 167.603 789.606C175.666 799.164 177.625 817.186 171.39 821.091C169.912 814.946 168.018 809.343 165.711 804.323C165.698 804.285 165.676 804.25 165.649 804.221C165.621 804.191 165.587 804.168 165.55 804.152C165.513 804.137 165.473 804.129 165.432 804.129C165.392 804.13 165.352 804.139 165.315 804.155C165.279 804.172 165.246 804.196 165.219 804.226C165.192 804.256 165.171 804.291 165.158 804.33C165.146 804.368 165.141 804.409 165.145 804.449C165.148 804.489 165.16 804.528 165.18 804.563C167.49 809.592 169.382 815.211 170.857 821.378C170.673 821.464 170.485 821.537 170.292 821.599V821.6ZM162.181 846.478C159.088 846.607 154.661 844.46 150.924 841.016C145.552 836.068 143.098 829.968 145.438 827.424C146.801 825.94 149.275 826.195 151.198 826.782C159.937 829.415 168.059 840.653 165.21 844.988V844.993C162.626 842.05 159.821 839.308 156.82 836.791C156.79 836.765 156.756 836.745 156.719 836.732C156.682 836.719 156.643 836.714 156.604 836.717C156.564 836.719 156.526 836.73 156.491 836.748C156.456 836.765 156.425 836.79 156.4 836.82C156.374 836.85 156.355 836.885 156.344 836.922C156.332 836.96 156.328 836.999 156.332 837.039C156.336 837.078 156.348 837.115 156.367 837.15C156.386 837.184 156.412 837.214 156.443 837.239C159.447 839.758 162.253 842.504 164.836 845.454C164.637 845.579 164.034 846.392 162.181 846.478ZM198.376 868.404C198.809 868.404 199.236 868.498 199.63 868.678C200.023 868.859 200.373 869.122 200.655 869.45C200.938 869.778 201.146 870.163 201.267 870.579C201.387 870.995 201.416 871.432 201.353 871.86L195.346 912.314C195.236 913.026 194.876 913.675 194.331 914.145C193.785 914.616 193.09 914.876 192.369 914.88H157.374C156.653 914.876 155.958 914.616 155.413 914.145C154.867 913.675 154.507 913.026 154.397 912.314L148.391 871.86C148.327 871.432 148.356 870.995 148.476 870.579C148.597 870.163 148.805 869.778 149.088 869.45C149.37 869.122 149.72 868.858 150.114 868.678C150.507 868.497 150.935 868.404 151.368 868.404H198.376ZM212.399 837.893C209.433 844.9 201.12 852.159 193.86 854.157C187.182 855.991 185.832 852.364 185.763 852.324C189.615 849.247 193.856 846.37 198.139 843.286C198.176 843.266 198.209 843.239 198.234 843.206C198.26 843.173 198.278 843.135 198.288 843.094C198.297 843.053 198.298 843.011 198.29 842.97C198.282 842.929 198.265 842.89 198.241 842.856C198.217 842.822 198.185 842.794 198.149 842.773C198.113 842.752 198.072 842.739 198.031 842.735C197.989 842.731 197.947 842.736 197.908 842.75C197.868 842.763 197.832 842.785 197.802 842.814C193.536 845.885 189.312 848.755 185.522 851.773C184.113 847.901 187.511 841.053 193.879 835.468C205.251 825.496 217.075 826.747 212.399 837.893Z" fill="white"/>
<path d="M263 495.438H217V528.438H263V495.438Z" fill="#1D1D1D" stroke="#DD4545" stroke-width="4.36" stroke-linecap="round" stroke-linejoin="round"/>
<path opacity="0.5" d="M247.262 510.639L235.233 503.639C235.007 503.507 234.75 503.438 234.489 503.438C234.228 503.437 233.971 503.506 233.745 503.638C233.519 503.769 233.331 503.959 233.2 504.187C233.069 504.415 233 504.673 233 504.937V518.939C233.001 519.203 233.07 519.461 233.201 519.689C233.331 519.916 233.519 520.106 233.746 520.237C233.972 520.368 234.228 520.438 234.489 520.437C234.75 520.437 235.007 520.368 235.233 520.237L247.262 513.231C247.487 513.099 247.673 512.909 247.802 512.682C247.932 512.455 248 512.197 248 511.935C248 511.673 247.932 511.415 247.802 511.188C247.673 510.96 247.487 510.771 247.262 510.639Z" fill="#DD4545"/>
</svg>
