<svg width="823" height="1083" viewBox="0 0 823 1083" fill="none" xmlns="http://www.w3.org/2000/svg">
<path d="M592.845 418.196H554.415V458.649H592.845V418.196Z" fill="#CFDCAA"/>
<path d="M641.364 705.802C640.457 709.14 559.502 712.714 463.826 715.783C365.692 718.934 252.075 721.531 193.461 722.801C168.843 723.339 153.931 723.616 153.931 723.616C157.024 719.651 166.231 686.743 170.911 675.41C180.789 651.507 188.88 626.667 200.944 603.538C219.584 567.797 243.848 520.226 292.747 512.231C303.019 510.487 313.613 511.046 323.587 513.86C348.404 520.853 367.325 540.963 381.556 561.422C392.441 577.005 401.439 593.54 411.027 609.766C420.097 625.072 428.823 643.96 449.123 649.195C451.592 649.857 454.183 650.068 456.744 649.816C459.305 649.564 461.784 648.855 464.035 647.729C475.273 642.421 483.364 628.572 489.033 619.877C500.625 602.072 513.197 586.213 536.572 580.97C587.058 569.62 642.733 700.657 641.364 705.802Z" fill="#224040"/>
<path d="M463.84 715.618C461.121 724.646 454.053 731.044 436.872 733.285C426.36 734.673 414.281 732.473 403.787 731.263C391.305 729.847 378.735 729.145 366.153 729.16C353.548 729.16 341.188 727.269 328.746 727.334C311.438 727.431 294.384 727.829 277.048 727.074C257.411 726.221 237.711 726.578 218.065 726.635C209.302 726.635 199.606 727.65 191.35 724.589C192.081 723.873 192.879 723.213 193.734 722.616C198.953 718.996 206.891 716.714 212.519 713.978C222.876 708.977 233.017 703.594 243.166 698.26C272.327 682.932 297.483 664.819 315.054 638.327C334.908 608.393 344.106 574.53 337.391 539.846C335.565 530.356 330.841 521.504 323.744 514.272C348.537 521.246 367.44 541.299 381.658 561.702C392.532 577.241 401.522 593.731 411.1 609.911C420.162 625.175 428.879 644.01 449.16 649.231C451.626 649.891 454.215 650.101 456.774 649.85C459.332 649.599 461.809 648.892 464.057 647.769C464.665 660.548 464.628 673.36 464.964 686.407C465.263 697.586 466.25 707.662 463.84 715.618Z" fill="#0A5A5A"/>
<path d="M621.162 707.434H274.279C308.668 698.373 339.207 655.904 357.736 635.739C381.821 609.498 400.014 572.211 444.679 577.476C445.914 577.615 447.14 577.796 448.311 578.009C486.812 584.922 506.221 626.916 526.675 652.763C537.723 666.704 551.441 679.324 567.101 688.59C575.788 693.885 585.326 697.939 595.38 700.612C601.653 702.203 619.165 703.318 621.162 707.434Z" fill="#13817C"/>
<path d="M624.196 711.48H534.212C520.694 705.507 509.883 697.198 503.161 682.298C492.504 658.698 489.634 633.471 476.643 610.303C470.91 600.074 462.271 589.438 451.26 583.042C489.788 589.902 509.211 631.575 529.679 657.226C540.735 671.06 554.462 683.584 570.133 692.779C578.827 698.033 588.371 702.057 598.432 704.709C604.673 706.288 622.197 707.395 624.196 711.48Z" fill="#3D7470"/>
<path d="M168.286 705.85C156.455 701.296 152.406 688.802 156.483 678.378C159.772 669.919 162.227 665.178 161.217 655.882C160.467 649.022 159.42 638.615 164.867 632.745C169.092 628.199 176.365 629.076 181.239 631.933C188.818 636.39 189.263 644.111 189.744 651.498C190.328 660.493 190.254 665.803 195.581 673.483C199.287 678.841 201.233 684.288 200.158 690.693C198.231 702.27 183.398 710.015 170.779 706.638C169.931 706.418 169.099 706.155 168.286 705.85Z" fill="#159B9A"/>
<path d="M169.593 686.051C171.624 688.561 172.567 691.404 174.984 693.66C174.984 695.29 174.436 710.72 174.373 716.536H180.311C180.104 710.72 177.616 679.624 177.616 679.624L177.562 676.642C180.967 672.031 184.659 667.151 187.265 662.133C187.462 661.742 186.887 661.228 186.537 661.628C183.209 665.599 180.206 669.787 177.553 674.157C177.409 663.143 177.553 652.047 176.565 641.098C176.548 640.984 176.487 640.88 176.392 640.804C176.297 640.729 176.175 640.687 176.048 640.687C175.922 640.687 175.8 640.729 175.705 640.804C175.61 640.88 175.548 640.984 175.532 641.098C175.262 645.88 175.217 650.678 175.271 655.493C173.097 652.528 170.914 649.399 168.174 646.939C168.099 646.87 168 646.829 167.894 646.823C167.788 646.816 167.683 646.846 167.599 646.906C167.516 646.965 167.46 647.051 167.441 647.145C167.423 647.24 167.444 647.338 167.5 647.42C169.459 651.045 172.63 654.352 175.307 657.579C175.424 664.911 175.729 672.308 175.801 679.624C175.843 683.583 175.885 687.542 175.927 691.502C174.067 688.87 171.678 686.418 169.638 683.966C168.066 682.051 166.045 678.353 163.493 677.367C163.242 677.269 162.909 677.481 163.08 677.734C165.11 680.593 167.383 683.314 169.593 686.051Z" fill="#BFE2DE"/>
<path d="M589.05 694.743C570.91 687.416 564.7 667.344 570.91 650.512C575.964 636.896 579.724 629.272 578.174 614.29C577.028 603.238 575.412 586.482 583.773 577.045C590.254 569.718 601.41 571.128 608.889 575.756C620.508 582.939 621.184 595.342 621.926 607.259C622.825 621.74 622.709 630.296 630.873 642.661C636.57 651.285 639.547 660.054 637.906 670.371C634.938 689.009 612.196 701.472 592.835 696.04C591.547 695.677 590.283 695.244 589.05 694.743Z" fill="#6FBBB8"/>
<path d="M590.02 663.75C593.235 667.763 594.732 672.305 598.568 675.91C598.568 678.503 597.691 703.187 597.6 712.491H607.074C606.735 703.187 602.767 653.478 602.767 653.478C602.734 651.891 602.706 650.301 602.684 648.709C608.074 641.34 613.936 633.533 618.061 625.514C618.383 624.886 617.474 624.07 616.912 624.705C611.555 630.819 606.992 637.879 602.618 644.741C602.395 627.131 602.618 609.385 601.064 591.888C601.064 591.688 600.977 591.496 600.822 591.354C600.667 591.212 600.457 591.132 600.237 591.132C600.018 591.132 599.808 591.212 599.653 591.354C599.498 591.496 599.411 591.688 599.411 591.888C598.997 599.529 598.923 607.208 599.006 614.895C595.558 610.163 592.086 605.153 587.754 601.222C587.634 601.125 587.48 601.069 587.32 601.064C587.159 601.058 587.001 601.104 586.873 601.194C586.746 601.283 586.656 601.41 586.619 601.553C586.582 601.696 586.601 601.846 586.671 601.978C589.788 607.775 594.814 613.066 599.072 618.228C599.262 629.988 599.741 641.771 599.898 653.471C599.954 659.799 600.017 666.125 600.089 672.449C597.146 668.254 593.351 664.324 590.168 660.409C587.688 657.386 584.497 651.445 580.43 649.828C580.025 649.669 579.496 650.009 579.777 650.41C582.91 655.02 586.506 659.366 590.02 663.75Z" fill="#DFF4F1"/>
<path d="M170.113 714.514C169.529 714.416 168.945 714.308 168.362 714.189L166.786 712.766C163.844 710.138 160.727 707.594 158.03 704.803C157.991 704.754 157.972 704.694 157.978 704.634C157.984 704.574 158.013 704.518 158.061 704.475C158.11 704.433 158.173 704.407 158.241 704.401C158.309 704.396 158.377 704.413 158.433 704.447C161.593 706.86 164.483 709.612 167.46 712.217L170.113 714.514Z" fill="#BFE2DE"/>
<path d="M503.851 698.035L503.35 698.091C502.975 698.131 502.528 698.172 502.026 698.204C501.114 698.268 499.918 698.308 498.622 698.333H497.6C496.769 698.333 495.902 698.333 495.008 698.333H494.095C492.936 698.292 491.713 698.228 490.491 698.139L489.496 698.059C488.757 697.986 488.008 697.914 487.26 697.825C486.192 697.697 485.115 697.544 484.084 697.358L482.843 697.125C476.546 695.845 471.617 693.405 472.63 688.985C473.452 685.459 480.652 688.615 483.737 690.797C482.003 689.001 480.899 686.392 479.977 684.267C479.055 682.141 475.706 675.41 477.841 673.285C482.706 668.502 488.501 686.537 489.304 688.752C489.249 685.781 486.612 670.547 493.356 671.039C498.376 671.401 496.021 684.38 496.021 687.648C496.121 684.146 503.943 673.011 509.218 675.918C513.863 678.478 505.385 687.415 503.988 690.233C508.113 688.623 514.027 684.396 518.59 688.574C525.107 694.468 507.602 697.544 503.851 698.035Z" fill="#159B9A"/>
<path d="M490.702 697.321L489.743 697.245C488.819 695.183 487.983 693.076 487.103 691.038C485.625 687.804 483.812 684.601 482.615 681.283C482.608 681.257 482.611 681.229 482.625 681.205C482.638 681.18 482.661 681.161 482.69 681.15C482.718 681.139 482.75 681.137 482.78 681.145C482.81 681.152 482.835 681.168 482.853 681.191C484.652 684.186 486.221 687.281 487.552 690.455C488.572 692.708 489.752 694.992 490.702 697.321Z" fill="#BFE2DE"/>
<path d="M494.747 698.333H493.981C493.752 695.742 493.644 693.144 493.445 690.57C493.302 688.683 493.162 686.799 493.024 684.917C492.81 683.042 492.711 681.154 492.726 679.265C492.726 679.097 492.971 679.057 493.001 679.225C493.729 682.727 493.721 686.508 494.004 690.074C494.249 692.8 494.571 695.566 494.747 698.333Z" fill="#BFE2DE"/>
<path d="M504.856 680.278C503.737 683.987 502.139 687.588 500.883 691.265C500.096 693.576 499.456 695.971 498.738 698.333H497.781C498.516 695.82 499.49 693.308 500.344 690.846C501.491 687.189 502.919 683.622 504.617 680.177C504.694 680.077 504.89 680.144 504.856 680.278Z" fill="#BFE2DE"/>
<path d="M513.912 690.481C511.153 692.441 508.261 694.208 505.564 696.253C504.682 696.887 503.907 697.546 503.104 698.214C502.743 698.256 502.311 698.299 501.826 698.333C502.981 697.403 504.162 696.515 505.352 695.653C507.985 693.601 510.812 691.79 513.797 690.244C513.828 690.239 513.859 690.244 513.887 690.257C513.914 690.271 513.936 690.293 513.949 690.32C513.962 690.347 513.965 690.377 513.959 690.406C513.952 690.435 513.936 690.461 513.912 690.481Z" fill="#BFE2DE"/>
<path d="M483.623 697.321L482.476 697.061L481.431 695.948C479.475 693.847 477.401 691.81 475.589 689.574C475.571 689.556 475.557 689.534 475.547 689.51C475.538 689.486 475.532 689.46 475.532 689.434C475.532 689.408 475.536 689.382 475.545 689.357C475.554 689.333 475.568 689.31 475.585 689.292C475.602 689.273 475.623 689.258 475.645 689.247C475.668 689.237 475.692 689.231 475.717 689.231C475.741 689.23 475.766 689.235 475.789 689.245C475.812 689.254 475.833 689.269 475.85 689.287C477.958 691.217 479.871 693.425 481.844 695.508L483.623 697.321Z" fill="#BFE2DE"/>
<path d="M696 869.246H120.558L133.82 818.01L135.205 812.614L149.785 756.274L149.852 755.981L151.247 750.585L162.407 707.434H640.698L655.431 750.585L657.285 755.981L661.174 767.36L676.642 812.614L678.477 818.01L696 869.246Z" fill="#BFE2DE"/>
<path d="M313.72 869.246H120.558L149.87 755.231C150.09 755.092 150.31 754.953 150.54 754.849C161.331 749.316 167.062 756.014 171.864 772.63C177.174 790.986 183.191 808.907 195.284 813.5C205.75 817.502 213.202 807.045 222.377 799.842C236.086 789.037 241.443 796.936 252.455 810.734C265.475 827.054 273.062 809.794 286.35 803.861C298.844 798.294 310.669 799.738 313.137 826.166C314.093 836.258 312.037 843.026 311.568 852.891C311.245 858.629 312.004 864.396 313.72 869.246Z" fill="#9FD3CC"/>
<path d="M602.959 707.434C601.005 711.481 598.748 715.023 596.25 717.957C589.236 726.145 576.059 732.376 572.293 748.272C569.504 759.962 573.251 774.621 571.124 786.757C568.383 802.876 555.925 818.171 546.659 817.656C524.848 816.643 523.66 773.162 513.952 748.993C502.223 719.811 486.727 744.787 475.707 762.159C463.536 781.35 450.571 783.153 443.479 754.795C435.276 721.974 419.656 736.393 402.876 743.671C386.633 750.744 352.777 765.317 351.224 719.45C351.075 715.445 351.123 711.424 351.368 707.434H602.959Z" fill="#9FD3CC"/>
<path d="M696 869.246H592.039C591.334 867.069 590.722 864.799 590.209 862.454C585.418 839.986 593.342 821.734 606.45 823.152C617.382 824.31 626.236 840.556 637.197 842.319C651.062 844.514 650.276 822.097 652.681 802.792C653.994 792.111 656.514 776.643 661.075 767.102L696 869.246Z" fill="#9FD3CC"/>
<path d="M678.808 817.993L676.972 812.596H541.32C539.331 793.706 537.339 774.823 535.343 755.945H657.598L655.743 750.547H534.779C533.256 736.165 531.738 721.794 530.228 707.434H527.187C528.704 721.817 530.221 736.188 531.738 750.547H402.226V707.434H399.233V750.547H277.255C278.772 736.165 280.29 721.794 281.807 707.434H278.757C277.246 721.817 275.732 736.188 274.214 750.547H151.147L149.732 755.945H273.641L267.674 812.596H135.092L133.705 817.993H267.1L261.707 869.246H264.738C266.542 852.15 268.346 835.066 270.15 817.993H399.309C399.309 835.066 399.309 852.15 399.309 869.246H402.302C402.302 852.15 402.302 835.066 402.302 817.993H538.843C540.641 835.066 542.442 852.15 544.246 869.246H547.296C545.486 852.15 543.685 835.066 541.894 817.993H678.808ZM270.715 812.596C272.704 793.706 274.696 774.823 276.691 755.945H399.233C399.233 774.823 399.233 793.706 399.233 812.596H270.715ZM402.264 812.596C402.264 793.706 402.264 774.823 402.264 755.945H532.312L538.279 812.596H402.264Z" fill="white"/>
<path d="M570.534 384.887H231.643V641.555H570.534V384.887Z" stroke="white" stroke-linecap="round" stroke-linejoin="round"/>
<g filter="url(#filter0_b_259_754)">
<path d="M562.629 391.679H239.562V634.749H562.629V391.679Z" fill="#454545" fill-opacity="0.6"/>
<path d="M562.629 391.679H239.562V634.749H562.629V391.679Z" stroke="white" stroke-linecap="round" stroke-linejoin="round"/>
</g>
<path d="M338.04 427.366C338.04 427.366 285.255 423.542 280.813 431.825C276.37 440.108 279.53 591.552 282.082 593.457C284.634 595.363 355.851 596.633 362.845 594.092C369.84 591.552 360.321 437.54 360.321 433.081C360.321 428.622 343.765 426.717 343.765 426.717" stroke="white" stroke-width="2" stroke-linecap="round" stroke-linejoin="round"/>
<path d="M286.262 552.718C286.373 572.68 286.801 587.314 287.808 587.714C290.981 588.984 358.389 594.714 360.293 588.349C362.197 581.985 355.202 438.175 355.202 438.175" stroke="white" stroke-width="2" stroke-linecap="round" stroke-linejoin="round"/>
<path d="M352.664 437.54C352.664 437.54 288.442 435 287.821 438.175C287.408 440.205 286.235 499.83 286.249 543.178" stroke="white" stroke-width="2" stroke-linecap="round" stroke-linejoin="round"/>
<path d="M289.698 448.999H352.029" stroke="white" stroke-width="2" stroke-linecap="round" stroke-linejoin="round"/>
<path d="M346.304 446.113C342.496 450.144 346.304 446.113 348.856 440.356C351.408 434.6 346.304 441.502 340.578 446.113C334.853 450.724 338.04 447.273 339.944 440.936C341.847 434.6 338.04 440.936 332.949 444.967C327.858 448.999 330.41 447.273 332.314 440.356C334.218 433.44 332.314 440.356 324.685 444.967C317.056 449.578 320.863 449.565 324.685 442.662C328.506 435.759 322.146 442.662 315.152 444.967C308.157 447.273 315.152 444.967 317.69 438.631C320.229 432.294 313.234 440.356 308.157 443.808C303.08 447.259 308.157 443.808 309.426 439.777C310.695 435.745 306.239 440.936 301.148 446.113C296.058 451.29 301.148 446.113 301.783 441.502C302.418 436.891 296.058 448.999 296.058 448.999C296.058 448.999 297.962 437.471 296.692 440.356C295.846 442.206 294.775 443.945 293.505 445.533" stroke="#596AFF" stroke-width="2" stroke-linecap="round" stroke-linejoin="round"/>
<path d="M324.05 459.808H292.885V492.264H324.05V459.808Z" stroke="#E39297" stroke-width="2" stroke-linecap="round" stroke-linejoin="round"/>
<path d="M299.245 459.808L294.154 465.537L304.97 461.727L294.154 471.902L311.965 460.443L294.154 479.536L318.325 461.727L292.885 485.265L323.402 464.267L292.885 492.264L323.402 471.902L301.783 490.994L324.05 478.901L310.047 490.359L323.402 485.9L320.863 490.359" stroke="#E39297" stroke-width="2" stroke-linecap="round" stroke-linejoin="round"/>
<path d="M350.898 559.082H327.072V583.904H350.898V559.082Z" stroke="#E3BE92" stroke-width="2" stroke-linecap="round" stroke-linejoin="round"/>
<path d="M331.942 559.082L328.051 563.458L336.315 560.546L328.051 568.332L341.654 559.565L328.051 574.171L346.524 560.546L327.072 578.548L350.415 562.492L327.072 583.89L350.415 568.332L333.887 582.924L350.898 573.674L340.206 582.441L350.415 579.031L348.47 582.441" stroke="#E3BE92" stroke-width="2" stroke-linecap="round" stroke-linejoin="round"/>
<path d="M292.25 504.358H353.298" stroke="white" stroke-width="2" stroke-linecap="round" stroke-linejoin="round"/>
<path d="M291.615 510.087L352.029 510.722" stroke="white" stroke-width="2" stroke-linecap="round" stroke-linejoin="round"/>
<path d="M330.396 461.727H350.111" stroke="white" stroke-width="2" stroke-linecap="round" stroke-linejoin="round"/>
<path d="M330.396 469.361H350.111" stroke="white" stroke-width="2" stroke-linecap="round" stroke-linejoin="round"/>
<path d="M330.396 476.996H350.111" stroke="white" stroke-width="2" stroke-linecap="round" stroke-linejoin="round"/>
<path d="M330.396 484.63H350.111" stroke="white" stroke-width="2" stroke-linecap="round" stroke-linejoin="round"/>
<path d="M352.029 513.897H292.885V542.53H352.029V513.897Z" stroke="#92E3A9" stroke-width="2" stroke-linecap="round" stroke-linejoin="round"/>
<path d="M292.25 519.627L300.514 514.532L290.98 529.18L306.874 514.532L292.884 535.53L317.69 513.897L296.057 539.354L322.767 514.532L302.418 539.354L331.679 513.897L308.143 541.895L337.391 514.532L315.138 540.625L345.034 513.897L322.132 541.895L352.029 513.897L330.396 541.26L350.746 523.451L337.391 539.989L350.746 531.085L348.124 535.337L345.669 539.354" stroke="#92E3A9" stroke-width="2" stroke-linecap="round" stroke-linejoin="round"/>
<path d="M295.423 550.178H350.111" stroke="white" stroke-width="2" stroke-linecap="round" stroke-linejoin="round"/>
<path d="M294.154 557.177H311.965" stroke="white" stroke-width="2" stroke-linecap="round" stroke-linejoin="round"/>
<path d="M362.832 441.364L406.497 435.994" stroke="white" stroke-width="2" stroke-linecap="round" stroke-linejoin="round"/>
<path d="M355.837 472.537H401.626" stroke="white" stroke-width="2" stroke-linecap="round" stroke-linejoin="round"/>
<path d="M283.338 530.45L263.636 537.449" stroke="white" stroke-width="2" stroke-linecap="round" stroke-linejoin="round"/>
<path d="M339.308 588.349C339.308 588.349 335.501 608.077 361.562 613.199" stroke="white" stroke-width="2" stroke-linecap="round" stroke-linejoin="round"/>
<path d="M357.74 608.077L364.1 613.806L355.202 616.347" stroke="white" stroke-width="2" stroke-linecap="round" stroke-linejoin="round"/>
<path d="M395.901 466.807L406.082 473.172L397.17 476.996" stroke="white" stroke-width="2" stroke-linecap="round" stroke-linejoin="round"/>
<path d="M398.219 434.089L409.035 435.359L401.406 442.358" stroke="white" stroke-width="2" stroke-linecap="round" stroke-linejoin="round"/>
<path d="M266.175 531.085L255.359 539.989L268.713 540.624" stroke="white" stroke-width="2" stroke-linecap="round" stroke-linejoin="round"/>
<path d="M433.427 466.807H409.256V492.264H433.427V466.807Z" fill="#E3CC92"/>
<path d="M414.981 472.537L428.971 473.172" stroke="white" stroke-width="2" stroke-linecap="round" stroke-linejoin="round"/>
<path d="M414.981 477.631L428.971 478.266" stroke="white" stroke-width="2" stroke-linecap="round" stroke-linejoin="round"/>
<path d="M414.981 482.725L428.971 483.36" stroke="white" stroke-width="2" stroke-linecap="round" stroke-linejoin="round"/>
<path d="M394.988 501.106L370.984 503.941L373.965 529.222L397.97 526.388L394.988 501.106Z" fill="#92A4E3"/>
<path d="M377.318 508.969L391.293 507.961" stroke="white" stroke-width="2" stroke-linecap="round" stroke-linejoin="round"/>
<path d="M377.911 514.022L391.886 513.014" stroke="white" stroke-width="2" stroke-linecap="round" stroke-linejoin="round"/>
<path d="M378.518 519.074L392.48 518.067" stroke="white" stroke-width="2" stroke-linecap="round" stroke-linejoin="round"/>
<path d="M269.716 544.379L245.712 547.214L248.693 572.495L272.698 569.661L269.716 544.379Z" fill="#92D9E3"/>
<path d="M252.048 552.235L266.009 551.227" stroke="white" stroke-width="2" stroke-linecap="round" stroke-linejoin="round"/>
<path d="M252.641 557.287L266.603 556.28" stroke="white" stroke-width="2" stroke-linecap="round" stroke-linejoin="round"/>
<path d="M253.234 562.354L267.21 561.346" stroke="white" stroke-width="2" stroke-linecap="round" stroke-linejoin="round"/>
<path d="M394.612 597.345L370.577 594.787L367.887 620.102L391.922 622.659L394.612 597.345Z" fill="#E392CC"/>
<path d="M375.689 601.078L389.541 603.19" stroke="white" stroke-width="2" stroke-linecap="round" stroke-linejoin="round"/>
<path d="M375.151 606.144L389.003 608.257" stroke="white" stroke-width="2" stroke-linecap="round" stroke-linejoin="round"/>
<path d="M374.614 611.211L388.465 613.323" stroke="white" stroke-width="2" stroke-linecap="round" stroke-linejoin="round"/>
<path d="M570.52 641.555H231.643V650.225H570.52V641.555Z" fill="white" stroke="white" stroke-linecap="round" stroke-linejoin="round"/>
<path d="M493.156 804.824L495.118 815.074C495.118 815.074 493.374 818.781 486.618 821.834C479.862 824.887 476.593 826.196 476.593 827.068C476.593 827.941 476.157 829.903 477.901 830.558C479.644 831.212 516.693 830.558 516.693 830.558C516.693 830.558 518.655 829.685 518.655 825.542C518.655 821.398 516.911 813.766 516.911 812.021C516.911 810.276 515.682 806.072 515.682 805.479C515.682 804.885 500.784 805.697 500.784 805.697C500.784 805.697 496.425 801.553 493.156 804.824Z" fill="white" stroke="#263238" stroke-linecap="round" stroke-linejoin="round"/>
<path d="M500.784 805.697C500.784 805.697 501.874 815.51 502.528 816.164C503.182 816.818 516.912 816.818 516.912 816.818" fill="white"/>
<path d="M500.784 805.697C500.784 805.697 501.874 815.51 502.528 816.164C503.182 816.818 516.912 816.818 516.912 816.818" stroke="#263238" stroke-linecap="round" stroke-linejoin="round"/>
<path d="M516.912 812.021L501.656 812.239" stroke="#263238" stroke-linecap="round" stroke-linejoin="round"/>
<path d="M476.594 828.813H518.219" stroke="#263238" stroke-linecap="round" stroke-linejoin="round"/>
<path d="M520.398 681.898C520.398 681.898 508.316 722.6 506.834 728.209C505.352 733.818 513.913 783.069 513.913 783.95C513.913 784.831 515.089 787.491 515.089 790.44C515.089 793.388 513.913 794.269 514.505 795.159C515.098 796.049 517.121 798.107 516.859 799.878C516.769 801.243 516.142 802.516 515.116 803.42C514.465 804.099 513.657 804.606 512.762 804.894H505.683C505.683 804.894 503.94 791.617 499.198 756.524C494.455 721.431 502.153 701.368 503.626 694.878C504.629 690.691 506.112 686.634 508.046 682.788L520.398 681.898Z" fill="#263238" stroke="#263238" stroke-linecap="round" stroke-linejoin="round"/>
<path d="M483.131 804.824L485.093 815.074C485.093 815.074 483.349 818.781 476.593 821.834C469.837 824.887 466.568 826.196 466.568 827.068C466.568 827.941 466.133 829.903 467.876 830.558C469.62 831.212 506.668 830.558 506.668 830.558C506.668 830.558 508.63 829.685 508.63 825.542C508.63 821.398 506.886 813.766 506.886 812.021C506.886 810.276 505.657 806.072 505.657 805.479C505.657 804.885 490.759 805.697 490.759 805.697C490.759 805.697 486.4 801.553 483.131 804.824Z" fill="white" stroke="#263238" stroke-linecap="round" stroke-linejoin="round"/>
<path d="M490.759 805.697C490.759 805.697 491.849 815.51 492.503 816.164C493.157 816.818 506.886 816.818 506.886 816.818" fill="white"/>
<path d="M490.759 805.697C490.759 805.697 491.849 815.51 492.503 816.164C493.157 816.818 506.886 816.818 506.886 816.818" stroke="#263238" stroke-linecap="round" stroke-linejoin="round"/>
<path d="M506.886 812.021L491.631 812.239" stroke="#263238" stroke-linecap="round" stroke-linejoin="round"/>
<path d="M466.568 828.813H508.194" stroke="#263238" stroke-linecap="round" stroke-linejoin="round"/>
<path d="M471.764 681.898C471.764 681.898 471.468 707.562 472.941 718.474C474.414 729.387 480.019 754.754 480.9 768.615C481.78 782.476 483.262 788.974 483.262 788.974C483.262 788.974 481.17 790.719 481.17 792.464C481.17 794.208 482.347 794.208 482.042 796.895C481.737 799.582 480.569 800.428 481.458 801.614C482.347 802.8 482.931 805.147 485.878 805.74C488.824 806.333 502.676 806.037 505.622 805.444C508.569 804.85 510.042 801.902 510.042 799.547C510.042 797.192 509.17 795.421 509.17 792.76C509.17 790.1 510.644 787.753 510.644 785.982C510.644 784.212 510.051 783.322 510.051 781.551C510.051 779.78 506.224 751.474 506.224 745.577C506.224 739.68 505.928 719.617 506.808 714.601C507.688 709.585 512.117 685.701 512.117 685.701L471.764 681.898Z" fill="#92E3A9" stroke="#263238" stroke-linecap="round" stroke-linejoin="round"/>
<path d="M490.446 690.551C493.946 691.753 497.595 692.466 501.29 692.671C504.129 692.75 506.959 693.016 509.763 693.465L511.35 686.05L490.446 690.551Z" fill="#263238" stroke="#263238" stroke-linecap="round" stroke-linejoin="round"/>
<path d="M487.211 691.825C487.211 691.825 488.659 732.353 491.57 745.865C494.482 759.377 498.317 781.568 497.358 784.464C496.4 787.36 494.944 794.112 494.944 794.112C494.944 794.112 500.253 793.153 500.253 796.04C500.253 798.927 492.538 800.873 494.464 802.321C496.391 803.769 498.309 805.356 498.309 805.356" stroke="#263238" stroke-linecap="round" stroke-linejoin="round"/>
<path d="M504.341 795.403C504.341 795.403 488.336 798.02 492.878 798.892C497.42 799.765 506.076 798.674 506.512 797.593C506.948 796.511 505.64 795.185 504.341 795.403Z" fill="#263238" stroke="#263238" stroke-linecap="round" stroke-linejoin="round"/>
<path d="M433.695 515.199L433.251 533.309L450.319 533.16L450.459 515.051L433.695 515.199Z" fill="#92E3A9"/>
<path d="M453.118 548.618C453.118 548.618 449.439 544.937 447.818 541.552C446.196 538.167 443.851 536.109 443.851 533.753C443.851 531.398 444.88 525.903 444.435 523.739C443.991 521.576 444.435 516.97 445.909 516.97C446.251 516.97 446.588 517.048 446.896 517.197C447.204 517.346 447.475 517.563 447.687 517.832C447.899 518.1 448.048 518.413 448.122 518.748C448.196 519.082 448.193 519.429 448.114 519.762C447.818 521.236 448.986 526.391 448.986 526.391C448.986 526.391 450.163 516.525 450.311 515.923C450.459 515.322 452.516 515.33 453.406 515.775C454.295 516.22 455.315 516.063 455.315 517.982C455.315 519.901 454.87 522.099 454.87 522.544C454.87 522.989 458.993 525.344 459.142 527.106C459.29 528.869 458.845 533.143 457.817 534.957C457.113 536.055 456.528 537.225 456.073 538.447C455.925 539.031 460.048 545.216 460.048 545.216L453.118 548.618Z" fill="white" stroke="#263238" stroke-linecap="round" stroke-linejoin="round"/>
<path d="M459.978 542.398L449.953 550.066C449.953 550.066 467.048 585.455 467.641 586.598C468.233 587.741 480.603 595.452 480.603 595.452L499.171 572.44C499.171 572.44 475.887 565.069 475.303 564.188C474.719 563.307 459.978 542.398 459.978 542.398Z" fill="#263238" stroke="#263238" stroke-linecap="round" stroke-linejoin="round"/>
<path d="M471.799 672.451L470.927 686.19C470.927 686.19 482.26 690.988 494.464 690.77C506.669 690.552 523.014 685.754 523.014 685.754L525.411 672.233C525.411 672.233 495.99 674.632 487.055 673.76C478.119 672.887 471.799 672.451 471.799 672.451Z" fill="white" stroke="#263238" stroke-linecap="round" stroke-linejoin="round"/>
<path d="M463.082 668.089L462.428 672.015C462.428 672.015 471.659 677.057 492.067 678.993C504.626 680.152 517.291 678.818 529.334 675.068L529.552 668.308C518.699 670.896 507.582 672.214 496.426 672.233C485.202 671.942 474.035 670.554 463.082 668.089Z" fill="#263238" stroke="#263238" stroke-linecap="round" stroke-linejoin="round"/>
<path d="M479.645 586.964C479.645 586.964 472.453 599.613 470.055 609.426C467.658 619.24 462.864 664.6 462.21 667.217C461.556 669.834 476.811 675.068 486.836 675.286C496.861 675.504 519.309 675.94 523.231 674.414C527.154 672.887 530.859 670.706 530.859 668.307C530.859 665.909 531.077 656.967 531.077 649.771C531.077 642.574 528.898 604.629 526.936 595.906C524.975 587.183 523.667 581.076 523.013 579.986C522.36 578.896 517.565 573.662 507.758 574.316C500.104 574.88 492.665 577.113 485.965 580.858C483.479 582.46 481.331 584.534 479.645 586.964Z" fill="#263238" stroke="#263238" stroke-linecap="round" stroke-linejoin="round"/>
<path d="M413.916 601.061C413.916 601.061 410.376 602.535 410.08 606.077C409.783 609.618 416.278 613.151 420.105 618.464C423.932 623.776 428.944 629.341 428.944 629.341L436.616 639.957L445.751 632.29L422.171 604.917C422.171 604.917 423.348 602.3 421.874 601.375C420.635 600.798 419.293 600.473 417.926 600.419C416.56 600.365 415.197 600.583 413.916 601.061Z" fill="white" stroke="#263238" stroke-linecap="round" stroke-linejoin="round"/>
<path d="M414.508 609.322L441.07 600.468C441.07 600.468 442.814 607.848 450.79 615.515C455.572 620.126 460.699 624.366 466.124 628.199L442.247 641.763L414.508 609.322Z" fill="white" stroke="#263238" stroke-linecap="round" stroke-linejoin="round"/>
<path d="M414.508 609.322C415.678 608.008 416.399 606.355 416.566 604.603C416.645 603.793 416.421 602.983 415.938 602.329C415.455 601.675 414.747 601.223 413.95 601.061L440.181 593.393C440.181 593.393 445.194 595.138 441.053 600.468L414.508 609.322Z" fill="white" stroke="#263238" stroke-linecap="round" stroke-linejoin="round"/>
<path d="M449.657 637.367C449.657 637.367 443.764 636.494 443.468 634.75C443.171 633.005 441.994 629.149 440.852 627.675C439.71 626.201 434.07 623.253 432.301 621.185C430.531 619.118 429.354 616.169 428.177 616.466C427 616.763 425.231 617.94 425.815 619.083C426.399 620.226 429.058 625.285 429.058 625.285L429.65 627.344C429.65 627.344 424.342 626.471 423.461 626.166C423.204 626.093 422.934 626.084 422.673 626.141C422.412 626.197 422.168 626.316 421.964 626.489C421.76 626.661 421.602 626.881 421.503 627.129C421.403 627.377 421.366 627.645 421.395 627.911C421.395 629.385 420.218 629.385 421.692 630.266C423.165 631.147 424.934 632.333 424.934 632.333C424.934 632.333 427 637.053 427.55 637.934C428.099 638.815 432.858 640.891 433.739 641.475C434.619 642.06 439.344 643.543 441.698 644.092C444.052 644.642 449.36 646.753 449.36 646.753L450.834 639.966L449.657 637.367Z" fill="white" stroke="#263238" stroke-linecap="round" stroke-linejoin="round"/>
<path d="M512.143 596.665C512.143 596.665 511.55 621.735 511.55 622.912C511.55 624.09 512.422 648.279 509.807 650.338C507.191 652.397 494.185 655.057 475.321 654.473C456.456 653.888 448.201 649.753 448.201 649.753L449.674 637.367L485.633 634.75C485.633 634.75 481.806 607.324 482.39 597.886C482.975 588.447 490.646 583.432 490.646 583.432" fill="#263238"/>
<path d="M512.143 596.665C512.143 596.665 511.55 621.735 511.55 622.912C511.55 624.09 512.422 648.279 509.807 650.338C507.191 652.397 494.185 655.057 475.321 654.473C456.456 653.888 448.201 649.753 448.201 649.753L449.674 637.367L485.633 634.75C485.633 634.75 481.806 607.324 482.39 597.886C482.975 588.447 490.646 583.432 490.646 583.432" stroke="#263238" stroke-linecap="round" stroke-linejoin="round"/>
<path d="M472.453 655.572C472.453 655.572 508.142 656.819 510.025 652.431C511.908 648.044 511.899 604.812 511.899 604.812" stroke="#707070" stroke-linecap="round" stroke-linejoin="round"/>
<path d="M488.144 588.517C488.144 588.517 480.621 596.665 481.876 607.316C483.131 617.966 485.642 634.706 485.642 634.706L471.86 635.517" stroke="#707070" stroke-linecap="round" stroke-linejoin="round"/>
<path d="M472.915 520.407C472.915 520.407 467.972 528.965 468.922 530.099C469.872 531.233 469.114 533.335 469.114 533.335C469.114 533.335 464.171 537.138 464.555 538.464C464.938 539.79 468.913 543.41 468.913 543.41C468.913 543.41 469.672 553.677 470.657 554.628C471.642 555.579 478.067 556.713 479.374 556.905C480.096 556.994 480.801 557.188 481.466 557.48L485.258 578.006L506.538 558.815L503.12 549.691C503.12 549.691 501.22 537.478 501.377 531.826C501.534 526.173 491.683 519.273 485.799 517.563C479.915 515.854 472.915 520.407 472.915 520.407Z" fill="white" stroke="#263238" stroke-linecap="round" stroke-linejoin="round"/>
<path d="M476.899 508.805C476.899 508.805 471.965 503.676 466.072 507.671C460.179 511.667 461.896 518.139 467.214 520.407C472.531 522.675 478.799 520.974 476.716 523.26C474.632 525.545 474.1 530.482 477.282 531.433C480.464 532.384 479.941 535.995 479.941 537.539C479.941 539.083 482.556 538.874 483.175 537.539C483.794 536.205 485.259 532.602 488.868 534.12C492.477 535.638 492.294 544.003 490.96 546.097C489.626 548.19 488.301 547.998 488.301 547.998C488.301 547.998 490.393 548.757 489.059 551.226L487.734 553.703C487.734 553.703 490.768 557.315 498.37 555.98C505.971 554.645 507.68 551.226 506.538 548.382C505.396 545.538 502.737 545.146 505.588 540.968C508.438 536.789 515.473 531.834 514.898 522.335C514.523 516.063 499.703 510.123 499.703 510.123C499.703 510.123 503.121 504.418 495.345 500.806C487.569 497.195 478.633 501.382 479.2 505.168C479.767 508.954 476.899 508.805 476.899 508.805Z" fill="#263238" stroke="#263238" stroke-linecap="round" stroke-linejoin="round"/>
<path d="M468.87 529.418C468.87 529.418 466.455 528.773 466.255 529.915C466.054 531.058 466.255 536.754 466.255 536.754C467.105 537.283 468.117 537.488 469.105 537.33C470.439 536.946 469.672 532.192 469.672 532.192" stroke="#263238" stroke-linecap="round" stroke-linejoin="round"/>
<path d="M483.925 535.803L466.429 532.907L466.447 531.808L483.925 535.803Z" fill="#263238" stroke="#263238" stroke-linecap="round" stroke-linejoin="round"/>
<path d="M509.014 552.918C509.014 552.918 499.32 559.949 492.669 567.172C486.017 574.394 478.041 582.385 477.683 584.853C477.326 587.322 478.058 591.125 481.859 587.13C485.66 583.135 492.686 577.823 498.012 577.439C503.339 577.055 511.498 579.724 515.674 580.291C519.849 580.858 522.517 582.036 524.034 579.724C525.551 577.413 521.567 572.31 521.567 569.64C521.567 566.971 522.133 562.418 520.233 559.173C518.333 555.928 512.239 551.967 509.014 552.918Z" fill="#757575" stroke="#263238" stroke-linecap="round" stroke-linejoin="round"/>
<path d="M521.427 562.33C520.887 564.178 520.151 565.962 519.23 567.651C518.123 569.3 502.545 572.423 502.545 572.423C502.545 572.423 515.377 571.69 517.757 571.69C520.137 571.69 522.892 573.888 522.892 573.888L521.61 570.399C521.61 570.399 522.142 563.988 521.427 562.33Z" fill="#263238" stroke="#263238" stroke-linecap="round" stroke-linejoin="round"/>
<path d="M661.265 737.339C657.093 743.412 651.043 747.947 644.044 750.249C641.996 750.933 639.908 751.492 637.793 751.924C637.108 752.062 636.417 752.183 635.732 752.292C633.257 752.718 630.759 753.006 628.25 753.213L626.972 753.311C626.483 753.345 625.999 753.386 625.504 753.409C625.009 753.432 624.52 753.484 624.025 753.507L623.547 753.535L621.084 753.674L619.536 753.743L618.12 753.8C615.576 753.886 612.635 753.95 609.55 753.886C608.796 753.886 608.03 753.84 607.247 753.806C593.111 753.23 577.036 749.777 580.288 735.86C582.106 728.055 606.597 740.879 611.27 743.031C605.181 739.313 599.638 734.737 595.586 728.792C593.111 725.137 586.331 714.575 590.832 710.293C594.021 707.259 598.314 710.966 600.726 713.171C607.506 719.249 614.292 728.648 617.728 737.137C617.349 731.928 606.631 691.851 618.592 694.056C624.923 695.207 625.729 708.687 626.27 712.963C627.323 721.16 627.214 729.367 627.145 737.609C629.015 729.983 634.967 699.092 647.33 701.636C658.266 703.898 641.367 730.495 639.848 735.86C646.07 731.998 651.503 723.347 660.43 725.068C667.561 726.414 663.924 733.448 661.265 737.339Z" fill="#59B7B7"/>
<path d="M609.55 753.886C608.796 753.886 608.03 753.84 607.248 753.806C605.596 752.655 603.932 751.544 602.229 750.456C596.997 747.106 591.293 744.441 586.113 741.068C585.767 740.838 585.986 740.217 586.4 740.372C592.156 742.525 597.653 746.162 602.816 749.437C605.101 750.87 607.351 752.35 609.55 753.886Z" fill="#BFE2DE"/>
<path d="M621.084 753.674L619.536 753.743C617.348 749.386 615.242 744.982 612.801 740.798C610.28 736.481 607.489 732.343 604.605 728.262C601.814 724.302 598.688 720.538 596.098 716.457C595.926 716.187 596.323 715.882 596.53 716.118C599.805 719.721 602.654 723.796 605.515 727.733C608.375 731.669 611.086 735.693 613.573 739.86C616.243 744.344 618.672 749.006 621.084 753.674Z" fill="#BFE2DE"/>
<path d="M625.504 753.409C625.009 753.443 624.52 753.484 624.025 753.507C623.3 746.79 622.776 740.038 622.045 733.362C620.894 722.719 619.472 712.066 618.712 701.389C618.717 701.313 618.748 701.241 618.802 701.187C618.855 701.133 618.927 701.1 619.002 701.095C619.078 701.09 619.153 701.113 619.213 701.16C619.273 701.207 619.314 701.274 619.328 701.348C620.986 711.933 621.959 722.645 623.127 733.287C623.858 739.975 624.802 746.692 625.504 753.409Z" fill="#BFE2DE"/>
<path d="M643.773 710.523C642.254 714.633 640.181 718.581 638.495 722.61C636.849 726.553 635.301 730.536 633.89 734.57C631.726 740.689 629.862 746.922 628.261 753.225L626.984 753.323C628.63 746.738 630.598 740.249 632.889 733.857C634.305 729.92 635.84 726.031 637.494 722.19C639.22 718.201 640.947 714.005 643.318 710.339C643.456 710.103 643.871 710.247 643.773 710.523Z" fill="#BFE2DE"/>
<path d="M656.533 732.095C650.145 738.691 643.589 745 637.77 751.924C637.085 752.062 636.394 752.183 635.709 752.292C641.839 744.758 649.051 738.012 656.297 731.848C656.476 731.681 656.718 731.934 656.533 732.095Z" fill="#BFE2DE"/>
<path d="M582.178 846.62L581.378 846.73C580.768 846.799 580.054 846.873 579.26 846.925C577.729 847.04 575.876 847.121 573.804 847.161C573.274 847.161 572.733 847.161 572.175 847.161C570.851 847.161 569.464 847.161 568.025 847.104C567.565 847.104 567.098 847.104 566.621 847.052C564.756 846.989 562.81 846.873 560.865 846.701L559.282 846.557C558.091 846.43 556.893 846.298 555.708 846.131C553.981 845.901 552.254 845.619 550.62 845.285C549.946 845.164 549.29 845.014 548.628 844.865C538.562 842.562 530.676 838.13 532.305 830.107C533.612 823.712 545.129 829.439 550.073 833.394C547.299 830.142 545.532 825.405 544.047 821.56C542.562 817.715 537.22 805.473 540.634 801.657C548.415 792.977 557.688 825.669 558.966 829.681C558.868 824.311 554.643 796.684 565.435 797.593C573.493 798.249 569.7 821.767 569.7 827.701C569.855 821.37 582.362 801.167 590.806 806.445C598.225 811.079 584.671 827.281 582.443 832.392C589.033 829.514 598.53 821.813 605.794 829.388C616.166 840.18 588.164 845.728 582.178 846.62Z" fill="#5A74B6"/>
<path d="M560.848 846.718L559.265 846.574C557.722 842.649 556.387 838.643 554.827 834.763C552.37 828.605 549.359 822.498 547.345 816.178C547.332 816.126 547.338 816.071 547.362 816.023C547.386 815.975 547.426 815.938 547.475 815.917C547.525 815.896 547.58 815.893 547.631 815.91C547.682 815.926 547.725 815.96 547.754 816.005C550.931 821.525 553.175 827.764 555.576 833.653C557.32 837.941 559.276 842.286 560.848 846.718Z" fill="#BFE2DE"/>
<path d="M568.025 847.121C567.565 847.121 567.099 847.121 566.621 847.069C566.178 842.349 565.971 837.595 565.596 832.899C565.314 829.445 565.055 826.02 564.785 822.579C564.514 819.137 564.048 815.672 564.209 812.259C564.209 811.965 564.67 811.884 564.733 812.189C566.12 818.584 566.109 825.485 566.65 831.995C567.081 837.014 567.692 842.073 568.025 847.121Z" fill="#BFE2DE"/>
<path d="M584.262 815.677C582.351 822.153 579.623 828.42 577.482 834.832C576.129 838.861 575.041 843.034 573.804 847.15C573.274 847.15 572.733 847.15 572.175 847.15C573.436 842.729 575.053 838.349 576.544 834.101C578.696 827.874 580.786 821.341 583.882 815.499C583.992 815.315 584.314 815.464 584.262 815.677Z" fill="#BFE2DE"/>
<path d="M599.279 833.376C594.714 836.76 589.931 839.811 585.465 843.339C584.084 844.433 582.731 845.572 581.436 846.729C580.826 846.798 580.112 846.873 579.318 846.925C581.217 845.325 583.174 843.794 585.108 842.321C589.505 838.925 594.116 835.506 599.083 832.985C599.13 832.981 599.177 832.991 599.218 833.014C599.259 833.038 599.292 833.072 599.313 833.114C599.334 833.157 599.342 833.204 599.336 833.251C599.33 833.297 599.31 833.341 599.279 833.376Z" fill="#BFE2DE"/>
<path d="M550.603 845.302C549.929 845.181 549.273 845.032 548.611 844.882C548.036 844.26 547.408 843.65 546.804 843.034C543.42 839.615 539.834 836.3 536.691 832.674C536.642 832.611 536.618 832.532 536.622 832.452C536.627 832.372 536.661 832.297 536.718 832.24C536.775 832.184 536.85 832.15 536.93 832.145C537.01 832.14 537.089 832.164 537.152 832.214C540.789 835.356 544.105 838.942 547.512 842.326C548.542 843.305 549.567 844.306 550.603 845.302Z" fill="#BFE2DE"/>
<path d="M535.2 343.359L529.893 354.017L518.007 355.723L526.604 364.01L524.574 375.721L535.2 370.192L545.826 375.721L543.796 364.01L552.392 355.723L540.519 354.017L535.2 343.359Z" fill="#F8CEFF"/>
<path d="M212.083 222L205.368 235.314L190.339 237.451L201.211 247.818L198.647 262.453L212.083 255.544L225.526 262.453L222.954 247.818L233.826 237.451L218.804 235.314L212.083 222Z" fill="#87B4B6"/>
<path d="M616.106 309.985L603.92 334.282L576.664 338.19L596.385 357.099L591.735 383.811L616.106 371.202L640.488 383.811L635.826 357.099L655.547 338.19L628.303 334.282L616.106 309.985Z" stroke="#A5C8C1" stroke-width="2" stroke-miterlimit="10"/>
<path d="M153.931 281.29C155.666 277.76 158.348 274.787 161.675 272.709C165.002 270.631 168.84 269.531 172.756 269.532C178.324 269.532 183.665 271.757 187.602 275.716C191.54 279.676 193.752 285.046 193.752 290.646V370.794C193.843 376.334 196.095 381.616 200.023 385.502C203.951 389.387 209.24 391.565 214.75 391.565C220.26 391.565 225.549 389.387 229.477 385.502C233.405 381.616 235.657 376.334 235.748 370.794V290.646C235.748 285.046 237.96 279.676 241.898 275.716C245.835 271.757 251.175 269.532 256.744 269.532C259.502 269.531 262.233 270.076 264.782 271.136C267.331 272.196 269.646 273.751 271.597 275.712C273.548 277.673 275.096 280.001 276.151 282.563C277.207 285.126 277.751 287.872 277.751 290.646V370.794C277.754 375.836 279.55 380.711 282.816 384.537C286.081 388.364 290.6 390.889 295.556 391.656C300.512 392.423 305.577 391.382 309.835 388.721C314.094 386.06 317.266 381.955 318.777 377.147" stroke="#919191" stroke-width="2.77" stroke-miterlimit="10" stroke-linecap="round" stroke-dasharray="11.23 11.23"/>
<path d="M327.388 375.718H314.098C313.228 375.726 312.39 375.409 311.755 374.832C311.121 374.255 310.74 373.463 310.692 372.621C310.643 371.778 310.931 370.95 311.495 370.308C312.06 369.666 312.857 369.26 313.722 369.174C313.795 368.161 314.189 367.194 314.851 366.407C315.513 365.62 316.409 365.051 317.417 364.778C318.424 364.504 319.495 364.541 320.48 364.882C321.466 365.222 322.319 365.851 322.922 366.681C323.766 366.608 324.611 366.811 325.321 367.259C326.032 367.707 326.567 368.373 326.841 369.152H327.388C327.843 369.133 328.298 369.204 328.725 369.361C329.152 369.518 329.542 369.757 329.871 370.063C330.2 370.37 330.462 370.738 330.641 371.146C330.82 371.553 330.913 371.992 330.913 372.435C330.913 372.878 330.82 373.316 330.641 373.724C330.462 374.131 330.2 374.5 329.871 374.806C329.542 375.113 329.152 375.352 328.725 375.509C328.298 375.665 327.843 375.737 327.388 375.718ZM318.768 365.164C317.594 365.169 316.469 365.62 315.632 366.419C314.795 367.218 314.312 368.303 314.286 369.442V369.716H314.004C313.284 369.757 312.608 370.067 312.118 370.58C311.628 371.093 311.36 371.77 311.372 372.47C311.383 373.17 311.672 373.839 312.179 374.336C312.686 374.834 313.371 375.123 314.092 375.142H327.388C327.765 375.159 328.142 375.101 328.496 374.972C328.851 374.843 329.174 374.646 329.447 374.393C329.721 374.139 329.938 373.835 330.087 373.497C330.236 373.159 330.312 372.796 330.312 372.429C330.312 372.062 330.236 371.699 330.087 371.361C329.938 371.024 329.721 370.719 329.447 370.465C329.174 370.212 328.851 370.015 328.496 369.886C328.142 369.757 327.765 369.7 327.388 369.716H326.389L326.33 369.505C326.131 368.775 325.661 368.141 325.011 367.727C324.36 367.313 323.574 367.148 322.805 367.263H322.623L322.517 367.115C322.11 366.514 321.555 366.021 320.903 365.68C320.25 365.339 319.521 365.162 318.78 365.164H318.768ZM327.388 374.828H314.098C313.465 374.798 312.868 374.533 312.431 374.087C311.994 373.642 311.75 373.05 311.75 372.435C311.75 371.82 311.994 371.228 312.431 370.782C312.868 370.337 313.465 370.072 314.098 370.042H314.656V369.865C314.65 369.749 314.65 369.633 314.656 369.517C314.658 368.623 314.964 367.756 315.528 367.05C316.092 366.344 316.88 365.84 317.771 365.615C318.661 365.391 319.603 365.46 320.449 365.81C321.295 366.161 321.998 366.774 322.446 367.554L322.505 367.663H322.623C323.007 367.568 323.407 367.553 323.798 367.618C324.188 367.682 324.561 367.826 324.891 368.039C325.22 368.255 325.501 368.535 325.714 368.861C325.927 369.186 326.069 369.552 326.13 369.933V370.07H327.388C327.721 370.054 328.055 370.104 328.368 370.218C328.681 370.331 328.968 370.504 329.21 370.728C329.452 370.952 329.644 371.221 329.776 371.519C329.908 371.818 329.976 372.139 329.976 372.463C329.976 372.788 329.908 373.109 329.776 373.407C329.644 373.705 329.452 373.975 329.21 374.198C328.968 374.422 328.681 374.596 328.368 374.709C328.055 374.822 327.721 374.872 327.388 374.857V374.828ZM314.086 370.612C313.606 370.638 313.155 370.842 312.825 371.18C312.495 371.519 312.311 371.968 312.311 372.435C312.311 372.901 312.495 373.35 312.825 373.689C313.155 374.028 313.606 374.231 314.086 374.258H327.388C327.643 374.271 327.898 374.235 328.139 374.149C328.379 374.064 328.599 373.932 328.784 373.761C328.97 373.591 329.118 373.385 329.219 373.157C329.321 372.929 329.373 372.683 329.373 372.435C329.373 372.186 329.321 371.941 329.219 371.713C329.118 371.485 328.97 371.279 328.784 371.108C328.599 370.938 328.379 370.806 328.139 370.72C327.898 370.635 327.643 370.598 327.388 370.612H325.625L325.519 369.996C325.471 369.692 325.359 369.401 325.19 369.141C325.021 368.881 324.799 368.658 324.538 368.484C324.275 368.316 323.979 368.203 323.668 368.152C323.358 368.101 323.04 368.113 322.734 368.187L322.176 368.313L321.9 367.834C321.516 367.16 320.911 366.629 320.181 366.327C319.451 366.024 318.638 365.966 317.871 366.163C317.104 366.359 316.426 366.798 315.944 367.411C315.463 368.024 315.206 368.775 315.214 369.545C315.208 369.646 315.208 369.747 315.214 369.848L315.284 370.641L314.086 370.612Z" fill="white"/>
<path d="M190.429 410.998V414.193" stroke="#1F3B51" stroke-width="2.77" stroke-miterlimit="10" stroke-linecap="round"/>
<path d="M190.429 420.455V490.876C190.429 495.369 191.866 499.744 194.53 503.362C197.195 506.979 200.947 509.649 205.238 510.981" stroke="#1F3B51" stroke-width="2.77" stroke-miterlimit="10" stroke-linecap="round" stroke-dasharray="10.89 10.89"/>
<path d="M208.289 511.683C209.342 511.84 210.406 511.919 211.472 511.919" stroke="#1F3B51" stroke-width="2.77" stroke-miterlimit="10" stroke-linecap="round"/>
<path d="M221.291 524.979C218.166 521.853 216.038 517.871 215.176 513.535C214.314 509.2 214.757 504.707 216.449 500.623C218.14 496.54 221.005 493.049 224.68 490.594C228.355 488.138 232.676 486.828 237.096 486.828C241.516 486.828 245.837 488.138 249.512 490.594C253.188 493.049 256.052 496.54 257.744 500.623C259.436 504.707 259.879 509.2 259.017 513.535C258.155 517.871 256.027 521.853 252.901 524.979" stroke="white" stroke-width="2.77" stroke-miterlimit="10" stroke-linecap="round" stroke-dasharray="11.1 11.1"/>
<path d="M190.429 410.998V490.876C190.429 496.457 192.646 501.809 196.592 505.756C200.539 509.702 205.891 511.919 211.472 511.919" stroke="white" stroke-width="2.77" stroke-miterlimit="10" stroke-linecap="round"/>
<path d="M214.165 391.319C212.22 395.905 208.968 399.817 204.815 402.567C200.661 405.317 195.79 406.783 190.809 406.783C185.828 406.783 180.956 405.317 176.803 402.567C172.65 399.817 169.397 395.905 167.452 391.319" stroke="#9FDCD2" stroke-width="2.77" stroke-miterlimit="10" stroke-linecap="round"/>
<path d="M198.065 398.984C207.741 394.976 212.337 383.882 208.328 374.205C204.32 364.528 193.226 359.933 183.549 363.941C173.872 367.949 169.277 379.043 173.285 388.72C177.294 398.397 188.388 402.992 198.065 398.984Z" fill="#E2E2E2"/>
<path d="M190.809 381.46V372.636" stroke="#2F0C2D" stroke-width="2.77" stroke-miterlimit="10" stroke-linecap="round"/>
<path d="M190.809 363.75V361.493" stroke="#52184E" stroke-width="2.77" stroke-miterlimit="10" stroke-linecap="round"/>
<path d="M203.218 368.838L204.812 367.243" stroke="#52184E" stroke-width="2.77" stroke-miterlimit="10" stroke-linecap="round"/>
<path d="M208.398 381.213H210.649" stroke="#52184E" stroke-width="2.77" stroke-miterlimit="10" stroke-linecap="round"/>
<path d="M203.31 393.622L204.899 395.216" stroke="#52184E" stroke-width="2.77" stroke-miterlimit="10" stroke-linecap="round"/>
<path d="M190.935 398.802V401.052" stroke="#52184E" stroke-width="2.77" stroke-miterlimit="10" stroke-linecap="round"/>
<path d="M178.52 393.714L176.926 395.302" stroke="#52184E" stroke-width="2.77" stroke-miterlimit="10" stroke-linecap="round"/>
<path d="M173.346 381.339H171.089" stroke="#52184E" stroke-width="2.77" stroke-miterlimit="10" stroke-linecap="round"/>
<path d="M178.434 368.924L176.84 367.33" stroke="#52184E" stroke-width="2.77" stroke-miterlimit="10" stroke-linecap="round"/>
<path d="M190.797 381.615L200.847 371.566" stroke="#2F0C2D" stroke-width="2.77" stroke-miterlimit="10" stroke-linecap="round"/>
<path d="M190.809 386.157C193.403 386.157 195.505 384.054 195.505 381.46C195.505 378.866 193.403 376.763 190.809 376.763C188.215 376.763 186.112 378.866 186.112 381.46C186.112 384.054 188.215 386.157 190.809 386.157Z" fill="white" stroke="#2F0C2D" stroke-width="2.77" stroke-miterlimit="10" stroke-linecap="round"/>
<path d="M252.636 509.703C252.64 506.948 251.911 504.242 250.525 501.862C249.139 499.481 247.145 497.512 244.747 496.156C242.349 494.8 239.634 494.105 236.88 494.144C234.125 494.182 231.43 494.952 229.071 496.374C226.712 497.797 224.774 499.821 223.454 502.239C222.135 504.657 221.482 507.382 221.562 510.136C221.643 512.889 222.453 515.572 223.912 517.909C225.37 520.246 227.423 522.154 229.861 523.436V531.891H244.389V523.436C246.881 522.112 248.965 520.134 250.418 517.714C251.872 515.295 252.638 512.525 252.636 509.703Z" fill="#FFDD92" stroke="#1F3B51" stroke-width="2.77" stroke-miterlimit="10" stroke-linecap="round"/>
<path d="M239.456 530.539V513.628C239.456 512.865 239.759 512.133 240.299 511.593C240.839 511.054 241.571 510.75 242.334 510.75H242.495C243.258 510.75 243.99 511.054 244.53 511.593C245.07 512.133 245.373 512.865 245.373 513.628C245.373 514.392 245.07 515.124 244.53 515.663C243.99 516.203 243.258 516.506 242.495 516.506H231.697C230.934 516.506 230.202 516.203 229.662 515.663C229.123 515.124 228.82 514.392 228.82 513.628C228.82 512.865 229.123 512.133 229.662 511.593C230.202 511.054 230.934 510.75 231.697 510.75H231.864C232.628 510.75 233.36 511.054 233.899 511.593C234.439 512.133 234.742 512.865 234.742 513.628V530.539" stroke="#1F3B51" stroke-width="2.77" stroke-miterlimit="10" stroke-linecap="round"/>
<path d="M245.782 531.327H228.405V538.602L232.037 539.523C233.303 540.674 234.978 542.568 236.826 542.568H237.344C239.186 542.568 240.861 540.669 242.133 539.523L245.759 538.602L245.782 531.327Z" fill="#4D6E84" stroke="#1F3B51" stroke-width="2.77" stroke-miterlimit="10" stroke-linecap="round"/>
<path d="M246.651 532.075H227.559C227.45 532.076 227.341 532.055 227.24 532.014C227.139 531.973 227.047 531.912 226.969 531.835C226.892 531.758 226.83 531.666 226.788 531.565C226.746 531.464 226.724 531.356 226.724 531.247C226.724 531.137 226.746 531.029 226.788 530.928C226.83 530.827 226.892 530.735 226.969 530.658C227.047 530.581 227.139 530.52 227.24 530.479C227.341 530.438 227.45 530.417 227.559 530.418H246.668C246.888 530.418 247.099 530.505 247.254 530.66C247.409 530.816 247.497 531.027 247.497 531.247C247.497 531.357 247.475 531.466 247.432 531.568C247.389 531.669 247.327 531.762 247.248 531.839C247.169 531.916 247.076 531.977 246.973 532.017C246.871 532.058 246.761 532.078 246.651 532.075Z" fill="#1F3B51" stroke="#1F3B51" stroke-width="2.77" stroke-miterlimit="10" stroke-linecap="round"/>
<path d="M246.651 535.742H227.559C227.338 535.742 227.125 535.654 226.969 535.497C226.812 535.341 226.724 535.129 226.724 534.907C226.726 534.687 226.814 534.476 226.971 534.321C227.127 534.166 227.339 534.078 227.559 534.078H246.668C246.887 534.08 247.097 534.168 247.252 534.323C247.407 534.478 247.495 534.688 247.497 534.907C247.497 535.018 247.475 535.127 247.432 535.229C247.389 535.331 247.327 535.424 247.248 535.501C247.17 535.579 247.076 535.64 246.974 535.682C246.871 535.723 246.761 535.743 246.651 535.742Z" fill="#1F3B51" stroke="#1F3B51" stroke-width="2.77" stroke-miterlimit="10" stroke-linecap="round"/>
<path d="M246.651 539.425H227.559C227.339 539.425 227.127 539.338 226.971 539.183C226.814 539.028 226.726 538.817 226.724 538.597C226.724 538.375 226.812 538.163 226.969 538.006C227.125 537.85 227.338 537.762 227.559 537.762H246.668C246.888 537.763 247.099 537.852 247.254 538.008C247.41 538.165 247.497 538.376 247.497 538.597C247.496 538.707 247.473 538.815 247.43 538.917C247.387 539.018 247.325 539.11 247.246 539.187C247.168 539.264 247.074 539.325 246.972 539.366C246.87 539.407 246.761 539.427 246.651 539.425Z" fill="#1F3B51" stroke="#1F3B51" stroke-width="2.77" stroke-miterlimit="10" stroke-linecap="round"/>
<path d="M147.864 594.166C150.653 594.167 153.415 593.626 155.992 592.574C158.569 591.522 160.91 589.98 162.883 588.036C164.855 586.091 166.42 583.783 167.487 581.242C168.555 578.701 169.104 575.978 169.104 573.228V493.746C169.104 488.193 171.342 482.867 175.324 478.941C179.306 475.014 184.707 472.808 190.339 472.808" stroke="#AB8CAE" stroke-width="2.77" stroke-miterlimit="10" stroke-linecap="round"/>
<path d="M398.828 821.928L397.867 825.508L444.935 838.143L445.896 834.563L398.828 821.928Z" fill="#FFDD92" stroke="#1F3B51" stroke-width="2.77" stroke-linecap="round" stroke-linejoin="round"/>
<path d="M439.776 796.548L437.737 793.452L397.039 820.26L399.078 823.355L439.776 796.548Z" fill="#FFDD92" stroke="#1F3B51" stroke-width="2.77" stroke-linecap="round" stroke-linejoin="round"/>
<path d="M439.758 796.546L437.721 793.449L444.036 793.728L439.758 796.546Z" fill="#B7D1CC" stroke="#1F3B51" stroke-width="2.77" stroke-linecap="round" stroke-linejoin="round"/>
<path d="M417.52 803.328C418.524 804.763 419.414 806.275 420.183 807.849C420.991 809.511 421.677 811.23 422.234 812.992C422.816 814.844 423.263 816.735 423.573 818.651C423.884 820.567 424.055 822.503 424.083 824.443C424.112 826.291 424.002 828.139 423.756 829.971C423.523 831.708 423.155 833.424 422.655 835.104" stroke="white" stroke-width="2.77" stroke-miterlimit="10" stroke-linecap="round"/>
<path d="M385.061 821.65L386.074 827.926L377.331 829.338C376.919 829.404 376.498 829.389 376.092 829.293C375.685 829.197 375.302 829.022 374.964 828.777C374.625 828.533 374.338 828.224 374.119 827.869C373.9 827.514 373.753 827.119 373.687 826.706C373.62 826.294 373.635 825.873 373.731 825.467C373.827 825.061 374.003 824.677 374.247 824.339C374.491 824 374.8 823.713 375.155 823.494C375.511 823.275 375.906 823.128 376.318 823.062L385.061 821.65Z" fill="#B7D1CC" stroke="#1F3B51" stroke-width="2.77" stroke-linecap="round" stroke-linejoin="round"/>
<path d="M386.019 819.339C383.593 822.7 384.35 827.391 387.711 829.818C391.072 832.244 395.763 831.487 398.19 828.126C400.616 824.765 399.859 820.073 396.498 817.647C393.137 815.221 388.445 815.978 386.019 819.339Z" fill="#FFDD92" stroke="#1F3B51" stroke-width="2.77" stroke-miterlimit="10" stroke-linecap="round"/>
<path d="M395.332 823.216C395.436 823.853 395.349 824.507 395.081 825.095C394.814 825.683 394.377 826.179 393.828 826.519C393.278 826.859 392.64 827.028 391.995 827.005C391.349 826.982 390.725 826.767 390.201 826.389C389.677 826.011 389.277 825.486 389.052 824.88C388.827 824.275 388.787 823.616 388.936 822.987C389.086 822.359 389.419 821.789 389.893 821.35C390.367 820.91 390.96 820.622 391.598 820.52C392.45 820.386 393.321 820.594 394.02 821.099C394.719 821.604 395.191 822.365 395.332 823.216Z" fill="white" stroke="#1F3B51" stroke-width="2.77" stroke-miterlimit="10" stroke-linecap="round"/>
<path d="M403.967 849.604L404.735 848.54L405.799 849.308C405.864 849.365 405.94 849.408 406.023 849.434C406.106 849.46 406.193 849.468 406.279 849.459C406.365 849.449 406.448 849.421 406.523 849.378C406.598 849.334 406.663 849.275 406.714 849.205C406.764 849.135 406.8 849.054 406.818 848.97C406.836 848.885 406.836 848.797 406.818 848.712C406.8 848.628 406.765 848.548 406.714 848.477C406.663 848.407 406.598 848.348 406.523 848.304L405.459 847.536L406.234 846.463C406.331 846.329 406.37 846.163 406.344 846C406.318 845.837 406.228 845.692 406.094 845.595C405.96 845.499 405.794 845.459 405.631 845.485C405.468 845.512 405.323 845.601 405.226 845.735L404.458 846.799L403.399 846.034C403.334 845.977 403.257 845.934 403.175 845.908C403.092 845.882 403.005 845.874 402.919 845.883C402.833 845.893 402.749 845.921 402.675 845.964C402.6 846.008 402.535 846.067 402.484 846.137C402.433 846.207 402.398 846.288 402.38 846.372C402.362 846.457 402.362 846.545 402.38 846.63C402.398 846.714 402.433 846.795 402.484 846.865C402.535 846.935 402.6 846.994 402.674 847.038L403.734 847.802L402.966 848.866C402.869 849 402.83 849.167 402.856 849.329C402.882 849.492 402.972 849.638 403.106 849.734C403.239 849.831 403.406 849.87 403.569 849.844C403.732 849.818 403.877 849.728 403.974 849.594L403.967 849.604Z" fill="#1F3B51"/>
<path d="M282.932 324.794L285.781 327.333L286.092 327.603L282.938 324.806L278.84 335.224L288.734 329.957L308.683 307.567L311.987 303.774C312.417 303.002 312.564 302.104 312.405 301.235C312.245 300.365 311.788 299.578 311.112 299.009L311.014 298.928C310.369 298.357 309.548 298.023 308.687 297.98C307.826 297.937 306.977 298.188 306.277 298.692L302.87 302.416L282.932 324.794Z" fill="#B7D1CC"/>
<path d="M282.938 324.806L278.84 335.224L288.734 329.957L282.938 324.806Z" fill="#FFDD92"/>
<path d="M282.938 324.806L278.84 335.224L288.734 329.957L282.938 324.806Z" stroke="#1F3B51" stroke-width="2.77" stroke-linecap="round" stroke-linejoin="round"/>
<path d="M285.781 327.333L288.728 329.951L308.677 307.562L305.69 304.903L302.887 302.399L282.932 324.794L285.781 327.333Z" stroke="#1F3B51" stroke-width="2.77" stroke-linecap="round" stroke-linejoin="round"/>
<path d="M302.87 302.416L305.673 304.914L308.625 307.596L311.952 303.774C312.382 303.002 312.529 302.104 312.37 301.235C312.21 300.365 311.753 299.578 311.077 299.009L310.979 298.928C310.334 298.357 309.513 298.023 308.652 297.98C307.792 297.937 306.942 298.188 306.242 298.692L302.87 302.416Z" stroke="#1F3B51" stroke-width="2.77" stroke-linecap="round" stroke-linejoin="round"/>
<path d="M305.69 304.903L285.781 327.333" stroke="#1F3B51" stroke-width="2.77" stroke-miterlimit="10"/>
<path d="M587.789 223.011V303.056C587.789 308.649 590.026 314.013 594.009 317.967C597.992 321.922 603.394 324.143 609.026 324.143" stroke="#9FDCD2" stroke-width="2.77" stroke-miterlimit="10" stroke-linecap="round"/>
<path d="M540.256 415.162H523.064" stroke="#F7C5FC" stroke-width="2.77" stroke-miterlimit="10" stroke-linecap="round" stroke-dasharray="11.1 11.1"/>
<path d="M541.268 411.117L545.313 415.668L541.268 420.219" stroke="#F7C5FC" stroke-width="2.94" stroke-linecap="round" stroke-linejoin="round"/>
<path d="M576.014 291.313H574.405C574.16 289.703 573.525 288.177 572.555 286.868L573.726 285.698C573.847 285.575 573.914 285.409 573.914 285.236C573.914 285.063 573.847 284.898 573.726 284.774L572.555 283.604C572.432 283.484 572.266 283.416 572.093 283.416C571.92 283.416 571.754 283.484 571.631 283.604L570.46 284.774C569.154 283.807 567.631 283.177 566.024 282.938V281.306C566.024 281.22 566.007 281.135 565.974 281.056C565.941 280.977 565.892 280.905 565.831 280.845C565.77 280.784 565.698 280.737 565.618 280.704C565.539 280.672 565.454 280.656 565.368 280.657H563.7C563.614 280.656 563.529 280.672 563.45 280.704C563.37 280.737 563.298 280.784 563.237 280.845C563.176 280.905 563.128 280.977 563.095 281.056C563.061 281.135 563.044 281.22 563.044 281.306V282.938C561.437 283.177 559.914 283.807 558.608 284.774L557.437 283.604C557.315 283.484 557.15 283.417 556.978 283.417C556.806 283.417 556.641 283.484 556.519 283.604L555.348 284.774C555.287 284.834 555.238 284.906 555.205 284.986C555.172 285.065 555.155 285.15 555.155 285.236C555.155 285.322 555.172 285.407 555.205 285.486C555.238 285.566 555.287 285.638 555.348 285.698L556.519 286.868C555.544 288.17 554.909 289.693 554.669 291.301H553.048C552.874 291.301 552.707 291.37 552.584 291.493C552.461 291.616 552.392 291.782 552.392 291.956V293.629C552.394 293.802 552.464 293.967 552.586 294.088C552.709 294.21 552.875 294.278 553.048 294.278H554.657C554.897 295.891 555.528 297.421 556.495 298.735L555.36 299.869C555.299 299.929 555.25 300.001 555.217 300.079C555.184 300.158 555.167 300.243 555.167 300.328C555.167 300.414 555.184 300.499 555.217 300.577C555.25 300.656 555.299 300.728 555.36 300.788L556.53 301.957C556.591 302.018 556.663 302.067 556.742 302.1C556.821 302.133 556.907 302.15 556.993 302.15C557.079 302.15 557.164 302.133 557.243 302.1C557.323 302.067 557.395 302.018 557.455 301.957L558.579 300.828C559.882 301.802 561.406 302.439 563.015 302.682V304.273C563.015 304.446 563.083 304.612 563.205 304.734C563.327 304.857 563.492 304.927 563.665 304.928H565.356C565.442 304.928 565.527 304.911 565.606 304.878C565.686 304.845 565.757 304.797 565.818 304.736C565.878 304.675 565.926 304.603 565.958 304.524C565.991 304.444 566.007 304.359 566.006 304.273V302.682C567.626 302.444 569.162 301.809 570.478 300.834L571.601 301.957C571.662 302.018 571.734 302.067 571.813 302.1C571.893 302.133 571.978 302.15 572.064 302.15C572.15 302.15 572.235 302.133 572.314 302.1C572.394 302.067 572.466 302.018 572.526 301.957L573.697 300.788C573.817 300.664 573.885 300.498 573.885 300.325C573.885 300.153 573.817 299.987 573.697 299.863L572.567 298.741C573.537 297.426 574.171 295.894 574.411 294.278H576.014C576.1 294.278 576.184 294.261 576.263 294.229C576.342 294.196 576.413 294.148 576.474 294.088C576.534 294.028 576.582 293.956 576.615 293.877C576.647 293.799 576.664 293.714 576.664 293.629V291.956C576.664 291.871 576.647 291.787 576.614 291.709C576.582 291.63 576.534 291.559 576.473 291.499C576.413 291.439 576.341 291.392 576.263 291.36C576.184 291.328 576.099 291.312 576.014 291.313ZM564.514 296.331C563.819 296.331 563.14 296.125 562.563 295.739C561.985 295.354 561.535 294.806 561.269 294.165C561.003 293.523 560.934 292.818 561.069 292.137C561.205 291.456 561.539 290.831 562.03 290.34C562.522 289.85 563.147 289.515 563.828 289.38C564.51 289.245 565.216 289.314 565.857 289.58C566.499 289.845 567.048 290.295 567.433 290.872C567.819 291.449 568.025 292.128 568.025 292.822C568.025 293.752 567.655 294.645 566.997 295.303C566.338 295.961 565.445 296.331 564.514 296.331Z" stroke="#E8D3F9" stroke-width="2.77" stroke-miterlimit="10" stroke-linecap="round"/>
<path d="M571.308 336.78C571.155 336.78 571.009 336.841 570.901 336.949C570.793 337.057 570.732 337.203 570.732 337.356V338.72C570.732 338.873 570.793 339.019 570.901 339.127C571.009 339.235 571.155 339.296 571.308 339.296C571.461 339.296 571.607 339.235 571.715 339.127C571.823 339.019 571.884 338.873 571.884 338.72V337.356C571.884 337.203 571.823 337.057 571.715 336.949C571.607 336.841 571.461 336.78 571.308 336.78Z" fill="white"/>
<path d="M569.771 335.41H568.407C568.254 335.41 568.108 335.471 568 335.579C567.892 335.687 567.831 335.833 567.831 335.986C567.831 336.139 567.892 336.285 568 336.393C568.108 336.501 568.254 336.562 568.407 336.562H569.771C569.924 336.562 570.07 336.501 570.178 336.393C570.286 336.285 570.347 336.139 570.347 335.986C570.347 335.833 570.286 335.687 570.178 335.579C570.07 335.471 569.924 335.41 569.771 335.41Z" fill="white"/>
<path d="M571.308 332.584C571.155 332.584 571.009 332.645 570.901 332.753C570.793 332.861 570.732 333.007 570.732 333.16V334.524C570.732 334.677 570.793 334.823 570.901 334.931C571.009 335.039 571.155 335.1 571.308 335.1C571.461 335.1 571.607 335.039 571.715 334.931C571.823 334.823 571.884 334.677 571.884 334.524V333.16C571.884 333.007 571.823 332.861 571.715 332.753C571.607 332.645 571.461 332.584 571.308 332.584Z" fill="white"/>
<path d="M574.203 335.313H572.845C572.692 335.313 572.546 335.373 572.438 335.481C572.33 335.589 572.269 335.736 572.269 335.888C572.269 336.041 572.33 336.187 572.438 336.295C572.546 336.403 572.692 336.464 572.845 336.464H574.203C574.356 336.464 574.502 336.403 574.61 336.295C574.718 336.187 574.779 336.041 574.779 335.888C574.779 335.736 574.718 335.589 574.61 335.481C574.502 335.373 574.356 335.313 574.203 335.313Z" fill="white"/>
<path d="M545.591 288.191C545.591 288.191 546.046 291.454 542.236 291.379C542.236 291.379 545.511 291.414 545.425 294.476C545.425 294.476 545.718 292.07 548.723 291.529C548.723 291.529 546.184 292.11 545.591 288.191Z" fill="white"/>
<path d="M527.916 315.997H514.896C514.115 315.976 513.372 315.655 512.822 315.1C512.272 314.544 511.959 313.798 511.947 313.016C511.935 312.235 512.225 311.479 512.758 310.907C513.291 310.335 514.024 309.991 514.804 309.947C514.819 308.945 515.156 307.975 515.764 307.179C516.373 306.383 517.221 305.803 518.184 305.526C519.147 305.249 520.173 305.288 521.112 305.639C522.051 305.989 522.852 306.632 523.397 307.472C524.22 307.353 525.057 307.539 525.751 307.995C526.446 308.451 526.95 309.146 527.167 309.947H527.916C528.324 309.929 528.732 309.994 529.114 310.138C529.497 310.282 529.846 310.502 530.141 310.785C530.436 311.068 530.671 311.407 530.832 311.783C530.992 312.159 531.075 312.563 531.075 312.972C531.075 313.381 530.992 313.785 530.832 314.161C530.671 314.537 530.436 314.876 530.141 315.159C529.846 315.441 529.497 315.661 529.114 315.805C528.732 315.949 528.324 316.014 527.916 315.997ZM514.885 310.816C514.34 310.845 513.827 311.081 513.451 311.477C513.075 311.873 512.866 312.397 512.866 312.943C512.866 313.489 513.075 314.014 513.451 314.409C513.827 314.805 514.34 315.041 514.885 315.07H527.916C528.204 315.085 528.493 315.041 528.764 314.941C529.035 314.841 529.283 314.687 529.492 314.488C529.702 314.289 529.869 314.049 529.983 313.784C530.097 313.518 530.156 313.232 530.156 312.943C530.156 312.654 530.097 312.368 529.983 312.103C529.869 311.837 529.702 311.598 529.492 311.399C529.283 311.2 529.035 311.045 528.764 310.945C528.493 310.845 528.204 310.801 527.916 310.816H526.413L526.356 310.437C526.3 310.098 526.176 309.774 525.99 309.485C525.804 309.197 525.56 308.95 525.275 308.759C524.989 308.569 524.668 308.439 524.33 308.378C523.992 308.317 523.645 308.326 523.311 308.405L522.983 308.485L522.816 308.192C522.41 307.457 521.772 306.879 521.001 306.547C520.23 306.216 519.371 306.15 518.559 306.36C517.746 306.571 517.027 307.045 516.514 307.709C516.001 308.373 515.724 309.189 515.725 310.028C515.719 310.137 515.719 310.247 515.725 310.356L515.765 310.845L514.885 310.816Z" fill="white"/>
<path d="M275.18 710.96L274.637 711.021C274.23 711.063 273.749 711.112 273.213 711.142C272.182 711.215 270.934 711.264 269.537 711.282H268.438C267.542 711.282 266.606 711.282 265.637 711.282L264.694 711.246C263.432 711.209 262.123 711.136 260.801 711.033L259.736 710.948C258.935 710.875 258.122 710.789 257.321 710.692C256.161 710.552 255.008 710.382 253.93 710.181C253.478 710.104 253.026 710.018 252.573 709.925C245.791 708.525 240.473 705.853 241.572 700.996C242.447 697.131 250.213 700.595 253.543 702.986C251.678 701.021 250.484 698.154 249.474 695.829C248.463 693.504 244.868 686.09 247.168 683.784C252.417 678.537 258.698 698.312 259.526 700.741C259.471 697.484 256.629 680.777 263.9 681.319C269.326 681.714 266.776 695.926 266.776 699.529C266.878 695.695 275.315 683.479 281.019 686.675C286.025 689.481 276.889 699.274 275.383 702.372C279.826 700.619 286.235 695.969 291.125 700.546C298.091 707.064 279.215 710.418 275.18 710.96Z" fill="#159B9A"/>
<path d="M260.801 711.014L259.736 710.929C258.698 708.556 257.783 706.133 256.738 703.784C255.097 700.059 253.062 696.364 251.705 692.542C251.697 692.511 251.701 692.478 251.717 692.45C251.732 692.421 251.759 692.399 251.792 692.386C251.824 692.374 251.861 692.372 251.895 692.382C251.929 692.391 251.958 692.412 251.977 692.439C254.113 695.78 255.619 699.554 257.233 703.114C258.42 705.707 259.743 708.336 260.801 711.014Z" fill="#BFE2DE"/>
<path d="M265.636 711.264L264.694 711.228C264.395 708.373 264.253 705.5 264.015 702.658C263.825 700.576 263.649 698.495 263.466 696.413C263.193 694.343 263.068 692.259 263.093 690.175C263.09 690.154 263.091 690.133 263.097 690.112C263.103 690.092 263.114 690.073 263.128 690.056C263.142 690.04 263.16 690.026 263.18 690.015C263.2 690.005 263.222 689.998 263.245 689.995C263.269 689.992 263.292 689.993 263.315 689.999C263.337 690.004 263.359 690.014 263.377 690.026C263.396 690.039 263.411 690.055 263.423 690.073C263.435 690.091 263.442 690.111 263.446 690.132C264.375 693.997 264.375 698.172 264.734 702.11C264.999 705.147 265.413 708.209 265.636 711.264Z" fill="#BFE2DE"/>
<path d="M276.584 692.25C275.295 696.164 273.457 699.955 272.013 703.814C271.104 706.249 270.364 708.775 269.537 711.264H268.438C269.286 708.592 270.392 705.945 271.382 703.352C272.833 699.584 274.237 695.634 276.326 692.104C276.401 691.994 276.625 692.11 276.584 692.25Z" fill="#BFE2DE"/>
<path d="M286.697 702.95C283.617 705.001 280.396 706.845 277.377 708.982C276.441 709.639 275.532 710.333 274.664 711.027C274.257 711.069 273.776 711.118 273.24 711.148C274.522 710.181 275.838 709.255 277.147 708.349C280.082 706.208 283.234 704.317 286.561 702.7C286.595 702.696 286.629 702.702 286.66 702.716C286.69 702.731 286.714 702.753 286.73 702.781C286.745 702.809 286.749 702.84 286.744 702.87C286.738 702.901 286.721 702.928 286.697 702.95Z" fill="#BFE2DE"/>
<path d="M196.101 836.167C168.921 825.529 159.635 796.337 168.978 771.925C176.551 752.139 182.18 741.089 179.862 719.247C178.149 703.199 175.73 678.864 188.241 665.155C197.944 654.516 214.644 656.559 225.844 663.279C243.235 673.712 244.242 691.738 245.351 709.032C246.704 730.065 246.531 742.438 258.754 760.426C267.277 772.966 271.711 785.699 269.278 800.68C264.844 827.752 230.796 845.868 201.802 837.94C199.864 837.451 197.96 836.859 196.101 836.167Z" fill="#0C776F"/>
<path d="M198.135 790.417C202.941 796.262 205.158 802.891 210.885 808.145C210.885 811.922 209.576 847.906 209.446 861.459H223.578C223.089 847.906 217.16 775.386 217.16 775.386C217.16 773.074 217.073 770.748 217.03 768.436C225.089 757.683 233.839 746.314 239.983 734.623C240.473 733.711 239.106 732.529 238.271 733.454C230.27 742.357 223.448 752.647 216.929 762.642C216.613 736.949 216.929 711.114 214.612 685.562C214.58 685.291 214.436 685.04 214.209 684.858C213.982 684.676 213.687 684.576 213.382 684.576C213.077 684.576 212.782 684.676 212.555 684.858C212.328 685.04 212.184 685.291 212.152 685.562C211.533 696.713 211.418 707.902 211.547 719.104C206.41 712.206 201.214 704.973 194.753 699.179C194.572 699.033 194.34 698.948 194.096 698.94C193.853 698.932 193.614 699.001 193.422 699.134C193.229 699.268 193.096 699.457 193.044 699.67C192.993 699.883 193.027 700.104 193.141 700.297C197.789 708.737 205.287 716.445 211.619 723.973C211.907 741.124 212.626 758.287 212.799 775.36C212.895 784.584 212.991 793.804 213.087 803.02C208.77 796.904 203.013 791.175 198.264 785.471C194.552 781 189.803 772.406 183.73 770.055C183.125 769.823 182.291 770.324 182.751 770.903C187.529 777.647 192.882 784.071 198.135 790.417Z" fill="#BFE2DE"/>
<path d="M244.774 863.624L244.319 863.687C243.968 863.728 243.559 863.768 243.104 863.797C242.23 863.866 241.171 863.912 239.985 863.935H239.052C238.293 863.935 237.504 863.935 236.675 863.906L235.875 863.877C234.81 863.837 233.694 863.774 232.572 863.676L231.668 863.59C230.989 863.52 230.304 863.446 229.625 863.348C228.64 863.215 227.662 863.054 226.712 862.864C226.327 862.795 225.952 862.709 225.561 862.623C219.805 861.299 215.293 858.772 216.225 854.185C216.974 850.524 223.558 853.799 226.384 856.061C224.801 854.202 223.788 851.491 222.931 849.292C222.073 847.094 219.023 840.083 220.98 837.908C225.429 832.94 230.73 851.641 231.461 853.943C231.415 850.858 229.003 835.064 235.173 835.571C239.778 835.951 237.614 849.384 237.614 852.798C237.7 849.166 244.86 837.62 249.701 840.636C253.948 843.289 246.195 852.556 244.918 855.48C248.688 853.828 254.127 849.431 258.277 853.753C264.216 859.94 248.198 863.112 244.774 863.624Z" fill="#7A9B50"/>
<path d="M232.571 863.682L231.668 863.595C230.787 861.35 230.016 859.06 229.129 856.838C227.719 853.315 225.998 849.828 224.864 846.207C224.857 846.178 224.86 846.147 224.874 846.12C224.887 846.093 224.91 846.072 224.938 846.06C224.965 846.048 224.997 846.047 225.025 846.056C225.054 846.065 225.079 846.084 225.095 846.109C226.908 849.269 228.185 852.838 229.555 856.205C230.557 858.657 231.673 861.149 232.571 863.682Z" fill="#BFE2DE"/>
<path d="M236.675 863.912L235.875 863.883C235.622 861.184 235.501 858.461 235.299 855.773C235.138 853.805 234.988 851.842 234.833 849.874C234.601 847.914 234.496 845.941 234.516 843.968C234.52 843.934 234.535 843.901 234.56 843.876C234.584 843.851 234.616 843.835 234.65 843.83C234.685 843.826 234.72 843.833 234.75 843.851C234.78 843.868 234.803 843.896 234.816 843.928C235.61 847.583 235.604 851.537 235.909 855.261C236.14 858.127 236.485 861.022 236.675 863.912Z" fill="#BFE2DE"/>
<path d="M245.965 845.954C244.872 849.661 243.312 853.241 242.086 856.89C241.314 859.192 240.693 861.581 239.985 863.935H239.052C239.772 861.408 240.71 858.904 241.55 856.452C242.782 852.89 243.979 849.154 245.746 845.81C245.81 845.718 246 845.804 245.965 845.954Z" fill="#BFE2DE"/>
<path d="M254.547 856.05C251.934 857.983 249.2 859.727 246.638 861.748C245.844 862.375 245.073 863.025 244.336 863.687C243.985 863.728 243.576 863.768 243.122 863.797C244.209 862.882 245.326 862.007 246.437 861.149C248.93 859.124 251.607 857.336 254.432 855.808C254.462 855.802 254.493 855.806 254.52 855.82C254.548 855.834 254.57 855.856 254.583 855.884C254.596 855.912 254.6 855.943 254.593 855.973C254.587 856.003 254.57 856.03 254.547 856.05Z" fill="#BFE2DE"/>
<path d="M226.712 862.87C226.326 862.801 225.952 862.715 225.561 862.628L224.525 861.575C222.591 859.618 220.542 857.719 218.74 855.641C218.715 855.604 218.702 855.56 218.706 855.515C218.71 855.47 218.73 855.429 218.761 855.397C218.793 855.365 218.835 855.346 218.879 855.342C218.924 855.338 218.969 855.35 219.005 855.376C221.089 857.178 222.982 859.227 224.939 861.161C225.532 861.736 226.119 862.3 226.712 862.87Z" fill="#BFE2DE"/>
<path d="M553.907 493.034C552.812 493.035 551.719 492.97 550.632 492.839C550.465 492.819 550.314 492.734 550.21 492.604C550.107 492.474 550.061 492.308 550.081 492.144C550.089 492.063 550.114 491.983 550.155 491.912C550.195 491.84 550.25 491.776 550.315 491.726C550.381 491.675 550.456 491.638 550.537 491.617C550.617 491.595 550.701 491.59 550.784 491.602C552.832 491.841 554.902 491.841 556.95 491.602C557.035 491.586 557.123 491.588 557.208 491.607C557.292 491.626 557.372 491.662 557.442 491.713C557.511 491.764 557.57 491.828 557.614 491.902C557.657 491.976 557.685 492.057 557.695 492.142C557.706 492.227 557.698 492.313 557.673 492.395C557.648 492.477 557.607 492.553 557.551 492.618C557.495 492.683 557.426 492.737 557.348 492.775C557.271 492.813 557.186 492.835 557.099 492.839C556.04 492.967 554.974 493.032 553.907 493.034ZM563.159 491.379C563.03 491.378 562.904 491.339 562.798 491.267C562.692 491.195 562.611 491.093 562.565 490.975C562.506 490.82 562.512 490.649 562.582 490.498C562.651 490.348 562.778 490.231 562.935 490.172C564.863 489.452 566.694 488.503 568.389 487.347C568.528 487.253 568.698 487.217 568.864 487.247C569.03 487.277 569.176 487.37 569.272 487.507C569.367 487.643 569.404 487.811 569.374 487.974C569.343 488.137 569.248 488.281 569.11 488.375C567.324 489.585 565.396 490.577 563.369 491.331C563.303 491.357 563.235 491.373 563.165 491.379H563.159ZM544.575 491.348C544.498 491.347 544.421 491.333 544.348 491.305C542.327 490.544 540.407 489.545 538.63 488.33C538.502 488.232 538.417 488.09 538.392 487.932C538.368 487.774 538.405 487.613 538.497 487.482C538.59 487.351 538.73 487.259 538.888 487.226C539.047 487.193 539.212 487.221 539.351 487.305C541.046 488.46 542.878 489.408 544.805 490.13C544.942 490.183 545.057 490.281 545.129 490.408C545.201 490.535 545.226 490.682 545.199 490.825C545.172 490.968 545.095 491.098 544.982 491.191C544.869 491.284 544.726 491.336 544.578 491.336L544.575 491.348ZM573.479 484.372C573.324 484.373 573.174 484.316 573.059 484.214C572.934 484.104 572.858 483.95 572.848 483.785C572.838 483.621 572.894 483.459 573.005 483.335C574.375 481.817 575.554 480.142 576.516 478.346C576.6 478.21 576.733 478.112 576.889 478.07C577.044 478.028 577.21 478.046 577.352 478.12C577.495 478.194 577.603 478.319 577.656 478.469C577.708 478.619 577.701 478.783 577.635 478.928C576.626 480.812 575.39 482.57 573.952 484.163C573.893 484.229 573.82 484.282 573.738 484.318C573.657 484.354 573.568 484.372 573.479 484.372ZM534.276 484.301C534.186 484.301 534.097 484.283 534.015 484.247C533.933 484.211 533.859 484.158 533.799 484.092C532.37 482.494 531.142 480.732 530.139 478.846C530.09 478.772 530.057 478.69 530.042 478.603C530.027 478.516 530.031 478.427 530.054 478.342C530.077 478.257 530.117 478.178 530.173 478.109C530.229 478.041 530.299 477.985 530.379 477.945C530.458 477.904 530.546 477.881 530.635 477.877C530.724 477.872 530.813 477.886 530.897 477.918C530.98 477.95 531.056 477.998 531.118 478.061C531.181 478.123 531.23 478.198 531.262 478.281C532.215 480.076 533.385 481.751 534.746 483.27C534.827 483.36 534.88 483.47 534.898 483.589C534.917 483.707 534.9 483.829 534.85 483.938C534.8 484.047 534.719 484.14 534.616 484.205C534.514 484.27 534.395 484.304 534.273 484.304L534.276 484.301ZM579.32 473.446C579.269 473.446 579.218 473.441 579.168 473.429C579.087 473.41 579.011 473.375 578.944 473.326C578.877 473.278 578.821 473.217 578.778 473.147C578.735 473.077 578.706 472.999 578.694 472.918C578.682 472.837 578.686 472.755 578.706 472.675C579.195 470.703 579.442 468.681 579.441 466.652C579.441 466.486 579.507 466.327 579.626 466.21C579.745 466.093 579.907 466.027 580.075 466.027C580.243 466.027 580.405 466.093 580.524 466.21C580.643 466.327 580.709 466.486 580.709 466.652C580.71 468.781 580.45 470.903 579.934 472.972C579.901 473.108 579.822 473.228 579.711 473.315C579.6 473.401 579.462 473.449 579.32 473.449V473.446ZM528.477 473.362C528.335 473.362 528.197 473.315 528.086 473.228C527.974 473.141 527.896 473.02 527.863 472.884C527.362 470.843 527.109 468.751 527.111 466.652V466.572C527.105 466.487 527.117 466.402 527.146 466.321C527.175 466.24 527.221 466.167 527.28 466.104C527.34 466.042 527.411 465.992 527.491 465.958C527.571 465.924 527.657 465.906 527.744 465.906C527.831 465.906 527.917 465.924 527.996 465.958C528.076 465.992 528.148 466.042 528.207 466.104C528.267 466.167 528.312 466.24 528.341 466.321C528.371 466.402 528.383 466.487 528.377 466.572V466.66C528.376 468.659 528.616 470.65 529.091 472.593C529.131 472.754 529.105 472.924 529.018 473.065C528.93 473.206 528.79 473.308 528.626 473.348C528.577 473.355 528.527 473.357 528.477 473.353V473.362ZM579.36 461.278C579.218 461.278 579.08 461.23 578.968 461.143C578.857 461.056 578.778 460.934 578.746 460.798C578.267 458.825 577.546 456.917 576.599 455.116C576.555 455.043 576.527 454.962 576.516 454.878C576.505 454.794 576.512 454.708 576.536 454.627C576.56 454.545 576.601 454.469 576.655 454.404C576.71 454.339 576.778 454.285 576.855 454.246C576.932 454.208 577.016 454.185 577.102 454.179C577.188 454.174 577.274 454.186 577.355 454.214C577.436 454.243 577.51 454.287 577.573 454.345C577.636 454.403 577.687 454.473 577.721 454.551C578.717 456.442 579.475 458.446 579.977 460.518C580 460.61 580 460.705 579.98 460.797C579.959 460.889 579.917 460.975 579.858 461.049C579.798 461.123 579.723 461.183 579.637 461.224C579.551 461.265 579.456 461.286 579.36 461.286V461.278ZM528.52 461.018C528.469 461.018 528.418 461.012 528.368 461.001C528.287 460.982 528.211 460.946 528.143 460.898C528.076 460.849 528.02 460.788 527.977 460.717C527.934 460.647 527.905 460.569 527.893 460.487C527.881 460.406 527.885 460.323 527.906 460.244C528.431 458.181 529.21 456.188 530.225 454.311C530.264 454.238 530.317 454.175 530.382 454.123C530.446 454.071 530.52 454.032 530.599 454.008C530.678 453.984 530.762 453.976 530.844 453.984C530.927 453.991 531.007 454.015 531.081 454.054C531.154 454.092 531.219 454.144 531.272 454.207C531.325 454.27 531.364 454.343 531.389 454.421C531.413 454.499 531.421 454.582 531.413 454.663C531.405 454.744 531.381 454.823 531.342 454.896C530.376 456.684 529.635 458.581 529.135 460.546C529.101 460.681 529.022 460.801 528.91 460.887C528.799 460.973 528.662 461.02 528.52 461.021V461.018ZM573.588 450.316C573.497 450.316 573.408 450.297 573.326 450.261C573.244 450.224 573.171 450.171 573.111 450.104C571.751 448.577 570.209 447.217 568.518 446.052C568.45 446.005 568.392 445.946 568.348 445.877C568.303 445.808 568.273 445.731 568.258 445.65C568.229 445.488 568.267 445.32 568.363 445.185C568.46 445.05 568.607 444.958 568.772 444.929C568.937 444.9 569.107 444.938 569.245 445.032C571.015 446.251 572.631 447.674 574.058 449.27C574.139 449.36 574.192 449.471 574.21 449.59C574.229 449.709 574.212 449.83 574.161 449.94C574.111 450.049 574.029 450.142 573.926 450.206C573.824 450.271 573.704 450.305 573.582 450.304L573.588 450.316ZM534.385 450.115C534.228 450.114 534.078 450.058 533.96 449.957C533.835 449.846 533.76 449.691 533.751 449.526C533.742 449.361 533.8 449.199 533.911 449.075C535.354 447.489 536.984 446.078 538.768 444.874C538.907 444.789 539.073 444.76 539.233 444.792C539.394 444.825 539.535 444.918 539.627 445.05C539.72 445.183 539.757 445.346 539.73 445.504C539.704 445.663 539.616 445.806 539.486 445.903C537.785 447.049 536.23 448.394 534.856 449.906C534.798 449.97 534.728 450.022 534.65 450.059C534.571 450.095 534.486 450.115 534.399 450.118L534.385 450.115ZM563.311 443.238C563.233 443.239 563.156 443.225 563.084 443.196C561.159 442.467 559.152 441.971 557.105 441.718C556.945 441.69 556.802 441.603 556.705 441.474C556.608 441.345 556.566 441.185 556.586 441.026C556.606 440.867 556.688 440.722 556.814 440.62C556.94 440.519 557.101 440.469 557.263 440.481C559.411 440.746 561.518 441.268 563.538 442.035C563.677 442.086 563.793 442.184 563.866 442.311C563.939 442.438 563.964 442.586 563.937 442.73C563.91 442.874 563.833 443.003 563.718 443.096C563.604 443.189 563.46 443.24 563.311 443.238ZM544.73 443.145C544.583 443.144 544.44 443.092 544.327 442.998C544.215 442.905 544.138 442.776 544.112 442.633C544.085 442.49 544.11 442.343 544.182 442.216C544.254 442.089 544.369 441.991 544.506 441.939C546.533 441.192 548.645 440.692 550.796 440.45C550.878 440.44 550.962 440.447 551.042 440.469C551.122 440.492 551.196 440.529 551.262 440.58C551.327 440.631 551.381 440.694 551.422 440.765C551.462 440.837 551.488 440.915 551.497 440.996C551.507 441.078 551.5 441.16 551.478 441.239C551.455 441.317 551.417 441.391 551.365 441.455C551.313 441.519 551.25 441.573 551.177 441.613C551.104 441.652 551.025 441.678 550.942 441.687C548.894 441.917 546.882 442.391 544.951 443.1C544.886 443.128 544.816 443.144 544.744 443.148L544.73 443.145Z" fill="white" fill-opacity="0.7"/>
<defs>
<filter id="filter0_b_259_754" x="199.062" y="351.179" width="404.067" height="324.07" filterUnits="userSpaceOnUse" color-interpolation-filters="sRGB">
<feFlood flood-opacity="0" result="BackgroundImageFix"/>
<feGaussianBlur in="BackgroundImageFix" stdDeviation="20"/>
<feComposite in2="SourceAlpha" operator="in" result="effect1_backgroundBlur_259_754"/>
<feBlend mode="normal" in="SourceGraphic" in2="effect1_backgroundBlur_259_754" result="shape"/>
</filter>
</defs>
</svg>
