<svg width="823" height="1083" viewBox="0 0 823 1083" fill="none" xmlns="http://www.w3.org/2000/svg">
<path opacity="0.5" d="M211.158 509.139C230.777 467.771 190.974 384.033 219.086 324.215C256.8 243.948 372.438 240.601 410.304 239.51C461.415 238.033 526.762 236.179 581.274 290.131C659.973 368.061 676.677 523.56 630.592 589.71C616.29 610.218 597.157 620.431 593.603 648.601C588.36 689.887 624.246 709.017 627.089 747.768C631.202 803.845 575.414 855 523.658 855C223.626 855 90.7625 762.953 211.158 509.139Z" fill="url(#paint0_linear_259_2406)"/>
<path style="mix-blend-mode:multiply" opacity="0.8" d="M223.761 835.38C172.284 796.747 157.363 694.962 215.078 584.66C268.77 482.064 168.246 384.603 202.676 308.993C234.471 239.165 348.721 206.405 438.376 229.165C572.872 263.309 641.781 419.902 613.293 511.073C590.724 583.276 550.238 584.307 559.022 630.818C568.806 682.792 658.301 651.4 665.342 723.431C683.7 911.653 312.599 902.054 223.761 835.38Z" fill="url(#paint1_linear_259_2406)"/>
<g style="mix-blend-mode:screen">
<path d="M254.083 391.666C252.199 392.678 250.657 394.226 249.653 396.115C248.648 398.003 248.227 400.147 248.441 402.275C248.655 404.403 249.496 406.42 250.856 408.071C252.217 409.721 254.036 410.931 256.084 411.547C258.133 412.163 260.318 412.158 262.363 411.533C264.408 410.907 266.222 409.689 267.575 408.032C268.928 406.376 269.76 404.355 269.964 402.226C270.168 400.097 269.737 397.955 268.724 396.071C268.052 394.82 267.141 393.713 266.041 392.815C264.942 391.916 263.676 391.243 262.316 390.834C260.957 390.425 259.53 390.288 258.117 390.431C256.704 390.573 255.334 390.993 254.083 391.666ZM260.529 403.673C260.043 403.938 259.489 404.052 258.937 404.002C258.386 403.951 257.862 403.737 257.432 403.388C257.002 403.039 256.686 402.57 256.524 402.04C256.361 401.511 256.36 400.945 256.52 400.415C256.681 399.885 256.995 399.414 257.423 399.063C257.851 398.712 258.374 398.496 258.926 398.443C259.477 398.39 260.032 398.502 260.519 398.765C261.006 399.028 261.404 399.43 261.662 399.92C261.995 400.567 262.063 401.319 261.852 402.015C261.64 402.711 261.166 403.298 260.529 403.65V403.673Z" fill="#F37D7D"/>
<path d="M277.616 387.148L272.551 388.086C271.586 387.106 270.517 386.236 269.362 385.49L269.227 380.305C269.214 379.877 269.067 379.463 268.808 379.123C268.548 378.782 268.188 378.531 267.778 378.406L264.559 377.438C264.147 377.318 263.708 377.331 263.304 377.476C262.899 377.62 262.551 377.888 262.308 378.241L259.389 382.488C258.014 382.47 256.643 382.606 255.299 382.894L251.547 379.329C251.237 379.032 250.841 378.842 250.416 378.785C249.991 378.728 249.559 378.809 249.183 379.014L246.226 380.605C245.845 380.807 245.539 381.126 245.353 381.515C245.167 381.904 245.11 382.342 245.191 382.766L246.129 387.839C245.145 388.797 244.274 389.865 243.532 391.021L238.347 391.163C237.919 391.173 237.505 391.318 237.164 391.576C236.824 391.835 236.573 392.195 236.448 392.604L235.48 395.823C235.361 396.235 235.374 396.675 235.518 397.079C235.662 397.483 235.93 397.831 236.283 398.075L240.493 401.024C240.478 402.398 240.616 403.77 240.906 405.113L237.341 408.866C237.046 409.176 236.856 409.571 236.799 409.996C236.743 410.421 236.822 410.853 237.026 411.229L238.617 414.186C238.819 414.567 239.138 414.873 239.527 415.059C239.916 415.246 240.355 415.302 240.778 415.222L245.844 414.284C246.81 415.264 247.879 416.137 249.033 416.888L249.175 422.065C249.185 422.493 249.33 422.907 249.589 423.248C249.847 423.589 250.207 423.839 250.616 423.964L253.836 424.932C254.247 425.053 254.687 425.04 255.092 424.896C255.496 424.752 255.844 424.483 256.087 424.129L259.006 419.882C260.378 419.898 261.747 419.759 263.088 419.469L266.84 423.041C267.15 423.337 267.546 423.527 267.971 423.583C268.396 423.64 268.827 423.56 269.204 423.356L272.161 421.765C272.542 421.563 272.848 421.244 273.034 420.855C273.22 420.466 273.277 420.028 273.196 419.604L272.303 414.531C273.287 413.573 274.158 412.505 274.9 411.349L280.085 411.207C280.513 411.197 280.927 411.052 281.268 410.794C281.608 410.535 281.859 410.175 281.984 409.766L282.952 406.547C283.072 406.136 283.06 405.697 282.918 405.293C282.775 404.889 282.508 404.54 282.156 404.296L277.901 401.376C277.917 400.002 277.778 398.63 277.489 397.287L281.053 393.535C281.349 393.224 281.539 392.829 281.595 392.404C281.652 391.979 281.573 391.547 281.368 391.171L279.785 388.214C279.585 387.828 279.266 387.516 278.876 387.324C278.486 387.132 278.044 387.071 277.616 387.148ZM265.535 412.97C263.205 414.224 260.557 414.759 257.924 414.507C255.291 414.255 252.791 413.228 250.742 411.556C248.693 409.883 247.186 407.641 246.411 405.111C245.636 402.582 245.629 399.88 246.39 397.347C247.151 394.814 248.646 392.563 250.687 390.88C252.727 389.197 255.221 388.156 257.852 387.89C260.484 387.624 263.136 388.145 265.471 389.386C267.807 390.627 269.723 392.533 270.975 394.863C272.652 397.986 273.021 401.647 272.001 405.042C270.981 408.437 268.655 411.289 265.535 412.97Z" fill="#F37D7D"/>
</g>
<path d="M236.321 605.48C234.474 603.365 235.289 599.839 237.405 597.979C239.52 596.119 242.503 595.691 245.299 595.729C249.836 595.729 253.948 596.749 258.209 597.979C255.009 595.249 251.907 592.398 248.902 589.466C246.908 587.525 244.965 585.538 243.071 583.502C238.263 587.644 232.335 590.256 226.042 591.003C223.672 591.281 220.944 591.146 219.374 589.338C217.55 587.23 218.357 583.697 220.466 581.875C222.574 580.052 225.541 579.579 228.322 579.587C233.002 579.587 237.24 580.674 241.643 581.957C235.836 575.646 230.532 568.887 225.781 561.742C220.433 564.976 214.257 566.562 208.019 566.303C205.634 566.198 202.958 565.635 201.695 563.602C200.2 561.225 201.59 557.872 203.938 556.402C206.285 554.931 209.305 554.946 212.056 555.396C216.541 556.147 220.398 557.767 224.398 559.649C219.531 552.036 215.18 543.688 213.439 534.792C213.439 534.604 213.379 534.416 213.341 534.229C207.546 536.733 201.14 537.451 194.937 536.292C192.59 535.849 190.026 534.904 189.069 532.714C187.948 530.148 189.772 527.028 192.328 525.91C194.885 524.793 197.845 525.235 200.506 526.083C205.186 527.583 209.058 530.006 213.08 532.699C211.353 522.363 211.518 511.696 209.432 501.398C203.564 503.998 197.05 504.758 190.743 503.58C188.396 503.138 185.832 502.193 184.875 500.002C183.754 497.437 185.578 494.317 188.135 493.199C190.691 492.081 193.651 492.524 196.313 493.372C201.119 494.872 205.074 497.422 209.215 500.205C208.647 497.634 207.898 495.108 206.972 492.644C205.033 487.612 202.156 482.997 198.495 479.045C193.423 483.241 187.184 485.764 180.629 486.268C178.252 486.441 175.531 486.193 174.044 484.326C172.302 482.135 173.296 478.647 175.449 476.907C177.602 475.167 180.607 474.829 183.388 474.957C188.493 475.197 193.016 476.652 197.8 478.295C191.725 471.986 184.247 467.211 175.98 464.358C170.96 467.581 165.141 469.327 159.183 469.399C156.798 469.399 154.099 469.001 152.731 467.043C151.139 464.748 152.32 461.328 154.608 459.73C156.895 458.132 159.885 457.99 162.659 458.29C167.076 458.785 170.994 460.165 175.015 461.8C175.19 461.769 175.37 461.782 175.539 461.838C182.444 464.1 188.863 467.647 194.459 472.294C195.7 473.294 196.901 474.359 198.062 475.489C195.686 470.186 194.794 464.333 195.483 458.56C195.774 456.19 196.544 453.557 198.66 452.454C201.134 451.164 204.356 452.784 205.634 455.275C206.913 457.765 206.666 460.758 206.001 463.473C204.76 468.536 202.405 472.767 199.819 477.237C202.177 479.651 204.244 482.335 205.978 485.233C208.46 489.601 210.246 494.331 211.271 499.252C211.477 493.255 213.357 487.436 216.698 482.458C218.036 480.478 219.92 478.49 222.304 478.482C225.093 478.482 227.223 481.385 227.231 484.183C227.238 486.981 225.653 489.539 223.829 491.646C220.323 495.689 216.175 498.397 211.704 501.293C213.274 509.394 213.566 517.847 214.448 525.963C214.724 528.521 215.068 531.049 215.554 533.546C215.455 527.032 217.344 520.643 220.966 515.237C222.304 513.256 224.181 511.261 226.565 511.254C229.354 511.254 231.492 514.149 231.499 516.947C231.507 519.745 229.929 522.303 228.105 524.448C224.532 528.588 220.271 531.341 215.689 534.304C216.224 536.976 216.974 539.6 217.931 542.15C219.748 546.837 221.972 551.355 224.577 555.652C225.255 556.802 225.955 557.937 226.678 559.057C226.018 553.187 226.994 547.249 229.496 541.902C230.512 539.742 232.067 537.484 234.422 537.102C237.173 536.659 239.73 539.217 240.163 541.977C240.597 544.738 239.416 547.513 237.92 549.876C235.185 554.256 231.664 557.504 227.851 560.902C232.509 567.875 237.714 574.464 243.415 580.607C241.243 574.823 240.788 568.53 242.107 562.492C242.623 560.16 243.602 557.617 245.844 556.717C248.423 555.674 251.481 557.602 252.512 560.197C253.544 562.792 253.021 565.755 252.101 568.388C250.352 573.399 247.534 577.434 244.476 581.725C245.234 582.535 245.996 583.34 246.764 584.14C250.985 588.534 255.426 592.71 260.07 596.651C258.043 590.99 257.649 584.87 258.934 578.994C259.45 576.662 260.466 574.111 262.671 573.219C265.258 572.176 268.315 574.096 269.347 576.699C270.379 579.302 269.848 582.25 268.928 584.89C267.231 589.766 264.518 593.711 261.558 597.874C266.898 602.314 272.557 606.353 278.489 609.958C279.723 610.708 278.489 612.576 277.248 611.826C271.262 608.184 265.552 604.103 260.167 599.614C255.318 603.77 249.346 606.381 243.011 607.115C240.642 607.423 237.898 607.288 236.321 605.48Z" fill="url(#paint2_linear_259_2406)"/>
<path d="M609.7 689.629C610.5 688.594 610.999 687.357 611.143 686.055C611.288 684.753 611.072 683.437 610.519 682.25C609.373 679.865 607.392 677.986 604.955 676.973C602.54 675.987 599.975 675.419 597.371 675.293C593.083 674.946 588.616 675.142 584.606 676.672C587.299 670.928 590.427 665.399 593.962 660.134L594.938 658.709L605.616 667.084C607.981 668.946 610.429 670.853 613.32 671.682C616.211 672.511 619.687 672.059 621.639 669.752C622.439 668.717 622.939 667.48 623.084 666.178C623.228 664.876 623.011 663.559 622.458 662.373C621.3 660.007 619.322 658.146 616.894 657.141C614.478 656.156 611.914 655.588 609.31 655.461C604.887 655.099 600.299 655.317 596.185 656.968C600.29 651.244 604.866 645.876 609.866 640.92L620.979 648.993C623.419 650.764 625.934 652.566 628.855 653.29C631.776 654.013 635.23 653.418 637.115 651.028C637.873 649.961 638.323 648.706 638.417 647.399C638.512 646.092 638.245 644.784 637.648 643.619C636.399 641.3 634.352 639.518 631.889 638.606C629.423 637.724 626.826 637.267 624.207 637.257C620.048 637.076 615.737 637.415 611.9 638.96C615.595 635.455 619.502 632.182 623.599 629.161C624.808 628.264 626.047 627.405 627.294 626.553L638.992 634.468C641.485 636.149 644.061 637.875 647.004 638.5C649.948 639.126 653.387 638.418 655.174 635.983C655.897 634.891 656.307 633.621 656.358 632.312C656.41 631.002 656.102 629.703 655.467 628.558C654.142 626.282 652.035 624.569 649.542 623.741C647.07 622.938 644.481 622.556 641.883 622.611C638.148 622.488 634.42 623.034 630.875 624.224C635.202 621.508 639.696 619.071 644.331 616.927L657.997 618.254C661.001 618.548 664.072 618.827 666.963 617.975C669.854 617.123 672.542 614.854 672.97 611.862C673.09 610.559 672.85 609.247 672.275 608.073C671.7 606.898 670.812 605.906 669.711 605.206C667.463 603.832 664.792 603.331 662.202 603.796C659.636 604.265 657.169 605.167 654.903 606.465C650.653 608.726 646.591 611.651 644.053 615.706H644.008C639.068 617.976 634.286 620.58 629.696 623.5C632.005 620.317 633.685 616.72 634.645 612.902C635.425 610.404 635.783 607.792 635.703 605.176C635.608 602.54 634.555 600.031 632.745 598.12C631.828 597.188 630.673 596.528 629.407 596.211C628.14 595.895 626.812 595.935 625.567 596.326C622.736 597.374 621.061 600.487 620.874 603.495C620.686 606.502 621.579 609.472 622.495 612.352C623.892 616.729 625.286 621.108 626.678 625.49C621.172 629.228 615.976 633.408 611.142 637.988C612.869 634.287 613.477 630.051 613.567 625.927C613.704 623.315 613.404 620.699 612.681 618.186C611.935 615.658 610.296 613.489 608.071 612.088C606.951 611.415 605.667 611.064 604.362 611.073C603.056 611.083 601.778 611.452 600.667 612.141C598.189 613.859 597.363 617.281 597.897 620.251C598.43 623.221 600.059 625.867 601.651 628.422L608.95 640.098C608.807 640.249 608.649 640.392 608.507 640.536C603.656 645.407 599.204 650.663 595.193 656.252C596.59 651.888 596.357 647.086 595.531 642.548C595.139 639.962 594.317 637.459 593.098 635.146C591.868 632.845 589.849 631.069 587.414 630.149C586.182 629.716 584.855 629.632 583.578 629.906C582.302 630.18 581.124 630.801 580.176 631.701C578.088 633.887 577.976 637.407 579.095 640.204C580.213 643.001 582.346 645.262 584.433 647.44L594.24 657.707L594.082 657.94H593.947L594.037 658.008C590.224 663.509 586.854 669.306 583.96 675.345C583.577 671.252 581.97 667.257 579.981 663.624C578.771 661.249 577.175 659.094 575.258 657.247C573.311 655.401 570.762 654.329 568.087 654.232C566.758 654.212 565.449 654.559 564.303 655.236C563.157 655.913 562.219 656.893 561.591 658.069C560.277 660.843 561.291 664.28 563.273 666.632C565.256 668.983 568.034 670.468 570.782 671.908L582.331 678.021L582.646 678.27C579.633 685.004 577.248 692.004 575.52 699.18C575.34 699.934 576.481 700.363 576.669 699.595C578.367 692.547 580.699 685.67 583.637 679.046L593.744 686.984C596.109 688.846 598.557 690.753 601.448 691.582C604.339 692.411 607.748 691.959 609.7 689.629Z" fill="url(#paint3_linear_259_2406)"/>
<path d="M288.175 349H561.825C567.171 349 572.298 351.115 576.08 354.88C579.863 358.646 581.992 363.754 582 369.083V818.066C582 828.126 577.991 837.775 570.855 844.889C563.719 852.003 554.041 856 543.949 856H306.051C295.959 856 286.281 852.003 279.145 844.889C272.009 837.775 268 828.126 268 818.066V369.083C268.008 363.754 270.137 358.646 273.92 354.88C277.702 351.115 282.829 349 288.175 349Z" fill="url(#paint4_linear_259_2406)"/>
<path d="M554.822 306H293.148C284.621 306.002 276.444 309.372 270.415 315.369C264.387 321.365 261 329.498 261 337.977V826.015C260.996 830.599 261.985 835.129 263.9 839.298C265.814 843.468 268.608 847.178 272.093 850.178C272.327 850.366 272.553 850.561 272.779 850.756C278.515 855.447 285.713 858.008 293.14 858H554.815C563.346 857.996 571.526 854.626 577.561 848.629C583.595 842.632 586.99 834.499 587 826.015V337.977C586.994 329.494 583.601 321.361 577.567 315.365C571.534 309.368 563.352 306 554.822 306ZM580.19 813.551C580.19 832.097 564.196 847.133 544.476 847.133H303.539C283.812 847.133 267.825 832.097 267.825 813.551V369.64C267.825 358.106 277.771 348.754 290.041 348.754H557.974C570.244 348.754 580.19 358.106 580.19 369.64V813.551Z" fill="white"/>
<path d="M313 327.492C313.001 329.569 312.416 331.6 311.318 333.328C310.22 335.056 308.659 336.403 306.832 337.199C305.005 337.994 302.994 338.203 301.054 337.799C299.113 337.395 297.331 336.395 295.932 334.927C294.532 333.459 293.579 331.588 293.193 329.551C292.806 327.514 293.004 325.403 293.76 323.484C294.517 321.565 295.799 319.924 297.444 318.77C299.088 317.616 301.022 317 303 317C305.651 317 308.193 318.105 310.068 320.073C311.944 322.04 312.998 324.709 313 327.492Z" fill="white"/>
<path d="M311 327.492C311.001 328.976 310.592 330.426 309.824 331.661C309.056 332.895 307.963 333.858 306.684 334.427C305.405 334.996 303.997 335.145 302.639 334.857C301.281 334.568 300.033 333.855 299.053 332.806C298.073 331.758 297.406 330.421 297.135 328.966C296.864 327.511 297.003 326.003 297.532 324.632C298.062 323.261 298.959 322.089 300.11 321.265C301.262 320.44 302.615 320 304 320C305.855 320 307.635 320.789 308.947 322.194C310.26 323.599 310.998 325.504 311 327.492Z" fill="#C7C7C7"/>
<path d="M335 327.492C335.002 328.976 334.563 330.427 333.739 331.662C332.916 332.896 331.745 333.859 330.374 334.428C329.003 334.996 327.494 335.145 326.039 334.856C324.583 334.567 323.246 333.853 322.197 332.803C321.147 331.754 320.433 330.417 320.144 328.961C319.855 327.506 320.004 325.997 320.572 324.626C321.141 323.255 322.104 322.084 323.338 321.261C324.573 320.437 326.024 319.998 327.508 320C329.494 320.002 331.399 320.792 332.803 322.197C334.208 323.601 334.998 325.506 335 327.492Z" fill="#C7C7C7"/>
<g style="mix-blend-mode:multiply">
<path d="M558.805 371.713H360.095V405.324H558.805V371.713Z" fill="#D7E8F7"/>
<path d="M549.455 445.313H408.759V577.965H549.455V445.313Z" fill="#D7E8F7"/>
<path d="M323.264 445.313H288.812V479.765H323.264V445.313Z" fill="#D7E8F7"/>
<path d="M323.264 494.414H288.812V528.865H323.264V494.414Z" fill="#D7E8F7"/>
<path d="M323.264 543.513H288.812V577.965H323.264V543.513Z" fill="#D7E8F7"/>
<path d="M378.653 445.313H344.201V479.765H378.653V445.313Z" fill="#D7E8F7"/>
<path d="M378.653 494.414H344.201V528.865H378.653V494.414Z" fill="#D7E8F7"/>
<path d="M378.653 543.513H344.201V577.965H378.653V543.513Z" fill="#D7E8F7"/>
<path d="M546.724 605.01H291.544C290.035 605.01 288.812 606.233 288.812 607.742V612.77C288.812 614.278 290.035 615.501 291.544 615.501H546.724C548.232 615.501 549.455 614.278 549.455 612.77V607.742C549.455 606.233 548.232 605.01 546.724 605.01Z" fill="#D7E8F7"/>
<path d="M546.724 637.916H291.544C290.035 637.916 288.812 639.139 288.812 640.648V645.675C288.812 647.184 290.035 648.407 291.544 648.407H546.724C548.232 648.407 549.455 647.184 549.455 645.675V640.648C549.455 639.139 548.232 637.916 546.724 637.916Z" fill="#D7E8F7"/>
<path d="M546.724 670.83H291.544C290.035 670.83 288.812 672.053 288.812 673.561V678.589C288.812 680.098 290.035 681.32 291.544 681.32H546.724C548.232 681.32 549.455 680.098 549.455 678.589V673.561C549.455 672.053 548.232 670.83 546.724 670.83Z" fill="#D7E8F7"/>
<path d="M440.104 717.048H293.367V791.662H440.104V717.048Z" fill="#D7E8F7"/>
<path d="M490.525 717.048H460.223V747.35H490.525V717.048Z" fill="#D7E8F7"/>
<path d="M549.455 717.048H519.153V747.35H549.455V717.048Z" fill="#D7E8F7"/>
<path d="M490.525 761.36H460.223V791.662H490.525V761.36Z" fill="#D7E8F7"/>
<path d="M549.455 761.36H519.153V791.662H549.455V761.36Z" fill="#D7E8F7"/>
</g>
<g style="mix-blend-mode:multiply">
<path d="M333.92 371.713H289.751C289.232 371.713 288.812 372.133 288.812 372.651V375.735C288.812 376.253 289.232 376.673 289.751 376.673H333.92C334.438 376.673 334.858 376.253 334.858 375.735V372.651C334.858 372.133 334.438 371.713 333.92 371.713Z" fill="#D7E8F7"/>
<path d="M333.92 385.213H289.751C289.232 385.213 288.812 385.633 288.812 386.151V389.235C288.812 389.753 289.232 390.173 289.751 390.173H333.92C334.438 390.173 334.858 389.753 334.858 389.235V386.151C334.858 385.633 334.438 385.213 333.92 385.213Z" fill="#D7E8F7"/>
<path d="M333.92 398.706H289.751C289.232 398.706 288.812 399.126 288.812 399.644V402.728C288.812 403.246 289.232 403.666 289.751 403.666H333.92C334.438 403.666 334.858 403.246 334.858 402.728V399.644C334.858 399.126 334.438 398.706 333.92 398.706Z" fill="#D7E8F7"/>
</g>
<g style="mix-blend-mode:screen">
<path d="M608.634 407H412.366C405.536 407 400 412.504 400 419.294V517.706C400 524.496 405.536 530 412.366 530H608.634C615.464 530 621 524.496 621 517.706V419.294C621 412.504 615.464 407 608.634 407Z" fill="#CD6F6F"/>
</g>
<path d="M489.127 422H429.873C420.554 422 413 429.636 413 439.055V498.945C413 508.364 420.554 516 429.873 516H489.127C498.446 516 506 508.364 506 498.945V439.055C506 429.636 498.446 422 489.127 422Z" fill="white"/>
<path d="M459 496.444V505C450.606 504.766 442.527 501.976 436 497.058L441.291 490C446.242 493.948 452.484 496.22 459 496.444Z" fill="#FF91ED"/>
<path d="M459 496.444V505C450.606 504.766 442.527 501.976 436 497.058L441.291 490C446.242 493.948 452.484 496.22 459 496.444Z" fill="#FF91ED"/>
<path d="M440 488.595L435.177 496C431.654 492.556 428.84 488.365 426.916 483.694C424.992 479.022 423.998 473.973 424 468.868C424 468.548 424 468.266 424 468H432.366C432.366 468.289 432.366 468.571 432.366 468.868C432.377 476.263 435.121 483.355 440 488.595Z" fill="#FFC257"/>
<path d="M440 488.595L435.177 496C431.654 492.556 428.84 488.365 426.916 483.694C424.992 479.022 423.998 473.973 424 468.868C424 468.548 424 468.266 424 468H432.366C432.366 468.289 432.366 468.571 432.366 468.868C432.377 476.263 435.121 483.355 440 488.595Z" fill="#FF91ED"/>
<path d="M450 442.529C445.301 444.259 441.154 447.381 438.038 451.534C434.923 455.688 432.966 460.703 432.394 466H424C424.542 458.749 427.088 451.836 431.313 446.148C435.466 440.507 441.06 436.286 447.411 434L450 442.529Z" fill="#FF91ED"/>
<path d="M450 442.529C445.301 444.259 441.154 447.381 438.038 451.534C434.923 455.688 432.966 460.703 432.394 466H424C424.542 458.749 427.088 451.836 431.313 446.148C435.466 440.507 441.06 436.286 447.411 434L450 442.529Z" fill="#FF91ED"/>
<path d="M496 468.878C496.008 472.305 495.514 475.715 494.535 479L486.559 475.538C487.853 470.467 487.638 465.129 485.94 460.178C484.242 455.227 481.135 450.879 477 447.668L482.413 441C486.433 444.171 489.729 448.164 492.081 452.71C494.672 457.705 496.016 463.252 496 468.878Z" fill="#FF91ED"/>
<path d="M496 468.878C496.008 472.305 495.514 475.715 494.535 479L486.559 475.538C487.853 470.467 487.638 465.129 485.94 460.178C484.242 455.227 481.135 450.879 477 447.668L482.413 441C486.433 444.171 489.729 448.164 492.081 452.71C494.672 457.705 496.016 463.252 496 468.878Z" fill="#FFC64A"/>
<path d="M495 481.474C492.419 488.216 487.802 494.06 481.742 498.253C475.683 502.446 468.459 504.796 461 505V496.345C466.702 496.119 472.202 494.25 476.787 490.979C481.373 487.708 484.833 483.187 486.719 478L495 481.474Z" fill="#FFC257"/>
<path d="M495 481.474C492.419 488.216 487.802 494.06 481.742 498.253C475.683 502.446 468.459 504.796 461 505V496.345C466.702 496.119 472.202 494.25 476.787 490.979C481.373 487.708 484.833 483.187 486.719 478L495 481.474Z" fill="#FF91ED"/>
<path d="M480 439.336L474.515 446C470.05 443.076 464.808 441.518 459.448 441.523C458.834 441.523 458.213 441.523 457.615 441.582C455.948 441.689 454.295 441.948 452.676 442.354L450 434.232C452.91 433.453 455.908 433.039 458.923 433H459.448C466.795 432.983 473.97 435.195 480 439.336Z" fill="#FFC257"/>
<path d="M480 439.336L474.515 446C470.05 443.076 464.808 441.518 459.448 441.523C458.834 441.523 458.213 441.523 457.615 441.582C455.948 441.689 454.295 441.948 452.676 442.354L450 434.232C452.91 433.453 455.908 433.039 458.923 433H459.448C466.795 432.983 473.97 435.195 480 439.336Z" fill="#FFC64A"/>
<path d="M598.908 422H525.092C521.728 422 519 424.752 519 428.146V442.854C519 446.248 521.728 449 525.092 449H598.908C602.272 449 605 446.248 605 442.854V428.146C605 424.752 602.272 422 598.908 422Z" fill="#FBD8D8"/>
<path d="M523 457H520V516H523V457Z" fill="white"/>
<path d="M540 457H536V516H540V457Z" fill="white"/>
<path d="M556 457H553V516H556V457Z" fill="white"/>
<path d="M572 457H569V516H572V457Z" fill="white"/>
<path d="M588 457H584V516H588V457Z" fill="white"/>
<path d="M603 457H600V516H603V457Z" fill="white"/>
<path d="M525 486H518V490H525V486Z" fill="#FF91ED"/>
<path d="M589 496H583V498H589V496Z" fill="#FF91ED"/>
<path d="M558 506H550V509H558V506Z" fill="#FF91ED"/>
<path d="M573 476H566V479H573V476Z" fill="#FF91ED"/>
<path d="M605 460H598V464H605V460Z" fill="#FF91ED"/>
<path d="M541 466H534V469H541V466Z" fill="#FF91ED"/>
<g style="mix-blend-mode:screen">
<path d="M427.386 605H206.614C200.752 605 196 609.823 196 615.773V650.227C196 656.177 200.752 661 206.614 661H427.386C433.248 661 438 656.177 438 650.227V615.773C438 609.823 433.248 605 427.386 605Z" fill="#DFCA07"/>
</g>
<path d="M242.138 633.629L218.155 622.162C217.927 622.045 217.673 621.989 217.417 622.002C217.161 622.014 216.913 622.093 216.696 622.232C216.48 622.37 216.302 622.564 216.18 622.793C216.058 623.022 215.996 623.28 216 623.541V646.467C215.997 646.727 216.06 646.984 216.182 647.212C216.305 647.44 216.483 647.632 216.699 647.77C216.916 647.908 217.164 647.987 217.419 647.998C217.674 648.01 217.928 647.955 218.155 647.838L242.138 636.378C242.395 636.257 242.613 636.063 242.766 635.82C242.919 635.576 243 635.293 243 635.004C243 634.715 242.919 634.432 242.766 634.188C242.613 633.945 242.395 633.751 242.138 633.629Z" fill="#E04949"/>
<path d="M426.027 630H264.973C263.884 630 263 630.845 263 631.887V633.113C263 634.155 263.884 635 264.973 635H426.027C427.116 635 428 634.155 428 633.113V631.887C428 630.845 427.116 630 426.027 630Z" fill="#E04949"/>
<path d="M613 696H511V798H613V696Z" fill="white"/>
<g style="mix-blend-mode:screen">
<path d="M608.855 687H326.145C318.333 687 312 693.342 312 701.166V793.834C312 801.658 318.333 808 326.145 808H608.855C616.667 808 623 801.658 623 793.834V701.166C623 693.342 616.667 687 608.855 687Z" fill="#F37027"/>
</g>
<path d="M526 777L535.742 761.701L542.821 764.304L555.724 732L564.443 751.257L571.996 744.943L578.882 763.152L584.417 754.975L596 777H526Z" fill="#ACCA95"/>
<path d="M588.71 732.098C589.812 727.427 586.92 722.747 582.249 721.645C577.578 720.542 572.897 723.435 571.795 728.106C570.693 732.777 573.585 737.457 578.256 738.56C582.927 739.662 587.607 736.769 588.71 732.098Z" fill="#FF91ED"/>
<path d="M354.5 736C363.06 736 370 728.837 370 720C370 711.163 363.06 704 354.5 704C345.94 704 339 711.163 339 720C339 728.837 345.94 736 354.5 736Z" fill="white"/>
<path d="M354 731C360.075 731 365 725.851 365 719.5C365 713.149 360.075 708 354 708C347.925 708 343 713.149 343 719.5C343 725.851 347.925 731 354 731Z" fill="#FFE163"/>
<path d="M405 736C413.284 736 420 728.837 420 720C420 711.163 413.284 704 405 704C396.716 704 390 711.163 390 720C390 728.837 396.716 736 405 736Z" fill="white"/>
<path d="M404.5 731C410.299 731 415 725.851 415 719.5C415 713.149 410.299 708 404.5 708C398.701 708 394 713.149 394 719.5C394 725.851 398.701 731 404.5 731Z" fill="#FF91ED"/>
<path d="M454 736C462.284 736 469 728.837 469 720C469 711.163 462.284 704 454 704C445.716 704 439 711.163 439 720C439 728.837 445.716 736 454 736Z" fill="white"/>
<path d="M454.5 731C460.299 731 465 725.851 465 719.5C465 713.149 460.299 708 454.5 708C448.701 708 444 713.149 444 719.5C444 725.851 448.701 731 454.5 731Z" fill="#65B064"/>
<path d="M467.961 748H339.039C338.465 748 338 748.505 338 749.129V749.871C338 750.495 338.465 751 339.039 751H467.961C468.535 751 469 750.495 469 749.871V749.129C469 748.505 468.535 748 467.961 748Z" fill="white"/>
<path d="M467.961 761H339.039C338.465 761 338 761.337 338 761.753V762.247C338 762.663 338.465 763 339.039 763H467.961C468.535 763 469 762.663 469 762.247V761.753C469 761.337 468.535 761 467.961 761Z" fill="white"/>
<path d="M467.961 774H339.039C338.465 774 338 774.506 338 775.129V775.871C338 776.495 338.465 777 339.039 777H467.961C468.535 777 469 776.495 469 775.871V775.129C469 774.506 468.535 774 467.961 774Z" fill="white"/>
<path d="M467.961 788H339.039C338.465 788 338 788.337 338 788.753V789.247C338 789.663 338.465 790 339.039 790H467.961C468.535 790 469 789.663 469 789.247V788.753C469 788.337 468.535 788 467.961 788Z" fill="white"/>
<g style="mix-blend-mode:screen">
<path d="M533.389 560H478.611C473.303 560 469 564.361 469 569.741V625.259C469 630.639 473.303 635 478.611 635H533.389C538.697 635 543 630.639 543 625.259V569.741C543 564.361 538.697 560 533.389 560Z" fill="#203D94"/>
</g>
<path d="M528.075 595.483H526.519C526.082 593.44 525.348 591.475 524.342 589.656L525.631 588.334C526.558 587.383 527.079 586.094 527.08 584.75C527.08 583.406 526.561 582.116 525.634 581.165C524.708 580.214 523.452 579.679 522.141 579.678C520.831 579.678 519.574 580.211 518.646 581.161L517.543 582.293C515.829 581.166 513.959 580.31 511.995 579.756V577.879C511.946 576.568 511.404 575.327 510.482 574.418C509.56 573.508 508.331 573 507.052 573C505.773 573 504.543 573.508 503.622 574.418C502.7 575.327 502.157 576.568 502.108 577.879V579.482C500.12 579.932 498.208 580.683 496.435 581.708L495.168 580.386C494.242 579.435 492.986 578.9 491.675 578.9C490.365 578.899 489.107 579.432 488.18 580.382C487.253 581.333 486.732 582.622 486.731 583.966C486.731 585.31 487.25 586.6 488.177 587.551L489.243 588.691C488.145 590.45 487.311 592.368 486.769 594.381H484.94C483.63 594.381 482.373 594.915 481.447 595.866C480.52 596.816 480 598.105 480 599.449C480 600.793 480.52 602.082 481.447 603.033C482.373 603.983 483.63 604.517 484.94 604.517H486.495C486.931 606.558 487.665 608.52 488.673 610.337L487.384 611.666C486.907 612.133 486.526 612.692 486.262 613.312C485.999 613.931 485.859 614.599 485.851 615.274C485.843 615.95 485.967 616.621 486.216 617.247C486.464 617.873 486.832 618.442 487.298 618.92C487.764 619.398 488.318 619.775 488.928 620.03C489.539 620.285 490.192 620.412 490.851 620.404C491.51 620.395 492.161 620.252 492.765 619.982C493.369 619.712 493.914 619.321 494.368 618.831L495.472 617.707C497.188 618.831 499.057 619.686 501.019 620.244V622.121C501.069 623.432 501.611 624.673 502.533 625.582C503.455 626.492 504.684 627 505.963 627C507.242 627 508.471 626.492 509.393 625.582C510.315 624.673 510.857 623.432 510.907 622.121V620.525C512.896 620.076 514.808 619.323 516.58 618.292L517.869 619.614C518.795 620.565 520.051 621.1 521.362 621.1C522.011 621.101 522.653 620.97 523.253 620.715C523.853 620.461 524.398 620.088 524.857 619.618C525.316 619.147 525.68 618.588 525.929 617.974C526.177 617.359 526.305 616.7 526.306 616.034C526.306 615.368 526.179 614.709 525.931 614.094C525.683 613.479 525.319 612.92 524.86 612.449L523.757 611.325C524.854 609.561 525.69 607.641 526.238 605.626H528.06C529.37 605.626 530.627 605.092 531.553 604.142C532.48 603.191 533 601.902 533 600.558C533 599.214 532.48 597.925 531.553 596.975C530.627 596.025 529.37 595.491 528.06 595.491L528.075 595.483ZM521.224 599.996C521.221 602.98 520.356 605.896 518.738 608.375C517.12 610.855 514.821 612.786 512.133 613.926C509.445 615.066 506.488 615.362 503.636 614.778C500.784 614.195 498.164 612.756 496.109 610.645C494.053 608.534 492.654 605.846 492.087 602.919C491.521 599.993 491.813 596.959 492.927 594.203C494.041 591.447 495.926 589.091 498.344 587.434C500.763 585.776 503.606 584.892 506.515 584.892C508.447 584.893 510.361 585.284 512.146 586.044C513.931 586.803 515.553 587.916 516.919 589.319C518.285 590.721 519.368 592.386 520.106 594.218C520.845 596.05 521.225 598.014 521.224 599.996Z" fill="white"/>
<path d="M497 600C497 601.78 497.557 603.521 498.602 605.001C499.646 606.481 501.13 607.635 502.866 608.316C504.603 608.997 506.513 609.174 508.356 608.827C510.199 608.479 511.892 607.621 513.22 606.361C514.548 605.102 515.453 603.498 515.818 601.751C516.184 600.005 515.995 598.195 515.275 596.551C514.554 594.906 513.336 593.501 511.772 592.513C510.209 591.525 508.372 590.999 506.492 591C505.245 591 504.01 591.233 502.858 591.685C501.706 592.138 500.659 592.801 499.778 593.636C498.896 594.472 498.197 595.464 497.72 596.556C497.244 597.648 496.999 598.818 497 600Z" fill="white"/>
<g style="mix-blend-mode:screen">
<path d="M355.291 406H306.709C303.556 406 301 408.631 301 411.877V437.123C301 440.369 303.556 443 306.709 443H355.291C358.444 443 361 440.369 361 437.123V411.877C361 408.631 358.444 406 355.291 406Z" fill="#86BC51"/>
</g>
<g style="mix-blend-mode:screen">
<path d="M355.291 461H306.709C303.556 461 301 463.631 301 466.877V492.123C301 495.369 303.556 498 306.709 498H355.291C358.444 498 361 495.369 361 492.123V466.877C361 463.631 358.444 461 355.291 461Z" fill="#65C981"/>
</g>
<g style="mix-blend-mode:screen">
<path d="M355.291 517H306.709C303.556 517 301 519.56 301 522.718V547.282C301 550.44 303.556 553 306.709 553H355.291C358.444 553 361 550.44 361 547.282V522.718C361 519.56 358.444 517 355.291 517Z" fill="#26848A"/>
</g>
<path d="M320.713 436C320.544 436.001 320.377 435.971 320.221 435.91C320.064 435.85 319.923 435.762 319.803 435.649L309.381 425.856C309.261 425.745 309.165 425.612 309.099 425.465C309.034 425.318 309 425.161 309 425.002C309 424.843 309.034 424.685 309.099 424.538C309.165 424.392 309.261 424.259 309.381 424.147L319.803 414.354C319.923 414.242 320.064 414.153 320.22 414.092C320.376 414.031 320.544 414 320.713 414C320.881 414 321.049 414.031 321.205 414.092C321.361 414.153 321.502 414.242 321.622 414.354C321.741 414.466 321.836 414.599 321.901 414.746C321.965 414.893 321.999 415.05 321.999 415.208C321.999 415.367 321.965 415.524 321.901 415.671C321.836 415.817 321.741 415.951 321.622 416.063L312.102 425.002L321.622 433.941C321.802 434.109 321.925 434.324 321.975 434.559C322.025 434.793 322 435.036 321.902 435.257C321.805 435.478 321.639 435.666 321.428 435.798C321.216 435.931 320.967 436.001 320.713 436Z" fill="white"/>
<path d="M342.288 436C342.629 436 342.956 435.874 343.198 435.649L353.628 425.856C353.866 425.628 354 425.321 354 425.002C354 424.682 353.866 424.375 353.628 424.147L343.198 414.354C342.957 414.127 342.63 414 342.288 414C341.947 414 341.62 414.127 341.378 414.354C341.137 414.581 341.002 414.888 341.002 415.208C341.002 415.529 341.137 415.836 341.378 416.063L350.898 425.002L341.378 433.941C341.198 434.109 341.075 434.324 341.025 434.559C340.975 434.793 341 435.036 341.098 435.257C341.196 435.478 341.361 435.666 341.573 435.798C341.785 435.931 342.034 436.001 342.288 436Z" fill="white"/>
<path d="M326.329 436C326.147 435.998 325.966 435.963 325.798 435.897C325.637 435.833 325.492 435.741 325.371 435.626C325.25 435.511 325.154 435.375 325.091 435.226C325.027 435.078 324.996 434.919 325 434.759C325.004 434.599 325.043 434.442 325.114 434.296L334.526 414.598C334.691 414.342 334.953 414.15 335.263 414.059C335.573 413.967 335.909 413.983 336.207 414.103C336.505 414.222 336.744 414.437 336.879 414.708C337.015 414.978 337.037 415.284 336.942 415.567L327.529 435.266C327.427 435.48 327.26 435.663 327.047 435.793C326.835 435.924 326.585 435.995 326.329 436Z" fill="white"/>
<path d="M322.946 493C322.352 493.001 321.765 492.901 321.222 492.706C320.678 492.511 320.189 492.226 319.785 491.869C319.424 491.558 319.146 491.188 318.971 490.783C318.797 490.378 318.728 489.947 318.771 489.518C318.862 488.588 318.997 487.688 319.142 486.817C319.532 484.355 319.867 482.227 318.843 480.687C318.247 480.102 317.58 479.568 316.851 479.095L316 478.514L316.906 477.941C317.635 477.493 318.292 476.97 318.862 476.386C319.966 474.482 319.45 472.376 319.043 470.687C318.943 470.271 318.843 469.884 318.789 469.541C318.724 469.125 318.772 468.702 318.928 468.302C319.085 467.902 319.347 467.535 319.695 467.228C320.108 466.843 320.615 466.535 321.183 466.324C321.751 466.112 322.367 466.002 322.991 466V467.488C322.622 467.493 322.26 467.562 321.926 467.691C321.592 467.819 321.294 468.003 321.053 468.232C320.882 468.382 320.754 468.561 320.677 468.757C320.6 468.952 320.577 469.159 320.609 469.363C320.664 469.668 320.754 470.033 320.845 470.419C321.288 472.227 321.886 474.705 320.528 477.056C320.084 477.62 319.534 478.122 318.898 478.544C319.506 478.966 320.045 479.451 320.501 479.987C321.814 481.952 321.406 484.414 321.008 487.018C320.872 487.874 320.736 488.759 320.646 489.652C320.628 489.876 320.667 490.101 320.76 490.313C320.854 490.524 321 490.717 321.189 490.88C321.422 491.083 321.703 491.245 322.014 491.357C322.325 491.47 322.66 491.53 323 491.534L322.946 493Z" fill="white"/>
<path d="M339 493V491.513C339.293 491.509 339.582 491.449 339.85 491.337C340.118 491.224 340.359 491.062 340.56 490.859C340.723 490.697 340.849 490.504 340.93 490.293C341.01 490.081 341.044 489.857 341.029 489.632C340.951 488.74 340.834 487.856 340.717 487.001C340.358 484.399 340.022 481.938 341.153 479.976C341.547 479.438 342.014 478.953 342.542 478.534C341.99 478.114 341.513 477.612 341.13 477.047C339.96 474.698 340.475 472.222 340.857 470.416C340.943 470.029 341.013 469.672 341.06 469.36C341.088 469.157 341.068 468.95 341.002 468.754C340.936 468.559 340.825 468.38 340.678 468.23C340.47 468.002 340.213 467.817 339.926 467.689C339.638 467.561 339.325 467.492 339.008 467.487V466C339.546 466.003 340.078 466.113 340.569 466.325C341.059 466.536 341.498 466.843 341.856 467.227C342.148 467.538 342.366 467.906 342.494 468.305C342.622 468.704 342.657 469.125 342.597 469.539C342.55 469.88 342.464 470.282 342.378 470.683C342.027 472.371 341.598 474.475 342.534 476.378C343.025 476.961 343.592 477.483 344.22 477.931L345 478.504L344.267 479.084C343.639 479.554 343.066 480.088 342.558 480.675C341.668 482.213 341.957 484.339 342.293 486.8C342.417 487.67 342.534 488.569 342.612 489.499C342.649 489.927 342.59 490.358 342.44 490.762C342.289 491.167 342.05 491.537 341.739 491.848C341.392 492.211 340.969 492.502 340.497 492.7C340.026 492.899 339.516 493.001 339 493Z" fill="white"/>
<path d="M347.544 525.71L343.087 524L343.11 526.459H317V528.541H343.141L343.171 531L347.582 529.213L352 527.426L347.544 525.71Z" fill="white"/>
<path d="M316.202 536.96L320.404 535L320.375 537.808H345V540.185H320.353L320.324 543L316.158 540.952L312 538.912L316.202 536.96Z" fill="white"/>
<g style="mix-blend-mode:screen">
<path d="M230.25 720.612C228.368 721.625 226.829 723.173 225.828 725.061C224.826 726.948 224.406 729.091 224.622 731.217C224.837 733.343 225.679 735.357 227.039 737.005C228.399 738.653 230.218 739.861 232.264 740.476C234.311 741.09 236.494 741.084 238.537 740.459C240.58 739.833 242.392 738.615 243.744 736.96C245.095 735.305 245.925 733.286 246.129 731.159C246.333 729.031 245.902 726.891 244.89 725.009C244.218 723.759 243.306 722.653 242.206 721.756C241.107 720.858 239.841 720.185 238.481 719.777C237.122 719.369 235.695 719.232 234.282 719.375C232.87 719.519 231.5 719.939 230.25 720.612ZM236.696 732.619C236.209 732.882 235.654 732.995 235.103 732.943C234.552 732.891 234.028 732.677 233.598 732.328C233.169 731.978 232.852 731.509 232.689 730.98C232.527 730.451 232.524 729.885 232.683 729.354C232.842 728.824 233.154 728.352 233.581 727.999C234.007 727.646 234.529 727.428 235.08 727.372C235.631 727.315 236.186 727.424 236.676 727.683C237.165 727.943 237.566 728.341 237.829 728.829C238.174 729.48 238.248 730.24 238.036 730.945C237.824 731.65 237.342 732.243 236.696 732.596V732.619Z" fill="#BC950D"/>
<path d="M253.783 716.087L248.748 717.033C247.781 716.052 246.712 715.179 245.558 714.429L245.416 709.243C245.406 708.816 245.261 708.404 245.002 708.064C244.743 707.725 244.384 707.475 243.975 707.352L240.756 706.384C240.345 706.264 239.906 706.276 239.502 706.418C239.098 706.561 238.749 706.827 238.505 707.18L235.585 711.434C234.211 711.419 232.839 711.557 231.496 711.847L227.744 708.275C227.432 707.983 227.036 707.795 226.612 707.738C226.188 707.682 225.757 707.759 225.38 707.96L222.423 709.551C222.043 709.754 221.738 710.073 221.552 710.462C221.365 710.851 221.308 711.289 221.388 711.712L222.326 716.792C221.344 717.75 220.473 718.815 219.729 719.967L214.544 720.102C214.115 720.113 213.701 720.259 213.361 720.519C213.02 720.779 212.769 721.14 212.645 721.55L211.677 724.769C211.555 725.181 211.567 725.621 211.711 726.026C211.856 726.431 212.125 726.779 212.48 727.021L216.727 729.94C216.712 731.317 216.85 732.691 217.14 734.037L213.576 737.789C213.28 738.099 213.09 738.495 213.033 738.92C212.977 739.345 213.056 739.776 213.26 740.153L214.851 743.11C215.054 743.49 215.373 743.796 215.762 743.984C216.15 744.171 216.588 744.231 217.013 744.153L222.078 743.207C223.04 744.192 224.11 745.065 225.267 745.811L225.41 750.996C225.42 751.423 225.565 751.836 225.824 752.176C226.082 752.515 226.442 752.764 226.851 752.888L230.07 753.856C230.481 753.976 230.92 753.964 231.324 753.821C231.728 753.679 232.077 753.412 232.321 753.06L235.24 748.805C236.612 748.821 237.981 748.682 239.322 748.393L243.075 751.965C243.386 752.257 243.782 752.445 244.206 752.501C244.63 752.558 245.061 752.48 245.438 752.28L248.373 750.719C248.753 750.516 249.058 750.196 249.244 749.808C249.43 749.419 249.488 748.981 249.408 748.558L248.47 743.485C249.452 742.525 250.323 741.457 251.067 740.303L256.252 740.168C256.68 740.156 257.094 740.01 257.435 739.75C257.776 739.49 258.026 739.13 258.15 738.72L259.119 735.5C259.241 735.088 259.229 734.648 259.084 734.244C258.94 733.839 258.671 733.491 258.316 733.249L254.068 730.33C254.084 728.953 253.945 727.579 253.655 726.233L257.22 722.481C257.516 722.171 257.706 721.775 257.762 721.35C257.819 720.925 257.739 720.493 257.535 720.117L255.944 717.16C255.746 716.774 255.429 716.462 255.04 716.268C254.651 716.075 254.211 716.012 253.783 716.087ZM241.701 741.909C239.372 743.163 236.724 743.697 234.091 743.445C231.457 743.194 228.958 742.166 226.909 740.494C224.86 738.822 223.352 736.579 222.578 734.05C221.803 731.521 221.796 728.819 222.557 726.286C223.318 723.753 224.813 721.502 226.854 719.819C228.894 718.135 231.388 717.095 234.019 716.829C236.651 716.563 239.302 717.084 241.638 718.325C243.974 719.566 245.889 721.472 247.142 723.801C248.821 726.924 249.191 730.586 248.171 733.982C247.15 737.377 244.823 740.229 241.701 741.909Z" fill="#BC950D"/>
</g>
<g style="mix-blend-mode:screen">
<path d="M633.022 544.639C631.139 545.65 629.599 547.197 628.595 549.084C627.592 550.971 627.17 553.113 627.384 555.24C627.598 557.366 628.438 559.382 629.797 561.031C631.157 562.68 632.975 563.889 635.021 564.505C637.068 565.121 639.251 565.117 641.295 564.492C643.339 563.867 645.151 562.65 646.504 560.995C647.856 559.34 648.687 557.321 648.892 555.194C649.097 553.067 648.667 550.926 647.655 549.044C646.297 546.52 643.993 544.639 641.25 543.813C638.506 542.988 635.547 543.284 633.022 544.639ZM639.46 556.645C638.974 556.905 638.421 557.015 637.872 556.961C637.324 556.907 636.803 556.692 636.376 556.343C635.95 555.993 635.636 555.525 635.475 554.997C635.314 554.47 635.313 553.907 635.472 553.378C635.631 552.85 635.943 552.381 636.368 552.03C636.794 551.679 637.314 551.462 637.862 551.406C638.411 551.35 638.964 551.458 639.451 551.716C639.939 551.974 640.339 552.37 640.601 552.856C640.945 553.507 641.018 554.268 640.805 554.974C640.591 555.679 640.108 556.271 639.46 556.623V556.645Z" fill="#80CCC7"/>
<path d="M656.555 540.121L651.482 541.059C650.519 540.075 649.449 539.202 648.293 538.455L648.158 533.27C648.145 532.843 647.998 532.43 647.738 532.091C647.478 531.752 647.118 531.503 646.709 531.379L643.467 530.411C643.056 530.289 642.617 530.3 642.213 530.443C641.808 530.586 641.46 530.853 641.216 531.206L638.29 535.461C636.915 535.446 635.543 535.584 634.2 535.874L630.448 532.302C630.136 532.009 629.74 531.821 629.316 531.765C628.892 531.708 628.462 531.786 628.084 531.987L625.127 533.578C624.748 533.782 624.443 534.101 624.256 534.489C624.069 534.877 624.009 535.315 624.084 535.739L625.03 540.819C624.044 541.778 623.17 542.845 622.426 544.001L617.24 544.136C616.813 544.148 616.4 544.294 616.061 544.554C615.721 544.814 615.472 545.175 615.349 545.584L614.381 548.803C614.258 549.215 614.269 549.654 614.412 550.059C614.555 550.463 614.823 550.812 615.177 551.055L619.424 553.974C619.411 555.351 619.552 556.725 619.844 558.071L616.272 561.823C615.98 562.135 615.792 562.531 615.735 562.955C615.679 563.378 615.756 563.809 615.957 564.187L617.548 567.151C617.754 567.529 618.074 567.832 618.461 568.018C618.849 568.204 619.286 568.263 619.709 568.187L624.782 567.241C625.743 568.225 626.813 569.096 627.971 569.838L628.106 575.023C628.117 575.451 628.263 575.864 628.523 576.204C628.783 576.544 629.145 576.792 629.555 576.914L632.774 577.882C633.185 578.004 633.624 577.993 634.029 577.85C634.433 577.707 634.782 577.44 635.025 577.087L637.944 572.832C639.319 572.855 640.692 572.716 642.034 572.419L645.786 575.991C646.097 576.286 646.493 576.475 646.917 576.532C647.342 576.588 647.773 576.509 648.15 576.306L651.107 574.715C651.487 574.511 651.792 574.193 651.979 573.804C652.167 573.416 652.226 572.978 652.15 572.554L651.204 567.481C652.19 566.523 653.064 565.456 653.808 564.3L658.994 564.157C659.421 564.145 659.834 563.999 660.173 563.739C660.513 563.479 660.762 563.118 660.885 562.709L661.853 559.497C661.973 559.086 661.961 558.647 661.818 558.243C661.676 557.839 661.409 557.49 661.057 557.246L656.81 554.327C656.822 552.949 656.681 551.575 656.39 550.229L659.962 546.477C660.254 546.165 660.442 545.77 660.499 545.346C660.555 544.922 660.478 544.491 660.277 544.113L658.686 541.157C658.484 540.782 658.17 540.481 657.788 540.295C657.405 540.109 656.974 540.048 656.555 540.121ZM644.466 565.936C642.136 567.188 639.487 567.721 636.854 567.468C634.221 567.215 631.723 566.187 629.674 564.514C627.626 562.841 626.12 560.598 625.346 558.068C624.572 555.539 624.566 552.837 625.328 550.304C626.09 547.772 627.586 545.522 629.627 543.839C631.668 542.157 634.162 541.117 636.794 540.852C639.425 540.587 642.076 541.108 644.412 542.35C646.747 543.592 648.662 545.498 649.914 547.828C651.592 550.952 651.961 554.614 650.939 558.01C649.917 561.406 647.589 564.256 644.466 565.936Z" fill="#80CCC7"/>
</g>
<g style="mix-blend-mode:screen">
<path d="M653.891 511.245C652.976 511.737 652.227 512.489 651.74 513.407C651.252 514.325 651.048 515.366 651.152 516.4C651.256 517.434 651.665 518.413 652.326 519.215C652.987 520.016 653.871 520.604 654.866 520.903C655.861 521.202 656.923 521.199 657.916 520.895C658.91 520.591 659.791 519.999 660.448 519.195C661.105 518.39 661.509 517.408 661.608 516.374C661.708 515.34 661.498 514.299 661.006 513.384C660.346 512.157 659.226 511.242 657.891 510.841C656.557 510.44 655.118 510.585 653.891 511.245ZM657.021 517.061C656.784 517.188 656.515 517.242 656.247 517.216C655.98 517.19 655.726 517.086 655.518 516.915C655.31 516.745 655.158 516.517 655.079 516.26C655.001 516.003 655.001 515.729 655.078 515.471C655.156 515.214 655.308 514.986 655.516 514.815C655.723 514.644 655.977 514.539 656.244 514.513C656.511 514.486 656.781 514.539 657.018 514.666C657.255 514.792 657.449 514.986 657.576 515.223C657.661 515.38 657.714 515.552 657.733 515.73C657.751 515.907 657.734 516.087 657.682 516.258C657.63 516.429 657.545 516.588 657.432 516.726C657.318 516.864 657.179 516.978 657.021 517.061Z" fill="#5682C4"/>
<path d="M665.327 509.084L662.866 509.542C662.397 509.064 661.876 508.641 661.313 508.281L661.245 505.76C661.24 505.552 661.17 505.351 661.045 505.186C660.92 505.02 660.745 504.898 660.547 504.837L658.979 504.371C658.779 504.31 658.565 504.313 658.368 504.382C658.171 504.451 658.001 504.582 657.883 504.754L656.465 506.825C655.799 506.816 655.135 506.881 654.484 507.02L652.653 505.287C652.501 505.145 652.309 505.054 652.103 505.027C651.897 505 651.688 505.038 651.505 505.137L650.071 505.887C649.886 505.985 649.736 506.14 649.646 506.329C649.555 506.519 649.528 506.732 649.568 506.938L650.026 509.399C649.551 509.867 649.128 510.386 648.766 510.945L646.244 511.013C646.037 511.021 645.838 511.093 645.674 511.219C645.51 511.346 645.389 511.52 645.329 511.718L644.856 513.279C644.798 513.481 644.804 513.695 644.874 513.893C644.944 514.091 645.074 514.262 645.246 514.382L647.31 515.8C647.303 516.469 647.371 517.136 647.512 517.789L645.764 519.59C645.62 519.741 645.528 519.932 645.5 520.139C645.471 520.345 645.509 520.554 645.606 520.738L646.357 522.179C646.456 522.363 646.612 522.511 646.8 522.601C646.989 522.691 647.201 522.72 647.407 522.682L649.869 522.224C650.339 522.702 650.86 523.127 651.422 523.492L651.49 526.006C651.494 526.214 651.564 526.414 651.69 526.58C651.815 526.746 651.989 526.868 652.187 526.929L653.756 527.394C653.955 527.456 654.169 527.452 654.367 527.384C654.564 527.315 654.734 527.184 654.851 527.012L656.27 524.948C656.938 524.955 657.605 524.887 658.258 524.745L660.089 526.479C660.241 526.621 660.433 526.712 660.639 526.739C660.845 526.766 661.055 526.727 661.237 526.629L662.671 525.878C662.856 525.78 663.005 525.625 663.097 525.436C663.189 525.248 663.218 525.034 663.181 524.828L662.723 522.367C663.199 521.899 663.621 521.38 663.984 520.821L666.505 520.753C666.713 520.746 666.912 520.674 667.077 520.548C667.241 520.421 667.361 520.246 667.421 520.048L667.894 518.487C667.954 518.285 667.949 518.07 667.879 517.872C667.809 517.673 667.677 517.502 667.503 517.384L665.44 515.973C665.447 515.302 665.379 514.633 665.237 513.977L666.971 512.153C667.114 512.003 667.207 511.811 667.235 511.605C667.263 511.399 667.226 511.189 667.128 511.005L666.378 509.564C666.274 509.385 666.117 509.243 665.929 509.157C665.741 509.071 665.531 509.045 665.327 509.084ZM659.451 521.631C658.319 522.239 657.032 522.498 655.753 522.375C654.474 522.251 653.26 521.751 652.265 520.938C651.269 520.125 650.538 519.035 650.162 517.806C649.786 516.577 649.783 515.264 650.154 514.033C650.524 512.803 651.251 511.709 652.243 510.892C653.234 510.074 654.446 509.569 655.725 509.44C657.003 509.311 658.292 509.564 659.426 510.167C660.561 510.771 661.492 511.697 662.1 512.829C662.905 514.344 663.078 516.115 662.582 517.757C662.086 519.399 660.96 520.778 659.451 521.594V521.631Z" fill="#5682C4"/>
</g>
<path d="M195.73 210.902C195.878 211.169 195.968 211.47 195.993 211.782C196.018 212.093 195.977 212.406 195.874 212.698C195.77 212.989 195.607 213.251 195.397 213.463C195.186 213.675 194.934 213.831 194.66 213.921L188.395 215.92C188.079 216.019 187.746 216.026 187.427 215.941C187.108 215.855 186.816 215.68 186.579 215.432C186.342 215.184 186.168 214.873 186.076 214.53C185.983 214.186 185.975 213.822 186.052 213.474L187.604 206.558C187.682 206.209 187.842 205.889 188.069 205.63C188.296 205.371 188.582 205.181 188.898 205.081C189.213 204.981 189.548 204.973 189.867 205.059C190.186 205.145 190.479 205.321 190.715 205.57L195.429 210.494C195.543 210.617 195.644 210.754 195.73 210.902ZM187.532 214.179C187.551 214.213 187.573 214.244 187.597 214.273C187.647 214.325 187.708 214.362 187.775 214.38C187.842 214.397 187.912 214.396 187.978 214.375L194.243 212.384C194.31 212.362 194.37 212.322 194.418 212.267C194.466 212.212 194.5 212.144 194.516 212.07C194.532 211.997 194.53 211.92 194.511 211.847C194.492 211.775 194.457 211.708 194.408 211.655L189.695 206.73C189.645 206.677 189.582 206.639 189.514 206.621C189.446 206.603 189.374 206.606 189.307 206.629C189.24 206.65 189.18 206.69 189.132 206.745C189.084 206.8 189.05 206.868 189.034 206.942L187.489 213.858C187.474 213.912 187.471 213.968 187.478 214.024C187.486 214.079 187.504 214.132 187.532 214.179Z" fill="#FF91DA"/>
<path d="M626.751 318.36C626.886 318.603 626.969 318.878 626.993 319.162C627.017 319.447 626.98 319.733 626.887 320C626.794 320.266 626.646 320.505 626.455 320.698C626.265 320.891 626.036 321.033 625.787 321.112L620.151 322.924C619.868 323.016 619.567 323.025 619.28 322.948C618.994 322.872 618.73 322.713 618.517 322.488C618.303 322.262 618.148 321.979 618.066 321.666C617.984 321.353 617.978 321.022 618.05 320.706L619.44 314.417C619.509 314.1 619.654 313.809 619.858 313.573C620.062 313.337 620.319 313.165 620.603 313.074C620.887 312.983 621.188 312.976 621.475 313.054C621.762 313.132 622.026 313.292 622.239 313.518L626.479 317.996C626.582 318.106 626.673 318.228 626.751 318.36ZM619.375 321.348C619.391 321.376 619.411 321.403 619.433 321.426C619.478 321.476 619.534 321.512 619.595 321.53C619.657 321.547 619.721 321.546 619.782 321.526L625.412 319.708C625.473 319.691 625.528 319.656 625.571 319.607C625.614 319.558 625.644 319.497 625.658 319.43C625.676 319.363 625.677 319.292 625.66 319.225C625.643 319.158 625.608 319.098 625.561 319.052L621.321 314.574C621.275 314.527 621.22 314.494 621.159 314.478C621.099 314.463 621.036 314.465 620.977 314.484C620.917 314.503 620.863 314.54 620.82 314.589C620.778 314.639 620.747 314.7 620.732 314.766L619.336 321.077C619.326 321.123 619.324 321.17 619.33 321.217C619.337 321.263 619.352 321.308 619.375 321.348Z" fill="#FF91DA"/>
<path d="M174.064 559.981L176.578 557.976C176.827 557.753 176.959 557.462 176.948 557.163C176.937 556.864 176.783 556.58 176.519 556.369C176.255 556.158 175.9 556.035 175.527 556.026C175.153 556.017 174.79 556.123 174.51 556.322L172.004 558.333L169.49 556.34C169.354 556.232 169.193 556.146 169.015 556.088C168.838 556.03 168.648 556 168.457 556C168.265 556 168.075 556.031 167.898 556.09C167.721 556.149 167.561 556.235 167.426 556.344C167.29 556.452 167.183 556.581 167.11 556.723C167.037 556.865 167 557.016 167 557.17C167 557.323 167.038 557.475 167.112 557.616C167.186 557.758 167.294 557.887 167.429 557.995L169.936 560L167.429 562.005C167.181 562.229 167.049 562.519 167.06 562.818C167.071 563.117 167.224 563.401 167.489 563.612C167.753 563.824 168.108 563.946 168.481 563.955C168.855 563.964 169.218 563.858 169.497 563.66L172.004 561.654L174.51 563.66C174.785 563.878 175.156 564.001 175.543 564C175.93 563.999 176.301 563.876 176.574 563.656C176.848 563.437 177.001 563.14 177 562.83C176.999 562.521 176.845 562.224 176.571 562.005L174.064 559.981Z" fill="#FFB86B"/>
<path d="M673.5 677C672.412 677 671.349 676.648 670.444 675.989C669.54 675.33 668.835 674.392 668.419 673.296C668.002 672.2 667.893 670.993 668.106 669.829C668.318 668.666 668.842 667.596 669.611 666.757C670.38 665.918 671.36 665.347 672.427 665.115C673.494 664.884 674.6 665.003 675.605 665.457C676.61 665.911 677.469 666.68 678.073 667.667C678.677 668.653 679 669.813 679 671C678.998 672.591 678.418 674.115 677.387 675.24C676.356 676.365 674.958 676.998 673.5 677ZM673.5 666.877C672.757 666.877 672.031 667.117 671.413 667.568C670.795 668.018 670.313 668.658 670.029 669.407C669.745 670.156 669.67 670.98 669.815 671.775C669.96 672.57 670.318 673.3 670.844 673.873C671.369 674.447 672.038 674.837 672.767 674.995C673.496 675.153 674.251 675.072 674.938 674.762C675.624 674.452 676.211 673.926 676.624 673.252C677.036 672.578 677.257 671.786 677.257 670.975C677.257 669.888 676.861 668.846 676.156 668.077C675.452 667.309 674.496 666.877 673.5 666.877Z" fill="#5146B0"/>
<path d="M145.569 676.188C145.569 676.188 147.367 679.604 145.772 682.806C144.176 686.009 142.165 689.221 143.364 690.827C144.563 692.433 148.199 694.436 147.773 697.842C147.348 701.248 142.562 708.069 145.569 711.881C148.576 715.693 153.584 715.49 153.787 719.698C153.99 723.907 148.953 727.313 150.374 731.125C151.796 734.937 160.043 735.74 160.043 738.343C160.043 740.945 156.833 743.761 159.444 746.567C162.054 749.373 174.643 756.697 176.403 753.688C178.163 750.679 181.837 742.358 179.449 730.544C179.043 728.561 176.219 728.116 175.823 725.31C175.427 722.504 176.626 717.492 174.624 714.667C172.623 711.842 166.202 710.855 165.806 708.649C165.41 706.443 168.204 701.035 165.4 697.629C162.596 694.223 155.982 692.637 155.982 690.411C155.982 688.186 157.993 685.399 155.189 682.39C152.385 679.381 145.569 676.188 145.569 676.188Z" fill="#92E3A9"/>
<path d="M155.16 699.816C159.337 712.394 166.647 729.49 169.616 737.743C173.222 747.767 176.384 755.023 177.96 765.047C179.536 775.071 180.445 842.208 180.445 842.208" stroke="#263238" stroke-linecap="round" stroke-linejoin="round"/>
<path d="M146.604 677.398C146.604 677.398 150.007 680.204 153.014 692.433C153.207 693.217 153.43 694.049 153.672 694.93" stroke="#263238" stroke-linecap="round" stroke-linejoin="round"/>
<path d="M208.195 699.032C207.787 699.852 207.562 700.75 207.536 701.666C207.509 702.581 207.681 703.492 208.04 704.334C209.317 706.898 210.941 709.462 209.974 710.749C209.007 712.035 206.106 713.651 206.445 716.36C206.783 719.069 210.612 724.546 208.205 727.593C205.797 730.641 201.794 730.496 201.63 733.853C201.465 737.211 205.497 739.949 204.356 742.996C203.215 746.044 196.621 746.692 196.621 748.802C196.621 750.911 199.193 753.136 197.105 755.381C195.016 757.626 184.96 763.46 183.52 761.041C182.079 758.622 179.178 751.975 181.083 742.522C181.402 740.936 183.665 740.587 183.984 738.333C184.303 736.079 183.346 732.073 184.951 729.828C186.556 727.584 191.719 726.781 191.999 724.991C192.28 723.201 190.066 718.895 192.318 716.167C194.571 713.438 199.86 712.151 199.86 710.362C199.86 708.572 198.255 706.346 200.498 703.937C202.742 701.528 208.195 699.032 208.195 699.032Z" fill="#92E3A9"/>
<path d="M200.518 717.937C197.182 728.028 191.332 741.69 188.915 748.289C186.014 756.319 183.52 762.124 182.243 770.145C180.967 778.166 180.261 831.893 180.261 831.893" stroke="#263238" stroke-linecap="round" stroke-linejoin="round"/>
<path d="M207.392 700C207.392 700 204.665 702.244 202.267 712.036C202.113 712.665 201.929 713.332 201.736 714.029" stroke="#263238" stroke-linecap="round" stroke-linejoin="round"/>
<path d="M153.062 744.467C153.401 745.151 153.589 745.9 153.612 746.663C153.636 747.426 153.494 748.186 153.197 748.889C152.124 751.037 150.78 753.175 151.582 754.249C152.385 755.323 154.802 756.668 154.531 758.942C154.261 761.215 151.051 765.782 153.062 768.327C155.073 770.871 158.418 770.736 158.554 773.551C158.689 776.367 155.305 778.65 156.272 781.195C157.239 783.739 162.702 784.281 162.702 786.032C162.702 787.784 160.565 789.651 162.305 791.528C164.046 793.405 172.467 798.301 173.676 796.288C174.885 794.276 177.312 788.713 175.706 780.808C175.445 779.482 173.56 779.182 173.289 777.305C173.018 775.428 173.821 772.081 172.487 770.204C171.152 768.327 166.859 767.659 166.589 766.179C166.318 764.698 168.194 761.09 166.318 758.806C164.442 756.523 160.023 755.458 160.023 753.968C160.023 752.478 161.367 750.611 159.492 748.599C157.616 746.586 153.062 744.467 153.062 744.467Z" fill="#92E3A9"/>
<path d="M159.473 760.267C162.267 768.694 167.15 780.101 169.142 785.616C171.559 792.321 173.657 797.227 174.721 803.874C175.784 810.521 176.384 835.454 176.384 835.454" stroke="#263238" stroke-linecap="round" stroke-linejoin="round"/>
<path d="M153.729 745.271C153.729 745.271 156.011 747.148 158.013 755.323C158.148 755.855 158.293 756.407 158.458 756.987" stroke="#263238" stroke-linecap="round" stroke-linejoin="round"/>
<path d="M222.021 741.129C221.533 741.717 221.178 742.404 220.981 743.142C220.784 743.88 220.749 744.653 220.88 745.406C221.431 747.738 222.253 750.127 221.219 750.989C220.184 751.85 217.544 752.604 217.283 754.859C217.022 757.113 219.111 762.309 216.568 764.331C214.025 766.353 210.766 765.443 210.022 768.201C209.277 770.958 211.956 773.89 210.496 776.154C209.036 778.418 203.534 777.683 203.128 779.386C202.722 781.088 204.395 783.391 202.267 784.823C200.14 786.255 190.858 789.1 190.114 786.845C189.369 784.591 188.315 778.641 191.67 771.316C192.241 770.088 194.146 770.233 194.832 768.462C195.519 766.692 195.509 763.257 197.24 761.738C198.97 760.219 203.302 760.538 203.902 759.164C204.501 757.79 203.495 753.843 205.835 752.053C208.175 750.263 212.729 750.234 213.068 748.792C213.406 747.351 212.526 745.232 214.818 743.703C217.109 742.174 222.021 741.129 222.021 741.129Z" fill="#92E3A9"/>
<path d="M212.207 755.033C207.566 762.599 200.199 772.593 197.008 777.508C193.14 783.478 188.47 787.3 187.397 794.005C186.324 800.71 185.743 825.585 185.743 825.585" stroke="#263238" stroke-linecap="round" stroke-linejoin="round"/>
<path d="M221.229 741.758C221.229 741.758 218.579 743.065 214.76 750.564C214.509 751.047 214.238 751.531 213.938 752.083" stroke="#263238" stroke-linecap="round" stroke-linejoin="round"/>
<path d="M174.479 849.764H189.379C197.22 845.72 202.79 835.483 202.79 823.476C202.917 816.277 200.72 809.23 196.524 803.38H167.334C163.152 809.234 160.968 816.282 161.107 823.476C161.107 835.483 166.637 845.72 174.479 849.764Z" fill="#3A3A3A"/>
<path d="M189.649 849.764H174.479V851.989H189.649V849.764Z" fill="#3A3A3A"/>
<path d="M557 271.568L608 248L603.509 295L557 271.568Z" fill="#6CA5BD" stroke="#AFE6FF" stroke-miterlimit="10"/>
<path d="M608 248L574 279.8V297L584.351 284.824L608 248Z" fill="#41B4E6" stroke="#AFE6FF" stroke-linejoin="round"/>
<path d="M268.5 226.682H235.207C230.519 226.682 226.719 230.482 226.719 235.17V250.121C226.719 254.809 230.519 258.609 235.207 258.609H268.5C273.188 258.609 276.988 254.809 276.988 250.121V235.17C276.988 230.482 273.188 226.682 268.5 226.682Z" stroke="#AFE6FF" stroke-miterlimit="10"/>
<path d="M259.511 227.546V258.609" stroke="#AFE6FF" stroke-miterlimit="10"/>
<path d="M276.988 242.646H259.511" stroke="#AFE6FF" stroke-miterlimit="10"/>
<path d="M265.2 245.399H255.745C255.343 245.401 254.946 245.323 254.574 245.17C254.203 245.018 253.866 244.793 253.581 244.51C253.297 244.227 253.071 243.89 252.917 243.519C252.763 243.149 252.684 242.751 252.684 242.35C252.684 241.948 252.763 241.551 252.917 241.18C253.071 240.809 253.297 240.473 253.581 240.189C253.866 239.906 254.203 239.682 254.574 239.529C254.946 239.377 255.343 239.299 255.745 239.3H265.2C265.601 239.3 265.997 239.379 266.367 239.532C266.737 239.686 267.073 239.91 267.356 240.193C267.64 240.477 267.864 240.813 268.017 241.183C268.171 241.553 268.25 241.949 268.25 242.35C268.25 243.158 267.928 243.934 267.356 244.506C266.785 245.078 266.009 245.399 265.2 245.399Z" fill="#41B4E6" stroke="#AFE6FF" stroke-miterlimit="10"/>
<path d="M226.708 243.078H199.764C198.417 243.069 197.081 243.328 195.834 243.839C194.588 244.351 193.455 245.105 192.503 246.057C191.55 247.01 190.796 248.143 190.284 249.389C189.773 250.636 189.514 251.971 189.523 253.319V303.019C189.538 305.725 190.624 308.315 192.543 310.223C194.462 312.131 197.058 313.203 199.764 313.202H332.798" stroke="#AFE6FF" stroke-miterlimit="10"/>
<g clip-path="url(#clip0_259_2406)">
<rect width="823" height="70" fill="white"/>
<rect width="20" height="70" fill="#5479F7"/>
<rect x="20" width="20" height="70" fill="#54CAFA"/>
<rect x="40" width="20" height="70" fill="#9FD3CC"/>
<rect x="60" width="20" height="70" fill="#92E3A9"/>
<rect x="80" width="20" height="70" fill="#23C8AC"/>
<rect x="100" width="20" height="70" fill="#CB8ED6"/>
<rect width="663" height="70" transform="translate(120)" fill="#ECDD82"/>
<path d="M146.75 51.4C146.417 51.4 146.217 51.3667 146.15 51.3C145.05 50.3 143 45.2833 140 36.25C137 27.2167 135.5 21.0167 135.5 17.65C135.5 17.5833 135.733 17.45 136.2 17.25C137.6 16.6167 138.867 16.3 140 16.3C141.167 16.3 141.75 16.35 141.75 16.45C141.883 18.0833 142.867 22.4 144.7 29.4C146.567 36.4 148.167 41.25 149.5 43.95C149.8 44.55 150.1 44.7 150.4 44.4C150.5 44.3 150.567 44.1833 150.6 44.05C151.5 42.35 152.783 38.9 154.45 33.7C156.15 28.4667 157 24.1667 157 20.8C157 20.4 156.617 19.9667 155.85 19.5C155.117 19.0333 154.45 18.7667 153.85 18.7C153.817 18.6333 153.8 18.45 153.8 18.15C153.8 17.85 153.883 17.3833 154.05 16.75C154.217 16.0833 154.367 15.7 154.5 15.6C157.567 14.7667 160.633 14.35 163.7 14.35C164.2 14.4167 164.45 14.4833 164.45 14.55C164.45 17.4167 163.667 21.7167 162.1 27.45C160.567 33.15 158.983 38.25 157.35 42.75C155.717 47.2167 154.65 49.7 154.15 50.2C152.683 51 150.217 51.4 146.75 51.4ZM170.054 19.15C170.987 19.15 171.737 19.45 172.304 20.05C172.871 20.65 173.154 21.4333 173.154 22.4C173.154 23.3667 172.771 24.2 172.004 24.9C171.271 25.5667 170.437 25.9 169.504 25.9C168.604 25.9 167.871 25.6167 167.304 25.05C166.771 24.45 166.504 23.6667 166.504 22.7C166.504 21.7333 166.871 20.9 167.604 20.2C168.337 19.5 169.154 19.15 170.054 19.15ZM172.604 31.6L172.504 39.7C172.504 42.3 172.571 44.2167 172.704 45.45C172.871 46.65 173.304 47.7833 174.004 48.85C174.004 49.1833 173.321 49.7167 171.954 50.45C170.587 51.1833 169.421 51.55 168.454 51.55C168.154 51.55 167.854 51.05 167.554 50.05C167.254 49.05 167.054 48.1 166.954 47.2C166.887 46.3 166.854 43.2667 166.854 38.1C166.854 32.9333 166.971 30.1167 167.204 29.65C167.971 29.05 169.321 28.75 171.254 28.75C172.021 28.75 172.487 28.85 172.654 29.05L172.604 31.6ZM191.54 43.25C191.54 45.05 190.69 46.6667 188.99 48.1C187.324 49.5 185.507 50.5 183.54 51.1C181.607 51.7333 179.907 52.05 178.44 52.05C178.274 52.05 178.04 51.85 177.74 51.45C176.907 50.35 176.49 49.0667 176.49 47.6V47.25C179.09 47.25 181.074 46.8 182.44 45.9C183.807 45 184.49 44.0667 184.49 43.1C184.49 42.4667 184.074 41.8 183.24 41.1C182.407 40.4 181.49 39.7833 180.49 39.25C179.49 38.7167 178.574 38.0167 177.74 37.15C176.907 36.25 176.49 35.3167 176.49 34.35C176.49 32.3167 177.757 30.45 180.29 28.75C182.824 27.05 185.524 26.2 188.39 26.2C188.724 26.2 189.157 26.6667 189.69 27.6C190.224 28.5 190.507 29.4333 190.54 30.4C189.874 30.4 188.874 30.6 187.54 31C184.907 31.8333 183.59 32.8667 183.59 34.1C183.59 34.9667 184.89 36.15 187.49 37.65C188.49 38.2167 189.407 39 190.24 40C191.074 41 191.507 42.0833 191.54 43.25ZM207.124 47.1L207.074 46.05L207.024 45.95C206.224 47.1833 205.208 48.1667 203.974 48.9C202.774 49.6333 201.591 50 200.424 50C196.924 50 194.924 47.2833 194.424 41.85C194.358 40.9833 194.324 38.75 194.324 35.15C194.324 31.55 194.474 29.4167 194.774 28.75C195.641 28.05 197.041 27.7 198.974 27.7C199.741 27.7 200.208 27.7833 200.374 27.95C200.374 27.9833 200.358 28.4333 200.324 29.3C200.158 31.8333 200.074 33.7833 200.074 35.15C200.074 36.5167 200.091 37.5333 200.124 38.2C200.158 38.8333 200.174 39.25 200.174 39.45C200.208 39.6167 200.258 39.9333 200.324 40.4C200.424 40.8667 200.558 41.2667 200.724 41.6C201.224 42.5667 201.991 43.05 203.024 43.05C204.091 43.05 205.024 42.5333 205.824 41.5C206.658 40.4333 207.058 39.6833 207.024 39.25V37.55C207.024 31.45 207.124 28.1667 207.324 27.7C207.491 27.4 208.008 27.0833 208.874 26.75C209.774 26.4167 210.658 26.25 211.524 26.25C212.391 26.25 212.891 26.3167 213.024 26.45L212.924 28.8C212.724 33.5667 212.624 37.25 212.624 39.85C212.624 42.45 212.691 44.1 212.824 44.8C213.058 46.4667 213.508 47.8 214.174 48.8C214.174 49.1333 213.491 49.6667 212.124 50.4C210.758 51.1333 209.591 51.5 208.624 51.5C208.358 51.5 208.058 51 207.724 50C207.391 49 207.191 48.0333 207.124 47.1ZM234.598 37.85C234.598 42.0167 234.648 44.45 234.748 45.15C235.015 46.9833 235.581 48.3 236.448 49.1C236.448 49.4667 235.781 50.0167 234.448 50.75C233.148 51.4833 231.965 51.85 230.898 51.85C230.598 51.85 230.281 51.4 229.948 50.5C229.615 49.6333 229.415 48.9833 229.348 48.55C229.315 48.1167 229.281 47.9 229.248 47.9L229.098 48C227.331 49.4 225.265 50.1 222.898 50.1C220.531 50.1 218.698 49.5333 217.398 48.4C216.131 47.2333 215.498 45.7167 215.498 43.85C215.498 41.9833 215.898 40.4167 216.698 39.15C217.531 37.85 218.498 36.8667 219.598 36.2C220.698 35.5333 221.915 35 223.248 34.6C225.281 33.9333 226.881 33.6 228.048 33.6L228.148 33.55C228.148 31.9167 226.081 31.1 221.948 31.1C220.315 31.1 219.098 31.1667 218.298 31.3H218.248C218.248 30.6333 218.448 29.8 218.848 28.8C219.281 27.8 219.631 27.15 219.898 26.85C220.198 26.55 221.398 26.4 223.498 26.4C227.298 26.4 230.098 27.1333 231.898 28.6C233.698 30.0333 234.598 32.2667 234.598 35.3V37.85ZM229.048 41.05V39.15C229.048 38.4167 229.031 38.05 228.998 38.05C226.765 38.05 224.831 38.6333 223.198 39.8C222.165 40.5333 221.648 41.45 221.648 42.55C221.648 43.25 221.898 43.8333 222.398 44.3C222.898 44.7667 223.648 45 224.648 45C225.681 45 226.665 44.7 227.598 44.1C228.565 43.5 229.048 42.4833 229.048 41.05ZM239.697 41.9L239.897 23.8C239.897 21.1667 239.864 19.3833 239.797 18.45C239.731 17.5167 239.697 17.0167 239.697 16.95C239.697 16.6167 240.247 16.2333 241.347 15.8C242.481 15.3667 243.481 15.15 244.347 15.15C245.214 15.15 245.647 15.2167 245.647 15.35C245.481 16.5833 245.397 20.9167 245.397 28.35L245.297 40.6C245.297 42.9 245.331 44.3167 245.397 44.85C245.564 46.3167 246.047 47.65 246.847 48.85C246.847 49.1833 246.164 49.7167 244.797 50.45C243.431 51.1833 242.264 51.55 241.297 51.55C241.031 51.55 240.731 51.05 240.397 50.05C240.064 49.05 239.864 48.1833 239.797 47.45C239.731 46.7167 239.697 44.8667 239.697 41.9ZM277.99 40.45C278.957 39.4833 279.773 38.1833 280.44 36.55C281.107 34.8833 281.44 33.1167 281.44 31.25C281.44 29.3833 281.107 27.8 280.44 26.5C279.773 25.1667 278.99 24.1667 278.09 23.5C277.19 22.8 276.157 22.2333 274.99 21.8C273.19 21.1333 271.473 20.8 269.84 20.8C269.407 20.8 269.19 20.8167 269.19 20.85C268.957 21.0833 268.84 25.0167 268.84 32.65C268.84 40.2833 268.957 44.2167 269.19 44.45C269.257 44.5167 269.49 44.55 269.89 44.55C270.323 44.55 270.957 44.4333 271.79 44.2C272.657 43.9667 273.657 43.5333 274.79 42.9C275.957 42.2333 277.023 41.4167 277.99 40.45ZM262.49 41.4L262.64 21.65C262.273 21.0833 261.807 20.0833 261.24 18.65C260.673 17.1833 260.39 16.3167 260.39 16.05C260.39 15.75 260.407 15.5833 260.44 15.55C260.773 15.2167 262.74 15.05 266.34 15.05C273.273 15.05 278.623 16.5 282.39 19.4C286.19 22.3 288.09 26.1833 288.09 31.05C288.09 33.45 287.707 35.6667 286.94 37.7C286.173 39.7 285.14 41.4 283.84 42.8C282.573 44.1667 281.14 45.3833 279.54 46.45C277.973 47.4833 276.307 48.3 274.54 48.9C271.073 50.0333 267.923 50.6 265.09 50.6C263.757 50.6 262.99 50.5 262.79 50.3C262.59 50.1 262.49 47.1333 262.49 41.4ZM303.64 33.1C303.64 32.1333 303.123 31.65 302.09 31.65C300.723 31.65 299.523 32.35 298.49 33.75C297.457 35.15 296.94 36.8333 296.94 38.8C296.94 39.2667 297.007 39.5 297.14 39.5C298.34 39.4667 299.723 38.7833 301.29 37.45C302.857 36.0833 303.64 34.6333 303.64 33.1ZM307.99 49C306.857 49.7667 304.64 50.15 301.34 50.15C298.04 50.15 295.507 49.1667 293.74 47.2C291.973 45.2333 291.09 42.6167 291.09 39.35C291.09 36.05 292.14 33.2 294.24 30.8C296.373 28.3667 299.357 27.15 303.19 27.15C304.757 27.15 306.19 27.5667 307.49 28.4C308.823 29.2333 309.49 30.7 309.49 32.8C309.49 34.8667 308.573 36.9167 306.74 38.95C304.94 40.9833 302.473 42.5333 299.34 43.6C299.34 44 299.74 44.3333 300.54 44.6C301.373 44.8333 302.19 44.95 302.99 44.95C305.523 44.95 307.523 44.5 308.99 43.6C309.023 43.5667 309.073 43.55 309.14 43.55C309.207 43.55 309.24 43.8667 309.24 44.5C309.24 46.4333 308.823 47.9333 307.99 49ZM327.282 43.25C327.282 45.05 326.432 46.6667 324.732 48.1C323.066 49.5 321.249 50.5 319.282 51.1C317.349 51.7333 315.649 52.05 314.182 52.05C314.016 52.05 313.782 51.85 313.482 51.45C312.649 50.35 312.232 49.0667 312.232 47.6V47.25C314.832 47.25 316.816 46.8 318.182 45.9C319.549 45 320.232 44.0667 320.232 43.1C320.232 42.4667 319.816 41.8 318.982 41.1C318.149 40.4 317.232 39.7833 316.232 39.25C315.232 38.7167 314.316 38.0167 313.482 37.15C312.649 36.25 312.232 35.3167 312.232 34.35C312.232 32.3167 313.499 30.45 316.032 28.75C318.566 27.05 321.266 26.2 324.132 26.2C324.466 26.2 324.899 26.6667 325.432 27.6C325.966 28.5 326.249 29.4333 326.282 30.4C325.616 30.4 324.616 30.6 323.282 31C320.649 31.8333 319.332 32.8667 319.332 34.1C319.332 34.9667 320.632 36.15 323.232 37.65C324.232 38.2167 325.149 39 325.982 40C326.816 41 327.249 42.0833 327.282 43.25ZM334.605 19.15C335.538 19.15 336.288 19.45 336.855 20.05C337.421 20.65 337.705 21.4333 337.705 22.4C337.705 23.3667 337.321 24.2 336.555 24.9C335.821 25.5667 334.988 25.9 334.055 25.9C333.155 25.9 332.421 25.6167 331.855 25.05C331.321 24.45 331.055 23.6667 331.055 22.7C331.055 21.7333 331.421 20.9 332.155 20.2C332.888 19.5 333.705 19.15 334.605 19.15ZM337.155 31.6L337.055 39.7C337.055 42.3 337.121 44.2167 337.255 45.45C337.421 46.65 337.855 47.7833 338.555 48.85C338.555 49.1833 337.871 49.7167 336.505 50.45C335.138 51.1833 333.971 51.55 333.005 51.55C332.705 51.55 332.405 51.05 332.105 50.05C331.805 49.05 331.605 48.1 331.505 47.2C331.438 46.3 331.405 43.2667 331.405 38.1C331.405 32.9333 331.521 30.1167 331.755 29.65C332.521 29.05 333.871 28.75 335.805 28.75C336.571 28.75 337.038 28.85 337.205 29.05L337.155 31.6ZM360.341 36.6L360.441 48.45C360.441 51.05 360.091 53.35 359.391 55.35C358.691 57.3833 357.841 58.95 356.841 60.05C355.841 61.1833 354.691 62.1 353.391 62.8C351.291 63.9667 349.174 64.55 347.041 64.55C346.941 64.55 346.741 64.3 346.441 63.8C346.141 63.3 345.858 62.6167 345.591 61.75C345.324 60.8833 345.191 60.0833 345.191 59.35H346.141C346.808 59.35 347.441 59.2833 348.041 59.15C348.674 59.05 349.441 58.7333 350.341 58.2C351.241 57.6667 352.008 56.9667 352.641 56.1C353.274 55.2333 353.824 53.95 354.291 52.25C354.758 50.55 354.991 48.5667 354.991 46.3C354.991 46.1667 354.974 46.1 354.941 46.1L354.791 46.25C353.391 48.4167 351.208 49.5 348.241 49.5C346.008 49.5 344.224 48.6167 342.891 46.85C341.558 45.0833 340.891 43.1 340.891 40.9C340.891 36.9 342.174 33.6 344.741 31C347.308 28.4 350.991 27.1 355.791 27.1C356.958 27.1 357.541 27.1833 357.541 27.35C357.641 27.9167 357.691 28.5333 357.691 29.2L357.641 29.95H358.191C359.258 29.95 359.974 30.05 360.341 30.25V36.6ZM354.891 32.4L353.841 32.25C351.708 32.25 350.008 32.95 348.741 34.35C347.508 35.7167 346.891 37.4333 346.891 39.5C346.891 40.5333 347.191 41.4333 347.791 42.2C348.424 42.9667 349.324 43.35 350.491 43.35C351.691 43.35 352.691 42.8833 353.491 41.95C354.291 41.0167 354.691 40.2667 354.691 39.7C354.691 35.9 354.758 33.4667 354.891 32.4ZM370.991 37.75L371.041 39.6V43.4C371.041 46.9667 370.975 48.8167 370.841 48.95C370.408 49.3833 369.658 49.7167 368.591 49.95C367.525 50.1833 366.641 50.3 365.941 50.3C365.275 50.3 364.941 50.25 364.941 50.15C365.175 48.65 365.291 46.1833 365.291 42.75L365.141 31.5C365.141 29.4333 365.225 28.3167 365.391 28.15C365.758 27.7833 366.391 27.4667 367.291 27.2C368.191 26.9 369.025 26.75 369.791 26.75C370.591 26.75 370.991 26.8333 370.991 27C370.891 27.8 370.841 28.6 370.841 29.4C370.841 30.2 370.891 30.6 370.991 30.6L371.141 30.5C371.308 30.2667 371.558 29.9833 371.891 29.65C372.225 29.2833 372.925 28.8167 373.991 28.25C375.091 27.65 376.125 27.35 377.091 27.35C378.091 27.35 378.925 27.5333 379.591 27.9C380.291 28.2333 380.858 28.65 381.291 29.15C381.725 29.65 382.091 30.3667 382.391 31.3C382.725 32.2333 382.975 33.1 383.141 33.9C383.308 34.7 383.441 35.7667 383.541 37.1C383.641 38.9333 383.691 41.2667 383.691 44.1L383.541 49.95C383.541 50.1833 382.991 50.4 381.891 50.6C380.791 50.8333 379.908 50.95 379.241 50.95L377.591 50.7C377.925 47.7 378.091 44.8 378.091 42C378.091 39.1667 377.908 37.05 377.541 35.65C377.175 34.2167 376.441 33.5 375.341 33.5C374.241 33.5 373.341 33.8 372.641 34.4C371.975 35 371.541 35.6 371.341 36.2L370.991 37.05V37.75Z" fill="white"/>
<path d="M746.507 56.5C743.535 56.5 740.74 55.9362 738.122 54.8087C735.506 53.6795 733.229 52.1474 731.292 50.2124C729.356 48.2774 727.823 46.0032 726.694 43.3898C725.565 40.7763 725 37.9821 725 35.0072C725 32.0322 725.565 29.2372 726.694 26.6222C727.821 24.0055 729.351 21.7289 731.283 19.7923C733.215 17.8557 735.49 16.3229 738.108 15.1937C740.726 14.0646 743.521 13.5 746.493 13.5C749.465 13.5 752.26 14.0646 754.878 15.1937C757.494 16.3213 759.771 17.8518 761.708 19.7852C763.644 21.7186 765.177 23.9936 766.306 26.6102C767.435 29.2268 768 32.0211 768 34.9928C768 37.9646 767.436 40.7596 766.309 43.3778C765.181 45.9961 763.649 48.2727 761.712 50.2077C759.776 52.1427 757.502 53.6755 754.89 54.8063C752.278 55.937 749.484 56.5016 746.507 56.5ZM746.5 54.1111C749.037 54.1111 751.475 53.6254 753.815 52.6539C756.154 51.6824 758.22 50.304 760.012 48.5187L746.5 35V15.8889C741.165 15.8889 736.646 17.7403 732.943 21.4431C729.24 25.1458 727.389 29.6648 727.389 35C727.389 40.3352 729.24 44.8542 732.943 48.5569C736.646 52.2597 741.165 54.1111 746.5 54.1111Z" fill="white"/>
<rect x="783" width="20" height="70" fill="#CC4E7E"/>
<rect x="803" width="20" height="70" fill="#CD4B4B"/>
</g>
<defs>
<linearGradient id="paint0_linear_259_2406" x1="166.996" y1="546.996" x2="655.992" y2="546.996" gradientUnits="userSpaceOnUse">
<stop stop-color="#D4DBFF"/>
<stop offset="1" stop-color="#F8DFFB"/>
</linearGradient>
<linearGradient id="paint1_linear_259_2406" x1="178.001" y1="550.499" x2="665.964" y2="550.499" gradientUnits="userSpaceOnUse">
<stop stop-color="#F5CBFB"/>
<stop offset="1" stop-color="#C2EAFF"/>
</linearGradient>
<linearGradient id="paint2_linear_259_2406" x1="166.117" y1="544.505" x2="264.112" y2="527.092" gradientUnits="userSpaceOnUse">
<stop stop-color="#B4FAC3"/>
<stop offset="1" stop-color="#1E8105"/>
</linearGradient>
<linearGradient id="paint3_linear_259_2406" x1="659.567" y1="599.481" x2="555.103" y2="697.647" gradientUnits="userSpaceOnUse">
<stop stop-color="#8AFF88"/>
<stop offset="1" stop-color="#14B838"/>
</linearGradient>
<linearGradient id="paint4_linear_259_2406" x1="425.004" y1="128.754" x2="425.004" y2="1428.82" gradientUnits="userSpaceOnUse">
<stop stop-color="#565FD6"/>
<stop offset="1" stop-color="#3F0BA1"/>
</linearGradient>
<clipPath id="clip0_259_2406">
<rect width="823" height="70" fill="white"/>
</clipPath>
</defs>
</svg>
