<svg width="823" height="1083" viewBox="0 0 823 1083" fill="none" xmlns="http://www.w3.org/2000/svg">
<path d="M569 312.997C569.001 315.173 568.326 317.3 567.063 319.11C565.8 320.919 564.004 322.329 561.902 323.162C559.801 323.995 557.488 324.213 555.257 323.789C553.026 323.364 550.977 322.317 549.368 320.778C547.76 319.24 546.664 317.279 546.221 315.145C545.777 313.011 546.005 310.799 546.876 308.789C547.747 306.779 549.221 305.061 551.113 303.853C553.004 302.644 555.228 301.999 557.503 302C560.552 302 563.476 303.159 565.633 305.221C567.789 307.283 569 310.081 569 312.997Z" fill="#242D25"/>
<path d="M202 343.497C202.001 345.178 201.532 346.822 200.653 348.221C199.774 349.619 198.525 350.709 197.063 351.352C195.601 351.996 193.992 352.165 192.44 351.837C190.888 351.509 189.462 350.699 188.343 349.51C187.224 348.321 186.462 346.807 186.154 345.158C185.845 343.508 186.004 341.799 186.609 340.246C187.215 338.693 188.241 337.365 189.557 336.431C190.873 335.498 192.42 334.999 194.003 335C196.124 335 198.158 335.895 199.658 337.489C201.157 339.082 202 341.244 202 343.497Z" fill="#704C5A"/>
<path d="M672 460.997C672.001 462.58 671.503 464.127 670.569 465.443C669.635 466.759 668.308 467.784 666.755 468.39C665.202 468.996 663.493 469.155 661.843 468.847C660.194 468.538 658.68 467.777 657.491 466.658C656.302 465.539 655.492 464.114 655.164 462.562C654.835 461.01 655.003 459.401 655.647 457.939C656.29 456.477 657.379 455.228 658.777 454.348C660.175 453.469 661.819 453 663.5 453C665.754 453 667.915 453.842 669.509 455.342C671.103 456.842 671.999 458.876 672 460.997Z" fill="#704C5A"/>
<path d="M444.613 388.25C447.788 385.075 447.788 379.927 444.613 376.752C441.438 373.577 436.291 373.577 433.116 376.752C429.941 379.927 429.941 385.075 433.116 388.25C436.291 391.425 441.438 391.425 444.613 388.25Z" fill="#34546F"/>
<path d="M183 564.997C183.001 566.58 182.532 568.127 181.653 569.443C180.773 570.76 179.524 571.785 178.061 572.391C176.599 572.997 174.99 573.155 173.438 572.846C171.886 572.537 170.46 571.774 169.341 570.655C168.222 569.535 167.461 568.109 167.153 566.557C166.845 565.004 167.004 563.395 167.611 561.934C168.218 560.472 169.244 559.223 170.561 558.344C171.878 557.466 173.425 556.998 175.008 557C177.128 557.002 179.16 557.846 180.659 559.345C182.157 560.845 182.999 562.877 183 564.997Z" fill="#486E7E"/>
<path d="M678 624.5C678 626.181 677.531 627.825 676.652 629.222C675.773 630.62 674.523 631.71 673.061 632.353C671.6 632.996 669.991 633.165 668.439 632.837C666.887 632.509 665.462 631.699 664.343 630.51C663.224 629.322 662.462 627.807 662.154 626.158C661.845 624.509 662.003 622.8 662.609 621.247C663.214 619.694 664.24 618.366 665.555 617.433C666.871 616.499 668.418 616 670 616C672.122 616 674.157 616.896 675.657 618.49C677.157 620.084 678 622.246 678 624.5Z" fill="#486E7E"/>
<path d="M416 832C416 833.582 415.531 835.129 414.652 836.445C413.773 837.76 412.523 838.786 411.061 839.391C409.6 839.997 407.991 840.155 406.439 839.846C404.887 839.538 403.462 838.776 402.343 837.657C401.224 836.538 400.462 835.113 400.154 833.561C399.845 832.009 400.003 830.4 400.609 828.939C401.214 827.477 402.24 826.227 403.555 825.348C404.871 824.469 406.418 824 408 824C410.122 824 412.157 824.843 413.657 826.343C415.157 827.843 416 829.878 416 832Z" fill="#486E7E"/>
<path d="M385 237.997C385.001 239.58 384.532 241.127 383.653 242.443C382.774 243.759 381.525 244.785 380.063 245.391C378.601 245.996 376.992 246.155 375.44 245.846C373.888 245.538 372.462 244.776 371.343 243.657C370.224 242.538 369.462 241.112 369.154 239.56C368.845 238.008 369.004 236.399 369.609 234.937C370.215 233.475 371.241 232.226 372.557 231.347C373.873 230.468 375.42 229.999 377.003 230C379.124 230 381.158 230.843 382.658 232.342C384.157 233.842 385 235.876 385 237.997Z" fill="#5F481A"/>
<path d="M641 750.997C641.001 752.58 640.532 754.127 639.653 755.443C638.774 756.759 637.525 757.784 636.063 758.39C634.602 758.996 632.993 759.155 631.441 758.847C629.889 758.538 628.463 757.777 627.344 756.658C626.225 755.539 625.463 754.114 625.154 752.562C624.845 751.01 625.003 749.401 625.609 747.939C626.214 746.477 627.24 745.228 628.555 744.348C629.871 743.469 631.418 743 633 743C635.121 743 637.156 743.842 638.656 745.342C640.156 746.842 640.999 748.876 641 750.997Z" fill="#665532"/>
<path d="M140 633H166" stroke="#0B2743" stroke-width="12.47" stroke-miterlimit="10"/>
<path d="M169 633H183" stroke="#0B2743" stroke-width="12.47" stroke-miterlimit="10"/>
<path d="M634 689H664" stroke="#0B2743" stroke-width="13.46" stroke-miterlimit="10"/>
<path d="M669 689H683" stroke="#0B2743" stroke-width="13.46" stroke-miterlimit="10"/>
<path d="M610 345H620" stroke="#264E77" stroke-width="12.47" stroke-miterlimit="10"/>
<path d="M623 345H633" stroke="#264E77" stroke-width="12.47" stroke-miterlimit="10"/>
<path d="M598 345H607" stroke="#264E77" stroke-width="12.47" stroke-miterlimit="10"/>
<path d="M645 524H682" stroke="#2F5D8B" stroke-width="12.47" stroke-miterlimit="10"/>
<path d="M450 333L453 336" stroke="#264E77" stroke-width="12.47" stroke-miterlimit="10"/>
<path d="M456 340L460 343" stroke="#264E77" stroke-width="12.47" stroke-miterlimit="10"/>
<path d="M460 333L456 336" stroke="#264E77" stroke-width="12.47" stroke-miterlimit="10"/>
<path d="M453 340L450 343" stroke="#264E77" stroke-width="12.47" stroke-miterlimit="10"/>
<path d="M158 459L161 463" stroke="#1C3A58" stroke-width="12.47" stroke-miterlimit="10"/>
<path d="M161 453L158 457" stroke="#1C3A58" stroke-width="12.47" stroke-miterlimit="10"/>
<path d="M419 674L423 678" stroke="#1C3A58" stroke-width="12.47" stroke-miterlimit="10"/>
<path d="M425 681L429 685" stroke="#1C3A58" stroke-width="12.47" stroke-miterlimit="10"/>
<path d="M429 674L425 678" stroke="#1C3A58" stroke-width="12.47" stroke-miterlimit="10"/>
<path d="M423 681L419 685" stroke="#1C3A58" stroke-width="12.47" stroke-miterlimit="10"/>
<path d="M252 402C252 402.989 251.736 403.956 251.242 404.778C250.747 405.6 250.044 406.241 249.222 406.619C248.4 406.998 247.495 407.097 246.622 406.904C245.749 406.711 244.947 406.235 244.318 405.536C243.689 404.836 243.26 403.945 243.086 402.975C242.913 402.006 243.002 401 243.343 400.087C243.683 399.173 244.26 398.392 245 397.843C245.74 397.293 246.61 397 247.5 397C248.693 397 249.838 397.527 250.682 398.464C251.526 399.402 252 400.674 252 402Z" stroke="#264E77" stroke-width="12.47" stroke-miterlimit="10"/>
<path d="M537 400.5C537 401.39 536.736 402.26 536.242 403C535.747 403.74 535.044 404.317 534.222 404.657C533.4 404.998 532.495 405.087 531.622 404.914C530.749 404.74 529.947 404.311 529.318 403.682C528.689 403.053 528.26 402.251 528.086 401.378C527.913 400.505 528.002 399.6 528.343 398.778C528.683 397.956 529.26 397.253 530 396.758C530.74 396.264 531.61 396 532.5 396C533.693 396 534.838 396.474 535.682 397.318C536.526 398.162 537 399.307 537 400.5Z" stroke="#162F48" stroke-width="12.47" stroke-miterlimit="10"/>
<path d="M364.588 480.285C364.588 480.34 364.588 480.388 364.588 480.44C364.588 480.492 364.588 480.553 364.588 480.605C364.588 480.656 364.588 480.695 364.588 480.74C364.588 480.786 364.588 480.847 364.565 480.902C364.559 480.953 364.549 481.004 364.536 481.054C364.536 481.092 364.536 481.131 364.514 481.17C364.491 481.208 364.485 481.276 364.468 481.328C364.452 481.38 364.449 481.402 364.436 481.438C364.423 481.473 364.42 481.48 364.414 481.502C364.363 481.647 364.304 481.788 364.236 481.925C364.167 482.06 364.089 482.191 364.004 482.316C363.988 482.336 363.974 482.356 363.962 482.377C363.873 482.502 363.776 482.621 363.671 482.732L363.584 482.832L363.484 482.933L363.361 483.046L363.248 483.146L363.142 483.233C363.074 483.288 363.006 483.339 362.935 483.388L362.825 483.468C362.748 483.52 362.67 483.572 362.589 483.62L362.483 483.688C362.415 483.73 362.341 483.765 362.267 483.807L362.144 483.872C362.028 483.933 361.908 483.991 361.782 484.046C361.296 484.248 360.794 484.411 360.281 484.534C359.865 484.634 359.432 484.711 358.99 484.779C358.547 484.847 358.134 484.886 357.698 484.921C357.088 484.97 356.462 484.999 355.826 485.018C354.441 485.057 353.02 485.044 351.629 485.083C351.006 485.099 350.389 485.128 349.792 485.176L349.979 506.423C350.576 506.374 351.193 506.345 351.816 506.329C353.195 506.291 354.618 506.303 356.013 506.265C356.659 506.245 357.272 506.22 357.886 506.168C358.325 506.132 358.757 506.087 359.177 506.023C359.611 505.964 360.043 505.882 360.468 505.777C360.981 505.657 361.483 505.495 361.97 505.293C362.095 505.238 362.218 505.18 362.334 505.119C362.37 505.102 362.399 505.083 362.434 505.064L362.673 504.931H362.699L362.767 504.886L363.012 504.728L363.122 504.65L363.326 504.496L363.39 504.447L363.435 504.405L363.548 504.305L363.668 504.195L363.771 504.092L363.832 504.027L363.858 503.995C363.962 503.882 364.059 503.762 364.149 503.637C364.149 503.637 364.149 503.637 364.165 503.614C364.174 503.602 364.181 503.589 364.188 503.575C364.275 503.451 364.354 503.32 364.423 503.185C364.492 503.045 364.553 502.902 364.604 502.755C364.605 502.745 364.605 502.734 364.604 502.723V502.697C364.604 502.655 364.63 502.613 364.64 502.571C364.649 502.529 364.669 502.478 364.678 502.429L364.707 502.303C364.707 502.268 364.707 502.232 364.73 502.197C364.728 502.185 364.728 502.173 364.73 502.161C364.73 502.103 364.73 502.045 364.753 501.99C364.775 501.935 364.753 501.91 364.753 501.868C364.753 501.826 364.753 501.738 364.753 501.677C364.753 501.616 364.753 501.616 364.753 501.587V501.545L364.588 480.285Z" fill="#7C294B"/>
<path d="M347.454 485.516H347.432C346.121 485.914 344.834 486.388 343.577 486.933L343.196 487.107L343.383 508.357L343.764 508.18C345.021 507.636 346.308 507.163 347.619 506.762H347.641C347.964 506.688 348.319 506.627 348.668 506.575C349.088 506.517 349.514 506.472 349.959 506.433L349.772 485.187C349.336 485.222 348.907 485.27 348.481 485.329C348.132 485.38 347.79 485.442 347.454 485.516Z" fill="#7C294B"/>
<path d="M372.866 528.254L372.678 507.008L334.841 522.927L334.996 540.61C330.602 541.136 326.653 540.723 324.526 539.286C323.105 538.318 322.889 537.104 322.853 535.832V534.779C322.853 533.733 322.772 532.697 322.082 531.786C321.177 530.94 320.188 530.188 319.131 529.543L281.335 545.449L281.522 566.693L319.308 550.783C320.365 551.428 321.354 552.178 322.259 553.023C322.879 553.837 322.998 554.754 323.024 555.69V556.739C323.024 558.131 323.163 559.487 324.7 560.523C328.351 562.986 337.326 562.46 344.752 559.322C344.962 559.235 345.168 559.145 345.369 559.054C350.311 556.852 353.152 554.031 353.133 551.722C353.088 546.679 353.044 541.639 353.001 536.6L372.866 528.254Z" fill="#A1426F"/>
<path d="M361.756 484.057L361.943 505.303C357.989 506.969 352.042 505.797 347.648 506.763C346.33 507.16 345.036 507.634 343.774 508.183L343.393 508.361L343.205 487.111L343.586 486.936C344.849 486.388 346.142 485.913 347.46 485.516C351.848 484.547 357.795 485.723 361.756 484.057Z" fill="#7C294B"/>
<path d="M281.325 545.447L210.06 497.358L210.244 518.605L281.513 566.693L281.325 545.447Z" fill="#7C294B"/>
<path d="M351.425 527.971C349.165 526.44 345.249 526.537 342.063 525.95C340.458 525.681 338.89 525.225 337.391 524.59C336.491 524.117 335.637 523.56 334.841 522.928L372.678 507.008L343.196 487.111L343.577 486.937C344.839 486.388 346.133 485.913 347.451 485.516C351.845 484.548 357.782 485.723 361.747 484.057C366.247 482.049 365.298 477.348 359.568 473.484C353.776 469.574 345.288 467.995 340.474 470.029C337.714 471.259 337.824 473.296 336.7 474.965C336.016 475.973 335.124 476.824 334.085 477.461C333.946 477.545 333.414 477.813 332.742 478.107C332.187 478.355 331.535 478.626 330.928 478.83L301.41 458.91L210.044 497.352L281.309 545.456L319.105 529.549C320.162 530.195 321.151 530.947 322.056 531.793C323.825 534.118 321.546 537.282 324.509 539.293C328.158 541.753 337.133 541.23 344.558 538.092C344.768 538.001 344.975 537.914 345.175 537.824C352.168 534.705 354.977 530.363 351.425 527.971Z" fill="#CC4E7E"/>
<path d="M291.052 539.584C291.052 539.584 294.233 537.527 291.179 533.728C283.283 533.225 274.003 528.972 274.003 528.972C262.397 525.331 246.097 507.408 238.679 499.252C230.347 490.097 217.732 497.869 224.503 508.323C237.17 527.885 270.464 540.781 290.884 540.02" fill="#F8A07D"/>
<path d="M204.382 630.614C209.244 607.937 210.703 555.414 210.703 555.414C210.703 555.414 206.813 550.238 192.771 549.351C178.728 548.465 179.668 557.074 179.733 555.955C179.733 555.955 179.733 593.126 186.19 629.721C186.19 629.724 196.197 636.612 204.382 630.614Z" fill="#053B6B"/>
<path d="M180.064 558.912C178.686 549.608 181.538 540.22 183.009 530.815H225.551C228.273 539.834 231.103 549.104 231.103 549.104C231.103 549.104 232.922 570.437 214.704 572.994C214.704 572.988 182.955 578.462 180.064 558.912Z" fill="#007EA3"/>
<path d="M271.625 720.712L269.198 720.578C268.368 720.46 268.374 721.683 268.264 721.726C265.724 722.67 263.468 723.407 262.515 723.443C262.515 723.443 258.022 722.892 257.541 721.617L258.187 713.765C263.193 713.369 268.419 712.459 268.419 712.459L279.408 711.004C284.702 710.483 285.665 712.285 285.665 712.285C285.665 712.285 288.91 716.84 271.625 720.712Z" fill="#17181C"/>
<path d="M264.955 720.213C265.867 719.818 266.822 719.522 267.803 719.33C273.23 718.425 278.54 717.914 283.059 714.591C284.161 713.782 284.94 712.772 285.021 711.569C285.281 711.716 285.502 711.918 285.667 712.16C285.667 712.16 288.899 716.776 271.626 720.684L269.199 720.548C268.368 720.428 268.375 721.665 268.265 721.708C265.724 722.662 263.468 723.407 262.515 723.444C262.515 723.444 258.022 722.887 257.541 721.597L257.696 719.665C259.509 720.637 262.651 721.228 264.955 720.213Z" fill="#040308"/>
<path d="M198.069 718.731L195.582 718.6C194.735 718.478 194.742 719.702 194.626 719.745C192.03 720.688 189.722 721.425 188.746 721.465C188.746 721.465 184.149 720.914 183.656 719.638L184.318 711.791C189.441 711.395 194.788 710.482 194.788 710.482L206.033 709.024C211.45 708.506 212.435 710.312 212.435 710.312C212.435 710.312 215.753 714.859 198.069 718.731Z" fill="#17181C"/>
<path d="M191.243 718.055C192.175 717.637 193.153 717.324 194.157 717.123C199.71 716.169 205.144 715.626 209.768 712.119C210.899 711.265 211.693 710.2 211.776 708.931C212.043 709.086 212.27 709.3 212.437 709.557C212.437 709.557 215.744 714.428 198.07 718.549L195.583 718.409C194.736 718.279 194.743 719.585 194.627 719.63C192.031 720.637 189.722 721.422 188.746 721.465C188.746 721.465 184.149 720.877 183.656 719.516L183.815 717.477C185.654 718.5 188.885 719.123 191.243 718.055Z" fill="#040308"/>
<path d="M196.894 712.164C198.723 710.022 204.732 631.257 204.732 631.257C205.717 619.147 185.208 624.231 185.208 624.231C182.22 636.285 182.703 638.553 181.764 653.51C181.393 659.421 182.351 708.35 182.128 712.113C182.128 712.097 191.654 718.285 196.894 712.164Z" fill="#053B6B"/>
<path d="M212.829 541.496C212.829 541.496 224.986 562.142 217.507 575.643C210.027 589.145 178.506 574.451 180.443 558.817C182.568 541.674 198.136 534.251 212.829 541.496Z" fill="#30528B"/>
<path d="M221.03 515.105C223.007 522.096 231.153 548.77 231.153 548.77C208.827 569.721 180.01 553.109 179.718 549.943C179.371 546.153 183.623 531.681 184.397 516.075C184.391 516.075 192.346 503.904 221.03 515.105Z" fill="#F7A483"/>
<path d="M248.305 626.685C245.929 603.673 229.444 544.973 229.444 544.973C229.444 544.973 224.624 540.561 210.976 544.005C197.328 547.448 195.816 565.164 195.53 564.08C195.53 564.08 211.415 601.236 232.531 633.971C232.541 633.975 242.748 639.17 248.305 626.685Z" fill="#30528B"/>
<path d="M268.755 711.646C268.351 708.865 247.508 626.246 247.508 626.246C242.604 616.057 228.515 626.786 228.515 626.786C228.564 634.182 228.764 643.104 233.619 657.368C235.531 663.001 253.249 714.026 254.482 717.606C254.485 717.606 264.953 720.872 268.755 711.646Z" fill="#30528B"/>
<path d="M168.435 461.29C168.435 461.29 166.225 498.376 167.634 513.345C167.634 513.345 167.634 520.15 179.671 523.56C179.671 523.56 184.05 482.273 187.614 463.839C187.614 463.839 180.505 450.17 168.435 461.29Z" fill="#E59375"/>
<path d="M182.46 471.329C180.131 472.33 177.504 472.362 175.152 471.418C172.8 470.474 170.914 468.632 169.905 466.292C169.414 465.135 169.155 463.892 169.144 462.633C169.132 461.375 169.368 460.126 169.837 458.96C170.307 457.794 171.001 456.733 171.879 455.838C172.757 454.944 173.803 454.233 174.955 453.748C177.284 452.746 179.912 452.714 182.264 453.658C184.617 454.601 186.504 456.445 187.512 458.785C188.003 459.942 188.262 461.186 188.274 462.445C188.285 463.703 188.049 464.952 187.58 466.118C187.11 467.284 186.415 468.345 185.537 469.24C184.658 470.134 183.612 470.844 182.46 471.329Z" fill="#E59375"/>
<path d="M177.1 450.995C177.1 450.995 168.38 453.04 167.913 463.277L166.504 500.112C166.504 500.112 175.208 505.974 186.495 504.974C186.495 504.974 199.509 455.776 177.1 450.995Z" fill="#FFD47C"/>
<path d="M210.127 427.905C210.127 427.905 210.209 441.123 211.363 454.293L193.931 451.403C193.931 451.403 196.481 445.391 192.892 440.014L210.127 427.905Z" fill="#F7A483"/>
<path d="M177.147 450.966C172.853 454.127 172.362 461.677 173.892 466.394C175.653 471.812 176.352 478.725 178.113 486.558C180.502 497.175 182.118 505.35 184.781 515.893C186.984 524.611 221.787 517.588 221.787 517.588L234.26 474.673C234.26 474.673 236.409 463.472 226.328 459.742C226.328 459.742 215.709 453.972 207.934 451.322C201.067 448.981 198.582 448.761 191.535 449.197C191.535 449.197 182.09 449.546 177.147 450.966Z" fill="#F7A483"/>
<path d="M228.496 540.325C228.496 540.325 235.96 552.405 228.496 565.938C221.031 579.471 198.237 574.546 198.169 557.003C198.105 539.683 213.832 533.056 228.496 540.325Z" fill="#30528B"/>
<path d="M191.5 449.016C191.5 449.016 182.044 449.366 177.096 450.796C172.624 454.103 172.704 460.598 173.564 465.51C175.215 474.905 176.888 484.395 177.738 493.901C178.121 498.124 179.158 506.681 179.469 510.895C179.768 514.985 181.049 517.24 185.185 519.4C188.331 521.044 190.669 519.725 194.095 519.832C202.806 520.073 211.405 519.108 220.039 518.029C220.405 517.984 233.878 527.181 229.443 520.414L234.26 474.648C234.26 474.648 236.411 463.378 226.319 459.626C226.319 459.626 219.223 455.133 211.437 452.479C211.45 452.466 197.916 452.813 191.5 449.016Z" fill="#FFD47C"/>
<path d="M216.019 442.916L216.762 440.083L218.527 429.632C218.721 428.191 218.609 426.725 218.199 425.329C217.783 423.933 217.453 422.46 217.659 420.919C218.671 413.434 214.421 409.716 214.421 409.716C209.477 403.303 199.189 404.198 199.186 404.202C193.852 404.999 189.193 407.174 186.538 411.974C184.131 416.329 182.821 421.64 184.246 426.511C185.814 431.842 188.83 436.003 192.844 439.782C195.407 442.202 198.024 442.496 201.38 443.707C203.714 444.55 208.183 445.041 210.665 445.058C211.968 445.048 215.59 444.544 216.019 442.916Z" fill="#F8A07D"/>
<path d="M213.698 414.299L212.09 420.778C210.254 421.588 209.518 422.301 209.769 424.724L210.354 430.078L208.901 430.636C209.02 428.493 206.058 428.461 206.058 428.461C203.895 428.338 203.525 430.191 203.65 431.972C203.972 436.602 202.29 443.959 198.422 445.253C196.895 445.766 194.014 446.295 193.531 444.221C192.94 441.681 188.146 436.634 188.146 436.634C182.387 431.039 180.943 421.488 183.667 414.192C184.597 411.878 186.005 409.789 187.798 408.061C191.39 404.615 195.911 402.918 200.679 402.295C200.679 402.295 207.242 401.491 210.93 404.092C213.219 405.706 214.721 407.18 215.698 408.465C215.695 408.465 217.094 411.44 213.698 414.299Z" fill="#3F1901"/>
<path d="M208.383 435.173C207.961 435.576 207.428 435.804 206.873 435.818C205.144 435.911 203.625 434.206 203.461 432.03C203.297 429.854 204.553 428.001 206.271 427.907C206.673 427.893 207.074 427.968 207.45 428.128C207.826 428.289 208.169 428.531 208.461 428.842C209.34 429.751 209.469 431.527 209.343 432.768C209.245 433.751 208.948 434.619 208.383 435.173Z" fill="#F8A07D"/>
<path d="M206.724 429.955C206.567 428.78 204.686 430.061 205.012 430.704C205.242 431.055 205.522 431.35 205.84 431.574C206.018 431.708 206.17 431.889 206.284 432.104C206.399 432.319 206.473 432.563 206.503 432.818C206.503 432.888 206.535 433.093 206.481 433.15C206.241 433.385 205.36 432.294 205.166 432.068C204.987 431.816 204.862 431.512 204.804 431.185C204.745 430.858 204.755 430.518 204.832 430.197C204.875 429.909 205.003 429.65 205.192 429.471C205.38 429.293 205.616 429.206 205.853 429.228C206.29 429.228 206.737 429.228 206.745 429.892C206.745 429.892 206.732 430.018 206.724 429.958V429.955Z" fill="#E98B6F"/>
<path d="M206.381 431.325C206.562 431.082 206.753 431.256 206.958 431.409C207.138 431.548 207.268 431.762 207.32 432.009C207.468 432.607 207.421 433.249 207.187 433.809C207.093 434.011 206.955 434.181 206.789 434.302C206.622 434.424 206.431 434.492 206.235 434.502C205.681 434.523 205.485 433.962 205.434 433.413C205.434 433.266 205.39 432.915 205.508 432.813C205.625 432.711 205.742 432.939 205.837 433.035C205.976 433.153 206.145 433.215 206.317 433.209C206.474 433.206 206.629 433.16 206.768 433.074C206.907 432.988 207.027 432.864 207.118 432.714C207.151 432.662 207.176 432.604 207.192 432.543C207.21 432.9 207.192 432.981 207.157 432.786C207.128 432.699 207.088 432.617 207.039 432.543C206.896 432.3 206.672 432.144 206.516 431.919C206.442 431.814 206.291 431.439 206.381 431.319V431.325Z" fill="#E98B6F"/>
<path d="M303.103 535.829C302.224 534.544 302.995 533.873 301.213 533.816C299.183 533.75 297.363 532.758 295.986 532.796C293.59 532.862 284.528 534.95 290.61 540.077C292.025 541.274 296.072 546.624 298.877 545.037C303.021 542.691 301.612 543.557 303.719 538.465L303.103 535.829Z" fill="#F7A483"/>
<path d="M217.715 468.37C216.549 470.125 215.946 472.176 215.982 474.263C216.019 476.351 216.693 478.381 217.92 480.097C219.146 481.812 220.87 483.137 222.873 483.903C224.876 484.668 227.069 484.841 229.173 484.398C231.277 483.956 233.199 482.918 234.695 481.416C236.191 479.915 237.193 478.017 237.577 475.962C237.96 473.908 237.706 471.789 236.847 469.875C235.988 467.96 234.563 466.336 232.752 465.207C231.55 464.457 230.208 463.944 228.802 463.697C227.396 463.45 225.954 463.474 224.557 463.768C223.161 464.062 221.838 464.619 220.664 465.409C219.49 466.198 218.488 467.204 217.715 468.37Z" fill="#F7A483"/>
<path d="M230.826 507.975C232.227 522.62 233.133 558.49 233.133 558.49C227.908 572.362 178.08 560.653 177.789 557.492C177.443 553.706 178.462 527.053 179.235 511.455C179.235 511.474 202.188 496.781 230.826 507.975Z" fill="#FFD47C"/>
<path d="M224.363 458.251C237.455 461.946 239.095 477.828 239.095 477.828L245.007 503.915C245.007 503.915 230.133 515.741 221.065 512.415C221.065 512.415 213.681 492.721 211.364 473.095C211.342 473.105 211.445 458.678 224.363 458.251Z" fill="#FFD47C"/>
<path d="M216.445 413.887C214.971 415.08 213.091 414.298 211.404 413.887C209.106 416.599 211.858 419.305 208.375 420.617C206.531 421.312 203.801 421.513 201.757 421.842C200.125 422.108 198.474 421.726 197.309 422.951C196.044 424.277 197.241 428.405 195.751 429.193C193.137 430.577 191.09 423.404 187.765 423.973C184.926 424.458 184.424 428.98 185.419 431.204C185.193 431.004 184.944 430.833 184.675 430.696C183.32 427.141 181.595 427.092 180.101 424.574C177.79 420.669 178.17 421.6 177.719 417.85C177.719 417.818 178.173 416.208 178.18 416.189C179.264 412.2 181.122 411.518 182.016 409.824C182.956 408.036 184.408 406.785 185.615 405.208C186.729 403.756 187.286 401.804 188.563 400.508C190.495 398.539 193.681 397.55 196.346 397.197C199.221 396.819 201.954 398.61 204.799 398.106C205.968 397.902 207.052 396.839 208.234 396.903C209.663 396.984 210.651 398.406 211.887 398.966C214.182 400.003 217.8 399.583 219.76 401.206C221.93 403 221.463 405.592 220.127 407.79C219.38 409.022 217.874 409.73 217.185 411.023C216.998 411.388 216.49 413.848 216.445 413.887Z" fill="#3F1901"/>
<path d="M451.676 557.204L450.924 557.037L450.168 549.459L452.148 546.649L451.676 557.204Z" fill="#561136"/>
<path d="M453.179 556.607L452.148 557.205L452.309 545.096L454.127 544.671L453.179 556.607Z" fill="#152035"/>
<path d="M445.351 541.63L443.435 547.868C443.435 547.868 440.841 553.876 438.674 556.25C438.674 556.25 434.783 561.494 442.057 561.146C442.057 561.146 449.81 560.737 449.693 555.841C449.59 551.628 453.52 546.399 453.52 546.399C453.991 545.617 454.197 544.707 454.106 543.802C454.015 542.897 453.632 542.044 453.014 541.368L451.672 539.858L445.15 538.733L445.351 541.63Z" fill="#E59375"/>
<path d="M438.233 558.118C439.73 558.385 441.268 558.291 442.724 557.844C444.179 557.397 445.509 556.61 446.609 555.546C448.612 553.548 450.896 546.238 450.152 548.666C449.83 549.671 452.191 540.781 451.566 539.394L452.9 540.937C453.387 541.515 454.972 543.695 453.544 546.211C453.544 546.211 449.508 551.433 449.611 555.725C449.727 560.729 442.024 561.146 442.024 561.146C437.692 561.358 437.35 559.514 437.769 558.003C437.921 558.05 438.076 558.089 438.233 558.118Z" fill="#152035"/>
<path d="M434.502 560.483C434.502 560.483 433.389 562.483 436.927 562.483C436.927 562.483 450.175 561.683 450.169 556.279V551.928C450.169 551.928 449.125 558.141 440.943 558.153C440.943 558.153 437.31 558.153 439.189 555.959L434.502 560.483Z" fill="#152035"/>
<path d="M472.564 260.893C472.704 256.134 468.959 252.164 464.2 252.024C459.442 251.884 455.471 255.629 455.331 260.388C455.192 265.146 458.936 269.117 463.695 269.257C468.454 269.396 472.424 265.652 472.564 260.893Z" fill="#1A2652"/>
<path d="M457.357 299.928H441.032C441.774 297.532 443.311 291.325 440.933 287.103L457.425 276.18C457.425 276.18 454.491 294.51 457.357 299.928Z" fill="#F7A483"/>
<path d="M455.525 289.781C454.547 292.341 452.967 293.597 450.387 294.423C447.716 295.325 444.87 295.544 442.097 295.059C442.358 292.493 442.218 289.59 440.933 287.272L457.425 276.18C457.425 276.18 456.531 281.856 456.214 287.866C456.003 288.496 455.77 289.141 455.525 289.781Z" fill="#E1876F"/>
<path d="M437.7 291.21L436.806 288.666L434.625 281.185C434.324 279.998 434.18 278.374 434.587 277.213C435.242 275.209 435.362 273.067 434.933 271.002C433.546 264.193 436.557 260.639 436.557 260.639C440.515 254.38 449.852 254.409 449.852 254.409C461.402 255.011 462.343 266.239 462.343 266.239C464.198 273.71 458.266 279.911 458.257 279.924C457.504 280.709 457.424 281.979 457.062 282.951C456.67 283.99 456.097 284.951 455.367 285.787C453.701 287.731 451.691 289.349 449.439 290.56C447.376 291.615 443.376 292.699 440.535 292.67C439.369 292.654 438.228 292.67 437.7 291.21Z" fill="#F7A483"/>
<path d="M491.729 558.4L490.871 558.524L487.771 551.911L489.04 548.629L491.729 558.4Z" fill="#561136"/>
<path d="M492.388 557.613L491.681 558.524L488.43 546.991L489.856 545.99L492.388 557.613Z" fill="#152035"/>
<path d="M480.363 545.781C480.535 551.103 480.927 557.074 478.802 562.124C478.802 562.124 476.832 568.466 483.597 565.776C483.597 565.776 490.798 562.876 489.104 558.166C487.636 554.116 489.655 547.775 489.655 547.775C489.847 546.865 489.745 545.917 489.364 545.069C488.984 544.222 488.344 543.519 487.539 543.065L485.774 542.032H479.003L480.363 545.781Z" fill="#F7A483"/>
<path d="M479.055 564.134C480.547 563.901 481.964 563.312 483.191 562.414C484.419 561.516 485.423 560.335 486.122 558.967C487.377 556.421 487.224 548.739 487.275 551.289C487.297 552.345 486.716 543.147 485.678 542.032L487.418 543.065C488.057 543.454 490.228 545.003 489.654 547.863C489.654 547.863 487.498 554.116 488.945 558.166C490.624 562.876 483.516 565.775 483.516 565.775C479.515 567.39 478.615 565.752 478.535 564.183C478.709 564.178 478.883 564.162 479.055 564.134Z" fill="#152035"/>
<path d="M475.909 566.951C475.909 566.951 475.523 569.212 478.933 568.123C478.933 568.123 491.424 563.266 489.56 558.086L488.072 553.906C488.072 553.906 489.204 560.189 481.325 562.726C481.325 562.726 477.824 563.848 478.879 561.161L475.909 566.951Z" fill="#152035"/>
<path d="M473.062 467.525C481.796 483.391 483.339 489.851 484.896 501.917C485.8 508.938 485.498 538.501 486.435 542.911C486.825 544.739 479.765 543.736 479.765 543.736C478.474 540.642 457.91 472.718 457.91 472.718C457.91 472.718 455.617 465.681 457.521 464.459C467.106 458.312 469.256 460.607 473.062 467.525Z" fill="#F7A483"/>
<path d="M479.235 545.227C477.962 542.133 457.895 472.733 457.895 472.733C457.895 472.733 455.633 465.69 457.51 464.467C466.963 458.315 469.082 460.596 472.836 467.535C481.448 483.415 482.97 489.88 484.504 501.956C485.396 508.983 486.846 537.549 487.77 541.962C487.77 541.962 482.618 548.092 479.235 545.227Z" fill="#1F2732"/>
<path d="M434.226 352.77C434.226 352.77 427.591 380.782 428.481 383.841C431.046 392.656 454.85 405.024 476.556 386.987C476.556 386.987 471.595 366.272 461.291 348.745C461.298 348.739 457.502 352.641 434.226 352.77Z" fill="#1F2732"/>
<path d="M437.685 295.687C437.685 295.687 428.984 312.464 425.101 321.665C426.723 332.455 432.605 348.462 434.967 351.837C440.158 359.232 463.806 352.63 463.806 352.63L470.619 329.914C450.708 322.794 461.194 301.855 461.194 301.855L458.073 299.891C458.073 299.891 454.887 310.176 441.929 309.807C441.929 309.807 437.672 307.043 440.806 295.312C439.757 295.346 438.713 295.472 437.685 295.687Z" fill="#6652A2"/>
<path d="M459.404 391.341C459.404 391.341 457.123 436.125 448.761 460.211C447.514 463.803 433.223 459.03 433.223 459.03C433.223 459.03 426.015 420.497 426.438 404.533C426.683 395.509 429.944 376.042 429.944 376.042C429.944 376.042 456.748 372.582 459.404 391.341Z" fill="#E59375"/>
<path d="M448.096 460.591L433.017 459.571C433.017 459.571 442.283 536.913 443.123 540.165C443.123 540.165 449.604 542.523 449.472 540.648C449.149 536.133 454.567 501.424 454.731 494.335C454.995 482.89 454.551 475.68 448.096 460.591Z" fill="#E59375"/>
<path d="M459.404 391.341C459.404 391.341 457.123 436.125 448.761 460.211C447.514 463.803 433.223 459.03 433.223 459.03C433.223 459.03 426.015 420.497 426.438 404.533C426.683 395.509 429.944 376.042 429.944 376.042C429.944 376.042 456.748 372.582 459.404 391.341Z" fill="#171F29"/>
<path d="M441.256 540.297C439.726 537.324 433.017 459.571 433.017 459.571L448.097 460.597C454.538 475.62 454.996 482.802 454.731 494.168C454.567 501.243 451.143 535.802 451.459 540.281C451.459 540.297 443.262 544.202 441.256 540.297Z" fill="#171F29"/>
<path d="M410.587 350.019L421.779 309.149C425.809 298.215 431.82 297.948 431.82 297.948C443.346 299.705 435.97 320.076 435.97 320.076L421.744 354.021" fill="#E59375"/>
<path d="M376.771 381.419C381.713 377.808 382.054 376.824 382.801 375.355C386.021 369.052 377.804 370.433 375.802 371.201C374.649 371.642 374.997 374.444 371.813 378.388C371.813 378.388 366.507 382.555 365.052 382.514C365.052 382.514 363.593 382.942 363.764 383.999C363.741 384.012 368.175 385.792 376.771 381.419Z" fill="#E59375"/>
<path d="M411.342 347.658L377.837 373.404C376.912 378.096 379.03 378.43 379.03 378.43L406.054 365.955C417.626 360.87 421.657 355.016 421.657 355.016C421.657 355.016 426.384 350.517 418.855 346.005C418.855 345.982 415.434 343.994 411.342 347.658Z" fill="#E59375"/>
<path d="M377.319 370.893C377.319 370.893 378.829 374.005 374.888 373.804L370.718 371.353C370.718 371.353 369.461 370.872 369.723 369.624C369.723 369.624 370.078 368.874 371.382 369.358L377.319 370.893Z" fill="#E59375"/>
<path d="M477.875 394.963C477.875 394.963 477.702 439.903 471.762 464.754C470.881 468.463 457.313 467.323 457.313 467.323C457.313 467.323 448.462 424.823 447.34 408.845C446.696 399.812 444.891 384.006 444.891 384.006C444.891 384.006 476.64 380.866 477.875 394.963Z" fill="#F7A483"/>
<path d="M470.959 306.864C477.866 311.948 474.333 319.595 474.333 319.595L461.287 351.504C461.287 351.504 440.129 358.75 435.007 351.361C432.669 347.989 430.512 339.042 427.663 326.14C425.737 317.374 425.605 302.059 430.505 297.526C433.331 294.907 442.479 294.962 442.547 294.651L457.366 299.46L470.959 306.864Z" fill="#F7A483"/>
<path d="M443.027 348.749C441.758 348.516 434.913 351.246 434.913 351.246C434.913 351.246 429.99 372.456 429.721 375.681C429.451 378.905 451.384 395.599 475.896 386.093C475.896 386.093 463.518 356.57 461.711 350.412C459.633 343.327 443.027 348.749 443.027 348.749Z" fill="#F7A483"/>
<path d="M431.325 308.504C431.325 308.504 423.772 316.978 423.139 323.277C422.8 326.783 427.43 332.64 429.754 334.815C431.407 336.342 441.155 314.354 431.325 308.504Z" fill="#6652A2"/>
<path d="M470.034 379.401C470.034 379.401 478.598 381.299 477.826 396.945C477.074 412.224 449.159 415.4 445.573 400.006C441.718 383.436 454.79 373.722 470.034 379.401Z" fill="#1F2732"/>
<path d="M456.626 283.949C456.683 278.566 456.551 278.896 456.551 278.896C456.431 277.324 453.458 280.713 453.521 278.668C453.801 269.291 450.52 264.83 449.235 264.107C445.75 262.146 442.075 261.584 439.159 262.123C434.59 262.967 434.75 269.278 434.75 269.278C430.858 246.171 455.685 253.554 455.685 253.554C467.777 256.852 466.53 268.676 466.53 268.676C468.013 281.377 456.421 288.714 456.421 288.714L456.626 283.949Z" fill="#2B3B6F"/>
<path d="M456.12 282.295C456.613 282.633 457.219 282.802 457.834 282.774C459.747 282.749 461.337 281.101 461.382 279.1C461.427 277.099 459.915 275.499 458.002 275.521C457.554 275.533 457.114 275.628 456.706 275.799C456.299 275.97 455.933 276.214 455.629 276.516C454.71 277.402 454.68 279.037 454.899 280.156C455.006 280.983 455.44 281.744 456.12 282.295Z" fill="#F8A07D"/>
<path d="M457.456 276.984C457.549 275.811 459.445 276.931 459.159 277.591C458.953 277.954 458.696 278.267 458.4 278.514C458.233 278.66 458.094 278.851 457.993 279.073C457.892 279.294 457.831 279.541 457.816 279.795C457.816 279.862 457.799 280.066 457.853 280.111C458.1 280.325 458.903 279.181 459.08 278.939C459.241 278.676 459.346 278.367 459.386 278.04C459.426 277.713 459.399 277.378 459.308 277.068C459.251 276.788 459.114 276.543 458.922 276.381C458.73 276.219 458.498 276.151 458.268 276.19C457.841 276.222 457.409 276.261 457.426 276.921C457.426 276.921 457.445 277.043 457.448 276.984H457.456Z" fill="#E98B6F"/>
<path d="M458.013 278.263C457.762 278.038 457.522 278.225 457.264 278.392C457.036 278.552 456.882 278.782 456.831 279.038C456.682 279.651 456.789 280.292 457.132 280.838C457.272 281.032 457.465 281.191 457.693 281.299C457.92 281.407 458.175 281.462 458.432 281.457C459.149 281.438 459.374 280.86 459.403 280.306C459.403 280.157 459.424 279.806 459.263 279.715C459.102 279.625 458.966 279.857 458.848 279.964C458.672 280.09 458.456 280.163 458.231 280.173C458.027 280.181 457.824 280.145 457.637 280.069C457.451 279.994 457.286 279.88 457.157 279.738C457.109 279.688 457.071 279.631 457.046 279.57C457.046 279.931 457.067 280.009 457.11 279.812C457.141 279.721 457.187 279.636 457.246 279.557C457.415 279.305 457.701 279.134 457.887 278.892C457.977 278.783 458.149 278.392 458.02 278.276L458.013 278.263Z" fill="#E98B6F"/>
<path d="M445.557 274.111C445.507 274.839 445.757 275.469 446.119 275.517C446.481 275.564 446.813 275.014 446.864 274.286C446.914 273.557 446.664 272.931 446.305 272.884C445.946 272.836 445.605 273.386 445.557 274.111Z" fill="#3C2415"/>
<path d="M436.976 273.187C436.957 273.732 437.243 274.187 437.601 274.2C437.959 274.214 438.275 273.781 438.294 273.236C438.312 272.691 438.026 272.236 437.671 272.222C437.315 272.208 436.997 272.639 436.976 273.187Z" fill="#3C2415"/>
<path d="M449.509 273.541C447.801 271.657 443.781 271.819 443.781 271.819C443.781 271.819 443.512 271.819 443.584 270.945C443.584 270.945 443.604 270.184 444.184 270.256C444.184 270.246 449.299 269.888 449.509 273.541Z" fill="#2B3B6F"/>
<path d="M434.336 269.674C436.049 268.207 439.201 269.341 439.201 269.341C439.755 269.424 439.591 270.139 439.591 270.139C439.453 270.961 439.201 270.901 439.201 270.901C439.201 270.901 436.594 270.053 434.553 270.568C434.478 270.269 434.402 269.973 434.336 269.674Z" fill="#2B3B6F"/>
<path d="M438.004 282.778L444.516 283.774C444.846 283.826 444.994 283.995 444.813 284.145C444.813 284.145 442.937 285.697 440.826 285.37C438.716 285.042 437.661 283.037 437.661 283.037C437.569 282.863 437.727 282.762 438.004 282.778Z" fill="white"/>
<path d="M442.252 280.138C439.126 279.931 438.954 279.185 438.954 279.185L440.594 276.18C440.594 276.18 440.201 279.182 442.252 280.138Z" fill="#E98B6F"/>
<path d="M477.875 394.963C477.875 394.963 477.702 439.903 471.762 464.754C470.881 468.463 457.313 467.323 457.313 467.323C457.313 467.323 448.462 424.823 447.34 408.845C446.696 399.812 444.891 384.006 444.891 384.006C444.891 384.006 476.64 380.866 477.875 394.963Z" fill="#1F2732"/>
<path d="M434.226 352.77C434.226 352.77 427.591 380.782 428.481 383.841C431.046 392.656 454.85 405.024 476.556 386.987C476.556 386.987 471.595 366.272 461.291 348.745C461.298 348.739 457.502 352.641 434.226 352.77Z" fill="#1F2732"/>
<path d="M463.622 352.653C463.622 352.653 439.413 360.135 434.248 352.734C431.899 349.357 426.721 332.47 425.101 321.675C428.974 312.471 437.622 295.687 437.622 295.687C438.646 295.472 439.687 295.346 440.733 295.312C437.615 307.048 441.85 309.813 441.85 309.813C454.742 310.182 457.912 299.893 457.912 299.893L461.017 301.858C461.017 301.858 451.414 321.866 469.949 331.016C469.962 331.016 470.407 352.481 463.622 352.653Z" fill="#6652A2"/>
<path d="M456.106 282.447C456.106 282.642 456.164 282.834 456.272 282.996C456.381 283.159 456.536 283.286 456.717 283.361C456.897 283.436 457.096 283.455 457.288 283.417C457.48 283.379 457.657 283.285 457.795 283.146C457.933 283.008 458.028 282.832 458.066 282.64C458.104 282.448 458.084 282.249 458.009 282.068C457.935 281.887 457.808 281.733 457.645 281.624C457.482 281.515 457.291 281.457 457.095 281.457C456.833 281.457 456.581 281.561 456.396 281.747C456.21 281.932 456.106 282.184 456.106 282.447Z" fill="white"/>
<path d="M460.203 310.518C459.283 311.451 458.564 312.547 458.088 313.744C457.612 314.941 457.389 316.215 457.43 317.494C457.471 318.774 457.777 320.033 458.329 321.2C458.881 322.367 459.669 323.418 460.648 324.295C464.763 327.985 477.703 335.019 477.823 329.635C478.062 319.057 477.627 313.31 473.508 309.62C469.39 305.931 464.076 306.595 460.203 310.518Z" fill="#F7A483"/>
<path d="M460.113 319.445L468.799 314.441L477.531 319.899C477.531 319.899 482.642 352.44 480.756 359.883C478.747 367.818 475.1 361.974 473.375 359.802C473.391 359.793 459.129 325.76 460.113 319.445Z" fill="#F7A483"/>
<path d="M479.854 363.007C479.854 363.007 463.961 373.851 449.853 379.75C449.853 379.75 445.191 377.87 447.523 375.823C451.48 372.325 468.783 356.497 472.782 352.993C479.854 350.677 479.854 363.007 479.854 363.007Z" fill="#F7A483"/>
<path d="M441.993 386.066C447.766 383.651 448.342 382.768 449.432 381.503C454.135 376.086 445.629 375.56 443.449 375.856C442.201 376.028 441.878 378.845 437.771 381.981C437.771 381.981 431.514 384.849 430.046 384.495C430.046 384.495 428.495 384.581 428.399 385.652C428.402 385.652 432.394 388.399 441.993 386.066Z" fill="#F7A483"/>
<path d="M444.049 375.791C444.049 375.791 446.618 378.252 442.78 379.749L437.906 379.094C437.906 379.094 436.538 379.155 436.315 377.799C436.315 377.799 436.38 376.9 437.789 376.827L444.049 375.791Z" fill="#F7A483"/>
<path d="M356.437 420.99C356.504 420.972 356.571 420.957 356.64 420.945C356.743 420.923 356.847 420.897 356.963 420.877L357.192 420.835L357.415 420.8L357.57 438.605L387.055 458.499L386.871 437.252L362.438 420.771C362.797 420.813 363.158 420.865 363.523 420.923L363.759 420.965L364.175 421.039L364.456 421.094L364.863 421.181L365.118 421.236C365.331 421.287 365.544 421.336 365.764 421.391L365.935 421.433C366.199 421.501 366.461 421.575 366.726 421.652L366.864 421.694C367.229 421.801 367.594 421.917 367.952 422.04H367.991C368.355 422.167 368.717 422.299 369.076 422.437L369.154 422.469C369.56 422.627 369.964 422.792 370.361 422.976L370.416 423.002C370.819 423.183 371.213 423.376 371.604 423.576L371.643 423.596C372.037 423.799 372.427 424.015 372.805 424.241H372.824C373.212 424.467 373.586 424.706 373.951 424.955C377.205 427.147 378.92 429.617 378.936 431.715L378.752 410.469C378.732 408.367 377.021 405.904 373.767 403.689C373.399 403.444 373.024 403.205 372.64 402.979H372.618C372.24 402.756 371.853 402.543 371.455 402.333L371.417 402.314C371.026 402.11 370.632 401.92 370.232 401.739L370.17 401.713C369.777 401.536 369.376 401.364 368.969 401.206H368.947L368.879 401.18C368.527 401.045 368.172 400.913 367.814 400.79L367.765 400.77C367.407 400.648 367.049 400.538 366.687 400.448L366.593 400.415H366.532C366.274 400.341 366.012 400.267 365.751 400.199L365.573 400.154L364.927 400.002L364.798 399.973L364.656 399.944L364.272 399.863L363.975 399.805L363.581 399.731L363.375 399.695H363.323C362.958 399.634 362.6 399.586 362.241 399.544L362.148 399.527H362.08C361.768 399.491 361.458 399.462 361.15 399.44H361.073H360.966C360.679 399.421 360.388 399.408 360.104 399.402H360.081C359.813 399.402 359.549 399.402 359.287 399.402H359.09C358.829 399.402 358.567 399.427 358.312 399.444H358.29H358.232C357.967 399.466 357.709 399.498 357.453 399.531H357.366H357.305L357.005 399.579L356.759 399.624L356.469 399.686C356.401 399.686 356.333 399.712 356.269 399.731H356.243C356.014 399.789 355.794 399.85 355.578 399.918L355.429 399.967C355.21 400.041 354.997 400.118 354.784 400.202C354.57 400.286 354.461 400.351 354.322 400.428L354.196 400.499L354.041 400.586L353.918 400.667L353.763 400.767L353.534 400.932L353.405 401.032L353.36 401.067C353.273 401.137 353.19 401.212 353.111 401.29L353.079 401.319C353.018 401.381 352.959 401.439 352.901 401.503L352.85 401.561L352.769 401.655L352.611 401.855L352.54 401.949L352.504 401.997L352.436 402.104C352.394 402.168 352.349 402.236 352.311 402.304L352.223 402.449C352.185 402.517 352.149 402.585 352.114 402.653L352.078 402.714C352.069 402.739 352.058 402.762 352.046 402.785C351.988 402.904 351.93 403.021 351.875 403.143C351.867 403.163 351.859 403.183 351.849 403.201C351.775 403.363 351.707 403.524 351.636 403.689L351.5 404.012C351.478 404.057 351.455 404.105 351.436 404.154C351.371 404.293 351.306 404.435 351.235 404.57C351.203 404.641 351.164 404.709 351.126 404.777L351.064 404.89C351.003 404.997 350.938 405.1 350.871 405.213C350.803 405.326 350.777 405.345 350.729 405.41C350.68 405.474 350.593 405.597 350.522 405.687L350.425 405.81C350.325 405.933 350.222 406.052 350.102 406.175L350.083 406.198C349.97 406.32 349.847 406.443 349.721 406.566L349.608 406.669C349.515 406.756 349.421 406.84 349.321 406.924L349.176 407.047L348.853 407.286L348.711 407.389C348.556 407.499 348.388 407.605 348.23 407.712H348.201L348.152 407.741H348.12L348.049 407.783L347.997 407.809L347.913 407.851L347.852 407.88L347.752 407.928L347.671 407.967C347.638 407.987 347.604 408.004 347.568 408.018L347.442 408.08L347.364 408.115L347.216 408.183L347.138 408.222L346.896 408.328C346.338 408.577 345.682 408.848 345.069 409.055L315.593 389.164L315.78 410.411L345.295 430.327C345.908 430.121 346.564 429.853 347.122 429.604L347.364 429.494L347.406 429.475L347.59 429.388L347.658 429.355L347.794 429.291L347.878 429.252L347.981 429.2L348.046 429.171L348.143 429.12L348.191 429.097L348.275 429.052L348.314 429.033L348.381 428.997H348.407C348.421 428.991 348.434 428.984 348.446 428.974C348.611 428.874 348.769 428.765 348.924 428.652L349.072 428.542C349.176 428.464 349.276 428.387 349.373 428.306L349.453 428.245L349.524 428.183L349.802 427.935L349.921 427.822C350.047 427.702 350.167 427.58 350.283 427.457L350.302 427.431C350.412 427.313 350.52 427.193 350.625 427.073L350.719 426.953C350.793 426.86 350.864 426.766 350.929 426.673L350.98 426.605C351.013 426.56 351.042 426.518 351.068 426.476C351.139 426.372 351.203 426.269 351.264 426.153C351.29 426.104 351.316 426.056 351.345 426.007L351.432 425.846C351.503 425.704 351.571 425.562 351.633 425.423C351.652 425.381 351.668 425.342 351.687 425.304L351.852 424.923C351.913 424.777 351.978 424.632 352.043 424.487C352.052 424.459 352.064 424.432 352.078 424.406C352.13 424.29 352.185 424.177 352.239 424.064L352.311 423.928L352.42 423.728C352.446 423.677 352.475 423.628 352.507 423.576C352.54 423.525 352.591 423.447 352.633 423.376L352.737 423.228L352.808 423.131C352.859 423.063 352.911 422.999 352.966 422.934L353.05 422.837C353.121 422.756 353.195 422.676 353.276 422.595C353.276 422.595 353.295 422.576 353.308 422.563C353.399 422.479 353.499 422.392 353.602 422.308L353.728 422.211C353.802 422.153 353.88 422.098 353.96 422.043L354.115 421.943C354.202 421.885 354.296 421.83 354.393 421.775L354.519 421.704C354.664 421.63 354.816 421.552 354.98 421.478C355.145 421.404 355.397 421.316 355.626 421.245C355.678 421.229 355.726 421.21 355.778 421.197C355.981 421.107 356.207 421.045 356.437 420.99Z" fill="#0093C6"/>
<path d="M478.402 420.06L478.215 398.811L440.374 414.733L440.529 432.416H440.493L440.248 432.445L439.347 432.532H439.26C439.041 432.551 438.824 432.564 438.614 432.577H438.372L437.888 432.597H437.707C437.329 432.597 436.952 432.597 436.587 432.597H436.438C436.131 432.597 435.83 432.584 435.538 432.558H435.467C435.192 432.538 434.921 432.513 434.656 432.484L434.459 432.461C434.233 432.435 434.011 432.403 433.791 432.371H433.714C433.478 432.332 433.252 432.287 433.026 432.238L432.855 432.199C432.648 432.151 432.442 432.099 432.245 432.041L432.157 432.019L432.035 431.98L431.712 431.877L431.55 431.815L431.286 431.715L431.141 431.654L430.889 431.541L430.753 431.476L430.504 431.344L430.395 431.283C430.278 431.215 430.169 431.147 430.072 431.076C428.651 430.107 428.435 428.89 428.403 427.612V426.579C428.403 425.529 428.322 424.49 427.628 423.579C426.724 422.731 425.734 421.979 424.674 421.336L386.901 437.239L387.085 458.486L424.877 442.582C425.938 443.231 426.928 443.988 427.831 444.842C428.454 445.662 428.574 446.582 428.6 447.522V448.552C428.6 449.943 428.732 451.302 430.275 452.342C430.381 452.413 430.488 452.481 430.598 452.545L430.714 452.61C430.792 452.652 430.873 452.697 430.956 452.736L431.095 452.804C431.179 452.842 431.26 452.881 431.347 452.917L431.492 452.978L431.573 453.013L431.76 453.081L431.919 453.139L432.241 453.243L432.374 453.281H432.393H432.451C432.651 453.34 432.861 453.391 433.071 453.443L433.162 453.465H433.236C433.462 453.514 433.691 453.559 433.93 453.598H433.982C434.201 453.633 434.43 453.662 434.663 453.691H434.76H434.853C435.118 453.721 435.389 453.743 435.667 453.762H435.741C436.035 453.782 436.338 453.795 436.645 453.804H436.784C437.149 453.804 437.526 453.804 437.904 453.804H438.088L438.572 453.785H438.815L439.509 453.737H439.551C439.851 453.711 440.154 453.679 440.458 453.646L440.697 453.617C440.965 453.585 441.233 453.553 441.504 453.511H441.604H441.636C441.888 453.475 442.14 453.433 442.392 453.391L442.521 453.369L443.167 453.256C443.263 453.236 443.357 453.214 443.454 453.198L443.935 453.097L444.258 453.026L444.713 452.923L444.832 452.897L444.936 452.868C445.346 452.768 445.756 452.665 446.166 452.545L446.327 452.5C446.744 452.381 447.157 452.258 447.57 452.122L447.696 452.08C448.122 451.942 448.545 451.796 448.965 451.641L449.039 451.612C449.475 451.451 449.908 451.289 450.331 451.099L450.947 450.834C451.235 450.705 451.512 450.576 451.783 450.444L452.058 450.308C452.235 450.218 452.413 450.13 452.581 450.04L452.881 449.882L453.343 449.624L453.627 449.459C453.685 449.427 453.743 449.394 453.798 449.359C453.853 449.323 453.982 449.246 454.076 449.185L454.321 449.036L454.808 448.713L454.963 448.607C455.167 448.465 455.364 448.319 455.554 448.174L455.696 448.061C455.806 447.974 455.922 447.887 456.019 447.796L456.077 447.748C456.216 447.628 456.345 447.512 456.474 447.396C456.529 447.344 456.591 447.293 456.645 447.238C456.823 447.07 456.994 446.915 457.149 446.731C457.288 446.579 457.414 446.431 457.533 446.285L457.64 446.14C457.704 446.059 457.769 445.975 457.827 445.895L457.869 445.83C457.898 445.788 457.924 445.746 457.95 445.704C458.018 445.601 458.082 445.498 458.14 445.381C458.166 445.336 458.192 445.294 458.215 445.249L458.253 445.178C458.311 445.068 458.36 444.958 458.405 444.855C458.414 444.838 458.422 444.819 458.428 444.8C458.46 444.726 458.489 444.652 458.515 444.574C458.541 444.497 458.544 444.477 458.557 444.432C458.57 444.387 458.557 444.384 458.579 444.358C458.608 444.248 458.634 444.142 458.654 444.035V443.971C458.655 443.948 458.655 443.925 458.654 443.903C458.671 443.782 458.681 443.66 458.683 443.538V443.499C458.637 438.461 458.593 433.42 458.55 428.377L478.402 420.06Z" fill="#3DAFE4"/>
<path d="M315.593 389.164L406.959 350.723L478.224 398.811L440.374 414.734C441.172 415.364 442.026 415.921 442.924 416.396C444.422 417.029 445.989 417.486 447.593 417.756C450.776 418.34 454.695 418.246 456.955 419.773C460.507 422.169 457.707 426.511 450.731 429.62C450.531 429.711 450.324 429.801 450.114 429.888C442.689 433.013 433.71 433.553 430.062 431.089C427.098 429.091 429.378 425.924 427.608 423.593C426.704 422.744 425.714 421.992 424.654 421.349L386.881 437.252L357.392 417.355L357.77 417.184C359.032 416.634 360.326 416.158 361.644 415.76C366.041 414.792 371.975 415.967 375.785 414.369C380.44 412.296 379.491 407.589 373.764 403.715C367.972 399.805 359.484 398.227 354.806 400.199C351.9 401.491 352.017 403.528 350.893 405.197C350.208 406.205 349.317 407.057 348.278 407.696C348.139 407.78 347.613 408.044 346.945 408.341C346.386 408.59 345.731 408.861 345.117 409.068L315.593 389.164Z" fill="#80BBE6"/>
<path d="M590.666 706.302C586.954 709.972 580.838 711.935 580.838 711.938C575.68 713.217 572.647 709.851 572.647 709.851C571.539 708.329 572.885 707.491 572.885 707.491C583.76 699.361 587.013 697.056 587.013 697.056H596.984C597.475 701.004 597.202 702.596 597.202 702.596C595.869 704.334 593.909 705.503 591.726 705.861C591.521 705.896 591.137 705.598 590.942 705.675L590.666 706.302Z" fill="#17181C"/>
<path d="M572.838 707.664C572.877 707.888 572.946 708.105 573.045 708.311C573.89 710.035 576.236 710.747 578.097 710.723C580.332 710.692 582.363 709.652 584.309 708.714C586.149 707.792 587.875 706.677 589.455 705.389C590.579 704.5 592.015 704.082 593.353 703.531C594.854 702.912 595.985 701.943 597.278 701.015C597.278 702.039 597.209 702.891 597.209 702.891C595.877 704.573 593.918 705.705 591.735 706.051C591.531 706.085 591.147 705.797 590.952 705.872L590.667 706.491C586.957 710.045 580.842 711.945 580.842 711.949C575.687 713.187 572.656 709.927 572.656 709.927C571.662 708.605 572.607 707.81 572.838 707.664Z" fill="black"/>
<path d="M598.333 616.635C587.249 628.769 582.855 615.934 582.855 615.934L581.482 541.353C581.336 542.463 580.97 533.83 594.964 535.7C608.958 537.569 612.45 542.956 612.45 542.956C612.45 542.956 604.772 594.472 598.333 616.642" fill="#E59375"/>
<path d="M582.764 614.785C582.764 614.785 588.255 694.269 588.705 697.06C588.705 697.06 595.377 698.577 595.409 696.998C595.482 693.188 603.105 646.678 603.203 640.696C603.45 625.547 599.651 622.685 595.862 612.479C595.862 612.479 582.739 602.508 582.764 614.785Z" fill="#E59375"/>
<path d="M600.713 617.265C607.252 595.068 612.45 542.969 612.45 542.969C612.45 542.969 608.851 537.577 594.678 535.701C580.506 533.825 580.835 542.47 580.987 541.364C580.987 541.364 578.35 578.304 582.305 615.122C582.322 615.122 591.985 622.667 600.713 617.265Z" fill="#0B152A"/>
<path d="M597.937 616.619C587.072 628.791 582.764 615.915 582.764 615.915Z" fill="#0B152A"/>
<path d="M584.931 696.462C583.347 694.165 582.764 614.579 582.764 614.579C582.739 602.333 597.439 607.979 597.439 607.979C601.24 618.159 603.456 625.315 603.194 640.426C603.095 646.393 599.207 693.756 599.134 697.553C599.134 697.543 589.497 703.039 584.931 696.462Z" fill="#0B152A"/>
<path d="M611.176 525.759C611.176 525.759 618.497 537.62 611.176 550.907C603.855 564.194 581.512 559.358 581.446 542.134C581.382 525.129 596.8 518.623 611.176 525.759Z" fill="#0B152A"/>
<path d="M622.248 501.242C624.199 508.214 632.241 534.82 632.241 534.82C603.451 569.439 581.753 539.147 581.465 535.99C581.123 532.209 585.304 517.775 586.084 502.209C586.084 502.209 593.934 490.064 622.248 501.242Z" fill="#F7A483"/>
<path d="M581.151 544.834C579.774 535.387 582.626 525.854 584.097 516.303H626.638C629.361 525.46 632.191 534.872 632.191 534.872C632.191 534.872 634.01 556.532 615.792 559.129C615.792 559.126 584.042 564.68 581.151 544.834Z" fill="#0B152A"/>
<path d="M629.591 618.619C620.617 632.323 614.474 620.208 614.474 620.208L599.916 547.147C599.939 548.269 600.352 537.63 614.2 537.42C628.047 537.209 632.227 542.057 632.227 542.057C632.227 542.057 632.59 595.626 629.591 618.619Z" fill="#F7A483"/>
<path d="M614.585 619.327C614.585 619.327 629.059 702.238 629.925 704.901C629.925 704.901 636.805 705.384 636.604 703.831C636.124 700.091 637.367 647.806 636.604 641.94C634.648 627.073 632.606 624.533 627.336 615.101C627.314 615.098 612.774 607.31 614.585 619.327Z" fill="#F7A483"/>
<path d="M628.984 702.742L624.984 715.48C624.984 715.48 625.81 726.881 634.574 719.815L637.182 717.175C637.565 716.84 637.854 716.403 638.02 715.911C638.186 715.419 638.222 714.89 638.124 714.378L637.345 709.496L636.403 702.742C636.403 702.742 630.926 698.856 628.984 702.742Z" fill="#17181C"/>
<path d="M634.574 718.231L637.182 715.645C637.619 715.274 637.932 714.771 638.077 714.207L638.124 714.488C638.222 714.992 638.186 715.514 638.02 715.999C637.854 716.484 637.565 716.914 637.182 717.245L634.574 719.847C625.81 726.811 624.984 715.574 624.984 715.574L625.138 715.083C625.635 717.723 627.561 723.802 634.574 718.231Z" fill="black"/>
<path d="M631.989 618.564C635.046 595.627 632.7 534.699 632.7 534.699C632.7 534.699 629.042 529.295 614.963 529.502C600.884 529.708 597.937 545.714 597.937 544.575C597.937 544.575 609.816 606.975 614.973 622.025C614.963 622.025 623.681 629.434 631.989 618.564Z" fill="#152035"/>
<path d="M626.351 703.877C625.522 701.203 614.43 618.137 614.43 618.137C614.293 606.851 628.589 609.619 628.589 609.619C633.724 619.079 634.915 623.498 636.822 638.432C637.577 644.328 639.03 698.869 639.497 702.624C639.491 702.611 633.496 706.94 626.351 703.877Z" fill="#152035"/>
<path d="M590.681 448.463C590.681 448.463 585.404 484.71 580.223 498.822C580.223 498.822 571.686 500.589 568.911 495.925C568.911 495.925 569.863 464.941 570.974 446.274C570.981 446.261 581.494 434.789 590.681 448.463Z" fill="#E59375"/>
<path d="M569.208 495.895C569.208 495.895 567.392 525.893 565.613 537.646C565.613 537.646 567.092 540.926 569.093 538.492C572.441 534.42 582.462 497.486 580.544 495.188C571.597 484.41 569.208 495.895 569.208 495.895Z" fill="#E59375"/>
<path d="M574.809 454.297C576.894 455.842 579.521 456.522 582.119 456.188C584.717 455.855 587.074 454.535 588.675 452.517C589.459 451.517 590.032 450.375 590.36 449.159C590.688 447.942 590.766 446.674 590.588 445.428C590.41 444.182 589.981 442.982 589.324 441.899C588.668 440.815 587.798 439.869 586.763 439.114C584.678 437.569 582.05 436.89 579.452 437.224C576.855 437.558 574.498 438.878 572.897 440.897C572.113 441.897 571.54 443.038 571.212 444.255C570.883 445.471 570.806 446.739 570.983 447.985C571.161 449.231 571.591 450.43 572.247 451.513C572.904 452.597 573.775 453.543 574.809 454.297Z" fill="#E59375"/>
<path d="M568.911 543.622L567.517 547.985L568.896 554.429C568.896 554.429 567.701 555.206 566.91 553.028L565.613 547.681L566.795 542.689L568.911 543.622Z" fill="#E59375"/>
<path d="M567.592 544.992L565.763 549.005L566.942 555.124C566.942 555.124 565.551 555.786 564.785 553.696L563.634 548.621L565.258 544.009L567.592 544.992Z" fill="#E59375"/>
<path d="M562.688 544.868L564.486 540.078L566.606 534.113L570.782 534.305L570.89 541.011L570.551 544.459L570.039 549.163L569.957 550.696C569.957 550.696 568.6 550.859 568.092 548.304L567.925 543.757L565.476 546.874L565.764 553.161C565.764 553.161 564.747 556.236 563.99 554.876L562.314 545.826L562.688 544.868Z" fill="#E59375"/>
<path d="M578.185 437.141C578.185 437.141 569.467 439.158 569 449.27L567.592 485.661C567.592 485.661 576.294 491.452 587.579 490.461C587.585 490.461 600.596 441.851 578.185 437.141Z" fill="#00BAC5"/>
<path d="M585.22 405.779C584.093 404.785 581.897 401.748 582.007 400.189C582.039 399.725 582.502 399.357 582.502 398.773C582.502 398.188 582.237 397.933 582.02 397.443C581.6 396.57 581.41 395.605 581.466 394.638C581.466 393.786 581.304 392.114 581.887 391.44C582.755 390.43 584.478 391.256 585.388 391.798C587.276 392.918 588.339 394.738 590.295 395.813C591.953 396.726 592.494 397.83 593.424 399.425C594.599 401.432 595.581 405.16 593.071 406.673C590.758 408.074 587.137 407.48 585.22 405.779Z" fill="#3C2415"/>
<path d="M607.661 427.245C607.661 427.245 609.317 423.91 612.973 417.501C612.973 417.501 620.753 409.134 616.41 398.616C616.41 398.616 614.016 389.821 599.338 391.088C599.316 391.097 597.916 415.307 607.661 427.245Z" fill="#F8A07D"/>
<path d="M608.242 413.393C608.242 413.393 605.703 437.31 611.131 439.12L591.835 437.959C591.835 437.959 594.868 430.729 591.34 425.401L608.242 413.393Z" fill="#F7A483"/>
<path d="M592.919 433.833C593.244 428.353 592.554 427.244 591.34 425.432L608.492 413.393C608.492 413.393 607.662 421.143 607.952 428.165C602.985 432.857 598.885 433.963 592.919 433.833Z" fill="#E1876F"/>
<path d="M578.277 437.116C573.936 440.274 573.44 447.826 574.99 452.543C576.766 457.957 577.473 464.87 579.253 472.703C581.668 483.319 583.302 491.497 585.993 502.039C588.22 510.757 623.397 503.734 623.397 503.734L636.005 460.821C636.005 460.821 638.177 449.621 627.988 445.892C627.988 445.892 617.254 440.122 609.395 437.471C602.455 435.127 599.942 434.907 592.82 435.343C592.826 435.343 583.279 435.708 578.277 437.116Z" fill="#F7A483"/>
<path d="M587.683 428.683L586.891 425.988L584.883 416.033C584.654 414.657 584.707 413.248 585.039 411.894C585.375 410.543 585.632 409.118 585.384 407.645C584.183 400.504 587.997 396.789 587.997 396.789C592.36 390.465 601.948 390.973 601.948 390.973C613.769 392.175 614.19 403.913 614.19 403.913C615.728 411.784 609.342 417.946 609.33 417.959C608.819 418.45 608.943 421.022 608.759 421.742C607.982 424.812 604.976 426.57 602.329 427.752C599.421 429.045 595.918 430.408 592.731 430.541C591.52 430.583 588.137 430.227 587.683 428.683Z" fill="#F8A07D"/>
<path d="M604.653 404.085C600.992 399.625 593.947 403.654 589.402 400.904C587.285 399.625 587.314 397.315 584.548 397.315C578.65 397.315 579.338 390.982 582.621 389.139C583.286 389.107 583.952 389.135 584.611 389.224C586.249 389.413 587.311 390.121 588.959 389.531C590.686 388.911 592.164 387.749 593.793 386.92C595.9 385.867 598.053 384.483 600.452 384.372C603.43 384.235 604.384 386.398 606.576 387.821C608.058 388.774 609.853 388.656 611.492 389.237C613.907 390.105 616.05 391.589 618.249 392.878C619.789 393.778 621.887 394.982 621.67 397.057C621.464 399.015 619.455 399.475 620.068 401.625C621.13 405.321 620.366 409.129 619.042 412.665C618.236 414.815 617.42 417.001 616.171 418.949C614.923 420.897 613.222 422.613 611.446 424.169C610.83 424.701 608.887 426.1 608.097 427.246C607.982 422.401 608.962 422.799 607.687 420.394C607.189 419.458 607.736 418.668 608.087 417.742C608.438 416.815 609.25 416.042 609.129 415.031C608.497 415.233 607.897 415.318 607.556 415.031C606.953 414.528 607.445 412.848 607.343 412.189C606.999 409.964 606.688 407.533 605.597 405.524C605.331 405.014 605.014 404.532 604.653 404.085Z" fill="#3C2415"/>
<path d="M607.452 420.497C607.895 420.962 608.473 421.243 609.085 421.289C610.98 421.513 612.763 419.775 613.066 417.413C613.369 415.05 612.083 412.965 610.195 412.748C609.751 412.703 609.304 412.756 608.879 412.905C608.454 413.054 608.061 413.295 607.723 413.614C606.699 414.535 606.447 416.456 606.527 417.819C606.581 418.899 606.859 419.859 607.452 420.497Z" fill="#F8A07D"/>
<path d="M609.181 415.289C609.468 414.314 611.949 415.498 611.461 416.015C611.128 416.296 610.73 416.527 610.286 416.697C610.035 416.799 609.817 416.942 609.648 417.115C609.479 417.288 609.362 417.488 609.306 417.7C609.288 417.758 609.247 417.928 609.306 417.978C609.618 418.187 610.888 417.326 611.164 417.143C611.422 416.942 611.61 416.695 611.71 416.424C611.809 416.154 611.817 415.868 611.733 415.595C611.691 415.351 611.533 415.128 611.288 414.967C611.042 414.806 610.728 414.72 610.404 414.724C609.813 414.696 609.203 414.671 609.152 415.23C609.152 415.244 609.152 415.339 609.174 415.289H609.181Z" fill="#E98B6F"/>
<path d="M609.956 416.191C609.733 415.886 609.462 416.08 609.178 416.244C608.927 416.399 608.74 416.645 608.653 416.935C608.419 417.635 608.441 418.4 608.715 419.084C608.829 419.332 609.003 419.545 609.219 419.702C609.436 419.86 609.687 419.956 609.949 419.983C610.69 420.055 610.978 419.399 611.095 418.747C611.122 418.576 611.184 418.16 611.033 418.031C610.882 417.902 610.69 418.167 610.577 418.275C610.382 418.405 610.152 418.464 609.922 418.443C609.714 418.426 609.512 418.358 609.334 418.244C609.155 418.131 609.004 417.976 608.893 417.791C608.854 417.726 608.824 417.655 608.804 417.58C608.756 418.006 608.766 418.103 608.838 417.874C608.882 417.771 608.94 417.676 609.01 417.591C609.215 417.315 609.531 417.15 609.754 416.875C609.86 416.753 610.097 416.316 609.97 416.158L609.956 416.191Z" fill="#E98B6F"/>
<path d="M590.874 415.394L594.639 416.666C594.639 416.666 589.558 416.942 589.362 415.653C589.362 415.653 590.132 413.137 590.966 410.754C590.966 410.767 590.314 415.206 590.874 415.394Z" fill="#E98B6F"/>
<path d="M596.618 410.756C596.618 411.482 596.913 412.073 597.279 412.073C597.644 412.073 597.937 411.482 597.937 410.756C597.937 410.029 597.642 409.435 597.279 409.435C596.916 409.435 596.618 410.012 596.618 410.756Z" fill="#3C2415"/>
<path d="M587.382 409.765C587.382 410.313 587.677 410.753 588.042 410.753C588.407 410.753 588.702 410.313 588.702 409.765C588.702 409.218 588.407 408.774 588.042 408.774C587.677 408.774 587.382 409.218 587.382 409.765Z" fill="#3C2415"/>
<path d="M595.713 408.35C595.411 408.418 595.338 407.988 595.335 407.988C595.28 407.733 595.288 407.467 595.357 407.216C595.426 407.043 595.555 406.904 595.716 406.827C596.496 406.711 598.008 406.918 599.288 407.324C599.998 407.548 601.15 408.11 601.223 408.804C601.245 409.014 601.264 409.373 601.042 409.434C599.301 408.898 597.517 408.535 595.713 408.35Z" fill="#3C2415"/>
<path d="M584.859 406.969C586.363 406.998 587.862 407.15 589.34 407.422C589.635 407.567 589.83 407.187 589.83 407.187C589.958 406.963 590.024 406.71 590.021 406.454C589.997 406.272 589.903 406.106 589.758 405.988C588.698 405.6 587.567 405.43 586.436 405.486C585.872 405.489 585.311 405.563 584.767 405.704C584.767 405.704 584.674 405.952 584.859 406.969Z" fill="#3C2415"/>
<path d="M589.059 419.33C588.785 419.33 588.637 419.445 588.729 419.633C588.729 419.633 589.937 421.714 592.05 421.947C594.162 422.181 595.888 420.433 595.888 420.433C596.057 420.263 595.911 420.093 595.558 420.051C595.578 420.027 591.931 419.612 589.059 419.33Z" fill="white"/>
<path d="M629.581 526.471C629.581 526.471 637.049 538.552 629.581 552.085C622.113 565.617 599.321 560.693 599.257 543.149C599.192 525.829 614.917 519.202 629.581 526.471Z" fill="#152035"/>
<path d="M592.818 435.162C592.818 435.162 583.272 435.516 578.276 436.943C573.936 440.115 573.44 447.701 574.99 452.439C576.766 457.878 577.473 464.822 579.252 472.69C581.667 483.354 581.453 491.654 584.14 502.247C586.367 511.004 627.577 503.22 627.577 503.22L636.005 460.758C636.005 460.758 638.177 449.507 627.988 445.761C627.988 445.761 617.742 440.134 609.885 437.471C609.885 437.471 611.11 445.761 597.602 443.471C597.596 443.468 589.343 441.477 592.818 435.162Z" fill="#3DC0C6"/>
<path d="M627.533 502.749C629.502 509.739 633.56 531.844 633.56 531.844C628.225 553.903 579.117 538.031 578.826 534.863C578.48 531.077 582.749 514.463 583.521 498.859C583.518 498.859 598.91 491.543 627.533 502.749Z" fill="#3DC0C6"/>
<path d="M617.798 464.072C622.58 469.468 639.628 494.23 644.661 498.21C645.997 499.267 657.44 504.076 657.308 495.271C643.192 464.03 632.857 449.807 632.857 449.807C632.857 449.807 621.588 444.68 616.205 453.697C616.205 453.697 614.459 460.339 617.798 464.072Z" fill="#F7A483"/>
<path d="M613.93 456.002C613.551 458.254 613.847 460.567 614.782 462.65C615.718 464.733 617.249 466.492 619.184 467.704C621.119 468.916 623.37 469.528 625.652 469.461C627.935 469.394 630.146 468.652 632.006 467.328C633.867 466.004 635.293 464.159 636.105 462.025C636.916 459.891 637.077 457.564 636.566 455.338C636.055 453.113 634.895 451.089 633.234 449.523C631.573 447.956 629.485 446.918 627.233 446.538C625.738 446.286 624.208 446.33 622.73 446.669C621.253 447.008 619.856 447.635 618.621 448.514C617.385 449.393 616.335 450.507 615.53 451.792C614.726 453.076 614.182 454.507 613.93 456.002Z" fill="#F7A483"/>
<path d="M624.05 443.738C624.05 443.738 633.366 447.483 637.624 454.662L648.733 472.409C648.733 472.409 644.187 485.821 632.877 488.597L615.113 466.293C615.113 466.293 605.05 453.22 624.05 443.738Z" fill="#3DC0C6"/>
<path d="M643.216 494.945C643.216 494.945 634.105 509.813 623.665 532.653C623.665 532.653 623.624 537.093 626.941 535.884C630.259 534.675 655.785 502.74 655.976 499.346C656.47 490.62 643.216 494.945 643.216 494.945Z" fill="#F7A483"/>
<path d="M620.913 544.454C625.587 540.211 625.835 539.166 626.446 537.56C629.091 530.703 620.827 532.967 618.867 533.965C617.737 534.54 618.378 537.405 615.532 541.817C615.532 541.817 610.54 546.675 609.04 546.797C609.04 546.797 607.595 547.382 607.866 548.466C607.856 548.466 612.567 549.86 620.913 544.454Z" fill="#F7A483"/>
<path d="M618.243 534.113C618.243 534.113 621.283 534.958 618.602 537.7L614.277 539.2C614.277 539.2 613.145 539.809 612.477 538.851C612.477 538.851 612.21 538.13 613.364 537.494L618.243 534.113Z" fill="#F7A483"/>
<path d="M526.416 522.614C526.416 521.665 525.913 520.8 524.876 520.102C524.71 519.99 524.536 519.887 524.357 519.796L524.182 519.712C524.053 519.647 523.921 519.589 523.782 519.531L523.685 519.489L523.595 519.457C523.375 519.373 523.152 519.295 522.92 519.228H522.901C522.668 519.16 522.426 519.098 522.177 519.044L522.097 519.021L522.006 519.008C521.712 518.947 521.415 518.889 521.112 518.837H521.089C521.064 518.835 521.038 518.835 521.012 518.837C520.689 518.785 520.386 518.74 520.066 518.695H519.963L518.952 518.572H518.891L518.067 518.475L517.099 518.362L516.925 518.34C516.602 518.298 516.301 518.253 515.998 518.204C515.84 518.178 515.675 518.152 515.523 518.12C515.203 518.062 514.88 517.998 514.555 517.926L514.381 517.891L513.686 517.723H513.667L512.976 517.533L512.757 517.468L512.288 517.32C512.214 517.294 512.137 517.271 512.062 517.242C511.904 517.187 511.74 517.132 511.594 517.074L511.417 517.006C511.219 516.929 511.028 516.848 510.845 516.764C509.946 516.292 509.093 515.735 508.298 515.102L508.482 536.351C509.279 536.983 510.133 537.538 511.033 538.011C511.217 538.098 511.407 538.175 511.604 538.253L511.646 538.272L511.778 538.321C511.933 538.379 512.101 538.437 512.253 538.492L512.472 538.566C512.631 538.621 512.795 538.669 512.954 538.718L513.089 538.76L513.157 538.779C513.386 538.847 513.619 538.912 513.854 538.97C514.09 539.031 514.329 539.089 514.568 539.141H514.636L514.732 539.16C515.055 539.231 515.378 539.299 515.701 539.357L516.098 539.428H516.176C516.479 539.477 516.786 539.522 517.099 539.564L517.283 539.586L518.229 539.699L518.855 539.767L519.107 539.799C519.449 539.838 519.791 539.877 520.134 539.922H520.211C520.534 539.964 520.857 540.012 521.18 540.064H521.28C521.583 540.116 521.88 540.174 522.171 540.235L522.358 540.277C522.607 540.335 522.852 540.397 523.088 540.464C523.323 540.532 523.553 540.613 523.775 540.697L523.963 540.771C524.102 540.826 524.234 540.891 524.366 540.952L524.537 541.036C524.718 541.133 524.892 541.233 525.057 541.339C526.09 542.04 526.587 542.905 526.594 543.858L526.416 522.614Z" fill="#394472"/>
<path d="M495.629 569.404L495.849 569.356L496.146 569.291L496.391 569.249L496.598 569.214L496.753 587.019L526.239 606.913L526.051 585.666L501.628 569.185C501.986 569.227 502.345 569.278 502.706 569.336L502.955 569.382C503.09 569.404 503.223 569.427 503.358 569.456L503.649 569.511L504.04 569.591L504.311 569.653L504.956 569.805L505.131 569.85C505.392 569.918 505.654 569.989 505.915 570.066L506.067 570.111C506.425 570.218 506.787 570.331 507.145 570.453L507.197 570.473C507.555 570.596 507.91 570.728 508.266 570.863L508.35 570.896C508.756 571.057 509.157 571.219 509.554 571.403L509.612 571.432C510.012 571.612 510.409 571.803 510.8 572.003L510.839 572.026C511.233 572.229 511.62 572.445 512.001 572.671H512.02C512.404 572.901 512.782 573.136 513.147 573.382C516.401 575.58 518.112 578.047 518.132 580.162C518.069 573.08 518.007 565.998 517.945 558.915C517.925 556.816 516.214 554.35 512.96 552.154C512.595 551.906 512.217 551.667 511.833 551.441H511.814C511.433 551.218 511.045 551.005 510.651 550.795L510.609 550.776C510.222 550.576 509.828 550.382 509.425 550.201L509.366 550.175C508.969 549.998 508.569 549.827 508.162 549.669H508.14L508.078 549.646C507.723 549.507 507.365 549.375 507.003 549.252L506.961 549.236C506.6 549.113 506.235 548.997 505.873 548.89L505.789 548.865H505.734C505.47 548.787 505.205 548.713 504.94 548.645L504.779 548.603L504.133 548.448C504.091 548.448 504.052 548.429 504.01 548.419L503.878 548.393L503.471 548.309L503.19 548.251L502.784 548.177L502.587 548.141H502.535C502.17 548.083 501.805 548.032 501.447 547.986H501.36H501.299C500.976 547.951 500.653 547.922 500.359 547.903H500.285H500.181C499.607 547.867 499.042 547.854 498.493 547.867H498.393H498.309C498.044 547.867 497.779 547.886 497.521 547.909H497.473C497.205 547.932 496.94 547.964 496.682 547.999H496.595H496.537L496.214 548.054C496.139 548.054 496.062 548.077 495.988 548.093C495.913 548.109 495.771 548.138 495.665 548.161C495.61 548.177 495.549 548.183 495.494 548.2H495.471C495.242 548.254 495.016 548.319 494.8 548.387L494.651 548.435C494.435 548.506 494.218 548.584 494.005 548.671C493.792 548.758 493.683 548.819 493.544 548.897L493.418 548.968C493.366 548.997 493.311 549.023 493.263 549.055L493.14 549.133L492.985 549.233C492.904 549.288 492.827 549.346 492.756 549.401L492.624 549.501L492.578 549.536C492.491 549.607 492.411 549.681 492.333 549.756L492.304 549.785C492.239 549.846 492.178 549.911 492.12 549.972L492.072 550.027L491.991 550.124C491.936 550.192 491.881 550.256 491.833 550.324L491.762 550.418L491.723 550.469C491.7 550.501 491.681 550.537 491.655 550.572L491.529 550.769L491.442 550.924C491.406 550.986 491.368 551.05 491.335 551.118C491.322 551.139 491.31 551.16 491.3 551.183C491.287 551.208 491.275 551.234 491.264 551.26C491.206 551.374 491.151 551.487 491.1 551.599L491.067 551.677C490.996 551.828 490.932 551.999 490.867 552.135L490.716 552.484C490.696 552.529 490.677 552.574 490.654 552.619C490.593 552.758 490.528 552.897 490.457 553.036C490.422 553.107 490.38 553.178 490.341 553.252L490.286 553.355C490.224 553.459 490.159 553.566 490.092 553.678L489.954 553.872C489.889 553.962 489.818 554.059 489.744 554.153L489.65 554.272C489.55 554.395 489.447 554.511 489.327 554.631L489.301 554.663C489.188 554.786 489.066 554.908 488.94 555.031L488.827 555.134C488.733 555.222 488.64 555.309 488.54 555.389L488.391 555.512C488.294 555.593 488.191 555.67 488.088 555.748C488.039 555.786 487.994 555.822 487.942 555.858C487.787 555.967 487.619 556.074 487.464 556.18L487.41 556.209H487.387L487.319 556.245L487.284 556.268L487.203 556.306L487.148 556.335L487.061 556.377L486.983 556.416L486.896 556.458L486.796 556.506L486.699 556.552L486.59 556.607L486.438 556.674L486.364 556.71L486.121 556.82C485.566 557.068 484.914 557.336 484.307 557.54L454.789 537.623L454.976 558.87L484.494 578.789C485.101 578.583 485.753 578.315 486.309 578.066C486.47 577.995 486.632 577.924 486.764 577.856L486.954 577.766L487.09 577.701L487.145 577.676L487.242 577.627L487.306 577.595C487.33 577.579 487.355 577.566 487.381 577.556L487.442 577.524L487.494 577.495L487.548 577.466H487.584L487.616 577.446C487.781 577.343 487.939 577.233 488.094 577.124C488.142 577.088 488.188 577.056 488.233 577.017C488.339 576.939 488.446 576.859 488.556 576.778L488.63 576.72L488.701 576.659L488.985 576.404L489.101 576.294C489.227 576.174 489.347 576.052 489.463 575.929L489.489 575.903C489.595 575.784 489.695 575.664 489.792 575.548L489.889 575.425C489.963 575.332 490.031 575.238 490.099 575.148L490.154 575.07L490.238 574.951C490.306 574.847 490.37 574.744 490.431 574.628C490.454 574.592 490.473 574.55 490.493 574.515C490.512 574.479 490.564 574.389 490.596 574.324C490.664 574.182 490.732 574.044 490.796 573.901C490.796 573.86 490.832 573.818 490.851 573.772C490.903 573.656 490.954 573.54 491.003 573.424C491.051 573.307 491.135 573.101 491.206 572.959L491.235 572.894C491.29 572.775 491.345 572.659 491.403 572.542L491.471 572.407L491.581 572.207L491.668 572.058L491.794 571.858C491.829 571.806 491.862 571.755 491.9 571.703C491.922 571.67 491.946 571.639 491.971 571.609C492.02 571.545 492.072 571.477 492.126 571.412L492.21 571.315C492.285 571.235 492.359 571.154 492.44 571.073L492.472 571.044C492.565 570.952 492.663 570.866 492.766 570.786L492.892 570.689C492.966 570.631 493.043 570.576 493.124 570.521C493.205 570.466 493.224 570.453 493.276 570.421C493.327 570.389 493.46 570.308 493.557 570.253L493.683 570.182C493.828 570.105 493.98 570.031 494.144 569.956C494.309 569.882 494.561 569.795 494.79 569.721L494.938 569.672C495.177 569.524 495.4 569.459 495.629 569.404Z" fill="#424888"/>
<path d="M617.404 547.225L617.592 568.471L526.239 606.913L526.051 585.666L617.404 547.225Z" fill="#5860AB"/>
<path d="M454.786 537.578L492.559 521.674C493.619 522.325 494.61 523.082 495.516 523.934C497.282 526.259 495.006 529.423 497.967 531.434C501.618 533.894 510.593 533.355 518.019 530.23L518.632 529.965C525.609 526.856 528.408 522.507 524.86 520.118C522.6 518.588 518.687 518.685 515.497 518.094C513.893 517.826 512.326 517.37 510.829 516.735C509.929 516.262 509.076 515.706 508.282 515.072L546.12 499.152L617.385 547.257L526.019 585.695L496.533 565.801C496.65 565.743 496.772 565.688 496.901 565.63C498.17 565.081 499.469 564.604 500.792 564.203C505.189 563.234 511.123 564.413 514.936 562.812C519.591 560.739 518.639 556.032 512.911 552.158C507.12 548.248 498.632 546.669 493.957 548.642C491.051 549.933 491.168 551.967 490.044 553.636C489.368 554.641 488.488 555.493 487.461 556.135C487.322 556.219 486.79 556.487 486.118 556.781C485.563 557.029 484.911 557.297 484.304 557.501L454.786 537.578Z" fill="#6174B8"/>
<path d="M366.117 606.412C366.117 605.443 365.613 604.594 364.58 603.897C364.415 603.787 364.257 603.687 364.06 603.59L363.886 603.506C363.757 603.445 363.624 603.383 363.489 603.329L363.389 603.283L363.295 603.251C363.079 603.167 362.856 603.09 362.627 603.022H362.604C362.372 602.954 362.126 602.893 361.881 602.838L361.794 602.815L361.684 602.796C361.397 602.731 361.106 602.676 360.806 602.625H360.78H360.683C360.386 602.576 360.083 602.534 359.779 602.492L359.656 602.476C359.334 602.434 359.011 602.395 358.665 602.36H358.61L358.384 602.334L357.716 602.26L356.786 602.147L356.599 602.124C356.292 602.082 355.989 602.037 355.692 601.989L355.217 601.911C354.894 601.85 354.572 601.782 354.249 601.714L354.071 601.672C353.839 601.624 353.609 601.569 353.38 601.511H353.358C353.125 601.453 352.896 601.388 352.67 601.32L352.46 601.259C352.302 601.211 352.137 601.162 351.992 601.111L351.763 601.036C351.608 600.981 351.44 600.927 351.308 600.868L351.12 600.797C350.923 600.72 350.73 600.639 350.546 600.555C349.645 600.083 348.791 599.526 347.995 598.893L348.182 620.139C348.978 620.773 349.832 621.329 350.733 621.802C350.917 621.886 351.111 621.967 351.311 622.047L351.353 622.067L351.482 622.112C351.637 622.17 351.805 622.228 351.953 622.283L352.176 622.357C352.328 622.409 352.499 622.457 352.644 622.506L352.786 622.551L352.86 622.57C353.083 622.635 353.312 622.699 353.542 622.757H353.571C353.797 622.816 354.026 622.87 354.252 622.922L354.329 622.938L354.442 622.961C354.763 623.032 355.086 623.096 355.411 623.155L355.805 623.226H355.889C356.186 623.274 356.486 623.316 356.789 623.355L356.99 623.384L357.887 623.494H357.916L358.562 623.568L358.885 623.603C359.208 623.642 359.53 623.678 359.853 623.723L359.97 623.739C360.276 623.778 360.577 623.82 360.877 623.868C360.916 623.868 360.957 623.868 360.999 623.887C361.3 623.939 361.593 623.997 361.881 624.059L362.071 624.101C362.32 624.155 362.562 624.217 362.798 624.288C363.033 624.356 363.256 624.433 363.476 624.52L363.669 624.595C363.805 624.653 363.937 624.711 364.066 624.775C364.125 624.801 364.186 624.827 364.241 624.856C364.422 624.953 364.596 625.053 364.761 625.163C365.794 625.86 366.291 626.725 366.297 627.678L366.117 606.412Z" fill="#004E89"/>
<path d="M449.101 626.434C449.101 626.396 449.101 626.354 449.127 626.312C449.153 626.27 449.127 626.241 449.15 626.205C449.172 626.17 449.15 626.176 449.15 626.166L449.169 625.998C449.169 625.953 449.169 625.914 449.169 625.872C449.169 625.831 449.169 625.753 449.169 625.692C449.169 625.63 449.169 625.627 449.169 625.592V625.55L448.982 604.3C448.982 604.348 448.982 604.397 448.982 604.445C448.982 604.493 448.982 604.565 448.982 604.623C448.982 604.681 448.982 604.71 448.982 604.749C448.982 604.787 448.982 604.862 448.963 604.916L448.934 605.065C448.934 605.107 448.917 605.146 448.908 605.188C448.898 605.23 448.882 605.288 448.866 605.339C448.85 605.391 448.846 605.417 448.833 605.452C448.821 605.488 448.833 605.494 448.811 605.514C448.76 605.661 448.7 605.804 448.63 605.943C448.56 606.077 448.481 606.207 448.394 606.331L448.352 606.395C448.265 606.515 448.168 606.634 448.065 606.75L447.975 606.847L447.875 606.947L447.752 607.06L447.642 607.16L447.532 607.251L447.329 607.406L447.219 607.483L446.974 607.641L446.88 607.699C446.803 607.745 446.725 607.79 446.645 607.829L446.538 607.89C446.422 607.948 446.302 608.006 446.176 608.061C445.934 608.164 445.682 608.255 445.427 608.339C445.34 608.364 445.25 608.384 445.163 608.413C444.988 608.461 444.814 608.513 444.63 608.558L444.488 608.587C444.285 608.636 444.078 608.674 443.868 608.71L443.613 608.752C443.419 608.784 443.222 608.813 443.022 608.839L442.825 608.862C442.567 608.894 442.302 608.92 442.038 608.939L441.537 608.971L441.111 608.997L440.594 609.02H440.175C439.852 609.02 439.51 609.02 439.174 609.039H439.148H437.963H437.211H436.84H436.194H436.029C435.936 609.039 435.845 609.039 435.752 609.039L435.267 609.059L434.815 609.084L434.351 609.113H434.192C434.018 609.113 433.847 609.143 433.676 609.162H433.572C433.346 609.184 433.127 609.21 432.907 609.243H432.833C432.51 609.291 432.187 609.346 431.865 609.414H431.836H431.806H431.761H431.693L431.639 609.433L431.551 609.459L431.484 609.481L431.371 609.517L431.3 609.54L431.167 609.582L431.087 609.611L430.938 609.659L430.851 609.688L430.689 609.743L430.596 609.775L430.431 609.833L430.325 609.872L430.166 609.927L430.037 609.975L429.882 610.034L429.743 610.082C429.692 610.101 429.64 610.124 429.585 610.14L429.446 610.195L429.285 610.256L429.146 610.311L428.988 610.373L428.846 610.427L428.688 610.492L428.549 610.55L428.381 610.618L428.262 610.67L427.987 610.792C427.852 610.85 427.726 610.909 427.606 610.967L427.793 632.213L428.171 632.036L428.449 631.916L428.542 631.877L428.736 631.797L428.849 631.752L429.033 631.677L429.159 631.626L429.333 631.558L429.466 631.506L429.634 631.442L429.769 631.39L429.931 631.329L430.066 631.28L430.224 631.222L430.354 631.177L430.505 631.122L430.644 631.074L430.773 631.028L430.909 630.98L431.028 630.938L431.148 630.896L431.267 630.861L431.371 630.822L431.48 630.789C431.511 630.777 431.542 630.767 431.574 630.76L431.664 630.728L431.748 630.706C431.772 630.695 431.797 630.687 431.823 630.683L431.887 630.664C431.907 630.656 431.928 630.649 431.949 630.644H431.994H432.052C432.375 630.573 432.698 630.518 433.02 630.47C433.263 630.434 433.508 630.399 433.753 630.373H433.879L434.525 630.312L434.987 630.283L435.442 630.26L435.916 630.241H436.372H436.991H437.382H438.128H439.096H439.342C439.665 630.241 439.987 630.241 440.33 630.218H440.378H440.785L441.272 630.199L441.711 630.17L442.196 630.141H442.251C442.499 630.121 442.745 630.095 442.99 630.07L443.174 630.047C443.297 630.028 443.423 630.015 443.542 629.998C443.623 629.998 443.697 629.973 443.778 629.96L444.026 629.918C444.236 629.882 444.443 629.837 444.646 629.792L444.795 629.763H444.837C445.004 629.721 445.159 629.672 445.331 629.624L445.586 629.553C445.844 629.469 446.092 629.379 446.335 629.279L446.699 629.104L446.819 629.04L447.038 628.917L447.064 628.901L447.142 628.852L447.377 628.701L447.49 628.62C447.558 628.568 447.626 628.52 447.691 628.465L447.755 628.417L447.804 628.375C447.839 628.342 447.875 628.31 447.913 628.281C447.952 628.252 447.997 628.203 448.036 628.162L448.136 628.061L448.201 627.997L448.227 627.965C448.329 627.85 448.425 627.731 448.514 627.606L448.533 627.584C448.539 627.571 448.546 627.559 448.556 627.548C448.641 627.422 448.72 627.292 448.791 627.157C448.861 627.022 448.921 626.882 448.969 626.738C448.976 626.725 448.981 626.712 448.985 626.699V626.67C448.985 626.634 449.008 626.596 449.018 626.557C449.027 626.518 449.089 626.489 449.101 626.434Z" fill="#004E89"/>
<path d="M457.108 631.019L457.295 652.268L365.939 690.71L365.752 669.46L457.108 631.019Z" fill="#0061A2"/>
<path d="M365.752 669.461L365.939 690.711L294.673 642.62L294.486 621.373L365.752 669.461Z" fill="#004E89"/>
<path d="M294.483 621.372L332.279 605.472C333.337 606.116 334.327 606.867 335.233 607.712C336.999 610.04 334.719 613.201 337.683 615.212C341.331 617.672 350.31 617.149 357.735 614.011L358.352 613.743C365.329 610.634 368.121 606.289 364.576 603.896C362.316 602.366 358.4 602.463 355.214 601.879C353.61 601.608 352.043 601.151 350.545 600.516C349.645 600.044 348.791 599.487 347.995 598.854L385.849 582.931L415.367 602.85C415.977 602.644 416.632 602.373 417.191 602.124C417.859 601.827 418.385 601.562 418.521 601.478C419.561 600.84 420.454 599.989 421.139 598.979C422.263 597.31 422.153 595.273 424.91 594.043C429.727 592.016 438.215 593.588 444.01 597.498C449.737 601.372 450.686 606.066 446.186 608.071C442.231 609.74 436.287 608.562 431.89 609.53C430.572 609.928 429.278 610.403 428.016 610.954C427.88 611.012 427.755 611.07 427.635 611.128L457.118 631.022L365.752 669.464L294.483 621.372Z" fill="#196EAB"/>
<path d="M331.469 607.734C330.59 606.449 331.361 605.778 329.579 605.722C327.549 605.655 325.729 604.663 324.352 604.701C321.956 604.767 312.894 606.855 318.976 611.982C320.391 613.179 324.438 618.53 327.243 616.942C331.387 614.596 329.978 615.462 332.085 610.37L331.469 607.734Z" fill="#F7A483"/>
<path d="M374.665 840.602C374.665 840.602 380.206 839.567 378.645 844.193C378.645 844.193 365.722 849.877 356.676 848.594C356.676 848.594 350.327 848.376 351.322 841.319L351.216 835.589L359.732 837.242L359.247 842.685L374.665 840.602Z" fill="#E59375"/>
<path d="M351.403 841.538C351.384 842.417 351.679 843.273 352.234 843.944C354.415 846.534 358.699 846.596 361.714 846.398C366.565 846.062 371.386 845.371 376.142 844.332C377.175 844.109 377.459 843.762 377.472 843.451C377.196 842.765 376.753 842.163 376.185 841.703C375.616 841.243 374.942 840.941 374.227 840.825L378.837 840.223C383.093 840.068 385.027 841.068 386.019 841.726C387.198 845.177 381.469 847.467 381.469 847.467C377.093 849.089 372.604 850.373 368.04 851.307C368.04 851.307 351.852 855.222 349.896 850.115L351.403 841.538Z" fill="#4F1531"/>
<path d="M341.68 832.684C341.68 832.684 347.221 831.649 345.661 836.273C345.661 836.273 332.736 841.959 323.689 840.679C323.689 840.679 317.339 840.46 318.338 833.402L318.231 827.673L326.745 829.327L326.27 834.775L341.68 832.684Z" fill="#E59375"/>
<path d="M318.431 833.617C318.408 834.496 318.703 835.352 319.259 836.021C321.439 838.609 325.723 838.674 328.737 838.476C333.586 838.139 338.406 837.448 343.159 836.409C344.192 836.186 344.48 835.84 344.492 835.529C344.216 834.844 343.773 834.242 343.204 833.783C342.635 833.324 341.96 833.023 341.244 832.909L345.857 832.307C350.113 832.152 352.043 833.148 353.035 833.808C354.213 837.254 348.479 839.554 348.479 839.554C344.103 841.175 339.615 842.458 335.052 843.394C335.052 843.394 318.867 847.302 316.912 842.203L318.431 833.617Z" fill="#4F1531"/>
<path d="M342.64 683.536C342.639 686.602 341.73 689.599 340.026 692.148C338.322 694.697 335.9 696.683 333.068 697.856C330.235 699.029 327.118 699.336 324.111 698.737C321.104 698.139 318.342 696.662 316.174 694.494C314.006 692.325 312.53 689.563 311.932 686.556C311.335 683.549 311.642 680.432 312.815 677.6C313.989 674.767 315.976 672.346 318.525 670.643C321.074 668.939 324.071 668.03 327.137 668.03C329.173 668.03 331.19 668.431 333.071 669.211C334.952 669.99 336.661 671.132 338.1 672.572C339.54 674.012 340.682 675.721 341.461 677.602C342.24 679.484 342.64 681.5 342.64 683.536Z" fill="#00468B"/>
<path d="M317.354 759.97C317.354 759.97 317.569 763.972 324.549 764.07C324.549 764.07 331.159 766.388 334.013 757.535C345.255 722.665 342.285 686.277 342.285 686.277C342.285 686.277 326.41 677.174 311.635 683.403C311.625 683.39 314.014 729.171 317.354 759.97Z" fill="#00468B"/>
<path d="M334.064 757.087C334.064 757.087 328.543 832.06 328.027 834.738C322.641 838.192 317.886 834.644 317.886 834.644C317.914 830.966 313.943 800.308 313.533 794.538C312.829 784.644 311.65 772.14 317.844 757.921L334.064 757.087Z" fill="#00468B"/>
<path d="M362.999 762.184C362.999 762.184 364.523 765.886 371.288 763.596C371.288 763.596 378.421 763.53 378.26 754.199C377.614 717.434 361.639 679.345 361.639 679.345C361.639 679.345 343.634 677.611 331.425 688.53C331.425 688.53 349.647 734.239 362.999 762.184Z" fill="#0058A9"/>
<path d="M361.536 678.396C362.574 681.289 362.712 684.419 361.933 687.389C361.154 690.358 359.493 693.035 357.161 695.081C354.828 697.127 351.928 698.449 348.828 698.881C345.728 699.313 342.566 698.835 339.744 697.507C336.921 696.18 334.564 694.063 332.97 691.423C331.376 688.784 330.617 685.741 330.79 682.679C330.962 679.618 332.058 676.675 333.938 674.223C335.819 671.772 338.399 669.921 341.354 668.905C345.316 667.544 349.668 667.779 353.452 669.558C357.237 671.338 360.145 674.517 361.536 678.396Z" fill="#0058A9"/>
<path d="M311.635 681.213C313.527 663.588 322.265 655.407 322.265 655.407L352.55 651.538C352.55 651.538 360.897 666.235 361.771 681.213C358.153 691.205 345.25 694.114 345.25 694.114L335.456 697.056C335.456 697.056 313.248 693.645 311.635 681.213Z" fill="#0058A9"/>
<path d="M376.335 761.475C376.335 761.475 361.262 839.795 360.356 842.339C360.751 842.146 353.227 845.796 349.896 841.084C350.462 837.473 350.78 797.69 351.221 791.969C351.977 782.13 351.864 772.951 360.111 759.886C360.111 759.899 380.702 745.156 376.335 761.475Z" fill="#0058A9"/>
<path d="M309.435 623.831C309.435 623.831 315.028 630.414 326.148 646.313L324.226 649.559C324.226 649.559 305.177 639.964 299.101 629.19L309.435 623.831Z" fill="#E59375"/>
<path d="M324.6 599.735C324.6 599.735 310.443 630.922 301.94 629.735C301.94 629.735 299.005 629.922 298.415 627.69C298.415 627.69 292.409 622.313 317.379 583.537C317.379 583.537 319.818 580.241 324.818 581.091C324.821 581.088 332.404 586.151 324.6 599.735Z" fill="#E59375"/>
<path d="M347.917 575.675H332.085V592.167H347.917V575.675Z" fill="#F4B78E"/>
<path d="M357.371 576.072L357.948 573.437L359.102 563.791C359.211 562.459 359.016 561.119 358.532 559.874C358.041 558.618 357.629 557.278 357.748 555.866C358.322 548.967 353.921 545.78 353.921 545.78C348.665 540.168 338.54 541.512 338.537 541.512C333.304 542.512 328.819 544.741 326.462 549.268C324.327 553.371 323.334 558.294 325.02 562.668C326.871 567.465 330.099 571.106 334.274 574.368C336.947 576.448 339.556 576.588 342.945 577.526C345.302 578.175 349.751 578.399 352.205 578.285C353.485 578.233 357.039 577.584 357.371 576.072Z" fill="#F7A483"/>
<path d="M350.457 567.356C349.706 566.276 346.963 565.606 346.96 565.606C343.644 565.606 344.082 570.084 343.763 572.022C343.66 572.669 343.542 573.316 343.398 573.963C341.819 579.655 337.094 579.606 333.053 580.292C332.906 580.205 332.733 580.114 332.58 580.023C331.851 577.5 329.523 574.879 329.523 574.879C323.449 569.569 321.477 560.031 323.788 552.521C324.587 550.137 325.877 547.953 327.573 546.111C330.965 542.436 335.387 540.469 340.112 539.569C344.837 538.67 361.611 540.98 357.027 551.308C357.027 551.308 350.112 559.397 350.454 567.369" fill="#340E08"/>
<path d="M350.556 566.844C349.92 565.276 348.347 564.069 346.58 564.578C345.966 564.741 345.433 565.112 345.077 565.624C344.72 566.136 344.564 566.756 344.636 567.371C344.663 567.655 344.727 567.933 344.755 568.214C345.264 571.225 348.53 572.376 348.53 572.376" fill="#F8B78F"/>
<path d="M346.604 566.65C346.85 566.522 347.124 566.45 347.403 566.441C348.607 566.367 349.578 568.156 348.371 568.475C348.25 568.599 348.182 568.763 348.182 568.933C348.182 569.103 348.25 569.267 348.371 569.391C348.786 569.824 349.343 570.446 349.219 571.056C349.139 571.419 348.724 571.612 348.344 571.702C348.043 571.775 347.998 571.545 348.223 571.439C348.401 571.351 348.558 571.227 348.683 571.076C348.683 571.052 348.707 571.036 348.717 571.013C348.73 571 348.74 570.983 348.745 570.966C348.779 570.881 348.779 570.787 348.745 570.703C348.612 570.805 348.448 570.861 348.278 570.861C348.108 570.861 347.944 570.805 347.811 570.703C347.583 570.436 347.756 570.037 347.68 569.704C347.617 569.492 347.522 569.29 347.4 569.105C346.85 568.219 347.842 568.069 347.842 568.069C347.965 568.069 348.088 568.078 348.209 568.096C348.714 567.843 348.15 567.113 347.842 566.997C347.67 566.926 347.481 566.905 347.296 566.937C347.112 566.968 346.941 567.05 346.805 567.173C346.555 567.459 346.431 567.827 346.459 568.199C346.486 568.623 346.596 569.039 346.784 569.424C346.895 569.641 347.033 569.9 347.13 570.12C347.227 570.34 346.954 570.476 346.829 570.227C346.566 569.701 346.075 568.935 345.971 568.205C345.908 567.915 345.935 567.613 346.047 567.337C346.16 567.061 346.353 566.822 346.604 566.65Z" fill="#DD9D7E"/>
<path d="M350.556 567.076C350.556 567.076 350.425 566.885 350.207 566.544C350.068 566.354 349.913 566.176 349.744 566.012C349.532 565.802 349.296 565.619 349.04 565.467C348.744 565.296 348.419 565.179 348.081 565.122C347.718 565.066 347.346 565.092 346.994 565.199C346.803 565.258 346.619 565.336 346.444 565.431C346.286 565.527 346.139 565.639 346.006 565.766C345.726 566.036 345.525 566.376 345.424 566.751C345.339 567.155 345.339 567.573 345.424 567.978L345.466 568.297V568.341C345.466 568.322 345.466 568.392 345.466 568.303V568.332V568.415L345.498 568.577C345.534 568.777 345.588 568.973 345.657 569.164C345.787 569.525 345.961 569.87 346.175 570.19C346.372 570.484 346.594 570.76 346.84 571.015C347.222 571.406 347.645 571.755 348.1 572.057C348.42 572.277 348.641 572.376 348.641 572.376C348.432 572.326 348.228 572.258 348.03 572.175C347.501 571.961 347.003 571.677 346.549 571.331C346.241 571.092 345.961 570.82 345.715 570.518C345.429 570.178 345.197 569.797 345.028 569.387C344.934 569.171 344.859 568.949 344.804 568.721L344.762 568.561L344.74 568.478V568.459V568.392V568.351L344.689 568.032C344.59 567.539 344.596 567.031 344.705 566.541C344.85 566.032 345.133 565.573 345.523 565.215C345.618 565.127 345.719 565.045 345.824 564.969L346.175 564.775C346.389 564.67 346.614 564.589 346.847 564.536C347.3 564.429 347.772 564.435 348.222 564.555C348.615 564.66 348.982 564.843 349.302 565.094C349.565 565.299 349.792 565.544 349.977 565.82C350.118 566.023 350.243 566.236 350.351 566.458C350.466 566.856 350.556 567.076 350.556 567.076Z" fill="#DD9D7E"/>
<path d="M348.577 572.042C348.576 572.238 348.615 572.429 348.687 572.592C348.759 572.756 348.862 572.883 348.982 572.958C349.103 573.034 349.236 573.054 349.364 573.016C349.492 572.978 349.61 572.884 349.702 572.746C349.794 572.608 349.858 572.432 349.883 572.24C349.909 572.047 349.896 571.848 349.846 571.667C349.796 571.486 349.712 571.332 349.603 571.223C349.495 571.114 349.367 571.056 349.236 571.056C349.062 571.056 348.894 571.159 348.771 571.344C348.647 571.529 348.577 571.78 348.577 572.042Z" fill="white"/>
<path d="M348.671 572.572C348.774 572.573 348.876 572.553 348.971 572.514C349.066 572.474 349.153 572.417 349.226 572.344C349.299 572.271 349.357 572.184 349.396 572.089C349.435 571.994 349.455 571.891 349.455 571.788C349.454 571.624 349.401 571.464 349.303 571.332C349.205 571.2 349.067 571.103 348.91 571.056C349.106 571.056 349.297 571.115 349.459 571.224C349.621 571.333 349.748 571.488 349.822 571.669C349.896 571.85 349.915 572.049 349.877 572.24C349.838 572.432 349.744 572.608 349.605 572.746C349.467 572.884 349.29 572.978 349.099 573.016C348.907 573.054 348.708 573.034 348.527 572.959C348.347 572.884 348.192 572.757 348.084 572.595C347.975 572.432 347.917 572.241 347.917 572.045C347.917 572.021 347.917 571.997 347.917 571.973C347.957 572.144 348.053 572.295 348.189 572.404C348.326 572.513 348.496 572.572 348.671 572.572Z" fill="#E6E7E8"/>
<path d="M307.846 663.165C307.904 663.077 324.754 638.715 324.754 638.715C325.54 635.122 323.763 627.976 323.763 627.976L318.359 590.496C319 586.201 319.296 580.752 325.062 581.724C329.129 582.413 329.93 582.985 332.438 583.799C331.704 587.277 337.663 589.513 337.663 589.513C345.86 593.068 347.756 590.728 347.756 590.728C349.949 591.921 357.326 595.618 359.228 597.234C361.219 598.886 362.435 601.436 361.793 605.776L355.892 641.285L356.931 650.105L367.707 677.64C364.351 676.408 360.757 675.974 357.207 676.373C353.856 676.781 350.969 678.771 347.64 679.143C342.612 679.699 338.878 677.873 335.084 675.446C330.041 674.354 325.158 672.616 320.553 670.275H320.232C316.47 670.297 312.214 670.23 309.434 667.263C308.856 666.645 307.134 664.176 307.846 663.165Z" fill="#4F1531"/>
<path d="M366.388 653.922L366.291 611.113C365.24 599.383 359.365 597.506 359.365 597.506C347.494 596.127 349.341 617.948 349.341 617.948L354.294 654.836" fill="#F7A483"/>
<path d="M404.005 677.6C398.626 674.627 398.144 673.662 397.194 672.261C393.104 666.251 401.374 666.44 403.455 666.929C404.65 667.213 404.733 670.15 408.431 673.735C408.431 673.735 414.253 677.23 415.688 676.982C415.688 676.982 417.184 677.204 417.184 678.304C417.184 678.327 413.109 680.815 404.005 677.6Z" fill="#F7A483"/>
<path d="M365.54 649.693L402.069 669.615C403.648 673.996 401.619 674.627 401.619 674.627L373.337 666.517C361.265 663.298 356.481 658.239 356.481 658.239C356.481 658.239 351.202 654.593 357.938 649.168C357.938 649.177 361.006 646.757 365.54 649.693Z" fill="#F7A483"/>
<path d="M353.791 564.833C352.815 571.986 353.911 581.457 350.326 589.277C348.728 592.758 346.964 594.484 347.924 598.521C348.705 601.828 350.28 604.947 351.133 608.367C353.02 615.922 350.456 623.301 341.596 620.567C337.346 619.274 336.871 619.274 333.002 620.767C329.749 622.018 326.697 622.383 323.466 620.806C318.458 618.382 319.965 614.719 317.16 611.047C315.019 608.251 311.996 608.322 310.385 604.566C308.433 600.041 310.756 597.607 313.125 593.76C315.595 589.752 315.988 587.111 315.175 582.278C314.495 578.215 315.5 576.162 316.857 572.429C318.243 568.605 317.638 565.269 318.295 561.439C319.597 553.852 323.771 543.557 331.769 541.33C335.69 540.24 340.756 539.39 344.531 540.764C349.668 542.632 355.388 544.643 355.167 550.904C354.936 557.359 354.65 558.458 353.791 564.833Z" fill="#340E08"/>
<path d="M402.8 667.091C402.8 667.091 401.779 669.936 405.485 669.238L409.114 666.596C409.114 666.596 410.242 666.022 409.841 664.992C409.841 664.992 409.409 664.403 408.253 664.992L402.8 667.091Z" fill="#F7A483"/>
</svg>
