<svg width="16" height="16" viewBox="0 0 16 16" fill="none" xmlns="http://www.w3.org/2000/svg">
<path fill-rule="evenodd" clip-rule="evenodd" d="M7.2 1.76667C7.4308 1.59357 7.71151 1.5 8 1.5C8.28849 1.5 8.56921 1.59357 8.8 1.76667L13.4667 5.26667C13.6323 5.39086 13.7667 5.55191 13.8592 5.73705C13.9518 5.92219 14 6.12634 14 6.33333V12.6667C14 13.0203 13.8595 13.3594 13.6095 13.6095C13.3594 13.8595 13.0203 14 12.6667 14H3.33333C2.97971 14 2.64057 13.8595 2.39052 13.6095C2.14048 13.3594 2 13.0203 2 12.6667V6.33333C2 6.12634 2.04819 5.92219 2.14076 5.73705C2.23333 5.55191 2.36774 5.39086 2.53333 5.26667L7.2 1.76667Z" fill="white"/>
</svg>
