<svg width="64" height="64" viewBox="0 0 64 64" fill="none" xmlns="http://www.w3.org/2000/svg">
<path d="M34.087 49.3913L64 0V64H0L34.087 49.3913Z" fill="#848484"/>
<path d="M36.8341 19.2433L32.0961 14.5053C31.9391 14.3483 31.726 14.26 31.5039 14.26C31.2818 14.26 31.0687 14.3483 30.9117 14.5053L26.1737 19.2433C26.0562 19.3604 25.9761 19.5097 25.9436 19.6723C25.9111 19.835 25.9276 20.0036 25.991 20.1569C26.0545 20.3102 26.162 20.4411 26.2999 20.5332C26.4379 20.6253 26.6001 20.6743 26.766 20.6741L30.6665 20.6729L30.6653 48.2632H32.3425L32.3413 20.6729L36.2419 20.6741C36.4077 20.6743 36.5699 20.6253 36.7079 20.5332C36.8458 20.4411 36.9534 20.3102 37.0168 20.1569C37.0802 20.0036 37.0967 19.835 37.0642 19.6723C37.0317 19.5097 36.9516 19.3604 36.8341 19.2433Z" fill="black"/>
<path d="M20.8767 33.8445L18.0002 30.968C17.9048 30.8726 17.7755 30.819 17.6406 30.819C17.5058 30.819 17.3764 30.8726 17.2811 30.968L14.4045 33.8445C14.3332 33.9156 14.2845 34.0063 14.2648 34.105C14.2451 34.2038 14.2551 34.3062 14.2936 34.3992C14.3321 34.4923 14.3974 34.5718 14.4811 34.6277C14.5649 34.6836 14.6634 34.7134 14.7641 34.7132L17.1322 34.7125L17.1315 51.4634H18.1498L18.1491 34.7125L20.5172 34.7132C20.6179 34.7134 20.7164 34.6836 20.8001 34.6277C20.8839 34.5718 20.9492 34.4923 20.9877 34.3992C21.0262 34.3062 21.0362 34.2038 21.0165 34.105C20.9967 34.0063 20.9481 33.9156 20.8767 33.8445Z" fill="#A7A7A7"/>
<path d="M48.7049 6.01834L45.8283 3.1418C45.733 3.04643 45.6036 2.99286 45.4688 2.99286C45.3339 2.99286 45.2045 3.04643 45.1092 3.1418L42.2326 6.01834C42.1613 6.08943 42.1127 6.18009 42.0929 6.27884C42.0732 6.37759 42.0832 6.47998 42.1217 6.57303C42.1602 6.66608 42.2255 6.7456 42.3093 6.80151C42.393 6.85741 42.4915 6.88719 42.5922 6.88706L44.9603 6.88634L44.9596 23.6372H45.9779L45.9772 6.88634L48.3453 6.88706C48.446 6.88719 48.5445 6.85741 48.6282 6.80151C48.712 6.7456 48.7773 6.66608 48.8158 6.57303C48.8543 6.47998 48.8643 6.37759 48.8446 6.27884C48.8248 6.18009 48.7762 6.08943 48.7049 6.01834Z" fill="#CFCFCF"/>
</svg>
