<svg width="375" height="184" viewBox="0 0 375 184" fill="none" xmlns="http://www.w3.org/2000/svg">
<path d="M51.8544 178.096L35.2116 162.18C34.6568 161.625 33.3975 160.848 33.0647 160.122C32.8991 159.599 32.85 159.047 32.921 158.503C32.9919 157.96 33.1811 157.439 33.4752 156.976C33.834 156.548 34.2355 156.158 34.6735 155.811C37.9022 152.656 41.1346 149.503 44.3707 146.352L49.2471 141.593C50.0626 140.799 50.9446 139.579 51.921 138.98C54.7669 137.232 58.1843 142.419 59.721 143.972L69.7566 154.202C71.5873 156.066 75.3431 158.463 72.7801 161.336C69.7178 164.743 65.8733 167.711 62.5059 170.845L57.0082 175.938C55.7877 177.047 53.9292 179.644 51.8544 178.112C51.0001 177.48 49.9239 178.75 50.7893 179.388C54.3731 182.035 57.4021 177.824 59.843 175.561L71.7926 164.465C74.1448 162.285 77.379 159.85 74.4111 156.543C71.4431 153.237 68.3087 150.308 65.2298 147.201C62.1508 144.094 59.2716 140.766 56.054 137.859C52.9418 135.052 50.4453 138.081 48.254 140.217L36.4376 151.745C34.3572 153.775 29.3588 157.065 31.3338 160.521C32.0328 161.741 33.4419 162.74 34.4349 163.7L40.8036 169.802L50.7893 179.366C51.5604 180.115 52.6256 178.834 51.8544 178.096Z" fill="#BCBBC4"/>
<path d="M53.7577 167.1L45.1256 158.49C45.1589 158.884 45.1978 159.272 45.231 159.666L53.8409 151.051L52.6704 151.156L61.2969 159.749C61.2637 159.361 61.2304 158.967 61.1915 158.579L52.5816 167.189C51.8216 167.949 53.1031 169.014 53.8576 168.259L62.4675 159.649C62.6067 159.479 62.6741 159.261 62.6554 159.041C62.6368 158.822 62.5336 158.618 62.3676 158.473C59.494 155.607 56.624 152.737 53.7577 149.863C53.587 149.724 53.3689 149.657 53.1495 149.675C52.93 149.694 52.7264 149.797 52.5816 149.963L43.9717 158.595C43.8379 158.764 43.7736 158.978 43.7922 159.192C43.8108 159.407 43.9107 159.606 44.0716 159.749L52.687 168.359C53.4471 169.136 54.5067 167.854 53.7577 167.1Z" fill="#BCBBC4"/>
<path d="M28.3324 144.349L62.7942 178.811L67.7538 183.771C68.5138 184.531 69.5734 183.249 68.8245 182.495L34.3626 148.039L29.4031 143.107C28.6431 142.347 27.5779 143.628 28.3324 144.377V144.349Z" fill="#BCBBC4"/>
<path d="M37.1751 135.506L71.6368 169.968L76.5964 174.928C77.3564 175.688 78.4216 174.406 77.6671 173.652L43.2053 139.223L38.2457 134.23C37.4913 133.476 36.4261 134.752 37.1751 135.506Z" fill="#BCBBC4"/>
<path d="M42.1625 148.865L63.5819 170.29C64.3419 171.05 65.4071 169.768 64.6526 169.014L43.2277 147.595C42.4732 146.834 41.4081 148.116 42.1625 148.865Z" fill="#BCBBC4"/>
<path d="M67.6485 134.336L33.1923 168.792L28.2327 173.757C27.4727 174.512 28.7542 175.577 29.5031 174.822L63.9871 140.366L68.9467 135.406C69.7067 134.646 68.4252 133.581 67.6707 134.336H67.6485Z" fill="#BCBBC4"/>
<path d="M76.4978 143.179L42.036 177.64L37.0764 182.6C36.3164 183.36 37.5979 184.42 38.3523 183.671L72.8086 149.209L77.7682 144.249C78.5282 143.489 77.2467 142.424 76.4978 143.179Z" fill="#BCBBC4"/>
<path d="M63.138 148.16L41.7131 169.585C40.9531 170.345 42.2346 171.41 42.9891 170.656L64.4084 149.209C65.1684 148.454 63.8869 147.389 63.138 148.138V148.16Z" fill="#BCBBC4"/>
<path d="M285.144 10.706C283.311 12.4112 282.7 15.6933 282.168 18.0403C281.252 22.2217 280.841 26.4981 280.946 30.7775C281.031 34.4446 281.447 38.5457 283.341 41.7789C285.236 45.0121 289.032 46.6134 292.729 46.9556C299.825 47.6035 310.27 44.7065 312.813 37.2133C314.28 32.8861 314.255 27.911 313.834 23.4065C313.504 19.8983 313.002 15.241 310.6 12.4051C308.058 9.42863 302.851 8.62187 299.226 8.21237C294.697 7.70508 289.148 7.65006 285.334 10.5288C284.393 11.2377 285.45 12.7413 286.391 12.0262C289.508 9.67311 294.025 9.61199 297.753 9.91148C301.17 10.1804 305.479 10.7305 308.333 12.8146C310.778 14.5993 311.334 18.5353 311.737 21.304C312.372 25.3253 312.399 29.4191 311.817 33.4484C311.206 37.1766 309.824 39.8292 306.554 41.8522C302.967 44.0211 298.859 45.1784 294.667 45.2015C290.969 45.2015 286.77 44.1564 284.839 40.7154C283.268 37.91 282.926 34.4324 282.804 31.2786C282.666 27.3395 282.984 23.3977 283.751 19.5316C284.215 17.1602 284.692 13.6214 286.575 11.8856C287.412 11.0849 286 9.91758 285.144 10.706Z" fill="#A6838A"/>
<path d="M300.167 16.286C290.62 12.0871 283.592 33.1181 294 36.2046C298.566 37.5554 301.903 32.4153 303.168 28.797C304.678 24.4392 304.653 18.8163 300.179 16.286C299.153 15.6748 298.376 17.3617 299.397 17.9423C302.716 19.8248 302.624 24.1703 301.701 27.4035C300.919 30.1416 298.645 34.8478 295.186 34.5666C290.517 34.1877 290.229 27.7274 291.299 24.4331C292.295 21.3772 295.486 16.2187 299.397 17.9423C300.461 18.419 301.249 16.7566 300.167 16.286Z" fill="#A6838A"/>
<path d="M298.096 0.969408V8.98821C298.096 10.1678 299.929 10.0028 299.929 8.82929V0.804375C299.929 -0.37522 298.096 -0.204075 298.096 0.969408Z" fill="#A6838A"/>
<path d="M286.055 1.97172C286.805 4.64466 287.555 7.31556 288.304 9.98442C288.622 11.1212 290.34 10.4795 290.022 9.37323C289.276 6.70437 288.528 4.03144 287.779 1.35444C287.461 0.223736 285.744 0.865485 286.055 1.96563V1.97172Z" fill="#A6838A"/>
<path d="M308.211 3.48731L306.054 10.9255C305.724 12.0562 307.533 12.3801 307.857 11.2555L310.014 3.81736C310.344 2.68666 308.535 2.36273 308.211 3.48731Z" fill="#A6838A"/>
<path d="M299.923 53.977V45.9521C299.923 44.7725 298.09 44.9376 298.09 46.111V54.1421C298.09 55.3217 299.923 55.1505 299.923 53.977Z" fill="#A6838A"/>
<path d="M287.822 53.4581C288.568 50.7852 289.315 48.1142 290.065 45.4454C290.383 44.3086 288.574 43.9846 288.262 45.1153C287.508 47.7883 286.761 50.4592 286.019 53.128C285.695 54.2649 287.504 54.5888 287.853 53.4581H287.822Z" fill="#A6838A"/>
<path d="M309.946 50.9833C309.225 48.51 308.506 46.0326 307.789 43.5512C307.465 42.4205 305.741 43.0623 306.071 44.1624C306.792 46.6438 307.511 49.1232 308.229 51.6006C308.559 52.7313 310.276 52.0895 309.946 50.9588V50.9833Z" fill="#A6838A"/>
<path d="M321.058 26.1992H313.002C311.823 26.1992 311.994 28.0328 313.161 28.0328H321.192C322.372 28.0328 322.207 26.1992 321.033 26.1992H321.058Z" fill="#A6838A"/>
<path d="M320.263 16.188L312.245 18.431C311.114 18.7489 311.756 20.4663 312.886 20.1546L320.899 17.9054C322.036 17.5876 321.394 15.8702 320.288 16.188H320.263Z" fill="#A6838A"/>
<path d="M319.977 37.6712L312.545 35.5137C311.408 35.1836 311.09 36.9927 312.209 37.3472L319.647 39.5047C320.778 39.8348 321.102 38.0257 319.977 37.7017V37.6712Z" fill="#A6838A"/>
<path d="M273.966 29.3834H281.997C283.177 29.3834 283.006 27.5498 281.832 27.5498H273.807C272.628 27.5498 272.793 29.3834 273.966 29.3834Z" fill="#A6838A"/>
<path d="M274.73 17.2763L282.743 19.5255C283.88 19.8433 284.204 18.0342 283.073 17.7225L275.06 15.4733C273.923 15.1555 273.599 16.9646 274.73 17.2763Z" fill="#A6838A"/>
<path d="M274.498 39.4315L281.93 37.274C283.067 36.944 282.425 35.2265 281.319 35.5566L273.887 37.7141C272.756 38.038 273.398 39.7554 274.498 39.4315Z" fill="#A6838A"/>
<path d="M37.75 123.156C37.5 122.344 37.2812 121.281 37.0938 119.969C36.9062 118.594 36.7188 117.125 36.5312 115.562C36.3438 113.938 36.125 112.312 35.875 110.688C35.6875 109 35.4688 107.406 35.2188 105.906C35.0312 104.406 34.75 103.094 34.375 101.969C34.0625 100.781 33.6875 99.9062 33.25 99.3438H32.3125C31.875 99.3438 31.4062 99.3438 30.9062 99.3438C30.4688 99.3438 30.0312 99.3438 29.5938 99.3438H28.6562C27.3438 99.3438 26.1562 99.3438 25.0938 99.3438C24.0312 99.3438 23 99.4375 22 99.625C21 99.75 19.9375 99.9375 18.8125 100.188C17.6875 100.375 16.375 100.719 14.875 101.219C14.5 101.344 14.1562 101.688 13.8438 102.25C13.5312 102.812 13.25 103.438 13 104.125C12.8125 104.75 12.625 105.375 12.4375 106C12.3125 106.625 12.25 107.156 12.25 107.594C12.25 108.031 12.1875 108.812 12.0625 109.938C12 111.062 11.9062 112.25 11.7812 113.5C11.7188 114.75 11.625 115.969 11.5 117.156C11.375 118.281 11.2812 119.031 11.2188 119.406C10.7812 120.156 10.1562 120.812 9.34375 121.375C8.53125 121.938 7.65625 122.219 6.71875 122.219C5.90625 122.219 5.375 122.031 5.125 121.656C4.875 121.281 4.75 120.688 4.75 119.875C4.75 119.812 4.75 119.594 4.75 119.219C4.8125 118.844 4.84375 118.594 4.84375 118.469C5.78125 109.969 7.4375 101.594 9.8125 93.3438C12.1875 85.0938 15.125 77.0312 18.625 69.1562C18.625 69.0938 18.6875 68.9688 18.8125 68.7812C19 68.5938 19.1875 68.4062 19.375 68.2188C19.625 68.0312 19.8438 67.875 20.0312 67.75C20.2188 67.5625 20.3438 67.4688 20.4062 67.4688C20.5312 67.4688 20.625 67.4375 20.6875 67.375C20.75 67.375 20.7812 67.375 20.7812 67.375L20.875 67.2812C22.3125 67.2812 23.6875 67.8125 25 68.875C26.375 69.875 27.6875 71.1562 28.9375 72.7188C30.1875 74.2812 31.3125 76.0625 32.3125 78.0625C33.3125 80 34.1875 81.9062 34.9375 83.7812C35.75 85.6562 36.375 87.4375 36.8125 89.125C37.3125 90.75 37.625 92.0312 37.75 92.9688C38.4375 93.3438 39.125 93.6562 39.8125 93.9062C40.5625 94.0938 41.2812 94.3438 41.9688 94.6562C42.6562 94.9062 43.25 95.25 43.75 95.6875C44.3125 96.0625 44.7812 96.6875 45.1562 97.5625C45.1562 97.625 45.125 97.75 45.0625 97.9375C45.0625 98.125 45 98.3125 44.875 98.5C44.75 98.6875 44.625 98.875 44.5 99.0625C44.4375 99.25 44.3438 99.3438 44.2188 99.3438C44.0938 99.4062 43.7812 99.5 43.2812 99.625C42.8438 99.75 42.375 99.875 41.875 100C41.4375 100.062 40.9688 100.125 40.4688 100.188C40.0312 100.25 39.75 100.281 39.625 100.281V100.75C39.625 103.625 39.875 106.625 40.375 109.75C40.875 112.812 41.5312 115.719 42.3438 118.469C42.3438 118.531 42.375 118.656 42.4375 118.844C42.5625 119.031 42.6875 119.219 42.8125 119.406C42.9375 119.594 43.0312 119.812 43.0938 120.062C43.1562 120.25 43.2188 120.344 43.2812 120.344V120.812C43.2812 121.875 42.875 122.688 42.0625 123.25C41.3125 123.812 40.5 124.094 39.625 124.094C39.1875 124.094 38.8125 124.062 38.5 124C38.1875 123.875 37.9375 123.594 37.75 123.156ZM15.9062 95.0312C17.0938 95.0312 18.4688 94.9688 20.0312 94.8438C21.6562 94.6562 23.25 94.4375 24.8125 94.1875C26.4375 93.9375 27.9375 93.7188 29.3125 93.5312C30.6875 93.2812 31.6875 93.0938 32.3125 92.9688C32.25 92.5938 32.0312 91.875 31.6562 90.8125C31.3438 89.75 31 88.625 30.625 87.4375C30.25 86.25 29.875 85.1562 29.5 84.1562C29.125 83.0938 28.8438 82.375 28.6562 82C28.5312 81.75 28.25 81.3125 27.8125 80.6875C27.4375 80 26.9688 79.3438 26.4062 78.7188C25.9062 78.0938 25.3438 77.5625 24.7188 77.125C24.1562 76.625 23.6562 76.375 23.2188 76.375C22.8438 76.375 22.5 76.4062 22.1875 76.4688C21.875 76.5312 21.5938 76.875 21.3438 77.5L15.9062 92.9688V95.0312ZM46.75 108.25C46.75 107.625 46.75 106.688 46.75 105.438C46.8125 104.188 46.9062 102.844 47.0312 101.406C47.2188 99.9062 47.4062 98.4062 47.5938 96.9062C47.7812 95.3438 48.0312 93.9375 48.3438 92.6875C48.7188 91.375 49.1875 90.3125 49.75 89.5C50.375 88.6875 51.0938 88.2812 51.9062 88.2812C51.9688 88.2812 52 88.2812 52 88.2812C52.0625 88.2812 52.125 88.2812 52.1875 88.2812C52.25 88.3438 52.3438 88.375 52.4688 88.375C52.5312 88.4375 52.6562 88.5625 52.8438 88.75C53.0312 88.875 53.2188 89.0312 53.4062 89.2188C53.5938 89.4062 53.75 89.625 53.875 89.875C54.0625 90.0625 54.1875 90.1875 54.25 90.25C53.6875 91.4375 53.2812 92.4062 53.0312 93.1562C52.7812 93.8438 52.5938 94.4375 52.4688 94.9375C52.3438 95.4375 52.3125 95.875 52.375 96.25C52.4375 96.5625 52.5 96.9688 52.5625 97.4688C52.625 97.9062 52.6875 98.5 52.75 99.25C52.8125 99.9375 52.8438 100.844 52.8438 101.969C53.9062 101.969 55.2188 101.875 56.7812 101.688C58.4062 101.5 60.0625 101.25 61.75 100.938C63.5 100.562 65.2188 100.094 66.9062 99.5312C68.6562 98.9688 70.2188 98.2812 71.5938 97.4688C72.9688 96.5938 74.0625 95.5938 74.875 94.4688C75.75 93.3438 76.1875 92 76.1875 90.4375C76.1875 89.5 75.625 88.6875 74.5 88C73.375 87.3125 71.9375 86.75 70.1875 86.3125C68.4375 85.875 66.5 85.5625 64.375 85.375C62.3125 85.125 60.2812 84.9688 58.2812 84.9062C56.3438 84.7812 54.5625 84.7188 52.9375 84.7188C51.375 84.7188 50.2812 84.7188 49.6562 84.7188C49.1562 84.5312 48.8438 84.2812 48.7188 83.9688C48.6562 83.5938 48.625 83.2188 48.625 82.8438C48.625 82.1562 48.75 81.625 49 81.25C49.3125 80.875 49.8438 80.5312 50.5938 80.2188C50.7812 80.2188 51.0938 80.2188 51.5312 80.2188C52.0312 80.2188 52.5312 80.2188 53.0312 80.2188C53.5938 80.2188 54.0938 80.2188 54.5312 80.2188C55.0312 80.1562 55.4062 80.125 55.6562 80.125C57.4062 80.125 58.9688 80.1562 60.3438 80.2188C61.7188 80.2188 63.0938 80.3125 64.4688 80.5C65.8438 80.625 67.3125 80.8125 68.875 81.0625C70.4375 81.25 72.25 81.5625 74.3125 82C75.4375 82.6875 76.4375 83.25 77.3125 83.6875C78.25 84.0625 79.0625 84.5312 79.75 85.0938C80.4375 85.5938 80.9375 86.2812 81.25 87.1562C81.5625 87.9688 81.7188 89.1875 81.7188 90.8125C81.7188 92.9375 81.1875 94.7812 80.125 96.3438C79.125 97.9062 77.8125 99.2812 76.1875 100.469C74.5625 101.594 72.6875 102.562 70.5625 103.375C68.5 104.125 66.375 104.781 64.1875 105.344C62 105.844 59.875 106.281 57.8125 106.656C55.75 107.031 53.9688 107.344 52.4688 107.594V110.781C52.4688 111.906 52.4688 112.875 52.4688 113.688C52.5312 114.5 52.5625 115.344 52.5625 116.219C52.625 117.031 52.7188 117.906 52.8438 118.844C52.9688 119.781 53.0938 120.875 53.2188 122.125C52.9062 122.688 52.4688 123.156 51.9062 123.531C51.3438 123.844 50.75 124 50.125 124C49.3125 124 48.6875 123.688 48.25 123.062C47.8125 122.375 47.4688 121.531 47.2188 120.531C46.9688 119.469 46.8125 118.344 46.75 117.156C46.6875 115.906 46.6562 114.688 46.6562 113.5C46.7188 112.312 46.75 111.25 46.75 110.312C46.75 109.375 46.75 108.688 46.75 108.25ZM84.1562 108.25C84.1562 107.625 84.1562 106.688 84.1562 105.438C84.2188 104.188 84.3125 102.844 84.4375 101.406C84.625 99.9062 84.8125 98.4062 85 96.9062C85.1875 95.3438 85.4375 93.9375 85.75 92.6875C86.125 91.375 86.5938 90.3125 87.1562 89.5C87.7812 88.6875 88.5 88.2812 89.3125 88.2812C89.375 88.2812 89.4062 88.2812 89.4062 88.2812C89.4688 88.2812 89.5312 88.2812 89.5938 88.2812C89.6562 88.3438 89.75 88.375 89.875 88.375C89.9375 88.4375 90.0625 88.5625 90.25 88.75C90.4375 88.875 90.625 89.0312 90.8125 89.2188C91 89.4062 91.1562 89.625 91.2812 89.875C91.4688 90.0625 91.5938 90.1875 91.6562 90.25C91.0938 91.4375 90.6875 92.4062 90.4375 93.1562C90.1875 93.8438 90 94.4375 89.875 94.9375C89.75 95.4375 89.7188 95.875 89.7812 96.25C89.8438 96.5625 89.9062 96.9688 89.9688 97.4688C90.0312 97.9062 90.0938 98.5 90.1562 99.25C90.2188 99.9375 90.25 100.844 90.25 101.969C91.3125 101.969 92.625 101.875 94.1875 101.688C95.8125 101.5 97.4688 101.25 99.1562 100.938C100.906 100.562 102.625 100.094 104.312 99.5312C106.062 98.9688 107.625 98.2812 109 97.4688C110.375 96.5938 111.469 95.5938 112.281 94.4688C113.156 93.3438 113.594 92 113.594 90.4375C113.594 89.5 113.031 88.6875 111.906 88C110.781 87.3125 109.344 86.75 107.594 86.3125C105.844 85.875 103.906 85.5625 101.781 85.375C99.7188 85.125 97.6875 84.9688 95.6875 84.9062C93.75 84.7812 91.9688 84.7188 90.3438 84.7188C88.7812 84.7188 87.6875 84.7188 87.0625 84.7188C86.5625 84.5312 86.25 84.2812 86.125 83.9688C86.0625 83.5938 86.0312 83.2188 86.0312 82.8438C86.0312 82.1562 86.1562 81.625 86.4062 81.25C86.7188 80.875 87.25 80.5312 88 80.2188C88.1875 80.2188 88.5 80.2188 88.9375 80.2188C89.4375 80.2188 89.9375 80.2188 90.4375 80.2188C91 80.2188 91.5 80.2188 91.9375 80.2188C92.4375 80.1562 92.8125 80.125 93.0625 80.125C94.8125 80.125 96.375 80.1562 97.75 80.2188C99.125 80.2188 100.5 80.3125 101.875 80.5C103.25 80.625 104.719 80.8125 106.281 81.0625C107.844 81.25 109.656 81.5625 111.719 82C112.844 82.6875 113.844 83.25 114.719 83.6875C115.656 84.0625 116.469 84.5312 117.156 85.0938C117.844 85.5938 118.344 86.2812 118.656 87.1562C118.969 87.9688 119.125 89.1875 119.125 90.8125C119.125 92.9375 118.594 94.7812 117.531 96.3438C116.531 97.9062 115.219 99.2812 113.594 100.469C111.969 101.594 110.094 102.562 107.969 103.375C105.906 104.125 103.781 104.781 101.594 105.344C99.4062 105.844 97.2812 106.281 95.2188 106.656C93.1562 107.031 91.375 107.344 89.875 107.594V110.781C89.875 111.906 89.875 112.875 89.875 113.688C89.9375 114.5 89.9688 115.344 89.9688 116.219C90.0312 117.031 90.125 117.906 90.25 118.844C90.375 119.781 90.5 120.875 90.625 122.125C90.3125 122.688 89.875 123.156 89.3125 123.531C88.75 123.844 88.1562 124 87.5312 124C86.7188 124 86.0938 123.688 85.6562 123.062C85.2188 122.375 84.875 121.531 84.625 120.531C84.375 119.469 84.2188 118.344 84.1562 117.156C84.0938 115.906 84.0625 114.688 84.0625 113.5C84.125 112.312 84.1562 111.25 84.1562 110.312C84.1562 109.375 84.1562 108.688 84.1562 108.25ZM153.25 110.125C153.25 108.188 153.25 106.188 153.25 104.125C153.25 102 153.344 99.875 153.531 97.75C153.719 95.625 153.969 93.5625 154.281 91.5625C154.656 89.5625 155.219 87.5938 155.969 85.6562C155.219 85.9062 154.656 85.9688 154.281 85.8438C153.906 85.7188 153.625 85.5 153.438 85.1875C153.25 84.875 153.125 84.5312 153.062 84.1562C153.062 83.7188 153.062 83.3438 153.062 83.0312C153.062 82.2188 153.188 81.625 153.438 81.25C153.688 80.875 154.031 80.625 154.469 80.5C154.906 80.3125 155.406 80.2188 155.969 80.2188C156.594 80.1562 157.219 80.125 157.844 80.125C160.094 80.125 162.438 80.3125 164.875 80.6875C167.375 81.0625 169.844 81.6562 172.281 82.4688C174.719 83.2188 177.031 84.2188 179.219 85.4688C181.406 86.6562 183.344 88.125 185.031 89.875C186.781 91.5625 188.156 93.4688 189.156 95.5938C190.156 97.7188 190.656 100.156 190.656 102.906C190.656 106.219 190 109.188 188.688 111.812C187.375 114.438 185.594 116.656 183.344 118.469C181.156 120.219 178.594 121.594 175.656 122.594C172.719 123.594 169.688 124.094 166.562 124.094C164.562 124.094 162.719 123.75 161.031 123.062C159.406 122.375 158 121.438 156.812 120.25C155.625 119 154.719 117.5 154.094 115.75C153.531 114 153.25 112.125 153.25 110.125ZM159.625 115.75C160.062 116.5 160.688 117.062 161.5 117.438C162.312 117.812 163.156 118.094 164.031 118.281C164.906 118.469 165.781 118.594 166.656 118.656C167.594 118.656 168.438 118.656 169.188 118.656C171.312 118.656 173.344 118.281 175.281 117.531C177.281 116.719 179.031 115.625 180.531 114.25C182.031 112.875 183.188 111.25 184 109.375C184.875 107.438 185.312 105.375 185.312 103.188C185.312 101.438 184.938 99.8125 184.188 98.3125C183.438 96.75 182.438 95.3125 181.188 94C180 92.6875 178.594 91.5312 176.969 90.5312C175.406 89.4688 173.75 88.5938 172 87.9062C170.25 87.1562 168.5 86.5938 166.75 86.2188C165 85.8438 163.312 85.6562 161.688 85.6562H161.406C160.469 86.5938 159.781 87.875 159.344 89.5C158.969 91.0625 158.719 92.75 158.594 94.5625C158.531 96.3125 158.531 98.0625 158.594 99.8125C158.656 101.5 158.688 102.875 158.688 103.938V105.719C158.688 106.094 158.719 106.781 158.781 107.781C158.906 108.719 159 109.75 159.062 110.875C159.125 111.938 159.219 112.938 159.344 113.875C159.469 114.812 159.562 115.438 159.625 115.75ZM194.312 107.5C194.312 105.375 194.906 103.312 196.094 101.312C197.281 99.3125 198.781 97.5625 200.594 96.0625C202.469 94.5625 204.5 93.375 206.688 92.5C208.938 91.625 211.062 91.1875 213.062 91.1875C214.688 91.1875 216.281 91.4062 217.844 91.8438C219.469 92.2188 220.906 92.8438 222.156 93.7188C223.406 94.5938 224.406 95.6875 225.156 97C225.969 98.25 226.375 99.75 226.375 101.5C226.375 102.312 226.312 102.969 226.188 103.469C226.125 103.906 225.938 104.312 225.625 104.688C225.312 105 224.906 105.312 224.406 105.625C223.969 105.875 223.406 106.219 222.719 106.656C222.344 106.719 221.781 106.875 221.031 107.125C220.281 107.312 219.406 107.531 218.406 107.781C217.469 108.031 216.469 108.281 215.406 108.531C214.344 108.781 213.312 109.031 212.312 109.281C211.375 109.531 210.531 109.75 209.781 109.938C209.031 110.125 208.469 110.25 208.094 110.312C207.906 110.375 207.5 110.438 206.875 110.5C206.25 110.562 205.562 110.656 204.812 110.781C204.125 110.844 203.469 110.938 202.844 111.062C202.219 111.125 201.844 111.188 201.719 111.25C201.531 111.312 201.312 111.469 201.062 111.719C200.875 111.906 200.781 112.031 200.781 112.094C200.781 113.344 201.125 114.406 201.812 115.281C202.5 116.094 203.375 116.781 204.438 117.344C205.5 117.906 206.688 118.344 208 118.656C209.375 118.906 210.719 119.125 212.031 119.312C213.344 119.438 214.562 119.5 215.688 119.5C216.812 119.5 217.719 119.5 218.406 119.5C221.531 119.5 224.594 119.344 227.594 119.031C230.594 118.656 233.656 118.469 236.781 118.469V119.219C236.781 119.594 236.719 120 236.594 120.438C236.531 120.812 236.406 121.188 236.219 121.562C236.031 121.875 235.781 122.062 235.469 122.125C233.094 122.625 230.969 123.031 229.094 123.344C227.281 123.594 225.562 123.781 223.938 123.906C222.312 123.969 220.625 124 218.875 124C217.125 124.062 215.188 124.094 213.062 124.094H211.469C210.781 124.094 210.031 124.062 209.219 124C208.406 124 207.625 124 206.875 124H205.281C203.344 123.5 201.656 122.719 200.219 121.656C198.844 120.531 197.719 119.219 196.844 117.719C195.969 116.219 195.312 114.594 194.875 112.844C194.5 111.094 194.312 109.312 194.312 107.5ZM215.312 96.4375C214.5 96.4375 213.562 96.5312 212.5 96.7188C211.5 96.8438 210.438 97.0938 209.312 97.4688C208.25 97.7812 207.188 98.2188 206.125 98.7812C205.062 99.2812 204.125 99.9062 203.312 100.656C202.5 101.344 201.812 102.125 201.25 103C200.75 103.875 200.5 104.844 200.5 105.906H204.344C205.719 105.906 207.125 105.844 208.562 105.719C210 105.594 211.406 105.406 212.781 105.156C214.156 104.844 215.344 104.406 216.344 103.844C217.406 103.219 218.25 102.438 218.875 101.5C219.562 100.562 219.906 99.4062 219.906 98.0312V97.5625L218.969 96.625C218.844 96.625 218.594 96.625 218.219 96.625C217.906 96.5625 217.562 96.5312 217.188 96.5312C216.812 96.4688 216.438 96.4375 216.062 96.4375C215.75 96.4375 215.5 96.4375 215.312 96.4375ZM248.125 118.281V116.312C248.125 115.5 248.188 114.719 248.312 113.969C248.438 113.219 248.688 112.562 249.062 112C249.438 111.438 249.969 111.156 250.656 111.156V111.25H250.938L252.812 118.469C252.812 118.719 252.938 118.906 253.188 119.031C253.438 119.156 253.688 119.281 253.938 119.406C254.25 119.469 254.531 119.5 254.781 119.5C255.094 119.5 255.344 119.5 255.531 119.5C255.656 119.5 255.812 119.5 256 119.5C256.25 119.438 256.406 119.406 256.469 119.406C256.844 119.344 257.562 119.188 258.625 118.938C259.688 118.625 260.781 118.344 261.906 118.094C263.094 117.844 264.188 117.594 265.188 117.344C266.25 117.031 267 116.844 267.438 116.781C267.75 116.281 268.219 115.844 268.844 115.469C269.469 115.031 270.094 114.625 270.719 114.25C271.344 113.875 271.875 113.469 272.312 113.031C272.75 112.594 272.969 112.031 272.969 111.344C272.969 109.781 272.562 108.531 271.75 107.594C271 106.656 270 105.969 268.75 105.531C267.562 105.031 266.281 104.688 264.906 104.5C263.531 104.312 262.219 104.125 260.969 103.938C260.469 103.875 259.656 103.781 258.531 103.656C257.469 103.469 256.25 103.281 254.875 103.094C253.5 102.906 252.062 102.719 250.562 102.531C249.062 102.281 247.594 102.094 246.156 101.969C244.781 101.781 243.531 101.625 242.406 101.5C241.344 101.375 240.562 101.281 240.062 101.219C239.688 100.969 239.281 100.531 238.844 99.9062C238.406 99.2812 238.188 98.7812 238.188 98.4062C238.188 97.3438 238.75 96.375 239.875 95.5C241.062 94.5625 242.531 93.7188 244.281 92.9688C246.031 92.2188 248 91.5625 250.188 91C252.438 90.4375 254.625 89.9375 256.75 89.5C258.938 89.0625 260.938 88.75 262.75 88.5625C264.625 88.375 266.062 88.2812 267.062 88.2812C267.812 88.2812 268.5 88.5312 269.125 89.0312C269.812 89.5312 270.156 90.25 270.156 91.1875C270.156 91.9375 269.938 92.5 269.5 92.875C269.125 93.1875 268.625 93.4062 268 93.5312C267.438 93.5938 266.844 93.6562 266.219 93.7188C265.656 93.7188 265.125 93.75 264.625 93.8125C263.625 94 262.344 94.25 260.781 94.5625C259.281 94.875 257.781 95.1875 256.281 95.5C254.781 95.8125 253.531 96.0625 252.531 96.25L250.938 96.625V97.6562C252.125 97.6562 253.625 97.6875 255.438 97.75C257.25 97.8125 259.188 97.9688 261.25 98.2188C263.312 98.4688 265.344 98.875 267.344 99.4375C269.406 99.9375 271.25 100.656 272.875 101.594C274.5 102.469 275.812 103.594 276.812 104.969C277.875 106.281 278.406 107.906 278.406 109.844C278.406 112.469 277.688 114.688 276.25 116.5C274.812 118.312 273 119.781 270.812 120.906C268.625 122.031 266.25 122.844 263.688 123.344C261.125 123.844 258.75 124.094 256.562 124.094C255.688 124.094 254.75 124.031 253.75 123.906C252.75 123.719 251.812 123.406 250.938 122.969C250.125 122.531 249.438 121.938 248.875 121.188C248.375 120.438 248.125 119.469 248.125 118.281ZM285.625 123.156C285.188 121.906 284.781 120.562 284.406 119.125C284.094 117.625 283.812 116.094 283.562 114.531C283.375 112.969 283.219 111.438 283.094 109.938C282.969 108.438 282.906 107.031 282.906 105.719C282.906 105.531 282.938 105.188 283 104.688C283.062 104.125 283.125 103.562 283.188 103C283.312 102.438 283.438 101.906 283.562 101.406C283.688 100.844 283.781 100.469 283.844 100.281C283.906 100.219 284.188 100.156 284.688 100.094C285.188 100.031 285.5 100 285.625 100C286.438 100 287.094 100.438 287.594 101.312C288.094 102.188 288.531 103.312 288.906 104.688C289.281 106.062 289.531 107.594 289.656 109.281C289.844 110.906 290 112.5 290.125 114.062C290.25 115.562 290.312 116.906 290.312 118.094C290.312 119.281 290.312 120.094 290.312 120.531C290.312 120.719 290.312 121.031 290.312 121.469C290.375 121.844 290.375 122.25 290.312 122.688C290.25 123.062 290.094 123.375 289.844 123.625C289.656 123.875 289.312 124 288.812 124H288.438C288.312 124 288.125 123.969 287.875 123.906C287.625 123.781 287.344 123.688 287.031 123.625C286.719 123.5 286.438 123.406 286.188 123.344C285.938 123.281 285.75 123.219 285.625 123.156ZM284.594 81.8125C284.594 80.25 285.594 79.0938 287.594 78.3438C288.031 78.1562 288.406 78.2188 288.719 78.5312C289.094 78.8438 289.375 79.25 289.562 79.75C289.812 80.25 289.969 80.7812 290.031 81.3438C290.156 81.8438 290.219 82.2188 290.219 82.4688C290.219 82.8438 290.125 83.1562 289.938 83.4062C289.75 83.5938 289.5 83.7188 289.188 83.7812C288.938 83.8438 288.656 83.875 288.344 83.875H287.594C286.719 83.875 286 83.7812 285.438 83.5938C284.875 83.4062 284.594 82.8125 284.594 81.8125ZM293.594 146.688C294.344 146.688 295.031 147.031 295.656 147.719C296.344 148.469 297 149.312 297.625 150.25C298.25 151.188 298.844 152.125 299.406 153.062C299.969 154.062 300.562 154.75 301.188 155.125C302.5 156.188 303.969 157.062 305.594 157.75C307.281 158.438 309 158.969 310.75 159.344C312.5 159.781 314.25 160.094 316 160.281C317.812 160.531 319.562 160.656 321.25 160.656C321.375 160.656 321.594 160.625 321.906 160.562C322.281 160.562 322.656 160.562 323.031 160.562C323.406 160.562 323.75 160.531 324.062 160.469C324.438 160.469 324.688 160.469 324.812 160.469C325.75 160.031 326.469 159.438 326.969 158.688C327.531 158 327.906 157.219 328.094 156.344C328.344 155.531 328.5 154.656 328.562 153.719C328.625 152.781 328.656 151.844 328.656 150.906C328.656 150.219 328.594 149.031 328.469 147.344C328.406 145.719 328.281 143.781 328.094 141.531C327.906 139.344 327.656 137.031 327.344 134.594C327.094 132.156 326.719 129.844 326.219 127.656C325.781 125.469 325.219 123.562 324.531 121.938C323.844 120.312 323.062 119.188 322.188 118.562C321.562 119.25 320.938 119.938 320.312 120.625C319.688 121.25 318.969 121.812 318.156 122.312C317.406 122.812 316.625 123.219 315.812 123.531C315 123.844 314.094 124 313.094 124C311.094 124 308.969 123.781 306.719 123.344C304.469 122.906 302.375 122.156 300.438 121.094C298.5 120.031 296.906 118.688 295.656 117.062C294.406 115.375 293.781 113.281 293.781 110.781C293.781 108.469 294.406 106.531 295.656 104.969C296.906 103.344 298.438 102.062 300.25 101.125C302.125 100.125 304.156 99.4062 306.344 98.9688C308.531 98.5312 310.594 98.3125 312.531 98.3125C313.156 98.3125 313.906 98.3438 314.781 98.4062C315.719 98.4062 316.656 98.4688 317.594 98.5938C318.531 98.7188 319.406 98.9062 320.219 99.1562C321.031 99.4062 321.688 99.7812 322.188 100.281C322.25 100.406 322.312 100.75 322.375 101.312C322.5 101.812 322.594 102.375 322.656 103C322.781 103.625 322.875 104.219 322.938 104.781C323 105.344 323.031 105.656 323.031 105.719C323.281 106.844 323.625 107.938 324.062 109C324.562 110 325.094 111.062 325.656 112.188C326.219 113.25 326.75 114.312 327.25 115.375C327.75 116.438 328.156 117.5 328.469 118.562C330.156 123.938 331.531 129.281 332.594 134.594C333.656 139.906 334.188 145.375 334.188 151C334.188 151.25 334.156 151.688 334.094 152.312C334.094 153 334.094 153.688 334.094 154.375C334.094 155.125 334.062 155.812 334 156.438C334 157.125 334 157.594 334 157.844C333.938 159.469 333.438 160.812 332.5 161.875C331.562 163 330.406 163.844 329.031 164.406C327.719 165.031 326.281 165.469 324.719 165.719C323.219 166.031 321.875 166.188 320.688 166.188C318.688 166.188 316.594 166 314.406 165.625C312.281 165.312 310.219 164.812 308.219 164.125C306.219 163.438 304.312 162.562 302.5 161.5C300.75 160.5 299.219 159.281 297.906 157.844C296.594 156.406 295.531 154.781 294.719 152.969C293.969 151.156 293.594 149.062 293.594 146.688ZM299.219 111.344C299.219 112.594 299.594 113.688 300.344 114.625C301.094 115.562 302.031 116.344 303.156 116.969C304.281 117.531 305.469 117.969 306.719 118.281C307.969 118.531 309.062 118.656 310 118.656C313.562 118.656 316.031 117.781 317.406 116.031C318.781 114.219 319.469 111.594 319.469 108.156C319.469 107.156 319.281 106.375 318.906 105.812C318.531 105.188 318.031 104.75 317.406 104.5C316.781 104.25 316.062 104.094 315.25 104.031C314.438 103.906 313.625 103.844 312.812 103.844C311.688 103.844 310.344 103.969 308.781 104.219C307.219 104.406 305.719 104.781 304.281 105.344C302.906 105.906 301.719 106.688 300.719 107.688C299.719 108.625 299.219 109.844 299.219 111.344ZM356.688 103.844C354.5 103.844 352.562 104.25 350.875 105.062C349.25 105.812 347.781 106.812 346.469 108.062C345.156 109.312 344.062 110.656 343.188 112.094C342.312 113.469 341.531 114.781 340.844 116.031C340.219 117.281 339.719 118.312 339.344 119.125C339.031 119.938 338.812 120.344 338.688 120.344C337 120.344 335.812 119.906 335.125 119.031C334.438 118.156 334 117.094 333.812 115.844C333.625 114.531 333.594 113.188 333.719 111.812C333.906 110.375 334 109.125 334 108.062V106.469C334 105.719 334 104.938 334 104.125C334.062 103.312 334.094 102.562 334.094 101.875V100.281C334.281 99.7812 334.531 99.5 334.844 99.4375C335.156 99.375 335.5 99.3438 335.875 99.3438C336.438 99.3438 336.906 99.6875 337.281 100.375C337.656 101 338 101.781 338.312 102.719C338.625 103.656 338.875 104.594 339.062 105.531C339.25 106.406 339.406 107.094 339.531 107.594C340.281 107.469 340.969 107.156 341.594 106.656C342.219 106.156 342.844 105.562 343.469 104.875C344.156 104.188 344.875 103.469 345.625 102.719C346.375 101.969 347.25 101.281 348.25 100.656C349.25 99.9688 350.406 99.4062 351.719 98.9688C353.094 98.5312 354.656 98.3125 356.406 98.3125C359.906 98.3125 362.781 99.0938 365.031 100.656C367.281 102.156 369 104.156 370.188 106.656C371.438 109.094 372.281 111.875 372.719 115C373.156 118.062 373.375 121.188 373.375 124.375C371.5 124.375 370.031 124.094 368.969 123.531C367.969 122.906 367.25 122.125 366.812 121.188C366.375 120.188 366.125 119.094 366.062 117.906C366 116.656 365.969 115.406 365.969 114.156C365.969 112.844 365.875 111.562 365.688 110.312C365.562 109.062 365.188 107.969 364.562 107.031C364 106.094 363.094 105.344 361.844 104.781C360.656 104.156 358.938 103.844 356.688 103.844Z" fill="#E1E1E1"/>
<path d="M33.75 118.156C33.5 117.344 33.2812 116.281 33.0938 114.969C32.9062 113.594 32.7188 112.125 32.5312 110.562C32.3438 108.938 32.125 107.312 31.875 105.688C31.6875 104 31.4688 102.406 31.2188 100.906C31.0312 99.4062 30.75 98.0938 30.375 96.9688C30.0625 95.7812 29.6875 94.9062 29.25 94.3438H28.3125C27.875 94.3438 27.4062 94.3438 26.9062 94.3438C26.4688 94.3438 26.0312 94.3438 25.5938 94.3438H24.6562C23.3438 94.3438 22.1562 94.3438 21.0938 94.3438C20.0312 94.3438 19 94.4375 18 94.625C17 94.75 15.9375 94.9375 14.8125 95.1875C13.6875 95.375 12.375 95.7188 10.875 96.2188C10.5 96.3438 10.1562 96.6875 9.84375 97.25C9.53125 97.8125 9.25 98.4375 9 99.125C8.8125 99.75 8.625 100.375 8.4375 101C8.3125 101.625 8.25 102.156 8.25 102.594C8.25 103.031 8.1875 103.812 8.0625 104.938C8 106.062 7.90625 107.25 7.78125 108.5C7.71875 109.75 7.625 110.969 7.5 112.156C7.375 113.281 7.28125 114.031 7.21875 114.406C6.78125 115.156 6.15625 115.812 5.34375 116.375C4.53125 116.938 3.65625 117.219 2.71875 117.219C1.90625 117.219 1.375 117.031 1.125 116.656C0.875 116.281 0.75 115.688 0.75 114.875C0.75 114.812 0.75 114.594 0.75 114.219C0.8125 113.844 0.84375 113.594 0.84375 113.469C1.78125 104.969 3.4375 96.5938 5.8125 88.3438C8.1875 80.0938 11.125 72.0312 14.625 64.1562C14.625 64.0938 14.6875 63.9688 14.8125 63.7812C15 63.5938 15.1875 63.4062 15.375 63.2188C15.625 63.0312 15.8438 62.875 16.0312 62.75C16.2188 62.5625 16.3438 62.4688 16.4062 62.4688C16.5312 62.4688 16.625 62.4375 16.6875 62.375C16.75 62.375 16.7812 62.375 16.7812 62.375L16.875 62.2812C18.3125 62.2812 19.6875 62.8125 21 63.875C22.375 64.875 23.6875 66.1562 24.9375 67.7188C26.1875 69.2812 27.3125 71.0625 28.3125 73.0625C29.3125 75 30.1875 76.9062 30.9375 78.7812C31.75 80.6562 32.375 82.4375 32.8125 84.125C33.3125 85.75 33.625 87.0312 33.75 87.9688C34.4375 88.3438 35.125 88.6562 35.8125 88.9062C36.5625 89.0938 37.2812 89.3438 37.9688 89.6562C38.6562 89.9062 39.25 90.25 39.75 90.6875C40.3125 91.0625 40.7812 91.6875 41.1562 92.5625C41.1562 92.625 41.125 92.75 41.0625 92.9375C41.0625 93.125 41 93.3125 40.875 93.5C40.75 93.6875 40.625 93.875 40.5 94.0625C40.4375 94.25 40.3438 94.3438 40.2188 94.3438C40.0938 94.4062 39.7812 94.5 39.2812 94.625C38.8438 94.75 38.375 94.875 37.875 95C37.4375 95.0625 36.9688 95.125 36.4688 95.1875C36.0312 95.25 35.75 95.2812 35.625 95.2812V95.75C35.625 98.625 35.875 101.625 36.375 104.75C36.875 107.812 37.5312 110.719 38.3438 113.469C38.3438 113.531 38.375 113.656 38.4375 113.844C38.5625 114.031 38.6875 114.219 38.8125 114.406C38.9375 114.594 39.0312 114.812 39.0938 115.062C39.1562 115.25 39.2188 115.344 39.2812 115.344V115.812C39.2812 116.875 38.875 117.688 38.0625 118.25C37.3125 118.812 36.5 119.094 35.625 119.094C35.1875 119.094 34.8125 119.062 34.5 119C34.1875 118.875 33.9375 118.594 33.75 118.156ZM11.9062 90.0312C13.0938 90.0312 14.4688 89.9688 16.0312 89.8438C17.6562 89.6562 19.25 89.4375 20.8125 89.1875C22.4375 88.9375 23.9375 88.7188 25.3125 88.5312C26.6875 88.2812 27.6875 88.0938 28.3125 87.9688C28.25 87.5938 28.0312 86.875 27.6562 85.8125C27.3438 84.75 27 83.625 26.625 82.4375C26.25 81.25 25.875 80.1562 25.5 79.1562C25.125 78.0938 24.8438 77.375 24.6562 77C24.5312 76.75 24.25 76.3125 23.8125 75.6875C23.4375 75 22.9688 74.3438 22.4062 73.7188C21.9062 73.0938 21.3438 72.5625 20.7188 72.125C20.1562 71.625 19.6562 71.375 19.2188 71.375C18.8438 71.375 18.5 71.4062 18.1875 71.4688C17.875 71.5312 17.5938 71.875 17.3438 72.5L11.9062 87.9688V90.0312ZM42.75 103.25C42.75 102.625 42.75 101.688 42.75 100.438C42.8125 99.1875 42.9062 97.8438 43.0312 96.4062C43.2188 94.9062 43.4062 93.4062 43.5938 91.9062C43.7812 90.3438 44.0312 88.9375 44.3438 87.6875C44.7188 86.375 45.1875 85.3125 45.75 84.5C46.375 83.6875 47.0938 83.2812 47.9062 83.2812C47.9688 83.2812 48 83.2812 48 83.2812C48.0625 83.2812 48.125 83.2812 48.1875 83.2812C48.25 83.3438 48.3438 83.375 48.4688 83.375C48.5312 83.4375 48.6562 83.5625 48.8438 83.75C49.0312 83.875 49.2188 84.0312 49.4062 84.2188C49.5938 84.4062 49.75 84.625 49.875 84.875C50.0625 85.0625 50.1875 85.1875 50.25 85.25C49.6875 86.4375 49.2812 87.4062 49.0312 88.1562C48.7812 88.8438 48.5938 89.4375 48.4688 89.9375C48.3438 90.4375 48.3125 90.875 48.375 91.25C48.4375 91.5625 48.5 91.9688 48.5625 92.4688C48.625 92.9062 48.6875 93.5 48.75 94.25C48.8125 94.9375 48.8438 95.8438 48.8438 96.9688C49.9062 96.9688 51.2188 96.875 52.7812 96.6875C54.4062 96.5 56.0625 96.25 57.75 95.9375C59.5 95.5625 61.2188 95.0938 62.9062 94.5312C64.6562 93.9688 66.2188 93.2812 67.5938 92.4688C68.9688 91.5938 70.0625 90.5938 70.875 89.4688C71.75 88.3438 72.1875 87 72.1875 85.4375C72.1875 84.5 71.625 83.6875 70.5 83C69.375 82.3125 67.9375 81.75 66.1875 81.3125C64.4375 80.875 62.5 80.5625 60.375 80.375C58.3125 80.125 56.2812 79.9688 54.2812 79.9062C52.3438 79.7812 50.5625 79.7188 48.9375 79.7188C47.375 79.7188 46.2812 79.7188 45.6562 79.7188C45.1562 79.5312 44.8438 79.2812 44.7188 78.9688C44.6562 78.5938 44.625 78.2188 44.625 77.8438C44.625 77.1562 44.75 76.625 45 76.25C45.3125 75.875 45.8438 75.5312 46.5938 75.2188C46.7812 75.2188 47.0938 75.2188 47.5312 75.2188C48.0312 75.2188 48.5312 75.2188 49.0312 75.2188C49.5938 75.2188 50.0938 75.2188 50.5312 75.2188C51.0312 75.1562 51.4062 75.125 51.6562 75.125C53.4062 75.125 54.9688 75.1562 56.3438 75.2188C57.7188 75.2188 59.0938 75.3125 60.4688 75.5C61.8438 75.625 63.3125 75.8125 64.875 76.0625C66.4375 76.25 68.25 76.5625 70.3125 77C71.4375 77.6875 72.4375 78.25 73.3125 78.6875C74.25 79.0625 75.0625 79.5312 75.75 80.0938C76.4375 80.5938 76.9375 81.2812 77.25 82.1562C77.5625 82.9688 77.7188 84.1875 77.7188 85.8125C77.7188 87.9375 77.1875 89.7812 76.125 91.3438C75.125 92.9062 73.8125 94.2812 72.1875 95.4688C70.5625 96.5938 68.6875 97.5625 66.5625 98.375C64.5 99.125 62.375 99.7812 60.1875 100.344C58 100.844 55.875 101.281 53.8125 101.656C51.75 102.031 49.9688 102.344 48.4688 102.594V105.781C48.4688 106.906 48.4688 107.875 48.4688 108.688C48.5312 109.5 48.5625 110.344 48.5625 111.219C48.625 112.031 48.7188 112.906 48.8438 113.844C48.9688 114.781 49.0938 115.875 49.2188 117.125C48.9062 117.688 48.4688 118.156 47.9062 118.531C47.3438 118.844 46.75 119 46.125 119C45.3125 119 44.6875 118.688 44.25 118.062C43.8125 117.375 43.4688 116.531 43.2188 115.531C42.9688 114.469 42.8125 113.344 42.75 112.156C42.6875 110.906 42.6562 109.688 42.6562 108.5C42.7188 107.312 42.75 106.25 42.75 105.312C42.75 104.375 42.75 103.688 42.75 103.25ZM80.1562 103.25C80.1562 102.625 80.1562 101.688 80.1562 100.438C80.2188 99.1875 80.3125 97.8438 80.4375 96.4062C80.625 94.9062 80.8125 93.4062 81 91.9062C81.1875 90.3438 81.4375 88.9375 81.75 87.6875C82.125 86.375 82.5938 85.3125 83.1562 84.5C83.7812 83.6875 84.5 83.2812 85.3125 83.2812C85.375 83.2812 85.4062 83.2812 85.4062 83.2812C85.4688 83.2812 85.5312 83.2812 85.5938 83.2812C85.6562 83.3438 85.75 83.375 85.875 83.375C85.9375 83.4375 86.0625 83.5625 86.25 83.75C86.4375 83.875 86.625 84.0312 86.8125 84.2188C87 84.4062 87.1562 84.625 87.2812 84.875C87.4688 85.0625 87.5938 85.1875 87.6562 85.25C87.0938 86.4375 86.6875 87.4062 86.4375 88.1562C86.1875 88.8438 86 89.4375 85.875 89.9375C85.75 90.4375 85.7188 90.875 85.7812 91.25C85.8438 91.5625 85.9062 91.9688 85.9688 92.4688C86.0312 92.9062 86.0938 93.5 86.1562 94.25C86.2188 94.9375 86.25 95.8438 86.25 96.9688C87.3125 96.9688 88.625 96.875 90.1875 96.6875C91.8125 96.5 93.4688 96.25 95.1562 95.9375C96.9062 95.5625 98.625 95.0938 100.312 94.5312C102.062 93.9688 103.625 93.2812 105 92.4688C106.375 91.5938 107.469 90.5938 108.281 89.4688C109.156 88.3438 109.594 87 109.594 85.4375C109.594 84.5 109.031 83.6875 107.906 83C106.781 82.3125 105.344 81.75 103.594 81.3125C101.844 80.875 99.9062 80.5625 97.7812 80.375C95.7188 80.125 93.6875 79.9688 91.6875 79.9062C89.75 79.7812 87.9688 79.7188 86.3438 79.7188C84.7812 79.7188 83.6875 79.7188 83.0625 79.7188C82.5625 79.5312 82.25 79.2812 82.125 78.9688C82.0625 78.5938 82.0312 78.2188 82.0312 77.8438C82.0312 77.1562 82.1562 76.625 82.4062 76.25C82.7188 75.875 83.25 75.5312 84 75.2188C84.1875 75.2188 84.5 75.2188 84.9375 75.2188C85.4375 75.2188 85.9375 75.2188 86.4375 75.2188C87 75.2188 87.5 75.2188 87.9375 75.2188C88.4375 75.1562 88.8125 75.125 89.0625 75.125C90.8125 75.125 92.375 75.1562 93.75 75.2188C95.125 75.2188 96.5 75.3125 97.875 75.5C99.25 75.625 100.719 75.8125 102.281 76.0625C103.844 76.25 105.656 76.5625 107.719 77C108.844 77.6875 109.844 78.25 110.719 78.6875C111.656 79.0625 112.469 79.5312 113.156 80.0938C113.844 80.5938 114.344 81.2812 114.656 82.1562C114.969 82.9688 115.125 84.1875 115.125 85.8125C115.125 87.9375 114.594 89.7812 113.531 91.3438C112.531 92.9062 111.219 94.2812 109.594 95.4688C107.969 96.5938 106.094 97.5625 103.969 98.375C101.906 99.125 99.7812 99.7812 97.5938 100.344C95.4062 100.844 93.2812 101.281 91.2188 101.656C89.1562 102.031 87.375 102.344 85.875 102.594V105.781C85.875 106.906 85.875 107.875 85.875 108.688C85.9375 109.5 85.9688 110.344 85.9688 111.219C86.0312 112.031 86.125 112.906 86.25 113.844C86.375 114.781 86.5 115.875 86.625 117.125C86.3125 117.688 85.875 118.156 85.3125 118.531C84.75 118.844 84.1562 119 83.5312 119C82.7188 119 82.0938 118.688 81.6562 118.062C81.2188 117.375 80.875 116.531 80.625 115.531C80.375 114.469 80.2188 113.344 80.1562 112.156C80.0938 110.906 80.0625 109.688 80.0625 108.5C80.125 107.312 80.1562 106.25 80.1562 105.312C80.1562 104.375 80.1562 103.688 80.1562 103.25ZM149.25 105.125C149.25 103.188 149.25 101.188 149.25 99.125C149.25 97 149.344 94.875 149.531 92.75C149.719 90.625 149.969 88.5625 150.281 86.5625C150.656 84.5625 151.219 82.5938 151.969 80.6562C151.219 80.9062 150.656 80.9688 150.281 80.8438C149.906 80.7188 149.625 80.5 149.438 80.1875C149.25 79.875 149.125 79.5312 149.062 79.1562C149.062 78.7188 149.062 78.3438 149.062 78.0312C149.062 77.2188 149.188 76.625 149.438 76.25C149.688 75.875 150.031 75.625 150.469 75.5C150.906 75.3125 151.406 75.2188 151.969 75.2188C152.594 75.1562 153.219 75.125 153.844 75.125C156.094 75.125 158.438 75.3125 160.875 75.6875C163.375 76.0625 165.844 76.6562 168.281 77.4688C170.719 78.2188 173.031 79.2188 175.219 80.4688C177.406 81.6562 179.344 83.125 181.031 84.875C182.781 86.5625 184.156 88.4688 185.156 90.5938C186.156 92.7188 186.656 95.1562 186.656 97.9062C186.656 101.219 186 104.188 184.688 106.812C183.375 109.438 181.594 111.656 179.344 113.469C177.156 115.219 174.594 116.594 171.656 117.594C168.719 118.594 165.688 119.094 162.562 119.094C160.562 119.094 158.719 118.75 157.031 118.062C155.406 117.375 154 116.438 152.812 115.25C151.625 114 150.719 112.5 150.094 110.75C149.531 109 149.25 107.125 149.25 105.125ZM155.625 110.75C156.062 111.5 156.688 112.062 157.5 112.438C158.312 112.812 159.156 113.094 160.031 113.281C160.906 113.469 161.781 113.594 162.656 113.656C163.594 113.656 164.438 113.656 165.188 113.656C167.312 113.656 169.344 113.281 171.281 112.531C173.281 111.719 175.031 110.625 176.531 109.25C178.031 107.875 179.188 106.25 180 104.375C180.875 102.438 181.312 100.375 181.312 98.1875C181.312 96.4375 180.938 94.8125 180.188 93.3125C179.438 91.75 178.438 90.3125 177.188 89C176 87.6875 174.594 86.5312 172.969 85.5312C171.406 84.4688 169.75 83.5938 168 82.9062C166.25 82.1562 164.5 81.5938 162.75 81.2188C161 80.8438 159.312 80.6562 157.688 80.6562H157.406C156.469 81.5938 155.781 82.875 155.344 84.5C154.969 86.0625 154.719 87.75 154.594 89.5625C154.531 91.3125 154.531 93.0625 154.594 94.8125C154.656 96.5 154.688 97.875 154.688 98.9375V100.719C154.688 101.094 154.719 101.781 154.781 102.781C154.906 103.719 155 104.75 155.062 105.875C155.125 106.938 155.219 107.938 155.344 108.875C155.469 109.812 155.562 110.438 155.625 110.75ZM190.312 102.5C190.312 100.375 190.906 98.3125 192.094 96.3125C193.281 94.3125 194.781 92.5625 196.594 91.0625C198.469 89.5625 200.5 88.375 202.688 87.5C204.938 86.625 207.062 86.1875 209.062 86.1875C210.688 86.1875 212.281 86.4062 213.844 86.8438C215.469 87.2188 216.906 87.8438 218.156 88.7188C219.406 89.5938 220.406 90.6875 221.156 92C221.969 93.25 222.375 94.75 222.375 96.5C222.375 97.3125 222.312 97.9688 222.188 98.4688C222.125 98.9062 221.938 99.3125 221.625 99.6875C221.312 100 220.906 100.312 220.406 100.625C219.969 100.875 219.406 101.219 218.719 101.656C218.344 101.719 217.781 101.875 217.031 102.125C216.281 102.312 215.406 102.531 214.406 102.781C213.469 103.031 212.469 103.281 211.406 103.531C210.344 103.781 209.312 104.031 208.312 104.281C207.375 104.531 206.531 104.75 205.781 104.938C205.031 105.125 204.469 105.25 204.094 105.312C203.906 105.375 203.5 105.438 202.875 105.5C202.25 105.562 201.562 105.656 200.812 105.781C200.125 105.844 199.469 105.938 198.844 106.062C198.219 106.125 197.844 106.188 197.719 106.25C197.531 106.312 197.312 106.469 197.062 106.719C196.875 106.906 196.781 107.031 196.781 107.094C196.781 108.344 197.125 109.406 197.812 110.281C198.5 111.094 199.375 111.781 200.438 112.344C201.5 112.906 202.688 113.344 204 113.656C205.375 113.906 206.719 114.125 208.031 114.312C209.344 114.438 210.562 114.5 211.688 114.5C212.812 114.5 213.719 114.5 214.406 114.5C217.531 114.5 220.594 114.344 223.594 114.031C226.594 113.656 229.656 113.469 232.781 113.469V114.219C232.781 114.594 232.719 115 232.594 115.438C232.531 115.812 232.406 116.188 232.219 116.562C232.031 116.875 231.781 117.062 231.469 117.125C229.094 117.625 226.969 118.031 225.094 118.344C223.281 118.594 221.562 118.781 219.938 118.906C218.312 118.969 216.625 119 214.875 119C213.125 119.062 211.188 119.094 209.062 119.094H207.469C206.781 119.094 206.031 119.062 205.219 119C204.406 119 203.625 119 202.875 119H201.281C199.344 118.5 197.656 117.719 196.219 116.656C194.844 115.531 193.719 114.219 192.844 112.719C191.969 111.219 191.312 109.594 190.875 107.844C190.5 106.094 190.312 104.312 190.312 102.5ZM211.312 91.4375C210.5 91.4375 209.562 91.5312 208.5 91.7188C207.5 91.8438 206.438 92.0938 205.312 92.4688C204.25 92.7812 203.188 93.2188 202.125 93.7812C201.062 94.2812 200.125 94.9062 199.312 95.6562C198.5 96.3438 197.812 97.125 197.25 98C196.75 98.875 196.5 99.8438 196.5 100.906H200.344C201.719 100.906 203.125 100.844 204.562 100.719C206 100.594 207.406 100.406 208.781 100.156C210.156 99.8438 211.344 99.4062 212.344 98.8438C213.406 98.2188 214.25 97.4375 214.875 96.5C215.562 95.5625 215.906 94.4062 215.906 93.0312V92.5625L214.969 91.625C214.844 91.625 214.594 91.625 214.219 91.625C213.906 91.5625 213.562 91.5312 213.188 91.5312C212.812 91.4688 212.438 91.4375 212.062 91.4375C211.75 91.4375 211.5 91.4375 211.312 91.4375ZM244.125 113.281V111.312C244.125 110.5 244.188 109.719 244.312 108.969C244.438 108.219 244.688 107.562 245.062 107C245.438 106.438 245.969 106.156 246.656 106.156V106.25H246.938L248.812 113.469C248.812 113.719 248.938 113.906 249.188 114.031C249.438 114.156 249.688 114.281 249.938 114.406C250.25 114.469 250.531 114.5 250.781 114.5C251.094 114.5 251.344 114.5 251.531 114.5C251.656 114.5 251.812 114.5 252 114.5C252.25 114.438 252.406 114.406 252.469 114.406C252.844 114.344 253.562 114.188 254.625 113.938C255.688 113.625 256.781 113.344 257.906 113.094C259.094 112.844 260.188 112.594 261.188 112.344C262.25 112.031 263 111.844 263.438 111.781C263.75 111.281 264.219 110.844 264.844 110.469C265.469 110.031 266.094 109.625 266.719 109.25C267.344 108.875 267.875 108.469 268.312 108.031C268.75 107.594 268.969 107.031 268.969 106.344C268.969 104.781 268.562 103.531 267.75 102.594C267 101.656 266 100.969 264.75 100.531C263.562 100.031 262.281 99.6875 260.906 99.5C259.531 99.3125 258.219 99.125 256.969 98.9375C256.469 98.875 255.656 98.7812 254.531 98.6562C253.469 98.4688 252.25 98.2812 250.875 98.0938C249.5 97.9062 248.062 97.7188 246.562 97.5312C245.062 97.2812 243.594 97.0938 242.156 96.9688C240.781 96.7812 239.531 96.625 238.406 96.5C237.344 96.375 236.562 96.2812 236.062 96.2188C235.688 95.9688 235.281 95.5312 234.844 94.9062C234.406 94.2812 234.188 93.7812 234.188 93.4062C234.188 92.3438 234.75 91.375 235.875 90.5C237.062 89.5625 238.531 88.7188 240.281 87.9688C242.031 87.2188 244 86.5625 246.188 86C248.438 85.4375 250.625 84.9375 252.75 84.5C254.938 84.0625 256.938 83.75 258.75 83.5625C260.625 83.375 262.062 83.2812 263.062 83.2812C263.812 83.2812 264.5 83.5312 265.125 84.0312C265.812 84.5312 266.156 85.25 266.156 86.1875C266.156 86.9375 265.938 87.5 265.5 87.875C265.125 88.1875 264.625 88.4062 264 88.5312C263.438 88.5938 262.844 88.6562 262.219 88.7188C261.656 88.7188 261.125 88.75 260.625 88.8125C259.625 89 258.344 89.25 256.781 89.5625C255.281 89.875 253.781 90.1875 252.281 90.5C250.781 90.8125 249.531 91.0625 248.531 91.25L246.938 91.625V92.6562C248.125 92.6562 249.625 92.6875 251.438 92.75C253.25 92.8125 255.188 92.9688 257.25 93.2188C259.312 93.4688 261.344 93.875 263.344 94.4375C265.406 94.9375 267.25 95.6562 268.875 96.5938C270.5 97.4688 271.812 98.5938 272.812 99.9688C273.875 101.281 274.406 102.906 274.406 104.844C274.406 107.469 273.688 109.688 272.25 111.5C270.812 113.312 269 114.781 266.812 115.906C264.625 117.031 262.25 117.844 259.688 118.344C257.125 118.844 254.75 119.094 252.562 119.094C251.688 119.094 250.75 119.031 249.75 118.906C248.75 118.719 247.812 118.406 246.938 117.969C246.125 117.531 245.438 116.938 244.875 116.188C244.375 115.438 244.125 114.469 244.125 113.281ZM281.625 118.156C281.188 116.906 280.781 115.562 280.406 114.125C280.094 112.625 279.812 111.094 279.562 109.531C279.375 107.969 279.219 106.438 279.094 104.938C278.969 103.438 278.906 102.031 278.906 100.719C278.906 100.531 278.938 100.188 279 99.6875C279.062 99.125 279.125 98.5625 279.188 98C279.312 97.4375 279.438 96.9062 279.562 96.4062C279.688 95.8438 279.781 95.4688 279.844 95.2812C279.906 95.2188 280.188 95.1562 280.688 95.0938C281.188 95.0312 281.5 95 281.625 95C282.438 95 283.094 95.4375 283.594 96.3125C284.094 97.1875 284.531 98.3125 284.906 99.6875C285.281 101.062 285.531 102.594 285.656 104.281C285.844 105.906 286 107.5 286.125 109.062C286.25 110.562 286.312 111.906 286.312 113.094C286.312 114.281 286.312 115.094 286.312 115.531C286.312 115.719 286.312 116.031 286.312 116.469C286.375 116.844 286.375 117.25 286.312 117.688C286.25 118.062 286.094 118.375 285.844 118.625C285.656 118.875 285.312 119 284.812 119H284.438C284.312 119 284.125 118.969 283.875 118.906C283.625 118.781 283.344 118.688 283.031 118.625C282.719 118.5 282.438 118.406 282.188 118.344C281.938 118.281 281.75 118.219 281.625 118.156ZM280.594 76.8125C280.594 75.25 281.594 74.0938 283.594 73.3438C284.031 73.1562 284.406 73.2188 284.719 73.5312C285.094 73.8438 285.375 74.25 285.562 74.75C285.812 75.25 285.969 75.7812 286.031 76.3438C286.156 76.8438 286.219 77.2188 286.219 77.4688C286.219 77.8438 286.125 78.1562 285.938 78.4062C285.75 78.5938 285.5 78.7188 285.188 78.7812C284.938 78.8438 284.656 78.875 284.344 78.875H283.594C282.719 78.875 282 78.7812 281.438 78.5938C280.875 78.4062 280.594 77.8125 280.594 76.8125ZM289.594 141.688C290.344 141.688 291.031 142.031 291.656 142.719C292.344 143.469 293 144.312 293.625 145.25C294.25 146.188 294.844 147.125 295.406 148.062C295.969 149.062 296.562 149.75 297.188 150.125C298.5 151.188 299.969 152.062 301.594 152.75C303.281 153.438 305 153.969 306.75 154.344C308.5 154.781 310.25 155.094 312 155.281C313.812 155.531 315.562 155.656 317.25 155.656C317.375 155.656 317.594 155.625 317.906 155.562C318.281 155.562 318.656 155.562 319.031 155.562C319.406 155.562 319.75 155.531 320.062 155.469C320.438 155.469 320.688 155.469 320.812 155.469C321.75 155.031 322.469 154.438 322.969 153.688C323.531 153 323.906 152.219 324.094 151.344C324.344 150.531 324.5 149.656 324.562 148.719C324.625 147.781 324.656 146.844 324.656 145.906C324.656 145.219 324.594 144.031 324.469 142.344C324.406 140.719 324.281 138.781 324.094 136.531C323.906 134.344 323.656 132.031 323.344 129.594C323.094 127.156 322.719 124.844 322.219 122.656C321.781 120.469 321.219 118.562 320.531 116.938C319.844 115.312 319.062 114.188 318.188 113.562C317.562 114.25 316.938 114.938 316.312 115.625C315.688 116.25 314.969 116.812 314.156 117.312C313.406 117.812 312.625 118.219 311.812 118.531C311 118.844 310.094 119 309.094 119C307.094 119 304.969 118.781 302.719 118.344C300.469 117.906 298.375 117.156 296.438 116.094C294.5 115.031 292.906 113.688 291.656 112.062C290.406 110.375 289.781 108.281 289.781 105.781C289.781 103.469 290.406 101.531 291.656 99.9688C292.906 98.3438 294.438 97.0625 296.25 96.125C298.125 95.125 300.156 94.4062 302.344 93.9688C304.531 93.5312 306.594 93.3125 308.531 93.3125C309.156 93.3125 309.906 93.3438 310.781 93.4062C311.719 93.4062 312.656 93.4688 313.594 93.5938C314.531 93.7188 315.406 93.9062 316.219 94.1562C317.031 94.4062 317.688 94.7812 318.188 95.2812C318.25 95.4062 318.312 95.75 318.375 96.3125C318.5 96.8125 318.594 97.375 318.656 98C318.781 98.625 318.875 99.2188 318.938 99.7812C319 100.344 319.031 100.656 319.031 100.719C319.281 101.844 319.625 102.938 320.062 104C320.562 105 321.094 106.062 321.656 107.188C322.219 108.25 322.75 109.312 323.25 110.375C323.75 111.438 324.156 112.5 324.469 113.562C326.156 118.938 327.531 124.281 328.594 129.594C329.656 134.906 330.188 140.375 330.188 146C330.188 146.25 330.156 146.688 330.094 147.312C330.094 148 330.094 148.688 330.094 149.375C330.094 150.125 330.062 150.812 330 151.438C330 152.125 330 152.594 330 152.844C329.938 154.469 329.438 155.812 328.5 156.875C327.562 158 326.406 158.844 325.031 159.406C323.719 160.031 322.281 160.469 320.719 160.719C319.219 161.031 317.875 161.188 316.688 161.188C314.688 161.188 312.594 161 310.406 160.625C308.281 160.312 306.219 159.812 304.219 159.125C302.219 158.438 300.312 157.562 298.5 156.5C296.75 155.5 295.219 154.281 293.906 152.844C292.594 151.406 291.531 149.781 290.719 147.969C289.969 146.156 289.594 144.062 289.594 141.688ZM295.219 106.344C295.219 107.594 295.594 108.688 296.344 109.625C297.094 110.562 298.031 111.344 299.156 111.969C300.281 112.531 301.469 112.969 302.719 113.281C303.969 113.531 305.062 113.656 306 113.656C309.562 113.656 312.031 112.781 313.406 111.031C314.781 109.219 315.469 106.594 315.469 103.156C315.469 102.156 315.281 101.375 314.906 100.812C314.531 100.188 314.031 99.75 313.406 99.5C312.781 99.25 312.062 99.0938 311.25 99.0312C310.438 98.9062 309.625 98.8438 308.812 98.8438C307.688 98.8438 306.344 98.9688 304.781 99.2188C303.219 99.4062 301.719 99.7812 300.281 100.344C298.906 100.906 297.719 101.688 296.719 102.688C295.719 103.625 295.219 104.844 295.219 106.344ZM352.688 98.8438C350.5 98.8438 348.562 99.25 346.875 100.062C345.25 100.812 343.781 101.812 342.469 103.062C341.156 104.312 340.062 105.656 339.188 107.094C338.312 108.469 337.531 109.781 336.844 111.031C336.219 112.281 335.719 113.312 335.344 114.125C335.031 114.938 334.812 115.344 334.688 115.344C333 115.344 331.812 114.906 331.125 114.031C330.438 113.156 330 112.094 329.812 110.844C329.625 109.531 329.594 108.188 329.719 106.812C329.906 105.375 330 104.125 330 103.062V101.469C330 100.719 330 99.9375 330 99.125C330.062 98.3125 330.094 97.5625 330.094 96.875V95.2812C330.281 94.7812 330.531 94.5 330.844 94.4375C331.156 94.375 331.5 94.3438 331.875 94.3438C332.438 94.3438 332.906 94.6875 333.281 95.375C333.656 96 334 96.7812 334.312 97.7188C334.625 98.6562 334.875 99.5938 335.062 100.531C335.25 101.406 335.406 102.094 335.531 102.594C336.281 102.469 336.969 102.156 337.594 101.656C338.219 101.156 338.844 100.562 339.469 99.875C340.156 99.1875 340.875 98.4688 341.625 97.7188C342.375 96.9688 343.25 96.2812 344.25 95.6562C345.25 94.9688 346.406 94.4062 347.719 93.9688C349.094 93.5312 350.656 93.3125 352.406 93.3125C355.906 93.3125 358.781 94.0938 361.031 95.6562C363.281 97.1562 365 99.1562 366.188 101.656C367.438 104.094 368.281 106.875 368.719 110C369.156 113.062 369.375 116.188 369.375 119.375C367.5 119.375 366.031 119.094 364.969 118.531C363.969 117.906 363.25 117.125 362.812 116.188C362.375 115.188 362.125 114.094 362.062 112.906C362 111.656 361.969 110.406 361.969 109.156C361.969 107.844 361.875 106.562 361.688 105.312C361.562 104.062 361.188 102.969 360.562 102.031C360 101.094 359.094 100.344 357.844 99.7812C356.656 99.1562 354.938 98.8438 352.688 98.8438Z" fill="#4A1520"/>
</svg>
