<svg width="141" height="182" viewBox="0 0 141 182" fill="none" xmlns="http://www.w3.org/2000/svg">
<path d="M54.1031 119.922C51.883 115.647 49.0929 112.032 43.4677 110.922C38.8325 109.977 34.0474 110.757 29.3372 111.177C24.627 111.597 19.6318 111.597 15.4917 109.287C13.174 108 11.2823 106.065 10.0485 103.718C8.81463 101.372 8.29232 98.7168 8.54554 96.0779C8.79875 93.4391 9.8165 90.9315 11.474 88.8627C13.1315 86.7938 15.3567 85.2536 17.8767 84.431C20.9353 83.6376 24.0958 83.3089 27.2521 83.4559C31.9023 83.3659 37.5424 82.6309 40.0325 78.0557C42.3426 73.7806 37.9325 70.2104 34.2574 68.9654C30.0272 67.4653 25.422 67.9604 20.9819 68.4104C16.5417 68.8604 11.9815 69.2954 7.72139 67.8553C3.46124 66.4153 -0.228918 62.5151 0.0110903 58.06C0.296101 52.8848 5.5913 49.3597 10.6615 48.2646C15.7317 47.1696 21.1619 47.5596 26.022 45.9096C30.8822 44.2595 35.4574 39.3093 34.0323 34.3291C32.7723 29.919 27.7921 27.9389 24.522 24.7287C18.5218 18.8035 19.3468 7.47812 26.1871 2.51294C33.0273 -2.45224 44.0527 0.262875 47.8178 7.82315C50.1279 12.4733 49.8279 17.9485 51.178 22.9587C52.528 27.9689 57.0282 33.0691 62.0683 31.824C65.8785 30.894 68.0686 26.8288 71.4137 24.8338C77.2939 21.3686 85.5892 25.8388 87.4943 32.4091C89.3994 38.9793 86.1292 46.1796 81.0291 50.7247C79.2139 52.1007 77.5585 53.6755 76.0939 55.4199C75.3772 56.3076 74.9357 57.3855 74.8237 58.5209C74.7118 59.6562 74.9343 60.7995 75.4639 61.8101C76.9639 64.1052 80.399 64.2552 82.9641 63.2202C85.5292 62.1851 87.6293 60.2201 90.1344 59.125C92.6522 57.9728 95.4667 57.6347 98.1858 58.1579C100.905 58.6812 103.393 60.0397 105.303 62.0441C107.214 64.0486 108.451 66.599 108.843 69.34C109.235 72.0811 108.762 74.8762 107.49 77.3357C104.49 83.1409 97.8147 85.871 91.7694 88.3761C85.7242 90.8812 79.154 94.2113 77.0239 100.377C74.3538 108.207 78.989 115.377 79.814 122.877C80.459 128.743 79.334 135.463 72.5088 136.618C65.2335 137.863 60.3583 132.643 57.3882 126.642C56.2031 124.452 55.2281 122.112 54.1031 119.922Z" fill="#FEB776"/>
<path d="M33.9739 8.84308C40.3741 24.2936 46.2393 39.9492 51.5695 55.8098C56.8997 71.6704 61.6698 87.7009 65.88 103.902C68.2501 113.012 70.4452 122.157 72.4653 131.338C72.6603 132.268 74.1003 131.878 73.8903 130.948C70.3102 114.597 66.17 98.3914 61.4698 82.3308C56.7697 66.2702 51.5145 50.3946 45.7043 34.7041C42.4441 25.8837 39.014 17.1284 35.4139 8.43808C35.0389 7.56805 33.5988 7.95805 33.9138 8.84308H33.9739Z" fill="#BBF1FA"/>
<path d="M25.1965 97.9162C38.7529 99.6824 52.5114 99.1193 65.878 96.2512C66.808 96.0561 66.418 94.6161 65.488 94.7511C52.2723 97.5751 38.6716 98.123 25.2715 96.3711C24.3265 96.2511 24.3415 97.7362 25.2715 97.8712L25.1965 97.9162Z" fill="#BBF1FA"/>
<path d="M90.7347 67.78C81.5634 73.4533 71.5404 77.6164 61.0486 80.1105C60.1036 80.3205 60.5086 81.7605 61.4386 81.6105C72.0394 79.1107 82.1692 74.9221 91.4397 69.2051C92.2497 68.7101 91.5147 67.42 90.6897 67.915L90.7347 67.78Z" fill="#BBF1FA"/>
<path d="M71.9564 34.1789C66.8433 41.7942 59.3779 47.5263 50.7006 50.4995C49.8006 50.7995 50.1756 52.2396 51.0906 51.9996C60.1392 48.9081 67.9228 42.9321 73.2464 34.989C73.7864 34.1939 72.4964 33.4889 71.9564 34.2389V34.1789Z" fill="#BBF1FA"/>
<path d="M20.3978 57.6097C30.9473 60.7874 42.0392 61.7526 52.979 60.4448C53.909 60.3248 53.924 58.8398 52.979 58.9448C42.2068 60.2641 31.2783 59.3448 20.8778 56.2446C20.6789 56.1909 20.4668 56.2184 20.2882 56.3211C20.1095 56.4238 19.979 56.5932 19.9253 56.7921C19.8716 56.9911 19.8991 57.2032 20.0018 57.3818C20.1045 57.5604 20.2739 57.691 20.4728 57.7447L20.3978 57.6097Z" fill="#BBF1FA"/>
<path d="M93.961 126.447C95.9861 123.162 98.4612 120.447 102.961 119.877C106.711 119.427 110.462 120.342 114.227 120.972C117.992 121.602 121.967 121.917 125.417 120.327C127.34 119.439 128.963 118.011 130.088 116.217C131.214 114.424 131.794 112.341 131.758 110.224C131.721 108.106 131.07 106.045 129.883 104.291C128.696 102.538 127.024 101.167 125.072 100.346C122.68 99.5206 120.176 99.0604 117.647 98.9808C113.942 98.6058 109.472 97.6758 107.777 93.8656C106.186 90.2955 109.937 87.7304 112.952 86.9654C116.417 86.0653 120.077 86.7104 123.587 87.3404C127.097 87.9704 130.757 88.6154 134.222 87.7304C137.688 86.8453 140.913 83.9502 140.988 80.3801C141.093 76.225 137.073 73.0898 133.097 71.8898C129.122 70.6898 124.802 70.6748 120.977 69.0547C117.152 67.4347 113.837 63.1895 115.292 59.3044C116.567 55.8542 120.677 54.5792 123.482 52.2241C124.775 51.128 125.814 49.7641 126.528 48.2267C127.242 46.6894 127.613 45.0153 127.616 43.3204C127.619 41.6254 127.254 39.95 126.545 38.4102C125.837 36.8703 124.803 35.5027 123.514 34.402C122.225 33.3013 120.712 32.4938 119.08 32.0353C117.449 31.5768 115.737 31.4783 114.063 31.7467C112.39 32.015 110.794 32.6438 109.388 33.5894C107.981 34.5351 106.797 35.7751 105.916 37.2236C103.786 40.7937 103.696 45.2038 102.286 49.119C100.876 53.0341 96.9911 56.8292 93.046 55.5242C90.0458 54.5342 88.5458 51.1591 86.0107 49.359C81.5106 46.2239 74.6253 49.359 72.6902 54.3992C70.7552 59.4393 72.9302 65.4846 76.7104 69.3997C78.0805 70.6062 79.3085 71.965 80.3705 73.4499C80.8883 74.2064 81.174 75.0977 81.1927 76.0143C81.2113 76.9309 80.9621 77.833 80.4755 78.6101C79.1105 80.3501 76.3804 80.2601 74.4753 79.2701C72.5702 78.2801 70.9351 76.615 69.0001 75.5499C67.0579 74.4577 64.8222 74.0021 62.6075 74.2472C60.3928 74.4924 58.3108 75.426 56.6546 76.9166C54.9984 78.4072 53.8514 80.3797 53.3751 82.5564C52.8988 84.7331 53.1172 87.0044 53.9995 89.0504C56.0396 93.8956 61.1998 96.4757 65.88 98.8608C70.5602 101.246 75.5853 104.306 76.9054 109.361C78.5555 115.781 74.4003 121.212 73.2752 127.227C72.3902 131.862 72.8702 137.292 78.2554 138.642C84.0006 140.142 88.2158 136.227 90.9609 131.622C91.9959 129.927 92.881 128.112 93.961 126.447Z" fill="#F89AC3"/>
<path d="M115.787 38.5893C107.905 48.5159 101.299 59.391 96.1214 70.9605C90.9282 82.5072 87.1749 94.6488 84.946 107.112C83.6994 114.166 82.9525 121.299 82.7109 128.458C82.7109 128.657 82.79 128.847 82.9306 128.988C83.0713 129.129 83.262 129.208 83.461 129.208C83.6599 129.208 83.8506 129.129 83.9913 128.988C84.132 128.847 84.211 128.657 84.211 128.458C84.6714 115.916 86.6869 103.481 90.2112 91.4362C93.6932 79.4629 98.6196 67.9579 104.882 57.175C108.461 51.0431 112.471 45.1732 116.882 39.6094C117.482 38.8593 116.432 37.8093 115.832 38.5593L115.787 38.5893Z" fill="#DEFAFF"/>
<path d="M68.1749 87.4161C72.6381 93.7778 79.1608 98.4035 86.6406 100.512C86.8395 100.563 87.0508 100.534 87.228 100.43C87.4053 100.326 87.5339 100.156 87.5856 99.9566C87.6373 99.7577 87.6079 99.5464 87.5038 99.3691C87.3997 99.1919 87.2295 99.0633 87.0306 99.0116C79.9199 97.0175 73.7121 92.6371 69.45 86.6061C68.9099 85.8261 67.6199 86.6061 68.1749 87.3561V87.4161Z" fill="#DEFAFF"/>
<path d="M116.236 104.427C106.543 107.865 96.1594 108.894 85.98 107.427C85.035 107.292 84.63 108.717 85.575 108.852C96.0202 110.395 106.684 109.365 116.641 105.852C117.541 105.522 117.151 104.097 116.236 104.352V104.427Z" fill="#DEFAFF"/>
<path d="M82.2754 62.2747C83.2664 65.1135 84.9006 67.6847 87.05 69.7873C89.1994 71.8899 91.8059 73.4669 94.6658 74.3952C95.5809 74.6802 95.9709 73.2552 95.0708 72.8951C92.4556 72.0414 90.0709 70.5997 88.0998 68.6806C86.1288 66.7615 84.6238 64.4162 83.7004 61.8247C83.3854 60.9247 81.9454 61.3147 82.2754 62.2148V62.2747Z" fill="#DEFAFF"/>
<path d="M110.414 75.0106C105.022 77.6847 99.0421 78.954 93.0286 78.7008C92.0686 78.7008 92.0686 80.2008 93.0286 80.2008C99.3088 80.4472 105.55 79.1112 111.179 76.3157C112.034 75.8957 111.284 74.6056 110.414 75.0256V75.0106Z" fill="#DEFAFF"/>
<path d="M48.5248 181.889H108.122L115.172 126.837H41.4746L48.5248 181.889Z" fill="#963939"/>
</svg>
