<svg width="110" height="140" viewBox="0 0 110 140" fill="none" xmlns="http://www.w3.org/2000/svg">
<path d="M13.8238 114.082C12.9238 115.3 11.6827 116.225 10.2574 116.738C8.83214 117.252 7.28666 117.331 5.81633 116.966C4.34599 116.601 3.01682 115.809 1.99681 114.689C0.976808 113.569 0.311756 112.171 0.0857422 110.673C-0.140271 109.175 0.0829249 107.644 0.727053 106.273C1.37118 104.902 2.40735 103.752 3.7046 102.97C5.00184 102.188 6.5019 101.807 8.0152 101.877C9.52849 101.947 10.9871 102.464 12.2066 103.363C13.8406 104.571 14.9286 106.379 15.2318 108.388C15.535 110.398 15.0286 112.445 13.8238 114.082Z" fill="#3ED5A5"/>
<path d="M14.4489 111.367C13.7052 111.367 13.2684 103.257 14.7322 93.4592C16.1959 83.6614 17.6951 75.953 18.3798 76.0002C19.0644 76.0474 18.852 84.1336 17.3646 93.8369C15.8772 103.54 15.1807 111.355 14.4489 111.367Z" fill="#3ED5A5"/>
<path d="M41.8041 84.2637C41.9812 84.8657 35.9019 86.8607 28.3942 84.9365C25.1632 84.1841 22.2045 82.5494 19.8477 80.2147C18.0534 78.3378 17.7465 76.6733 18.0534 76.5317C18.3603 76.39 19.2338 77.5469 21.0872 78.81C23.5128 80.4601 26.216 81.6597 29.067 82.3513C35.7956 84.122 41.7097 83.4374 41.8041 84.2637Z" fill="#3ED5A5"/>
<path d="M37.2469 122.345C36.3479 123.568 35.1063 124.498 33.6791 125.015C32.2518 125.533 30.7032 125.615 29.2291 125.252C27.755 124.889 26.4216 124.097 25.3979 122.976C24.3741 121.855 23.7059 120.455 23.4777 118.955C23.2496 117.454 23.4719 115.919 24.1164 114.544C24.7609 113.17 25.7987 112.017 27.0984 111.233C28.3981 110.448 29.9013 110.067 31.4179 110.137C32.9344 110.207 34.396 110.725 35.6178 111.626C36.4291 112.223 37.1149 112.973 37.6359 113.835C38.157 114.697 38.503 115.652 38.6543 116.648C38.8056 117.643 38.7592 118.659 38.5177 119.637C38.2762 120.614 37.8443 121.534 37.2469 122.345Z" fill="#3ED5A5"/>
<path d="M37.8609 119.63C37.1173 119.63 36.6805 111.52 38.1443 101.734C39.608 91.9481 41.119 84.2279 41.8037 84.2633C42.4883 84.2987 42.2759 92.4084 40.7767 102.1C39.2775 111.792 38.5928 119.63 37.8609 119.63Z" fill="#3ED5A5"/>
<path d="M41.2714 89.4928C41.5429 90.1302 35.8531 92.4203 28.7467 90.8621C21.6404 89.3039 17.3907 84.9598 17.8983 84.4877C18.4059 84.0155 22.9035 86.943 29.3134 88.2651C35.7232 89.5872 41.0825 88.7137 41.2714 89.4928Z" fill="#3ED5A5"/>
<path d="M102.007 110.618C102.74 111.202 103.631 111.556 104.566 111.633C105.5 111.709 106.437 111.506 107.255 111.049C108.074 110.591 108.738 109.9 109.163 109.064C109.587 108.228 109.753 107.284 109.639 106.353C109.525 105.423 109.137 104.547 108.523 103.837C107.91 103.128 107.099 102.618 106.194 102.371C105.289 102.124 104.332 102.153 103.443 102.453C102.554 102.752 101.775 103.31 101.205 104.054C100.453 105.036 100.115 106.273 100.265 107.5C100.415 108.727 101.041 109.846 102.007 110.618Z" fill="#E8505B"/>
<path d="M101.204 109.13C101.641 109.012 100.578 104.16 98.1113 98.6595C95.6441 93.1586 93.4957 88.8617 93.1061 89.0034C92.7166 89.1451 94.1567 93.8551 96.6475 99.3088C99.1383 104.762 100.767 109.213 101.204 109.13Z" fill="#E8505B"/>
<path d="M80.7123 97.6914C80.7123 98.0691 84.596 98.2462 88.6922 95.8853C90.4654 94.9141 91.936 93.4721 92.9418 91.7183C93.6855 90.3253 93.5911 89.2866 93.3904 89.263C93.1897 89.2393 92.8592 90.0539 91.9739 91.1045C90.8198 92.4642 89.4327 93.6074 87.8777 94.4806C84.2065 96.6172 80.6297 97.1838 80.7123 97.6914Z" fill="#E8505B"/>
<path d="M89.6128 119.306C90.3459 119.891 91.2365 120.244 92.1712 120.321C93.1058 120.398 94.0422 120.194 94.8609 119.737C95.6796 119.279 96.3435 118.589 96.768 117.752C97.1926 116.916 97.3585 115.972 97.2447 115.042C97.1308 114.111 96.7424 113.235 96.1288 112.526C95.5152 111.816 94.7044 111.306 93.7996 111.059C92.8948 110.813 91.937 110.841 91.0484 111.141C90.1598 111.44 89.3806 111.998 88.8101 112.742C88.058 113.724 87.7208 114.961 87.8709 116.188C88.021 117.415 88.6464 118.535 89.6128 119.306Z" fill="#E8505B"/>
<path d="M88.8115 117.806C89.2482 117.7 88.1858 112.849 85.7187 107.348C83.2515 101.847 81.1031 97.5499 80.7136 97.6915C80.324 97.8332 81.7642 102.543 84.2549 107.997C86.7457 113.451 88.3747 117.925 88.8115 117.806Z" fill="#E8505B"/>
<path d="M81.8692 100.654C81.8692 101.079 85.5286 101.493 89.4477 99.4149C93.3668 97.3373 95.1493 94.0793 94.7716 93.8904C94.3938 93.7015 92.2336 96.1569 88.6922 97.9748C85.1508 99.7927 81.8574 100.182 81.8692 100.654Z" fill="#E8505B"/>
<path d="M60.4272 138.458C59.5179 139.064 58.4493 139.387 57.3567 139.385C56.2641 139.384 55.1964 139.058 54.2888 138.45C53.3812 137.842 52.6743 136.978 52.2575 135.968C51.8408 134.958 51.7329 133.847 51.9474 132.776C52.162 131.704 52.6895 130.721 53.4631 129.949C54.2368 129.177 55.2218 128.653 56.2937 128.441C57.3656 128.229 58.4762 128.34 59.4851 128.759C60.494 129.179 61.3559 129.888 61.9618 130.797C62.3657 131.401 62.6464 132.078 62.7878 132.79C62.9293 133.502 62.9287 134.235 62.7861 134.947C62.6435 135.658 62.3617 136.335 61.9569 136.938C61.5521 137.54 61.0322 138.057 60.4272 138.458Z" fill="#2C4EB1"/>
<path d="M61.5164 136.77C61.1976 136.664 63.0155 131.127 66.4152 124.859C69.815 118.591 72.6008 113.633 72.8842 113.751C73.1675 113.869 70.8892 119.217 67.5013 125.438C64.1134 131.659 61.8351 136.888 61.5164 136.77Z" fill="#2C4EB1"/>
<path d="M83.6479 118.851C83.7305 119.158 80.6732 119.784 77.2971 118.296C73.9209 116.809 72.2683 114.188 72.5752 114.047C72.8821 113.905 74.7355 115.876 77.8046 117.187C80.8738 118.497 83.6479 118.497 83.6479 118.851Z" fill="#2C4EB1"/>
<path d="M80.6037 123.726C80.7335 124.021 77.7116 124.777 74.5125 123.089C71.3135 121.401 70.1802 118.544 70.499 118.461C70.8177 118.379 72.246 120.574 75.0791 122.003C77.9122 123.431 80.5801 123.384 80.6037 123.726Z" fill="#2C4EB1"/>
<path d="M49.9584 27.5787C50.1975 28.6069 50.1263 29.6829 49.7537 30.6706C49.3812 31.6583 48.724 32.5133 47.8654 33.1274C47.0068 33.7415 45.9853 34.0871 44.9302 34.1205C43.8751 34.1538 42.8338 33.8735 41.938 33.3149C41.0423 32.7563 40.3324 31.9446 39.8982 30.9824C39.4639 30.0202 39.3248 28.9509 39.4985 27.9096C39.6722 26.8684 40.1508 25.9021 40.8738 25.1329C41.5968 24.3638 42.5318 23.8264 43.5603 23.5888C44.9378 23.2705 46.3852 23.5119 47.5848 24.26C48.7844 25.0081 49.6381 26.2017 49.9584 27.5787Z" fill="#10EFFE"/>
<path d="M48.8012 26.0208C48.6005 26.2805 44.2092 22.7627 39.7117 17.5569C35.2141 12.3511 31.6609 8.11327 31.8616 7.95981C32.0623 7.80635 36.1231 11.6074 40.5852 16.7778C45.0473 21.9482 49.0136 25.7847 48.8012 26.0208Z" fill="#10EFFE"/>
<path d="M40.1101 0.0032836C40.417 0.0032836 39.9448 3.00164 37.4541 5.53962C34.9633 8.0776 32.0358 8.69144 32.0004 8.38452C31.965 8.07761 34.3613 7.06241 36.6042 4.72511C38.847 2.3878 39.7796 -0.102957 40.1101 0.0032836Z" fill="#10EFFE"/>
<path d="M43.5149 4.37108C43.8218 4.37108 43.5149 7.34582 40.8706 9.65951C38.2264 11.9732 35.2989 12.0204 35.3343 11.7135C35.3697 11.4066 37.8369 10.8636 40.0561 8.78597C42.2754 6.70837 43.1843 4.27664 43.5149 4.37108Z" fill="#10EFFE"/>
<path d="M10.696 28.4403C12.378 28.4403 13.7415 27.0767 13.7415 25.3947C13.7415 23.7127 12.378 22.3491 10.696 22.3491C9.01394 22.3491 7.65039 23.7127 7.65039 25.3947C7.65039 27.0767 9.01394 28.4403 10.696 28.4403Z" fill="#5878D8"/>
<path d="M13.4813 25.5483C13.198 25.6192 12.3598 22.4909 12.1356 18.56C11.9113 14.6291 11.8641 11.4773 12.1356 11.4773C12.4071 11.4773 12.9737 14.6055 13.1862 18.4892C13.3986 22.3729 13.7646 25.4657 13.4813 25.5483Z" fill="#5878D8"/>
<path d="M21.9106 12.7757C22.0287 13 19.833 14.2631 16.752 14.1332C15.4305 14.0934 14.1465 13.6845 13.0454 12.9528C12.1955 12.3743 11.9358 11.7723 12.042 11.6661C12.1483 11.5598 12.585 11.9612 13.4114 12.3035C14.4885 12.7459 15.6356 12.9937 16.7993 13.0354C19.5615 13.2125 21.8044 12.4806 21.9106 12.7757Z" fill="#5878D8"/>
<path d="M20.4792 29.7391C22.1612 29.7391 23.5247 28.3756 23.5247 26.6935C23.5247 25.0115 22.1612 23.6479 20.4792 23.6479C18.7971 23.6479 17.4336 25.0115 17.4336 26.6935C17.4336 28.3756 18.7971 29.7391 20.4792 29.7391Z" fill="#5878D8"/>
<path d="M23.2678 26.8468C22.9845 26.9177 22.0873 23.8012 21.9103 19.8703C21.7332 15.9394 21.6388 12.7876 21.9103 12.7876C22.1818 12.7876 22.7602 15.9158 22.9727 19.8113C23.1852 23.7068 23.5511 26.7878 23.2678 26.8468Z" fill="#5878D8"/>
<path d="M22.1822 14.8416C22.3475 15.0659 20.3171 16.4234 17.4604 16.3998C14.6037 16.3762 12.5497 15.0305 12.7386 14.8062C12.9275 14.5819 14.887 15.3492 17.4604 15.3492C20.0338 15.3492 21.9934 14.5701 22.1822 14.8416Z" fill="#5878D8"/>
</svg>
