<svg width="144" height="137" viewBox="0 0 144 137" fill="none" xmlns="http://www.w3.org/2000/svg">
<path d="M100.136 81.4917C99.2271 81.4187 97.3135 80.4577 96.9178 80.0017C94.2835 76.9657 88.9865 71.6018 89.0315 67.3541C89.0392 66.6286 92.2398 65.801 92.6607 65.115C94.5733 64.092 95.3005 63.8527 96.6406 61.9901C100.598 56.4818 90.5084 46.9849 101.519 42.9468C109.587 39.9871 116.638 42.4748 115.144 29.8042C113.65 17.1335 122.613 -6.52027 136.465 1.70018C144.415 6.41985 137.116 17.6066 141.465 25.3896C145.597 32.7858 142.686 39.1793 134.856 44.1152C127.025 49.0511 131.494 52.34 134.181 59.4267C137.409 67.9413 124.176 70.1162 117.981 70.5991C112.993 70.9866 100.553 75.3424 100.136 81.4917Z" fill="url(#paint0_linear_357_1266)"/>
<mask id="mask0_357_1266" style="mask-type:luminance" maskUnits="userSpaceOnUse" x="86" y="0" width="58" height="85">
<path d="M86.9316 66.3581C89.1537 72.2225 91.1738 78.2813 93.38 84.1995C96.9565 84.3164 101.166 84.3642 101.744 79.948C102.546 73.8053 113.005 70.9477 117.991 70.586C124.163 70.1382 137.413 67.9298 134.181 59.424C131.492 52.3445 127.025 49.0462 134.855 44.1125C142.686 39.1788 145.595 32.7842 141.464 25.387C137.117 17.6028 144.414 6.41995 136.465 1.69809C122.613 -6.5295 113.646 17.1446 115.145 29.7966C116.644 42.4486 109.569 40.0388 101.523 42.931C90.5389 46.879 100.529 56.7135 96.6668 61.8733C93.6402 65.918 91.0718 65.3302 86.9316 66.3581Z" fill="white"/>
</mask>
<g mask="url(#mask0_357_1266)">
<g style="mix-blend-mode:soft-light" opacity="0.8">
<path d="M93.1089 74.0429C106.309 66.8026 116.935 55.7131 123.842 41.9766C130.407 28.9097 133.539 13.7036 132.897 -1.99805L132.69 -1.98981C134.042 31.1368 119.208 59.4921 93.0117 73.8613L93.1089 74.0429Z" fill="#FCFDFE"/>
<path d="M107.001 64.0575C115.072 61.2038 128.047 60.6467 135.926 62.8167L135.981 62.6175C128.068 60.4376 115.036 60.9963 106.932 63.8627L107.001 64.0575Z" fill="#FCFDFE"/>
<path d="M98.2202 71.1617C101.419 67.9825 102.885 63.3183 102.584 57.299C102.365 52.9086 101.223 47.9096 99.1938 42.4414L99 42.5133C101.022 47.9623 102.158 52.9405 102.378 57.3095C102.677 63.2672 101.229 67.8788 98.0742 71.0151L98.2202 71.1617Z" fill="#FCFDFE"/>
<path d="M124.698 40.0871C130.3 33.9142 138.852 31.9221 145.039 31.3376L145.019 31.1318C138.796 31.7196 130.192 33.726 124.545 39.9483L124.698 40.0871Z" fill="#FCFDFE"/>
<path d="M130.91 21.8856C131.14 12.3562 125.282 4.26364 121.771 0.287598L121.615 0.424797C125.107 4.37615 130.932 12.4221 130.703 21.8828L130.91 21.8856Z" fill="#FCFDFE"/>
</g>
</g>
<path d="M35.4618 114.55C43.3239 115.927 62.1603 86.0901 53.6177 68.0122C50.0505 60.4684 43.5198 58.7841 41.7762 49.5094C40.2182 41.2335 44.7293 38.9176 44.4708 29.8745C44.1081 17.1599 34.6331 2.29902 24.303 2.12725C19.1202 2.04108 12.8836 5.63956 10.5073 11.5188C8.60466 16.2286 12.044 21.6568 10.5024 22.474C9.24017 23.1451 7.25955 19.5653 5.10168 19.933C1.91865 20.4747 -1.30939 29.5419 0.542808 37.6877C3.71432 51.6338 19.7584 54.0123 19.2722 63.7337C18.9627 69.9308 12.3376 71.0876 12.64 77.5448C12.9061 83.227 18.1559 84.9239 24.2196 92.6367C33.7122 104.72 31.2486 113.812 35.4618 114.55Z" fill="url(#paint1_linear_357_1266)"/>
<mask id="mask1_357_1266" style="mask-type:luminance" maskUnits="userSpaceOnUse" x="0" y="2" width="56" height="113">
<path d="M35.4618 114.55C43.3239 115.927 62.1603 86.0901 53.6177 68.0122C50.0505 60.4684 43.5198 58.7841 41.7762 49.5094C40.2182 41.2335 44.7293 38.9176 44.4708 29.8745C44.1081 17.1599 34.6331 2.29902 24.303 2.12725C19.1202 2.04108 12.8836 5.63956 10.5073 11.5188C8.60466 16.2286 12.044 21.6568 10.5024 22.474C9.24017 23.1451 7.25955 19.5653 5.10168 19.933C1.91865 20.4747 -1.30939 29.5419 0.542808 37.6877C3.71432 51.6338 19.7584 54.0123 19.2722 63.7337C18.9627 69.9308 12.3376 71.0876 12.64 77.5448C12.9061 83.227 18.1559 84.9239 24.2196 92.6367C33.7122 104.72 31.2486 113.812 35.4618 114.55Z" fill="white"/>
</mask>
<g mask="url(#mask1_357_1266)">
<g style="mix-blend-mode:soft-light" opacity="0.5">
<path d="M32.6311 121.263C32.7034 121.294 32.7833 121.303 32.8606 121.289C32.9379 121.274 33.0092 121.238 33.0656 121.183C33.122 121.128 33.1609 121.058 33.1775 120.981C33.194 120.904 33.1874 120.824 33.1585 120.751C33.1849 120.511 33.4329 119.755 33.7232 118.888C35.3416 114.009 39.6404 101.048 39.4423 79.5887C39.1931 52.6004 32.0242 22.3441 18.1346 -10.3386C18.1142 -10.3867 18.0844 -10.4304 18.047 -10.4671C18.0097 -10.5038 17.9655 -10.5327 17.917 -10.5523C17.8684 -10.5719 17.8165 -10.5818 17.7641 -10.5813C17.7118 -10.5808 17.6601 -10.57 17.6119 -10.5496C17.5637 -10.5291 17.52 -10.4993 17.4834 -10.462C17.4467 -10.4246 17.4177 -10.3804 17.3981 -10.3319C17.3785 -10.2834 17.3687 -10.2314 17.3692 -10.1791C17.3696 -10.1267 17.3804 -10.075 17.4009 -10.0268C32.3238 25.0875 47.1375 75.915 32.9659 118.637C32.3249 120.57 32.2097 120.918 32.5236 121.195C32.5554 121.224 32.5917 121.247 32.6311 121.263Z" fill="white"/>
<path d="M35.5461 50.5506C35.6414 50.5895 35.7481 50.5899 35.8438 50.5519C35.9394 50.5138 36.0166 50.4402 36.0592 50.3464C36.1018 50.2527 36.1064 50.1461 36.0722 50.049C36.0379 49.952 35.9673 49.8719 35.8754 49.8257C19.5898 41.8681 10.236 34.5883 5.25679 29.8818C-0.134607 24.7862 -1.69813 21.5291 -1.71295 21.4967C-1.75771 21.4009 -1.83868 21.3268 -1.93805 21.2908C-2.03741 21.2547 -2.14704 21.2596 -2.24282 21.3043C-2.33859 21.3491 -2.41266 21.4301 -2.44873 21.5294C-2.48481 21.6288 -2.47993 21.7384 -2.43517 21.8342C-2.37206 21.9703 -0.8228 25.2197 4.65037 30.4053C9.67133 35.1629 19.103 42.5179 35.5258 50.5419L35.5461 50.5506Z" fill="white"/>
<path d="M31.6489 30.7149C31.727 30.7485 31.8138 30.7558 31.8964 30.7357C36.7215 29.5915 40.5888 24.2374 43.3921 14.8206C45.4616 7.88211 46.1498 1.18128 46.1564 1.11378C46.1634 1.01041 46.13 0.908374 46.0631 0.829237C45.9962 0.7501 45.9012 0.700073 45.7981 0.689736C45.6951 0.6794 45.592 0.709562 45.5108 0.773848C45.4295 0.838134 45.3765 0.931501 45.3628 1.0342C45.3365 1.29707 42.5826 27.3815 31.7126 29.9592C31.6309 29.9787 31.5575 30.0234 31.5027 30.0871C31.448 30.1508 31.4147 30.2301 31.4077 30.3137C31.4006 30.3974 31.4201 30.4812 31.4634 30.5531C31.5068 30.625 31.5717 30.6814 31.6489 30.7143V30.7149Z" fill="white"/>
<path d="M38.8554 84.7507C38.91 84.7741 38.9692 84.7849 39.0285 84.7823C39.0879 84.7797 39.1459 84.7639 39.1984 84.7359C46.1225 81.0628 50.1343 73.6848 52.2806 68.1424C54.5965 62.1605 55.299 56.9662 55.3056 56.9146C55.3164 56.8112 55.2864 56.7077 55.222 56.626C55.1577 56.5444 55.064 56.4911 54.9609 56.4775C54.8579 56.464 54.7536 56.4911 54.6702 56.5533C54.5869 56.6154 54.5311 56.7076 54.5148 56.8103C54.5082 56.8613 53.8151 61.9767 51.5304 67.8713C49.4334 73.2808 45.5265 80.4761 38.8246 84.0318C38.7582 84.0672 38.7032 84.1206 38.6659 84.1859C38.6285 84.2513 38.6104 84.3258 38.6136 84.4009C38.6169 84.4761 38.6413 84.5488 38.684 84.6107C38.7268 84.6726 38.7862 84.7212 38.8554 84.7507Z" fill="white"/>
</g>
</g>
<path d="M127.735 26.4718C127.735 22.887 124.873 19.8648 121.341 19.7215L27.6881 15.8684C23.5414 15.6978 20.0801 18.7337 20.0801 22.6499V99.2073C20.0801 103.124 23.5298 106.195 27.6765 106.067L29.9145 105.994L30.0194 105.824L121.274 102.01C124.807 101.904 127.735 100.132 127.735 96.5473V26.4718ZM46.266 33.0573C42.7317 32.9586 39.8522 30.1333 39.8522 26.7462C39.8522 23.359 42.7317 20.7237 46.266 20.857C49.7783 20.9898 52.6145 23.8139 52.6145 27.1682C52.6145 30.5225 49.78 33.1561 46.266 33.0579V33.0573ZM76.293 33.897C72.9277 33.8032 70.1854 31.0482 70.1854 27.7439C70.1854 24.4396 72.9294 21.8651 76.293 21.9919C79.6406 22.1187 82.3402 24.8726 82.3402 28.1434C82.3402 31.4142 79.6401 33.9914 76.293 33.8976V33.897ZM104.907 34.6999C101.698 34.6099 99.084 31.9219 99.084 28.696C99.084 25.4702 101.698 22.954 104.907 23.0747C108.098 23.1954 110.673 25.8824 110.673 29.0769C110.673 32.2715 108.098 34.7872 104.907 34.6999Z" fill="url(#paint2_linear_357_1266)"/>
<path d="M129.648 39.4334V26.4615C129.648 22.8833 126.87 19.9434 123.349 19.7985L30.1157 15.9641C28.3771 15.8922 26.7516 16.3554 25.4729 17.2515C23.7255 18.4743 22.584 20.4044 22.584 22.6594V40.2621L129.648 39.4334ZM106.95 23.1506C110.129 23.2702 112.697 25.9495 112.697 29.1435C112.697 32.3375 110.129 34.8438 106.95 34.7549C103.752 34.6655 101.145 31.9829 101.145 28.7637C101.145 25.5444 103.751 23.0298 106.948 23.1506H106.95ZM78.4352 22.0738C81.7697 22.1995 84.4621 24.9473 84.4621 28.2154C84.4621 31.4835 81.7697 34.0508 78.4352 33.9575C75.0826 33.8637 72.3474 31.1147 72.3474 27.817C72.3474 24.5193 75.081 21.9471 78.4336 22.0738H78.4352ZM48.5147 20.9439C52.0155 21.0761 54.8424 23.8937 54.8424 27.2419C54.8424 30.5901 52.0155 33.2183 48.5147 33.1206C44.9947 33.0218 42.1229 30.2032 42.1229 26.8237C42.1229 23.4442 44.9931 20.8111 48.5131 20.9439H48.5147Z" fill="url(#paint3_linear_357_1266)"/>
<path d="M22.584 36.2629V99.1333C22.584 103.041 25.8323 106.118 29.9637 105.993L123.296 103.18C126.817 103.073 129.646 100.09 129.646 96.5101V38.9224L22.584 36.2629Z" fill="white"/>
<path d="M92.5739 48.1588C92.5739 47.3004 91.9559 46.5952 91.0921 46.5799L81.8975 46.4224C81.0195 46.407 79.9219 47.0958 79.9219 47.9629V56.7134C79.9219 57.58 81.0612 58.2901 81.9414 58.2973L90.8825 58.3653C91.7485 58.3725 92.5777 57.6804 92.5777 56.8221L92.5739 48.1588Z" fill="#BFC8D6"/>
<path d="M108.537 48.42C108.537 47.5732 107.83 46.8763 106.987 46.8614L98.4486 46.7144C97.592 46.699 96.9395 47.385 96.9395 48.24V56.8715C96.9395 57.7266 97.5805 58.4219 98.4371 58.429L107.014 58.4938C107.214 58.4949 107.413 58.4562 107.598 58.3799C107.784 58.3037 107.952 58.1914 108.094 58.0496C108.236 57.9078 108.348 57.7393 108.424 57.5538C108.5 57.3684 108.538 57.1697 108.537 56.9692V48.42Z" fill="#BFC8D6"/>
<path d="M124.388 48.6829C124.388 47.8471 123.659 47.1584 122.839 47.1463L114.434 46.9932C113.6 46.9783 112.871 47.6462 112.871 48.4903V57.0065C112.874 57.4129 113.036 57.802 113.322 58.0905C113.609 58.379 113.996 58.544 114.403 58.5503L122.828 58.6189C123.651 58.6255 124.388 57.9554 124.388 57.1196V48.6829Z" fill="#BFC8D6"/>
<path d="M92.5739 64.006C92.5739 63.1476 91.9559 62.4507 91.0921 62.4468L81.8975 62.4068C81.0195 62.4029 79.9219 63.1021 79.9219 63.9686V72.7192C79.9219 73.5863 81.0612 74.2855 81.9414 74.2811L90.8825 74.2328C91.7485 74.2284 92.5777 73.5276 92.5777 72.6693L92.5739 64.006Z" fill="url(#paint4_linear_357_1266)"/>
<path d="M108.537 64.0609C108.537 63.2135 107.83 62.5242 106.987 62.5242L98.4486 62.4885C97.592 62.4847 96.9395 63.1789 96.9395 64.034V72.666C96.9395 73.521 97.5805 74.2081 98.4371 74.2027L107.014 74.1554C107.42 74.152 107.809 73.9876 108.094 73.6982C108.38 73.4089 108.539 73.0182 108.537 72.6117V64.0609Z" fill="url(#paint5_linear_357_1266)"/>
<path d="M124.388 64.1115C124.388 63.2756 123.659 62.5957 122.839 62.5918L114.434 62.5496C113.6 62.5457 112.871 63.2224 112.871 64.0659V72.5822C112.873 72.9872 113.035 73.3749 113.322 73.6606C113.609 73.9463 113.998 74.1067 114.403 74.1067L122.828 74.065C123.651 74.0606 124.388 73.3823 124.388 72.5465V64.1115Z" fill="url(#paint6_linear_357_1266)"/>
<path d="M42.0197 63.8534C42.0197 62.9594 41.1921 62.2262 40.2509 62.2218L30.7435 62.1719C29.7869 62.1675 29.0801 62.8903 29.0801 63.7936V72.9168C29.0801 73.8207 29.7529 74.5539 30.71 74.549L40.3025 74.5045C41.2431 74.4996 42.0197 73.7768 42.0197 72.8822V63.8534Z" fill="#BFC8D6"/>
<path d="M59.3263 63.8963C59.3263 63.0138 58.6595 62.2982 57.7446 62.2938L48.3014 62.251C47.3718 62.2466 46.4844 62.9644 46.4844 63.8562V72.851C46.4844 73.7423 47.4091 74.4618 48.3393 74.4568L57.6601 74.4069C58.575 74.4019 59.3263 73.6819 59.3263 72.8V63.8963Z" fill="#BFC8D6"/>
<path d="M76.0098 63.9697C76.0127 63.762 75.9745 63.5558 75.8972 63.3631C75.8198 63.1703 75.705 62.9948 75.5594 62.8468C75.4138 62.6988 75.2402 62.5811 75.0487 62.5007C74.8572 62.4202 74.6517 62.3786 74.444 62.3781L65.143 62.3321C64.238 62.3277 63.2617 63.0318 63.2617 63.9109V72.7867C63.2617 73.6647 64.2611 74.3749 65.1661 74.3705L74.3123 74.3299C75.203 74.3255 76.0098 73.6241 76.0098 72.7537V63.9697Z" fill="#BFC8D6"/>
<path d="M92.5739 79.8519C92.5739 78.9936 91.9559 78.3049 91.0921 78.3153L81.8975 78.3921C81.0195 78.3998 79.9219 79.1094 79.9219 79.9765V88.7271C79.9219 89.5942 81.0612 90.2824 81.9414 90.2637L90.8825 90.0991C91.7485 90.0826 92.5777 89.3731 92.5777 88.5147L92.5739 79.8519Z" fill="#BFC8D6"/>
<path d="M108.537 79.6967C108.533 79.2897 108.367 78.901 108.077 78.616C107.786 78.3309 107.394 78.1729 106.987 78.1766L98.4486 78.2534C97.592 78.2611 96.9395 78.9625 96.9395 79.8175V88.4495C96.9395 89.3051 97.5805 89.9834 98.4371 89.9675L107.014 89.8084C107.421 89.7982 107.809 89.6292 108.093 89.3374C108.378 89.0456 108.537 88.6541 108.537 88.2465V79.6967Z" fill="#BFC8D6"/>
<path d="M42.0197 80.3678C42.0197 79.4733 41.1921 78.7516 40.2509 78.7598L30.7435 78.8361C29.7869 78.8443 29.0801 79.577 29.0801 80.4825V89.6057C29.0801 90.5096 29.7529 91.2329 30.71 91.2154L40.3025 91.0436C41.2431 91.0266 42.0197 90.2928 42.0197 89.3972V80.3678Z" fill="#BFC8D6"/>
<path d="M59.3263 80.1828C59.3263 79.3008 58.6595 78.5912 57.7446 78.6017L48.3014 78.6818C47.3718 78.69 46.4844 79.4188 46.4844 80.3095V89.3054C46.4844 90.1967 47.4091 90.9052 48.3393 90.8882L57.6601 90.7159C58.575 90.6988 59.3263 89.9695 59.3263 89.0876V80.1828Z" fill="#BFC8D6"/>
<path d="M76.0098 80.0347C76.0098 79.1648 75.3342 78.458 74.444 78.4656L65.143 78.5403C64.238 78.548 63.2617 79.263 63.2617 80.1422V89.0152C63.2617 89.8933 64.2611 90.5924 65.1661 90.576L74.3123 90.4157C75.203 90.3993 76.0098 89.688 76.0098 88.8176V80.0347Z" fill="#BFC8D6"/>
<path d="M47.9216 4.58919C41.9946 4.2879 37.0774 9.14751 36.6016 16.2336L41.6209 16.44C42.0297 12.2104 44.7545 9.07782 47.9216 9.22709C51.3395 9.38844 54.2125 13.3788 54.2125 17.9645C54.2125 22.5503 51.3395 26.3183 47.9216 26.2036C46.1391 26.1438 44.4977 25.0303 43.3282 23.3301C42.6499 24.2713 41.4804 26.4363 42.5879 29.1112C44.1827 30.1539 45.9992 30.7757 47.9216 30.8327C54.0984 31.0171 59.0787 25.3448 59.0787 18.1615C59.0787 10.9783 54.0984 4.90366 47.9216 4.58919Z" fill="#BFC8D6"/>
<path d="M77.819 6.09515C72.1719 5.80758 67.4885 10.5563 67.0352 17.4723L71.8163 17.6693C72.2059 13.5401 74.8018 10.48 77.819 10.6222C81.0762 10.7758 83.8141 14.6685 83.8141 19.1456C83.8141 23.6227 81.0762 27.3029 77.819 27.1937C76.1211 27.1388 74.557 26.0511 73.4429 24.3948C72.797 25.3141 71.6829 27.428 72.7377 30.0381C74.2568 31.0573 75.9877 31.6604 77.819 31.7153C83.7055 31.8903 88.4526 26.3458 88.4526 19.3355C88.4526 12.3251 83.7055 6.39479 77.819 6.09515Z" fill="#BFC8D6"/>
<path d="M106.411 7.56599C101.029 7.2916 96.5667 11.9322 96.1348 18.6836L100.69 18.8712C101.061 14.8403 103.535 11.8499 106.411 11.9855C109.516 12.132 112.126 15.9297 112.126 20.3009C112.126 24.672 109.516 28.2678 106.411 28.1641C104.793 28.1092 103.302 27.0511 102.24 25.4327C101.624 26.3305 100.563 28.3962 101.568 30.9421C103.016 31.9359 104.665 32.5237 106.411 32.5758C112.022 32.7405 116.548 27.3255 116.548 20.4798C116.548 13.6341 112.022 7.85137 106.411 7.56599Z" fill="#BFC8D6"/>
<g style="mix-blend-mode:multiply" opacity="0.3">
<path d="M129.648 94.1548V96.5113C129.648 100.089 126.87 103.074 123.35 103.181L30.0216 105.992C25.8924 106.116 22.5859 103.041 22.5859 99.1351V22.6595C22.5859 20.4045 23.6984 18.4337 25.4457 17.2126C29.239 18.5682 34.1167 22.3609 36.6072 32.6652C40.9976 50.7975 44.7673 58.5086 61.5863 57.9269C72.2731 57.557 80.4337 57.9577 85.5051 62.6367C88.2233 65.1403 90.0706 68.8859 90.9465 74.4178C91.4591 77.6557 93.7514 79.6862 97.02 81.146C100.216 82.5789 104.362 83.4647 108.668 84.4202C116.551 86.1648 125.345 88.1388 129.648 94.1548Z" fill="#BFC8D6"/>
</g>
<path d="M37.3132 78.5808C37.3132 78.5808 40.5232 79.6636 40.864 85.2602C40.3393 85.2163 39.1155 85.2602 39.1155 85.2602C39.1155 85.2602 39.3421 81.1898 37.0586 80.3995C37.2424 79.9248 37.3132 78.5808 37.3132 78.5808Z" fill="url(#paint7_linear_357_1266)"/>
<path d="M25.5332 78.2446L25.7736 81.3019C27.3596 80.8442 29.0944 80.3141 30.9592 80.2159C33.1879 80.1017 35.4213 80.3196 37.5859 80.8623C37.7726 80.5781 37.8955 80.2568 37.9465 79.9206C38.0336 79.3822 37.9866 78.8307 37.8098 78.3148C36.7472 77.9194 35.652 77.6177 34.5368 77.4131C31.177 76.8007 28.1416 77.4082 25.5332 78.2446Z" fill="url(#paint8_linear_357_1266)"/>
<path d="M25.3852 79.1276C25.3896 78.7589 25.4165 78.299 25.5345 78.2446C25.6525 78.1903 25.7957 78.5273 25.8599 78.7122C25.8868 78.7896 25.9461 78.9762 25.9829 79.5711C26.0306 80.3394 25.9752 80.7131 25.9241 80.9431C25.8934 81.083 25.8457 81.2943 25.7749 81.2998C25.72 81.3036 25.6651 81.1703 25.5938 80.9118C25.4944 80.566 25.3764 79.9854 25.3852 79.1276Z" fill="url(#paint9_linear_357_1266)"/>
<path d="M22.4609 85.5666C23.1261 85.6983 24.7434 86.0929 24.7434 86.0929C24.7434 86.0929 23.6891 82.5131 25.6763 80.8606C25.7525 80.46 25.7664 80.0499 25.7175 79.645C25.6786 79.3232 25.5987 79.0077 25.4799 78.7061C24.6364 79.2104 22.7968 80.9089 22.4609 85.5666Z" fill="url(#paint10_linear_357_1266)"/>
<path d="M8.70508 86.5101C8.70508 86.5101 8.78685 84.6299 11.5588 84.6299C11.9979 84.9729 12.0176 86.5101 12.0176 86.5101H8.70508Z" fill="url(#paint11_linear_357_1266)"/>
<path d="M6.24552 123.466L13.8359 128.421L18.4343 110.225L10.8571 85.8306L8.70798 86.51L5.44811 121.545C5.37403 122.338 5.69288 123.106 6.24552 123.466Z" fill="url(#paint12_linear_357_1266)"/>
<path style="mix-blend-mode:multiply" opacity="0.3" d="M18.432 110.225L10.8542 85.8306L8.70508 86.51C9.23412 88.6629 9.48821 92.1686 9.6073 94.1207C10.1155 102.426 11.8025 104.737 10.9853 110.53C10.3059 115.348 8.82142 116.001 8.95149 119.243C9.09253 122.773 11.0023 125.729 13.2727 128.053L13.8331 128.42L18.432 110.225Z" fill="url(#paint13_linear_357_1266)"/>
<path d="M10.8555 85.8306H52.5318L59.0932 124.498L13.8338 128.421L10.8555 85.8306Z" fill="url(#paint14_linear_357_1266)"/>
<g style="mix-blend-mode:multiply" opacity="0.2">
<path d="M52.5316 85.8306H38.4927C38.1454 86.897 37.7344 87.9416 37.2618 88.9587C30.9819 102.456 16.6083 104.157 16.8701 106.373C17.2581 109.689 49.2662 104.983 50.0834 109.539C50.478 111.738 43.7173 116.737 36.6559 118.63C28.1995 120.897 21.9849 118.04 17.8513 123.13C16.4519 124.855 15.8345 126.874 15.5332 128.24L59.0952 124.494L52.5316 85.8306Z" fill="url(#paint15_linear_357_1266)"/>
</g>
<path d="M11.561 84.6297C11.0918 84.6297 10.4354 84.5666 9.72142 85.0188C9.5775 85.11 9.44197 85.2137 9.31641 85.3289L9.64569 85.2032C10.1742 85.0358 10.903 85.2581 11.1757 85.8305C11.51 86.5335 11.6307 88.1601 11.7037 88.9658C11.9117 91.2576 13.1909 105.519 13.1909 105.519C13.2864 106.721 14.1332 107.632 15.1342 107.608L53.9014 105.435C54.2043 105.429 54.4964 105.321 54.73 105.128C55.2366 104.709 55.4654 103.982 55.348 103.292L53.3838 86.3068C53.2192 85.3305 52.5058 84.6297 51.6826 84.6297H11.561Z" fill="url(#paint16_linear_357_1266)"/>
<path d="M11.975 84.6298C11.5058 84.6298 10.9487 84.5607 10.3286 84.7396C10.1639 84.7879 9.89338 84.8768 9.77539 84.9844C9.77539 84.9844 11.0925 84.6452 11.5897 85.8295C11.8938 86.5523 12.0447 88.1592 12.1177 88.9648C12.3257 91.2566 13.6049 105.518 13.6049 105.518C13.7009 106.72 14.5472 107.631 15.5482 107.607L54.7516 106.703C55.0546 106.697 55.3468 106.589 55.5803 106.396C56.0869 105.977 56.3157 105.25 56.1983 104.559L53.7978 86.3097C53.6332 85.3334 52.9197 84.6326 52.0938 84.6326L11.975 84.6298Z" fill="url(#paint17_linear_357_1266)"/>
<path style="mix-blend-mode:multiply" opacity="0.1" d="M56.1986 104.557L53.7981 86.307C53.6335 85.3307 52.92 84.6298 52.0941 84.6298H11.9769C11.5077 84.6298 10.9507 84.5607 10.3305 84.7396C10.1659 84.7879 9.89534 84.8768 9.77734 84.9844C9.77734 84.9844 11.0945 84.6452 11.5917 85.8295C11.6446 85.9607 11.6888 86.0953 11.7239 86.2323C15.5337 86.397 19.3435 86.2779 23.1538 86.5429C30.6855 87.0539 38.3006 87.0539 45.4097 90.3225C47.6834 91.3652 49.2426 95.124 48.6257 96.8593C48.1806 98.1105 46.6632 98.0117 46.1331 99.6532C45.576 101.38 46.9118 102.553 46.3526 103.765C45.7654 105.035 43.9823 104.43 41.0951 105.337C39.823 105.742 38.6188 106.336 37.5224 107.098L54.7547 106.699C55.0577 106.693 55.3499 106.585 55.5834 106.392C56.0872 105.974 56.316 105.247 56.1986 104.557Z" fill="url(#paint18_linear_357_1266)"/>
<path d="M37.4375 110.097L32.5285 111.367L32.0098 111.413C31.4874 111.459 31.0379 110.974 31.0149 110.335L30.7997 104.296C30.7767 103.657 31.1899 103.127 31.714 103.118L32.2349 103.11L37.1702 103.785C37.6416 103.777 38.0384 103.507 38.0598 104.106L38.2618 109.771C38.2832 110.369 37.9078 110.056 37.4375 110.097Z" fill="url(#paint19_linear_357_1266)"/>
<path d="M37.8103 110.934L32.3711 111.412C31.8492 111.458 31.3992 110.973 31.3767 110.334L31.161 104.294C31.1385 103.656 31.5518 103.126 32.0753 103.117L37.5282 103.029C37.9996 103.022 38.4002 103.506 38.4216 104.105L38.6236 109.77C38.645 110.368 38.2806 110.893 37.8103 110.934Z" fill="url(#paint20_linear_357_1266)"/>
<path d="M9.12069 19.3267C7.59174 23.7907 6.62695 28.9708 6.62695 34.22C6.62695 51.3848 15.5724 65.479 27.3337 69.3876C27.416 69.3519 27.7925 69.5133 27.8742 69.4765C38.9561 64.4501 46.4236 50.6231 46.4236 34.9115C46.4236 30.0717 45.4907 25.948 44.1736 21.6915L27.7683 18.3636L27.1498 16.7512L9.12069 19.3267Z" fill="url(#paint21_linear_357_1266)"/>
<path d="M9.57076 19.6631C8.04345 24.1254 7.19336 29.0887 7.19336 34.3341C7.19336 51.4874 16.1278 65.5712 27.8726 69.4764C39.0813 64.5427 46.9439 50.8348 46.9439 35.0196C46.9439 30.183 46.219 25.5506 44.9046 21.2996L27.1543 16.7539L9.57076 19.6631Z" fill="url(#paint22_linear_357_1266)"/>
<path d="M32.4917 29.5908H24.207V53.4822H32.4917V29.5908Z" fill="white"/>
<path d="M38.6572 36.9124H18.041V44.4265H38.6572V36.9124Z" fill="white"/>
<path style="mix-blend-mode:multiply" opacity="0.3" d="M27.8746 67.8937L27.8197 67.8745C22.4882 66.0848 17.5923 61.9271 14.0872 56.1351C10.4179 50.072 8.45703 42.7197 8.45703 34.9405C8.45703 30.1501 9.20504 25.5286 10.6742 21.2206L10.7049 21.1316L27.1991 18.3459L27.232 18.3542L43.9193 22.5717L43.9462 22.659C45.2216 26.7749 45.867 31.1028 45.867 35.5409C45.867 42.7477 44.1712 49.6072 40.9278 55.4387C37.7448 61.166 33.1469 65.5876 27.9311 67.8668L27.8746 67.8937ZM10.9656 21.4291C9.52938 25.6746 8.79838 30.2274 8.79838 34.946C8.79838 50.3365 16.8174 63.792 27.8746 67.549C38.4538 62.898 45.5706 49.8152 45.5706 35.5382C45.5706 31.162 44.9401 26.8935 43.691 22.834L27.2018 18.6752L10.9656 21.4291Z" fill="url(#paint23_linear_357_1266)"/>
<path style="mix-blend-mode:multiply" opacity="0.3" d="M46.9441 35.0195C46.9441 30.1829 46.2192 25.5505 44.9048 21.2995L27.7274 16.9009C29.472 20.2535 31.0202 23.6319 31.3605 27.5388C31.7622 32.141 29.5126 35.009 27.3608 40.626C26.5376 42.7806 23.9314 49.7558 24.3572 57.4154C24.6541 62.7508 26.34 66.8822 27.6056 69.3847C27.6961 69.416 27.7861 69.4489 27.8767 69.4791C39.0815 64.5426 46.9441 50.8347 46.9441 35.0195Z" fill="url(#paint24_linear_357_1266)"/>
<path d="M112.303 56.1763V115.11C112.303 118.158 118.649 120.629 126.478 120.629C134.306 120.629 140.653 118.159 140.653 115.11V56.1763H112.303Z" fill="url(#paint25_linear_357_1266)"/>
<g style="mix-blend-mode:multiply" opacity="0.5">
<path d="M130.694 89.1305C128.178 79.7658 119.724 79.11 117.925 71.1684C117.175 67.8536 117.526 63.011 122.307 56.1763H112.301V115.11C112.301 118.158 118.647 120.629 126.476 120.629C129.49 120.629 132.284 120.262 134.581 119.638C131.834 116.619 129.928 113.245 129.179 109.473C127.509 101.068 132.905 97.3603 130.694 89.1305Z" fill="url(#paint26_linear_357_1266)"/>
</g>
<path opacity="0.58" d="M140.654 103.965C135.704 105.696 129.37 106.38 121.654 104.648V61.5479H140.654V103.965Z" fill="white"/>
<path d="M141.336 50.095H111.621C111.421 50.095 111.26 50.2566 111.26 50.4561V57.5027C111.26 57.7021 111.421 57.8638 111.621 57.8638H141.336C141.535 57.8638 141.697 57.7021 141.697 57.5027V50.4561C141.697 50.2566 141.535 50.095 141.336 50.095Z" fill="url(#paint27_linear_357_1266)"/>
<path d="M139.135 51.5334H137.535C137.427 51.5334 137.34 51.6207 137.34 51.7283V56.2295C137.34 56.3371 137.427 56.4243 137.535 56.4243H139.135C139.243 56.4243 139.33 56.3371 139.33 56.2295V51.7283C139.33 51.6207 139.243 51.5334 139.135 51.5334Z" fill="#D8DEE8"/>
<path d="M135.666 51.5334H134.066C133.958 51.5334 133.871 51.6207 133.871 51.7283V56.2295C133.871 56.3371 133.958 56.4243 134.066 56.4243H135.666C135.774 56.4243 135.861 56.3371 135.861 56.2295V51.7283C135.861 51.6207 135.774 51.5334 135.666 51.5334Z" fill="#D8DEE8"/>
<path d="M132.197 51.5334H130.597C130.49 51.5334 130.402 51.6207 130.402 51.7283V56.2295C130.402 56.3371 130.49 56.4243 130.597 56.4243H132.197C132.305 56.4243 132.392 56.3371 132.392 56.2295V51.7283C132.392 51.6207 132.305 51.5334 132.197 51.5334Z" fill="#D8DEE8"/>
<path d="M128.729 51.5334H127.128C127.021 51.5334 126.934 51.6207 126.934 51.7283V56.2295C126.934 56.3371 127.021 56.4243 127.128 56.4243H128.729C128.836 56.4243 128.924 56.3371 128.924 56.2295V51.7283C128.924 51.6207 128.836 51.5334 128.729 51.5334Z" fill="#D8DEE8"/>
<path d="M125.262 51.5334H123.662C123.554 51.5334 123.467 51.6207 123.467 51.7283V56.2295C123.467 56.3371 123.554 56.4243 123.662 56.4243H125.262C125.37 56.4243 125.457 56.3371 125.457 56.2295V51.7283C125.457 51.6207 125.37 51.5334 125.262 51.5334Z" fill="#D8DEE8"/>
<path d="M121.795 51.5334H120.195C120.087 51.5334 120 51.6207 120 51.7283V56.2295C120 56.3371 120.087 56.4243 120.195 56.4243H121.795C121.903 56.4243 121.99 56.3371 121.99 56.2295V51.7283C121.99 51.6207 121.903 51.5334 121.795 51.5334Z" fill="#D8DEE8"/>
<path d="M118.326 51.5334H116.726C116.618 51.5334 116.531 51.6207 116.531 51.7283V56.2295C116.531 56.3371 116.618 56.4243 116.726 56.4243H118.326C118.434 56.4243 118.521 56.3371 118.521 56.2295V51.7283C118.521 51.6207 118.434 51.5334 118.326 51.5334Z" fill="#D8DEE8"/>
<path d="M114.858 51.5334H113.257C113.15 51.5334 113.062 51.6207 113.062 51.7283V56.2295C113.062 56.3371 113.15 56.4243 113.257 56.4243H114.858C114.965 56.4243 115.052 56.3371 115.052 56.2295V51.7283C115.052 51.6207 114.965 51.5334 114.858 51.5334Z" fill="#D8DEE8"/>
<path d="M102.636 113.941C99.0785 113.495 95.4795 113.495 91.9225 113.941H83.3535V117.968C83.3535 120.377 89.5879 122.33 97.2787 122.33C104.97 122.33 111.204 120.377 111.204 117.968V113.941H102.636Z" fill="url(#paint28_linear_357_1266)"/>
<path d="M97.2793 118.302C104.97 118.302 111.205 116.35 111.205 113.941C111.205 111.532 104.97 109.58 97.2793 109.58C89.5883 109.58 83.3535 111.532 83.3535 113.941C83.3535 116.35 89.5883 118.302 97.2793 118.302Z" fill="white"/>
<g style="mix-blend-mode:multiply" opacity="0.3">
<path d="M97.2792 117.112C93.6775 117.112 90.3068 116.677 87.7883 115.888C85.1409 115.059 84.5449 114.183 84.5449 113.941C84.5449 113.7 85.1409 112.823 87.7883 111.994C90.3068 111.205 93.6775 110.771 97.2792 110.771C100.881 110.771 104.252 111.205 106.77 111.994C109.418 112.823 110.014 113.7 110.014 113.941C110.014 114.183 109.418 115.059 106.77 115.888C104.252 116.677 100.882 117.112 97.2792 117.112Z" fill="#D8DEE8"/>
</g>
<g style="mix-blend-mode:multiply" opacity="0.3">
<path d="M97.2792 117.111C93.6775 117.111 90.3068 116.644 87.7883 115.798C85.1409 114.908 84.5449 113.967 84.5449 113.708C84.5449 113.448 85.1409 112.508 87.7883 111.617C90.3068 110.771 93.6775 110.305 97.2792 110.305C100.881 110.305 104.252 110.771 106.77 111.617C109.418 112.508 110.014 113.449 110.014 113.708C110.014 113.967 109.418 114.908 106.77 115.798C104.252 116.644 100.882 117.111 97.2792 117.111Z" fill="#D8DEE8"/>
</g>
<path d="M89.597 115.4C89.2584 115.4 88.9576 115.197 88.8945 114.906C88.8237 114.58 89.0811 114.266 89.4691 114.207L103.973 111.978C104.361 111.918 104.733 112.134 104.804 112.461C104.875 112.787 104.618 113.101 104.23 113.161L89.726 115.39C89.6833 115.397 89.6402 115.4 89.597 115.4Z" fill="#D8DEE8"/>
<path d="M102.636 109.336C99.0785 108.89 95.4795 108.89 91.9225 109.336H83.3535V113.364C83.3535 115.772 89.5879 117.725 97.2787 117.725C104.97 117.725 111.204 115.772 111.204 113.364V109.336H102.636Z" fill="url(#paint29_linear_357_1266)"/>
<path d="M97.2793 113.696C104.97 113.696 111.205 111.744 111.205 109.335C111.205 106.926 104.97 104.974 97.2793 104.974C89.5883 104.974 83.3535 106.926 83.3535 109.335C83.3535 111.744 89.5883 113.696 97.2793 113.696Z" fill="white"/>
<g style="mix-blend-mode:multiply" opacity="0.3">
<path d="M97.2792 112.505C93.6775 112.505 90.3068 112.071 87.7883 111.282C85.1409 110.453 84.5449 109.576 84.5449 109.335C84.5449 109.093 85.1409 108.217 87.7883 107.387C90.3068 106.599 93.6775 106.165 97.2792 106.165C100.881 106.165 104.252 106.599 106.77 107.387C109.418 108.217 110.014 109.093 110.014 109.335C110.014 109.577 109.418 110.453 106.77 111.282C104.252 112.071 100.882 112.505 97.2792 112.505Z" fill="#D8DEE8"/>
</g>
<g style="mix-blend-mode:multiply" opacity="0.3">
<path d="M97.2792 112.505C93.6775 112.505 90.3068 112.038 87.7883 111.192C85.1409 110.302 84.5449 109.361 84.5449 109.102C84.5449 108.842 85.1409 107.902 87.7883 107.011C90.3068 106.165 93.6775 105.699 97.2792 105.699C100.881 105.699 104.252 106.165 106.77 107.011C109.418 107.902 110.014 108.842 110.014 109.102C110.014 109.361 109.418 110.302 106.77 111.192C104.252 112.038 100.882 112.505 97.2792 112.505Z" fill="#D8DEE8"/>
</g>
<path d="M89.597 110.794C89.2584 110.794 88.9576 110.591 88.8945 110.3C88.8237 109.971 89.0811 109.66 89.4691 109.6L103.973 107.371C104.361 107.311 104.733 107.528 104.804 107.855C104.875 108.181 104.618 108.494 104.23 108.554L89.726 110.783C89.6833 110.79 89.6402 110.793 89.597 110.794Z" fill="#D8DEE8"/>
<path d="M129.133 113.358C130.156 119.295 125.05 124.321 119.015 124.89C112.873 125.468 106.955 120.976 105.899 114.847C104.843 108.717 109.318 102.334 115.494 101.95C121.561 101.57 128.109 107.421 129.133 113.358Z" fill="url(#paint30_linear_357_1266)"/>
<path d="M129.465 111.877C130.489 117.814 126.501 123.081 120.468 123.649C114.325 124.228 108.408 119.736 107.351 113.606C106.295 107.477 110.526 102.191 116.701 101.807C122.769 101.428 128.44 105.94 129.465 111.877Z" fill="white"/>
<g style="mix-blend-mode:multiply" opacity="0.3">
<path d="M119.399 122.731C116.829 122.731 114.277 121.787 112.213 120.072C110.133 118.345 108.746 115.99 108.307 113.441C107.846 110.767 108.467 108.185 110.058 106.173C111.657 104.15 114.038 102.943 116.762 102.774C116.978 102.76 117.197 102.753 117.413 102.753C122.736 102.753 127.612 106.833 128.511 112.042C128.961 114.656 128.366 117.201 126.833 119.203C125.3 121.206 123.013 122.437 120.378 122.685C120.054 122.715 119.725 122.731 119.399 122.731Z" fill="#D8DEE8"/>
</g>
<path d="M117.015 103.624C116.887 103.629 116.762 103.661 116.647 103.72C116.533 103.778 116.433 103.86 116.353 103.96C116.274 104.061 116.217 104.178 116.187 104.302C116.157 104.427 116.154 104.557 116.179 104.682L118.928 120.623C118.978 120.891 119.126 121.132 119.343 121.298C119.559 121.465 119.83 121.545 120.102 121.525C120.231 121.515 120.356 121.479 120.469 121.418C120.582 121.357 120.681 121.272 120.76 121.17C120.838 121.068 120.894 120.95 120.923 120.825C120.953 120.7 120.956 120.57 120.932 120.443L118.19 104.549C118.138 104.279 117.991 104.037 117.775 103.867C117.559 103.697 117.29 103.611 117.015 103.624Z" fill="#D8DEE8"/>
<g style="mix-blend-mode:multiply" opacity="0.3">
<path d="M120.932 120.443L118.19 104.549C118.138 104.279 117.991 104.037 117.775 103.867C117.559 103.697 117.29 103.611 117.015 103.624C116.837 103.634 116.665 103.696 116.521 103.802C116.553 103.797 116.586 103.793 116.62 103.791C116.894 103.778 117.164 103.864 117.38 104.034C117.596 104.204 117.743 104.446 117.795 104.715L120.539 120.61C120.571 120.779 120.555 120.953 120.492 121.113C120.43 121.273 120.323 121.411 120.185 121.514C120.305 121.494 120.42 121.45 120.523 121.386C120.626 121.321 120.715 121.236 120.784 121.136C120.854 121.036 120.903 120.924 120.928 120.805C120.953 120.686 120.955 120.563 120.932 120.443Z" fill="#D8DEE8"/>
</g>
<path d="M106.326 125.907L97.5898 125.584C98.8614 129.177 99.0661 132.977 98.4262 136.719L105.917 136.993C108.966 137.106 111.553 134.703 111.665 131.654C111.776 128.606 109.373 126.02 106.326 125.907Z" fill="white"/>
<g style="mix-blend-mode:multiply" opacity="0.49">
<path d="M104.422 132.58C103.121 133.455 101.52 133.05 100.504 132.436C98.2544 130.853 95.3271 128.899 92.9859 129.851C90.1843 131.012 87.4124 131.372 84.5806 130.244C84.5657 130.381 84.5537 130.519 84.5487 130.655C84.4362 133.705 86.8389 136.292 89.8885 136.405L105.915 136.996C108.965 137.109 111.551 134.706 111.664 131.656C111.684 131.105 111.622 130.553 111.478 130.02C108.953 130.289 106.532 131.167 104.422 132.58Z" fill="#D8DEE8"/>
</g>
<path d="M97.5859 125.585L90.2935 125.316C87.2438 125.206 84.6568 127.606 84.5448 130.655C84.4323 133.705 86.8349 136.292 89.8846 136.405L98.4206 136.722C99.0622 132.977 98.8597 129.177 97.5859 125.585Z" fill="url(#paint31_linear_357_1266)"/>
<path style="mix-blend-mode:multiply" opacity="0.3" d="M98.7291 131.244C96.8412 130.065 94.7459 129.134 92.982 129.851C90.1804 131.012 87.4084 131.372 84.5766 130.244C84.5701 130.307 84.5635 130.37 84.5585 130.433C84.5525 130.507 84.5476 130.581 84.5448 130.655C84.4323 133.705 86.8349 136.292 89.8846 136.405L98.4206 136.722C98.7355 134.914 98.839 133.075 98.7291 131.244Z" fill="url(#paint32_linear_357_1266)"/>
<path d="M68.2708 114.724L76.6191 114.598C75.33 118 75.0561 121.626 75.5901 125.213L68.4316 125.322C65.5175 125.366 63.0967 123.017 63.0534 120.104C63.0084 117.189 65.3567 114.77 68.2708 114.724Z" fill="white"/>
<g style="mix-blend-mode:multiply" opacity="0.49">
<path d="M69.9485 121.136C71.1734 121.999 72.7101 121.645 73.6924 121.081C75.8733 119.616 78.7095 117.811 80.9267 118.769C83.5779 119.935 86.2176 120.336 88.9446 119.317C88.9561 119.447 88.9649 119.578 88.9666 119.711C89.011 122.625 86.6616 125.045 83.7486 125.089L68.4316 125.322C65.5175 125.366 63.0968 123.017 63.0534 120.104C63.045 119.577 63.116 119.052 63.2641 118.546C65.6694 118.854 67.9634 119.743 69.9485 121.136Z" fill="#D8DEE8"/>
</g>
<path d="M76.6205 114.598L83.5902 114.492C86.5043 114.447 88.9251 116.797 88.9684 119.71C89.0129 122.624 86.6635 125.044 83.7505 125.088L75.592 125.212C75.0575 121.625 75.3314 118.002 76.6205 114.598Z" fill="url(#paint33_linear_357_1266)"/>
<path style="mix-blend-mode:multiply" opacity="0.3" d="M75.4113 119.977C77.2382 118.891 79.2583 118.046 80.9278 118.767C83.579 119.933 86.2188 120.335 88.9457 119.315C88.9512 119.375 88.9556 119.436 88.9595 119.496C88.9633 119.567 88.9666 119.638 88.9677 119.709C89.0121 122.623 86.6627 125.043 83.7497 125.087L75.5918 125.212C75.3289 123.48 75.2684 121.723 75.4113 119.977Z" fill="url(#paint34_linear_357_1266)"/>
<defs>
<linearGradient id="paint0_linear_357_1266" x1="146.518" y1="14.0244" x2="38.1915" y2="132.57" gradientUnits="userSpaceOnUse">
<stop stop-color="#E38DDD"/>
<stop offset="1" stop-color="#9571F6"/>
</linearGradient>
<linearGradient id="paint1_linear_357_1266" x1="41.841" y1="20.9922" x2="8.9795" y2="105.956" gradientUnits="userSpaceOnUse">
<stop stop-color="#FFC444"/>
<stop offset="1" stop-color="#F36F56"/>
</linearGradient>
<linearGradient id="paint2_linear_357_1266" x1="20.0801" y1="60.9665" x2="127.735" y2="60.9665" gradientUnits="userSpaceOnUse">
<stop stop-color="#311944"/>
<stop offset="1" stop-color="#893976"/>
</linearGradient>
<linearGradient id="paint3_linear_357_1266" x1="22.584" y1="28.109" x2="129.646" y2="28.109" gradientUnits="userSpaceOnUse">
<stop stop-color="#54C38E"/>
<stop offset="1" stop-color="#F67506"/>
</linearGradient>
<linearGradient id="paint4_linear_357_1266" x1="78.7963" y1="66.0996" x2="143.086" y2="85.0436" gradientUnits="userSpaceOnUse">
<stop stop-color="#FF9085"/>
<stop offset="1" stop-color="#FB6FBB"/>
</linearGradient>
<linearGradient id="paint5_linear_357_1266" x1="80.0946" y1="61.6961" x2="144.385" y2="80.6401" gradientUnits="userSpaceOnUse">
<stop stop-color="#FF9085"/>
<stop offset="1" stop-color="#FB6FBB"/>
</linearGradient>
<linearGradient id="paint6_linear_357_1266" x1="81.3684" y1="57.3744" x2="145.659" y2="76.3184" gradientUnits="userSpaceOnUse">
<stop stop-color="#FF9085"/>
<stop offset="1" stop-color="#FB6FBB"/>
</linearGradient>
<linearGradient id="paint7_linear_357_1266" x1="37.9701" y1="97.5928" x2="39.363" y2="76.8526" gradientUnits="userSpaceOnUse">
<stop stop-color="#444B8C"/>
<stop offset="1" stop-color="#26264F"/>
</linearGradient>
<linearGradient id="paint8_linear_357_1266" x1="30.9937" y1="90.3093" x2="31.9657" y2="75.8408" gradientUnits="userSpaceOnUse">
<stop offset="0.1" stop-color="#311944"/>
<stop offset="0.27" stop-color="#371B47"/>
<stop offset="0.48" stop-color="#462150"/>
<stop offset="0.72" stop-color="#612A5F"/>
<stop offset="0.97" stop-color="#853774"/>
<stop offset="1" stop-color="#893976"/>
</linearGradient>
<linearGradient id="paint9_linear_357_1266" x1="25.9938" y1="79.9448" x2="36.7404" y2="85.7061" gradientUnits="userSpaceOnUse">
<stop offset="0.1" stop-color="#311944"/>
<stop offset="0.27" stop-color="#371B47"/>
<stop offset="0.48" stop-color="#462150"/>
<stop offset="0.72" stop-color="#612A5F"/>
<stop offset="0.97" stop-color="#853774"/>
<stop offset="1" stop-color="#893976"/>
</linearGradient>
<linearGradient id="paint10_linear_357_1266" x1="22.9532" y1="100.043" x2="24.5326" y2="76.5273" gradientUnits="userSpaceOnUse">
<stop stop-color="#444B8C"/>
<stop offset="1" stop-color="#26264F"/>
</linearGradient>
<linearGradient id="paint11_linear_357_1266" x1="11.6384" y1="98.053" x2="5.54674" y2="42.3718" gradientUnits="userSpaceOnUse">
<stop offset="0.1" stop-color="#311944"/>
<stop offset="0.69" stop-color="#6D2F66"/>
<stop offset="1" stop-color="#893976"/>
</linearGradient>
<linearGradient id="paint12_linear_357_1266" x1="38.0237" y1="121.423" x2="-2.22739" y2="99.0111" gradientUnits="userSpaceOnUse">
<stop stop-color="#311944"/>
<stop offset="1" stop-color="#893976"/>
</linearGradient>
<linearGradient id="paint13_linear_357_1266" x1="1.67826" y1="90.0497" x2="13.917" y2="110.573" gradientUnits="userSpaceOnUse">
<stop stop-color="#311944"/>
<stop offset="1" stop-color="#893976"/>
</linearGradient>
<linearGradient id="paint14_linear_357_1266" x1="31.9173" y1="65.4367" x2="36.4042" y2="125.657" gradientUnits="userSpaceOnUse">
<stop offset="0.1" stop-color="#311944"/>
<stop offset="0.69" stop-color="#6D2F66"/>
<stop offset="1" stop-color="#893976"/>
</linearGradient>
<linearGradient id="paint15_linear_357_1266" x1="24.3925" y1="99.6103" x2="56.9697" y2="124.711" gradientUnits="userSpaceOnUse">
<stop stop-color="#311944"/>
<stop offset="1" stop-color="#893976"/>
</linearGradient>
<linearGradient id="paint16_linear_357_1266" x1="16.3081" y1="95.9942" x2="29.6521" y2="95.4762" gradientUnits="userSpaceOnUse">
<stop offset="0.1" stop-color="#311944"/>
<stop offset="0.69" stop-color="#6D2F66"/>
<stop offset="1" stop-color="#893976"/>
</linearGradient>
<linearGradient id="paint17_linear_357_1266" x1="37.2592" y1="142.743" x2="32.4276" y2="88.4506" gradientUnits="userSpaceOnUse">
<stop offset="0.1" stop-color="#311944"/>
<stop offset="0.27" stop-color="#371B47"/>
<stop offset="0.48" stop-color="#462150"/>
<stop offset="0.72" stop-color="#612A5F"/>
<stop offset="0.97" stop-color="#853774"/>
<stop offset="1" stop-color="#893976"/>
</linearGradient>
<linearGradient id="paint18_linear_357_1266" x1="39.6056" y1="155.251" x2="31.4231" y2="80.4584" gradientUnits="userSpaceOnUse">
<stop stop-color="#311944"/>
<stop offset="1" stop-color="#893976"/>
</linearGradient>
<linearGradient id="paint19_linear_357_1266" x1="41.183" y1="110.901" x2="16.9497" y2="98.2335" gradientUnits="userSpaceOnUse">
<stop stop-color="#444B8C"/>
<stop offset="1" stop-color="#26264F"/>
</linearGradient>
<linearGradient id="paint20_linear_357_1266" x1="98.1973" y1="84.3263" x2="16.6535" y2="113.576" gradientUnits="userSpaceOnUse">
<stop stop-color="#444B8C"/>
<stop offset="1" stop-color="#26264F"/>
</linearGradient>
<linearGradient id="paint21_linear_357_1266" x1="45.1586" y1="48.5349" x2="13.094" y2="38.3212" gradientUnits="userSpaceOnUse">
<stop stop-color="#444B8C"/>
<stop offset="1" stop-color="#3E4177"/>
</linearGradient>
<linearGradient id="paint22_linear_357_1266" x1="33.4353" y1="70.6196" x2="24.3878" y2="19.5797" gradientUnits="userSpaceOnUse">
<stop stop-color="#AA80F9"/>
<stop offset="1" stop-color="#6165D7"/>
</linearGradient>
<linearGradient id="paint23_linear_357_1266" x1="32.7913" y1="67.0222" x2="24.2311" y2="18.7345" gradientUnits="userSpaceOnUse">
<stop stop-color="#AA80F9"/>
<stop offset="1" stop-color="#6165D7"/>
</linearGradient>
<linearGradient id="paint24_linear_357_1266" x1="24.3084" y1="43.1872" x2="46.9419" y2="43.1872" gradientUnits="userSpaceOnUse">
<stop stop-color="#AA80F9"/>
<stop offset="1" stop-color="#6165D7"/>
</linearGradient>
<linearGradient id="paint25_linear_357_1266" x1="112.303" y1="88.4028" x2="140.653" y2="88.4028" gradientUnits="userSpaceOnUse">
<stop stop-color="#FFC444"/>
<stop offset="1" stop-color="#F36F56"/>
</linearGradient>
<linearGradient id="paint26_linear_357_1266" x1="112.301" y1="88.4028" x2="140.651" y2="88.4028" gradientUnits="userSpaceOnUse">
<stop stop-color="#FFC444"/>
<stop offset="1" stop-color="#F36F56"/>
</linearGradient>
<linearGradient id="paint27_linear_357_1266" x1="135.959" y1="49.9956" x2="117.304" y2="57.8336" gradientUnits="userSpaceOnUse">
<stop stop-color="#EBEFF2"/>
<stop offset="1" stop-color="white"/>
</linearGradient>
<linearGradient id="paint28_linear_357_1266" x1="96.8479" y1="113.215" x2="101.086" y2="140.69" gradientUnits="userSpaceOnUse">
<stop stop-color="#D8DEE8"/>
<stop offset="1" stop-color="#97A6B7"/>
</linearGradient>
<linearGradient id="paint29_linear_357_1266" x1="93.9826" y1="113.505" x2="122.731" y2="100.719" gradientUnits="userSpaceOnUse">
<stop stop-color="#D8DEE8"/>
<stop offset="1" stop-color="#97A6B7"/>
</linearGradient>
<linearGradient id="paint30_linear_357_1266" x1="105.743" y1="113.435" x2="129.264" y2="113.435" gradientUnits="userSpaceOnUse">
<stop stop-color="#D8DEE8"/>
<stop offset="1" stop-color="#97A6B7"/>
</linearGradient>
<linearGradient id="paint31_linear_357_1266" x1="83.2944" y1="121.21" x2="106.131" y2="145.098" gradientUnits="userSpaceOnUse">
<stop stop-color="#FF9085"/>
<stop offset="1" stop-color="#FB6FBB"/>
</linearGradient>
<linearGradient id="paint32_linear_357_1266" x1="84.4665" y1="132.725" x2="98.7657" y2="133.252" gradientUnits="userSpaceOnUse">
<stop stop-color="#FF9085"/>
<stop offset="1" stop-color="#FB6FBB"/>
</linearGradient>
<linearGradient id="paint33_linear_357_1266" x1="91.2776" y1="112.051" x2="69.0818" y2="134.5" gradientUnits="userSpaceOnUse">
<stop stop-color="#FF9085"/>
<stop offset="1" stop-color="#FB6FBB"/>
</linearGradient>
<linearGradient id="paint34_linear_357_1266" x1="89.9729" y1="123.03" x2="76.3067" y2="123.303" gradientUnits="userSpaceOnUse">
<stop stop-color="#FF9085"/>
<stop offset="1" stop-color="#FB6FBB"/>
</linearGradient>
</defs>
</svg>
