<svg width="238" height="192" viewBox="0 0 238 192" fill="none" xmlns="http://www.w3.org/2000/svg">
<g clip-path="url(#clip0_53_55057)">
<path d="M153.111 102.648L154.336 105.133L157.065 105.53L155.088 107.457L155.556 110.185L153.111 108.899L150.666 110.185L151.133 107.457L149.156 105.53L151.891 105.133L153.111 102.648Z" fill="#E2A54D"/>
<path d="M85.5052 58.562L86.7247 61.0409L89.4596 61.4382L87.4824 63.3715L87.9501 66.0994L85.5052 64.8066L83.0603 66.0994L83.528 63.3715L81.5508 61.4382L84.2857 61.0409L85.5052 58.562Z" fill="#E2A54D"/>
<path d="M136.38 37.1653L137.061 42.2001L141.767 43.0007L137.232 44.1156L136.149 48.4981L135.445 43.9021L131.117 43.3328L135.587 42.1883L136.38 37.1653Z" fill="#E2A54D"/>
<path d="M72.0218 95.2825C69.5118 94.6005 67.0078 93.966 64.551 93.0942C62.1513 92.2351 59.8066 91.229 57.5301 90.0816C52.9308 87.7461 48.5962 84.9208 44.6013 81.6546C40.4759 78.2711 36.6675 74.5175 33.2234 70.4404C29.6606 66.2203 26.3967 61.7557 23.4557 57.0794C20.4958 52.3885 17.7431 47.5375 15.239 42.5738C14.9312 41.9808 14.647 41.3878 14.3274 40.7473C14.0077 40.1068 13.1434 40.6702 13.4276 41.2691C15.902 46.3277 18.5068 51.321 21.4193 56.1424C24.2931 60.9631 27.5058 65.5727 31.0331 69.9363C34.4264 74.1285 38.1909 78.0049 42.2807 81.5182C46.2741 84.9493 50.6176 87.9488 55.2392 90.4671C59.8287 92.9999 64.7365 94.9047 69.8315 96.1305C70.4235 96.2728 71.0747 96.3974 71.7081 96.4863C71.8641 96.5238 72.0284 96.5005 72.168 96.4212C72.3075 96.342 72.4118 96.2127 72.4599 96.0594C72.4832 95.9795 72.4903 95.8958 72.4808 95.8132C72.4713 95.7306 72.4453 95.6507 72.4045 95.5783C72.3637 95.5059 72.3088 95.4424 72.2431 95.3916C72.1773 95.3408 72.1021 95.3037 72.0218 95.2825Z" fill="#51510C"/>
<path d="M21.4171 56.1424C21.4171 56.1424 3.65771 43.2677 1.21875 18.9119C1.21875 18.9356 22.1512 46.2032 21.4171 56.1424Z" fill="#707217"/>
<path d="M29.7885 68.5962C29.7885 68.5962 10.9457 56.1425 0 59.4635C0 59.4338 17.937 71.6147 29.7885 68.5962Z" fill="#707217"/>
<path d="M35.8672 75.8724C35.8672 75.8724 15.1952 70.375 3.34375 73.1326C3.34375 73.1326 23.406 79.8635 35.8672 75.8724Z" fill="#707217"/>
<path d="M41.3388 81.0496C41.3388 81.0496 15.1969 79.5314 7.00391 85.6159C6.99207 85.6159 31.3106 90.1882 41.3388 81.0496Z" fill="#707217"/>
<path d="M46.9074 85.7939C46.9074 85.7939 18.5397 88.9963 10.6367 97.8266C10.6367 97.7969 41.84 93.8236 46.9074 85.7939Z" fill="#707217"/>
<path d="M32.5238 35.072C32.5238 35.072 24.9286 46.9327 30.3985 66.7399C30.3985 66.7399 37.3898 52.1217 32.5238 35.072Z" fill="#707217"/>
<path d="M37.3908 74.3545C37.3908 74.3545 34.9578 62.1736 40.4277 38.7251C40.4277 38.7251 47.1171 59.1076 37.3908 74.3545Z" fill="#707217"/>
<path d="M42.8719 80.1365C42.8719 80.1365 41.9602 59.7362 49.8632 42.989C49.8513 42.989 55.6291 68.264 42.8719 80.1365Z" fill="#707217"/>
<path d="M52.6455 86.9801C52.6455 86.9801 51.6747 65.5539 61.099 47.8934C61.099 47.84 63.3426 77.9245 52.6455 86.9801Z" fill="#707217"/>
<path d="M61.7031 91.7243C61.7031 91.7243 62.011 65.5419 75.0819 52.7503C75.0819 52.7325 73.8624 82.5738 61.7031 91.7243Z" fill="#707217"/>
<path d="M191.492 120.445C144.933 121.886 161.84 57.2573 187.473 55.3892C187.751 54.3455 187.378 37.6457 187.301 33.8622C187.295 33.7767 187.307 33.6909 187.337 33.6107C187.367 33.5304 187.414 33.4576 187.475 33.3973C187.535 33.337 187.608 33.2906 187.689 33.2613C187.769 33.232 187.855 33.2205 187.94 33.2276L204.747 33.5656C204.904 33.5656 205.054 33.6281 205.165 33.7393C205.276 33.8506 205.339 34.0014 205.339 34.1587C205.339 37.8355 205.427 54.6776 205.7 55.7272C231.374 57.6131 247.73 121.88 201.177 120.415L191.492 120.445Z" fill="#FF7733"/>
<path d="M193.488 28.7917C193.049 28.7459 192.635 28.5625 192.306 28.2676C191.976 27.9727 191.748 27.5813 191.653 27.149C190.546 22.3336 186.87 6.24465 187.054 5.20685C187.273 3.96148 203.972 -1.90953 205.281 0.676085C206.388 2.8703 203.611 21.2365 202.717 26.9474C202.644 27.4188 202.413 27.8512 202.062 28.1743C201.712 28.4974 201.262 28.692 200.787 28.7265C198.358 28.9 195.92 28.9218 193.488 28.7917Z" fill="#633C21"/>
<path d="M203.744 124.205C203.152 124.205 202.507 124.205 201.873 124.205H190.371C178.673 124.537 169.533 121.708 163.223 115.801C157.794 110.713 154.71 103.478 154.296 94.8674C153.84 85.3789 156.818 74.7043 162.27 66.3188C167.917 57.6428 175.607 52.2877 183.439 51.5642C183.599 48.8422 183.279 34.5145 183.013 24.8777C183.01 24.7981 183.023 24.7188 183.052 24.6444C183.08 24.57 183.123 24.5021 183.178 24.4448C183.234 24.3863 183.301 24.3398 183.376 24.3082C183.45 24.2765 183.53 24.2605 183.611 24.261H208.628C208.708 24.2605 208.788 24.2765 208.863 24.3082C208.937 24.3398 209.004 24.3863 209.06 24.4448C209.115 24.5021 209.158 24.57 209.187 24.6444C209.215 24.7188 209.228 24.7981 209.226 24.8777C208.959 34.4789 208.634 48.7947 208.799 51.5642C216.643 52.2936 224.333 57.6487 229.98 66.3247C235.421 74.6984 238.398 85.3729 237.937 94.8792C237.522 103.49 234.432 110.725 229.004 115.813C223.048 121.376 214.547 124.205 203.744 124.205ZM190.365 122.971H201.891C232.082 123.861 236.332 103.561 236.753 94.7962C237.203 85.533 234.302 75.1313 228.986 66.9593C223.433 58.4196 215.868 53.2247 208.237 52.7265C208.112 52.7195 207.993 52.6733 207.897 52.5945C207.8 52.5157 207.73 52.4083 207.698 52.2877C207.343 51.0423 207.87 30.9385 208.024 25.4886H184.232C184.38 30.9682 184.913 51.0423 184.558 52.2936C184.524 52.4132 184.455 52.5193 184.358 52.5969C184.261 52.6746 184.143 52.7199 184.019 52.7265C176.394 53.2425 168.835 58.4374 163.3 66.9593C157.972 75.1253 155.077 85.5331 155.521 94.7903C155.93 103.371 160.008 123.007 188.518 123.007C189.11 123.007 189.738 123.007 190.371 122.977L190.365 122.971Z" fill="url(#paint0_radial_53_55057)"/>
<path d="M223.542 59.5879H223.4C223.322 59.5706 223.249 59.5377 223.184 59.4913C223.119 59.4449 223.064 59.3859 223.023 59.3178C222.982 59.2497 222.954 59.1739 222.943 59.095C222.931 59.016 222.936 58.9356 222.956 58.8585C222.991 58.7221 226.277 45.1179 223.37 39.4129C220.558 33.8859 208.89 35.2143 208.772 35.2617C208.693 35.2725 208.613 35.2672 208.537 35.2463C208.46 35.2254 208.388 35.1893 208.326 35.14C208.263 35.0908 208.211 35.0294 208.173 34.9597C208.135 34.8899 208.111 34.8131 208.103 34.7339C208.092 34.655 208.098 34.5748 208.118 34.498C208.139 34.4212 208.175 34.3494 208.225 34.2869C208.274 34.2243 208.335 34.1724 208.405 34.134C208.474 34.0957 208.551 34.0718 208.63 34.0638C209.145 33.9986 221.245 32.6227 224.442 38.897C227.55 44.9993 224.27 58.6034 224.128 59.1787C224.088 59.3015 224.009 59.408 223.904 59.4818C223.798 59.5557 223.671 59.5929 223.542 59.5879Z" fill="url(#paint1_radial_53_55057)"/>
<path d="M228.042 64.3441H227.9C227.822 64.3261 227.749 64.2926 227.684 64.2455C227.619 64.1984 227.565 64.1387 227.524 64.07C227.483 64.0013 227.457 63.925 227.446 63.8458C227.435 63.7665 227.441 63.6858 227.462 63.6087C227.509 63.4249 232.121 44.6969 228.356 36.8393C224.668 29.1654 208.785 30.3456 208.625 30.3574C208.546 30.3647 208.467 30.3561 208.391 30.3322C208.316 30.3083 208.246 30.2695 208.186 30.218C208.126 30.1666 208.077 30.1037 208.041 30.0329C208.006 29.9621 207.985 29.8849 207.98 29.8059C207.972 29.7266 207.979 29.6464 208.003 29.5702C208.026 29.494 208.065 29.4234 208.116 29.3625C208.168 29.3016 208.231 29.2517 208.302 29.2158C208.373 29.1799 208.451 29.1587 208.53 29.1536C209.217 29.1002 225.396 27.9023 229.439 36.3174C233.393 44.5665 228.847 63.1165 228.628 63.9052C228.593 64.0336 228.517 64.1466 228.411 64.2262C228.304 64.3058 228.175 64.3473 228.042 64.3441Z" fill="url(#paint2_radial_53_55057)"/>
<path d="M216.718 94.5707C214.142 100.157 206.997 105.334 200.953 105.287C205.097 103.182 209.513 100.999 212.988 97.6604C213.444 97.4825 216.913 93.4499 216.718 94.5707Z" fill="#F0E1A3"/>
<path d="M184.064 93.5627C187.474 97.1209 191.215 100.424 195.643 102.684C197.122 103.442 198.639 104.123 200.189 104.724C200.235 104.742 200.272 104.778 200.292 104.823C200.312 104.869 200.313 104.92 200.296 104.967C194.802 104.878 189.244 101.337 185.786 97.0616C185.538 96.7176 183.034 93.284 184.064 93.5627Z" fill="#F0E1A3"/>
<path d="M184.307 87.5078C187.628 90.9118 191.038 94.2446 195.04 96.848C196.354 97.7257 197.722 98.5441 199.125 99.3506C199.146 99.3623 199.166 99.3783 199.181 99.3976C199.196 99.417 199.208 99.4392 199.214 99.463C199.221 99.4868 199.223 99.5117 199.22 99.5362C199.216 99.5607 199.208 99.5843 199.196 99.6056C193.625 98.6983 188.363 94.5767 185.201 89.874C185.053 89.5478 183.425 87.2409 184.307 87.5078Z" fill="#F0E1A3"/>
<path d="M185.716 80.5633C188.398 84.1215 191.204 87.5848 194.702 90.378C195.851 91.315 197.07 92.1926 198.302 93.0585C198.342 93.0871 198.37 93.1305 198.378 93.1793C198.387 93.228 198.377 93.2783 198.349 93.3194C193.163 92.1333 188.558 87.6856 186.213 82.8998C186.131 82.544 184.899 80.2312 185.716 80.5633Z" fill="#F0E1A3"/>
<path d="M187.585 75.5998C189.835 78.1854 191.978 80.854 194.606 83.0779C195.47 83.8251 196.382 84.5427 197.294 85.284C197.313 85.299 197.329 85.3177 197.341 85.3391C197.353 85.3604 197.36 85.3839 197.363 85.4082C197.366 85.4325 197.364 85.4571 197.357 85.4806C197.35 85.5041 197.339 85.5259 197.323 85.5449C193.262 84.7621 189.627 81.2217 187.851 77.4797C187.774 77.1476 186.827 75.327 187.585 75.5998Z" fill="#F0E1A3"/>
<path d="M189.174 70.8615C191.044 72.7533 192.607 74.8882 194.501 76.7919C194.845 77.3434 196.479 78.4464 196.354 79.0157C192.998 78.2211 190.062 75.0365 189.037 71.7333C188.966 71.4723 188.653 70.6303 189.174 70.8615Z" fill="#F0E1A3"/>
<path d="M192.311 66.8169C193.963 68.1809 194.928 70.1438 195.715 72.1008L195.283 72.4448C194.94 71.745 196.011 71.9466 195.816 72.4448C195.129 72.9488 193.318 70.7072 192.951 70.1141C192.566 69.7168 191.358 66.7339 192.311 66.8169Z" fill="#F0E1A3"/>
<path d="M192.707 61.5981C194.217 62.9147 195.116 64.7116 195.992 66.4907L195.507 66.805C195.365 65.9569 196.371 66.4966 196.052 66.9532C194.406 66.9532 192.464 64.166 192.37 62.5589C192.375 62.292 192.21 61.3965 192.707 61.5981Z" fill="#F0E1A3"/>
<path d="M193.277 57.441C194.313 57.9569 196.859 61.7523 196.314 62.719C195.461 62.3181 194.715 61.7197 194.137 60.9732C193.56 60.2267 193.168 59.3535 192.993 58.4254C192.987 58.1586 192.768 57.2868 193.277 57.441Z" fill="#F0E1A3"/>
<path d="M201.261 58.6806C201.101 60.3649 198.011 63.9231 196.395 63.674C196.43 62.6658 200.444 57.6666 201.261 58.6806Z" fill="#F0E1A3"/>
<path d="M200.681 62.9148C200.681 65.1387 198.71 67.0661 196.62 67.5168C196.582 67.5223 196.543 67.5172 196.508 67.5021C196.473 67.487 196.443 67.4624 196.421 67.4311C196.399 67.3998 196.386 67.3629 196.383 67.3247C196.381 67.2864 196.389 67.2482 196.407 67.2143C196.851 66.4552 199.971 62.0727 200.681 62.9148Z" fill="#F0E1A3"/>
<path d="M202.026 70.3277C202.12 72.6999 200.842 74.8882 199.196 76.4893C196.929 78.4879 196.396 78.2684 198.178 75.665C198.645 75.1194 201.576 69.373 202.026 70.3277Z" fill="#F0E1A3"/>
<path d="M201.131 66.9653C201.303 68.4538 198.432 71.9112 197.059 71.4308C197.1 70.4404 200.261 66.0639 201.131 66.9653Z" fill="#F0E1A3"/>
<path d="M206.417 73.8563C205.109 78.0075 201.616 81.4056 197.668 83.1313C197.627 83.1479 197.582 83.15 197.541 83.1373C197.499 83.1246 197.463 83.0979 197.439 83.0617C197.414 83.0255 197.403 82.9819 197.407 82.9384C197.411 82.8949 197.43 82.8541 197.46 82.8229C199.586 80.6406 201.894 78.2744 203.913 75.9793C204.256 75.7481 206.328 72.9549 206.417 73.8563Z" fill="#F0E1A3"/>
<path d="M209.145 77.5449C208.269 82.218 203.616 88.2195 199.152 89.4708C201.591 86.5709 204.48 83.8311 206.599 80.5753C206.943 80.2907 209.009 76.5487 209.145 77.5449Z" fill="#F0E1A3"/>
<path d="M212.532 82.722C210.798 88.4803 204.801 94.8851 199.059 96.2253C202.61 93.189 206.452 90.1705 209.318 86.3276C209.726 86.0667 212.532 81.5952 212.532 82.722Z" fill="#F0E1A3"/>
<path d="M213.433 90.1112C212.107 95.2943 205.411 101.444 200.32 102.203C203.701 99.4633 207.424 96.8065 210.325 93.3788C210.733 93.2068 213.521 88.9963 213.433 90.1112Z" fill="#F0E1A3"/>
<path d="M202.705 108.483C202.267 106.811 201.728 105.168 201.284 103.496C200.84 101.824 200.438 100.145 200.065 98.4552C199.325 95.0749 198.739 91.6649 198.289 88.2313C197.839 84.7976 197.507 81.3699 197.294 77.9244C197.081 74.4789 196.951 70.9622 196.975 67.4811C196.961 63.9669 197.272 60.459 197.904 57.0022C197.987 56.5693 198.082 56.1423 198.194 55.7153C198.307 55.2884 197.762 55.1994 197.667 55.5434C197.183 57.2435 196.808 58.9727 196.542 60.7205C196.303 62.4789 196.155 64.2485 196.098 66.0222C195.974 69.5389 196.057 73.0675 196.235 76.5841C196.412 80.1008 196.696 83.5938 197.117 87.0749C197.537 90.556 198.076 94.0015 198.774 97.4233C199.473 100.845 200.331 104.237 201.349 107.576C201.48 107.997 201.622 108.418 201.782 108.833C201.977 109.373 202.853 109.029 202.705 108.483Z" fill="#F0E1A3"/>
<path d="M198.73 52.5843C199.132 53.7703 198.357 58.3248 197.238 58.7577C196.853 57.7021 196.759 56.5617 196.968 55.4573C197.176 54.3529 197.679 53.3254 198.422 52.4834C198.447 52.4651 198.477 52.4531 198.508 52.4484C198.539 52.4436 198.571 52.4462 198.601 52.456C198.631 52.4658 198.658 52.4825 198.681 52.5048C198.703 52.5271 198.72 52.5543 198.73 52.5843Z" fill="#F0E1A3"/>
<path d="M189.765 8.03565C190.001 8.12959 190.206 8.28775 190.357 8.49228C190.473 8.65638 190.55 8.8451 190.582 9.04381C190.612 9.24028 190.612 9.44036 190.582 9.63684C190.548 9.87457 190.465 10.1027 190.339 10.307C190.308 10.358 190.259 10.3947 190.201 10.4091C190.143 10.4236 190.082 10.4146 190.031 10.3841C189.825 10.264 189.645 10.1025 189.504 9.90963C189.385 9.74592 189.293 9.5636 189.232 9.36997C189.164 9.18006 189.144 8.9765 189.173 8.77694C189.209 8.52322 189.316 8.2848 189.481 8.08902C189.515 8.04905 189.562 8.02197 189.613 8.01226C189.665 8.00256 189.718 8.01081 189.765 8.03565Z" fill="#8E5B38"/>
<path d="M192.585 9.88578C192.818 9.96486 193.023 10.1089 193.177 10.3009C193.295 10.4508 193.372 10.6284 193.402 10.8168C193.471 11.2279 193.387 11.6501 193.165 12.0029C193.134 12.0512 193.085 12.0862 193.03 12.1015C192.974 12.1168 192.915 12.1113 192.863 12.0859C192.661 11.9779 192.482 11.8308 192.336 11.653C192.217 11.5019 192.125 11.3314 192.064 11.1489C191.996 10.9714 191.976 10.7793 192.005 10.5915C192.042 10.347 192.149 10.1185 192.313 9.93322C192.348 9.8985 192.393 9.87535 192.441 9.86688C192.49 9.8584 192.54 9.86499 192.585 9.88578Z" fill="#8E5B38"/>
<path d="M192.05 15.063C192.285 15.1586 192.49 15.3164 192.642 15.5197C192.757 15.6841 192.832 15.8729 192.861 16.0712C192.892 16.2677 192.892 16.4678 192.861 16.6642C192.824 16.9021 192.74 17.1301 192.613 17.3344C192.598 17.3594 192.578 17.3813 192.555 17.3987C192.532 17.4162 192.506 17.4289 192.478 17.4361C192.45 17.4432 192.42 17.4447 192.392 17.4405C192.363 17.4363 192.336 17.4264 192.311 17.4114C192.103 17.293 191.923 17.1312 191.784 16.937C191.66 16.7749 191.566 16.5922 191.506 16.3974C191.444 16.2061 191.424 16.004 191.446 15.8043C191.488 15.5522 191.594 15.3152 191.754 15.1164C191.79 15.0755 191.839 15.048 191.893 15.0383C191.947 15.0286 192.002 15.0373 192.05 15.063Z" fill="#8E5B38"/>
<path d="M193.709 20.9281C193.924 20.9459 194.13 21.0263 194.301 21.1594C194.412 21.2543 194.489 21.3836 194.52 21.5271C194.553 21.6715 194.553 21.8215 194.52 21.9659C194.484 22.159 194.405 22.3415 194.289 22.4996C194.257 22.5459 194.211 22.581 194.158 22.6001C194.105 22.6193 194.047 22.6214 193.993 22.6064C193.803 22.565 193.626 22.4774 193.478 22.3514C193.363 22.2587 193.269 22.1411 193.206 22.0074C193.143 21.8744 193.122 21.7255 193.146 21.5804C193.19 21.3718 193.293 21.1802 193.442 21.0289C193.475 20.9914 193.517 20.9626 193.563 20.9451C193.61 20.9275 193.66 20.9216 193.709 20.9281Z" fill="#8E5B38"/>
<path d="M182.678 115.446H8.53516C15.6034 152.836 69.3198 158.778 91.0691 159.644V159.751C90.6547 159.787 100.582 159.787 100.168 159.751V159.644C121.894 158.79 175.61 152.848 182.678 115.446Z" fill="#4B597F"/>
<path d="M95.5941 146.289C143.691 146.289 182.68 132.026 182.68 114.431C182.68 96.8369 143.691 82.5737 95.5941 82.5737C47.4977 82.5737 8.50781 96.8369 8.50781 114.431C8.50781 132.026 47.4977 146.289 95.5941 146.289Z" fill="#F4EDDA"/>
<path d="M95.5973 146.793C72.2792 146.793 50.3463 143.466 33.8419 137.429C17.1835 131.339 8.00781 123.155 8.00781 114.432C8.00781 105.708 17.1835 97.5302 33.8419 91.4338C50.3463 85.3967 72.2792 82.0698 95.5973 82.0698C118.915 82.0698 140.842 85.3967 157.347 91.4338C174.005 97.5302 183.169 105.696 183.169 114.432C183.169 123.167 173.993 131.339 157.335 137.429C140.842 143.466 118.915 146.793 95.5973 146.793ZM95.5973 83.078C72.3917 83.078 50.6068 86.3812 34.1911 92.3767C26.2467 95.2826 20.0191 98.6569 15.6799 102.399C11.3407 106.141 9.01418 110.286 9.01418 114.432C9.01418 118.577 11.2578 122.627 15.6799 126.452C20.102 130.277 26.2467 133.569 34.1911 136.486C50.5831 142.488 72.3917 145.791 95.5973 145.791C118.803 145.791 140.588 142.488 157.003 136.486C164.942 133.581 171.17 130.206 175.509 126.452C179.937 122.627 182.18 118.583 182.18 114.432C182.18 110.28 179.937 106.242 175.509 102.411C171.17 98.6569 164.942 95.2944 157.003 92.3767C140.606 86.3871 118.797 83.078 95.5973 83.078Z" fill="#BFC5E2"/>
<path d="M179.69 103.484C177.944 102.512 175.091 104.783 174.031 103.081C172.741 100.999 177.885 99.0779 176.742 96.9133C174.966 94.3988 171.906 98.6331 169.775 97.5953C166.46 95.5612 171.616 91.1194 169.84 88.5456C168.911 87.1579 166.732 87.3595 165.341 88.2728C163.95 89.1861 162.943 90.6449 161.534 91.5226C157.793 93.4618 156.136 91.1431 156.799 87.49C156.799 86.0074 155.544 84.1097 153.987 85.5034C153.782 85.7032 153.623 85.945 153.521 86.2122C153.419 86.4794 153.376 86.7656 153.395 87.0512C153.424 88.083 152.507 89.8266 151.382 89.3936C149.559 88.6879 152.009 84.6138 150.08 84.3054C148.15 83.997 149.186 88.6524 147.185 88.682C144.923 88.3203 146.474 85.6398 146.966 84.4122C148.067 80 141.786 78.1142 140.288 82.4137C139.744 84.2283 140.413 86.8317 138.725 87.6205C138.282 87.8131 137.784 87.8407 137.321 87.6983C136.859 87.5559 136.463 87.2528 136.204 86.8436C135.655 85.9593 135.471 84.8964 135.689 83.8784C135.398 80.6286 131.716 83.4574 132.936 85.5982C130.651 86.2387 128.526 82.8762 130.082 81.0793C127.507 78.1557 122.245 78.3395 119.877 81.4292C116.23 75.6234 108.351 72.5634 106.338 81.2217C103.651 85.2306 97.6656 81.7495 99.8263 77.4203C100.341 75.9081 98.0504 74.7813 96.6119 75.487C95.1734 76.1928 94.4275 77.7584 93.3797 78.9622C91.1893 81.3343 88.9457 80.8243 87.9394 77.9066C85.8319 74.6509 80.7113 76.8925 81.694 80.6642C81.102 79.3121 78.6689 79.4782 77.6093 80.7235C75.49 80.2016 74.3238 82.639 75.2414 84.3766C74.8955 84.4156 74.5736 84.5726 74.3297 84.8214C73.8325 83.6353 72.4887 84.3232 71.6836 83.914C71.4941 83.6768 72.1275 82.467 72.1927 82.1349C72.6959 79.4959 69.4755 77.7524 67.2319 78.6123C66.6273 78.8446 66.1038 79.2492 65.7261 79.7762C65.3484 80.3031 65.1331 80.9293 65.1067 81.5775C65.1067 82.1705 65.6986 83.1134 65.4026 83.5997C64.9468 84.3173 63.9227 84.0208 63.4728 83.4455C64.3312 77.7406 56.742 77.2721 58.4765 83.4455C54.7648 82.7398 54.8654 88.1898 52.6751 86.9444C51.4911 86.0193 52.5567 84.1216 52.4797 82.9415C51.6983 79.1164 44.9911 81.9333 46.11 85.3136C46.3527 86.1616 46.8618 86.9088 46.998 87.7865C45.8436 86.7309 44.63 88.7828 45.9738 89.447C46.3231 89.8859 45.151 90.3959 44.8728 90.4255C41.9128 90.7695 43.3869 85.9422 40.4921 85.6101C38.1834 83.0601 34.3888 86.2506 37.3132 88.6939C37.3132 88.7413 37.3132 88.7888 37.2658 88.8303C36.0818 88.1601 34.59 88.9429 34.8091 90.3306C34.8979 90.9237 35.6378 91.5167 35.5905 92.0326C35.5313 92.7443 34.6433 92.8214 34.1697 92.5011C32.7371 91.2261 33.7376 88.682 31.2098 88.1364C26.0122 87.2943 29.1557 95.5612 25.5979 96.2432C21.6908 94.0667 16.4162 94.6953 17.8666 100.264C17.6357 103.822 9.81564 103.229 11.9053 107.546C12.8466 108.845 14.2259 107.434 15.1435 108.833C16.4577 110.998 13.7582 112.688 13.5392 114.764C13.3202 116.839 15.4927 117.195 17.0911 116.697C18.9558 116.199 20.7318 117.681 19.2933 119.573C18.7873 120.289 18.5786 121.174 18.7112 122.041C18.8437 122.909 19.307 123.691 20.0036 124.222C20.3698 124.493 20.7948 124.672 21.2437 124.745C21.6926 124.818 22.1524 124.783 22.585 124.642C23.0177 124.502 23.4109 124.261 23.732 123.938C24.0531 123.616 24.2929 123.221 24.4316 122.787C25.1716 120.801 24.4317 118.191 26.3437 116.744C28.3565 115.398 29.8246 117.824 28.7117 119.615C28.315 120.486 27.7527 121.34 27.7823 122.295C27.8119 123.25 28.8656 124.205 29.6766 123.712C29.6766 122.947 31.6775 122.977 32.1274 123.588C33.0687 125.082 31.2335 126.375 30.4935 127.502C30.0767 128.288 29.9888 129.208 30.2491 130.06C30.5094 130.911 31.0967 131.624 31.8817 132.042C32.6667 132.459 33.5852 132.547 34.435 132.286C35.2849 132.026 35.9965 131.437 36.4133 130.651C35.6319 132.163 35.9279 135.247 38.1893 134.666C39.5331 133.575 40.0007 134.399 41.1492 135.259C42.4219 135.959 44.0321 134.6 44.1624 133.148C44.4524 129.892 40.1014 127.259 42.0372 123.944C42.169 123.706 42.3518 123.5 42.5723 123.342C42.7929 123.183 43.0457 123.075 43.3128 123.026C43.5798 122.976 43.8545 122.987 44.117 123.056C44.3795 123.126 44.6235 123.253 44.8313 123.428C46.9743 125.207 42.416 129.702 45.5358 130.983C47.146 131.386 50.5617 128.16 50.1118 131.434C49.5198 132.774 47.6847 132.673 46.8973 133.776C45.3049 136.409 50.9524 141.895 53.3677 139.908C55.4751 138.188 53.5275 134.725 55.6409 132.946C55.94 132.681 56.3289 132.54 56.7282 132.552C57.1276 132.564 57.5072 132.728 57.7898 133.011C59.0803 134.559 56.6058 136.356 57.0616 138.004C57.2392 138.722 58.2811 139.125 58.7606 138.71C58.1213 139.831 58.7606 141.586 60.1577 141.741C62.8394 141.877 62.7387 139.131 61.8863 137.322C61.3831 135.265 62.5552 134.411 64.4318 134.85C67.5693 134.772 67.3621 127.472 71.0561 128.919C72.4827 129.72 71.8552 131.967 70.7364 133.165C69.6176 134.363 68.0962 135.537 68.1968 137.192C68.3093 138.971 70.8725 139.944 72.1335 138.704C69.4518 142.007 75.4308 144.765 76.0879 140.537C76.0823 140.291 76.1263 140.047 76.2173 139.819C76.3084 139.591 76.4446 139.384 76.6177 139.21C76.7908 139.036 76.9972 138.898 77.2246 138.807C77.452 138.715 77.6956 138.67 77.9408 138.675C80.6994 139.191 77.1771 143.158 79.036 144.308C80.6817 145.311 81.6821 141.634 83.6001 141.521C85.4175 141.408 86.2285 144.557 88.0341 144.297C89.3838 144.101 89.6028 142.102 88.8628 140.952C88.1229 139.801 86.862 139.036 86.2049 137.832C85.5478 136.629 86.0865 134.624 87.4539 134.713C88.0814 134.755 88.7149 135.247 89.2713 134.559C89.492 134.274 89.592 133.913 89.55 133.555C89.5079 133.197 89.327 132.869 89.0464 132.643C87.5131 131.291 88.5609 128.735 90.3369 128.427C90.7046 128.383 91.0775 128.418 91.4307 128.53C91.7839 128.642 92.1093 128.827 92.3853 129.075C92.6613 129.322 92.8817 129.626 93.0317 129.965C93.1817 130.304 93.2579 130.671 93.2553 131.042C93.1369 132.987 90.8164 134.428 91.0946 136.38C91.3847 138.443 94.1315 138.888 96.2034 138.811C93.1133 139.997 94.7886 144.907 98.0977 143.3C99.921 142.434 99.1396 140.697 100.152 139.546C100.292 139.376 100.479 139.252 100.69 139.19C100.901 139.127 101.126 139.13 101.336 139.196C102.52 139.588 101.756 141.349 101.928 142.583C102.319 145.162 106.149 144.575 105.758 141.99C108.57 145.975 113.116 141.148 106.309 137.394C106.879 137.479 107.461 137.448 108.019 137.301C108.577 137.154 109.099 136.894 109.554 136.539C110.008 136.183 110.386 135.739 110.664 135.232C110.941 134.725 111.113 134.168 111.169 133.592C111.198 132.151 110.458 129.661 112.453 129.21C113.827 129.02 114.395 130.959 113.951 132.24C113.507 133.521 112.595 134.695 112.803 136.012C113.181 138.574 117.065 138.532 117.384 135.964C118.119 138.675 122.12 137.898 121.824 135.11C121.469 132.738 117.823 131.914 118.308 129.18C118.37 128.825 118.569 128.509 118.861 128.298C119.153 128.088 119.515 128 119.871 128.053C121.108 128.273 121.055 130.028 122.103 130.55C123.399 131.202 124.524 129.317 124.553 127.864C124.583 126.411 124.553 124.442 126.027 123.997C126.264 123.931 126.511 123.913 126.754 123.943C126.998 123.973 127.233 124.051 127.446 124.172C127.659 124.293 127.847 124.455 127.998 124.649C128.148 124.843 128.259 125.065 128.324 125.302C129.331 128.664 124.855 130.639 125.394 133.871C125.643 135.223 127.496 136.243 128.449 135.229C128.833 134.826 128.999 134.185 129.508 133.954C130.722 133.403 131.474 135.787 130.751 136.777C130.522 137.07 130.386 137.426 130.363 137.797C130.34 138.169 130.43 138.539 130.621 138.858C131.924 140.887 133.64 138.858 134.173 137.216C134.706 135.573 136.352 133.586 137.678 135.466C137.825 135.69 137.921 135.944 137.96 136.209C137.999 136.475 137.979 136.745 137.903 137.002C137.66 137.916 138.358 139.6 139.394 139.279C140.336 138.989 140.14 137.5 140.809 136.801C142.431 135.069 145.545 139.588 147.185 137.898C148.86 135.46 144.716 134.535 144.408 132.377C144.337 132.053 144.392 131.715 144.561 131.43C144.73 131.146 145.002 130.937 145.32 130.847C146.717 130.503 147.457 132.91 149.085 132.4C151.921 131.066 149.369 127.899 148.12 126.316C145.462 122.058 150.968 120.385 151.95 125.035C152.134 126.921 151.198 128.735 151.033 130.621C150.867 132.507 152.14 134.861 153.993 134.529C156.881 136.51 160.599 132.987 158.498 130.046C159.776 131.398 162.778 130.087 162.422 128.154C162.239 127.17 161.446 126.428 160.901 125.586C159.125 122.823 162.369 121.299 163.719 124.175C164.938 131.161 171.415 127.935 168.905 124.05C172.539 128.036 177.459 121.506 172.61 119.176C172.172 119.033 171.783 118.768 171.488 118.412C171.194 118.056 171.006 117.624 170.947 117.165C170.728 115.297 172.895 115.078 174.463 115.013C175.872 114.953 177.707 113.827 176.985 112.587C175.997 110.938 173.54 113.589 171.687 113.097C169.834 112.605 170.592 109.408 172.427 108.673C174.262 107.938 176.375 108.442 178.258 107.861C180.14 107.279 181.395 104.451 179.69 103.484Z" fill="#B2B242"/>
<path d="M162.805 98.4373C159.117 99.7894 157.625 104.723 160.165 107.772C161.017 108.958 163.083 109.782 163.616 111.514C164.528 113.785 161.153 115.884 162.604 117.924C163.444 118.861 165.161 119.11 165.729 120.421C166.404 121.963 164.315 123.351 163.083 123.22C163.894 122.627 165.83 122.099 165.203 120.652C164.285 119.276 161.893 119.324 161.426 117.444C160.798 115.185 163.894 113.156 162.29 111.093C160.419 109.45 157.844 107.374 158.016 104.397C158.012 102.99 158.474 101.622 159.332 100.507C160.189 99.3927 161.392 98.5957 162.752 98.2416C162.778 98.2345 162.805 98.2381 162.829 98.2514C162.852 98.2647 162.869 98.2868 162.876 98.3128C162.883 98.3387 162.88 98.3664 162.866 98.3898C162.853 98.4131 162.831 98.4302 162.805 98.4373Z" fill="#99962E"/>
<path d="M28.5234 115.92C31.8089 115.392 37.2136 119.11 38.812 114.562C39.2086 113.073 39.2441 111.271 40.6294 110.239C42.7605 108.46 44.8502 112.261 46.8452 110.796C47.816 110.001 48.5086 108.655 49.8051 108.311C51.5277 107.855 52.9071 109.248 54.1561 110.15C59.6556 113.945 57.3232 104.629 64.1133 105.032C64.3462 104.989 64.5684 104.901 64.7666 104.771C64.9648 104.641 65.1352 104.473 65.2676 104.276C65.3999 104.079 65.4917 103.858 65.5375 103.625C65.5832 103.393 65.582 103.153 65.534 102.921C65.8655 102.921 65.8655 103.514 65.8418 103.769C65.5754 105.204 63.9653 105.613 62.7339 105.732C59.1821 105.933 59.9575 111.164 56.7194 111.881C54.0555 112.474 52.5755 108.887 50.0596 109.248C48.3192 109.936 47.3898 112.872 45.0633 112.077C43.7254 111.763 42.5119 110.173 41.174 111.021C39.6052 112.208 40.2209 114.781 38.8061 116.276C36.8584 118.375 33.7091 117.391 31.3826 116.602C30.4543 116.277 29.4769 116.117 28.4938 116.127C28.4703 116.119 28.4504 116.103 28.4375 116.082C28.4246 116.061 28.4194 116.036 28.4229 116.011C28.4265 115.987 28.4384 115.964 28.4567 115.948C28.475 115.931 28.4986 115.921 28.5234 115.92Z" fill="#99962E"/>
<path d="M35.4003 92.8333C36.2088 94.2971 37.5168 95.42 39.0846 95.9962C40.6524 96.5723 42.375 96.5632 43.9366 95.9704C45.8547 95.1164 47.53 93.4619 49.7736 93.4085C50.5831 93.3698 51.382 93.6059 52.0409 94.0786C53.7635 95.2647 54.1187 97.8147 56.2262 98.3188C57.9015 98.556 59.4821 97.1327 61.2225 97.3344C62.2999 97.3344 63.8035 98.9 62.9215 99.7777C62.8957 99.7671 62.8747 99.7472 62.8627 99.722C62.8507 99.6968 62.8484 99.6681 62.8564 99.6413C62.9178 99.3305 62.8743 99.008 62.7329 98.7246C62.5914 98.4412 62.36 98.2129 62.0749 98.0757C60.0444 97.115 58.2507 99.4397 56.1137 99.1076C53.1538 98.7932 52.8815 94.2625 49.8091 94.3989C47.0268 94.6005 45.0141 97.364 42.1133 97.3047C39.1949 97.3996 36.2468 95.6857 35.2049 92.9222C35.1932 92.8963 35.1922 92.8667 35.2021 92.84C35.2121 92.8133 35.2323 92.7917 35.2582 92.7799C35.2841 92.7681 35.3136 92.7671 35.3403 92.7771C35.3669 92.7871 35.3885 92.8073 35.4003 92.8333Z" fill="#99962E"/>
<path d="M64.7313 83.7183C63.6954 87.235 64.2459 87.662 67.5137 88.6998C69.5027 89.7969 69.8816 92.9103 68.1056 94.298C68.0852 94.32 68.0569 94.333 68.0269 94.3341C67.997 94.3353 67.9678 94.3244 67.9458 94.304C67.9238 94.2835 67.9109 94.2552 67.9097 94.2251C67.9086 94.1951 67.9195 94.1658 67.9399 94.1438C68.2096 93.792 68.4015 93.3868 68.5028 92.9549C68.6041 92.5231 68.6124 92.0746 68.5273 91.6393C68.4422 91.204 68.2656 90.7918 68.0091 90.4302C67.7527 90.0686 67.4224 89.7658 67.0401 89.5419C66.2705 89.109 65.5364 89.2276 64.6722 88.7117C62.8962 87.5612 63.4882 85.0586 64.5833 83.6353C64.5984 83.6287 64.6148 83.6258 64.6312 83.6266C64.6476 83.6274 64.6636 83.632 64.6779 83.6401C64.6922 83.6481 64.7045 83.6594 64.7138 83.6729C64.723 83.6865 64.7291 83.702 64.7313 83.7183Z" fill="#99962E"/>
<path d="M81.1552 97.7079C79.7776 98.1134 78.5606 98.9391 77.6736 100.07C76.7865 101.201 76.2736 102.581 76.2062 104.018C76.1818 104.651 76.2597 105.284 76.4371 105.892C79.2312 113.471 74.9335 112.018 69.7359 113.233C67.368 114.532 69.505 117.385 69.4636 119.389C69.8306 123.677 63.3306 122.099 62.9518 125.551C63.1649 127.069 64.7277 128.623 63.893 130.265C62.9814 132.43 60.128 133.26 58.1094 133.059C59.5005 132.513 61.4126 132.554 62.5433 131.279C65.5802 128.617 59.8616 125.663 63.4431 123.196C64.852 122.07 67.1312 122.206 68.179 120.676C69.3629 118.233 66.0952 115.09 68.4809 112.854C71.9617 110.239 78.5445 113.91 75.7326 106.485C74.6967 103.336 76.3246 99.7479 79.1425 98.1823C79.4562 97.9629 81.611 97.1682 81.1552 97.7079Z" fill="#99962E"/>
<path d="M87.4236 94.3929C86.806 95.7838 86.5977 97.3224 86.8232 98.8279C87.0486 100.333 87.6985 101.743 88.6963 102.891C91.1886 105.696 98.1207 106.509 96.3566 111.721C95.5751 114.064 89.8803 114.319 91.6621 117.355C92.7395 118.209 94.1544 119.407 93.5979 120.99C92.0884 124.756 86.7487 127.057 83.2797 128.753C80.6927 129.583 76.7679 132.104 78.9878 135.081C80.3435 136.071 83.9131 137.151 82.1964 139.446L81.9418 138.983C82.6389 138.854 83.3549 138.867 84.0467 139.022C84.7385 139.178 85.3918 139.472 85.9671 139.887C86.5423 140.302 87.0278 140.829 87.3941 141.437C87.7604 142.045 88 142.721 88.0984 143.425C88.0984 143.561 87.8853 143.603 87.8735 143.454C87.7566 142.811 87.5128 142.198 87.1564 141.65C86.8001 141.103 86.3383 140.632 85.7981 140.265C85.2579 139.899 84.6501 139.644 84.0103 139.515C83.3706 139.386 82.7116 139.387 82.0721 139.517C82.0022 139.535 81.928 139.524 81.8659 139.488C81.8037 139.451 81.7587 139.391 81.7405 139.321C83.1731 136.534 78.5498 136.801 77.8572 134.672C76.5666 131.262 80.2251 128.884 82.9245 127.929C85.1918 126.85 95.8474 121.773 91.7213 118.737C89.7856 117.669 89.9454 115.113 91.7213 113.957C92.9053 112.984 94.7878 112.724 95.5219 111.312C97.0432 106.01 87.7551 106.259 86.6717 100.4C86.0647 98.367 86.2772 96.1762 87.2637 94.298C87.2992 94.1854 87.4887 94.2684 87.4236 94.3929Z" fill="#99962E"/>
<path d="M94.1614 90.3129C93.5741 91.8373 93.4728 93.5066 93.8714 95.0911C94.27 96.6756 95.1489 98.0974 96.3873 99.1609C99.1933 101.492 103.491 102.037 105.468 105.376C108.908 111.632 101.39 113.773 103.361 116.934C105.806 119.17 108.979 116.341 111.785 116.792C116.077 117.776 116.035 123.048 112.377 124.928C111.335 125.729 110.909 127.3 112.134 128.136C112.548 128.469 112.507 129.453 111.838 129.411C111.808 129.411 111.78 129.4 111.758 129.378C111.737 129.357 111.725 129.329 111.725 129.299C111.725 129.269 111.737 129.24 111.758 129.219C111.78 129.198 111.808 129.186 111.838 129.186C112.045 129.186 112.164 128.884 112.098 128.658C109.139 125.93 112.531 124.614 114.058 122.55C114.468 121.706 114.528 120.733 114.225 119.844C113.923 118.956 113.282 118.223 112.442 117.806C109.198 116.721 104.077 121.174 102.1 116.584C101.307 112.552 108.097 110.915 104.148 105.168C101.899 102.464 98.033 101.895 95.5526 99.3981C94.394 98.2072 93.6225 96.6929 93.3393 95.0544C93.0561 93.4158 93.2746 91.7298 93.9661 90.218C94.0253 90.1113 94.2147 90.1884 94.1614 90.3129Z" fill="#99962E"/>
<path d="M102.855 91.2973C109.657 90.3129 124.398 87.5434 119.005 99.3744C117.436 102.933 118.661 106.378 123.054 105.21C127.5 103.698 131.969 106.016 128.719 110.867C128.08 112 127.742 113.334 128.897 114.194C130.608 115.517 133.189 114.93 134.817 116.519C136.592 118.298 135.645 121.263 133.863 122.627C132.241 123.979 130.045 124.774 128.18 125.723C128.153 125.734 128.122 125.735 128.094 125.725C128.065 125.715 128.041 125.695 128.026 125.669C129.548 124.43 132.058 123.706 133.538 122.259C135 121.038 135.841 118.494 134.337 117.029C132.685 115.618 130.134 116.252 128.388 114.853C127.882 114.476 127.516 113.942 127.348 113.334C127.179 112.726 127.218 112.079 127.458 111.496C130.341 106.598 128.482 104.884 123.249 106.159C118.158 107.523 116.145 103.277 118.105 99.0008C123.551 87.6383 108.136 91.8607 102.855 91.2973Z" fill="#99962E"/>
<path d="M121.604 91.238C121.811 95.3893 125.594 98.8644 129.732 98.5027C131.987 98.6806 133.603 96.4567 135.806 96.8125C138.387 97.708 137.581 100.869 137.339 102.885C137.078 105.358 138.813 108.258 141.483 107.997C143.927 107.475 147.864 104.563 149.445 108.08C149.93 109.42 149.084 110.962 149.445 112.231C151.369 116.056 158.472 112.789 157.845 120.059C157.431 122.847 154.157 125.011 151.552 124.584C152.789 124.222 154.37 124.045 155.424 123.084C157.608 121.548 158.058 118.031 155.974 116.258C153.79 114.615 149.753 115.618 148.61 112.504C148.131 111.194 148.947 109.604 148.563 108.353C146.941 105.667 143.827 108.798 141.583 108.946C139.186 109.231 137.043 107.268 136.545 105.014C135.563 102.695 138.132 99.1313 135.551 97.6546C134.746 97.3937 133.775 98.1469 132.946 98.4968C131.945 98.9543 130.862 99.2064 129.761 99.238C127.946 99.2987 126.163 98.7472 124.698 97.672C123.233 96.5967 122.17 95.0599 121.681 93.3077C121.527 92.9104 121.184 90.817 121.604 91.238Z" fill="#99962E"/>
<path d="M128.508 91.8546C128.795 92.871 129.442 93.7476 130.328 94.3198C131.214 94.892 132.279 95.1204 133.321 94.9621C135.162 94.5589 136.393 93.0051 138.175 92.3706C141.313 91.1845 142.964 94.8079 145.019 96.338C147.718 98.0162 149.121 93.9659 151.453 93.3076C154.851 92.1215 156.189 97.4588 159.273 96.931C160.783 96.338 161.896 94.2031 163.832 94.6538C167.277 95.7509 168.917 99.9258 169.006 103.288C168.875 105.957 168.011 108.91 171.486 109.663C172.67 110.013 174.766 110.915 174.404 112.356C173.996 111.045 172.711 110.351 171.362 110.061C167.597 109.314 168.183 106.259 168.307 103.3C168.147 100.335 166.667 96.5811 163.672 95.5433C161.931 95.3061 161.162 97.3758 159.569 97.8443C156.225 98.9888 154.899 93.5863 151.749 94.2861C149.624 95.0985 148.269 98.3839 145.557 97.6308C142.674 96.9073 141.804 92.1334 138.418 93.1178C136.541 93.7583 134.99 95.5789 132.871 95.5789C131.806 95.5813 130.773 95.2192 129.942 94.5527C129.111 93.8861 128.532 92.9552 128.301 91.914C128.293 91.8864 128.297 91.8569 128.31 91.8319C128.324 91.8069 128.348 91.7884 128.375 91.7805C128.402 91.7727 128.432 91.776 128.457 91.7899C128.482 91.8039 128.5 91.8271 128.508 91.8546Z" fill="#99962E"/>
<path d="M160.334 105.168C167.51 105.168 173.328 101.52 173.328 97.0201C173.328 92.5199 167.51 88.8718 160.334 88.8718C153.157 88.8718 147.34 92.5199 147.34 97.0201C147.34 101.52 153.157 105.168 160.334 105.168Z" fill="#4A4F09"/>
<path d="M160.332 103.134C166.587 103.134 171.657 100.307 171.657 96.8185C171.657 93.3304 166.587 90.5027 160.332 90.5027C154.078 90.5027 149.008 93.3304 149.008 96.8185C149.008 100.307 154.078 103.134 160.332 103.134Z" fill="#E8E891"/>
<path d="M167.514 96.6227C167.514 98.7635 164.299 100.501 160.333 100.501C156.367 100.501 153.152 98.7635 153.152 96.6227C153.152 94.4818 156.367 92.7383 160.333 92.7383C164.299 92.7383 167.514 94.4759 167.514 96.6227Z" fill="#FCFCC5"/>
<path d="M153.934 96.605C154.904 96.0119 156.704 95.8518 157.485 96.605C156.858 97.1387 154.123 97.5182 153.934 96.605Z" fill="#D3D17D"/>
<path d="M163.524 97.0615C164.335 96.6345 165.957 96.854 166.271 97.6961C165.613 98.0993 163.494 97.9866 163.524 97.0615Z" fill="#D3D17D"/>
<path d="M163.126 95.3654C163.079 94.6656 164.364 93.8591 164.766 94.4521C164.689 95.1222 163.635 96.0177 163.126 95.3654Z" fill="#D3D17D"/>
<path d="M157.368 93.4382C158.138 93.5687 159.085 94.9208 158.599 95.5494C157.883 95.3774 156.693 94.0253 157.368 93.4382Z" fill="#D3D17D"/>
<path d="M161.333 93.0229C162.073 93.6871 161.7 94.974 160.871 95.3951C160.851 95.4048 160.829 95.4095 160.807 95.4087C160.785 95.408 160.763 95.4017 160.744 95.3906C160.725 95.3795 160.708 95.3638 160.696 95.345C160.685 95.3261 160.678 95.3046 160.676 95.2824C160.635 94.6894 160.623 93.1178 161.333 93.0229Z" fill="#D3D17D"/>
<path d="M157.516 100.116C157.634 99.398 158.634 97.9866 159.339 98.0578C159.599 98.8821 158.309 100.78 157.516 100.116Z" fill="#D3D17D"/>
<path d="M161.787 98.0459C162.42 98.3899 163.563 100.904 162.042 99.8724C161.521 99.5996 161.006 98.1526 161.787 98.0459Z" fill="#D3D17D"/>
<path d="M61.3885 107.463C68.5649 107.463 74.3825 104.58 74.3825 101.023C74.3825 97.4662 68.5649 94.5828 61.3885 94.5828C54.2121 94.5828 48.3945 97.4662 48.3945 101.023C48.3945 104.58 54.2121 107.463 61.3885 107.463Z" fill="#4A4F09"/>
<path d="M61.3871 105.856C67.6415 105.856 72.7117 103.621 72.7117 100.863C72.7117 98.1052 67.6415 95.8696 61.3871 95.8696C55.1327 95.8696 50.0625 98.1052 50.0625 100.863C50.0625 103.621 55.1327 105.856 61.3871 105.856Z" fill="#E8E891"/>
<path d="M61.3878 103.781C65.3536 103.781 68.5685 102.405 68.5685 100.709C68.5685 99.0121 65.3536 97.6367 61.3878 97.6367C57.422 97.6367 54.207 99.0121 54.207 100.709C54.207 102.405 57.422 103.781 61.3878 103.781Z" fill="#FCFCC5"/>
<path d="M54.9961 100.697C55.961 100.234 57.7666 100.104 58.548 100.697C57.9205 101.118 55.1796 101.414 54.9961 100.697Z" fill="#D3D17D"/>
<path d="M64.5862 101.065C65.3913 100.727 67.0193 100.905 67.333 101.569C66.6759 101.877 64.5566 101.806 64.5862 101.065Z" fill="#D3D17D"/>
<path d="M64.181 99.7125C64.1336 99.161 65.4123 98.5264 65.8208 98.9949C65.7497 99.5227 64.6901 100.234 64.181 99.7125Z" fill="#D3D17D"/>
<path d="M58.4267 98.1882C59.1963 98.295 60.1434 99.3743 59.658 99.8606C58.9417 99.7242 57.7518 98.6567 58.4267 98.1882Z" fill="#D3D17D"/>
<path d="M62.4054 97.8682C63.1454 98.39 62.7725 99.4101 61.9437 99.7303C61.9251 99.7378 61.9051 99.7415 61.8851 99.7411C61.865 99.7407 61.8452 99.7361 61.827 99.7278C61.8087 99.7195 61.7923 99.7075 61.7788 99.6927C61.7653 99.6778 61.7549 99.6603 61.7483 99.6413C61.6951 99.161 61.6832 97.9393 62.4054 97.8682Z" fill="#D3D17D"/>
<path d="M58.5781 103.472C58.6965 102.879 59.6911 101.788 60.4014 101.847C60.6619 102.5 59.3418 103.994 58.5781 103.472Z" fill="#D3D17D"/>
<path d="M62.8495 101.835C63.4829 102.108 64.6255 104.095 63.1041 103.282C62.5831 103.063 62.0681 101.918 62.8495 101.835Z" fill="#D3D17D"/>
<path d="M63.5295 125.729C61.5529 127.772 58.8572 128.959 56.0182 129.038C53.1792 129.117 50.422 128.081 48.3354 126.151C46.2487 124.221 44.9981 121.55 44.8506 118.709C44.7032 115.867 45.6705 113.081 47.546 110.944L48.9135 112.202L62.091 124.394L63.5295 125.729Z" fill="#BC3E20"/>
<path d="M62.0924 124.394C59.6594 125.735 55.1958 127.324 50.7737 124.394C45.9432 121.192 47.6717 115.161 48.9149 112.208L62.0924 124.394Z" fill="#DD654E"/>
<path d="M49.5413 116.133C49.609 115.945 49.7449 115.789 49.9221 115.696C50.0993 115.602 50.3048 115.579 50.4982 115.631C50.6916 115.682 50.8586 115.804 50.9664 115.973C51.0742 116.142 51.1149 116.345 51.0804 116.543C50.6423 117.385 49.3814 117.118 49.5413 116.133Z" fill="#E2A54D"/>
<path d="M54.362 119.656C54.7172 120.634 53.2254 121.945 52.5268 121.204C52.3433 120.261 53.5273 118.867 54.362 119.656Z" fill="#E2A54D"/>
<path d="M58.1923 122.39C58.9856 123.036 58.1923 124.596 57.2984 124.199C56.6709 123.493 57.18 121.999 58.1923 122.39Z" fill="#E2A54D"/>
<path d="M54.5589 91.6473C53.3947 94.2057 51.2881 96.2141 48.6798 97.2525C46.0715 98.2909 43.1634 98.2787 40.5638 97.2187C37.9642 96.1586 35.8744 94.1327 34.7315 91.5646C33.5886 88.9966 33.4811 86.0853 34.4315 83.4397L36.1542 84.1395L52.7711 90.9119L54.5589 91.6473Z" fill="#BC3E20"/>
<path d="M52.7458 90.9118C50.9402 93.0171 47.3173 96.0771 42.1434 94.8911C36.5018 93.5923 36.0046 87.3358 36.1289 84.1394L52.7458 90.9118Z" fill="#DD654E"/>
<path d="M38.1016 87.5731C38.1034 87.376 38.1778 87.1865 38.3104 87.041C38.443 86.8954 38.6246 86.8039 38.8203 86.7841C39.016 86.7643 39.2122 86.8175 39.3712 86.9335C39.5302 87.0495 39.6409 87.2202 39.6822 87.413C39.6803 87.61 39.6059 87.7995 39.4733 87.9451C39.3407 88.0906 39.1592 88.1821 38.9634 88.2019C38.7677 88.2218 38.5715 88.1686 38.4125 88.0525C38.2535 87.9365 38.1428 87.7658 38.1016 87.5731Z" fill="#E2A54D"/>
<path d="M43.8493 89.1979C44.5242 89.9807 43.5889 91.7361 42.6654 91.2913C42.174 90.467 42.7779 88.759 43.8493 89.1979Z" fill="#E2A54D"/>
<path d="M48.3875 90.4019C49.3583 90.728 49.1452 92.4716 48.1862 92.4063C47.3515 91.9734 47.3041 90.3959 48.3875 90.4019Z" fill="#E2A54D"/>
<path d="M108.334 118.695C109.49 121.343 109.548 124.342 108.496 127.033C107.444 129.724 105.368 131.886 102.725 133.044C100.082 134.201 97.0882 134.26 94.4022 133.206C91.7161 132.152 89.5579 130.073 88.4023 127.425L90.1013 126.678L106.535 119.478L108.334 118.695Z" fill="#BC3E20"/>
<path d="M106.531 119.478C106.786 122.247 106.442 126.98 101.985 129.862C97.1245 133.005 92.2998 129.002 90.0977 126.677L106.531 119.478Z" fill="#DD654E"/>
<path d="M93.9457 127.68C93.8015 127.542 93.7142 127.354 93.701 127.155C93.6878 126.955 93.7496 126.758 93.8743 126.601C93.9991 126.445 94.1776 126.342 94.3749 126.311C94.5722 126.28 94.7738 126.324 94.9402 126.434C95.5559 127.17 94.7744 128.225 93.9457 127.68Z" fill="#E2A54D"/>
<path d="M99.1092 124.667C100.145 124.732 100.749 126.63 99.79 126.974C98.8428 126.761 98.0437 125.13 99.1092 124.667Z" fill="#E2A54D"/>
<path d="M103.134 122.248C104.046 121.785 105.147 123.149 104.431 123.795C103.537 124.092 102.371 123.025 103.134 122.248Z" fill="#E2A54D"/>
<path d="M158.9 109.551C158.84 112.44 157.636 115.187 155.554 117.187C153.472 119.187 150.682 120.277 147.798 120.217C144.913 120.156 142.171 118.95 140.175 116.864C138.178 114.778 137.09 111.984 137.151 109.094L139.004 109.13L156.941 109.509L158.9 109.551Z" fill="#BC3E20"/>
<path d="M156.951 109.515C156.016 112.136 153.725 116.288 148.468 117.029C142.737 117.836 140.038 112.172 138.996 109.136L156.951 109.515Z" fill="#DD654E"/>
<path d="M142.086 111.656C142.01 111.469 142.008 111.26 142.079 111.072C142.15 110.883 142.29 110.728 142.47 110.638C142.651 110.548 142.858 110.53 143.052 110.586C143.245 110.643 143.41 110.771 143.513 110.944C143.589 111.131 143.591 111.34 143.52 111.529C143.449 111.718 143.309 111.873 143.129 111.963C142.948 112.053 142.741 112.071 142.547 112.014C142.354 111.957 142.189 111.829 142.086 111.656Z" fill="#E2A54D"/>
<path d="M148.03 111.093C148.942 111.585 148.693 113.56 147.675 113.465C146.917 112.884 146.87 111.063 148.03 111.093Z" fill="#E2A54D"/>
<path d="M152.703 110.594C153.728 110.553 154.154 112.261 153.23 112.54C152.295 112.433 151.685 110.98 152.703 110.594Z" fill="#E2A54D"/>
<path d="M27.5213 113.886C34.6977 113.886 40.5153 110.238 40.5153 105.738C40.5153 101.237 34.6977 97.5894 27.5213 97.5894C20.3449 97.5894 14.5273 101.237 14.5273 105.738C14.5273 110.238 20.3449 113.886 27.5213 113.886Z" fill="#4A4F09"/>
<path d="M27.5199 111.852C33.7743 111.852 38.8445 109.024 38.8445 105.536C38.8445 102.048 33.7743 99.2202 27.5199 99.2202C21.2655 99.2202 16.1953 102.048 16.1953 105.536C16.1953 109.024 21.2655 111.852 27.5199 111.852Z" fill="#E8E891"/>
<path d="M34.7013 105.364C34.7013 107.505 31.4868 109.248 27.5206 109.248C23.5543 109.248 20.3398 107.481 20.3398 105.364C20.3398 103.247 23.5543 101.48 27.5206 101.48C31.4868 101.48 34.7013 103.194 34.7013 105.364Z" fill="#FCFCC5"/>
<path d="M21.1211 105.323C22.0919 104.729 23.8916 104.569 24.673 105.323C24.0455 105.856 21.3105 106.236 21.1211 105.323Z" fill="#D3D17D"/>
<path d="M30.7112 105.791C31.5223 105.364 33.1443 105.583 33.464 106.426C32.8069 106.817 30.6816 106.704 30.7112 105.791Z" fill="#D3D17D"/>
<path d="M30.3135 104.083C30.272 103.383 31.5507 102.583 31.9533 103.17C31.8763 103.84 30.8226 104.735 30.3135 104.083Z" fill="#D3D17D"/>
<path d="M24.555 102.156C25.3305 102.286 26.2717 103.638 25.7863 104.267C25.0759 104.095 23.8801 102.743 24.555 102.156Z" fill="#D3D17D"/>
<path d="M28.5274 101.74C29.2615 102.405 28.8944 103.697 28.0657 104.113C28.0455 104.121 28.0238 104.125 28.002 104.123C27.9803 104.122 27.9591 104.115 27.9402 104.105C27.9214 104.094 27.9052 104.079 27.8931 104.06C27.881 104.042 27.8732 104.022 27.8703 104C27.8229 103.383 27.8111 101.835 28.5274 101.74Z" fill="#D3D17D"/>
<path d="M24.7031 108.833C24.8215 108.116 25.822 106.704 26.5264 106.776C26.7928 107.6 25.4727 109.515 24.7031 108.833Z" fill="#D3D17D"/>
<path d="M28.9829 106.77C29.6104 107.108 30.7588 109.622 29.2315 108.59C28.7105 108.329 28.1955 106.87 28.9829 106.77Z" fill="#D3D17D"/>
<path d="M84.4216 127.371C90.3287 123.289 93.0495 116.977 90.4986 113.272C87.9478 109.568 81.0912 109.875 75.1841 113.957C69.277 118.039 66.5562 124.352 69.107 128.056C71.6579 131.76 78.5144 131.454 84.4216 127.371Z" fill="#4A4F09"/>
<path d="M83.263 125.699C88.4112 122.141 90.9818 116.929 89.0046 114.058C87.0275 111.187 81.2512 111.743 76.1029 115.301C70.9547 118.859 68.3841 124.071 70.3613 126.942C72.3385 129.813 78.1148 129.256 83.263 125.699Z" fill="#E8E891"/>
<path d="M85.4929 116.246C86.6769 118.025 85.043 121.269 81.7812 123.529C78.5194 125.788 74.8846 126.179 73.671 124.418C72.4575 122.657 74.115 119.389 77.3768 117.136C80.6386 114.882 84.2675 114.479 85.4929 116.246Z" fill="#FCFCC5"/>
<path d="M74.3008 123.956C74.7684 122.93 76.1537 121.761 77.2311 121.939C77.0121 122.734 74.9697 124.602 74.3008 123.956Z" fill="#D3D17D"/>
<path d="M82.457 118.885C82.8833 118.079 84.3455 117.331 85.0795 117.847C84.7598 118.547 82.9543 119.656 82.457 118.885Z" fill="#D3D17D"/>
<path d="M81.1621 117.705C80.7299 117.159 81.3278 115.766 81.9968 116.021C82.3164 116.632 81.9435 117.954 81.1621 117.705Z" fill="#D3D17D"/>
<path d="M75.3284 119.395C76.0388 119.069 77.5838 119.644 77.5365 120.433C76.8557 120.7 75.1034 120.267 75.3284 119.395Z" fill="#D3D17D"/>
<path d="M78.3884 116.798C79.3711 116.928 79.7973 118.197 79.3474 119.004C79.3341 119.021 79.3171 119.035 79.2976 119.044C79.2781 119.054 79.2566 119.059 79.2349 119.059C79.2132 119.059 79.1918 119.054 79.1723 119.044C79.1528 119.035 79.1357 119.021 79.1224 119.004C78.714 118.547 77.826 117.284 78.3884 116.798Z" fill="#D3D17D"/>
<path d="M79.2362 124.809C78.9284 124.151 78.952 122.437 79.5736 122.082C80.2544 122.609 80.2426 124.934 79.2362 124.809Z" fill="#D3D17D"/>
<path d="M81.5868 120.676C82.2972 120.593 84.671 122.01 82.83 122.034C82.2439 122.105 81.0007 121.204 81.5868 120.676Z" fill="#D3D17D"/>
<path d="M138.622 126.681C140.156 123.495 136.16 118.381 129.696 115.257C123.233 112.134 116.749 112.185 115.215 115.371C113.681 118.557 117.677 123.672 124.141 126.795C130.605 129.918 137.088 129.867 138.622 126.681Z" fill="#4A4F09"/>
<path d="M137.184 125.811C138.374 123.339 134.773 119.128 129.139 116.406C123.506 113.684 117.974 113.482 116.784 115.954C115.594 118.426 119.196 122.637 124.829 125.359C130.462 128.081 135.994 128.283 137.184 125.811Z" fill="#E8E891"/>
<path d="M133.518 123.869C134.249 122.35 131.946 119.719 128.374 117.993C124.802 116.267 121.314 116.1 120.582 117.619C119.851 119.138 122.153 121.769 125.725 123.495C129.297 125.221 132.786 125.388 133.518 123.869Z" fill="#FCFCC5"/>
<path d="M121.299 117.948C122.37 117.948 124.051 118.618 124.501 119.502C123.749 119.597 121.157 118.678 121.299 117.948Z" fill="#D3D17D"/>
<path d="M129.775 122.455C130.651 122.503 132.036 123.368 132.036 124.104C131.308 124.092 129.437 123.09 129.775 122.455Z" fill="#D3D17D"/>
<path d="M130 121.073C130.195 120.557 131.628 120.546 131.776 121.139C131.492 121.583 130.237 121.755 130 121.073Z" fill="#D3D17D"/>
<path d="M125.472 117.225C126.123 117.652 126.508 119.004 125.863 119.253C125.276 118.802 124.661 117.325 125.472 117.225Z" fill="#D3D17D"/>
<path d="M129.181 118.636C129.619 119.425 128.849 120.178 127.961 120.101C127.872 120.101 127.801 120.006 127.825 119.941C127.991 119.49 128.506 118.411 129.181 118.636Z" fill="#D3D17D"/>
<path d="M123.328 121.969C123.677 121.512 125.057 120.949 125.696 121.305C125.625 122.028 123.79 122.799 123.328 121.969Z" fill="#D3D17D"/>
<path d="M127.88 122.39C128.336 122.906 128.513 125.189 127.489 123.795C127.11 123.374 127.14 122.123 127.88 122.39Z" fill="#D3D17D"/>
<path d="M136.228 95.2231C132.901 97.3224 131.303 100.78 132.676 102.933C134.05 105.085 137.832 105.139 141.159 103.039C144.486 100.94 146.085 97.4826 144.711 95.3298C143.338 93.1771 139.555 93.1238 136.228 95.2231Z" fill="black"/>
<path d="M135.013 101.474C135.451 102.298 135.469 103.146 135.043 103.371C134.616 103.597 133.918 103.122 133.48 102.298C133.042 101.474 133.024 100.626 133.45 100.4C133.876 100.175 134.575 100.649 135.013 101.474Z" fill="#2B323F"/>
<path d="M136.781 96.6464C136.994 95.8399 138.557 94.9978 139.12 95.5967C138.871 96.338 137.32 97.4351 136.781 96.6464Z" fill="#454D5B"/>
<path d="M67.4556 113.287C64.5371 110.648 60.784 110.043 59.0791 111.935C57.3742 113.826 58.3569 117.503 61.2753 120.142C64.1938 122.781 67.941 123.392 69.6459 121.5C71.3508 119.608 70.3741 115.932 67.4556 113.287Z" fill="black"/>
<path d="M61.123 113.809C60.4541 114.455 59.6371 114.698 59.3056 114.354C58.9741 114.01 59.2464 113.168 59.8976 112.575C60.5488 111.982 61.3835 111.686 61.715 112.036C62.0465 112.386 61.8156 113.162 61.123 113.809Z" fill="#2B323F"/>
<path d="M66.2443 114.212C67.073 114.212 68.2984 115.457 67.8781 116.181C67.1026 116.139 65.6286 114.947 66.2443 114.212Z" fill="#454D5B"/>
<path d="M33.7738 119.051C37.6216 118.233 41.1676 119.597 41.6945 122.093C42.2213 124.59 39.5337 127.271 35.6859 128.083C31.838 128.895 28.292 127.537 27.7652 125.041C27.2383 122.544 29.9259 119.864 33.7738 119.051Z" fill="black"/>
<path d="M38.9865 122.686C39.2469 123.582 39.8271 124.205 40.2888 124.068C40.7506 123.932 40.9163 123.102 40.6618 122.206C40.4072 121.311 39.8271 120.694 39.3594 120.824C38.8918 120.955 38.726 121.791 38.9865 122.686Z" fill="#2B323F"/>
<path d="M34.3605 120.462C33.656 120.03 31.963 120.498 31.957 121.34C32.6496 121.696 34.5262 121.376 34.3605 120.462Z" fill="#454D5B"/>
<path d="M54.8287 88.8055C58.6767 87.9904 61.369 85.306 60.8421 82.8098C60.3152 80.3136 56.7686 78.9508 52.9206 79.766C49.0726 80.5811 46.3803 83.2655 46.9072 85.7617C47.4341 88.2579 50.9807 89.6207 54.8287 88.8055Z" fill="black"/>
<path d="M58.1389 83.4219C58.3934 84.3174 58.9795 84.94 59.4412 84.8096C59.903 84.6791 60.0687 83.8429 59.8142 82.9475C59.5596 82.052 58.9736 81.4293 58.5118 81.5598C58.0501 81.6902 57.8843 82.5086 58.1389 83.4219Z" fill="#2B323F"/>
<path d="M53.5284 81.1803C52.8181 80.7473 51.1309 81.2158 51.125 82.0579C51.7999 82.4138 53.6705 82.1172 53.5284 81.1803Z" fill="#454D5B"/>
<path d="M149.827 125.699C150.31 123.199 147.578 120.565 143.724 119.816C139.869 119.068 136.352 120.488 135.868 122.988C135.384 125.488 138.117 128.122 141.971 128.871C145.826 129.619 149.343 128.199 149.827 125.699Z" fill="black"/>
<path d="M147.735 125.337C147.622 126.262 147.918 127.063 148.392 127.116C148.865 127.17 149.351 126.47 149.463 125.545C149.576 124.62 149.286 123.825 148.806 123.766C148.327 123.706 147.853 124.412 147.735 125.337Z" fill="#2B323F"/>
<path d="M144.344 121.477C143.859 120.801 142.119 120.569 141.793 121.34C142.29 121.969 144.102 122.408 144.344 121.477Z" fill="#454D5B"/>
<path d="M172.852 107.386C176.712 108.145 179.447 110.784 178.956 113.287C178.464 115.789 174.942 117.207 171.082 116.454C167.223 115.7 164.488 113.056 164.979 110.553C165.47 108.05 168.993 106.633 172.852 107.386Z" fill="black"/>
<path d="M176.231 112.777C176.119 113.702 176.409 114.503 176.888 114.556C177.368 114.609 177.841 113.91 177.96 112.984C178.078 112.059 177.776 111.265 177.303 111.205C176.829 111.146 176.344 111.852 176.231 112.777Z" fill="#2B323F"/>
<path d="M172.842 108.922C172.357 108.246 170.617 108.015 170.285 108.786C170.782 109.379 172.623 109.847 172.842 108.922Z" fill="#454D5B"/>
<path d="M101.477 81.8858C102.211 83.4099 93.5626 99.2557 92.7457 100.738C92.7279 100.775 92.7082 100.811 92.6865 100.845C92.6865 100.845 88.442 104.712 86.3523 104.101C86.3523 104.101 64.4075 94.7072 63.5373 93.4915C62.7914 92.4477 62.9927 89.53 63.6676 87.9763C63.7587 87.7524 63.878 87.5411 64.0227 87.3476C66.0947 84.7027 77.9994 71.8517 79.509 72.2431C81.1428 72.6523 100.726 80.2846 101.477 81.8858Z" fill="#F4EDDA"/>
<path d="M92.7691 100.738C92.7514 100.775 92.7316 100.811 92.7099 100.845C92.7099 100.845 88.4654 104.712 86.3757 104.101C86.3757 104.101 64.431 94.7072 63.5608 93.4915C62.8149 92.4478 63.0161 89.5301 63.691 87.9763L92.7691 100.738Z" fill="#D8CCAF"/>
<path d="M129.959 96.8184C129.166 98.5975 108.411 102.82 106.47 103.211L106.322 103.241C106.322 103.241 99.6263 102.411 98.5785 100.133C98.5785 100.133 90.2138 74.04 90.6282 72.3796C90.9893 70.9504 93.7538 68.9637 95.6541 68.3944C95.9246 68.3065 96.205 68.2527 96.4888 68.2343C100.431 68.0741 120.997 68.9103 121.802 70.5174C122.666 72.2254 130.8 94.9563 129.959 96.8184Z" fill="#F4EDDA"/>
<path d="M106.47 103.211L106.322 103.241C106.322 103.241 99.6263 102.411 98.5785 100.133C98.5785 100.133 90.2138 74.04 90.6282 72.3795C90.9893 70.9503 93.7538 68.9636 95.6541 68.3943L106.47 103.211Z" fill="#D8CCAF"/>
<path d="M122.279 94.8318C123.699 97.3483 124.062 100.327 123.289 103.111C122.517 105.896 120.671 108.259 118.159 109.681C116.915 110.385 115.545 110.837 114.127 111.011C112.709 111.184 111.271 111.076 109.894 110.693C107.114 109.919 104.755 108.07 103.336 105.554L104.946 104.641L120.563 95.7984L122.279 94.8318Z" fill="#BC3E20"/>
<path d="M120.57 95.7983C121.102 98.5263 121.244 103.271 117.106 106.592C112.584 110.215 107.38 106.728 104.953 104.64L120.57 95.7983Z" fill="#DD654E"/>
<path d="M108.882 105.239C108.727 105.116 108.625 104.939 108.593 104.744C108.561 104.549 108.602 104.349 108.709 104.182C108.815 104.016 108.98 103.895 109.17 103.842C109.36 103.79 109.564 103.81 109.74 103.899C110.409 104.575 109.764 105.702 108.882 105.239Z" fill="#E2A54D"/>
<path d="M113.707 101.723C114.737 101.681 115.536 103.502 114.613 103.947C113.66 103.828 112.724 102.286 113.707 101.723Z" fill="#E2A54D"/>
<path d="M117.462 98.9001C118.32 98.3426 119.552 99.5939 118.906 100.306C118.054 100.691 116.793 99.7481 117.462 98.9001Z" fill="#E2A54D"/>
<path d="M92.8456 100.809C90.1876 97.9036 86.5173 96.9429 84.6348 98.6627C82.7523 100.382 83.3857 104.136 86.0378 107.042C88.6899 109.948 92.3661 110.915 94.2426 109.195C96.1192 107.475 95.4976 103.721 92.8456 100.809Z" fill="black"/>
<path d="M86.4883 100.726C85.7602 101.319 84.9255 101.468 84.6295 101.088C84.3335 100.709 84.6769 99.9377 85.4109 99.3565C86.145 98.7754 86.9679 98.6153 87.2698 98.9889C87.5717 99.3625 87.2165 100.145 86.4883 100.726Z" fill="#2B323F"/>
<path d="M91.5493 101.616C92.3722 101.681 93.4733 103.051 92.9879 103.733C92.2183 103.62 90.8686 102.286 91.5493 101.616Z" fill="#454D5B"/>
<path d="M103.904 82.7043C104.609 83.4931 105.017 85.1951 104.36 85.9838C103.75 85.4442 103.034 83.0364 103.904 82.7043Z" fill="#AF9380"/>
<path d="M75.7812 79.4426C76.0772 78.5412 77.4743 77.4085 78.3504 77.7228C78.1669 78.4819 76.4147 80.1008 75.7812 79.4426Z" fill="#AF9380"/>
<path d="M78.7031 80.4921C78.9814 80.0414 81.515 78.7131 81.663 79.3061C81.444 80.1838 79.1175 81.4529 78.7031 80.4921Z" fill="#AF9380"/>
<path d="M81.0195 76.5485C81.6944 76.0741 83.3875 76.2342 83.6183 77.0289C82.9731 77.4499 81.0551 77.4914 81.0195 76.5485Z" fill="#AF9380"/>
<path d="M86.3873 79.4484C87.1865 79.3594 88.5244 80.3617 88.2817 81.1326C87.5298 81.1801 85.9374 80.2312 86.3873 79.4484Z" fill="#AF9380"/>
<path d="M82.8242 85.2009C83.6116 84.6079 85.3046 84.43 85.9203 85.2009C85.2987 85.6872 83.0551 86.0845 82.8242 85.2009Z" fill="#AF9380"/>
<path d="M70.6172 85.2009C70.8125 84.4122 72.2155 83.4811 72.8726 83.9674C72.6891 84.6968 71.1559 85.9303 70.6172 85.2009Z" fill="#AF9380"/>
<path d="M98.2852 72.3025C98.6463 70.559 103.199 71.1817 100.618 71.9526C100.156 72.0534 98.4746 72.8243 98.2852 72.3025Z" fill="#AF9380"/>
<path d="M101.407 75.0127C102.71 74.9178 104.574 75.4693 105.214 76.5486C104.308 76.7562 101.342 75.9971 101.407 75.0127Z" fill="#AF9380"/>
<path d="M109.036 72.7472C109.853 72.6878 113.712 74.3543 111.09 74.295C110.45 74.3365 108.58 73.4351 109.036 72.7472Z" fill="#AF9380"/>
<path d="M109.373 78.4106C110.776 79.1104 113.15 82.3424 109.894 80.1245C109.562 79.8636 108.787 78.5767 109.373 78.4106Z" fill="#AF9380"/>
<path d="M111.46 76.3944C112.999 76.2639 116.562 77.7406 112.744 77.5805C112.312 77.4915 111.063 76.8985 111.46 76.3944Z" fill="#AF9380"/>
<path d="M115.348 73.3403C115.993 72.7473 120.823 71.4307 118.308 73.1565C117.769 73.5894 115.46 74.1765 115.348 73.3403Z" fill="#AF9380"/>
<path d="M120.706 75.327C122.251 74.6273 123.785 78.4227 121.985 76.8926C121.653 76.5783 120.422 75.7955 120.706 75.327Z" fill="#AF9380"/>
<path d="M119.235 79.905C120.632 80.1067 121.97 82.2179 121.277 83.4098C120.864 82.8717 120.481 82.3115 120.129 81.7316C119.957 81.3876 118.785 80.1185 119.235 79.905Z" fill="#AF9380"/>
<path d="M120.295 88.5931C121.2 88.5278 121.733 90.3069 120.886 90.5145C120.454 90.1171 119.744 89.0556 120.295 88.5931Z" fill="#AF9380"/>
<path d="M114.896 114.704L114.6 115.339L114.274 116.039C114.274 116.039 107.224 119.081 101.251 111.039C95.2778 102.998 99.3032 98.6628 99.3032 98.6628L99.7591 98.9653L100.25 99.2855C100.25 99.2855 98.729 102.761 103.287 109.604C104.482 111.529 106.231 113.046 108.303 113.957C110.375 114.867 112.673 115.128 114.896 114.704Z" fill="#772C3E"/>
<path d="M114.898 114.704L114.602 115.339C112.525 115.855 107.173 116.377 102.485 110.067C98.4058 104.563 98.9977 100.792 99.7732 98.9651L100.265 99.2853C100.265 99.2853 98.7432 102.76 103.301 109.604C104.496 111.527 106.242 113.043 108.312 113.953C110.381 114.863 112.677 115.125 114.898 114.704Z" fill="#F4EDDA"/>
<path d="M78.0158 99.9021L78.4124 100.495L78.8564 101.13C78.8564 101.13 78.004 108.768 68.0764 109.972C58.1489 111.176 56.3789 105.53 56.3789 105.53L56.8702 105.281L57.3912 105.014C57.3912 105.014 59.6466 108.056 67.8396 107.487C70.1022 107.401 72.2855 106.63 74.102 105.276C75.9186 103.922 77.2831 102.048 78.0158 99.9021Z" fill="#772C3E"/>
<path d="M78.0167 99.9021L78.4133 100.495C77.8213 102.565 75.631 107.481 67.8346 108.424C61.0446 109.248 58.0669 106.864 56.8711 105.281L57.392 105.014C57.392 105.014 59.6475 108.056 67.8405 107.487C70.103 107.401 72.2864 106.63 74.1029 105.276C75.9194 103.922 77.2839 102.048 78.0167 99.9021Z" fill="#F4EDDA"/>
<path d="M29.5352 94.7488L30.0265 94.2506L30.5711 93.705C30.5711 93.705 38.2254 93.2009 41.1617 102.772C44.0979 112.344 38.8589 115.09 38.8589 115.09L38.5273 114.651L38.1781 114.188C38.1781 114.188 40.771 111.419 38.7701 103.449C38.2875 101.234 37.147 99.2176 35.4986 97.6648C33.8503 96.1119 31.7713 95.0953 29.5352 94.7488Z" fill="#772C3E"/>
<path d="M29.5352 94.7486L30.0265 94.2505C32.1576 94.464 37.3789 95.7627 39.6817 103.282C41.6885 109.835 39.8771 113.186 38.4977 114.651L38.1485 114.188C38.1485 114.188 40.7414 111.419 38.7405 103.448C38.2598 101.238 37.1237 99.2246 35.481 97.6722C33.8384 96.1198 31.7659 95.1007 29.5352 94.7486Z" fill="#F4EDDA"/>
<path d="M126.488 100.815L126.843 101.242L127.234 101.717C127.234 101.717 133.432 102.689 136.741 95.3951C140.051 88.1008 136.037 85.5508 136.037 85.5508L135.723 85.871L135.392 86.2091C135.392 86.2091 137.245 88.5812 134.847 94.6835C134.199 96.4084 133.063 97.9069 131.579 98.9958C130.094 100.085 128.326 100.717 126.488 100.815Z" fill="#772C3E"/>
<path d="M126.488 100.815L126.843 101.242C128.619 101.242 132.982 100.608 135.581 94.8792C137.842 89.8919 136.682 87.1224 135.723 85.8711L135.392 86.2091C135.392 86.2091 137.245 88.5812 134.847 94.6835C134.199 96.4085 133.063 97.9069 131.579 98.9959C130.094 100.085 128.326 100.717 126.488 100.815Z" fill="#F4EDDA"/>
<path d="M58.9838 122.188L58.4865 122.431L57.936 122.698C57.936 122.698 55.5207 128.492 61.8135 133.45C68.1062 138.408 71.5279 135.099 71.5279 135.099L71.2911 134.713L71.0424 134.31C71.0424 134.31 68.3075 135.555 62.9501 131.772C61.4316 130.732 60.248 129.273 59.5437 127.571C58.8394 125.869 58.6448 123.999 58.9838 122.188Z" fill="#772C3E"/>
<path d="M58.984 122.188L58.4868 122.431C58.0724 124.145 57.6462 128.557 62.5833 132.442C66.8929 135.828 69.8528 135.354 71.2913 134.713L71.0427 134.31C71.0427 134.31 68.3077 135.555 62.9503 131.772C61.4319 130.732 60.2483 129.273 59.544 127.571C58.8397 125.869 58.6451 123.999 58.984 122.188Z" fill="#F4EDDA"/>
<path d="M162.906 119.887L163.564 119.656L164.292 119.401C164.292 119.401 168.015 112.682 160.633 105.933C153.251 99.1846 148.539 102.743 148.539 102.743L148.788 103.229L149.06 103.751C149.06 103.751 152.665 102.565 158.999 107.813C160.791 109.196 162.122 111.089 162.82 113.244C163.517 115.399 163.547 117.715 162.906 119.887Z" fill="#772C3E"/>
<path d="M162.908 119.887L163.565 119.656C164.287 117.634 165.341 112.35 159.545 107.048C154.49 102.428 150.666 102.636 148.789 103.229L149.061 103.751C149.061 103.751 152.667 102.565 159.001 107.813C160.792 109.196 162.124 111.089 162.821 113.244C163.518 115.399 163.549 117.715 162.908 119.887Z" fill="#F4EDDA"/>
<path d="M98.0664 139.392L98.4453 139.985L98.8597 140.637C98.8597 140.637 106.248 142.719 111.096 133.966C115.944 125.213 111.398 121.435 111.398 121.435L110.983 121.791L110.539 122.176C110.539 122.176 112.505 125.42 108.894 132.803C107.962 134.867 106.43 136.601 104.498 137.776C102.566 138.952 100.324 139.515 98.0664 139.392Z" fill="#772C3E"/>
<path d="M98.0664 139.392L98.4453 139.985C100.57 140.222 105.946 140.033 109.758 133.153C113.079 127.164 111.996 123.505 110.983 121.791L110.539 122.176C110.539 122.176 112.505 125.42 108.894 132.804C107.962 134.867 106.43 136.601 104.498 137.777C102.566 138.952 100.324 139.516 98.0664 139.392Z" fill="#F4EDDA"/>
<path d="M208.627 168.32C209.373 177.963 184.918 190.855 132.8 191.941C84.8495 192.919 56.4344 181.236 56.2273 171.57C56.0497 162.894 89.9702 157.788 132.09 156.934C174.209 156.08 207.993 160.338 208.627 168.32Z" fill="#4B597F"/>
<path d="M132.62 184.641C174.748 183.786 208.764 176.415 208.598 168.176C208.431 159.937 174.145 153.951 132.017 154.806C89.8895 155.66 55.8733 163.032 56.0398 171.27C56.2063 179.509 90.4925 185.495 132.62 184.641Z" fill="#F4EDDA"/>
<path d="M132.639 185.139C112.234 185.554 93.012 184.385 78.5203 181.859C68.1015 180.038 55.658 176.729 55.5515 171.279C55.4449 165.829 67.7344 162.016 78.0467 159.775C92.4319 156.661 111.588 154.716 131.994 154.301C152.4 153.886 171.621 155.048 186.113 157.58C196.532 159.401 208.975 162.71 209.088 168.16C209.2 173.61 196.899 177.423 186.563 179.659C172.207 182.778 153.045 184.723 132.639 185.139ZM132.047 155.303C111.707 155.718 92.6154 157.675 78.2954 160.759C64.4134 163.766 56.4868 167.597 56.5638 171.256C56.6407 174.915 64.7094 178.425 78.7038 180.869C93.1363 183.389 112.287 184.546 132.633 184.136C152.98 183.727 172.065 181.764 186.385 178.68C200.273 175.668 208.194 171.843 208.117 168.178C208.04 164.513 199.977 161.014 185.977 158.571C171.532 156.05 152.388 154.888 132.035 155.303H132.047Z" fill="#BFC5E2"/>
<path d="M210.621 166.268L52.3194 163.546C52.2491 163.554 52.178 163.547 52.1108 163.525C52.0435 163.503 51.9815 163.468 51.9289 163.421C51.8763 163.373 51.8342 163.315 51.8054 163.251C51.7766 163.186 51.7617 163.116 51.7617 163.045C51.7617 162.975 51.7766 162.905 51.8054 162.84C51.8342 162.775 51.8763 162.717 51.9289 162.67C51.9815 162.623 52.0435 162.587 52.1108 162.565C52.178 162.544 52.2491 162.537 52.3194 162.544L210.621 165.26C210.744 165.274 210.858 165.332 210.941 165.425C211.024 165.517 211.07 165.637 211.07 165.761C211.07 165.886 211.024 166.006 210.941 166.098C210.858 166.19 210.744 166.249 210.621 166.263V166.268Z" fill="#633C21"/>
<path d="M164.505 163.612C166.422 163.455 168.269 162.818 169.876 161.759C171.482 160.7 172.797 159.253 173.699 157.551C176.842 151.65 177.47 144.664 177.47 144.664C177.47 144.664 158.763 150.126 164.505 163.612Z" fill="#606011"/>
<path d="M175.711 147.469C170.348 150.778 165.47 157.225 164.227 163.327C165.789 160.563 167.275 157.438 169.3 154.864C171.263 152.275 173.441 149.857 175.812 147.635C175.924 147.576 175.812 147.422 175.711 147.469Z" fill="#51510C"/>
<path d="M165.087 163.552C163.176 163.294 161.361 162.557 159.809 161.411C158.257 160.265 157.019 158.745 156.207 156.993C153.383 150.932 153.141 143.947 153.141 143.947C153.141 143.947 171.545 150.399 165.087 163.552Z" fill="#707217"/>
<path d="M154.756 146.876C159.924 150.464 164.452 157.171 165.364 163.333C163.949 160.486 162.641 157.284 160.752 154.603C158.927 151.909 156.875 149.375 154.619 147.03C154.548 146.918 154.667 146.769 154.756 146.876Z" fill="#51510C"/>
<path d="M66.5169 162.526C66.5169 162.526 65.9249 170.461 66.3985 171.665C66.8721 172.869 72.6853 174.434 78.3269 175.383C83.9685 176.332 87.4493 176.397 88.3906 175.484C91.6642 172.222 94.3814 163.623 94.3814 163.623C94.3814 163.623 96.4356 175.004 97.8327 176.498C99.2297 177.993 113.994 178.758 115.042 178.129C116.089 177.5 118.73 172.572 118.73 172.572C118.73 172.572 124.454 177.482 126.597 178.046C128.74 178.609 140.757 171.819 141.503 171.196C142.249 170.574 151.389 178.906 153.526 179.327C155.663 179.748 168.326 174.915 168.918 173.687C169.51 172.46 178.543 176.231 182.96 176.599C187.376 176.967 191.419 173.99 193.065 172.448C194.71 170.906 197.635 165.657 197.303 164.293C196.972 162.929 184.599 152.522 182.474 152.563C180.349 152.605 166.414 162.645 166.414 162.645C166.414 162.645 159.233 153.346 156.806 153.702C154.379 154.058 142.853 162.663 142.853 162.663C142.853 162.663 133.511 151.887 130.948 152.706C128.385 153.524 119.41 161.162 119.41 161.162C119.41 161.162 111.028 152.498 108.447 152.706C105.866 152.913 95.3345 158.298 95.0444 158.76C94.7544 159.223 94.5472 156.792 91.167 155.202C87.7867 153.613 78.5933 149.675 76.6338 150.63C74.6744 151.585 66.4695 160.243 66.5169 162.526Z" fill="#EDB264"/>
<path d="M94.9674 158.553C96.3171 160.131 95.9264 162.799 94.4228 164.139C94.4036 164.155 94.3802 164.164 94.3557 164.165C94.3312 164.167 94.3069 164.16 94.2861 164.147C94.2653 164.134 94.2491 164.115 94.2396 164.092C94.2302 164.07 94.228 164.045 94.2333 164.021C94.7424 162.272 94.927 160.445 94.778 158.63C94.7789 158.609 94.786 158.588 94.7984 158.57C94.8108 158.553 94.8281 158.539 94.848 158.531C94.8679 158.523 94.8898 158.52 94.911 158.524C94.9321 158.528 94.9517 158.538 94.9674 158.553Z" fill="#8E5B38"/>
<path d="M119.42 161.364C122.084 161.595 122.866 164.97 121.907 167.087C121.137 169.192 119.539 170.823 118.645 172.863C118.641 172.877 118.634 172.891 118.625 172.903C118.616 172.914 118.605 172.924 118.592 172.932C118.579 172.939 118.565 172.944 118.55 172.946C118.535 172.948 118.52 172.947 118.506 172.943C118.491 172.939 118.478 172.932 118.466 172.923C118.454 172.914 118.444 172.903 118.437 172.89C118.43 172.877 118.425 172.863 118.423 172.848C118.421 172.833 118.422 172.818 118.426 172.804C119.237 168.492 123.919 164.94 119.42 161.364Z" fill="#8E5B38"/>
<path d="M142.608 162.597C147.936 167.816 146.894 167.798 141.128 171.44C141.105 171.454 141.076 171.459 141.049 171.454C141.022 171.449 140.997 171.434 140.98 171.412C140.963 171.39 140.955 171.362 140.957 171.335C140.96 171.307 140.972 171.281 140.992 171.262C145.521 166.328 146.368 168.961 143.159 164.039C143.082 163.766 142.093 162.562 142.608 162.597Z" fill="#8E5B38"/>
<path d="M166.484 162.556C169.266 165.254 174.943 171.262 169.065 173.658C170.604 171.784 171.694 170.568 169.858 168.255C168.811 166.612 167.307 164.353 166.306 162.687C166.298 162.675 166.292 162.662 166.288 162.648C166.285 162.633 166.284 162.619 166.286 162.605C166.289 162.59 166.294 162.576 166.301 162.564C166.309 162.552 166.318 162.541 166.33 162.532C166.342 162.524 166.355 162.518 166.369 162.514C166.383 162.511 166.398 162.51 166.412 162.512C166.426 162.514 166.44 162.519 166.452 162.527C166.465 162.534 166.476 162.544 166.484 162.556Z" fill="#8E5B38"/>
<path d="M188.255 172.774C188.166 172.039 189.285 170.912 189.901 171.339C189.895 172.062 188.954 173.308 188.255 172.774Z" fill="#FFD39F"/>
<path d="M68.8693 169.738C70.2368 170.064 72.1548 172.039 69.3784 171.084C68.9936 170.906 68.3247 170.004 68.8693 169.738Z" fill="#C98E47"/>
<path d="M74.4815 171.558C75.0735 171.119 76.5475 171.594 76.4291 172.323C75.8076 172.661 74.3158 172.406 74.4815 171.558Z" fill="#FFD39F"/>
<path d="M68.586 163.392C69.2253 163.653 69.2313 165.094 68.5327 165.088C67.9881 164.732 67.7987 163.481 68.586 163.392Z" fill="#C98E47"/>
<path d="M102.512 156.649C103.104 155.748 104.661 154.87 105.626 155.291C105.288 156.015 103.021 157.415 102.512 156.649Z" fill="#FFD39F"/>
<path d="M106.078 157.385C106.552 156.744 108.191 156.489 108.559 157.201C108.079 157.77 106.315 158.251 106.078 157.385Z" fill="#C98E47"/>
<path d="M110.685 156.519C111.578 156.418 113.118 157.272 113.1 158.162C112.324 158.274 110.359 157.373 110.685 156.519Z" fill="#C98E47"/>
<path d="M107.398 176.528C108.127 175.994 109.766 176 110.169 176.795C109.571 177.293 107.475 177.459 107.398 176.528Z" fill="#C98E47"/>
<path d="M110.403 174.506C110.947 174.061 113.741 173.675 112.261 174.844C111.829 175.277 110.237 175.3 110.403 174.506Z" fill="#FFD39F"/>
<path d="M113.57 176.285C114.097 174.802 117.087 172.092 115.21 175.567C114.997 175.935 113.801 176.842 113.57 176.285Z" fill="#C98E47"/>
<path d="M123.73 160.249C123.571 159.561 124.678 158.5 125.216 158.98C125.258 159.668 124.37 160.795 123.73 160.249Z" fill="#C98E47"/>
<path d="M127.046 160C126.827 159.342 127.863 158.689 128.23 159.229C128.342 159.864 127.525 160.587 127.046 160Z" fill="#FFD39F"/>
<path d="M131.113 155.297C131.291 154.627 132.499 154.675 132.504 155.333C132.262 155.914 131.161 156.039 131.113 155.297Z" fill="#C98E47"/>
<path d="M135.813 159.68C136.583 159.472 138.039 160.273 137.891 161.056C137.169 161.216 135.476 160.516 135.813 159.68Z" fill="#C98E47"/>
<path d="M124.919 173.918C125.617 174.007 127.784 175.81 125.925 175.508C125.321 175.484 124.232 174.34 124.919 173.918Z" fill="#C98E47"/>
<path d="M127.739 173.071C128.295 172.863 129.799 173.213 129.852 173.818C129.302 174.44 127.348 173.984 127.739 173.071Z" fill="#C98E47"/>
<path d="M136.559 170.758C136.872 169.939 138.335 169.014 139.086 169.471C138.826 170.194 137.121 171.481 136.559 170.758Z" fill="#C98E47"/>
<path d="M146.391 161.56C146.74 160.694 148.214 159.68 149.049 160.071C148.836 160.806 146.971 162.295 146.391 161.56Z" fill="#FFD39F"/>
<path d="M150.227 161.803C150.38 161.287 151.541 160.344 152.003 160.67C152.21 161.506 150.653 162.716 150.227 161.803Z" fill="#C98E47"/>
<path d="M154.502 157.159C154.425 156.258 156.184 155.689 156.409 156.531C156.024 156.958 154.976 157.699 154.502 157.159Z" fill="#C98E47"/>
<path d="M166.858 167.87C167.763 167.698 168.397 168.824 168.042 169.584C168.031 169.602 168.017 169.619 168 169.631C167.983 169.644 167.964 169.653 167.943 169.657C167.922 169.662 167.901 169.662 167.88 169.657C167.859 169.653 167.839 169.644 167.823 169.631C167.343 169.275 166.461 168.439 166.858 167.87Z" fill="#C98E47"/>
<path d="M152.273 175.027C153.025 175.027 154.132 176.184 153.706 176.806C152.978 176.789 151.687 175.686 152.273 175.027Z" fill="#C98E47"/>
<path d="M158.113 175.828C158.35 175.099 159.836 174.423 160.327 175.027C160.049 175.692 158.557 176.599 158.113 175.828Z" fill="#FFD39F"/>
<path d="M155.083 173.266C155.539 172.756 156.817 173.266 156.551 173.901C156.042 174.304 154.858 174.019 155.083 173.266Z" fill="#C98E47"/>
<path d="M174.156 159.49C174.375 158.6 175.689 157.42 176.524 157.711C176.418 158.47 174.807 160.119 174.156 159.49Z" fill="#C98E47"/>
<path d="M176.93 160.041C177.202 159.365 178.475 158.209 179.15 158.428C179.232 159.294 177.534 160.854 176.93 160.041Z" fill="#FFD39F"/>
<path d="M182.059 155.179C182.456 154.586 183.947 154.805 183.876 155.511C183.397 155.991 182.035 156.009 182.059 155.179Z" fill="#C98E47"/>
<path d="M193.703 163.541C194.384 163.446 195.077 164.691 194.467 165.017C193.828 164.982 193.052 163.985 193.703 163.541Z" fill="#C98E47"/>
<path d="M178.957 173.723C179.809 173.426 181.366 173.907 181.532 174.784C180.804 175.063 178.773 174.612 178.957 173.723Z" fill="#C98E47"/>
<path d="M181.986 171.973C182.703 171.724 184.502 171.754 184.911 172.359C184.313 173.076 181.844 173.023 181.986 171.973Z" fill="#C98E47"/>
<path d="M79.7684 153.346C81.0649 153.577 82.5211 155.262 82.1837 156.501C81.645 156.169 79.283 153.815 79.7684 153.346Z" fill="#C98E47"/>
<path d="M83.4985 154.639C84.5167 155.125 85.6651 156.525 85.4698 157.604C84.6825 157.373 82.8414 155.303 83.4985 154.639Z" fill="#FFD39F"/>
<path d="M85.3999 159.662C86.2701 159.763 86.3885 161.554 85.5479 161.53C85.1809 161.068 84.7547 159.994 85.3999 159.662Z" fill="#C98E47"/>
<path d="M89.7847 165.563C90.4182 166.286 89.8262 168.101 88.8849 168.006C88.808 167.395 89.0448 165.521 89.7847 165.563Z" fill="#C98E47"/>
<path d="M100.513 178.936C98.9513 180.062 97.1319 180.777 95.2222 181.014C93.3126 181.251 91.374 181.003 89.585 180.294C83.3692 177.85 78.3906 172.97 78.3906 172.97C78.3906 172.97 96.15 164.946 100.513 178.936Z" fill="#707217"/>
<path d="M81.5413 173.948C87.763 172.981 95.6482 174.719 100.55 178.55C97.5899 177.471 94.4169 176.053 91.2083 175.413C88.0322 174.715 84.8017 174.294 81.5531 174.156C81.5294 174.151 81.5078 174.139 81.4918 174.121C81.4758 174.103 81.4664 174.081 81.465 174.057C81.4636 174.032 81.4704 174.009 81.4843 173.989C81.4981 173.969 81.5182 173.955 81.5413 173.948Z" fill="#51510C"/>
<path d="M98.9023 178.532C100.274 179.883 101.964 180.866 103.814 181.391C105.665 181.917 107.618 181.967 109.493 181.539C116.005 180.068 121.694 175.982 121.694 175.982C121.694 175.982 105.343 165.367 98.9023 178.532Z" fill="#707217"/>
<path d="M118.41 176.492C112.407 174.589 104.35 175.105 98.9219 178.147C102.036 177.554 105.369 176.611 108.636 176.463C111.881 176.263 115.137 176.343 118.368 176.7C118.394 176.702 118.42 176.694 118.44 176.678C118.461 176.662 118.475 176.64 118.48 176.614C118.485 176.589 118.481 176.563 118.468 176.54C118.455 176.518 118.434 176.501 118.41 176.492Z" fill="#51510C"/>
<path d="M76.6869 152.077C81.4228 154.924 83.9446 160.973 83.0981 166.31C83.0981 166.34 83.0862 166.368 83.0651 166.39C83.044 166.411 83.0154 166.423 82.9856 166.423C82.9558 166.423 82.9272 166.411 82.9061 166.39C82.885 166.368 82.8731 166.34 82.8731 166.31C82.7204 162.342 81.4116 158.505 79.1081 155.274C78.9838 154.746 76.0713 152.018 76.6869 152.077Z" fill="#FFD39F"/>
<path d="M107.91 153.595C111.22 157.551 114.02 166.494 110.651 170.847C112.072 166.654 110.918 161.951 109.497 157.8C108.979 156.403 108.386 155.035 107.721 153.702C107.707 153.677 107.703 153.647 107.711 153.619C107.719 153.592 107.737 153.568 107.762 153.554C107.788 153.54 107.817 153.536 107.845 153.544C107.873 153.552 107.896 153.57 107.91 153.595Z" fill="#FFD39F"/>
<path d="M129.645 155.113C134.221 158.268 135.766 165.07 133.357 170.016C133.346 170.045 133.324 170.067 133.297 170.08C133.269 170.092 133.237 170.092 133.209 170.081C133.181 170.07 133.158 170.049 133.146 170.021C133.134 169.993 133.133 169.962 133.144 169.933C134.127 166.089 133.629 162.015 131.747 158.523C131.124 157.358 130.373 156.266 129.509 155.268C129.432 155.179 129.551 155.042 129.645 155.113Z" fill="#FFD39F"/>
<path d="M156.757 155.273C161.706 159.057 163.689 166.268 161.753 172.145C161.746 172.174 161.728 172.199 161.702 172.215C161.677 172.231 161.646 172.235 161.617 172.228C161.588 172.221 161.563 172.203 161.547 172.177C161.532 172.152 161.527 172.121 161.534 172.092C162.185 167.629 161.353 163.076 159.166 159.134C158.439 157.819 157.588 156.576 156.627 155.422C156.532 155.333 156.662 155.179 156.757 155.273Z" fill="#FFD39F"/>
<path d="M182.539 153.316C187.351 155.511 195.929 167.597 188.725 171.018C188.711 171.024 188.696 171.026 188.681 171.025C188.666 171.024 188.652 171.021 188.638 171.014C188.625 171.008 188.613 170.999 188.603 170.988C188.593 170.977 188.585 170.964 188.58 170.95C188.575 170.936 188.573 170.921 188.573 170.907C188.574 170.892 188.577 170.877 188.584 170.864C188.59 170.85 188.599 170.838 188.61 170.828C188.621 170.818 188.634 170.81 188.648 170.805C193.502 167.721 188.559 160.569 186.114 157.278C184.997 155.906 183.759 154.637 182.414 153.488C182.395 153.471 182.382 153.447 182.38 153.42C182.377 153.394 182.384 153.368 182.399 153.346C182.415 153.325 182.437 153.31 182.463 153.305C182.489 153.299 182.516 153.303 182.539 153.316Z" fill="#FFD39F"/>
<path d="M15.3606 137.868L45.5872 167.876C45.5872 167.876 30.9534 184.724 14.9107 173.669C13.7268 174.126 11.7969 174.707 10.9681 173.877C10.311 173.213 10.6366 171.647 11.0747 170.36C0.90445 158.648 15.3606 137.868 15.3606 137.868Z" fill="#15BD44"/>
<path d="M45.5858 167.877C48.9802 164.445 44.9659 154.947 36.6196 146.661C28.2732 138.375 18.7555 134.44 15.361 137.872C11.9666 141.303 15.9809 150.802 24.3272 159.087C32.6735 167.373 42.1913 171.308 45.5858 167.877Z" fill="#FCEAC3"/>
<path d="M28.4752 145.927C28.6054 147.113 28.7712 148.299 28.9606 149.486C25.9652 146.082 22.9145 142.721 19.8086 139.404C21.8036 139.137 24.7872 140.193 28.0963 142.268C28.2325 143.49 28.3509 144.712 28.4752 145.927Z" fill="#FCD97A"/>
<path d="M30.6592 151.11C30.1797 148.519 29.8541 145.91 29.6055 143.288C31.5997 144.7 33.4783 146.268 35.2234 147.979C33.9092 149.059 32.6127 150.167 31.3045 151.253C31.0913 151.199 30.8782 151.158 30.6592 151.11Z" fill="#FCD97A"/>
<path d="M19.9132 148.78L19.3212 148.643C17.1782 144.67 16.456 141.527 18.3563 139.956C21.6437 143.427 24.8602 146.959 28.0055 150.553C25.318 149.99 22.6067 149.414 19.9132 148.78Z" fill="#FCD97A"/>
<path d="M20.7006 150.434C23.6013 151.099 26.5375 151.62 29.4441 152.291C29.4441 152.439 29.4974 152.587 29.5211 152.735C28.0293 153.921 26.4724 155.03 24.9333 156.175C23.2477 154.362 21.7225 152.405 20.375 150.328L20.7006 150.434Z" fill="#FCD97A"/>
<path d="M38.912 153.595C36.9348 152.943 34.9635 152.255 32.9922 151.692C34.0755 150.784 35.1529 149.865 36.2481 148.976C37.8179 150.584 39.2663 152.306 40.5814 154.129C40.0012 153.957 39.4566 153.773 38.912 153.595Z" fill="#FCD97A"/>
<path d="M41.7985 155.985C44.5749 160.676 45.8121 164.466 43.1719 166.156C39.4424 161.684 35.6952 157.231 31.8828 152.836C35.2097 153.708 38.4656 155.048 41.7985 155.985Z" fill="#FCD97A"/>
<path d="M31.406 155.137C31.3469 154.829 31.2936 154.544 31.2344 154.224C34.7507 158.288 38.2257 162.388 41.6592 166.523C39.4629 166.612 36.2662 165.337 32.7794 162.965C32.3828 160.35 31.8974 157.741 31.406 155.137Z" fill="#FCD97A"/>
<path d="M28.8878 154.965C29.1956 154.734 29.5094 154.497 29.8172 154.254C30.2908 156.774 30.7703 159.294 31.1906 161.821C29.3186 160.401 27.5536 158.845 25.9102 157.165L28.8878 154.965Z" fill="#FCD97A"/>
<path d="M11.3487 158.737C10.6975 158.974 10.81 160.208 11.473 160.172C12.0354 159.87 12.0887 158.737 11.3487 158.737Z" fill="#CEA64A"/>
<path d="M35.0049 171.57C34.5432 171.499 32.9152 172.311 33.1816 172.756C33.8683 173.314 35.6857 172.323 35.0049 171.57Z" fill="#CEA64A"/>
<path d="M30.6764 171.653C30.1318 171.416 28.7524 171.837 28.7939 172.454C29.374 173.017 31.0789 172.519 30.6764 171.653Z" fill="#CEA64A"/>
<path d="M29.4748 174.387C29.0604 174.15 26.8464 174.256 26.9529 174.808C27.4798 175.531 29.7353 175.383 29.4748 174.387Z" fill="#CEA64A"/>
<path d="M22.2048 173.776C21.968 173.408 20.636 172.91 20.4288 173.331C20.34 174.239 22.2344 174.802 22.2048 173.776Z" fill="#CEA64A"/>
<path d="M14.83 151.703C14.1433 151.597 13.9302 152.635 14.5163 152.812C15.1556 152.807 15.4753 151.947 14.83 151.703Z" fill="#CEA64A"/>
<path d="M11.4597 152.646C10.8263 152.937 10.7434 154.426 11.4597 154.503C12.0044 154.117 12.2708 152.807 11.4597 152.646Z" fill="#CEA64A"/>
<path d="M13.3074 149.165C13.1732 149.159 13.0409 149.198 12.9322 149.277C12.8235 149.356 12.7447 149.47 12.7089 149.6C12.6731 149.729 12.6824 149.867 12.7352 149.991C12.788 150.114 12.8812 150.216 12.9995 150.28C13.6389 150.286 13.9585 149.408 13.3074 149.165Z" fill="#CEA64A"/>
<path d="M24.3288 148.133C24.3363 148.01 24.305 147.887 24.2395 147.782C24.1739 147.678 24.0773 147.596 23.9631 147.549C23.8489 147.502 23.723 147.492 23.6028 147.52C23.4826 147.548 23.3742 147.613 23.2928 147.706C23.1981 148.341 24.0091 148.744 24.3288 148.133Z" fill="#FCEFD4"/>
<path d="M37.2421 156.127C37.2421 155.428 35.9042 154.698 35.5312 155.309C35.6556 155.979 36.7744 156.815 37.2421 156.127Z" fill="#FCEFD4"/>
<path d="M36.4062 151.318C35.9267 150.814 34.4645 151.205 34.6302 151.911C35.1748 152.302 36.5423 152.136 36.4062 151.318Z" fill="#FCEFD4"/>
<path d="M31.7731 147.114C31.0864 147.149 30.6306 148.513 31.2877 148.727C31.927 148.566 32.5013 147.469 31.7731 147.114Z" fill="#FCEFD4"/>
<path d="M26.3736 143.988C25.9118 144.522 26.415 145.963 27.1076 145.767C27.4806 145.18 27.1846 143.798 26.3736 143.988Z" fill="#FCEFD4"/>
<path d="M32.7617 157.782C32.5604 158.707 33.1583 160.261 34.0759 160.421C34.289 159.656 33.6556 157.551 32.7617 157.782Z" fill="#FCEFD4"/>
<path d="M27.736 152.848C27.1973 152.409 25.8003 152.996 26.0489 153.661C26.6409 153.993 27.9787 153.643 27.736 152.848Z" fill="#FCEFD4"/>
<path d="M28.8068 156.424C28.4043 156.543 28.2148 156.721 28.2148 157.112C28.2148 157.242 28.2148 157.646 28.4576 157.658C29.1857 157.758 29.606 156.531 28.8068 156.424Z" fill="#FCEFD4"/>
<path d="M228.624 124.715L206.561 133.491L184.492 124.715C185.084 149.622 203.702 150.867 206.395 150.915H206.721C209.415 150.867 228.021 149.622 228.624 124.715Z" fill="#4B597F"/>
<path d="M229.198 124.715C229.198 126.102 228.393 127.413 226.966 128.581C223.361 131.546 215.76 133.557 206.969 133.557C198.178 133.557 190.577 131.529 186.966 128.581C185.539 127.395 184.734 126.102 184.734 124.715C184.734 119.828 194.686 115.873 206.969 115.873C219.253 115.873 229.198 119.828 229.198 124.715Z" fill="#F4EDDA"/>
<path d="M226.977 128.581C223.372 131.546 215.771 133.557 206.98 133.557C198.189 133.557 190.588 131.528 186.977 128.581C188.912 124.127 197.123 120.783 206.968 120.783C216.812 120.783 225.017 124.127 226.977 128.581Z" fill="#E5C955"/>
<path d="M206.721 134.096C193.952 134.096 183.953 129.975 183.953 124.715C183.953 119.454 193.952 115.333 206.721 115.333C219.49 115.333 229.494 119.454 229.494 124.715C229.494 129.975 219.49 134.096 206.721 134.096ZM206.721 116.412C194.964 116.412 185.031 120.213 185.031 124.715C185.031 129.216 194.964 133.017 206.721 133.017C218.477 133.017 228.411 129.216 228.411 124.715C228.411 120.213 218.477 116.412 206.721 116.412Z" fill="#BFC5E2"/>
<path d="M193.969 129.898C193.969 129.898 185.142 126.583 195.745 123.262C195.768 123.262 189.718 126.583 193.969 129.898Z" fill="white"/>
<path d="M206.559 122.912C206.559 122.912 221.92 122.74 222.737 126.233C223.554 129.726 216.853 130.775 216.853 130.775C216.853 130.775 227.645 124.489 206.559 122.912Z" fill="white"/>
<path d="M200.569 125.592C200.569 125.592 197.171 129.15 205.85 128.356C205.85 128.356 199.013 128.326 200.569 125.592Z" fill="white"/>
</g>
<defs>
<radialGradient id="paint0_radial_53_55057" cx="0" cy="0" r="1" gradientUnits="userSpaceOnUse" gradientTransform="translate(196.125 74.2358) scale(46.0561 46.1379)">
<stop offset="0.57" stop-color="#181415"/>
<stop offset="0.8" stop-color="#181415"/>
<stop offset="1" stop-color="#181415"/>
</radialGradient>
<radialGradient id="paint1_radial_53_55057" cx="0" cy="0" r="1" gradientUnits="userSpaceOnUse" gradientTransform="translate(216.935 46.7191) scale(11.0286 11.0482)">
<stop offset="0.57" stop-color="#181415"/>
<stop offset="0.8" stop-color="#181415"/>
<stop offset="1" stop-color="#181415"/>
</radialGradient>
<radialGradient id="paint2_radial_53_55057" cx="0" cy="0" r="1" gradientUnits="userSpaceOnUse" gradientTransform="translate(219.832 45.7617) rotate(1.1478) scale(14.8499 14.8762)">
<stop offset="0.57" stop-color="#181415"/>
<stop offset="0.8" stop-color="#181415"/>
<stop offset="1" stop-color="#181415"/>
</radialGradient>
<clipPath id="clip0_53_55057">
<rect width="238" height="192" fill="white"/>
</clipPath>
</defs>
</svg>
