<svg width="86" height="135" viewBox="0 0 86 135" fill="none" xmlns="http://www.w3.org/2000/svg">
<path d="M0.871702 50.419C1.90498 53.1228 3.64533 55.4994 5.91095 57.3008C13.1549 63.2156 24.0082 63.962 32.2883 59.622C40.5684 55.2819 46.0454 46.312 46.7761 36.9894C47.0501 33.4556 46.6344 29.7171 44.6628 26.7723C42.5558 23.6228 38.9369 21.5945 35.1921 21.0496C19.7689 18.8198 -4.95493 34.454 0.871702 50.419Z" fill="#F7D3D5"/>
<path d="M29.2012 126.011C29.8752 128.421 31.2736 130.736 33.3554 132.124C34.9302 133.173 36.8514 133.513 38.7096 133.781C44.2029 134.574 49.7449 134.981 55.2951 135C58.2178 135 61.4807 134.764 63.4555 132.61C65.868 129.973 65.1374 125.614 63.0272 122.729C61.7957 121.044 60.1579 119.633 59.2288 117.763C58.18 115.646 58.1517 113.189 58.1454 110.834L58.117 101.218C58.117 99.2402 58.117 97.2434 57.6352 95.3253C57.1533 93.4073 56.1864 91.5459 54.5833 90.39C52.0258 88.557 48.5362 88.8877 45.4685 89.5837C42.4009 90.2798 39.2167 91.253 36.1743 90.4562C34.19 89.9396 32.483 88.7145 30.7035 87.7035C28.9105 86.6855 27.0089 85.872 25.0344 85.2783C24.3943 85.0352 23.704 84.9541 23.025 85.0421C22.0643 85.2311 17.8251 85.2468 29.2012 126.011Z" fill="#E17980"/>
<path d="M85.5666 14.5585C85.4092 13.3365 85.3147 12.105 85.0816 10.8925C85.0394 10.6335 84.9381 10.3878 84.7855 10.1744C84.7424 10.1246 84.6833 10.0914 84.6184 10.0805C84.5534 10.0696 84.4867 10.0816 84.4296 10.1145C84.3181 10.2052 84.2341 10.3252 84.1871 10.461C82.5557 13.7239 80.4801 16.4199 78.055 19.1348C76.2094 21.2103 74.1779 23.1284 72.515 25.3583C70.6892 27.8883 69.167 30.624 67.9796 33.5093C67.1576 35.3265 66.3828 37.1627 65.7057 39.0398C65.0285 40.917 64.3041 42.8791 63.6742 44.8224C62.8554 47.2034 62.0207 49.2664 61.0601 51.5498C60.405 53.0395 59.8003 54.5576 59.246 56.0851C58.5468 57.8741 57.8917 59.6787 57.3374 61.5181C56.4964 64.2424 55.6083 66.951 54.8839 69.7068C54.5343 70.9667 54.2193 72.2265 53.9642 73.5241C53.7689 74.5634 53.5894 75.6059 53.3879 76.6453L52.7737 76.6138C52.9459 75.7067 53.117 74.7975 53.2871 73.8863C53.4193 73.2564 53.602 72.6107 53.7469 71.9714C53.939 71.1304 54.106 70.2832 54.3044 69.4517C54.4965 68.6612 54.6697 67.877 54.8713 67.0801C55.0729 66.2833 55.3028 65.5054 55.5012 64.7117C55.8445 63.3007 56.1531 61.8771 56.5248 60.4819C56.9342 58.8819 57.3909 57.2945 57.8098 55.6977C58.1405 54.4379 58.424 53.1781 58.7547 51.9183C59.1074 50.5482 59.5011 49.1876 59.8853 47.8239C60.5562 45.5216 61.3782 43.2665 61.9766 40.9453C62.4244 39.0568 62.7037 37.1322 62.8113 35.1943C62.8774 33.9344 62.8113 32.6746 62.7483 31.4148C62.6979 30.407 62.5467 29.4086 62.4522 28.4039C62.3483 27.3425 62.2443 26.2842 62.0617 25.2323C61.9042 24.2874 61.668 23.3709 61.4475 22.445C60.9373 20.4544 60.4145 18.5049 59.7594 16.6152C58.931 14.1869 57.8319 11.8625 56.9657 9.44998C56.0429 6.89571 54.3989 4.83592 53.9737 2.20606C53.9516 2.01393 53.9327 1.82181 53.917 1.62654C53.9033 1.22104 53.8548 0.817472 53.7721 0.420271C53.7249 0.187205 53.5264 -0.102552 53.2619 0.0360273C52.9636 0.292106 52.7314 0.616178 52.5847 0.980887C52.2642 1.5948 51.9772 2.22563 51.7249 2.87061C51.2934 3.9572 50.7265 5.50362 50.3801 6.39178C49.7344 7.9823 49.1927 9.40903 48.5722 10.8956C47.725 12.8231 46.8589 14.7412 46.1219 16.7128C45.3534 18.6246 44.5471 20.6308 43.7881 22.6969C43.0952 24.4953 42.4495 26.3157 41.9267 28.174C41.0037 31.0483 40.2673 33.9793 39.722 36.9485C39.5614 37.9816 39.4386 39.0178 39.3787 40.0603C39.3283 41.2067 39.3567 42.3563 39.3787 43.5059C39.4096 45.6541 39.5684 47.7985 39.8543 49.9278C40.1762 52.9648 40.7193 55.9743 41.4795 58.9323C41.6936 59.7449 41.9173 60.5574 42.1598 61.3637L42.0779 61.1685C41.4052 59.4628 40.8404 57.7167 40.3866 55.9402C39.7795 53.8274 39.2802 51.685 38.8906 49.5215C38.4496 47.1058 38.2607 44.4003 37.804 41.8083C37.3545 39.1672 36.6445 36.5772 35.6843 34.0762C35.1395 32.8032 34.4873 31.5788 33.7348 30.4164C32.3332 28.0385 30.3931 26.0417 28.305 24.2591C27.0452 23.2008 25.7161 22.2497 24.3807 21.3017C22.9319 20.3159 21.4516 19.3773 20.0217 18.3632C19.0562 17.7235 18.1412 17.0107 17.2848 16.2309C17.0554 14.4169 16.6719 12.6257 16.1383 10.8767C15.6845 9.43207 15.1407 8.01726 14.51 6.6406C13.8014 5.21071 13.0644 3.80602 12.2707 2.40762C12.1227 2.14621 11.9558 1.8848 11.8172 1.62654C11.7357 1.47535 11.6292 1.33904 11.5022 1.2234C11.4738 1.18729 11.4379 1.15783 11.3969 1.13709C11.3559 1.11635 11.3109 1.10482 11.265 1.10332C11.219 1.10182 11.1734 1.11038 11.1311 1.1284C11.0888 1.14643 11.051 1.17348 11.0203 1.20765C10.855 1.41934 10.7466 1.66979 10.7054 1.9352C10.4377 3.34304 10.803 4.76977 11.1684 6.12092C11.5793 7.58974 12.1178 9.01982 12.7778 10.3948C13.7226 12.4074 14.762 14.4577 16.4092 16.001C16.5698 16.1648 16.7241 16.316 16.9005 16.4734C17.1903 18.8167 17.2753 21.2891 17.3289 23.6733C17.4107 27.2795 17.3289 30.8983 17.7729 34.4856C18.1447 37.2698 18.7087 40.0249 19.4611 42.7311C20.0139 44.9283 20.7688 47.0697 21.7162 49.1278C22.7595 51.3174 24.026 53.3934 25.4956 55.3229C26.7337 56.8461 28.051 58.3032 29.442 59.6882C30.4341 60.7149 31.4262 61.7385 32.4309 62.7495C33.8702 64.2393 35.3001 65.7384 36.6386 67.3195C37.067 67.8455 37.9331 68.9478 38.4748 69.6785C39.1196 70.5802 39.6794 71.5396 40.1472 72.5446C40.817 73.9416 41.307 75.4179 41.6055 76.9382C41.6055 76.998 41.6275 77.0642 41.637 77.1303C39.1929 77.4232 36.752 77.7602 34.33 78.1759C26.8058 79.5145 21.417 81.4735 20.9634 82.179C20.7052 82.5758 20.8847 82.9475 21.1839 83.2246C21.1618 83.3317 21.1461 83.4419 21.1272 83.5396C20.4186 87.7411 28.3995 119.312 29.2876 122.364C29.6001 123.611 29.9882 124.839 30.4498 126.039C30.7517 126.83 31.2225 127.544 31.8293 128.134C36.941 132.578 66.112 133.346 63.9766 126.521C63.8478 126.167 63.665 125.834 63.4349 125.535C63.2077 125.2 62.9527 124.884 62.6727 124.591C61.6138 123.632 60.3371 122.945 58.9531 122.591L58.7484 122.531C59.1735 121.885 59.4224 121.142 59.2019 120.424C58.9216 119.353 57.6586 118.789 56.6823 118.534C54.9595 118.121 53.18 118.112 51.4226 118.062C49.9977 118.045 48.5775 117.896 47.1801 117.618C45.7812 117.377 44.5351 116.591 43.7156 115.432C42.859 114.298 43.3786 113.259 44.6007 112.556C46.4904 111.529 48.6037 110.981 50.3801 109.407C51.7596 108.172 52.4745 106.919 52.7107 105.07C52.8076 103.708 52.6918 102.339 52.3674 101.013C52.0449 99.7674 51.7863 98.506 51.5926 97.2338C51.432 95.9205 51.4852 94.5899 51.7501 93.2937C51.8288 92.8842 51.9107 92.4717 52.0052 92.0622C52.0304 91.952 52.0556 91.8418 52.084 91.7284C52.0902 91.7023 52.0913 91.6752 52.0869 91.6487C52.0826 91.6222 52.073 91.5968 52.0588 91.574C52.0403 91.5439 52.0143 91.5191 51.9834 91.502C51.9525 91.4849 51.9177 91.4761 51.8824 91.4764C51.8278 91.4779 51.7758 91.5004 51.7375 91.5394C51.6682 91.6118 51.6714 91.7284 51.6399 91.8197C51.558 92.1756 51.4761 92.5315 51.4068 92.8905C51.1637 93.9977 51.0579 95.1307 51.0918 96.2637C51.164 97.2804 51.3189 98.2894 51.5548 99.281C51.9069 100.554 52.1679 101.851 52.3359 103.161C52.5469 104.953 52.2131 106.815 51.1548 108.096C50.0966 109.378 48.8305 110.204 47.3061 110.931C46.4557 111.337 45.0636 111.829 44.1188 112.44C42.859 113.262 42.481 114.537 43.4479 115.775C44.0148 116.561 44.7739 117.189 45.6526 117.599C46.6145 117.984 47.628 118.225 48.6604 118.314C51.1139 118.629 53.6367 118.421 55.9043 118.827C56.5237 118.909 57.1244 119.097 57.6807 119.381C58.0688 119.554 58.4021 119.829 58.6444 120.178C58.859 120.553 58.921 120.996 58.8176 121.416C58.7045 121.776 58.5378 122.117 58.3232 122.427C57.0423 122.134 55.7346 121.973 54.4209 121.948C50.9564 121.803 47.4919 122.31 44.1093 123.117C43.0753 123.379 42.0599 123.711 41.07 124.109C40.452 124.319 39.877 124.639 39.3724 125.054C38.815 125.561 38.7425 126.285 39.3724 126.78C39.7433 127.076 40.1726 127.291 40.6322 127.409C41.423 127.643 42.2376 127.785 43.0605 127.835C44.1936 127.939 45.3334 127.951 46.4683 127.869C50.4462 127.583 54.5343 126.395 57.6334 123.803C57.9453 123.537 58.2321 123.243 58.4901 122.924C58.7137 122.987 58.9405 123.054 59.1704 123.129C60.3229 123.457 61.3872 124.04 62.2853 124.833C62.5548 125.09 62.7976 125.374 63.0097 125.68C67.8663 132.203 41.7062 132.518 33.0072 128.468C31.908 127.954 30.9852 126.735 29.9931 123.265C29.4294 121.299 28.8687 119.337 28.4184 117.344C27.7885 114.591 21.2721 87.4734 21.5209 84.6482C21.5562 84.287 21.6237 83.9297 21.7225 83.5805C22.34 83.8394 22.9859 84.0244 23.6468 84.1317C24.3775 84.2892 25.1177 84.4089 25.8515 84.5317C28.8656 84.9915 31.9238 85.0703 34.9599 85.3506C40.2165 85.8073 45.4983 85.738 50.7706 85.7726C51.6273 85.7726 52.486 85.7663 53.3469 85.7537C56.8015 85.7394 60.2514 85.4974 63.6742 85.0293C65.5309 84.7844 67.3618 84.3733 69.145 83.801C69.5292 83.6687 69.9135 83.5333 70.2851 83.3664C70.5028 83.2872 70.7052 83.171 70.8835 83.0231C70.9618 82.9378 71.0189 82.8353 71.0504 82.7239C71.0819 82.6125 71.0868 82.4953 71.0648 82.3816C71.0427 82.268 70.9943 82.1611 70.9234 82.0696C70.8526 81.9781 70.7612 81.9044 70.6567 81.8546C69.6142 81.2058 68.3891 80.9381 67.1923 80.6924C65.9482 80.453 64.7041 80.2231 63.4538 80.0279C61.2711 79.7129 59.0759 79.4515 56.8775 79.3003L57.035 78.9003C57.2429 78.3681 57.4413 77.8358 57.6366 77.3067C60.2601 77.4673 62.89 77.6531 65.3466 77.9807C71.1481 78.7586 74.2661 79.2972 73.8693 85.4608C73.7748 86.8875 73.6583 88.1726 73.4787 89.4418C73.1638 91.7189 72.6473 93.9582 72.2189 96.2133C71.6457 99.2054 69.6993 109.331 69.356 111.589C69.0631 113.438 68.745 115.287 68.4899 117.142C68.1497 119.558 67.8442 121.98 67.5041 124.386C67.2678 125.935 66.9246 127.576 66.3041 128.824C65.8107 129.748 64.998 130.461 64.0175 130.83C62.3735 131.513 60.868 131.677 59.1893 131.844C57.4445 132.027 55.6933 132.159 53.9359 132.159C51.0667 132.159 42.1125 132.272 36.1725 131.009C35.157 130.808 34.1626 130.512 33.2025 130.124L32.8246 129.967C32.782 129.944 32.7325 129.939 32.686 129.951C32.6558 129.963 32.6294 129.983 32.6097 130.009C32.59 130.035 32.5777 130.066 32.5741 130.098C32.5706 130.131 32.5759 130.163 32.5895 130.193C32.6031 130.222 32.6245 130.248 32.6513 130.266C34.1501 130.915 35.7214 131.381 37.3315 131.655C41.385 132.43 56.5028 133.513 62.9971 131.705C64.638 131.249 66.1687 130.414 66.8773 128.786C67.6174 127.085 67.9198 125.233 68.156 123.403C68.3282 122.173 68.4951 120.939 68.6568 119.703C68.9717 117.29 69.3371 114.884 69.7339 112.481C70.0741 110.415 71.9386 100.323 72.6252 96.733C73.0661 94.4212 73.5984 92.1284 73.9386 89.804C74.2488 87.7843 74.4025 85.7436 74.3984 83.7002C74.2724 79.083 70.0867 78.3271 68.7733 78.0688C67.8096 77.8799 66.8395 77.7287 65.8663 77.5964C63.1892 77.2311 60.4932 77.0452 57.7972 76.8752C58.1688 75.8673 58.531 74.8847 58.9153 73.9556C59.5893 72.2611 60.4365 70.6391 61.2207 68.9919C62.0711 67.288 62.8743 65.5621 63.7561 63.8739C64.4616 62.5291 65.186 61.1968 66.0017 59.9149C66.7009 58.8347 67.3875 57.8898 68.0899 56.9575C68.7198 56.1292 69.4316 55.345 70.1087 54.545C70.9339 53.5781 71.7433 52.6049 72.5748 51.6443C74.0771 49.9404 75.6078 48.2522 76.9999 46.4507C79.4597 43.1626 81.2014 39.3863 82.5777 35.5313C83.1667 33.7896 83.7178 32.029 84.1525 30.2369C84.5556 28.3472 84.8548 26.4575 85.1446 24.5677C85.5918 21.2481 85.9981 17.8907 85.5666 14.5585ZM15.8643 14.801C14.9601 13.6565 14.1908 12.4115 13.5715 11.0909C12.9633 9.92798 12.4371 8.72403 11.9967 7.48782C11.3668 5.54771 10.6078 3.2832 11.1621 1.61079C11.1814 1.56481 11.2045 1.52055 11.2314 1.47851C11.307 1.51946 11.3007 1.52891 11.4109 1.68638C11.5558 1.91945 11.6943 2.15566 11.8298 2.39188C12.6644 3.83751 13.625 5.69889 14.2612 7.04689C15.2636 9.30226 16.0237 11.6577 16.5289 14.0735C16.6423 14.6404 16.7472 15.2189 16.8438 15.8089C16.4974 15.4908 16.1793 15.1569 15.8643 14.801ZM57.6492 123.211C54.7925 125.825 50.6383 127.139 46.7707 127.457C45.5136 127.574 44.2483 127.574 42.9913 127.457C42.3069 127.414 41.628 127.309 40.963 127.142C40.3488 126.934 39.9457 126.827 39.511 126.383C39.4519 126.323 39.4056 126.251 39.3746 126.173C39.3437 126.094 39.3288 126.01 39.3308 125.926C39.3329 125.842 39.3518 125.759 39.3866 125.682C39.4213 125.605 39.4711 125.536 39.5331 125.479C40.0037 125.052 40.5598 124.73 41.1645 124.534C41.9589 124.211 42.7718 123.935 43.5991 123.709C44.8736 123.363 46.1657 123.087 47.4699 122.88C49.7314 122.481 52.0279 122.315 54.3233 122.386C55.5651 122.41 56.8016 122.556 58.0145 122.824C57.8994 122.959 57.7775 123.088 57.6492 123.211ZM53.5705 77.82C53.6272 77.5775 53.6808 77.335 53.7312 77.0893L54.6351 77.1366C54.4146 77.6941 54.2067 78.198 54.0052 78.872C53.9737 78.9728 53.9485 79.0767 53.9201 79.1869H53.2587C53.3784 78.724 53.4729 78.2704 53.5705 77.82ZM55.2492 77.1649L55.5642 77.1838C55.3595 77.8578 55.1548 78.5318 54.9658 79.209L54.3359 79.1901C54.5421 78.499 54.786 77.8198 55.0666 77.1555L55.2492 77.1649ZM55.2335 76.7271C55.5484 75.9492 55.835 75.1681 56.1311 74.3839C56.9594 72.2296 57.6618 70.0281 58.5027 67.8801C59.0476 66.5479 59.8129 64.6865 60.4995 63.1968C61.1861 61.707 61.9388 60.2582 62.6853 58.7874C63.3435 57.5496 64.1152 56.3749 64.8899 55.1969C65.6805 53.9371 66.4805 52.6931 67.2521 51.4175C68.0237 50.1419 68.7166 48.8664 69.4568 47.594C70.0701 46.4416 70.7516 45.3267 71.4977 44.2555C72.4803 42.8035 73.4535 41.591 74.496 40.1264C74.8803 39.6194 75.6267 38.6084 76.0708 37.8966C77.0839 36.1582 77.9489 34.3376 78.6566 32.4542C78.9936 31.5282 79.2865 30.5865 79.5447 29.6416C79.7998 28.7818 80.0424 27.9157 80.2345 27.0401C80.5494 25.6228 80.7888 24.2055 81.0345 22.7599C80.9683 24.2843 80.9179 25.8905 80.7478 27.2039C80.4108 30.1109 79.2707 32.5738 77.8188 35.0777C76.6377 37.2005 75.3464 39.2572 74.0393 41.3044C71.9355 44.5452 69.9733 47.8774 68.0206 51.2096C66.9707 53.0133 65.9597 54.8431 64.9876 56.6993C64.1477 58.379 63.2984 60.0588 62.4396 61.7385C61.12 64.4566 59.668 67.1116 58.4366 69.8738C57.4211 72.069 56.5233 74.3168 55.7469 76.6075L55.7154 76.7114L55.2335 76.7271ZM55.2681 79.6499C55.5831 79.6499 55.9201 79.6783 56.2476 79.6972C55.8564 80.6879 55.3679 81.6374 54.7894 82.5317L54.6382 82.7554C54.7622 81.7046 54.9729 80.6659 55.2681 79.6499ZM53.3028 77.0862C53.2209 77.4956 53.1327 77.9082 53.0414 78.3177C52.9784 78.6074 52.9091 78.894 52.8304 79.1806H52.2761C52.4178 78.4751 52.5532 77.7665 52.6887 77.0579L53.3028 77.0862ZM51.6903 82.39C51.6903 82.0467 52.1092 80.0027 52.191 79.5995H52.7107C52.6162 79.9019 51.8351 82.0499 51.6903 82.3743V82.39ZM45.5046 79.335C45.5046 78.9192 45.5046 78.5003 45.5046 78.0752V77.1303L46.5282 77.0421C46.5093 77.6027 46.4778 78.1444 46.4368 78.5035C46.4022 78.7617 46.3707 79.02 46.3392 79.2751L45.5046 79.335ZM46.2825 79.7035C46.1912 80.453 46.0998 81.1995 45.9896 81.9459C45.9258 82.5453 45.6525 83.103 45.218 83.5207C45.24 83.4357 45.2526 83.3443 45.2747 83.2624C45.3718 82.7601 45.4359 82.2519 45.4668 81.7412C45.514 81.0798 45.5172 80.4153 45.5077 79.7476L46.2825 79.7035ZM45.5046 76.6988C45.5046 75.7224 45.5046 74.7461 45.4605 73.7729C45.3942 72.2301 45.1833 70.6969 44.8306 69.1935C44.607 68.1856 44.3644 67.1809 44.0747 66.192C44.292 66.6046 44.5188 67.0077 44.7581 67.4077C44.9503 67.7226 45.1487 68.0376 45.3597 68.3525V68.3777C46.1696 70.7767 46.572 73.2944 46.5502 75.8264C46.5502 76.072 46.5502 76.3429 46.5502 76.6232C46.2006 76.6358 45.8573 76.6642 45.5046 76.6988ZM46.1345 69.3824C46.4666 69.7959 46.8287 70.1843 47.2179 70.5446C47.2022 71.3509 47.1959 72.154 47.1959 72.9603C47.1959 74.0217 47.24 75.0831 47.2872 76.1413C47.2872 76.2831 47.2872 76.4216 47.2872 76.5634L46.9502 76.5823C46.9502 76.4878 46.9502 76.3965 46.9502 76.302C47.0246 73.9677 46.7497 71.6354 46.1345 69.3824ZM46.8904 78.2263C46.925 77.8263 46.9439 77.4232 46.9565 77.0232L47.3156 77.0012C47.3376 77.6059 47.3628 78.2106 47.4289 78.8121C47.4289 78.9539 47.4573 79.0956 47.473 79.2373C47.2368 79.2373 47.0038 79.2531 46.7675 79.2657C46.799 78.9192 46.8431 78.5728 46.8778 78.2263H46.8904ZM47.2337 69.9399C46.9577 69.6763 46.6999 69.3943 46.462 69.0958C46.2069 68.7809 45.9676 68.447 45.7439 68.11C45.114 66.1699 44.4841 64.2298 44.0085 62.2487C43.3629 59.5307 42.8779 56.7717 41.996 54.1167C41.5922 52.9247 41.2816 51.7032 41.0669 50.4632C40.8311 48.8081 40.8046 47.1298 40.9881 45.468C41.2851 43.9505 41.7129 42.4615 42.2669 41.0177C43.6243 37.2383 45.3565 33.5439 46.0463 29.5534C46.0967 29.2574 46.1376 28.9582 46.166 28.659C46.7108 30.2652 47.2809 31.8652 47.8888 33.4494C48.4966 35.0336 49.1486 36.5738 49.7533 38.1517C50.6068 40.2965 51.495 42.4382 52.0525 44.6838C52.7963 47.6202 53.175 50.6371 53.18 53.6663C53.18 53.9812 53.18 54.271 53.1611 54.5702C53.0131 55.4017 52.8461 56.2268 52.6572 57.052C52.4745 57.9528 52.3422 58.8661 52.1343 59.7606C51.8981 60.8126 51.5958 61.8456 51.3281 62.8881C51.0887 63.7983 50.8903 64.718 50.6793 65.6345C50.4013 66.8174 50.0628 67.9854 49.6651 69.1336C49.3887 69.8516 49.0733 70.554 48.7202 71.2375C48.8273 69.7761 48.9722 68.321 49.0887 66.8597C49.3496 63.5033 49.3085 60.1302 48.9659 56.7812C48.7013 53.9466 48.2699 51.1403 47.9203 48.3184C47.7187 46.6964 47.3282 45.1058 47.0478 43.4964C46.8652 42.4823 46.7329 41.5311 46.5817 40.4193C46.567 40.3671 46.5324 40.3226 46.4853 40.2955C46.4382 40.2685 46.3824 40.2609 46.3298 40.2745C46.1943 40.3154 46.1723 40.454 46.1628 40.5737C46.1329 40.8108 46.1171 41.0496 46.1156 41.2886C46.0526 44.5389 46.3487 47.7798 46.6668 51.0112C46.8085 52.3655 47.0793 53.6978 47.2274 55.0489C47.3534 56.3087 47.4195 57.5685 47.4793 58.8284C47.5392 59.8834 47.5864 60.9385 47.5959 61.9779C47.5959 64.1826 47.41 66.3872 47.2809 68.5919C47.2463 69.0391 47.2337 69.4895 47.2211 69.9399H47.2337ZM54.1217 44.9106C53.9548 43.0209 53.8067 41.1311 53.5957 39.2635C53.391 37.6698 53.1737 36.0793 53.0603 34.4762C52.9469 32.8731 52.7454 31.1975 52.6194 29.5566C52.569 28.5834 52.569 27.607 52.5438 26.6338C52.5091 24.8134 52.4462 22.993 52.4745 21.1694C52.5406 19.3931 52.6603 17.6136 52.7894 15.8404C52.8556 15.0058 52.9469 14.1774 53.0288 13.346C53.0572 14.8798 53.1611 16.4136 53.2209 17.9506C53.2902 20.4702 53.3343 22.9961 53.3532 25.5283C53.3532 27.7582 53.3249 29.9912 53.4445 32.2211C53.5233 34.0195 53.7595 35.8084 53.9831 37.5753C54.1689 39.0335 54.3201 40.4918 54.4713 41.95C54.8713 45.5877 54.654 49.638 54.2634 53.0395C54.0146 55.3072 53.5957 57.5496 53.3186 59.8142C52.9375 62.485 52.6666 65.1684 52.2477 67.836C51.8131 70.7367 51.2714 73.6154 50.8021 76.5098L50.2509 76.4941C50.3895 75.4201 50.5218 74.3429 50.6982 73.2753C50.8745 72.2076 51.1107 71.0958 51.3281 70.0092C51.5454 68.9226 51.7092 67.877 51.9265 66.8187C52.2824 65.181 52.6036 63.5369 52.8713 61.8803C53.1044 60.4756 53.2745 59.0646 53.4036 57.6473C53.5075 56.5859 53.5957 55.5213 53.6304 54.4537C53.6524 54.3182 53.6745 54.1859 53.6934 54.0505C53.9075 52.6521 54.1185 51.2506 54.213 49.8396C54.288 48.1961 54.2532 46.5494 54.1091 44.9106H54.1217ZM48.7108 79.1995C48.6604 78.4499 48.6226 77.6993 48.5974 76.9476C48.9785 76.9476 49.3628 76.9476 49.7438 76.9476C49.6494 77.6972 49.5423 78.4468 49.41 79.1901L48.7108 79.1995ZM49.3407 79.609C49.2242 80.1129 49.1045 80.62 48.947 81.1113C48.947 81.0735 48.925 81.0294 48.9124 80.9853C48.8248 80.5352 48.769 80.0795 48.7454 79.6216L49.3407 79.609ZM49.1045 76.4941H48.588C48.5607 75.4442 48.5607 74.4007 48.588 73.3634C48.6069 72.8469 48.6352 72.3336 48.6667 71.8233C48.7478 71.8214 48.8258 71.7914 48.8872 71.7383C49.0313 71.5649 49.1501 71.3719 49.2399 71.1651C49.4194 70.8029 49.5864 70.4344 49.747 70.0659C50.346 68.5799 50.818 67.0458 51.158 65.4802C51.5454 63.6219 52.0871 61.8015 52.5312 59.9559C52.6698 59.3732 52.7769 58.7843 52.8808 58.1953C52.7674 59.348 52.6446 60.3464 52.4462 61.5747C52.1627 63.4361 51.7816 65.2786 51.3974 67.1211C51.2336 67.9651 51.1013 68.8155 50.9312 69.6407C50.7423 70.6391 50.5155 71.6312 50.3486 72.6328C50.1218 73.8926 49.9738 75.1933 49.8131 76.4752L49.1045 76.4941ZM47.7407 56.63C47.662 54.7403 47.2683 52.8915 47.0573 51.0207C46.8526 48.8412 46.629 46.6586 46.5565 44.4696C46.5313 43.8901 46.503 43.2445 46.4904 42.6114C46.5628 43.0649 46.6353 43.5185 46.7203 43.9689C46.9093 45.0366 47.1612 46.0948 47.3345 47.1625C47.4919 48.0538 47.6116 49.1593 47.7502 50.2049C48.1407 53.1371 48.5407 56.0725 48.7234 59.0236C48.821 60.6362 48.8305 62.2519 48.8116 63.8676C48.7612 66.2487 48.4714 68.614 48.2919 70.9855C48.0714 70.7619 47.8384 70.532 47.6053 70.3084C47.6179 69.6911 47.6389 69.0748 47.6683 68.4596C47.7848 66.488 47.9455 64.5164 47.9833 62.5417C48.0211 60.5669 47.851 58.5984 47.7344 56.63H47.7407ZM47.5927 70.9068C47.747 71.0548 47.9077 71.206 48.04 71.3635L48.2478 71.5966L48.2132 72.0469C48.1124 73.5367 48.1187 75.0296 48.1628 76.5193L47.6872 76.5413C47.6872 76.4059 47.6872 76.2705 47.6872 76.135C47.5833 74.3933 47.5581 72.6517 47.5864 70.9068H47.5927ZM47.7659 76.9728L48.1848 76.9571C48.1848 77.3161 48.2132 77.6752 48.2289 78.0311C48.2447 78.387 48.2699 78.8184 48.2982 79.209H47.8667V79.105C47.7785 78.3933 47.7439 77.6783 47.7187 76.9634L47.7659 76.9728ZM48.3297 79.6342C48.3297 79.8074 48.358 79.9775 48.3738 80.1507C48.4012 80.5381 48.4655 80.922 48.5659 81.2971C48.5927 81.4353 48.6485 81.5663 48.7297 81.6814C48.7636 81.7267 48.8099 81.7612 48.863 81.7808C48.9161 81.8003 48.9737 81.8041 49.0289 81.7916C49.199 81.7255 49.2368 81.5207 49.2998 81.3696C49.4032 81.0783 49.4915 80.7818 49.5643 80.4814C49.6441 80.1895 49.7134 79.8966 49.7722 79.6027H50.1942C49.7218 82.5065 48.6604 82.2829 48.462 82.0026C48.2354 81.6086 48.0968 81.1702 48.0557 80.7176C48.0116 80.4751 47.9612 80.0594 47.914 79.6499L48.3297 79.6342ZM49.9045 79.1806H49.8509C49.958 78.5917 50.0399 77.9996 50.1218 77.4074C50.1438 77.2531 50.1627 77.0925 50.1816 76.9476H50.7139C50.5785 77.6878 50.4367 78.4247 50.2824 79.1523L49.9045 79.1806ZM51.1233 76.976L52.254 77.0201C52.1186 77.7382 51.98 78.4531 51.832 79.1649H50.6919C50.8399 78.4405 50.9816 77.7161 51.117 76.9728L51.1233 76.976ZM40.9661 54.482C40.585 52.3498 40.3362 50.0727 40.0622 47.7861C39.9016 46.2113 39.8638 44.6366 39.8197 43.0397C39.7041 40.7463 39.8659 38.4473 40.3015 36.1927C40.7013 34.1091 41.2123 32.0485 41.8322 30.0196C42.3078 28.4448 42.7456 26.8417 43.2936 25.2795C44.3109 22.467 45.2999 19.897 46.3927 17.1947C46.966 15.727 47.4447 14.4987 48.1029 13.0247C48.7328 11.6578 49.3155 10.2741 49.8509 8.87362C50.147 8.13977 50.7328 6.66894 51.1107 5.72408C51.791 3.96034 52.2792 2.42022 53.202 0.773018C53.2272 0.728924 53.2556 0.68483 53.2839 0.640737L53.3249 0.584045C53.3374 0.570132 53.349 0.555402 53.3595 0.539952C53.4444 1.00178 53.496 1.46912 53.5138 1.93835C53.5799 2.55521 53.7152 3.16268 53.917 3.74933C54.4146 5.29575 55.4917 7.10988 56.0681 8.39174C56.5594 9.48777 56.9279 10.6342 57.3846 11.7428C57.9988 13.2452 58.6444 14.7349 59.183 16.2656C59.7216 17.7962 60.1782 19.3332 60.6003 20.8922C60.994 22.3725 61.3845 23.8591 61.6522 25.3709C61.816 26.2905 61.942 27.6007 62.0522 28.7188C62.2066 30.0259 62.342 31.3329 62.3672 32.6494C62.4528 34.2563 62.3863 35.8676 62.1688 37.4619C62.013 38.6736 61.7891 39.8754 61.4979 41.0618C61.0948 42.5925 60.5782 44.0885 60.1121 45.5972C59.646 47.1058 59.1673 48.6995 58.7452 50.2585C58.3232 51.8175 57.9295 53.4647 57.5263 55.0678C57.1232 56.6709 56.635 58.3433 56.2098 59.9874C55.7972 61.5275 55.4508 63.0834 55.076 64.6298C54.7012 66.1762 54.2508 67.7132 53.9044 69.2722C53.6997 70.1226 53.5296 70.9792 53.3375 71.8296C53.1863 72.5005 52.9942 73.165 52.8587 73.8422C52.6824 74.7587 52.5154 75.6784 52.3422 76.5949L51.2115 76.5508C51.3911 75.5555 51.558 74.5571 51.7218 73.5619C52.4188 69.7824 52.9952 65.9778 53.4509 62.148C53.6461 60.6929 53.8456 59.2388 54.0493 57.7859C54.3642 55.8678 54.6477 53.9403 54.8366 52.0065C55.2103 48.68 55.244 45.3242 54.9374 41.991C54.7926 40.5453 54.6225 39.1028 54.4461 37.6635C54.2162 35.8935 53.9768 34.1203 53.8855 32.3376C53.75 30.0479 53.7847 27.7519 53.7595 25.4622C53.7238 22.9615 53.6682 20.4618 53.5926 17.9632C53.5075 16.1522 53.4036 14.3412 53.369 12.5239C53.3154 9.59171 52.8839 10.4767 52.6257 12.9838C52.4272 14.9207 52.254 16.8608 52.1532 18.8072C52.043 20.3379 51.9989 21.8686 52.0336 23.4024C52.0588 24.7966 52.0882 26.1918 52.1217 27.5881C52.1406 28.533 52.1469 29.4779 52.2477 30.4227C52.443 32.4258 52.6036 34.4289 52.7957 36.432C52.8902 37.3359 53.0257 38.2367 53.139 39.1406C53.2335 39.9879 53.3091 40.8414 53.391 41.6886C53.5611 43.6319 53.7784 45.572 53.8067 47.5247C53.8358 48.9288 53.761 50.3331 53.5831 51.7262C53.4628 49.4624 53.1339 47.2146 52.6005 45.0114C52.055 42.8867 51.3442 40.808 50.4745 38.7942C49.8068 37.1123 49.136 35.4336 48.4399 33.7549C47.8636 32.325 47.3439 30.8731 46.8211 29.4212C46.5975 28.8322 46.4305 28.2243 46.1912 27.6448C46.1651 27.6033 46.124 27.5735 46.0764 27.5617C46.0288 27.55 45.9784 27.5572 45.9361 27.5818C45.8195 27.6511 45.8321 27.7897 45.8321 27.8968C45.8321 28.0039 45.8321 28.174 45.8321 28.3125C45.6526 30.7471 44.7518 33.4179 43.8479 35.8399C43.1771 37.5911 42.3834 39.4839 41.7188 41.3862C41.2433 42.661 40.8726 43.9724 40.6102 45.3074C40.2879 47.8404 40.4862 50.4126 41.1929 52.8663C41.5267 54.0505 41.9362 55.2095 42.2322 56.4001C42.6826 58.1103 43.0196 59.8457 43.4133 61.5653C43.807 63.2849 44.2794 64.8818 44.7991 66.5164C44.1539 65.3731 43.6141 64.1734 43.1865 62.9322C42.2322 60.1746 41.4879 57.3487 40.9598 54.4789L40.9661 54.482ZM39.448 70.3304C38.8843 69.4658 38.2745 68.6321 37.6213 67.8329C36.9253 66.9164 36.1568 66.0565 35.382 65.203C34.0529 63.7259 32.6608 62.3023 31.2624 60.8882C29.464 59.0362 27.3223 56.8819 25.8578 55.0332C24.219 52.8757 22.8316 50.5383 21.7225 48.0664C20.8854 46.0582 20.2021 43.9893 19.6784 41.8776C18.6436 38.1931 18.0412 34.4008 17.8832 30.577C17.6942 26.0291 17.8832 21.3993 17.3541 16.8703C18.1291 17.5458 18.9476 18.1697 19.8044 18.738C21.124 19.6828 22.4815 20.5489 23.8232 21.4528C25.7092 22.7147 27.4988 24.1148 29.1774 25.6417C30.8637 27.1473 32.3083 28.9032 33.4608 30.8479C34.0317 31.7571 34.5501 32.6983 35.0135 33.6667C35.4925 34.7857 35.8986 35.9346 36.2292 37.106C37.2087 40.3532 37.6307 43.4051 38.0024 46.7404C38.4488 50.1847 39.1788 53.5862 40.185 56.9103C40.5503 58.2999 40.9962 59.667 41.5204 61.0047C42.0527 62.3149 42.5913 63.2912 43.0637 64.5889C43.5638 65.9936 43.9751 67.4284 44.2952 68.8848C44.5981 70.1326 44.8159 71.3995 44.9471 72.6768C45.0573 74.028 45.0762 75.3855 45.0699 76.7429L44.7329 76.7775L43.6086 76.9035C43.4952 76.3933 43.3849 75.8831 43.2684 75.3728C42.755 73.1178 42.2102 70.869 41.6086 68.6391C41.1551 66.9982 40.6385 65.3762 40.1441 63.7511C39.6685 62.1763 39.2402 60.6015 38.7425 59.0268C38.1126 57.0363 37.4197 55.0678 36.7048 53.1088C35.6604 50.3617 34.3899 47.7059 32.9064 45.1688C31.1679 41.9595 29.1585 38.9107 27.2373 35.8147C26.3616 34.4422 25.5676 33.0193 24.8594 31.5534C24.2736 30.3282 23.713 28.8574 23.1146 27.459L22.7713 26.6937C22.7366 26.6149 22.7051 26.5362 22.6642 26.4606C22.6434 26.4189 22.6086 26.3859 22.5659 26.3673C22.5232 26.3487 22.4753 26.3457 22.4306 26.3588C22.3859 26.372 22.3473 26.4004 22.3215 26.4392C22.2956 26.4779 22.2843 26.5245 22.2894 26.5708C22.4663 27.4411 22.6902 28.3011 22.9602 29.1472C23.4264 30.6558 23.7823 32.2117 24.4657 33.6447C24.7976 34.3148 25.1809 34.9581 25.6121 35.5691C26.1727 36.4383 26.7397 37.3076 27.3255 38.158C28.9306 40.4657 30.3362 42.9059 31.527 45.4523C32.9001 48.4254 34.6292 51.3356 35.8198 54.23C36.2953 55.3733 36.7016 56.5449 37.1615 57.6945C37.5867 58.7748 38.078 59.8268 38.4559 60.9259C38.7709 61.8708 39.0354 62.8157 39.3063 63.7605C39.7189 65.1904 40.0748 66.6329 40.3929 68.088C40.7078 69.4549 40.9755 70.8312 41.3377 72.1824C41.6999 73.5335 42.1031 74.8154 42.4464 76.1413C42.5251 76.4311 42.5944 76.724 42.6637 77.0138L42.0117 77.0893C41.7251 74.7555 40.5252 72.091 39.4417 70.3273L39.448 70.3304ZM42.1566 78.5476C42.1493 78.2052 42.123 77.8635 42.0779 77.524L42.248 77.5019L42.7645 77.4421C42.9251 78.1381 43.0794 78.8342 43.2086 79.5334L42.1251 79.6342C42.162 79.2721 42.1705 78.9078 42.1503 78.5444L42.1566 78.5476ZM41.6905 72.0091C41.2244 70.195 40.8653 68.3557 40.4307 66.5353C40.1661 65.4203 39.8575 64.3306 39.5488 63.2188C39.2748 62.2204 38.9913 61.222 38.6228 60.2519C38.1977 59.1591 37.7158 58.0914 37.3032 56.9953C36.8182 55.7355 36.3583 54.4505 35.804 53.2159C35.0198 51.4647 34.1064 49.7766 33.2308 48.0727C32.4624 46.6082 31.7884 45.0995 31.0577 43.6193C30.2514 42.0791 29.3569 40.58 28.4121 39.1186C27.3822 37.5785 26.346 36.0415 25.3476 34.4825C24.2641 32.7912 23.8673 30.807 23.2405 28.8133L23.2122 28.7125C23.8215 30.2669 24.5143 31.7872 25.2877 33.2667C26.0846 34.7502 27.0011 36.1643 27.8892 37.5911C29.2782 39.8115 30.7049 42.0004 31.9836 44.2964C32.7395 45.6665 33.5269 47.0208 34.2355 48.416C35.2042 50.3367 36.0459 52.3189 36.7552 54.3497C37.3378 56.0284 37.9331 57.7008 38.4559 59.389C38.9504 60.9637 39.3756 62.5543 39.8543 64.1322C40.4464 66.0754 41.0606 68.0124 41.5551 69.9809C42.1451 72.2905 42.6941 74.6086 43.2023 76.935L43.0448 76.9539C42.67 75.2941 42.1094 73.6658 41.6842 72.006L41.6905 72.0091ZM43.1487 77.4011L43.2936 77.3823C43.4448 78.0846 43.5897 78.7838 43.7314 79.4861H43.5928C43.4542 78.7901 43.2999 78.0909 43.1487 77.4011ZM43.8133 79.8924C43.9109 80.3838 44.0085 80.8751 44.103 81.3664C44.1975 81.8577 44.3015 82.3711 44.418 82.8656C44.4715 83.0451 44.5125 83.2309 44.5786 83.4073C44.1629 82.6546 43.9487 81.5176 43.7849 80.5444C43.7408 80.3302 43.6999 80.1192 43.659 79.9145L43.8133 79.8924ZM44.2889 80.1286L44.2322 79.8578L45.0825 79.7885C45.0825 80.3208 45.0825 80.853 45.0825 81.3885C45.0659 81.925 45.0112 82.4596 44.9188 82.9884C44.8337 82.6924 44.7613 82.3932 44.692 82.0939C44.5282 81.4357 44.4243 80.7775 44.2889 80.1224V80.1286ZM44.1471 79.4483C44.0023 78.746 43.8542 78.0405 43.6999 77.3382C44.1566 77.2846 44.6101 77.2342 45.0668 77.1901V77.82C45.0668 78.3334 45.0668 78.8499 45.0857 79.3633L44.1471 79.4483ZM22.3902 81.9144C24.7374 80.9833 27.1449 80.212 29.5963 79.6058C31.6025 79.1428 33.6214 78.7302 35.6497 78.3838C37.5394 78.0688 39.6276 77.8074 41.6873 77.5555C41.7411 78.0607 41.7663 78.5686 41.7629 79.0767C41.7621 79.2707 41.7474 79.4643 41.7188 79.6562L40.8464 79.735C39.0912 79.8696 37.344 80.0945 35.6119 80.409C33.8494 80.6773 32.1237 81.1476 30.4687 81.8105C30.2171 81.9037 29.9755 82.0219 29.7475 82.1632C29.6822 82.1978 29.6276 82.2495 29.5895 82.3128C29.5514 82.376 29.5313 82.4485 29.5313 82.5223C29.5313 82.5961 29.5514 82.6686 29.5895 82.7318C29.6276 82.7951 29.6822 82.8468 29.7475 82.8813C30.2451 83.1963 30.8844 83.2561 31.4482 83.3664C32.7042 83.4874 33.9669 83.5221 35.2277 83.4703C36.2588 83.4699 37.2884 83.392 38.3079 83.2372C39.2381 83.147 40.1232 82.7929 40.859 82.2168C41.2382 81.9187 41.5361 81.5298 41.7251 81.0861C41.8835 80.756 41.9978 80.4066 42.0653 80.0468L43.2999 79.9208C43.3345 80.1003 43.3723 80.2798 43.407 80.4593C43.5344 81.3506 43.7453 82.228 44.0369 83.0798C44.1786 83.4357 44.3235 83.8514 44.7235 83.9837C45.2337 84.1663 45.6432 83.7349 45.9077 83.3538C46.4809 82.5443 46.4494 81.5081 46.6038 80.5633C46.6416 80.2704 46.6794 79.9743 46.7203 79.6814L47.2053 79.6625H47.5203C47.5644 80.0279 47.6085 80.3964 47.6683 80.7617C47.7502 81.316 47.7691 81.9837 48.2132 82.3365C48.3045 82.4216 48.4118 82.4878 48.5289 82.5312C48.6459 82.5747 48.7704 82.5945 48.8952 82.5895C49.0199 82.5845 49.1425 82.5549 49.2557 82.5022C49.3689 82.4496 49.4706 82.3751 49.5549 82.2829C50.3234 81.5491 50.4997 80.1097 50.6131 79.5964H51.7533C51.5562 80.426 51.4141 81.2677 51.3281 82.116C51.2996 82.3579 51.3123 82.6028 51.3659 82.8404C51.3765 82.8822 51.3965 82.921 51.4244 82.9539C51.4523 82.9867 51.4873 83.0128 51.5267 83.0301C51.5662 83.0474 51.6091 83.0555 51.6522 83.0537C51.6953 83.052 51.7374 83.0404 51.7753 83.0199C51.8611 82.9538 51.9257 82.864 51.9611 82.7617C52.0409 82.5853 52.1165 82.4089 52.1879 82.2325C52.3244 81.9071 52.4535 81.5795 52.5753 81.2499C52.5973 81.1648 52.6509 81.0798 52.6729 80.9916C52.8549 80.537 53.0136 80.0734 53.1485 79.6027H53.8288C53.7752 79.8357 53.728 80.0688 53.6713 80.3019C53.5107 80.9759 53.3312 82.5853 52.9532 83.064C52.5028 83.6404 51.9328 83.801 51.1359 84.0089C50.1775 84.2444 49.2008 84.3983 48.2163 84.4687C47.5077 84.5159 46.7959 84.497 46.0872 84.5222C44.6353 84.5821 43.1802 84.5789 41.7251 84.5632C40.4874 84.5632 39.2528 84.5097 38.0181 84.4719C37.2056 84.4372 36.393 84.3522 35.5835 84.2986C34.0686 84.201 32.6986 84.1034 31.2907 83.9081C29.3349 83.6876 27.4326 83.1837 25.5113 82.7774C24.9098 82.6514 24.3082 82.5191 23.7035 82.4121C22.9823 82.2955 21.9713 82.1475 21.4075 82.705L21.3697 82.7554C21.3351 82.7302 20.8784 82.4719 22.3902 81.9081V81.9144ZM41.6433 80.0909C41.5286 80.6526 41.2885 81.1813 40.9409 81.6373C40.7124 81.8934 40.4445 82.1114 40.1472 82.2829C39.8349 82.4693 39.4962 82.6073 39.1425 82.6924C38.3005 82.9005 37.4393 83.0219 36.5725 83.0546C35.5174 83.1144 34.4592 83.1207 33.4041 83.1113C32.4398 83.1401 31.4761 83.034 30.5411 82.7963C30.3117 82.7664 30.0944 82.6762 29.9112 82.5349C29.941 82.5014 29.9749 82.4717 30.012 82.4467C31.2291 81.8859 32.5024 81.4562 33.8104 81.1648C36.3936 80.6261 39.0107 80.2651 41.6433 80.0845V80.0909ZM59.4224 79.9554C61.3121 80.1412 63.5546 80.453 65.5923 80.8373C66.5687 81.0168 67.5513 81.1806 68.5088 81.4451C69.2521 81.6341 70.2536 82.0436 70.5497 82.3302C70.7953 82.6451 70.5875 82.768 70.1623 82.9601C67.5639 83.99 64.9089 84.4089 62.2884 84.7301C58.8926 85.1032 55.4782 85.2831 52.0619 85.2687C47.4982 85.2687 42.9283 85.2687 38.3803 85.086C36.3804 84.9947 34.3899 84.8089 32.3962 84.6671C30.6167 84.5348 28.8341 84.453 27.0609 84.2419C26.3586 84.1569 24.8027 83.927 23.8578 83.7191C23.0831 83.5742 22.1099 83.3475 21.6532 83.0483C21.6815 82.9821 21.713 82.9412 21.7414 82.938C22.0208 82.7738 22.3445 82.7011 22.6673 82.7302C23.363 82.7728 24.0535 82.8782 24.7303 83.0451C26.7365 83.4451 28.7207 83.9648 30.7459 84.2388C31.634 84.349 32.5254 84.4624 33.4167 84.5537C34.1442 84.6167 34.8781 84.6419 35.6213 84.7018C36.3646 84.7616 37.1331 84.8277 37.889 84.8592C38.5977 84.8939 39.3031 84.8907 40.0118 84.9222C42.0842 84.9632 44.1597 85.0041 46.2353 84.9222C47.7129 84.9648 49.191 84.8508 50.6446 84.5821C53.9737 83.8514 53.4319 83.1018 54.2319 79.6216C54.4366 79.6216 54.6414 79.6216 54.8429 79.6405C54.5751 80.6141 54.3648 81.6027 54.213 82.601C54.1894 82.7787 54.1894 82.9588 54.213 83.1364C54.2198 83.2309 54.2574 83.3206 54.3201 83.3916C54.3677 83.4276 54.4258 83.4471 54.4855 83.4471C54.5452 83.4471 54.6032 83.4276 54.6508 83.3916C54.9598 83.015 55.2389 82.6148 55.4854 82.1947C55.9567 81.402 56.3623 80.5719 56.698 79.7129C57.6093 79.7738 58.5174 79.8525 59.4224 79.9491V79.9554ZM56.4177 79.2783C56.0744 79.2594 55.728 79.2436 55.3815 79.231L55.4004 79.1586C55.5768 78.5003 55.7689 77.8547 55.9705 77.2153L57.1736 77.2846C56.9185 77.9807 56.6665 78.661 56.4177 79.272V79.2783ZM84.6123 24.8606C84.2974 26.7504 84.0234 28.6401 83.5793 30.5298C82.951 33.0092 82.1522 35.4422 81.1888 37.8115C79.7778 41.2382 78.0203 44.6145 75.718 47.3294C74.7354 48.5325 73.7149 49.7042 72.6787 50.8632C71.8504 51.808 71.0473 52.7687 70.2347 53.7261C69.2111 54.945 68.134 56.1198 67.208 57.4174C66.5781 58.3118 65.9167 59.2 65.3466 60.1417C64.4301 61.6188 63.6144 63.1621 62.827 64.7117C61.9231 66.5447 61.016 68.3809 60.131 70.2234C59.4759 71.5651 58.8334 72.9131 58.3011 74.3178C57.9862 75.1366 57.6523 76.0122 57.3374 76.872L56.5783 76.8248L56.1154 76.7996C57.0465 74.0629 58.1424 71.3851 59.3972 68.7809C60.5719 66.2833 61.8853 63.855 63.0884 61.37C63.9545 59.685 64.7766 57.9811 65.6521 56.2993C66.6852 54.3403 67.7749 52.4128 68.8993 50.5041C70.789 47.3011 72.6787 44.1011 74.7102 40.9831C75.9007 39.0934 77.0786 37.2037 78.1589 35.2573C78.9932 33.8528 79.7015 32.3773 80.2754 30.8479C80.6999 29.6316 80.9852 28.3711 81.1258 27.0905C81.3179 25.4433 81.3431 23.7804 81.4407 22.1237C81.4691 21.5788 81.5006 21.034 81.5289 20.4891C81.5289 20.2592 81.5541 20.0293 81.5604 19.7993C81.5604 19.6828 81.5163 19.5442 81.3872 19.5379C81.1163 19.5379 81.151 19.8812 81.1037 20.0671C81.0345 20.5363 80.9494 21.0119 80.8675 21.4623C80.5526 23.2638 80.266 25.0717 79.8691 26.8574C79.6644 27.8023 79.3998 28.7472 79.1258 29.6731C78.8518 30.5991 78.5558 31.5975 78.2062 32.5392C77.4965 34.3849 76.6348 36.1684 75.6299 37.8714C75.0629 38.769 74.5653 39.4052 73.9669 40.2209C72.9528 41.6539 71.8819 42.9831 70.8615 44.5263C70.1955 45.5141 69.5816 46.5359 69.0221 47.5877C68.1151 49.1309 67.2741 50.712 66.3198 52.2269C65.2616 53.9434 64.1467 55.6221 63.0916 57.3355C62.4459 58.3874 61.8979 59.4961 61.3467 60.5984C60.4302 62.3495 59.6208 64.1511 58.868 65.9778C58.0397 67.8864 57.3437 69.8454 56.6634 71.8107C56.0839 73.4359 55.4036 75.2563 54.8209 76.7271L53.8382 76.6736C54.0461 75.65 54.2225 74.6201 54.4241 73.5965C54.9784 70.9383 55.7343 68.3242 56.5153 65.7227C57.3405 63.1747 58.0555 60.5889 58.9909 58.0788C59.5043 56.7056 60.1877 54.9009 60.6412 53.745C61.3467 52.0443 62.0806 50.353 62.7483 48.6333C63.8412 45.972 64.638 43.2035 65.6521 40.5107C66.4458 38.3343 67.1545 36.4415 68.1119 34.3439C68.7607 32.8731 69.4032 31.3959 70.156 29.9723C71.274 27.811 72.6396 25.7869 74.2252 23.941C75.3338 22.6591 76.518 21.4434 77.6708 20.2025C79.4249 18.3215 81.0396 16.3152 82.5021 14.1995C83.2367 13.0811 83.9117 11.9246 84.5241 10.735C84.543 10.6972 84.5651 10.6594 84.584 10.6185C84.584 10.6185 84.584 10.6437 84.584 10.6531C84.6228 10.7699 84.6554 10.8887 84.6816 11.009C84.8958 12.1365 84.9966 13.5475 85.1509 14.8514C85.532 18.3002 85.0879 21.5095 84.6123 24.8543V24.8606Z" fill="black"/>
</svg>
