<svg width="269" height="301" viewBox="0 0 269 301" fill="none" xmlns="http://www.w3.org/2000/svg">
<g style="mix-blend-mode:multiply" opacity="0.6">
<path d="M177.434 243.276C177.434 252.958 137.711 260.866 88.717 260.866C39.7229 260.866 0 253.007 0 243.276C0 233.545 39.7229 225.694 88.7573 225.694C137.792 225.694 177.434 233.569 177.434 243.276Z" fill="#CCCCCC"/>
</g>
<path d="M237.142 184.817C237.142 184.817 221.642 106.299 163.344 71.6028H121.677C63.3711 106.299 47.8789 184.817 47.8789 184.817C30.8294 276.116 136.765 264.489 136.765 264.489H148.255C148.255 264.489 254.191 276.116 237.142 184.817Z" fill="#E8C47B"/>
<path d="M237.144 184.817C237.144 184.817 221.643 106.299 163.346 71.6028H140.188C179.79 106.476 190.917 162.781 190.917 162.781C206.482 246.197 109.728 235.578 109.728 235.578H99.2389C99.2389 235.578 74.0157 238.337 51.3906 229.93C70.8608 271.694 136.775 264.472 136.775 264.472H148.265C148.265 264.472 254.193 276.116 237.144 184.817Z" fill="#DAB873"/>
<path d="M79.3898 20.5592C77.2273 17.719 73.8142 11.6028 77.5259 8.76254C82.3672 5.06701 91.832 8.98847 96.754 10.3763C103.209 12.1676 110.293 13.7733 117.362 13.039C124.261 12.3209 132.112 8.48819 138.228 6.00299C144.344 3.51778 150.952 -1.04111 158.36 1.24237C166.122 3.66303 169.172 10.4247 178.128 11.272C193.854 12.7728 203.142 -1.34773 217.9 0.161144C225.565 0.968029 224.686 5.72058 220.385 9.03688L163.346 71.6512H121.679L79.3898 20.5592Z" fill="#E8C47B"/>
<g style="mix-blend-mode:multiply" opacity="0.6">
<path d="M195.339 288.187C176.167 288.187 160.643 282.208 160.643 274.833C160.643 267.458 176.183 261.487 195.339 261.487C214.494 261.487 230.035 267.466 230.035 274.833C230.035 282.2 214.51 288.187 195.339 288.187Z" fill="#CCCCCC"/>
</g>
<g style="mix-blend-mode:multiply" opacity="0.6">
<path d="M231.762 247.52C212.599 247.52 197.066 241.541 197.066 234.166C197.066 226.791 212.607 220.82 231.762 220.82C250.918 220.82 266.459 226.799 266.459 234.166C266.459 241.533 250.934 247.52 231.762 247.52Z" fill="#CCCCCC"/>
</g>
<g style="mix-blend-mode:multiply" opacity="0.6">
<path d="M227.518 273.816C208.362 273.171 192.628 278.617 192.378 285.984C192.128 293.351 207.459 299.854 226.622 300.508C245.786 301.161 261.512 295.707 261.754 288.34C261.996 280.973 246.657 274.47 227.518 273.816Z" fill="#CCCCCC"/>
</g>
<g style="mix-blend-mode:multiply" opacity="0.6">
<path d="M129.376 251.748C148.531 251.094 164.266 256.541 164.516 263.916C164.766 271.291 149.435 277.778 130.28 278.44C111.124 279.101 95.3899 273.639 95.1397 266.272C94.8896 258.905 110.22 252.393 129.376 251.748Z" fill="#CCCCCC"/>
</g>
<path d="M114.117 255.677C114.117 263.044 129.658 269.023 148.813 269.023C167.969 269.023 183.509 263.044 183.509 255.677V249.367H114.117V255.677Z" fill="#FF931E"/>
<path d="M145.521 252.611V268.959C146.611 268.999 147.716 269.023 148.83 269.023V252.611H145.521Z" fill="#D17918"/>
<path d="M138.834 252.611V268.458C140.625 268.668 142.481 268.821 144.385 268.91V252.611H138.834Z" fill="#D17918"/>
<path d="M137.46 268.289V249.4H114.117V255.677C114.117 261.519 123.872 266.473 137.46 268.289Z" fill="#D17918"/>
<path d="M161.191 252.611V268.152L162.321 267.974V252.643L161.191 252.611Z" fill="#D17918"/>
<path d="M156.875 268.66L158.005 268.547V252.611H156.875V268.66Z" fill="#D17918"/>
<path d="M151.443 252.611V268.983L153.057 268.926V252.611H151.443Z" fill="#D17918"/>
<path d="M148.829 262.689C129.657 262.689 114.133 256.71 114.133 249.335C114.133 241.96 129.657 236.062 148.829 236.062C168 236.062 183.525 242.041 183.525 249.408C183.525 256.775 167.992 262.689 148.829 262.689Z" fill="#FF931E"/>
<path style="mix-blend-mode:multiply" opacity="0.4" d="M168.388 260.398C167.403 260.398 166.411 260.454 165.402 260.454C146.239 260.454 130.706 254.475 130.706 247.1C130.706 242.517 136.709 238.483 145.86 236.078C128.108 236.659 114.133 242.388 114.133 249.368C114.133 256.742 129.673 262.721 148.829 262.721C155.42 262.772 161.992 261.991 168.388 260.398Z" fill="url(#paint0_linear_48_54679)"/>
<path d="M183.509 249.779C182.936 242.598 167.638 236.869 148.813 236.869C129.989 236.869 114.698 242.622 114.117 249.779C114.682 256.952 129.989 262.689 148.813 262.689C167.638 262.689 182.912 256.96 183.509 249.779ZM148.813 261.075C133.232 261.075 120.572 256.234 120.572 250.207C120.572 244.179 133.248 239.338 148.813 239.338C164.378 239.338 177.054 244.179 177.054 250.207C177.054 256.234 164.402 261.075 148.829 261.075H148.813Z" fill="#D17918"/>
<path d="M145.682 247.52L132.256 251.393V254.072L145.973 249.836C147.7 251.101 149.697 251.949 151.807 252.313L152.428 252.434V254.854H157.415V253.007C158.496 253.055 159.512 253.055 160.392 253.007V254.814H165.37V247.633H160.392V251.102C159.585 251.102 158.52 251.102 157.415 251.062V247.633H152.428V250.053C151.29 249.662 150.29 248.95 149.547 248.004L145.682 247.52Z" fill="#D17918"/>
<path d="M177.08 249.368C177.08 255.363 164.403 260.236 148.839 260.236C133.274 260.236 120.598 255.395 120.598 249.368C120.598 243.34 133.274 238.507 148.839 238.507C164.403 238.507 177.08 243.348 177.08 249.368ZM183.535 249.368C183.535 242.001 167.994 236.022 148.839 236.022C129.683 236.022 114.143 242.001 114.143 249.368C114.143 256.734 129.659 262.689 148.831 262.689C168.002 262.689 183.527 256.71 183.527 249.335L183.535 249.368Z" fill="#FFC022"/>
<path d="M124.309 249.368C124.309 244.171 135.306 239.943 148.83 239.943C162.353 239.943 173.343 244.171 173.343 249.368C173.343 254.564 162.345 258.8 148.83 258.8C135.315 258.8 124.309 254.572 124.309 249.368ZM172.27 249.368C172.27 244.397 161.78 240.355 148.83 240.355C135.879 240.355 125.43 244.389 125.43 249.368C125.43 254.346 135.92 258.389 148.83 258.389C161.74 258.389 172.27 254.338 172.27 249.368Z" fill="#FFC022"/>
<path d="M145.682 245.745L132.256 249.61V252.288L145.973 248.052C147.702 249.315 149.698 250.162 151.807 250.529L152.428 250.65V253.071H157.415V251.24C158.496 251.28 159.512 251.288 160.392 251.24V253.007H165.37V245.833H160.392V249.295C159.399 249.332 158.406 249.319 157.415 249.255V245.833H152.428V248.254C151.292 247.86 150.292 247.149 149.547 246.205L145.682 245.745Z" fill="#FFC022"/>
<path d="M114.117 242.331C114.117 249.698 129.658 255.677 148.813 255.677C167.969 255.677 183.509 249.698 183.509 242.331V236.062H114.117V242.331Z" fill="#FF931E"/>
<path d="M145.521 239.29V255.637C146.611 255.637 147.716 255.702 148.83 255.702V239.29H145.521Z" fill="#D17918"/>
<path d="M138.834 239.29V255.137C140.625 255.347 142.481 255.492 144.385 255.589V239.29H138.834Z" fill="#D17918"/>
<path d="M137.46 254.943V236.062H114.117V242.348C114.117 248.165 123.872 253.128 137.46 254.943Z" fill="#D17918"/>
<path d="M161.191 239.29V254.822C161.571 254.766 161.95 254.717 162.321 254.653V239.29H161.191Z" fill="#D17918"/>
<path d="M156.875 255.314L158.005 255.201V239.29H156.875V255.314Z" fill="#D17918"/>
<path d="M151.443 239.29V255.661L153.057 255.597V239.29H151.443Z" fill="#D17918"/>
<path d="M148.829 249.368C129.657 249.368 114.133 243.397 114.133 236.022C114.133 228.647 129.673 222.676 148.829 222.676C167.984 222.676 183.525 228.647 183.525 236.022C183.525 243.397 167.992 249.368 148.829 249.368Z" fill="#FF931E"/>
<path style="mix-blend-mode:multiply" opacity="0.4" d="M168.388 247.052C167.403 247.052 166.411 247.1 165.402 247.1C146.239 247.1 130.706 241.129 130.706 233.754C130.706 229.171 136.709 225.129 145.86 222.724C128.108 223.305 114.133 229.034 114.133 236.022C114.133 243.397 129.673 249.368 148.829 249.368C155.42 249.421 161.991 248.643 168.388 247.052Z" fill="url(#paint1_linear_48_54679)"/>
<path d="M183.509 236.433C182.936 229.26 167.638 223.523 148.813 223.523C129.989 223.523 114.698 229.284 114.117 236.433C114.682 243.614 129.989 249.343 148.813 249.343C167.638 249.343 182.912 243.614 183.509 236.433ZM148.813 247.729C133.232 247.729 120.572 242.888 120.572 236.869C120.572 230.849 133.248 226 148.813 226C164.378 226 177.054 230.841 177.054 236.869C177.054 242.896 164.402 247.713 148.829 247.713L148.813 247.729Z" fill="#D17918"/>
<path d="M145.682 234.166L132.256 238.031V240.71L145.973 236.473C147.702 237.736 149.698 238.583 151.807 238.951L152.428 239.072V241.492H157.415V239.653C158.496 239.701 159.512 239.701 160.392 239.653V241.46H165.37V234.279H160.392V237.74C159.4 237.791 158.406 237.791 157.415 237.74V234.287H152.428V236.707C151.29 236.316 150.29 235.604 149.547 234.658L145.682 234.166Z" fill="#D17918"/>
<path d="M177.08 236.062C177.08 242.057 164.403 246.931 148.839 246.931C133.274 246.931 120.598 242.089 120.598 236.062C120.598 230.035 133.274 225.193 148.839 225.193C164.403 225.193 177.08 230.035 177.08 236.062ZM183.535 236.062C183.535 228.687 167.994 222.716 148.839 222.716C129.683 222.716 114.143 228.687 114.143 236.062C114.143 243.437 129.683 249.408 148.839 249.408C167.994 249.408 183.535 243.437 183.535 236.062Z" fill="#FFC022"/>
<path d="M124.309 236.062C124.309 230.857 135.306 226.629 148.83 226.629C162.353 226.629 173.343 230.857 173.343 236.062C173.343 241.266 162.345 245.494 148.83 245.494C135.315 245.494 124.309 241.218 124.309 236.062ZM172.27 236.062C172.27 231.091 161.78 227.049 148.83 227.049C135.879 227.049 125.43 231.083 125.43 236.062C125.43 241.04 135.92 245.075 148.83 245.075C161.74 245.075 172.27 240.992 172.27 236.062Z" fill="#FFC022"/>
<path d="M145.682 232.375L132.256 236.231V238.918L145.973 234.674C147.7 235.94 149.697 236.787 151.807 237.151L152.428 237.28V239.701H157.415V237.861C158.496 237.91 159.512 237.918 160.392 237.861V239.669H165.37V232.487H160.392V235.957C159.585 235.957 158.52 235.957 157.415 235.917V232.487H152.428V234.908C151.289 234.52 150.288 233.807 149.547 232.859L145.682 232.375Z" fill="#FFC022"/>
<path d="M114.117 228.978C114.117 236.352 129.658 242.323 148.813 242.323C167.969 242.323 183.509 236.352 183.509 228.978V222.676H114.117V228.978Z" fill="#FF931E"/>
<path d="M145.521 225.911V242.267C146.611 242.307 147.716 242.323 148.83 242.323V225.911H145.521Z" fill="#D17918"/>
<path d="M138.834 225.911V241.759C140.625 241.968 142.481 242.122 144.385 242.21V225.911H138.834Z" fill="#D17918"/>
<path d="M137.46 241.589V222.7H114.117V228.978C114.117 234.819 123.872 239.782 137.46 241.589Z" fill="#D17918"/>
<path d="M161.191 225.911V241.452L162.321 241.283V225.911H161.191Z" fill="#D17918"/>
<path d="M156.875 241.96L158.005 241.855V225.911H156.875V241.96Z" fill="#D17918"/>
<path d="M151.443 225.911V242.283C151.992 242.283 152.541 242.283 153.057 242.227V225.911H151.443Z" fill="#D17918"/>
<path d="M148.829 236.062C129.657 236.062 114.133 230.083 114.133 222.716C114.133 215.349 129.673 209.362 148.829 209.362C167.984 209.362 183.525 215.341 183.525 222.716C183.525 230.091 167.992 236.062 148.829 236.062Z" fill="#FF931E"/>
<path style="mix-blend-mode:multiply" opacity="0.4" d="M168.388 233.698C167.403 233.698 166.411 233.754 165.402 233.754C146.239 233.754 130.706 227.775 130.706 220.409C130.706 215.825 136.709 211.783 145.86 209.378C128.108 209.959 114.133 215.688 114.133 222.676C114.133 230.043 129.673 236.022 148.829 236.022C155.42 236.076 161.992 235.296 168.388 233.698Z" fill="url(#paint2_linear_48_54679)"/>
<path d="M183.509 223.087C182.936 215.906 167.638 210.177 148.813 210.177C129.989 210.177 114.698 215.93 114.117 223.087C114.682 230.269 129.989 235.998 148.813 235.998C167.638 235.998 182.912 230.269 183.509 223.087ZM148.813 234.384C133.232 234.384 120.572 229.542 120.572 223.515C120.572 217.488 133.248 212.654 148.813 212.654C164.378 212.654 177.054 217.496 177.054 223.515C177.054 229.534 164.402 234.368 148.829 234.368L148.813 234.384Z" fill="#D17918"/>
<path d="M145.682 220.82L132.256 224.677V227.364L145.973 223.128C147.702 224.39 149.698 225.237 151.807 225.605L152.428 225.726V228.146H157.415V226.307C158.496 226.355 159.512 226.363 160.392 226.347V228.146H165.37V220.965H160.392V224.435C159.399 224.472 158.406 224.459 157.415 224.394V220.965H152.428V223.386C151.292 222.991 150.292 222.28 149.547 221.336L145.682 220.82Z" fill="#D17918"/>
<path d="M177.08 222.676C177.08 228.663 164.403 233.536 148.839 233.536C133.274 233.536 120.598 228.695 120.598 222.676C120.598 216.656 133.274 211.807 148.839 211.807C164.403 211.807 177.08 216.648 177.08 222.676ZM183.535 222.676C183.535 215.301 167.994 209.322 148.839 209.322C129.683 209.322 114.143 215.301 114.143 222.676C114.143 230.051 129.659 236.062 148.831 236.062C168.002 236.062 183.527 230.083 183.527 222.716L183.535 222.676Z" fill="#FFC022"/>
<path d="M124.309 222.676C124.309 217.471 135.306 213.243 148.83 213.243C162.353 213.243 173.343 217.471 173.343 222.676C173.343 227.88 162.345 232.1 148.83 232.1C135.315 232.1 124.309 227.872 124.309 222.676ZM172.27 222.676C172.27 217.705 161.78 213.655 148.83 213.655C135.879 213.655 125.43 217.689 125.43 222.676C125.43 227.662 135.92 231.689 148.83 231.689C161.74 231.689 172.27 227.646 172.27 222.676Z" fill="#FFC022"/>
<path d="M145.682 219.029L132.256 222.886V225.573L145.973 221.336C147.702 222.599 149.698 223.446 151.807 223.814L152.428 223.935V226.355H157.415V224.516C158.496 224.564 159.512 224.564 160.392 224.516V226.323H165.37V219.118H160.392V222.587C159.585 222.587 158.52 222.587 157.415 222.539V219.118H152.428V221.538C151.29 221.147 150.29 220.435 149.547 219.489L145.682 219.029Z" fill="#FFC022"/>
<path d="M199.582 230.042C199.582 237.417 215.123 243.388 234.278 243.388C253.434 243.388 268.974 237.417 268.974 230.042V223.741H199.582V230.042Z" fill="#FF931E"/>
<path d="M230.986 226.976V243.324C232.076 243.364 233.173 243.38 234.287 243.38V226.976H230.986Z" fill="#D17918"/>
<path d="M224.291 226.976V242.824C226.093 243.033 227.944 243.184 229.842 243.275V226.976H224.291Z" fill="#D17918"/>
<path d="M222.917 242.654V223.765H199.582V230.042C199.582 235.884 209.337 240.847 222.917 242.654Z" fill="#D17918"/>
<path d="M246.656 226.976V242.517L247.786 242.347V226.976H246.656Z" fill="#D17918"/>
<path d="M242.332 243.025L243.462 242.92V226.976H242.332V243.025Z" fill="#D17918"/>
<path d="M236.861 226.976V243.324L238.515 243.267V226.976H236.861Z" fill="#D17918"/>
<path d="M234.286 237.087C215.122 237.087 199.59 231.108 199.59 223.741C199.59 216.374 215.13 210.387 234.286 210.387C253.441 210.387 268.982 216.366 268.982 223.741C268.982 231.116 253.457 237.087 234.286 237.087Z" fill="#FF931E"/>
<path style="mix-blend-mode:multiply" opacity="0.4" d="M253.845 234.763C252.86 234.763 251.868 234.819 250.859 234.819C231.687 234.819 216.163 228.84 216.163 221.473C216.163 216.89 222.174 212.848 231.316 210.443C213.565 211.024 199.598 216.753 199.598 223.741C199.598 231.108 215.138 237.087 234.294 237.087C240.883 237.14 247.452 236.359 253.845 234.763Z" fill="url(#paint3_linear_48_54679)"/>
<path d="M268.966 224.152C268.402 216.971 253.095 211.242 234.27 211.242C215.446 211.242 200.163 216.995 199.574 224.152C200.147 231.334 215.446 237.063 234.27 237.063C253.095 237.063 268.442 231.334 268.966 224.152ZM234.27 235.449C218.689 235.449 206.029 230.607 206.029 224.58C206.029 218.553 218.697 213.719 234.27 213.719C249.843 213.719 262.511 218.561 262.511 224.58C262.511 230.599 249.884 235.433 234.286 235.433L234.27 235.449Z" fill="#D17918"/>
<path d="M231.141 221.885L217.715 225.742V228.429L231.432 224.193C233.165 225.453 235.163 226.301 237.274 226.67L237.895 226.791V229.212H242.874V227.372C243.963 227.42 244.979 227.428 245.851 227.372V229.179H250.837V221.998H245.851V225.468C245.044 225.468 243.987 225.468 242.874 225.427V221.998H237.895V224.419C236.758 224.03 235.758 223.321 235.014 222.377L231.141 221.885Z" fill="#D17918"/>
<path d="M262.544 223.741C262.544 229.728 249.868 234.602 234.303 234.602C218.739 234.602 206.063 229.76 206.063 223.741C206.063 217.722 218.731 212.872 234.303 212.872C249.876 212.872 262.544 217.713 262.544 223.741ZM269 223.741C269 216.366 253.459 210.387 234.303 210.387C215.148 210.387 199.607 216.366 199.607 223.741C199.607 231.116 215.148 237.087 234.303 237.087C253.459 237.087 269 231.108 269 223.741Z" fill="#FFC022"/>
<path d="M209.773 223.741C209.773 218.536 220.771 214.308 234.287 214.308C247.802 214.308 258.808 218.536 258.808 223.741C258.808 228.945 247.81 233.165 234.287 233.165C220.763 233.165 209.773 228.937 209.773 223.741ZM257.727 223.741C257.727 218.77 247.237 214.72 234.287 214.72C221.336 214.72 210.847 218.754 210.847 223.741C210.847 228.727 221.336 232.754 234.287 232.754C247.237 232.754 257.727 228.711 257.727 223.741Z" fill="#FFC022"/>
<path d="M231.141 220.094L217.715 223.959V226.638L231.432 222.401C233.165 223.662 235.163 224.51 237.274 224.879C237.475 224.927 237.685 224.959 237.895 225V227.42H242.874V225.573C243.963 225.621 244.979 225.621 245.851 225.573V227.38H250.837V220.199H245.851V223.66C244.858 223.698 243.865 223.684 242.874 223.62V220.199H237.895V222.619C236.759 222.225 235.759 221.514 235.014 220.57L231.141 220.094Z" fill="#FFC022"/>
<path d="M199.582 216.697C199.582 224.064 215.123 230.043 234.278 230.043C253.434 230.043 268.974 224.064 268.974 216.697V210.387H199.582V216.697Z" fill="#FF931E"/>
<path d="M230.986 213.631V229.978C232.076 230.018 233.173 230.043 234.287 230.043V213.631H230.986Z" fill="#D17918"/>
<path d="M224.291 213.631V229.478C226.093 229.688 227.944 229.838 229.842 229.93V213.631H224.291Z" fill="#D17918"/>
<path d="M222.917 229.308V210.411H199.582V216.697C199.582 222.531 209.337 227.493 222.917 229.308Z" fill="#D17918"/>
<path d="M246.656 213.631V229.171L247.786 228.994V213.663L246.656 213.631Z" fill="#D17918"/>
<path d="M242.331 229.68L243.428 229.607V213.631H242.299L242.331 229.68Z" fill="#D17918"/>
<path d="M236.861 213.631V230.002C237.418 230.002 237.967 230.002 238.515 229.938V213.631H236.861Z" fill="#D17918"/>
<path d="M234.286 223.741C215.122 223.741 199.59 217.762 199.59 210.387C199.59 203.012 215.13 197.041 234.286 197.041C253.441 197.041 268.982 203.02 268.982 210.387C268.982 217.754 253.457 223.741 234.286 223.741Z" fill="#FF931E"/>
<path style="mix-blend-mode:multiply" opacity="0.4" d="M253.845 221.417C252.86 221.417 251.868 221.465 250.859 221.465C231.687 221.465 216.163 215.494 216.163 208.119C216.163 203.536 222.174 199.494 231.316 197.097C213.565 197.678 199.598 203.407 199.598 210.387C199.598 217.762 215.138 223.741 234.294 223.741C240.882 223.79 247.451 223.009 253.845 221.417Z" fill="url(#paint4_linear_48_54679)"/>
<path d="M268.966 210.807C268.402 203.625 253.095 197.896 234.27 197.896C215.446 197.896 200.163 203.65 199.574 210.807C200.147 217.98 215.446 223.717 234.27 223.717C253.095 223.717 268.442 217.98 268.966 210.807ZM234.27 222.103C218.689 222.103 206.029 217.221 206.029 211.234C206.029 205.247 218.697 200.366 234.27 200.366C249.843 200.366 262.511 205.207 262.511 211.234C262.511 217.262 249.884 222.087 234.286 222.087L234.27 222.103Z" fill="#D17918"/>
<path d="M231.141 208.539L217.715 212.396V215.083L231.432 210.847C233.165 212.107 235.163 212.955 237.274 213.324C237.475 213.372 237.685 213.413 237.895 213.445V215.866H242.874V214.026C243.963 214.074 244.979 214.074 245.851 214.026V215.833H250.837V208.628H245.851V212.097C245.044 212.097 243.987 212.097 242.874 212.057V208.628H237.895V211.048C236.757 210.657 235.757 209.945 235.014 208.999L231.141 208.539Z" fill="#D17918"/>
<path d="M262.544 210.387C262.544 216.382 249.868 221.256 234.303 221.256C218.739 221.256 206.063 216.414 206.063 210.387C206.063 204.359 218.731 199.526 234.303 199.526C249.876 199.526 262.544 204.368 262.544 210.387ZM269 210.387C269 203.02 253.459 197.041 234.303 197.041C215.148 197.041 199.607 203.02 199.607 210.387C199.607 217.754 215.148 223.741 234.303 223.741C253.459 223.741 269 217.762 269 210.387Z" fill="#FFC022"/>
<path d="M209.773 210.387C209.773 205.19 220.771 200.962 234.287 200.962C247.802 200.962 258.808 205.19 258.808 210.387C258.808 215.583 247.81 219.819 234.287 219.819C220.763 219.819 209.773 215.591 209.773 210.387ZM257.727 210.387C257.727 205.416 247.237 201.374 234.287 201.374C221.336 201.374 210.847 205.408 210.847 210.387C210.847 215.365 221.336 219.408 234.287 219.408C247.237 219.408 257.727 215.357 257.727 210.387Z" fill="#FFC022"/>
<path d="M231.141 206.74L217.715 210.605V213.284L231.432 209.039C233.162 210.306 235.161 211.157 237.274 211.525L237.895 211.646V214.066H242.874V212.227C243.963 212.275 244.979 212.283 245.851 212.267V214.066H250.837V206.885H245.851V210.355C244.858 210.392 243.865 210.378 242.874 210.314V206.853H237.895V209.273C236.758 208.885 235.758 208.176 235.014 207.232L231.141 206.74Z" fill="#FFC022"/>
<path d="M199.582 203.351C199.582 210.718 215.123 216.697 234.278 216.697C253.434 216.697 268.974 210.718 268.974 203.351V197.041H199.582V203.351Z" fill="#FF931E"/>
<path d="M230.986 200.285V216.632C232.076 216.673 233.173 216.697 234.287 216.697V200.285H230.986Z" fill="#D17918"/>
<path d="M224.291 200.285V216.132C226.093 216.336 227.944 216.487 229.842 216.584V200.285H224.291Z" fill="#D17918"/>
<path d="M222.917 215.955V197.065H199.582V203.351C199.582 209.185 209.337 214.147 222.917 215.955Z" fill="#D17918"/>
<path d="M246.656 200.285V215.817L247.786 215.648V200.317L246.656 200.285Z" fill="#D17918"/>
<path d="M242.332 216.334L243.462 216.221V200.285H242.332V216.334Z" fill="#D17918"/>
<path d="M236.861 200.285V216.697L238.515 216.632V200.285H236.861Z" fill="#D17918"/>
<path d="M234.286 210.387C215.122 210.387 199.59 204.416 199.59 197.041C199.59 189.666 215.13 183.695 234.286 183.695C253.441 183.695 268.982 189.666 268.982 197.041C268.982 204.416 253.457 210.387 234.286 210.387Z" fill="#FF931E"/>
<path style="mix-blend-mode:multiply" opacity="0.4" d="M253.845 208.071C252.86 208.071 251.868 208.12 250.859 208.12C231.687 208.12 216.163 202.141 216.163 194.774C216.163 190.191 222.174 186.148 231.316 183.744C213.565 184.325 199.598 190.054 199.598 197.041C199.598 204.416 215.138 210.387 234.294 210.387C240.882 210.439 247.451 209.661 253.845 208.071Z" fill="url(#paint5_linear_48_54679)"/>
<path d="M268.966 197.453C268.402 190.271 253.095 184.542 234.27 184.542C215.446 184.542 200.163 190.296 199.574 197.453C200.147 204.634 215.446 210.363 234.27 210.363C253.095 210.363 268.442 204.634 268.966 197.453ZM234.27 208.749C218.689 208.749 206.029 203.908 206.029 197.888C206.029 191.869 218.697 187.02 234.27 187.02C249.843 187.02 262.511 191.861 262.511 197.888C262.511 203.916 249.884 208.733 234.286 208.733L234.27 208.749Z" fill="#D17918"/>
<path d="M231.141 195.185L217.715 199.042V201.729L231.432 197.493C233.165 198.754 235.163 199.601 237.274 199.97C237.475 200.019 237.685 200.051 237.895 200.091V202.512H242.874V200.68C243.963 200.729 244.979 200.729 245.851 200.68V202.48H250.837V195.306H245.851V198.768C244.859 198.819 243.865 198.819 242.874 198.768V195.347H237.895V197.767C236.768 197.369 235.777 196.658 235.039 195.718L231.141 195.185Z" fill="#D17918"/>
<path d="M262.544 197.041C262.544 203.028 249.868 207.91 234.303 207.91C218.739 207.91 206.063 203.028 206.063 197.041C206.063 191.054 218.731 186.172 234.303 186.172C249.876 186.172 262.544 191.014 262.544 197.041ZM269 197.041C269 189.666 253.459 183.695 234.303 183.695C215.148 183.695 199.607 189.666 199.607 197.041C199.607 204.416 215.148 210.387 234.303 210.387C253.459 210.387 269 204.416 269 197.041Z" fill="#FFC022"/>
<path d="M209.773 197.041C209.773 191.837 220.771 187.609 234.287 187.609C247.802 187.609 258.808 191.837 258.808 197.041C258.808 202.246 247.81 206.474 234.287 206.474C220.763 206.474 209.773 202.237 209.773 197.041ZM257.727 197.041C257.727 192.071 247.237 188.028 234.287 188.028C221.336 188.028 210.847 192.063 210.847 197.041C210.847 202.02 221.336 206.054 234.287 206.054C247.237 206.054 257.727 202.012 257.727 197.041Z" fill="#FFC022"/>
<path d="M231.141 193.394L217.715 197.251V199.93L231.432 195.694C233.175 196.946 235.181 197.783 237.298 198.139L237.919 198.268V200.688H242.898V198.849C243.987 198.897 245.004 198.905 245.875 198.849V200.656H250.862V193.475H245.851V196.944C245.044 196.944 243.987 196.944 242.874 196.904V193.475H237.895V195.895C236.756 195.507 235.755 194.795 235.014 193.846L231.141 193.394Z" fill="#FFC022"/>
<path d="M199.582 189.997C199.582 197.372 215.123 203.343 234.278 203.343C253.434 203.343 268.974 197.372 268.974 189.997V183.695H199.582V189.997Z" fill="#FF931E"/>
<path d="M230.986 186.931V203.286C232.076 203.327 233.173 203.343 234.287 203.343V186.931H230.986Z" fill="#D17918"/>
<path d="M224.291 186.931V202.778C226.093 202.988 227.944 203.138 229.842 203.23V186.931H224.291Z" fill="#D17918"/>
<path d="M222.917 202.609V183.719H199.582V189.997C199.582 195.839 209.337 200.801 222.917 202.609Z" fill="#D17918"/>
<path d="M246.656 186.931V202.471L247.786 202.302V186.931H246.656Z" fill="#D17918"/>
<path d="M242.332 202.98L243.462 202.875V186.931H242.332V202.98Z" fill="#D17918"/>
<path d="M236.861 186.931V203.302L238.515 203.246V186.931H236.861Z" fill="#D17918"/>
<path d="M234.286 197.041C215.122 197.041 199.59 191.062 199.59 183.695C199.59 176.328 215.13 170.341 234.286 170.341C253.441 170.341 268.982 176.32 268.982 183.695C268.982 191.07 253.457 197.041 234.286 197.041Z" fill="#FF931E"/>
<path style="mix-blend-mode:multiply" opacity="0.4" d="M253.845 194.717C252.86 194.717 251.868 194.774 250.859 194.774C231.687 194.774 216.163 188.795 216.163 181.428C216.163 176.845 222.174 172.802 231.316 170.398C213.565 170.979 199.598 176.708 199.598 183.695C199.598 191.062 215.138 197.041 234.294 197.041C240.883 197.094 247.452 196.314 253.845 194.717Z" fill="url(#paint6_linear_48_54679)"/>
<path d="M268.966 184.107C268.402 176.925 253.095 171.197 234.27 171.197C215.446 171.197 200.163 176.95 199.574 184.107C200.147 191.288 215.446 197.017 234.27 197.017C253.095 197.017 268.442 191.288 268.966 184.107ZM234.27 195.403C218.689 195.403 206.029 190.562 206.029 184.534C206.029 178.507 218.697 173.674 234.27 173.674C249.843 173.674 262.511 178.515 262.511 184.534C262.511 190.554 249.884 195.387 234.286 195.387L234.27 195.403Z" fill="#D17918"/>
<path d="M231.141 181.839L217.715 185.696V188.383L231.432 184.147C233.165 185.408 235.163 186.255 237.274 186.624L237.895 186.745V189.166H242.874V187.326C243.963 187.375 244.979 187.383 245.851 187.326V189.134H250.837V181.952H245.851V185.422C245.044 185.422 243.987 185.422 242.874 185.382V181.952H237.895V184.373C236.758 183.985 235.758 183.276 235.014 182.332L231.141 181.839Z" fill="#D17918"/>
<path d="M262.544 183.695C262.544 189.682 249.868 194.556 234.303 194.556C218.739 194.556 206.063 189.715 206.063 183.695C206.063 177.676 218.731 172.827 234.303 172.827C249.876 172.827 262.544 177.668 262.544 183.695ZM269 183.695C269 176.32 253.459 170.341 234.303 170.341C215.148 170.341 199.607 176.32 199.607 183.695C199.607 191.07 215.148 197.041 234.303 197.041C253.459 197.041 269 191.062 269 183.695Z" fill="#FFC022"/>
<path d="M209.773 183.695C209.773 178.491 220.771 174.263 234.287 174.263C247.802 174.263 258.808 178.491 258.808 183.695C258.808 188.9 247.81 193.12 234.287 193.12C220.763 193.12 209.773 188.892 209.773 183.695ZM257.727 183.695C257.727 178.725 247.237 174.674 234.287 174.674C221.336 174.674 210.847 178.709 210.847 183.695C210.847 188.682 221.336 192.708 234.287 192.708C247.237 192.708 257.727 188.666 257.727 183.695Z" fill="#FFC022"/>
<path d="M231.141 180.048L217.715 183.905V186.584L231.432 182.348C233.165 183.608 235.163 184.456 237.274 184.825C237.475 184.873 237.685 184.906 237.895 184.946V187.367H242.874V185.527C243.963 185.575 244.979 185.575 245.851 185.527V187.334H250.837V180.153H245.851V183.615C244.858 183.652 243.865 183.638 242.874 183.574V180.153H237.895V182.574C236.759 182.179 235.759 181.468 235.014 180.524L231.141 180.048Z" fill="#FFC022"/>
<path d="M199.582 176.651C199.582 184.018 215.123 189.997 234.278 189.997C253.434 189.997 268.974 184.018 268.974 176.651V170.341H199.582V176.651Z" fill="#FF931E"/>
<path d="M230.986 173.585V189.932C232.076 189.973 233.173 189.997 234.287 189.997V173.585H230.986Z" fill="#D17918"/>
<path d="M224.291 173.585V189.432C226.093 189.642 227.944 189.793 229.842 189.884V173.585H224.291Z" fill="#D17918"/>
<path d="M222.917 189.263V170.365H199.582V176.651C199.582 182.493 209.337 187.447 222.917 189.263Z" fill="#D17918"/>
<path d="M246.656 173.585V189.126L247.786 188.948V173.617L246.656 173.585Z" fill="#D17918"/>
<path d="M242.332 189.634L243.462 189.521V173.585H242.332V189.634Z" fill="#D17918"/>
<path d="M236.861 173.585V189.957L238.515 189.9V173.585H236.861Z" fill="#D17918"/>
<path d="M234.286 183.695C215.122 183.695 199.59 177.716 199.59 170.341C199.59 162.966 215.13 156.995 234.286 156.995C253.441 156.995 268.982 162.974 268.982 170.341C268.982 177.708 253.457 183.695 234.286 183.695Z" fill="#FF931E"/>
<path style="mix-blend-mode:multiply" opacity="0.4" d="M253.845 181.371C252.86 181.371 251.868 181.428 250.859 181.428C231.687 181.428 216.163 175.449 216.163 168.074C216.163 163.491 222.174 159.448 231.316 157.052C213.565 157.633 199.598 163.362 199.598 170.341C199.598 177.716 215.138 183.695 234.294 183.695C240.882 183.744 247.451 182.964 253.845 181.371Z" fill="url(#paint7_linear_48_54679)"/>
<path d="M268.966 170.761C268.402 163.579 253.095 157.851 234.27 157.851C215.446 157.851 200.163 163.604 199.574 170.761C200.147 177.934 215.446 183.671 234.27 183.671C253.095 183.671 268.442 177.966 268.966 170.761ZM234.27 182.057C218.689 182.057 206.029 177.175 206.029 171.188C206.029 165.201 218.697 160.32 234.27 160.32C249.843 160.32 262.511 165.161 262.511 171.188C262.511 177.216 249.884 182.041 234.286 182.041L234.27 182.057Z" fill="#D17918"/>
<path d="M231.141 168.493L217.715 172.318V174.997L231.432 170.761C233.165 172.021 235.163 172.869 237.274 173.238C237.475 173.286 237.685 173.327 237.895 173.359V175.78H242.874V173.932C243.963 173.98 244.979 173.98 245.851 173.932V175.739H250.837V168.558H245.851V172.028C245.044 172.028 243.987 172.028 242.874 171.987V168.606H237.895V171.027C236.757 170.636 235.757 169.924 235.014 168.978L231.141 168.493Z" fill="#D17918"/>
<path d="M262.544 170.341C262.544 176.336 249.868 181.21 234.303 181.21C218.739 181.21 206.063 176.369 206.063 170.341C206.063 164.314 218.731 159.481 234.303 159.481C249.876 159.481 262.544 164.322 262.544 170.341ZM269 170.341C269 162.974 253.459 156.995 234.303 156.995C215.148 156.995 199.607 162.974 199.607 170.341C199.607 177.708 215.148 183.695 234.303 183.695C253.459 183.695 269 177.716 269 170.341Z" fill="#FFC022"/>
<path d="M209.773 170.341C209.773 165.145 220.771 160.917 234.287 160.917C247.802 160.917 258.808 165.145 258.808 170.341C258.808 175.537 247.81 179.774 234.287 179.774C220.763 179.774 209.773 175.546 209.773 170.341ZM257.727 170.341C257.727 165.371 247.237 161.328 234.287 161.328C221.336 161.328 210.847 165.363 210.847 170.341C210.847 175.32 221.336 179.362 234.287 179.362C247.237 179.362 257.727 175.312 257.727 170.341Z" fill="#FFC022"/>
<path d="M231.141 166.67L217.715 170.535V173.214L231.432 168.97C233.164 170.26 235.172 171.13 237.298 171.511L237.919 171.632V174.053H242.898V172.213C243.987 172.262 245.004 172.27 245.875 172.213V174.013H250.862V166.831H245.851V170.301C244.858 170.338 243.865 170.325 242.874 170.261V166.831H237.895V169.252C236.759 168.858 235.759 168.146 235.014 167.202L231.141 166.67Z" fill="#FFC022"/>
<path d="M168.211 270.387C168.211 277.754 183.752 283.733 202.907 283.733C222.062 283.733 237.603 277.754 237.603 270.387V264.077H168.211V270.387Z" fill="#FF931E"/>
<path d="M199.615 267.321V283.668C200.705 283.708 201.802 283.733 202.915 283.733V267.321H199.615Z" fill="#D17918"/>
<path d="M192.918 267.321V283.168C194.717 283.378 196.565 283.523 198.469 283.62V267.321H192.918Z" fill="#D17918"/>
<path d="M191.546 282.998V264.101H168.211V270.387C168.211 276.22 177.966 281.183 191.546 282.998Z" fill="#D17918"/>
<path d="M215.285 267.321V282.861L216.415 282.692V267.361L215.285 267.321Z" fill="#D17918"/>
<path d="M210.959 283.37L212.089 283.257V267.321H210.959V283.37Z" fill="#D17918"/>
<path d="M205.506 267.321V283.668L207.12 283.604V267.321H205.506Z" fill="#D17918"/>
<path d="M202.917 277.423C183.753 277.423 168.221 271.452 168.221 264.077C168.221 256.702 183.761 250.731 202.917 250.731C222.072 250.731 237.613 256.702 237.613 264.077C237.613 271.452 222.088 277.423 202.917 277.423Z" fill="#FF931E"/>
<path style="mix-blend-mode:multiply" opacity="0.4" d="M222.45 275.107C221.466 275.107 220.473 275.156 219.465 275.156C200.293 275.156 184.768 269.185 184.768 261.81C184.768 257.227 190.78 253.184 199.922 250.78C182.17 251.36 168.203 257.089 168.203 264.077C168.203 271.452 183.744 277.423 202.899 277.423C209.487 277.475 216.056 276.697 222.45 275.107Z" fill="url(#paint8_linear_48_54679)"/>
<path d="M237.595 264.489C237.03 257.307 221.724 251.578 202.899 251.578C184.075 251.578 168.792 257.331 168.203 264.489C168.776 271.67 184.075 277.399 202.899 277.399C221.724 277.399 237.03 271.67 237.595 264.489ZM202.899 275.785C187.318 275.785 174.658 270.944 174.658 264.924C174.658 258.905 187.326 254.055 202.899 254.055C218.472 254.055 231.14 258.897 231.14 264.924C231.14 270.952 218.496 275.769 202.915 275.769L202.899 275.785Z" fill="#D17918"/>
<path d="M199.768 262.221L186.342 266.086V268.765L200.059 264.529C201.792 265.79 203.79 266.637 205.901 267.006C206.102 267.054 206.312 267.087 206.522 267.127V269.548H211.5V267.716C212.59 267.764 213.606 267.764 214.478 267.716V269.515H219.464V262.342H214.478V265.804C213.485 265.841 212.492 265.828 211.5 265.763V262.342H206.522V264.763C205.384 264.371 204.384 263.66 203.641 262.713L199.768 262.221Z" fill="#D17918"/>
<path d="M231.173 264.077C231.173 270.064 218.497 274.946 202.932 274.946C187.368 274.946 174.691 270.064 174.691 264.077C174.691 258.09 187.36 253.208 202.932 253.208C218.505 253.208 231.173 258.05 231.173 264.077ZM237.628 264.077C237.628 256.702 222.088 250.731 202.932 250.731C183.777 250.731 168.236 256.702 168.236 264.077C168.236 271.452 183.777 277.423 202.932 277.423C222.088 277.423 237.628 271.452 237.628 264.077Z" fill="#FFC022"/>
<path d="M178.402 264.077C178.402 258.881 189.4 254.645 202.916 254.645C216.431 254.645 227.437 258.881 227.437 264.077C227.437 269.273 216.439 273.51 202.916 273.51C189.392 273.51 178.402 269.273 178.402 264.077ZM226.356 264.077C226.356 259.107 215.866 255.064 202.956 255.064C190.046 255.064 179.516 259.099 179.516 264.077C179.516 269.055 190.005 273.09 202.956 273.09C215.906 273.09 226.356 269.047 226.356 264.077Z" fill="#FFC022"/>
<path d="M199.768 260.43L186.342 264.303V266.982L200.059 262.746C201.79 264.01 203.789 264.857 205.901 265.223L206.522 265.352V267.773H211.5V265.917C212.59 265.965 213.606 265.973 214.478 265.917V267.724H219.464V260.543H214.478V264.013C213.671 264.013 212.614 264.012 211.5 263.972V260.543H206.522V262.964C205.383 262.575 204.382 261.863 203.641 260.914L199.768 260.43Z" fill="#FFC022"/>
<path d="M168.211 257.041C168.211 264.416 183.752 270.395 202.907 270.395C222.062 270.395 237.603 264.416 237.603 257.041V250.739H168.211V257.041Z" fill="#FF931E"/>
<path d="M199.615 253.967V270.322C200.705 270.362 201.802 270.387 202.915 270.387V253.967H199.615Z" fill="#D17918"/>
<path d="M192.918 253.967V269.814C194.72 270.024 196.57 270.177 198.469 270.274V253.967H192.918Z" fill="#D17918"/>
<path d="M191.546 269.645V250.755H168.211V257.041C168.211 262.875 177.966 267.837 191.546 269.645Z" fill="#D17918"/>
<path d="M215.285 253.967V269.507L216.415 269.338V253.967H215.285Z" fill="#D17918"/>
<path d="M210.959 270.015L212.089 269.911V253.967H210.959V270.015Z" fill="#D17918"/>
<path d="M205.506 253.967V270.338L207.12 270.282V253.967H205.506Z" fill="#D17918"/>
<path d="M202.917 264.077C183.753 264.077 168.221 258.098 168.221 250.731C168.221 243.364 183.761 237.377 202.917 237.377C222.072 237.377 237.613 243.356 237.613 250.731C237.613 258.106 222.088 264.077 202.917 264.077Z" fill="#FF931E"/>
<path style="mix-blend-mode:multiply" opacity="0.4" d="M222.45 261.753C221.466 261.753 220.473 261.81 219.465 261.81C200.293 261.81 184.768 255.831 184.768 248.464C184.768 243.881 190.78 239.838 199.922 237.434C182.17 238.015 168.203 243.744 168.203 250.731C168.203 258.098 183.744 264.077 202.899 264.077C209.488 264.13 216.057 263.35 222.45 261.753Z" fill="url(#paint9_linear_48_54679)"/>
<path d="M237.595 251.143C237.03 243.961 221.724 238.232 202.899 238.232C184.075 238.232 168.792 243.986 168.203 251.143C168.776 258.324 184.075 264.053 202.899 264.053C221.724 264.053 237.03 258.324 237.595 251.143ZM202.899 262.439C187.318 262.439 174.658 257.598 174.658 251.57C174.658 245.543 187.326 240.71 202.899 240.71C218.472 240.71 231.14 245.551 231.14 251.57C231.14 257.59 218.496 262.423 202.915 262.423L202.899 262.439Z" fill="#D17918"/>
<path d="M199.768 248.875L186.342 252.732V255.427L200.059 251.191C201.792 252.452 203.79 253.299 205.901 253.668L206.522 253.789V256.21H211.5V254.37C212.59 254.419 213.606 254.427 214.478 254.41V256.21H219.464V248.972H214.478V252.442C213.485 252.479 212.492 252.466 211.5 252.401V248.972H206.522V251.393C205.385 251.004 204.385 250.295 203.641 249.351L199.768 248.875Z" fill="#D17918"/>
<path d="M231.173 250.731C231.173 256.718 218.497 261.592 202.932 261.592C187.368 261.592 174.691 256.75 174.691 250.731C174.691 244.712 187.36 239.862 202.932 239.862C218.505 239.862 231.173 244.704 231.173 250.731ZM237.628 250.731C237.628 243.356 222.088 237.377 202.932 237.377C183.777 237.377 168.236 243.356 168.236 250.731C168.236 258.106 183.777 264.077 202.932 264.077C222.088 264.077 237.628 258.098 237.628 250.731Z" fill="#FFC022"/>
<path d="M178.402 250.731C178.402 245.527 189.4 241.299 202.916 241.299C216.431 241.299 227.437 245.527 227.437 250.731C227.437 255.935 216.439 260.155 202.916 260.155C189.392 260.155 178.402 255.927 178.402 250.731ZM226.356 250.731C226.356 245.761 215.866 241.71 202.956 241.71C190.046 241.71 179.516 245.745 179.516 250.731C179.516 255.718 190.005 259.744 202.956 259.744C215.906 259.744 226.356 255.701 226.356 250.731Z" fill="#FFC022"/>
<path d="M199.768 247.084L186.342 250.941V253.62L200.059 249.384C201.792 250.644 203.79 251.492 205.901 251.861C206.102 251.909 206.312 251.941 206.522 251.982V254.402H211.5V252.563C212.59 252.611 213.606 252.611 214.478 252.563V254.37H219.464V247.189H214.478V250.65C213.486 250.701 212.492 250.701 211.5 250.65V247.197H206.522V249.618C205.386 249.223 204.386 248.512 203.641 247.568L199.768 247.084Z" fill="#FFC022"/>
<path d="M168.211 243.687C168.211 251.054 183.752 257.033 202.907 257.033C222.062 257.033 237.603 251.054 237.603 243.687V237.377H168.211V243.687Z" fill="#FF931E"/>
<path d="M199.615 240.621V256.976C200.705 256.976 201.802 257.033 202.915 257.033V240.621H199.615Z" fill="#D17918"/>
<path d="M192.918 240.621V256.468C194.72 256.678 196.57 256.828 198.469 256.92V240.621H192.918Z" fill="#D17918"/>
<path d="M191.546 256.299V237.41H168.211V243.687C168.211 249.529 177.966 254.483 191.546 256.299Z" fill="#D17918"/>
<path d="M215.285 240.621V256.161L216.415 255.992V240.621H215.285Z" fill="#D17918"/>
<path d="M210.959 256.67L212.089 256.557V240.621H210.959V256.67Z" fill="#D17918"/>
<path d="M205.506 240.621V256.993L207.12 256.936V240.621H205.506Z" fill="#D17918"/>
<path d="M202.917 250.731C183.753 250.731 168.221 244.752 168.221 237.377C168.221 230.002 183.761 224.031 202.917 224.031C222.072 224.031 237.613 230.01 237.613 237.377C237.613 244.744 222.088 250.731 202.917 250.731Z" fill="#FF931E"/>
<path style="mix-blend-mode:multiply" opacity="0.4" d="M222.45 248.407C221.466 248.407 220.473 248.464 219.465 248.464C200.293 248.464 184.768 242.485 184.768 235.11C184.768 230.527 190.78 226.484 199.922 224.088C182.17 224.669 168.203 230.398 168.203 237.377C168.203 244.752 183.744 250.731 202.899 250.731C209.488 250.781 216.056 250 222.45 248.407Z" fill="url(#paint10_linear_48_54679)"/>
<path d="M237.595 237.797C237.03 230.616 221.724 224.887 202.899 224.887C184.075 224.887 168.792 230.64 168.203 237.797C168.776 244.97 184.075 250.707 202.899 250.707C221.724 250.707 237.03 244.938 237.595 237.797ZM202.899 249.093C187.318 249.093 174.658 244.212 174.658 238.225C174.658 232.237 187.326 227.356 202.899 227.356C218.472 227.356 231.14 232.237 231.14 238.225C231.14 244.212 218.496 249.077 202.915 249.077L202.899 249.093Z" fill="#D17918"/>
<path d="M199.768 235.53L186.342 239.386V242.065L200.059 237.829C201.792 239.09 203.79 239.937 205.901 240.306C206.102 240.355 206.312 240.395 206.522 240.427V242.848H211.5V240.984C212.59 241.033 213.606 241.041 214.478 240.984V242.792H219.464V235.61H214.478V239.08C213.671 239.08 212.614 239.08 211.5 239.08V235.651H206.522V238.071C205.384 237.68 204.384 236.968 203.641 236.022L199.768 235.53Z" fill="#D17918"/>
<path d="M231.173 237.377C231.173 243.372 218.497 248.246 202.932 248.246C187.368 248.246 174.691 243.405 174.691 237.377C174.691 231.35 187.36 226.516 202.932 226.516C218.505 226.516 231.173 231.358 231.173 237.377ZM237.628 237.377C237.628 230.01 222.088 224.031 202.932 224.031C183.777 224.031 168.236 230.01 168.236 237.377C168.236 244.744 183.777 250.731 202.932 250.731C222.088 250.731 237.628 244.752 237.628 237.377Z" fill="#FFC022"/>
<path d="M178.402 237.377C178.402 232.181 189.4 227.953 202.916 227.953C216.431 227.953 227.437 232.181 227.437 237.377C227.437 242.574 216.439 246.81 202.916 246.81C189.392 246.81 178.402 242.582 178.402 237.377ZM226.356 237.377C226.356 232.407 215.866 228.364 202.956 228.364C190.046 228.364 179.516 232.399 179.516 237.377C179.516 242.356 190.005 246.398 202.956 246.398C215.906 246.398 226.356 242.348 226.356 237.377Z" fill="#FFC022"/>
<path d="M199.768 233.73L186.342 237.595V240.274L200.059 236.038C201.792 237.298 203.79 238.146 205.901 238.515L206.522 238.636V241.057H211.5V239.225C212.59 239.265 213.606 239.273 214.478 239.225V241.024H219.464V233.843H214.478V237.313C213.485 237.35 212.492 237.336 211.5 237.272V233.843H206.522V236.264C205.386 235.869 204.386 235.158 203.641 234.214L199.768 233.73Z" fill="#FFC022"/>
<path d="M168.211 230.341C168.211 237.708 183.752 243.687 202.907 243.687C222.062 243.687 237.603 237.708 237.603 230.341V224.031H168.211V230.341Z" fill="#FF931E"/>
<path d="M199.615 227.275V243.622C200.705 243.663 201.802 243.687 202.915 243.687V227.275H199.615Z" fill="#D17918"/>
<path d="M192.918 227.275V243.122C194.717 243.332 196.565 243.477 198.469 243.574V227.275H192.918Z" fill="#D17918"/>
<path d="M191.546 242.953V224.056H168.211V230.341C168.211 236.175 177.966 241.137 191.546 242.953Z" fill="#D17918"/>
<path d="M215.285 227.275V242.807L216.415 242.638V227.307L215.285 227.275Z" fill="#D17918"/>
<path d="M210.959 243.324L212.089 243.211V227.275H210.959V243.324Z" fill="#D17918"/>
<path d="M205.506 227.275V243.647L207.12 243.582V227.275H205.506Z" fill="#D17918"/>
<path d="M202.917 237.377C183.753 237.377 168.221 231.406 168.221 224.031C168.221 216.657 183.761 210.686 202.917 210.686C222.072 210.686 237.613 216.657 237.613 224.031C237.613 231.406 222.088 237.377 202.917 237.377Z" fill="#FF931E"/>
<path style="mix-blend-mode:multiply" opacity="0.4" d="M222.45 235.061C221.466 235.061 220.473 235.11 219.465 235.11C200.293 235.11 184.768 229.139 184.768 221.764C184.768 217.181 190.78 213.138 199.922 210.734C182.17 211.315 168.203 217.044 168.203 224.031C168.203 231.406 183.744 237.377 202.899 237.377C209.487 237.429 216.056 236.651 222.45 235.061Z" fill="url(#paint11_linear_48_54679)"/>
<path d="M237.595 224.443C237.03 217.27 221.724 211.533 202.899 211.533C184.075 211.533 168.792 217.294 168.203 224.443C168.776 231.624 184.075 237.353 202.899 237.353C221.724 237.353 237.03 231.624 237.595 224.443ZM202.899 235.739C187.318 235.739 174.658 230.898 174.658 224.879C174.658 218.859 187.326 214.01 202.899 214.01C218.472 214.01 231.14 218.851 231.14 224.879C231.14 230.906 218.496 235.723 202.915 235.723L202.899 235.739Z" fill="#D17918"/>
<path d="M199.768 222.176L186.342 226.04V228.719L200.059 224.483C201.792 225.744 203.79 226.591 205.901 226.96C206.102 227.009 206.312 227.041 206.522 227.081V229.502H211.5V227.67C212.59 227.719 213.606 227.719 214.478 227.67V229.47H219.464V222.297H214.478V225.758C213.485 225.795 212.492 225.782 211.5 225.718V222.297H206.522V224.717C205.384 224.326 204.384 223.614 203.641 222.668L199.768 222.176Z" fill="#D17918"/>
<path d="M231.173 224.031C231.173 230.027 218.497 234.9 202.932 234.9C187.368 234.9 174.691 230.059 174.691 224.031C174.691 218.004 187.36 213.163 202.932 213.163C218.505 213.163 231.173 218.044 231.173 224.031ZM237.628 224.031C237.628 216.657 222.088 210.686 202.932 210.686C183.777 210.686 168.236 216.657 168.236 224.031C168.236 231.406 183.777 237.377 202.932 237.377C222.088 237.377 237.628 231.406 237.628 224.031Z" fill="#FFC022"/>
<path d="M178.402 224.031C178.402 218.835 189.4 214.599 202.916 214.599C216.431 214.599 227.437 218.835 227.437 224.031C227.437 229.228 216.439 233.464 202.916 233.464C189.392 233.464 178.402 229.228 178.402 224.031ZM226.356 224.031C226.356 219.061 215.866 215.018 202.956 215.018C190.046 215.018 179.516 219.053 179.516 224.031C179.516 229.01 190.005 233.044 202.956 233.044C215.906 233.044 226.356 229.002 226.356 224.031Z" fill="#FFC022"/>
<path d="M199.768 220.384L186.342 224.241V226.928L200.059 222.684C201.79 223.948 203.789 224.796 205.901 225.161L206.522 225.29V227.711H211.5V225.871C212.59 225.919 213.606 225.928 214.478 225.871V227.678H219.464V220.497H214.478V223.959C213.671 223.959 212.614 223.959 211.5 223.918V220.489H206.522V222.91C205.383 222.521 204.382 221.809 203.641 220.86L199.768 220.384Z" fill="#FFC022"/>
<path d="M168.211 216.987C168.211 224.362 183.752 230.341 202.907 230.341C222.062 230.341 237.603 224.362 237.603 216.987V210.686H168.211V216.987Z" fill="#FF931E"/>
<path d="M199.615 213.921V230.277C200.705 230.317 201.802 230.341 202.915 230.341V213.921H199.615Z" fill="#D17918"/>
<path d="M192.918 213.921V229.776C194.72 229.981 196.57 230.131 198.469 230.228V213.921H192.918Z" fill="#D17918"/>
<path d="M191.546 229.607V210.71H168.211V216.987C168.211 222.829 177.966 227.791 191.546 229.607Z" fill="#D17918"/>
<path d="M215.285 213.921V229.462L216.415 229.292V213.921H215.285Z" fill="#D17918"/>
<path d="M210.959 229.97L212.089 229.865V213.921H210.959V229.97Z" fill="#D17918"/>
<path d="M205.506 213.921V230.293L207.12 230.236V213.921H205.506Z" fill="#D17918"/>
<path d="M202.917 224.031C183.753 224.031 168.221 218.052 168.221 210.685C168.221 203.319 183.721 197.332 202.917 197.332C222.113 197.332 237.613 203.311 237.613 210.685C237.613 218.06 222.088 224.031 202.917 224.031Z" fill="#FF931E"/>
<path style="mix-blend-mode:multiply" opacity="0.4" d="M222.45 221.707C221.466 221.707 220.473 221.764 219.465 221.764C200.293 221.764 184.768 215.785 184.768 208.418C184.768 203.835 190.78 199.792 199.922 197.388C182.17 197.969 168.203 203.698 168.203 210.685C168.203 218.052 183.744 224.031 202.899 224.031C209.488 224.085 216.057 223.304 222.45 221.707Z" fill="url(#paint12_linear_48_54679)"/>
<path d="M237.595 211.097C237.03 203.916 221.724 198.187 202.899 198.187C184.075 198.187 168.792 203.94 168.203 211.097C168.776 218.278 184.075 224.007 202.899 224.007C221.724 224.007 237.03 218.31 237.595 211.097ZM202.899 222.393C187.318 222.393 174.658 217.552 174.658 211.525C174.658 205.497 187.326 200.664 202.899 200.664C218.472 200.664 231.14 205.505 231.14 211.525C231.14 217.544 218.496 222.345 202.915 222.345L202.899 222.393Z" fill="#D17918"/>
<path d="M199.768 208.83L186.342 212.662V215.349L200.059 211.113C201.792 212.374 203.79 213.221 205.901 213.59L206.522 213.711V216.132H211.5V214.276C212.59 214.324 213.606 214.333 214.478 214.316V216.116H219.464V208.934H214.478V212.404C213.485 212.441 212.492 212.428 211.5 212.364V208.934H206.522V211.355C205.385 210.967 204.385 210.258 203.641 209.314L199.768 208.83Z" fill="#D17918"/>
<path d="M231.173 210.685C231.173 216.673 218.497 221.546 202.932 221.546C187.368 221.546 174.691 216.705 174.691 210.685C174.691 204.666 187.36 199.817 202.932 199.817C218.505 199.817 231.173 204.658 231.173 210.685ZM237.628 210.685C237.628 203.311 222.088 197.332 202.932 197.332C183.777 197.332 168.236 203.311 168.236 210.685C168.236 218.06 183.777 224.031 202.932 224.031C222.088 224.031 237.628 218.052 237.628 210.685Z" fill="#FFC022"/>
<path d="M178.402 210.685C178.402 205.481 189.4 201.253 202.916 201.253C216.431 201.253 227.437 205.481 227.437 210.685C227.437 215.89 216.439 220.11 202.916 220.11C189.392 220.11 178.402 215.89 178.402 210.685ZM226.356 210.685C226.356 205.715 215.866 201.664 202.956 201.664C190.046 201.664 179.516 205.699 179.516 210.685C179.516 215.672 190.005 219.698 202.956 219.698C215.906 219.698 226.356 215.656 226.356 210.685Z" fill="#FFC022"/>
<path d="M199.768 207.014L186.342 210.871V213.55L200.059 209.314C201.792 210.574 203.79 211.422 205.901 211.791C206.102 211.839 206.312 211.872 206.522 211.912V214.333H211.5V212.493C212.59 212.541 213.606 212.541 214.478 212.493V214.3H219.464V207.119H214.478V210.581C213.671 210.581 212.614 210.581 211.5 210.581V207.151H206.522V209.572C205.386 209.178 204.386 208.467 203.641 207.523L199.768 207.014Z" fill="#FFC022"/>
<g style="mix-blend-mode:multiply" opacity="0.6">
<path d="M130.86 213.808C125.623 212.533 119.208 219.408 114.327 230.414V230.462C114.367 230.607 114.415 230.753 114.464 230.898C114.484 230.958 114.509 231.018 114.536 231.075C114.616 231.28 114.708 231.479 114.811 231.672L114.867 231.769C114.956 231.939 115.053 232.1 115.158 232.262L115.303 232.463C115.301 232.482 115.301 232.501 115.303 232.52L115.117 232.786C115.045 232.899 114.98 233.012 114.916 233.125C114.851 233.238 114.803 233.319 114.754 233.415C114.691 233.533 114.635 233.654 114.585 233.778C114.544 233.867 114.496 233.964 114.464 234.053C114.413 234.182 114.37 234.314 114.335 234.448C114.299 234.531 114.272 234.618 114.254 234.706C114.217 234.85 114.187 234.995 114.165 235.142C114.165 235.223 114.165 235.295 114.165 235.368C114.133 235.59 114.117 235.814 114.117 236.038V242.348C114.105 242.554 114.105 242.762 114.117 242.969C114.117 243.033 114.117 243.098 114.117 243.163C114.139 243.309 114.168 243.455 114.206 243.598C114.22 243.669 114.238 243.739 114.262 243.808C114.302 243.953 114.351 244.099 114.399 244.244C114.42 244.307 114.444 244.369 114.472 244.429C114.553 244.63 114.645 244.827 114.746 245.018L114.803 245.123C114.889 245.285 114.985 245.446 115.093 245.607L115.238 245.817V245.866L115.053 246.132C114.98 246.245 114.916 246.366 114.851 246.479C114.786 246.592 114.738 246.664 114.69 246.761C114.625 246.881 114.568 247.005 114.52 247.132C114.475 247.222 114.435 247.313 114.399 247.407C114.349 247.533 114.306 247.663 114.27 247.794C114.237 247.878 114.21 247.964 114.189 248.052C114.152 248.199 114.122 248.347 114.101 248.496C114.097 248.569 114.097 248.641 114.101 248.714C114.068 248.936 114.052 249.159 114.052 249.384V255.693C114.04 255.9 114.04 256.108 114.052 256.315C114.052 256.387 114.052 256.452 114.052 256.516C114.074 256.661 114.104 256.803 114.141 256.944C114.156 257.018 114.175 257.09 114.197 257.162C114.238 257.307 114.286 257.452 114.335 257.59C114.355 257.653 114.38 257.715 114.407 257.775C114.487 257.977 114.579 258.173 114.682 258.364C114.682 258.405 114.682 258.437 114.738 258.469C114.824 258.63 114.921 258.792 115.029 258.953L115.174 259.163L115.448 259.542L115.626 259.76L115.956 260.139L116.134 260.325C116.303 260.502 116.481 260.68 116.675 260.858L116.884 261.043L117.296 261.39L117.594 261.624L117.974 261.906L118.313 262.149L118.724 262.423L119.079 262.657L119.813 263.101L120.289 263.359L120.661 263.561L121.185 263.835L121.548 264.004L122.129 264.279L122.412 264.408C123.154 264.739 123.928 265.053 124.743 265.352L124.994 265.441L125.8 265.723L126.034 265.796C127.18 266.175 128.399 266.522 129.673 266.845C132.146 261.682 134.067 256.273 135.402 250.707C140.147 232.092 138.017 215.567 130.86 213.808Z" fill="#CCCCCC"/>
</g>
<path d="M103.032 274.454C109.89 277.173 121.171 264.924 128.231 247.108C135.291 229.292 135.493 212.638 128.61 209.919L122.744 207.595L97.1738 272.146L103.032 274.454Z" fill="#FF931E"/>
<path d="M111.785 244.131L126.987 250.158C127.423 249.158 127.85 248.141 128.262 247.108L113.004 241.065L111.785 244.131Z" fill="#D17918"/>
<path d="M109.324 250.352L124.058 256.234C124.905 254.62 125.736 253.007 126.519 251.24L111.366 245.236L109.324 250.352Z" fill="#D17918"/>
<path d="M123.39 257.404L105.824 250.449L97.2305 272.146L103.064 274.454C108.495 276.608 116.701 269.37 123.39 257.404Z" fill="#D17918"/>
<path d="M117.555 229.607L131.998 235.328C132.087 234.956 132.175 234.585 132.256 234.214L117.966 228.566L117.555 229.607Z" fill="#D17918"/>
<path d="M130.886 239.491C130.999 239.131 131.104 238.768 131.201 238.402L116.386 232.528L115.967 233.577L130.886 239.491Z" fill="#D17918"/>
<path d="M113.957 238.668L129.175 244.704C129.36 244.179 129.546 243.663 129.724 243.147L114.562 237.135L113.957 238.668Z" fill="#D17918"/>
<path d="M122.397 244.785C115.329 262.609 104.048 274.849 97.1979 272.138C90.3474 269.427 90.5088 252.773 97.5771 234.949C104.645 217.125 115.918 204.884 122.768 207.595C129.619 210.306 129.465 226.96 122.397 244.785Z" fill="#FF931E"/>
<path style="mix-blend-mode:multiply" opacity="0.4" d="M127.447 225.75C127.117 226.678 126.77 227.606 126.398 228.542C119.338 246.366 108.058 258.606 101.199 255.895C96.939 254.201 95.3979 247.132 96.5275 237.74C90.5243 254.475 90.7099 269.564 97.2053 272.138C104.056 274.849 115.336 262.609 122.404 244.784C124.877 238.676 126.571 232.281 127.447 225.75Z" fill="url(#paint13_linear_48_54679)"/>
<path d="M123.154 207.772C116.272 205.667 105.282 217.77 98.3508 235.255C91.4197 252.74 91.1373 269.088 97.6004 272.259C104.483 274.373 115.473 262.269 122.404 244.784C129.335 227.299 129.658 210.952 123.154 207.772ZM120.863 244.171C115.126 258.655 105.919 268.644 100.352 266.441C94.7844 264.238 94.9216 250.65 100.659 236.167C106.395 221.683 115.602 211.702 121.17 213.905C126.737 216.108 126.6 229.687 120.863 244.171Z" fill="#D17918"/>
<path d="M107.106 242.106L105.75 256.008L108.243 257.001L109.365 242.662C111.178 241.523 112.703 239.98 113.819 238.152C113.94 237.974 114.053 237.797 114.166 237.619L116.385 238.499L118.224 233.867L116.514 233.189C116.958 232.197 117.321 231.253 117.643 230.43L119.322 231.1L121.153 226.468L114.481 223.822L112.649 228.453L115.876 229.728C115.594 230.535 115.215 231.479 114.739 232.487L111.552 231.221L109.712 235.852L111.987 236.756C111.203 237.669 110.172 238.336 109.018 238.676L107.106 242.106Z" fill="#D17918"/>
<path d="M120.403 213.598C125.971 215.809 125.834 229.389 120.089 243.873C114.344 258.356 105.153 268.338 99.5856 266.135C94.0181 263.932 94.1472 250.344 99.8923 235.86C105.637 221.377 114.828 211.396 120.403 213.598ZM122.776 207.595C115.925 204.884 104.645 217.125 97.5846 234.949C90.5243 252.773 90.3226 269.419 97.2053 272.138C104.088 274.857 115.336 262.609 122.404 244.785C129.473 226.96 129.666 210.314 122.776 207.595Z" fill="#FFC022"/>
<path d="M100.957 262.689C96.1157 260.777 96.2448 248.972 101.223 236.425C106.202 223.878 114.19 215.188 119.023 217.108C123.856 219.029 123.735 230.825 118.757 243.373C113.778 255.92 105.79 264.577 100.957 262.689ZM118.628 218.109C114.004 216.277 106.371 224.564 101.611 236.579C96.85 248.593 96.7693 259.857 101.352 261.689C105.936 263.52 113.609 255.234 118.37 243.219C123.13 231.205 123.251 219.924 118.628 218.077V218.109Z" fill="#FFC022"/>
<path d="M105.452 241.452L104.088 255.355L106.581 256.339L107.703 242.001C109.516 240.862 111.041 239.318 112.157 237.49C112.278 237.313 112.391 237.135 112.504 236.958L114.723 237.837L116.562 233.206L114.852 232.528C115.296 231.535 115.659 230.591 115.981 229.776L117.66 230.438L119.499 225.807L112.81 223.152L110.979 227.783L114.206 229.058C113.924 229.865 113.545 230.809 113.069 231.818L109.889 230.551L108.05 235.183L110.293 236.062C109.509 236.975 108.478 237.642 107.324 237.982L105.452 241.452Z" fill="#FFC022"/>
<g style="mix-blend-mode:multiply" opacity="0.6">
<path d="M216.415 282.684C228.881 280.658 237.628 275.914 237.628 270.387V264.077C237.598 262.803 237.166 261.572 236.393 260.559C237.165 259.542 237.597 258.309 237.628 257.033V250.731C237.598 249.455 237.166 248.221 236.393 247.205C237.166 246.192 237.598 244.961 237.628 243.687V237.377C237.598 236.104 237.166 234.872 236.393 233.859C237.166 232.846 237.598 231.615 237.628 230.341V230.244C230.503 227.751 217.222 238.483 207.063 255.258C200.818 265.578 197.146 275.898 196.533 283.499C197.173 283.547 197.819 283.587 198.47 283.62C199.93 283.692 201.407 283.733 202.916 283.733C204.425 283.733 205.74 283.692 207.12 283.628C210.002 283.499 212.876 283.216 215.729 282.781L216.415 282.684Z" fill="#CCCCCC"/>
</g>
<path d="M256.51 295.182C249.66 297.894 238.371 285.653 231.311 267.829C224.251 250.005 224.049 233.359 230.932 230.648L236.798 228.324L262.368 292.875L256.51 295.182Z" fill="#FF931E"/>
<path d="M247.787 264.852L232.585 270.879C232.15 269.887 231.722 268.87 231.311 267.829L246.569 261.786L247.787 264.852Z" fill="#D17918"/>
<path d="M250.256 271.073L235.522 276.915C234.667 275.301 233.843 273.687 233.053 271.92L248.206 265.917L250.256 271.073Z" fill="#D17918"/>
<path d="M236.166 278.133L253.732 271.169L262.333 292.867L256.491 295.182C251.077 297.329 242.871 290.123 236.166 278.133Z" fill="#D17918"/>
<path d="M242.018 250.287L227.575 256.016C227.486 255.645 227.397 255.266 227.316 254.903L241.598 249.255L242.018 250.287Z" fill="#D17918"/>
<path d="M228.688 260.22L228.373 259.123L243.187 253.257L243.607 254.306L228.688 260.22Z" fill="#D17918"/>
<path d="M245.624 259.397L230.406 265.425C230.213 264.9 230.027 264.384 229.85 263.867L245.043 257.848L245.624 259.397Z" fill="#D17918"/>
<path d="M237.176 265.505C244.236 283.329 255.516 295.57 262.367 292.858C269.217 290.147 269.056 273.493 261.996 255.669C254.935 237.845 243.647 225.572 236.796 228.324C229.946 231.075 230.115 247.689 237.176 265.505Z" fill="#FF931E"/>
<path style="mix-blend-mode:multiply" opacity="0.4" d="M232.133 246.471C232.464 247.399 232.811 248.327 233.182 249.271C240.25 267.087 251.53 279.335 258.381 276.616C262.641 274.93 264.19 267.853 263.053 258.469C269.056 275.204 268.87 290.285 262.375 292.859C255.524 295.57 244.244 283.329 237.184 265.505C234.708 259.398 233.011 253.003 232.133 246.471Z" fill="url(#paint14_linear_48_54679)"/>
<path d="M237.177 265.505C244.109 282.99 255.09 295.102 261.973 292.988C268.428 289.809 268.154 273.461 261.223 255.976C254.291 238.491 243.31 226.387 236.419 228.501C229.956 231.673 230.246 248.02 237.177 265.505ZM238.404 234.626C243.979 232.423 253.178 242.412 258.915 256.896C264.652 271.379 264.797 284.951 259.221 287.162C253.646 289.373 244.455 279.384 238.71 264.9C232.965 250.416 232.836 236.869 238.404 234.626Z" fill="#D17918"/>
<path d="M252.466 262.835L253.821 276.737L251.328 277.722L250.207 263.391C248.397 262.244 246.873 260.699 245.753 258.873C245.632 258.703 245.527 258.518 245.414 258.34L243.187 259.228L241.355 254.62L243.058 253.943C242.614 252.95 242.251 252.014 241.928 251.191L240.258 251.853L238.418 247.221L245.091 244.575L246.931 249.206L243.703 250.489C243.985 251.296 244.365 252.232 244.841 253.241L248.028 251.982L249.86 256.613L247.592 257.509C248.372 258.425 249.4 259.095 250.554 259.438L252.466 262.835Z" fill="#D17918"/>
<path d="M239.176 234.327C244.744 232.116 253.942 242.105 259.687 256.589C265.432 271.073 265.561 284.644 259.994 286.855C254.426 289.066 245.22 279.077 239.483 264.593C233.746 250.11 233.601 236.53 239.176 234.327ZM236.755 228.324C229.905 231.035 230.074 247.689 237.135 265.505C244.195 283.321 255.475 295.57 262.326 292.858C269.176 290.147 269.015 273.493 261.954 255.669C254.894 237.845 243.646 225.572 236.796 228.324H236.755Z" fill="#FFC022"/>
<path d="M240.814 264.069C235.835 251.498 235.714 239.709 240.548 237.797C245.381 235.884 253.369 244.55 258.348 257.113C263.326 269.677 263.447 281.465 258.614 283.386C253.781 285.306 245.801 276.632 240.814 264.069ZM241.201 263.916C245.962 275.93 253.595 284.217 258.218 282.385C262.842 280.554 262.729 269.281 257.968 257.267C253.208 245.252 245.567 236.966 240.943 238.797C236.32 240.629 236.441 251.893 241.201 263.916Z" fill="#FFC022"/>
<path d="M254.138 262.173L255.534 276.076L253.04 277.06L251.919 262.73C250.107 261.585 248.583 260.039 247.465 258.211C247.344 258.042 247.239 257.856 247.126 257.679L244.899 258.566L243.059 253.927L244.77 253.249C244.326 252.256 243.963 251.32 243.64 250.497L241.962 251.159L240.09 246.552L246.763 243.905L248.602 248.537L245.375 249.819C245.657 250.626 246.037 251.562 246.513 252.571L249.7 251.312L251.531 255.944L249.256 256.839C250.04 257.754 251.071 258.424 252.225 258.768L254.138 262.173Z" fill="#FFC022"/>
<path d="M127.938 222.2L126.518 218.617L125.106 222.2L121.516 223.62L125.106 225.032L126.518 228.623L127.938 225.032L131.521 223.62L127.938 222.2Z" fill="white"/>
<path d="M229.792 218.408L228.372 214.817L226.96 218.408L223.369 219.82L226.96 221.232L228.372 224.822L229.792 221.232L233.375 219.82L229.792 218.408Z" fill="white"/>
<path d="M263.175 178.402L261.762 174.811L260.342 178.402L256.76 179.814L260.342 181.234L261.762 184.817L263.175 181.234L266.765 179.814L263.175 178.402Z" fill="white"/>
<path d="M177.653 244.438L176.233 240.847L174.821 244.438L171.23 245.85L174.821 247.262L176.233 250.852L177.653 247.262L181.236 245.85L177.653 244.438Z" fill="white"/>
<path d="M126.036 71.6028C126.036 71.6028 106.832 85.6265 100.812 96.3257C100.812 96.3257 126.48 77.3075 140.188 71.6028H126.036Z" fill="#DAB873"/>
<path d="M131.805 71.6028C131.805 71.6028 146.603 79.4376 153.865 96.3257C153.865 96.3257 152.929 82.0761 145.215 71.6028H131.805Z" fill="#DAB873"/>
<path d="M161.191 106.855C161.191 106.855 174.182 131.231 181.234 157.826C181.234 157.794 182.768 127.641 161.191 106.855Z" fill="#DAB873"/>
<path d="M178.402 109.946C178.402 109.946 191.393 134.322 198.445 160.917C198.445 160.917 199.97 130.731 178.402 109.946Z" fill="#E8C47B"/>
<path d="M158.012 119.064C158.012 119.064 179.798 115.505 199.631 120.621C199.631 120.597 179.781 110.301 158.012 119.064Z" fill="#E8C47B"/>
<path d="M162.74 130.779C162.74 130.779 184.526 127.221 204.359 132.337C204.392 132.337 184.526 122.041 162.74 130.779Z" fill="#E8C47B"/>
<path d="M162.74 130.78C168.491 129.956 174.294 129.546 180.104 129.553C179.79 128.811 179.467 128.052 179.128 127.294C173.506 127.505 167.962 128.684 162.74 130.78Z" fill="#DAB873"/>
<path d="M174.69 117.845C174.319 117.103 173.94 116.361 173.552 115.61C168.218 115.905 162.969 117.072 158.012 119.064C163.536 118.268 169.109 117.861 174.69 117.845Z" fill="#DAB873"/>
<path d="M104 12.1354L131.805 64.1391V8.68188L130.191 9.34353L129.909 9.4565C129.36 9.67436 128.82 9.89221 128.295 10.0939H128.231C127.666 10.3037 127.109 10.5135 126.536 10.7152L126.189 10.8363L124.858 11.2801L124.406 11.4253C123.898 11.5867 123.389 11.74 122.873 11.8852L122.744 11.9256C122.195 12.0789 121.655 12.216 121.13 12.3451L120.686 12.442L119.46 12.684L118.992 12.7728C118.459 12.8615 117.927 12.9342 117.378 12.9907C112.901 13.3803 108.391 13.0919 104 12.1354Z" fill="#DAB873"/>
<path d="M96.7524 10.36C96.1715 10.1986 95.526 9.99691 94.832 9.77905L117.901 45.1368L101.029 11.4735C99.5765 11.1266 98.1887 10.7473 96.7524 10.36Z" fill="#DAB873"/>
<path d="M220.384 8.98841C224.684 5.70439 225.564 0.919564 217.898 0.112679C204.456 -1.25903 195.548 10.3278 182.17 11.2719L151.443 71.6027H163.385L220.384 8.98841Z" fill="#DAB873"/>
<path d="M155.107 56.7236L177.886 11.2234C173.214 10.7151 170.156 8.59294 167.162 6.38208L155.107 56.7236Z" fill="#DAB873"/>
<path d="M118.896 200.857C94.0274 200.857 73.7988 181.097 73.7988 156.818C73.7988 132.538 94.0274 112.786 118.896 112.786C143.764 112.786 163.992 132.538 163.992 156.818C163.992 181.097 143.764 200.857 118.896 200.857ZM118.896 118.434C97.1097 118.434 79.447 135.653 79.447 156.818C79.447 177.982 97.142 195.209 118.896 195.209C140.649 195.209 158.344 177.982 158.344 156.818C158.344 135.653 140.649 118.434 118.896 118.434Z" fill="#534741"/>
<path d="M102.877 162.135L119.822 184.801H131.594L112.987 161.603C117.561 159.541 121.37 156.091 123.872 151.742C124.066 151.395 124.227 151.049 124.405 150.693H134.894V142.278H126.825C127.014 140.609 127.063 138.928 126.971 137.251H134.894V128.835H103.385V137.251H118.603C118.755 138.927 118.695 140.616 118.426 142.278H103.385V150.693H114.117C111.585 153.051 108.49 154.718 105.128 155.535L102.877 162.135Z" fill="#534741"/>
<path d="M174.69 69.4321C174.418 69.4318 174.148 69.402 173.883 69.3434C152.847 64.6957 113.947 69.3434 113.56 69.3998C111.341 69.6661 109.356 67.8668 109.114 65.3654C108.872 62.8641 110.478 60.6371 112.688 60.3708C114.302 60.1691 153.194 55.5295 175.44 60.4273C176.547 60.7451 177.492 61.4724 178.082 62.4615C178.673 63.4506 178.865 64.6273 178.619 65.7527C178.503 66.7307 178.044 67.6361 177.326 68.3093C176.607 68.9824 175.673 69.3801 174.69 69.4321Z" fill="#FF931E"/>
<path d="M139.793 58.3535C139.124 58.3535 138.454 58.4019 137.792 58.4261C136.026 61.2849 134.765 64.4266 134.064 67.7134L135.759 67.6246C136.518 64.311 137.886 61.1672 139.793 58.3535Z" fill="#BF6E17"/>
<path d="M128.342 58.9426L126.333 59.0879C124.653 62.0024 123.48 65.181 122.863 68.4881L124.542 68.3509C125.228 65.0104 126.515 61.8224 128.342 58.9426Z" fill="#BF6E17"/>
<path d="M134.097 58.5957L132.096 58.7087C130.36 61.5918 129.134 64.7527 128.473 68.0524L130.151 67.9394C130.88 64.6087 132.218 61.4412 134.097 58.5957Z" fill="#BF6E17"/>
<path d="M122.526 59.3945L120.541 59.564C118.918 62.5037 117.8 65.6949 117.232 69.0045L118.919 68.8431C119.547 65.5035 120.769 62.3035 122.526 59.3945Z" fill="#BF6E17"/>
<path d="M114.691 60.1609C113.224 62.9757 112.209 66.0035 111.682 69.1335C112.19 69.3563 112.741 69.4611 113.295 69.4401C113.859 66.1041 115.009 62.8942 116.692 59.9592L114.691 60.1609Z" fill="#BF6E17"/>
<path d="M172.053 59.7738C171.488 59.677 170.907 59.5883 170.326 59.5076C168.814 62.2277 167.739 65.1683 167.139 68.2219L168.752 68.4237C169.37 65.3788 170.485 62.4565 172.053 59.7738Z" fill="#BF6E17"/>
<path d="M175.465 60.4353H175.368C173.991 63.1433 173.028 66.0428 172.512 69.0367C172.988 69.1335 173.456 69.2223 173.908 69.3272C173.972 69.3272 174.037 69.3272 174.101 69.3272C174.595 66.4383 175.526 63.6413 176.861 61.0324C176.441 60.7399 175.966 60.5367 175.465 60.4353Z" fill="#BF6E17"/>
<path d="M161.74 58.5959L159.876 58.4829C158.194 61.2444 156.98 64.2653 156.285 67.4232L157.939 67.4877C158.675 64.3238 159.961 61.314 161.74 58.5959Z" fill="#BF6E17"/>
<path d="M166.96 59.0718C166.363 58.9992 165.765 58.9427 165.16 58.8782C163.545 61.6134 162.381 64.5914 161.715 67.6974L163.329 67.8265C164.03 64.7222 165.258 61.7611 166.96 59.0718Z" fill="#BF6E17"/>
<path d="M156.398 58.3214L154.486 58.2649C152.738 61.0409 151.474 64.0942 150.75 67.2939H152.42C153.199 64.0894 154.547 61.0505 156.398 58.3214Z" fill="#BF6E17"/>
<path d="M149.023 58.1921C147.245 60.994 145.962 64.081 145.23 67.318H146.909C147.685 64.0652 149.053 60.9828 150.943 58.2244L149.023 58.1921Z" fill="#BF6E17"/>
<path d="M145.417 58.2166H143.441C141.658 61.0473 140.378 64.1646 139.656 67.4312L141.343 67.3747C142.125 64.0971 143.507 60.9922 145.417 58.2166Z" fill="#BF6E17"/>
<g style="mix-blend-mode:multiply" opacity="0.8">
<path d="M174.691 65.5591C174.419 65.563 174.148 65.5332 173.884 65.4704C152.848 60.8308 113.948 65.4704 113.561 65.5349C112.692 65.6108 111.821 65.3993 111.084 64.9329C110.346 64.4664 109.782 63.7708 109.478 62.9529C109.16 63.7178 109.036 64.5491 109.115 65.3735C109.357 67.8668 111.342 69.6662 113.561 69.408C113.948 69.3595 152.848 64.7038 173.884 69.3515C174.149 69.4102 174.419 69.4399 174.691 69.4402C175.677 69.394 176.615 69 177.339 68.328C178.063 67.6559 178.525 66.7493 178.644 65.7689C178.814 64.8215 178.702 63.8451 178.322 62.9609C178.039 63.7033 177.544 64.3459 176.898 64.8081C176.252 65.2703 175.484 65.5315 174.691 65.5591Z" fill="#B3B3B3"/>
</g>
<path d="M174.69 78.55C174.418 78.5539 174.147 78.5241 173.883 78.4613C152.847 73.8217 113.947 78.4613 113.56 78.5258C111.341 78.7921 109.356 76.9927 109.114 74.4914C108.872 71.9901 110.478 69.755 112.688 69.4887C114.302 69.287 153.194 64.6474 175.44 69.5452C177.627 70.0293 179.055 72.4177 178.619 74.8787C178.501 75.8552 178.042 76.7587 177.323 77.4303C176.604 78.1018 175.672 78.4983 174.69 78.55Z" fill="#FF931E"/>
<path d="M139.793 67.4714L137.792 67.5441C136.026 70.4028 134.765 73.5445 134.064 76.8313L135.759 76.7425C136.519 73.4294 137.887 70.286 139.793 67.4714Z" fill="#BF6E17"/>
<path d="M128.342 68.0686C127.656 68.117 126.986 68.1574 126.333 68.2138C124.653 71.1255 123.48 74.3014 122.863 77.606L124.542 77.4688C125.227 74.1307 126.515 70.9454 128.342 68.0686Z" fill="#BF6E17"/>
<path d="M134.097 67.7217L132.096 67.8266C130.36 70.7127 129.134 73.8762 128.473 77.1784L130.151 77.0654C130.877 73.7336 132.215 70.5655 134.097 67.7217Z" fill="#BF6E17"/>
<path d="M122.526 68.5122L120.541 68.6897C118.915 71.6281 117.796 74.8198 117.232 78.1303L118.919 77.9608C119.547 74.6212 120.769 71.4211 122.526 68.5122Z" fill="#BF6E17"/>
<path d="M114.691 69.2706C113.223 72.0819 112.207 75.1073 111.682 78.2351C112.188 78.4618 112.741 78.5668 113.295 78.5417C113.851 75.1984 114.996 71.9802 116.676 69.0366C115.942 69.1334 115.248 69.2061 114.691 69.2706Z" fill="#BF6E17"/>
<path d="M172.053 68.8996C171.488 68.8028 170.907 68.7059 170.326 68.6252C168.816 71.3462 167.74 74.2865 167.139 77.3396L168.752 77.5494C169.369 74.5042 170.484 71.5817 172.053 68.8996Z" fill="#BF6E17"/>
<path d="M175.465 69.5532H175.368C173.986 72.2734 173.023 75.1869 172.512 78.195L173.908 78.4774H174.101C174.596 75.5888 175.527 72.7921 176.861 70.1826C176.444 69.8787 175.969 69.6644 175.465 69.5532Z" fill="#BF6E17"/>
<path d="M161.74 67.7214L159.876 67.6003C158.195 70.3568 156.982 73.3722 156.285 76.5245L157.939 76.5971C158.673 73.4377 159.96 70.4329 161.74 67.7214Z" fill="#BF6E17"/>
<path d="M166.96 68.2298L165.16 68.0442C163.542 70.778 162.378 73.7565 161.715 76.8634C162.264 76.8634 162.804 76.9441 163.329 76.9925C164.032 73.8864 165.26 70.9229 166.96 68.2298Z" fill="#BF6E17"/>
<path d="M156.398 67.4232L154.486 67.3667C152.738 70.1428 151.474 73.196 150.75 76.3957H152.42C153.201 73.1918 154.548 70.1532 156.398 67.4232Z" fill="#BF6E17"/>
<path d="M149.023 67.3101C147.247 70.1131 145.964 73.1997 145.23 76.4359H146.909C147.688 73.1842 149.055 70.1023 150.943 67.3423L149.023 67.3101Z" fill="#BF6E17"/>
<path d="M145.417 67.3342H143.441C141.659 70.1658 140.379 73.2829 139.656 76.5489L141.343 76.4924C142.125 73.2147 143.507 70.1099 145.417 67.3342Z" fill="#BF6E17"/>
<g style="mix-blend-mode:multiply" opacity="0.8">
<path d="M174.691 74.6848C174.42 74.6873 174.149 74.6602 173.884 74.6041C152.849 69.9565 113.949 74.6042 113.561 74.6606C112.693 74.7371 111.824 74.5267 111.086 74.0618C110.349 73.597 109.784 72.9031 109.479 72.0867C109.16 72.8513 109.035 73.6828 109.115 74.5073C109.358 77.0006 111.342 78.8 113.561 78.5417C113.949 78.4933 152.849 73.8376 173.884 78.4772C174.148 78.54 174.419 78.5699 174.691 78.566C175.676 78.5201 176.614 78.1272 177.337 77.4568C178.061 76.7864 178.524 75.8817 178.645 74.9027C178.815 73.9527 178.702 72.9736 178.322 72.0867C178.04 72.8291 177.545 73.4716 176.899 73.9338C176.253 74.396 175.485 74.6573 174.691 74.6848Z" fill="#B3B3B3"/>
</g>
<defs>
<linearGradient id="paint0_linear_48_54679" x1="141.252" y1="236.078" x2="141.252" y2="262.721" gradientUnits="userSpaceOnUse">
<stop stop-color="white"/>
<stop offset="1" stop-color="#D17918"/>
</linearGradient>
<linearGradient id="paint1_linear_48_54679" x1="141.252" y1="222.724" x2="141.252" y2="249.376" gradientUnits="userSpaceOnUse">
<stop stop-color="white"/>
<stop offset="1" stop-color="#D17918"/>
</linearGradient>
<linearGradient id="paint2_linear_48_54679" x1="141.252" y1="209.378" x2="141.252" y2="236.022" gradientUnits="userSpaceOnUse">
<stop stop-color="white"/>
<stop offset="1" stop-color="#D17918"/>
</linearGradient>
<linearGradient id="paint3_linear_48_54679" x1="226.709" y1="210.443" x2="226.709" y2="237.087" gradientUnits="userSpaceOnUse">
<stop stop-color="white"/>
<stop offset="1" stop-color="#D17918"/>
</linearGradient>
<linearGradient id="paint4_linear_48_54679" x1="226.709" y1="197.097" x2="226.709" y2="223.741" gradientUnits="userSpaceOnUse">
<stop stop-color="white"/>
<stop offset="1" stop-color="#D17918"/>
</linearGradient>
<linearGradient id="paint5_linear_48_54679" x1="226.709" y1="183.744" x2="226.709" y2="210.387" gradientUnits="userSpaceOnUse">
<stop stop-color="white"/>
<stop offset="1" stop-color="#D17918"/>
</linearGradient>
<linearGradient id="paint6_linear_48_54679" x1="226.709" y1="170.398" x2="226.709" y2="197.041" gradientUnits="userSpaceOnUse">
<stop stop-color="white"/>
<stop offset="1" stop-color="#D17918"/>
</linearGradient>
<linearGradient id="paint7_linear_48_54679" x1="226.709" y1="157.052" x2="226.709" y2="183.695" gradientUnits="userSpaceOnUse">
<stop stop-color="white"/>
<stop offset="1" stop-color="#D17918"/>
</linearGradient>
<linearGradient id="paint8_linear_48_54679" x1="195.339" y1="250.78" x2="195.339" y2="277.431" gradientUnits="userSpaceOnUse">
<stop stop-color="white"/>
<stop offset="1" stop-color="#D17918"/>
</linearGradient>
<linearGradient id="paint9_linear_48_54679" x1="195.339" y1="237.434" x2="195.339" y2="264.077" gradientUnits="userSpaceOnUse">
<stop stop-color="white"/>
<stop offset="1" stop-color="#D17918"/>
</linearGradient>
<linearGradient id="paint10_linear_48_54679" x1="195.339" y1="224.088" x2="195.339" y2="250.731" gradientUnits="userSpaceOnUse">
<stop stop-color="white"/>
<stop offset="1" stop-color="#D17918"/>
</linearGradient>
<linearGradient id="paint11_linear_48_54679" x1="195.339" y1="210.734" x2="195.339" y2="237.385" gradientUnits="userSpaceOnUse">
<stop stop-color="white"/>
<stop offset="1" stop-color="#D17918"/>
</linearGradient>
<linearGradient id="paint12_linear_48_54679" x1="195.339" y1="197.388" x2="195.339" y2="224.031" gradientUnits="userSpaceOnUse">
<stop stop-color="white"/>
<stop offset="1" stop-color="#D17918"/>
</linearGradient>
<linearGradient id="paint13_linear_48_54679" x1="94.807" y1="242.007" x2="119.576" y2="251.824" gradientUnits="userSpaceOnUse">
<stop stop-color="white"/>
<stop offset="1" stop-color="#D17918"/>
</linearGradient>
<linearGradient id="paint14_linear_48_54679" x1="265.235" y1="263.51" x2="240.457" y2="273.368" gradientUnits="userSpaceOnUse">
<stop stop-color="white"/>
<stop offset="1" stop-color="#D17918"/>
</linearGradient>
</defs>
</svg>
