<svg width="116" height="168" viewBox="0 0 116 168" fill="none" xmlns="http://www.w3.org/2000/svg">
<path d="M26.2976 162.448C25.9458 160.964 25.4326 159.522 24.7673 158.149C24.1784 156.892 23.8638 155.524 23.8444 154.136L23.7848 153.755C23.499 149.849 22.8916 145.49 22.6654 141.655L10.1134 141.935C9.04159 143.096 8.87486 144.841 9.10708 146.407C9.33931 147.973 9.91094 149.468 10.1015 151.034C10.3813 153.326 9.83948 155.654 10.0538 157.959C10.3384 160.661 11.6107 163.163 13.6265 164.985C15.6609 166.777 18.2427 167.826 20.9505 167.962C22.4808 168.045 24.154 167.783 25.2317 166.688C26.3095 165.592 26.5536 163.967 26.2976 162.448Z" fill="#1AB1D2"/>
<path d="M28.108 111.651L8.23799 114.967L3.73047 122.708V124.602C3.73047 124.602 3.73047 128.067 3.73047 129.961C3.73047 131.854 10.721 142.971 10.721 142.971L22.0345 143.442C22.0345 143.442 22.4334 141.399 24.7378 138.196C26.5241 135.695 29.281 134.456 30.3469 130.985C31.0292 128.594 31.4799 126.144 31.6926 123.667L28.108 111.651Z" fill="#AE7461"/>
<path d="M8.47118 139.923C8.29119 139.645 8.13579 139.352 8.00674 139.047C7.73283 138.452 7.33984 137.648 6.91112 136.594C6.40032 135.358 6.01531 134.073 5.76191 132.759C5.4477 131.138 5.47813 129.468 5.85123 127.859C6.25756 126.244 7.1243 124.781 8.34614 123.649C9.32949 122.732 10.4506 121.974 11.6687 121.404C12.4772 121.011 13.313 120.677 14.1696 120.404C14.4733 120.309 14.7114 120.243 14.8722 120.201C14.9522 120.171 15.0368 120.155 15.1223 120.154C14.8284 120.3 14.5239 120.423 14.2113 120.523C13.3754 120.835 12.5582 121.194 11.764 121.601C10.5866 122.19 9.50302 122.951 8.54859 123.857C7.38333 124.963 6.55716 126.378 6.16681 127.936C5.80456 129.5 5.76808 131.121 6.05963 132.7C6.29566 133.997 6.65454 135.269 7.13143 136.499C7.52442 137.559 7.88765 138.398 8.13178 138.988C8.2703 139.29 8.38382 139.602 8.47118 139.923Z" fill="#6F4439"/>
<path d="M9.60327 141.179C9.639 141.233 11.074 143.698 12.1161 145.496C12.5173 146.193 13.0555 146.801 13.6982 147.284C14.3409 147.767 15.0747 148.115 15.8555 148.306C17.487 148.705 19.4579 148.777 20.4999 147.342L20.7917 146.937C21.422 146.067 21.8919 145.091 22.1791 144.055C22.4027 143.161 22.7036 142.289 23.0782 141.447C23.3682 140.993 23.5457 140.477 23.5962 139.94C19.3269 141.483 14.5574 141.649 9.49609 141" fill="#FAFAFA"/>
<path d="M10.1129 141.935H11.3454C11.3454 141.935 9.66034 144.811 10.1129 145.925C10.6929 147.722 11.0645 149.58 11.2204 151.462C11.3335 153.082 10.7857 157.971 12.0123 160.144C13.239 162.317 15.1265 165.36 18.467 166.17C21.8074 166.98 24.3738 165.741 25.0169 164.181C25.66 162.621 23.9213 155.511 23.9213 155.511L24.743 158.137C25.4083 159.51 25.9215 160.952 26.2733 162.436C26.5293 163.937 26.2733 165.622 25.2134 166.712C24.1535 167.801 22.4624 168.069 20.9321 167.986C18.2243 167.85 15.6425 166.801 13.6081 165.009C11.5923 163.187 10.3201 160.685 10.0355 157.982C9.82111 155.678 10.363 153.35 10.0831 151.057C9.89256 149.491 9.32093 147.991 9.08871 146.431C8.85649 144.871 9.04107 143.126 10.1129 141.935Z" fill="#E0E0E0"/>
<path d="M20.1775 151.296C20.1775 151.296 20.0048 151.558 19.582 151.814C19.0382 152.142 18.428 152.346 17.7957 152.409C17.159 152.475 16.5156 152.396 15.9141 152.177C15.4616 152.004 15.2174 151.82 15.2353 151.784C16.0564 152.024 16.9112 152.128 17.7659 152.093C18.6073 151.958 19.4215 151.689 20.1775 151.296Z" fill="#263238"/>
<path d="M20.7986 153.844C20.7986 153.844 20.6259 154.1 20.2031 154.362C19.6593 154.691 19.0491 154.894 18.4168 154.957C17.7806 155.025 17.1373 154.948 16.5352 154.731C16.0827 154.559 15.8385 154.368 15.8564 154.338C16.6775 154.578 17.5323 154.683 18.387 154.648C19.2287 154.511 20.043 154.239 20.7986 153.844Z" fill="#263238"/>
<path d="M21.4561 156.148C21.4561 156.178 21.3013 156.422 20.9023 156.708C20.3786 157.075 19.7803 157.321 19.1503 157.429C18.5202 157.537 17.8741 157.504 17.2582 157.333C16.7937 157.19 16.5377 157.024 16.5556 156.988C17.39 157.172 18.2492 157.216 19.0981 157.119C19.9313 156.925 20.7276 156.597 21.4561 156.148Z" fill="#263238"/>
<path d="M18.178 151.194C18.178 151.194 18.178 151.111 18.178 150.944C18.1717 150.707 18.1857 150.47 18.2197 150.236C18.3436 149.355 18.6786 148.517 19.1962 147.794C19.5487 147.286 19.9954 146.849 20.5121 146.508C20.6782 146.407 20.8726 146.363 21.0659 146.383C21.1797 146.401 21.2842 146.457 21.3629 146.541C21.4417 146.625 21.4901 146.733 21.5006 146.848C21.516 147.051 21.4834 147.255 21.4053 147.443C21.3458 147.61 21.2803 147.782 21.2029 147.955C20.8937 148.668 20.4759 149.329 19.9643 149.914C19.6945 150.23 19.3888 150.514 19.0533 150.76C18.8716 150.899 18.6625 150.998 18.4398 151.05C18.2171 151.102 17.9858 151.107 17.7612 151.063C17.3498 150.946 16.9509 150.788 16.5703 150.593C16.2011 150.42 15.8319 150.248 15.4747 150.069C14.7834 149.728 14.1221 149.33 13.4978 148.878C13.3377 148.767 13.1969 148.63 13.081 148.473C12.9593 148.3 12.9102 148.086 12.944 147.878C12.9672 147.769 13.0201 147.669 13.0969 147.59C13.1737 147.51 13.2713 147.453 13.3787 147.425C13.5654 147.398 13.7559 147.418 13.9325 147.485C14.5081 147.684 15.0594 147.948 15.5759 148.271C16.3223 148.74 16.9845 149.332 17.5349 150.021C17.6844 150.211 17.8217 150.41 17.9458 150.617C17.9946 150.684 18.0327 150.758 18.0589 150.837C18.0589 150.837 17.8446 150.569 17.4635 150.111C16.8914 149.468 16.2248 148.915 15.4866 148.473C14.9782 148.17 14.4368 147.926 13.8729 147.747C13.5812 147.64 13.2775 147.663 13.2418 147.943C13.206 148.223 13.4085 148.467 13.6943 148.67C14.312 149.102 14.9631 149.484 15.6414 149.813C15.9927 149.986 16.3559 150.158 16.7251 150.325C17.0819 150.512 17.457 150.662 17.8446 150.772C18.0288 150.808 18.2188 150.804 18.4016 150.761C18.5844 150.718 18.7559 150.636 18.9044 150.521C19.2176 150.291 19.5033 150.025 19.7559 149.73C20.2431 149.166 20.6444 148.534 20.9468 147.854C21.0986 147.562 21.1955 147.246 21.2326 146.919C21.2326 146.645 20.8992 146.627 20.6372 146.776C20.1486 147.092 19.7226 147.496 19.3808 147.967C18.8689 148.656 18.5152 149.448 18.3447 150.289C18.178 150.867 18.178 151.194 18.178 151.194Z" fill="#263238"/>
<path d="M65.6706 91.4949C65.6706 91.4949 73.4709 87.9223 80.1697 86.1359C83.7424 85.1773 87.0292 84.7485 88.6131 85.6596C93.1563 88.2795 95.9192 91.3461 96.5325 96.1037C97.1458 100.861 97.4019 150.885 97.4019 150.885L85.7966 152.873L81.2474 131.747C81.2474 131.747 78.163 125.364 77.8534 119.028C77.5438 112.693 77.5974 111.681 77.5974 111.681L66.927 119.028L62.9375 102.04L65.6706 91.4949Z" fill="#AE7461"/>
<path d="M85.4599 152.189C85.192 151.802 83.0781 140.441 83.0781 140.441L97.4403 138.505L97.8511 151.54L85.4599 152.189Z" fill="#FAFAFA"/>
<path d="M99.2758 149.485L99.3056 150.444C99.3056 150.444 115.454 156.559 115.698 159.638L83.9609 160.275L84.1753 149.557C88.9389 151.665 93.8811 151.814 99.2758 149.485Z" fill="#1AB1D2"/>
<g opacity="0.6">
<path d="M87.4571 152.903C87.1494 153.008 86.8913 153.223 86.732 153.506C86.5728 153.79 86.5235 154.122 86.5937 154.439C86.6778 154.749 86.8785 155.014 87.1537 155.18C87.4289 155.345 87.7573 155.398 88.0704 155.327C88.3937 155.216 88.6651 154.991 88.833 154.693C89.001 154.396 89.0538 154.047 88.9814 153.713C88.8598 153.399 88.6207 153.146 88.3149 153.005C88.0092 152.865 87.6608 152.85 87.3439 152.963" fill="white"/>
</g>
<path d="M99.4199 150.533C99.4199 150.688 98.6458 150.777 97.8896 151.296C97.1334 151.814 96.7464 152.486 96.6034 152.433C96.4605 152.379 96.6689 151.456 97.5919 150.843C98.5148 150.23 99.4497 150.384 99.4199 150.533Z" fill="#263238"/>
<path d="M102.778 151.861C102.814 152.016 102.153 152.296 101.635 152.975C101.117 153.654 100.986 154.356 100.831 154.356C100.676 154.356 100.563 153.463 101.212 152.635C101.861 151.808 102.772 151.712 102.778 151.861Z" fill="#263238"/>
<path d="M104.748 155.875C104.605 155.91 104.378 155.13 104.748 154.261C105.117 153.392 105.843 153.028 105.938 153.159C106.034 153.29 105.563 153.755 105.26 154.481C104.956 155.208 104.902 155.857 104.748 155.875Z" fill="#263238"/>
<path d="M83.9599 157.905C83.962 158.412 83.9202 158.918 83.8348 159.417C83.7778 159.798 83.8141 160.188 83.9406 160.552C84.0671 160.916 84.2801 161.244 84.5613 161.507L102.573 161.114L115.894 160.787C115.894 160.787 116.441 159.501 114.703 158.149L83.9599 157.905Z" fill="#E0E0E0"/>
<path d="M99.484 150.271C99.484 150.271 99.4125 150.271 99.2815 150.176C99.0947 150.062 98.921 149.929 98.7635 149.777C98.1873 149.2 97.8187 148.448 97.7155 147.639C97.6383 147.075 97.7017 146.5 97.9001 145.966C97.9506 145.798 98.0425 145.645 98.1673 145.521C98.2921 145.397 98.4459 145.307 98.6146 145.258C98.8038 145.24 98.9941 145.279 99.1615 145.369C99.3288 145.459 99.4659 145.596 99.5554 145.764C100.191 147.12 100.332 148.655 99.9544 150.105L99.6447 150.063V149.795C99.6977 149.036 99.9014 148.294 100.244 147.614C100.586 146.935 101.061 146.33 101.639 145.835C101.797 145.719 101.986 145.652 102.181 145.645C102.286 145.64 102.39 145.662 102.483 145.71C102.576 145.759 102.655 145.83 102.711 145.919C102.799 146.074 102.849 146.247 102.856 146.426C102.863 146.604 102.828 146.781 102.753 146.943C102.554 147.478 102.292 147.987 101.973 148.461C101.512 149.142 100.933 149.734 100.264 150.212C100.085 150.344 99.8962 150.462 99.6983 150.563C99.6325 150.606 99.5601 150.638 99.484 150.658C99.484 150.658 99.746 150.474 100.193 150.116C100.816 149.61 101.355 149.007 101.788 148.33C102.084 147.866 102.324 147.368 102.503 146.847C102.565 146.728 102.597 146.595 102.597 146.46C102.597 146.326 102.565 146.193 102.503 146.073C102.366 145.859 102.068 145.883 101.818 146.073C100.739 147.032 100.077 148.373 99.9722 149.813V150.063L99.6626 150.021C100.016 148.653 99.8962 147.205 99.3232 145.913C99.2639 145.791 99.1702 145.69 99.0538 145.621C98.9373 145.552 98.8033 145.519 98.6682 145.526C98.43 145.555 98.2573 145.805 98.1561 146.056C97.9598 146.549 97.8862 147.082 97.9418 147.61C98.0262 148.381 98.3488 149.108 98.8647 149.688C99.2279 150.11 99.5018 150.271 99.484 150.271Z" fill="#263238"/>
<path d="M83.2347 98.42C83.2764 98.4557 82.7047 99.1583 81.9009 100.379C79.8013 103.558 78.399 107.146 77.7864 110.906C77.5482 112.347 77.4946 113.253 77.441 113.253C77.4103 113.041 77.4103 112.827 77.441 112.615C77.4595 112.034 77.5072 111.454 77.5839 110.877C78.089 107.05 79.5197 103.403 81.752 100.254C82.0845 99.7767 82.4423 99.3176 82.8238 98.8785C83.0799 98.5689 83.2168 98.4021 83.2347 98.42Z" fill="#6F4439"/>
<path d="M70.4563 122.172L53.7243 124.941C53.7243 124.941 36.1646 130.973 30.7937 129.288C30.7937 129.288 33.9793 113.145 21.3737 114.652C5.11807 116.599 3.73068 128.746 3.73068 128.746C1.61579 125.909 0.353721 122.528 0.0925084 118.999C-0.407666 112.967 1.2834 106.369 1.2834 106.369L2.96851 102.04L49.312 94.2579L72.2962 87.053L80.168 86.136C80.168 86.136 71.9866 97.7888 71.0696 103.922C70.1526 110.055 70.4563 122.172 70.4563 122.172Z" fill="#455A64"/>
<path d="M34.6519 110.65C34.7694 110.872 34.8632 111.106 34.9318 111.347C35.0349 111.621 35.1204 111.902 35.1878 112.187C35.2771 112.52 35.3903 112.895 35.4617 113.318C35.6652 114.313 35.7867 115.322 35.8249 116.337C35.9226 118.825 35.551 121.31 34.7293 123.661C34.3941 124.618 33.9819 125.546 33.4968 126.436C33.3003 126.823 33.0859 127.144 32.9013 127.436C32.7495 127.687 32.5845 127.929 32.4071 128.162C32.2745 128.379 32.1166 128.579 31.9367 128.758C31.8831 128.722 32.5321 127.865 33.2943 126.34C33.7444 125.448 34.1304 124.525 34.4495 123.578C34.8335 122.412 35.1203 121.217 35.3069 120.005C35.4785 118.794 35.5541 117.572 35.5332 116.349C35.5039 115.351 35.4044 114.356 35.2355 113.372C34.9496 111.675 34.5924 110.668 34.6519 110.65Z" fill="#263238"/>
<path d="M48.0982 111.651C47.8745 112.218 47.6119 112.769 47.3122 113.3C46.812 114.306 46.1213 115.682 45.5258 117.29C44.9304 118.897 44.3647 120.338 44.0134 121.404C43.8536 121.992 43.6547 122.569 43.418 123.131C43.4824 122.523 43.6121 121.924 43.805 121.345C44.2004 119.928 44.6795 118.536 45.24 117.176C45.7979 115.815 46.4342 114.487 47.1455 113.199C47.4085 112.651 47.7278 112.132 48.0982 111.651Z" fill="#263238"/>
<path d="M65.6991 108.686C65.6879 108.871 65.6477 109.054 65.58 109.227C65.4848 109.573 65.3299 110.061 65.1215 110.662C64.5762 112.225 63.9379 113.755 63.2102 115.241C62.4882 116.733 61.679 118.18 60.7867 119.576C60.4473 120.106 60.1555 120.535 59.9412 120.821C59.7268 121.107 59.6077 121.255 59.5898 121.243C59.8946 120.631 60.2305 120.035 60.5961 119.457C61.2333 118.367 62.0848 116.837 62.9303 115.104C63.7758 113.372 64.4487 111.758 64.9131 110.585C65.1402 109.938 65.4026 109.304 65.6991 108.686Z" fill="#263238"/>
<path d="M16.0627 45.9731C16.0627 45.9731 8.76852 49.0456 6.17238 56.5125C3.57624 63.9794 -2.0924 92.8347 0.986051 101.099C4.0645 109.364 37.1415 110.341 37.1415 110.341L43.9534 109.692V99.4799L38.4217 98.6641C38.4217 98.6641 35.1765 97.0445 34.6942 97.0445C34.2119 97.0445 17.3429 91.2091 17.3429 91.2091L18.1527 88.2914C18.1527 88.2914 22.8568 81.3188 23.0175 78.1689C23.1783 75.019 22.0053 61.7108 22.0053 61.7108L16.0627 45.9731Z" fill="#1AB1D2"/>
<path d="M54.1155 40.1855L16.0606 45.9732L15.0781 89.9111L28.7079 100.45L57.8847 96.8778L66.7509 63.8365C66.7509 63.8365 71.3596 54.9049 68.0013 47.4082C66.9176 44.9847 63.6367 40.8583 60.9631 40.2986C58.7055 39.8539 56.3866 39.8156 54.1155 40.1855Z" fill="#1AB1D2"/>
<path d="M43.847 57.6975C40.316 55.3574 36.1062 54.2261 33.266 51.094C30.4257 47.962 30.8842 46.4853 29.7945 42.7578L23.7031 45.735C24.4534 51.8979 27.5259 55.4229 32.6348 58.9837C34.3426 60.2507 36.3187 61.1084 38.4106 61.4905C39.4564 61.674 40.5283 61.6464 41.5633 61.4091C42.5982 61.1719 43.5751 60.7298 44.4365 60.1091C44.6604 59.9582 44.8426 59.7535 44.9665 59.5136C45.2166 58.7991 44.4842 58.1203 43.847 57.6975Z" fill="#1AB1D2"/>
<path d="M68.0905 55.3098C68.1035 55.5093 68.0894 55.7096 68.0488 55.9053C68.0012 56.2685 67.9178 56.7984 67.8106 57.4534C67.5963 58.7634 67.2628 60.5617 66.8579 62.5385C66.453 64.5154 66.0303 66.3017 65.7087 67.582C65.548 68.225 65.411 68.7431 65.3038 69.1003C65.2689 69.2917 65.2046 69.4765 65.1133 69.6481C65.1918 68.9361 65.3171 68.2299 65.4884 67.5343C65.7802 66.1588 66.1434 64.4082 66.5483 62.473L67.5963 57.382C67.7124 56.6806 67.8775 55.9881 68.0905 55.3098Z" fill="#263238"/>
<path d="M28.5766 49.9269C28.019 49.425 27.3936 49.0041 26.7188 48.6765C25.9778 48.3499 25.1937 48.1313 24.3906 48.0274C23.4025 47.9133 22.4061 47.8874 21.4134 47.95C20.3475 48.0036 19.3293 48.087 18.3945 48.1048C17.566 48.128 16.7371 48.0782 15.9174 47.956C15.3638 47.8682 14.821 47.7225 14.2978 47.5213C14.0995 47.4597 13.9139 47.3629 13.75 47.2355C14.4693 47.4553 15.2036 47.6225 15.9472 47.7356C16.7577 47.8249 17.574 47.8508 18.3885 47.8131C19.3055 47.7833 20.3237 47.688 21.3657 47.6344C22.3791 47.5723 23.3961 47.6082 24.4025 47.7416C25.2301 47.862 26.0337 48.1112 26.7843 48.48C27.2901 48.7281 27.7542 49.0536 28.1598 49.4446C28.3265 49.5791 28.4677 49.7424 28.5766 49.9269Z" fill="#263238"/>
<path d="M36.891 59.728C36.7228 59.7077 36.5584 59.6635 36.4027 59.597C35.9647 59.4442 35.5371 59.2632 35.1225 59.0551C32.3621 57.6855 30.0793 55.5147 28.5726 52.8267C28.3471 52.4254 28.1482 52.0097 27.9772 51.5823C27.8969 51.4296 27.8425 51.2645 27.8164 51.094C27.87 51.094 28.1677 51.7311 28.7691 52.7136C30.3542 55.2889 32.5829 57.4068 35.2357 58.8586C36.242 59.4124 36.9148 59.6744 36.891 59.728Z" fill="#263238"/>
<path d="M51.4487 45.7648C51.4487 45.7648 51.5082 45.9315 51.5558 46.2471C51.6276 46.6923 51.6693 47.1419 51.6809 47.5928C51.7223 49.086 51.5519 50.5775 51.1748 52.0229C50.7981 53.4687 50.2145 54.8525 49.442 56.1315C49.2099 56.5205 48.9533 56.8944 48.6739 57.2509C48.4774 57.501 48.3583 57.632 48.3404 57.6201C48.3226 57.6082 48.7037 57.0246 49.2455 56.0243C49.9515 54.736 50.4974 53.3662 50.8711 51.9455C51.243 50.5257 51.4429 49.0663 51.4665 47.5988C51.4665 46.4674 51.3951 45.7707 51.4487 45.7648Z" fill="#263238"/>
<path d="M23.6542 81.0925C23.6553 80.9895 23.6713 80.8872 23.7018 80.7888C23.7495 80.5566 23.809 80.2708 23.8864 79.9254C23.9638 79.5801 24.0769 79.0978 24.1544 78.5619C24.2318 78.026 24.3687 77.4186 24.4223 76.7398C24.458 76.4004 24.4938 76.0432 24.5354 75.674C24.5771 75.3048 24.5771 74.9178 24.6009 74.5188C24.6605 73.7209 24.6009 72.8635 24.6009 71.9643C24.5156 70.0114 24.2646 68.0692 23.8507 66.1588C23.4119 64.2543 22.8144 62.39 22.0643 60.5854C21.6892 59.7696 21.3498 58.9836 20.9568 58.281C20.7663 57.9297 20.5995 57.5784 20.4031 57.2628L19.8493 56.3458C19.5099 55.7504 19.1348 55.2621 18.8311 54.8155C18.5752 54.428 18.2989 54.0543 18.0034 53.6961L17.4735 52.9935C17.4042 52.9166 17.346 52.8305 17.3008 52.7374C17.383 52.7993 17.457 52.8713 17.5211 52.9518L18.1165 53.6187C18.4279 53.9657 18.7201 54.3295 18.9918 54.7083C19.3134 55.1549 19.7004 55.6372 20.0517 56.2267L20.6472 57.1378C20.8437 57.4593 21.0164 57.8047 21.2426 58.1619C21.6475 58.8586 21.9988 59.6505 22.3859 60.4723C23.9758 64.097 24.8473 67.9957 24.9523 71.9524C24.9523 72.8635 24.9523 73.7388 24.9046 74.5307C24.9046 74.9356 24.8689 75.3286 24.8272 75.7216C24.7855 76.1146 24.7319 76.4481 24.6903 76.7934C24.6188 77.4782 24.4759 78.0855 24.3747 78.6214C24.2921 79.0794 24.1848 79.5327 24.0531 79.9791C23.9519 80.3185 23.8745 80.5745 23.809 80.8305C23.7715 80.9255 23.7192 81.0139 23.6542 81.0925Z" fill="#263238"/>
<path d="M19.6875 87.7496C19.9675 86.6576 20.3462 85.5933 20.8188 84.5699C21.1936 83.5082 21.6702 82.4852 22.242 81.5153C21.9603 82.6048 21.5817 83.667 21.1106 84.689C20.7336 85.7517 20.2571 86.7764 19.6875 87.7496Z" fill="#263238"/>
<path d="M44.9989 99.6585C44.8863 99.6743 44.7721 99.6743 44.6595 99.6585L43.7127 99.5394L40.2413 99.0452L28.7909 97.2768L28.0466 97.1577H27.993L27.9513 97.116C25.5435 94.3267 22.7172 91.9283 19.5734 90.0064C18.3825 89.274 17.3762 88.744 16.6736 88.3927L15.8637 87.9878C15.7678 87.9449 15.6761 87.893 15.5898 87.833C15.6956 87.8513 15.798 87.8854 15.8935 87.9342C16.0841 88.0116 16.3699 88.1188 16.7271 88.2855C17.7473 88.7419 18.7413 89.2548 19.7044 89.8218C22.9069 91.7031 25.7794 94.0968 28.2073 96.9076L28.118 96.854L28.8623 96.9731L40.2949 98.8071L43.7544 99.4025L44.6893 99.5752C44.795 99.5926 44.8987 99.6205 44.9989 99.6585Z" fill="#263238"/>
<path d="M56.5221 74.6022C56.4904 74.6969 56.4464 74.787 56.3911 74.8702L55.9624 75.6145C55.7409 76.0083 55.4984 76.3899 55.236 76.7577C54.9383 77.1924 54.6405 77.7045 54.194 78.2166C53.7474 78.7287 53.3365 79.3241 52.8066 79.8957C52.2766 80.4674 51.705 81.0866 51.0857 81.7118C48.3316 84.3761 45.1285 86.533 41.6241 88.0831C40.8083 88.4225 40.0462 88.7619 39.2959 89.0001C38.5456 89.2383 37.8609 89.4764 37.2178 89.6491C36.5747 89.8218 35.9912 89.9588 35.4731 90.0719C35.0335 90.1782 34.5882 90.2597 34.1393 90.316L33.2938 90.4292C33.1948 90.4384 33.0951 90.4384 32.9961 90.4292C33.0862 90.3861 33.1828 90.3579 33.2819 90.3458L34.1215 90.1731C34.4847 90.1017 34.9253 90.0124 35.4374 89.8754C35.9495 89.7384 36.533 89.6253 37.1583 89.411C37.7835 89.1966 38.4861 89.012 39.2066 88.7321C39.9271 88.4523 40.7012 88.1367 41.505 87.7973C43.2246 87.002 44.8808 86.0764 46.4591 85.0285C48.0241 83.9538 49.5032 82.7594 50.8833 81.4558C51.4787 80.8603 52.0742 80.2649 52.616 79.6695C53.1579 79.074 53.6045 78.5441 54.0153 78.026C54.4262 77.508 54.7775 77.0257 55.0931 76.6029C55.4087 76.1802 55.6587 75.805 55.8612 75.4954L56.3375 74.7868C56.4447 74.6796 56.5102 74.5963 56.5221 74.6022Z" fill="#263238"/>
<path d="M43.954 107.858C43.8811 107.888 43.8052 107.91 43.7277 107.923C43.5788 107.965 43.3526 108.019 43.0608 108.078C42.4653 108.203 41.596 108.358 40.4587 108.495C39.3214 108.632 37.9281 108.751 36.2906 108.781C35.4808 108.781 34.6114 108.781 33.6885 108.781C32.7655 108.781 31.795 108.65 30.7768 108.543C26.7099 108.102 21.8987 107.381 16.5932 106.351C13.9435 105.821 11.1628 105.238 8.33442 104.398C7.62584 104.19 6.92321 103.952 6.22059 103.672C5.48173 103.426 4.80658 103.019 4.24371 102.481C3.15731 101.334 2.45406 99.8772 2.23111 98.3129C2.08578 97.4677 2.03982 96.6084 2.09415 95.7525C1.94663 90.1741 2.38771 84.5956 3.41008 79.1098C4.31516 74.0723 5.45246 69.6243 6.4409 65.9147C7.42934 62.2051 8.28678 59.2278 8.86437 57.1676C9.15018 56.1554 9.37645 55.3813 9.53722 54.7858C9.60867 54.5298 9.66822 54.3273 9.71585 54.1904C9.7322 54.1205 9.75617 54.0526 9.78731 53.9879C9.78248 54.0608 9.76847 54.1329 9.74562 54.2023L9.59676 54.7977C9.4479 55.3574 9.23949 56.1553 9.00132 57.1795L6.67313 65.9504C5.70851 69.666 4.60098 74.114 3.6959 79.1395C2.6938 84.6078 2.26276 90.1653 2.40974 95.7227C2.36187 96.5509 2.40781 97.3818 2.54669 98.1997C2.75137 99.7206 3.42824 101.139 4.48189 102.255C5.01826 102.755 5.65585 103.135 6.35159 103.368C7.0423 103.642 7.73898 103.874 8.4416 104.083C11.2521 104.922 14.0209 105.512 16.6647 106.048C21.9582 107.096 26.7873 107.834 30.8184 108.298C34.0167 108.689 37.2491 108.713 40.4527 108.37C41.59 108.257 42.4653 108.12 43.0548 108.019L43.7277 107.894C43.8016 107.874 43.8775 107.862 43.954 107.858Z" fill="white"/>
<path d="M43.9531 106.637C43.8821 106.666 43.8083 106.688 43.7328 106.703C43.5839 106.738 43.3696 106.81 43.0778 106.863C42.232 107.021 41.3766 107.123 40.5174 107.167C37.3606 107.297 34.1985 107.2 31.0557 106.875C27.0722 106.506 22.3444 105.881 17.1521 104.869C14.4255 104.368 11.7329 103.698 9.08976 102.862C8.38435 102.636 7.70864 102.326 7.07715 101.939C6.49122 101.458 5.98307 100.89 5.57068 100.254C4.76884 98.9504 4.21752 97.5085 3.94511 96.0025C3.87366 95.6274 3.81411 95.2463 3.77243 94.8652C3.73075 94.4841 3.77243 94.103 3.77243 93.722C3.77243 92.9657 3.73075 92.2155 3.77243 91.4712L3.82602 89.2561L3.96893 87.0768C4.1952 84.2067 4.56437 81.4498 5.005 78.8418C5.92794 73.6316 7.09502 69.005 8.13109 65.1465C9.16717 61.2881 10.0663 58.1739 10.6736 56.0243C10.9714 54.9644 11.2095 54.1308 11.3763 53.5473C11.4537 53.2793 11.5192 53.0649 11.5668 52.9101C11.5828 52.8336 11.6088 52.7595 11.6442 52.6898C11.6442 52.6898 11.6442 52.7672 11.5966 52.9161C11.5489 53.065 11.5073 53.2912 11.4358 53.5651C11.287 54.1606 11.0666 54.9882 10.7927 56.0541L8.34545 65.2001C7.33915 69.0646 6.1959 73.6912 5.29082 78.8954C4.85614 81.4975 4.49888 84.2544 4.27261 87.1066L4.14161 89.274L4.08207 91.4831C4.05229 92.2214 4.08207 92.9657 4.08207 93.716C4.08207 94.0911 4.08207 94.4782 4.08207 94.8354C4.08207 95.1927 4.17734 95.5797 4.24879 95.9489C4.512 97.424 5.04706 98.8374 5.82672 100.117C6.21754 100.722 6.69961 101.262 7.25579 101.719C7.8619 102.088 8.50947 102.383 9.18503 102.6C11.8136 103.433 14.4901 104.107 17.1997 104.619C22.3801 105.643 27.096 106.286 31.0676 106.679C34.2009 107.026 37.3541 107.159 40.5055 107.078C41.361 107.043 42.2138 106.959 43.0599 106.828C43.3517 106.786 43.572 106.726 43.7209 106.703C43.7953 106.671 43.8733 106.649 43.9531 106.637Z" fill="white"/>
<path d="M92.0925 65.8194C93.5275 67.1889 96.2249 71.2737 96.7251 73.197C97.5051 76.1742 98.0648 80.515 95.6652 82.6169C91.7769 86.0229 70.8589 89.7623 70.8589 89.7623L66.8099 79.8719L76.8313 72.536L65.1367 67.2604L61.957 40.6559C67.6674 43.9685 72.9506 47.9679 77.6887 52.5648C83.4109 58.2811 88.7759 62.6635 92.0925 65.8194Z" fill="#1AB1D2"/>
<path d="M87.9505 69.1181C87.9505 69.1658 87.2478 69.2193 86.1225 69.3861C84.6593 69.6064 83.2173 69.949 81.8114 70.4102C80.4049 70.8873 79.0423 71.485 77.7386 72.1966C76.7382 72.7325 76.1428 73.1136 76.113 73.0719C76.0832 73.0302 76.2381 72.9409 76.4941 72.7503C76.8598 72.4806 77.2395 72.2301 77.6314 72.0001C80.2161 70.4638 83.1025 69.5051 86.0927 69.1896C86.6881 69.13 87.1288 69.1062 87.4503 69.1062C87.6164 69.0801 87.7858 69.0841 87.9505 69.1181Z" fill="#263238"/>
<path d="M97.4348 77.1149C97.4168 77.2132 97.3826 77.3077 97.3335 77.3947C97.217 77.6552 97.0733 77.9027 96.9048 78.1331C96.2689 78.9791 95.44 79.6609 94.4873 80.1219C93.0918 80.8007 91.6316 81.3373 90.1286 81.7236C88.4614 82.2179 86.6215 82.7537 84.6863 83.2956C80.8159 84.3793 77.2908 85.2904 74.7364 85.9156C73.4562 86.2312 72.4141 86.4753 71.6996 86.6301L70.866 86.8087C70.7703 86.832 70.6726 86.8459 70.5742 86.8504C70.5742 86.8504 70.6635 86.8028 70.8541 86.7492L71.6698 86.517L74.6471 85.7012C77.1896 85.0224 80.7027 84.0756 84.5731 82.9919L90.0215 81.4438C91.5106 81.0741 92.9619 80.5657 94.3563 79.9254C95.2914 79.4927 96.1175 78.8559 96.7738 78.0616C97.2561 77.49 97.405 77.103 97.4348 77.1149Z" fill="white"/>
<path d="M97.1958 75.4299C97.1522 75.5206 97.096 75.6048 97.0291 75.68C96.8656 75.9138 96.6845 76.1347 96.4873 76.3409C95.7756 77.1256 94.941 77.7893 94.0162 78.3059C92.6336 79.0349 91.1814 79.6234 89.6813 80.0625C88.0141 80.5984 86.198 81.2533 84.2568 81.8488C80.3864 83.0397 76.8257 83.9448 74.2295 84.5104C72.9314 84.8022 71.8775 85.0047 71.1511 85.1416L70.3055 85.2845C70.207 85.3016 70.1063 85.3016 70.0078 85.2845C70.0995 85.2442 70.1953 85.2142 70.2936 85.1952L71.1213 84.9987L74.1819 84.2723C76.7542 83.647 80.3031 82.7241 84.1615 81.5213C86.0967 80.9259 87.9129 80.2887 89.592 79.7647C91.0814 79.347 92.5271 78.7867 93.909 78.0915C94.8251 77.5999 95.6638 76.9759 96.3979 76.2397C96.9219 75.7395 97.1661 75.412 97.1958 75.4299Z" fill="white"/>
<path d="M90.552 65.5276C90.552 65.5276 90.4567 65.4621 90.284 65.3133L89.5576 64.6464L86.89 62.1872C84.6332 60.127 81.4536 57.3343 77.8094 54.4166C74.1653 51.4989 70.7415 49.004 68.2347 47.2713L65.2575 45.2051L64.4536 44.6454C64.3536 44.5834 64.2617 44.5094 64.1797 44.425C64.2871 44.4686 64.389 44.5246 64.4834 44.5918C64.7096 44.7228 64.9835 44.8955 65.3289 45.1039C66.0553 45.5564 67.1152 46.2292 68.3657 47.0867C70.9082 48.7956 74.3559 51.2548 78.0119 54.1904C81.6679 57.1259 84.8238 59.9424 87.0507 62.0502C88.1642 63.1042 89.0514 63.9676 89.6469 64.5809L90.3376 65.2895C90.4865 65.4324 90.5639 65.5217 90.552 65.5276Z" fill="white"/>
<path d="M46.8904 98.2295C46.7594 97.8067 46.4141 95.5143 46.4141 95.5143L49.3913 90.6614L55.8459 85.5644L66.9807 80.2411L70.5534 88.9584L65.373 91.5009L62.6578 97.4971L60.5142 100.278L60.0974 106.726C59.8737 106.859 59.6082 106.902 59.3542 106.846C59.1002 106.791 58.8765 106.642 58.7279 106.429C58.2396 105.649 58.1324 100.921 58.2158 101.189C58.2992 101.457 57.6203 107.084 56.9773 107.09C56.3342 107.096 54.8217 106.131 54.8217 106.131L55.2981 100.45C55.2981 100.45 54.399 107.268 53.8571 107.09C53.4079 106.988 53.0037 106.743 52.7053 106.392C52.4069 106.041 52.2302 105.602 52.2018 105.143C52.2018 103.85 51.8683 96.2109 51.8683 96.2109L49.3258 97.9079C49.3258 97.9079 51.386 102.386 50.7965 102.808C50.207 103.231 48.0277 101.903 46.8904 98.2295Z" fill="#AE7461"/>
<path d="M39.1721 38.4228C36.6712 36.6365 26.2449 35.005 23.2498 34.3083C21.7255 33.957 19.8618 33.8617 18.8733 35.0764C18.1409 35.9458 18.1767 37.2677 17.5812 38.2502C16.3903 40.1973 13.2583 40.1556 12.0078 42.0789C10.942 43.7223 11.8709 46.0445 13.4488 47.2116C15.0268 48.3787 17.0215 48.7121 18.9507 49.123C22.5907 49.9143 26.1301 51.1127 29.502 52.6957C30.2642 53.0589 31.199 53.434 31.8838 52.9696C32.3278 52.5984 32.615 52.073 32.6877 51.4988C33.8786 46.4971 34.8849 42.0312 31.6039 38.0775L39.1721 38.4228Z" fill="#1AB1D2"/>
<g opacity="0.3">
<path d="M34.813 38.1134C33.2351 37.7918 26.8995 36.6664 25.1668 35.7316C24.6218 35.434 23.9911 35.3331 23.3805 35.4458C21.3321 35.8805 21.4095 38.7088 19.9209 40.0009C19.0754 40.7274 17.8845 40.8286 16.8306 41.1918C15.7766 41.5551 14.5083 42.5554 14.9013 43.7701C15.0286 44.143 15.2757 44.4633 15.6039 44.6812C16.3277 45.0956 17.1521 45.3017 17.9857 45.2766C20.2143 45.4732 22.4559 45.4732 24.6845 45.2766C26.5912 44.9364 28.3625 44.0631 29.7934 42.7579V40.4059C44.3759 41.5015 37.0817 38.5838 34.813 38.1134Z" fill="black"/>
</g>
<path d="M55.0213 17.0345C55.8398 17.138 56.6676 16.9355 57.3459 16.4659C58.0241 15.9963 58.505 15.2927 58.6963 14.4902C58.8875 13.6877 58.7755 12.8428 58.3819 12.1178C57.9883 11.3928 57.3407 10.8388 56.5635 10.562C57.0829 10.0489 57.4276 9.38537 57.5488 8.6654C57.6699 7.94544 57.5614 7.2056 57.2386 6.55075C56.9158 5.89591 56.3951 5.35927 55.7502 5.01692C55.1054 4.67456 54.3691 4.54385 53.6459 4.64331C53.6293 3.92393 53.4268 3.22109 53.058 2.60318C52.6893 1.98528 52.1668 1.47337 51.5416 1.11727C50.9163 0.761165 50.2095 0.572995 49.4899 0.571086C48.7703 0.569177 48.0625 0.753594 47.4354 1.10637C46.6379 0.432717 45.6384 0.0446063 44.5953 0.0036159C43.5522 -0.0373745 42.5253 0.2711 41.6774 0.880102C40.9787 0.735825 40.252 0.819894 39.6047 1.11991C38.9573 1.41993 38.4235 1.92001 38.082 2.54643C37.7404 3.17285 37.6092 3.89245 37.7076 4.59912C37.8061 5.30578 38.129 5.96211 38.6287 6.47133" fill="#263238"/>
<path d="M55.4972 17.5168C55.2826 13.9574 53.7363 10.6091 51.1657 8.1378C48.595 5.66648 45.1885 4.25314 41.6234 4.17883H40.891C32.9656 4.47656 28.7856 11.3778 29.3096 19.2972L29.905 45.6933L30.9054 47.2474C33.9243 51.1059 40.0752 55.4228 42.713 58.0428C46.8157 55.9349 48.072 54.8631 48.1673 49.8078L48.2626 44.288C48.2626 44.288 55.8962 43.2639 56.1463 35.6541C56.2832 31.9683 55.9081 24.3763 55.4972 17.5168Z" fill="#AE7461"/>
<path d="M48.3301 44.282C44.795 44.2066 41.3559 43.1174 38.4219 41.144C38.4219 41.144 40.6548 46.6698 48.2646 46.1398L48.3301 44.282Z" fill="#6F4439"/>
<path d="M52.7143 25.0671C52.7112 25.3494 52.5981 25.6194 52.3991 25.8195C52.2 26.0197 51.9307 26.1343 51.6485 26.1389C51.5099 26.1478 51.3711 26.1287 51.2401 26.0828C51.1091 26.037 50.9886 25.9653 50.8859 25.872C50.7831 25.7787 50.7002 25.6657 50.6419 25.5397C50.5837 25.4137 50.5514 25.2773 50.5469 25.1386C50.5484 24.8553 50.6608 24.5838 50.86 24.3824C51.0592 24.1809 51.3294 24.0655 51.6127 24.0608C51.7515 24.0528 51.8905 24.0726 52.0216 24.1192C52.1526 24.1657 52.273 24.238 52.3756 24.3318C52.4783 24.4255 52.5611 24.5389 52.6193 24.6652C52.6775 24.7915 52.7098 24.9282 52.7143 25.0671Z" fill="#263238"/>
<path d="M53.7824 21.2027C53.6455 21.3456 52.8356 20.7144 51.6626 20.6965C50.4896 20.6787 49.6262 21.2443 49.5012 21.0955C49.3761 20.9466 49.5845 20.7799 49.9656 20.5C50.4783 20.1603 51.0836 19.9876 51.6983 20.0058C52.3087 20.0219 52.8985 20.2303 53.3835 20.6013C53.7348 20.8811 53.8539 21.1431 53.7824 21.2027Z" fill="#263238"/>
<path d="M42.2437 24.8706C42.2406 25.1539 42.1267 25.4247 41.9263 25.6251C41.726 25.8254 41.4552 25.9393 41.1719 25.9424C41.0334 25.9513 40.8945 25.9322 40.7635 25.8863C40.6325 25.8405 40.5121 25.7688 40.4093 25.6755C40.3066 25.5822 40.2236 25.4692 40.1654 25.3432C40.1071 25.2172 40.0748 25.0808 40.0703 24.9421C40.0734 24.6582 40.1871 24.3868 40.3873 24.1855C40.5874 23.9842 40.8583 23.869 41.1421 23.8643C41.2807 23.8571 41.4194 23.8775 41.5501 23.9244C41.6807 23.9712 41.8008 24.0435 41.9033 24.1372C42.0058 24.2308 42.0887 24.3438 42.1471 24.4697C42.2055 24.5957 42.2384 24.7319 42.2437 24.8706Z" fill="#263238"/>
<path d="M42.2785 21.1848C42.1415 21.3277 41.3317 20.7025 40.1647 20.6787C38.9976 20.6549 38.1223 21.2265 37.9972 21.0776C37.8722 20.9288 38.0806 20.762 38.4617 20.4822C38.9737 20.1403 39.579 19.9656 40.1944 19.982C40.8053 19.9957 41.3957 20.2043 41.8796 20.5775C42.2309 20.8633 42.35 21.1253 42.2785 21.1848Z" fill="#263238"/>
<path d="M46.353 29.9498C46.9727 29.7684 47.613 29.6663 48.2584 29.6461C48.5561 29.6461 48.8538 29.5687 48.8955 29.3662C48.9266 29.0567 48.8622 28.745 48.7109 28.4731C48.4489 27.7466 48.1691 26.9845 47.8773 26.1806C46.7162 22.9176 45.8826 20.2262 46.0135 20.1904C46.1445 20.1547 47.2044 22.7568 48.3536 26.0198C48.6335 26.8237 48.9015 27.5918 49.1515 28.3242C49.3391 28.6919 49.3857 29.1155 49.2825 29.5151C49.2377 29.6202 49.1692 29.7135 49.0825 29.7878C48.9957 29.8622 48.893 29.9155 48.7824 29.9438C48.6168 29.9848 48.4468 30.0048 48.2762 30.0034C47.6355 30.0675 46.9892 30.0495 46.353 29.9498Z" fill="#263238"/>
<path d="M42.6795 16.6117C42.5604 16.9273 41.3934 16.7487 40.0179 16.8856C38.6424 17.0226 37.523 17.3739 37.3503 17.0881C37.2669 16.9511 37.4694 16.6534 37.9457 16.3557C38.5509 15.9915 39.2309 15.7696 39.9344 15.7066C40.6379 15.6437 41.3465 15.7415 42.0067 15.9925C42.483 16.2068 42.7331 16.4569 42.6795 16.6117Z" fill="#263238"/>
<path d="M53.4264 17.8085C53.2121 18.0705 52.4142 17.8085 51.4436 17.749C50.473 17.6895 49.6573 17.886 49.4667 17.6061C49.3893 17.4691 49.5203 17.2071 49.8835 16.963C50.3693 16.6657 50.9346 16.5244 51.5031 16.5581C52.0764 16.5877 52.6261 16.7959 53.0751 17.1536C53.4086 17.4096 53.5158 17.6835 53.4264 17.8085Z" fill="#263238"/>
<path d="M54.8367 14.0096C54.8367 14.0096 52.9253 9.19843 50.6685 8.05517C47.9116 6.64992 46.6552 9.68074 44.0174 8.88284C41.3796 8.08495 38.7477 6.73924 35.9968 8.73398C32.9838 10.9193 34.3414 12.521 34.0913 15.8793C33.0672 29.5746 30.5187 33.3795 29.9232 26.9189C29.8637 26.2103 27.9106 25.6029 27.6844 22.6138C27.3866 18.7375 27.333 14.0334 28.2798 11.3003C29.0539 9.00193 30.4055 7.42995 32.8111 5.71507C36.6041 3.00579 41.7428 3.05343 45.2202 3.4762C48.6976 3.89896 55.2773 8.04326 54.8367 14.0096Z" fill="#263238"/>
<path d="M30.3782 26.7165C30.3746 26.4374 30.3145 26.1618 30.2015 25.9066C30.0885 25.6513 29.925 25.4216 29.7208 25.2312C29.5165 25.0409 29.2758 24.8939 29.0132 24.7992C28.7506 24.7045 28.4716 24.664 28.1929 24.6801C26.7698 24.7873 25.174 25.5613 25.2156 28.4969C25.2752 33.707 30.4913 32.5697 30.5032 32.4209C30.5151 32.272 30.4258 28.8958 30.3782 26.7165Z" fill="#AE7461"/>
<path d="M29.3276 30.4737C29.3276 30.4737 29.2382 30.5392 29.0894 30.6106C28.8714 30.6975 28.6285 30.6975 28.4106 30.6106C27.8568 30.4141 27.3864 29.5448 27.3507 28.6099C27.3277 28.1627 27.4092 27.7162 27.5888 27.3059C27.6363 27.1434 27.7222 26.9946 27.8394 26.8723C27.9565 26.75 28.1014 26.6577 28.2617 26.6033C28.3648 26.5753 28.4744 26.5837 28.572 26.6271C28.6696 26.6705 28.7493 26.7462 28.7976 26.8415C28.8691 26.9903 28.8393 27.0915 28.8691 27.1035C28.8988 27.1154 28.9762 27.0141 28.9346 26.7998C28.9036 26.6704 28.8303 26.5551 28.7262 26.4723C28.5797 26.3672 28.3985 26.3225 28.22 26.3472C28.0069 26.3929 27.8091 26.4923 27.6454 26.6362C27.4818 26.7801 27.3577 26.9635 27.2852 27.169C27.0671 27.6211 26.9648 28.1204 26.9875 28.6218C27.0291 29.6698 27.5829 30.6464 28.3332 30.8548C28.4734 30.8936 28.6207 30.9004 28.764 30.8746C28.9072 30.8489 29.0429 30.7912 29.1608 30.7059C29.3216 30.5868 29.3514 30.4856 29.3276 30.4737Z" fill="#6F4439"/>
<path d="M30.6811 16.6416C31.3105 17.1705 32.0614 17.5347 32.8664 17.7014C33.2699 17.7712 33.6851 17.6927 34.0353 17.4804C34.3855 17.2681 34.6471 16.9363 34.7718 16.5463C34.8433 16.1831 34.7718 15.7662 35.0041 15.4864C35.2363 15.2065 35.8198 15.278 36.2545 15.3316C37.014 15.4075 37.7764 15.2191 38.4131 14.7982C39.0499 14.3773 39.522 13.7497 39.7498 13.0212C40.1249 13.6167 41.024 13.6167 41.6195 13.2356C42.1674 12.8077 42.6542 12.3068 43.0664 11.747C43.2735 11.4713 43.544 11.2494 43.8549 11.1002C44.1658 10.9509 44.508 10.8787 44.8527 10.8895C45.2164 11.0227 45.5939 11.1146 45.9781 11.1635C46.6629 11.1158 47.0142 10.3239 47.1333 9.64507C47.2524 8.96626 47.3476 8.18027 47.9312 7.82301C48.5147 7.46574 49.1697 7.70392 49.7949 7.82301C50.4201 7.9421 51.2359 7.823 51.4086 7.18588C51.4413 7.02186 51.4392 6.85279 51.4022 6.68967C51.3653 6.52654 51.2944 6.37303 51.1942 6.23912C50.7859 5.60054 50.1736 5.11884 49.4569 4.87236C48.7402 4.62587 47.9611 4.6291 47.2464 4.88151C47.0066 4.01514 46.5167 3.23869 45.8381 2.64918C45.1594 2.05967 44.322 1.68325 43.4306 1.56698C42.5392 1.45071 41.6333 1.59975 40.8262 1.99545C40.019 2.39116 39.3464 3.01598 38.8923 3.79184C38.3505 3.27861 37.6928 2.90387 36.9751 2.69949C36.2573 2.49512 35.5008 2.46717 34.77 2.61802C34.0391 2.76887 33.3555 3.09405 32.7773 3.5659C32.1992 4.03775 31.7435 4.6423 31.4493 5.32809C30.8149 5.14601 30.141 5.15485 29.5117 5.35352C28.8824 5.55219 28.3255 5.93188 27.9107 6.44515C27.4959 6.95842 27.2415 7.58253 27.1793 8.23953C27.1171 8.89652 27.2499 9.55729 27.561 10.1393C27.0767 10.3735 26.6592 10.726 26.347 11.1641C26.0348 11.6022 25.838 12.1119 25.7747 12.6461C25.733 13.7239 26.7631 14.8195 27.8051 14.5575C27.5723 14.9781 27.5116 15.4727 27.6359 15.9371C27.7601 16.4016 28.0595 16.7998 28.4712 17.0481C28.883 17.2963 29.3749 17.3753 29.8436 17.2684C30.3124 17.1615 30.7214 16.8771 30.9848 16.4748" fill="#263238"/>
<path d="M47.6202 6.40588C47.6202 6.40588 47.6202 6.44161 47.6202 6.50116C47.6202 6.5607 47.6202 6.66193 47.5785 6.78102C47.501 7.13214 47.3662 7.46809 47.1796 7.77541C46.8819 8.26061 46.4739 8.66865 45.9887 8.9663C45.3568 9.3878 44.6026 9.58683 43.8451 9.53197L43.9344 9.41884C44.0086 9.6548 44.0352 9.90315 44.0127 10.1495C43.9902 10.3958 43.9191 10.6352 43.8034 10.8539C43.5609 11.3171 43.252 11.7424 42.8864 12.1162C42.7097 12.3353 42.51 12.5349 42.291 12.7116C42.0436 12.8762 41.7591 12.9765 41.4633 13.0034C41.1545 13.0409 40.8413 13.0024 40.5507 12.8914C40.2602 12.7804 40.0011 12.6001 39.796 12.3663L39.9925 12.3187C39.9097 12.8572 39.7149 13.3723 39.4205 13.8308C39.1261 14.2893 38.7388 14.6809 38.2836 14.9803C37.7821 15.3377 37.1785 15.5236 36.5628 15.5102C35.9848 15.467 35.4178 15.3302 34.8836 15.1053L35.0265 15.0458C34.7461 15.6701 34.3117 16.2131 33.7642 16.6237C33.5132 16.8321 33.2187 16.9814 32.9023 17.0608C32.5859 17.1401 32.2558 17.1475 31.9362 17.0822C31.3927 16.9523 30.8989 16.6668 30.515 16.2608C30.1312 15.8547 29.8739 15.3456 29.7747 14.7957L29.8938 14.8493C29.3427 15.13 28.7111 15.21 28.1075 15.0756C27.6538 14.9764 27.2297 14.7725 26.8689 14.4801C26.6338 14.3005 26.4322 14.0808 26.2735 13.8311C26.2185 13.7464 26.1764 13.6541 26.1484 13.5572C26.3399 13.886 26.5925 14.175 26.8927 14.4087C27.2445 14.672 27.6519 14.8513 28.0836 14.9327C28.6579 15.0501 29.2552 14.966 29.7747 14.6945L29.8759 14.6409V14.7481C29.9752 15.2625 30.2216 15.7371 30.5851 16.1144C30.9487 16.4917 31.4138 16.7555 31.9243 16.8738C32.2142 16.9295 32.5129 16.9194 32.7984 16.8441C33.0839 16.7689 33.3488 16.6305 33.5736 16.4391C34.089 16.0456 34.4983 15.5299 34.7645 14.9386L34.8062 14.8433L34.9074 14.8791C35.4159 15.097 35.9573 15.2279 36.5092 15.2661C37.0779 15.279 37.6356 15.1078 38.099 14.7778C38.5278 14.4935 38.893 14.1234 39.1718 13.6909C39.4505 13.2585 39.6367 12.773 39.7186 12.2651L39.7544 12.015L39.9092 12.2115C40.0912 12.4162 40.32 12.574 40.576 12.6714C40.8321 12.7688 41.1078 12.8031 41.3799 12.7712C41.643 12.7506 41.8968 12.6647 42.1183 12.5211C42.3236 12.3587 42.5112 12.1751 42.678 11.9733C43.0309 11.6209 43.3317 11.2199 43.5712 10.7824C43.6792 10.5861 43.7475 10.3704 43.772 10.1476C43.7965 9.92486 43.7768 9.69946 43.7141 9.48433L43.6724 9.3593H43.8034C44.5248 9.41633 45.2453 9.2388 45.8577 8.85316C46.3354 8.5662 46.7424 8.17548 47.0486 7.70991C47.3173 7.31386 47.511 6.87187 47.6202 6.40588Z" fill="#455A64"/>
<path d="M47.7174 32.8554L45.2166 31.998C44.8932 31.8481 44.5324 31.7983 44.1805 31.8551C43.8844 31.9814 43.6428 32.2088 43.4988 32.4967C43.3548 32.7847 43.3179 33.1144 43.3945 33.4271C43.5015 33.9894 43.8017 34.4966 44.2432 34.8608C44.6847 35.2251 45.2396 35.4236 45.812 35.4218C46.9493 35.3861 47.3899 34.0166 47.7174 32.8554Z" fill="#6F4439"/>
<path d="M46.5977 35.4457C46.3856 35.5647 46.1507 35.6373 45.9085 35.6589C45.6663 35.6804 45.4223 35.6504 45.1925 35.5708C44.6678 35.4389 44.2037 35.1323 43.8766 34.7014C43.6832 34.4333 43.5451 34.1294 43.4705 33.8073C43.3959 33.4853 43.3861 33.1516 43.4419 32.8258C43.4991 32.4817 43.6313 32.1545 43.8289 31.8671C43.8863 31.7856 43.9617 31.7183 44.0492 31.6706C44.149 31.6216 44.2627 31.6089 44.3708 31.6349C44.5435 31.6766 44.6625 31.7242 44.8055 31.7659L46.2464 32.2482C46.6994 32.3708 47.1369 32.5446 47.5505 32.7662C47.0838 32.7177 46.6243 32.6158 46.1809 32.4626L44.7161 32.0457L44.3112 31.9267C44.21 31.9267 44.1624 31.9267 44.0731 32.0517C43.912 32.3013 43.8027 32.5808 43.7515 32.8734C43.6561 33.4513 43.7861 34.0439 44.1147 34.5288C44.3957 34.9191 44.7943 35.2091 45.252 35.3564C45.6909 35.4714 46.1476 35.5017 46.5977 35.4457Z" fill="#263238"/>
<path d="M64.1976 102.272C64.2238 101.76 64.1116 101.249 63.8728 100.794C63.6339 100.34 63.2772 99.9577 62.84 99.6882C61.955 99.1634 60.9389 98.9011 59.9104 98.932C57.1984 98.9088 54.5864 99.9549 52.64 101.844L52.1875 103.035C52.1875 103.035 54.9623 105.113 55.2838 105.142C55.6054 105.172 60.887 104.362 60.887 104.362L64.1976 102.272Z" fill="#263238"/>
<path d="M56.0647 109.721C56.0839 109.806 56.0958 109.891 56.1004 109.978C56.1004 110.156 56.1421 110.4 56.1719 110.716C56.2314 111.383 56.3148 112.341 56.422 113.568C56.6244 116.057 56.9162 119.636 57.2794 124.054C57.6426 128.472 58.0416 133.754 58.506 139.607C58.7323 142.536 58.9705 145.609 59.2146 148.795C59.3969 150.429 59.3145 152.081 58.9705 153.689C58.7671 154.52 58.403 155.303 57.8987 155.994C57.644 156.358 57.3148 156.664 56.933 156.892C56.5511 157.12 56.1253 157.264 55.6836 157.315C55.2197 157.335 54.7646 157.184 54.4034 156.893C54.062 156.609 53.7875 156.253 53.5996 155.851C53.4144 155.47 53.2688 155.071 53.1649 154.66C53.0577 154.255 52.9208 153.862 52.8493 153.469C52.5053 151.867 52.3475 150.23 52.3789 148.592C52.4922 145.511 52.8908 142.447 53.5698 139.44C54.1652 136.558 54.719 133.831 55.0703 131.247C55.4216 128.663 55.6658 126.245 55.7789 124.03C55.9712 120.531 55.9513 117.023 55.7194 113.526C55.642 112.288 55.5586 111.329 55.499 110.674C55.499 110.365 55.4455 110.114 55.4335 109.936C55.4269 109.851 55.4269 109.765 55.4335 109.68C55.4538 109.762 55.4677 109.846 55.4752 109.93C55.4752 110.114 55.5288 110.359 55.5705 110.668C55.6539 111.317 55.7551 112.276 55.8563 113.514C56.1352 117.017 56.1869 120.533 56.0111 124.042C55.9039 126.263 55.6955 128.692 55.3383 131.283C54.981 133.873 54.4451 136.642 53.8616 139.494C53.1883 142.484 52.7897 145.529 52.6707 148.592C52.6394 150.206 52.7953 151.819 53.1351 153.397C53.2066 153.802 53.3435 154.189 53.4448 154.588C53.5451 154.984 53.6847 155.369 53.8616 155.738C54.0287 156.101 54.2748 156.422 54.5821 156.678C54.8849 156.922 55.2653 157.049 55.6539 157.036C56.0486 156.987 56.4287 156.856 56.7693 156.651C57.1099 156.446 57.4035 156.171 57.6307 155.845C58.107 155.188 58.4527 154.446 58.649 153.659C58.9862 152.085 59.0667 150.466 58.8871 148.866C58.6489 145.68 58.4167 142.602 58.1964 139.678C57.7617 133.825 57.3687 128.549 57.0055 124.113L56.285 113.574C56.2017 112.347 56.1362 111.389 56.0945 110.722L56.0528 109.978C56.0515 109.892 56.0555 109.807 56.0647 109.721Z" fill="#263238"/>
<path d="M43.9531 100.451C43.9531 100.451 48.3535 96.9552 49.3121 96.7528C50.2708 96.5503 51.4796 97.2946 53.3076 97.0922C54.4507 96.9708 55.6023 96.9488 56.7492 97.0267C56.7492 97.0267 57.303 98.7833 55.9454 99.4621C54.8417 99.9394 53.6809 100.272 52.4918 100.451L51.2354 101.588L55.7429 103.523H59.9408L64.8175 102.13C64.8175 102.13 66.1692 102.439 65.4904 103.523C64.8116 104.607 61.1615 106.774 61.1615 106.774C61.1615 106.774 61.2925 107.447 60.0063 108.531C60.0063 108.531 54.7962 113.294 53.4564 113.473C52.7398 113.603 52.0057 113.603 51.289 113.473L43.9769 109.412L43.9531 100.451Z" fill="#AE7461"/>
<path d="M43.9541 100.45C43.9541 100.45 43.9541 100.504 43.9541 100.611V101.076C43.9541 101.498 43.9541 102.088 43.9541 102.862C43.9541 104.422 43.9541 106.649 44.0077 109.412L43.9541 109.323L51.3316 113.354H51.2959C51.7539 113.433 52.2199 113.455 52.6833 113.419C52.9215 113.419 53.1656 113.378 53.4038 113.342C53.628 113.281 53.8439 113.193 54.0469 113.08C54.9146 112.542 55.7442 111.945 56.5299 111.293C57.3516 110.631 58.1753 109.936 59.001 109.209C59.4118 108.852 59.8346 108.471 60.2336 108.102C60.4303 107.915 60.6042 107.705 60.7516 107.477C60.8963 107.278 60.9811 107.043 60.9957 106.798V106.685L61.0731 106.631C62.0139 106.036 62.9547 105.44 63.8658 104.791C64.3276 104.465 64.7581 104.096 65.1519 103.69C65.3337 103.507 65.458 103.275 65.5092 103.023C65.5224 102.903 65.4987 102.781 65.4412 102.675C65.3838 102.569 65.2954 102.482 65.1877 102.427C65.0592 102.351 64.921 102.293 64.7768 102.255H64.8542L59.9775 103.648H55.6903H55.6605L51.159 101.713L50.9506 101.623L51.1173 101.469C51.546 101.088 51.9628 100.706 52.3737 100.331H52.4094H52.4511C53.5365 100.169 54.5995 99.8809 55.6189 99.4739C55.8639 99.3779 56.0898 99.2387 56.2857 99.063C56.4524 98.8962 56.577 98.6921 56.649 98.4676C56.7829 98.0087 56.7829 97.5212 56.649 97.0623L56.7621 97.1457C55.7492 97.0709 54.7322 97.0709 53.7194 97.1457C52.8012 97.2692 51.8679 97.2187 50.9684 96.9968C49.2238 96.2644 48.0388 97.622 47.0444 98.1877C46.05 98.8844 45.2938 99.456 44.7758 99.8371L44.1803 100.272C44.117 100.325 44.0492 100.373 43.9779 100.415C44.0316 100.351 44.0937 100.295 44.1625 100.248C44.2994 100.129 44.49 99.974 44.7579 99.7835C45.2581 99.3786 46.0024 98.7951 46.9849 98.0746C47.4791 97.7233 48.0269 97.3243 48.664 96.9432C48.8287 96.8426 49.0021 96.7569 49.1821 96.6872C49.3714 96.6131 49.5745 96.5806 49.7775 96.5919C50.1971 96.6229 50.6133 96.6886 51.022 96.7884C51.9036 96.9973 52.8168 97.0377 53.7134 96.9075C54.7369 96.8124 55.7662 96.7985 56.7919 96.8658H56.8752V96.9432C57.0212 97.453 57.0212 97.9935 56.8752 98.5033C56.7959 98.7729 56.6506 99.0185 56.4525 99.2178C56.244 99.4053 56.0042 99.5544 55.7439 99.6585C54.7054 100.082 53.6199 100.38 52.5106 100.546L52.5821 100.51L51.3316 101.653L51.29 101.415L55.7975 103.344H55.7379H59.9061L64.7768 101.951H64.8185H64.8542C65.0358 101.996 65.2088 102.07 65.3663 102.171C65.5136 102.258 65.6382 102.378 65.7295 102.523C65.8209 102.679 65.8586 102.861 65.8367 103.041C65.7786 103.359 65.6249 103.652 65.3961 103.88C64.9895 104.301 64.545 104.684 64.0682 105.023C63.1393 105.702 62.1926 106.31 61.2458 106.881L61.3173 106.72C61.3251 107.045 61.2245 107.364 61.0314 107.626C60.8708 107.874 60.6809 108.102 60.4658 108.304C60.043 108.691 59.6381 109.055 59.2153 109.418C58.3897 110.144 57.562 110.839 56.7323 111.502C55.9328 112.16 55.0849 112.757 54.1957 113.288C53.9663 113.419 53.7198 113.517 53.4633 113.58C53.2132 113.616 52.9691 113.645 52.719 113.657C52.2272 113.692 51.733 113.664 51.2483 113.574L43.9481 109.483H43.8945V109.424C43.8945 106.625 43.9362 104.386 43.9481 102.82C43.9481 102.07 43.9481 101.481 43.9481 101.034V100.581C43.944 100.538 43.946 100.494 43.9541 100.45Z" fill="#6F4439"/>
<path d="M53.3902 100.254C53.3902 100.313 52.4077 100.45 51.2823 100.939C50.8174 101.166 50.3731 101.433 49.9545 101.737C49.621 101.969 49.4067 102.106 49.359 102.07C49.3114 102.034 49.496 101.844 49.7997 101.564C50.1938 101.19 50.6463 100.882 51.1394 100.653C52.3303 100.165 53.4021 100.159 53.3902 100.254Z" fill="#6F4439"/>
<path d="M60.886 107.227C60.3961 107.346 59.8952 107.413 59.3914 107.429C58.4685 107.518 57.1942 107.62 55.783 107.709C54.573 107.848 53.3521 107.864 52.1389 107.756C51.6175 107.717 51.1314 107.478 50.7812 107.09C51.2144 107.318 51.6838 107.469 52.1686 107.536C53.3614 107.574 54.5553 107.526 55.7413 107.393C57.1525 107.304 58.4327 107.238 59.3616 107.209C59.8688 107.157 60.3801 107.163 60.886 107.227Z" fill="#6F4439"/>
<path d="M58.7128 109.001C57.6491 109.582 56.5375 110.07 55.3903 110.46C54.601 110.837 53.74 111.04 52.8656 111.055C52.1748 111.008 51.8235 110.71 51.8533 110.68C52.1857 110.77 52.5274 110.82 52.8715 110.829C53.7 110.741 54.5063 110.507 55.2533 110.138C56.3723 109.662 57.5297 109.282 58.7128 109.001Z" fill="#6F4439"/>
</svg>
