<svg width="155" height="189" viewBox="0 0 155 189" fill="none" xmlns="http://www.w3.org/2000/svg">
<path d="M139.073 47.2077C147.762 38.5188 147.762 24.4313 139.073 15.7424C130.384 7.05344 116.297 7.05343 107.608 15.7424C98.9188 24.4313 98.9188 38.5188 107.608 47.2077C116.297 55.8966 130.384 55.8966 139.073 47.2077Z" fill="#FFD550"/>
<path d="M60.1958 181.127C93.441 181.127 120.392 155.48 120.392 123.843C120.392 92.205 93.441 66.5577 60.1958 66.5577C26.9506 66.5577 0 92.205 0 123.843C0 155.48 26.9506 181.127 60.1958 181.127Z" fill="#FF4653"/>
<path d="M38.9691 147.662C36.9469 145.135 35.2475 142.279 34.1172 139.24C33.01 136.26 32.4025 132.962 33.0869 129.812C33.8162 126.45 36.0736 123.582 39.0252 121.851C41.5121 120.393 44.6416 120.7 47.3109 121.412C50.7161 122.321 53.9016 123.996 56.8016 125.965C59.5994 127.862 62.2533 130.114 64.3414 132.787C65.6596 134.47 66.769 136.335 67.9071 138.139C69.2069 140.198 70.4643 142.283 71.6792 144.394C74.1295 148.641 76.422 152.976 78.5566 157.4C80.7052 161.826 82.7191 166.317 84.5982 170.87C86.4736 175.402 88.2352 179.979 89.8829 184.601C90.2827 185.717 90.6767 186.834 91.0649 187.953C91.1967 187.78 91.3288 187.607 91.4614 187.434C91.3779 187.434 91.5877 187.481 91.4856 187.434C91.4526 187.418 91.4098 187.412 91.3757 187.4C91.3417 187.388 91.2802 187.365 91.2329 187.347C91.1857 187.329 91.1066 187.292 91.2483 187.354L91.1385 187.307C90.8089 187.157 90.486 186.993 90.1652 186.824C89.0777 186.251 88.0144 185.63 86.9566 185.003C83.492 182.95 80.0956 180.777 76.7354 178.557C72.3152 175.637 67.9664 172.614 63.689 169.486C59.1853 166.191 54.7716 162.768 50.5327 159.138C46.7979 155.94 43.1477 152.582 39.949 148.837C39.6187 148.45 39.2932 148.057 38.9724 147.658C38.6429 147.246 38.064 147.831 38.3913 148.239C41.4132 152.004 44.9514 155.349 48.5741 158.525C52.779 162.213 57.1806 165.674 61.6678 169.01C66.0184 172.245 70.4518 175.364 74.968 178.368C78.4896 180.719 82.0509 183.016 85.6791 185.197C86.8435 185.898 88.0144 186.589 89.2063 187.24C89.8335 187.584 90.4948 187.995 91.1835 188.203C91.2723 188.232 91.3647 188.248 91.4581 188.252C91.5211 188.252 91.5832 188.237 91.6395 188.208C91.6959 188.18 91.745 188.139 91.7832 188.089C91.8213 188.039 91.8475 187.981 91.8597 187.919C91.8719 187.857 91.8698 187.793 91.8536 187.733C90.2125 183.007 88.4666 178.32 86.6161 173.672C84.7465 168.999 82.7473 164.38 80.6185 159.815C78.4904 155.275 76.2103 150.812 73.7783 146.427C71.3463 142.042 68.7309 137.766 65.932 133.598C64.0339 130.775 61.5162 128.422 58.8063 126.388C55.8778 124.191 52.6318 122.323 49.1629 121.122C46.319 120.133 43.0115 119.493 40.0753 120.48C38.4792 121.017 37.0677 122.096 35.8693 123.256C34.6042 124.472 33.6035 125.935 32.9298 127.555C31.6698 130.614 31.7896 134.045 32.6123 137.199C33.4658 140.472 35.0377 143.561 36.9633 146.33C37.4166 146.984 37.8926 147.62 38.3913 148.241C38.7187 148.656 39.2965 148.071 38.9691 147.662Z" fill="black"/>
<path d="M91.8532 187.954C92.6221 184.048 93.525 180.17 94.5049 176.311C95.5301 172.26 96.6425 168.233 97.842 164.228C98.9822 160.393 100.195 156.58 101.479 152.79C102.687 149.237 103.964 145.7 105.458 142.255C106.696 139.399 108.094 136.61 109.733 133.967C111.289 131.472 113.058 129.117 115.021 126.928C117.29 124.387 119.744 121.909 122.544 119.958C124.887 118.328 127.641 116.875 130.543 116.684C132.698 116.542 134.816 117.261 136.084 119.085C136.811 120.131 137.218 121.357 137.442 122.6C137.661 123.817 137.771 125.205 137.589 126.395C137.239 128.62 136.207 130.741 135.162 132.712C133.718 135.435 132.026 138.026 130.233 140.532C128.255 143.295 126.137 145.957 123.889 148.506C121.81 150.866 119.625 153.144 117.262 155.221C115.634 156.667 114.087 158.201 112.628 159.817C110.834 161.788 109.113 163.828 107.428 165.893C105.622 168.107 103.853 170.349 102.119 172.621C100.491 174.745 98.8833 176.883 97.2972 179.036C96.0295 180.756 94.7729 182.484 93.5272 184.22C92.8074 185.221 92.093 186.227 91.3841 187.235L91.1029 187.637C90.7998 188.076 91.5116 188.483 91.8114 188.051C92.2018 187.492 92.5946 186.936 92.9901 186.381C94.0197 184.931 95.0578 183.487 96.1042 182.049C97.5813 180.018 99.0748 177.998 100.585 175.99C102.29 173.72 104.023 171.472 105.782 169.246C107.527 167.043 109.304 164.863 111.142 162.734C112.723 160.904 114.343 159.099 116.085 157.414C116.89 156.632 117.745 155.908 118.574 155.152C119.727 154.101 120.836 153.005 121.914 151.879C124.274 149.405 126.504 146.809 128.595 144.103C130.635 141.495 132.528 138.774 134.263 135.953C135.652 133.668 136.967 131.28 137.835 128.743C138.163 127.832 138.377 126.884 138.471 125.921C138.566 124.47 138.432 123.012 138.073 121.603C137.494 119.274 136.11 117.188 133.808 116.301C131.463 115.398 128.777 115.924 126.521 116.836C123.254 118.154 120.407 120.351 117.889 122.778C115.647 124.923 113.572 127.237 111.683 129.699C109.872 132.096 108.269 134.645 106.893 137.316C105.326 140.34 104.008 143.489 102.802 146.672C101.391 150.398 100.125 154.179 98.9141 157.975C97.6457 161.954 96.455 165.956 95.3419 169.981C94.2248 174.016 93.1856 178.073 92.2563 182.156C91.8345 184.011 91.438 185.872 91.0667 187.739C90.959 188.252 91.751 188.473 91.8532 187.954Z" fill="black"/>
<path d="M91.8524 187.736C90.9671 184.023 90.7221 180.156 90.5574 176.357C90.3783 172.199 90.3794 168.035 90.4475 163.875C90.5233 159.326 90.6771 154.78 90.8056 150.233C90.9616 144.694 91.055 139.147 91.4317 133.618C92.1765 122.688 94.4064 111.89 96.4429 101.144C98.4026 90.8095 100.582 80.4928 103.748 70.4484C106.69 61.1115 110.725 52.2425 115.048 43.48C115.499 42.5639 115.955 41.6485 116.416 40.7339C116.654 40.2637 115.945 39.8463 115.707 40.3198C111.444 48.7669 107.337 57.3558 104.248 66.3105C100.785 76.3461 98.4257 86.7211 96.3825 97.1268C95.3456 102.416 94.3756 107.718 93.4167 113.023C92.4434 118.405 91.5339 123.815 90.9781 129.263C90.4047 134.878 90.2564 140.523 90.0993 146.161C89.9576 151.193 89.7983 156.224 89.6797 161.256C89.583 165.356 89.5413 169.457 89.6423 173.559C89.7401 177.547 89.9345 181.563 90.576 185.508C90.7089 186.329 90.8671 187.145 91.0605 187.954C91.1824 188.468 91.9755 188.251 91.8524 187.735V187.736Z" fill="black"/>
<path d="M88.309 27.1163C90.6179 34.0256 92.5952 41.0349 94.2407 48.1442C95.9045 55.3076 97.2409 62.537 98.2501 69.8323C98.8059 73.868 99.2515 77.9162 99.5869 81.9769C99.6308 82.4997 100.452 82.5052 100.409 81.9769C99.8059 74.6801 98.8539 67.423 97.5525 60.2053C96.2534 52.943 94.6273 45.7514 92.6743 38.6304C91.589 34.6891 90.399 30.7782 89.1043 26.8977C88.9384 26.399 88.1442 26.6132 88.3123 27.1174L88.309 27.1163Z" fill="black"/>
<path d="M70.5953 70.4022C74.1565 79.0372 76.8334 88.016 78.9666 97.1025C81.1636 106.439 82.7805 115.903 84.0723 125.402C85.1752 133.507 86.0697 141.642 86.7559 149.805C87.2809 156.094 87.7544 162.387 88.353 168.671C88.6727 172.024 89.0198 175.371 89.4515 178.717C89.7887 181.354 90.1479 183.996 90.7279 186.59C90.8301 187.049 90.9476 187.505 91.0684 187.958C91.2101 188.466 92.0032 188.25 91.8604 187.738C91.22 185.443 90.8718 183.059 90.5423 180.708C90.0842 177.469 89.7305 174.217 89.4042 170.963C88.7518 164.456 88.2454 157.935 87.7148 151.417C87.0938 143.791 86.2952 136.181 85.3191 128.587C84.1108 119.115 82.5949 109.674 80.5495 100.345C78.5394 91.1741 76.0184 82.092 72.6406 73.323C72.229 72.2692 71.8094 71.2224 71.3818 70.1825C71.1829 69.7003 70.3931 69.9112 70.5898 70.4022H70.5953Z" fill="black"/>
<path d="M91.8546 187.736C90.8506 181.331 91.1142 174.748 91.8546 168.329C92.6631 161.364 94.113 154.471 95.9716 147.713C97.6835 141.484 99.7899 135.369 102.278 129.407C105.349 122.046 108.75 114.833 112.48 107.768C116.211 100.702 120.247 93.8186 124.589 87.1165C125.127 86.2883 125.67 85.4633 126.218 84.6417C126.511 84.2023 125.8 83.7882 125.508 84.2264C121.054 90.9175 116.913 97.8035 113.088 104.884C109.262 111.965 105.757 119.208 102.571 126.614C99.9448 132.732 97.638 138.952 95.7827 145.35C93.8241 152.106 92.2797 158.998 91.3306 165.97C90.4398 172.509 90.0125 179.195 90.7627 185.771C90.8462 186.498 90.9447 187.223 91.0582 187.946C91.1395 188.466 91.937 188.245 91.8502 187.726L91.8546 187.736Z" fill="black"/>
<path d="M124.808 76.5899C123.877 77.5896 123.24 78.8352 123.299 80.2281C123.344 81.3364 123.778 82.3843 124.341 83.3257C124.972 84.377 125.879 85.1195 127.07 85.4545C128.173 85.7645 129.347 85.7102 130.417 85.2997C132.174 84.6109 133.67 83.0687 134.138 81.2211C134.748 78.8044 133.346 76.4757 131.444 75.0697C129.342 73.5132 126.397 74.9401 124.808 76.5921C124.441 76.9744 125.021 77.5555 125.389 77.1732C126.554 75.9649 128.564 74.7863 130.284 75.3729C130.847 75.564 131.298 75.9803 131.712 76.39C132.149 76.811 132.527 77.2887 132.838 77.8103C133.313 78.5995 133.526 79.519 133.446 80.4368C133.286 82.0493 132.137 83.463 130.756 84.2363C129.108 85.1624 126.759 85.0514 125.474 83.5399C124.814 82.731 124.367 81.77 124.173 80.7443C123.926 79.3943 124.475 78.152 125.381 77.1732C125.749 76.7844 125.169 76.2022 124.808 76.5899Z" fill="black"/>
<path d="M130.132 74.9401C131.918 70.6825 133.786 66.4604 135.734 62.2738C135.953 61.797 135.247 61.3796 135.024 61.8585C133.047 66.1103 131.15 70.3991 129.333 74.7248C129.246 74.9314 129.426 75.1752 129.62 75.2301C129.856 75.2982 130.039 75.1467 130.125 74.9434L130.132 74.9401Z" fill="black"/>
<path d="M132.843 76.982C135.634 74.2038 138.244 71.2491 140.656 68.1361C140.793 67.9592 140.825 67.7286 140.656 67.555C140.515 67.4122 140.216 67.3804 140.074 67.555C137.663 70.668 135.053 73.6228 132.262 76.4009C131.886 76.7744 132.468 77.3555 132.843 76.982Z" fill="black"/>
<path d="M134.078 80.1115C137.676 78.298 141.282 76.5009 144.879 74.6884C145.352 74.4501 144.935 73.7404 144.464 73.9788C140.867 75.7924 137.26 77.5884 133.663 79.4019C133.191 79.6392 133.607 80.3488 134.078 80.1115Z" fill="black"/>
<path d="M126.698 75.8946C126.311 72.9035 126.173 69.886 125.787 66.8949C125.72 66.3787 124.897 66.3721 124.965 66.8949C125.352 69.886 125.489 72.9035 125.877 75.8946C125.943 76.412 126.765 76.4186 126.698 75.8946Z" fill="black"/>
<path d="M116.263 34.1529C115.333 35.1515 114.695 36.3971 114.754 37.79C114.799 38.8983 115.233 39.9473 115.796 40.8876C116.427 41.9389 117.334 42.6814 118.525 43.0164C119.628 43.3265 120.802 43.2722 121.872 42.8616C123.629 42.1728 125.125 40.6317 125.593 38.783C126.203 36.3664 124.801 34.0376 122.9 32.6316C120.799 31.0773 117.852 32.5053 116.263 34.1529C115.896 34.5341 116.476 35.1152 116.844 34.7329C118.01 33.5246 120.019 32.3471 121.739 32.9326C122.302 33.1237 122.753 33.54 123.167 33.9497C123.604 34.3707 123.983 34.8484 124.293 35.37C124.768 36.1592 124.981 37.0787 124.901 37.9965C124.741 39.609 123.593 41.0227 122.211 41.7961C120.563 42.7221 118.214 42.6111 116.929 41.0996C116.272 40.29 115.827 39.329 115.636 38.304C115.389 36.954 115.938 35.7117 116.844 34.7329C117.204 34.3474 116.624 33.7641 116.263 34.1529Z" fill="black"/>
<path d="M121.585 32.5053C123.112 28.8584 124.332 25.0929 126.003 21.5042C126.223 21.0275 125.517 20.6101 125.294 21.089C123.598 24.7436 122.348 28.575 120.79 32.2867C120.703 32.4933 120.882 32.7371 121.077 32.7931C121.313 32.8601 121.496 32.7097 121.582 32.5053H121.585Z" fill="black"/>
<path d="M124.297 34.544C127.089 31.7648 129.699 28.8089 132.111 25.6948C132.248 25.519 132.28 25.2872 132.111 25.1137C131.97 24.9709 131.671 24.939 131.53 25.1137C129.118 28.2267 126.508 31.1814 123.717 33.9596C123.342 34.3331 123.923 34.9142 124.298 34.5407L124.297 34.544Z" fill="black"/>
<path d="M125.531 37.6736C129.129 35.8601 132.735 34.0641 136.333 32.2505C136.805 32.0121 136.389 31.3036 135.917 31.5409C132.32 33.3545 128.714 35.1505 125.116 36.964C124.644 37.2024 125.06 37.9109 125.531 37.6736Z" fill="black"/>
<path d="M118.155 33.4598C117.755 30.3841 117.549 27.2776 117.238 24.1898C117.164 23.4517 117.087 22.7146 116.992 21.9797C116.925 21.4624 116.102 21.4558 116.17 21.9797C116.569 25.0554 116.776 28.1619 117.087 31.2508C117.161 31.9878 117.238 32.7249 117.333 33.4598C117.4 33.9772 118.222 33.9837 118.155 33.4598Z" fill="black"/>
<path d="M81.8988 22.5609C82.0087 23.901 82.4766 25.1972 83.5191 26.0969C84.3286 26.7933 85.3381 27.1953 86.3751 27.415C87.0155 27.5545 87.6394 27.627 88.293 27.5249C89.044 27.3935 89.7514 27.0805 90.3537 26.6131C91.3061 25.8929 91.9929 24.8773 92.3068 23.7253C92.7901 21.9469 92.5001 19.9037 91.3434 18.4395C90.7075 17.6515 89.8477 17.0747 88.8774 16.7852C87.6201 16.407 86.2836 16.3774 85.0108 16.6995C82.6183 17.3586 81.7517 20.3475 81.901 22.5609C81.9373 23.086 82.7589 23.0904 82.7227 22.5609C82.6128 20.9495 83.0522 18.7525 84.5033 17.8177C84.9932 17.5025 85.5402 17.4047 86.1125 17.3553C86.6886 17.2994 87.2693 17.3112 87.8426 17.3904C88.7412 17.5266 89.6155 17.876 90.2867 18.501C91.4434 19.5775 91.8608 21.2471 91.662 22.785C91.3863 24.916 89.5419 27.0251 87.233 26.7449C86.2564 26.6274 85.2371 26.3143 84.4187 25.7563C83.3411 25.0259 82.8259 23.8285 82.7227 22.5598C82.6799 22.038 81.8571 22.0336 81.8988 22.5609Z" fill="black"/>
<path d="M84.2698 17.5431C82.3233 13.355 80.4559 9.1303 78.6676 4.869C78.5808 4.66248 78.3963 4.52078 78.1623 4.5823C77.9679 4.63283 77.7899 4.88327 77.8756 5.08759C79.6859 9.4126 81.5796 13.7028 83.5569 17.9583C83.7765 18.4372 84.4872 18.0209 84.2665 17.5431H84.2698Z" fill="black"/>
<path d="M87.5983 16.9203C87.5049 14.8332 87.3017 12.7582 87.0919 10.6854C86.8469 8.26879 86.5723 5.85217 86.2483 3.43555C86.1076 2.38762 85.9605 1.33968 85.7781 0.297239C85.6869 -0.223432 84.8993 -0.00264141 84.985 0.516932C85.3387 2.53371 85.5848 4.57026 85.8242 6.60352C86.1066 9.00036 86.3581 11.4027 86.5624 13.8072C86.6492 14.8431 86.7305 15.88 86.7821 16.9192C86.8052 17.4453 87.6268 17.4486 87.6038 16.9192L87.5983 16.9203Z" fill="black"/>
<path d="M90.7388 18.1155C91.6879 14.7102 92.6534 11.305 93.6025 7.88877C93.7442 7.37908 92.9522 7.16159 92.8105 7.66908C91.8614 11.0743 90.8959 14.4861 89.9468 17.8958C89.804 18.4066 90.5971 18.6241 90.7388 18.1155Z" fill="black"/>
<path d="M82.5926 20.6648C79.775 18.6975 77.1267 16.4973 74.308 14.5288C73.8741 14.2257 73.4622 14.9375 73.8939 15.2384C76.7114 17.2058 79.3609 19.406 82.1785 21.3745C82.6179 21.6776 83.0243 20.9658 82.5926 20.6648Z" fill="black"/>
<path d="M63.7525 66.5509C63.9722 67.8614 64.572 69.0576 65.6529 69.8595C66.524 70.5054 67.5928 70.7987 68.6539 70.9371C69.2833 71.0184 69.9028 71.0404 70.5213 70.8833C71.2459 70.6881 71.9145 70.3254 72.4732 69.8244C73.3704 69.0355 73.9765 67.9683 74.1945 66.7937C74.5307 64.9637 74.0847 62.9315 72.7896 61.5573C72.073 60.8128 71.143 60.3089 70.128 60.115C69.5281 59.9978 68.9153 59.9609 68.3057 60.0052C67.6114 60.0546 66.8711 60.1502 66.2241 60.4171C63.9448 61.3585 63.4142 64.3617 63.7503 66.5487C63.8316 67.0694 64.6225 66.8486 64.5434 66.329C64.3073 64.7978 64.5841 62.535 65.955 61.4958C66.4053 61.1564 66.9315 61.0257 67.4763 60.9268C68.0596 60.8189 68.6538 60.7821 69.2459 60.817C70.1621 60.8752 71.0793 61.1685 71.7988 61.7507C73.0488 62.7623 73.5706 64.4276 73.4717 65.994C73.3366 68.1261 71.6296 70.2945 69.3382 70.1792C68.3639 70.1297 67.3368 69.9155 66.4822 69.4223C65.3332 68.7556 64.7532 67.6066 64.539 66.3269C64.4578 65.8117 63.6669 66.0325 63.7525 66.5509Z" fill="black"/>
<path d="M65.6978 61.3048C63.9325 58.2292 62.0124 55.249 60.3658 52.1052C60.1198 51.6362 59.4112 52.0514 59.6562 52.5193C61.3039 55.6642 63.224 58.6433 64.9881 61.7201C65.2518 62.1781 65.9614 61.7651 65.6978 61.3048Z" fill="black"/>
<path d="M68.9408 60.4062C68.4285 56.4648 67.6631 52.5605 66.6495 48.7174C66.5143 48.2066 65.7213 48.423 65.8575 48.9371C66.856 52.7078 67.6115 56.5387 68.1192 60.4062C68.1489 60.6259 68.2873 60.8137 68.53 60.817C68.7299 60.817 68.9694 60.6259 68.9408 60.4062Z" fill="black"/>
<path d="M72.1636 61.3313C72.8029 57.937 73.4587 54.545 74.0991 51.1507C74.1958 50.6334 73.4049 50.4126 73.306 50.931C72.6667 54.3253 72.0109 57.7173 71.3716 61.1116C71.2739 61.629 72.0659 61.8498 72.1636 61.3313Z" fill="black"/>
<path d="M64.2995 64.5452C61.6895 63.0348 59.2092 61.3102 56.5993 59.7998C56.1401 59.534 55.7205 60.2392 56.1841 60.5094C58.7951 62.0198 61.2743 63.7444 63.8854 65.2537C64.3434 65.5195 64.7576 64.8143 64.2995 64.5452Z" fill="black"/>
</svg>
