<svg width="72" height="287" viewBox="0 0 72 287" fill="none" xmlns="http://www.w3.org/2000/svg">
<path d="M19.2904 62.2601C17.9575 61.1871 16.5446 60.1274 14.9017 59.6375C14.072 59.3876 12.9623 59.4076 12.5691 60.1874C12.4204 60.5586 12.4074 60.9705 12.5324 61.3504C12.8956 62.7366 13.9786 63.7996 15.0317 64.7727C17.3465 66.9209 19.7269 68.9992 22.1729 71.0075C23.7605 72.3659 25.4567 73.5919 27.2447 74.6731C28.4493 75.3696 29.7181 75.9488 31.0336 76.4025C31.0069 75.5261 30.9869 74.6464 30.9769 73.77C27.5199 69.5122 23.6003 65.6519 19.2904 62.2601Z" fill="#96B276"/>
<path d="M46.697 87.8026C48.9097 85.5732 50.9824 83.0307 51.7522 79.9849C51.9621 79.1518 52.0421 78.1888 51.5122 77.5156C50.9824 76.8425 49.9427 76.6959 49.113 76.9758C48.2832 77.2557 47.6134 77.8555 46.9803 78.4587C42.9814 82.2542 39.5358 86.5729 36.3168 91.0316C35.4986 92.0977 34.7781 93.2353 34.1641 94.4306C34.2907 95.267 34.424 96.0968 34.5639 96.9365C39.0269 94.4918 43.1134 91.4154 46.697 87.8026Z" fill="#96B276"/>
<path d="M37.9357 24.4281C37.6275 24.3182 37.2908 24.3182 36.9826 24.4281C33.2171 40.5933 30.7578 57.1484 30.9844 73.7634C30.9844 74.6398 31.0144 75.5196 31.0411 76.396C31.081 77.7 31.1366 79.003 31.2077 80.3048C31.9275 92.8544 34.51 105.067 37.1392 117.324C39.5519 128.564 41.388 139.86 40.4149 151.39C38.9654 168.532 35.1332 185.364 32.8105 202.375C31.4473 211.955 30.7614 221.62 30.7578 231.297C30.8211 243.293 32.2174 255.22 34.5134 266.993C34.5967 267.429 35.2431 267.239 35.1798 266.809C31.9874 247.205 31.121 227.464 33.4637 207.72C35.4631 190.749 39.2086 174.034 41.218 157.069C41.9711 150.677 42.3577 144.336 41.8845 137.911C41.4309 132.466 40.6419 127.054 39.5219 121.706C37.8557 113.432 35.9629 105.221 34.5733 96.9165C34.4334 96.0801 34.3001 95.2504 34.1735 94.4106C33.7503 91.6514 33.3904 88.8823 33.1271 86.0798C31.181 65.5025 33.7602 44.8787 38.4589 24.8346C38.3263 24.6524 38.145 24.5115 37.9357 24.4281Z" fill="#B58D72"/>
<path d="M70.4431 28.1969C69.2968 26.6741 67.4806 25.8376 65.7245 25.0912C58.1771 21.8885 50.3742 19.3248 42.3981 17.4268L59.8562 16.1638C61.9689 16.0139 64.1383 15.8306 66.0377 14.9109C66.0677 13.6879 64.5215 13.1547 63.3086 13.0214C56.1135 12.24 48.8357 12.8131 41.8516 14.7109C42.2415 12.4949 42.6314 10.2356 42.3414 8.00294C42.1482 6.53338 41.595 3.35432 39.9055 2.81115C38.4259 2.33462 38.7225 6.5467 38.7225 7.32981C38.7313 9.6617 38.914 11.9897 39.269 14.2944C35.8834 12.0451 35.3902 7.29648 32.9609 4.02079C31.9428 2.68105 30.6085 1.61455 29.0773 0.916718C27.5462 0.218883 25.8659 -0.0885273 24.1868 0.0219792C23.9136 1.73147 25.1865 3.25435 26.3895 4.51065L35.7001 14.2744C29.0637 11.1784 22.2415 8.49734 15.2728 6.24679C14.0498 5.85358 10.5176 4.82055 9.91774 6.71999C9.63783 7.60639 10.4209 8.18955 11.0774 8.57943C17.83 12.5747 25.1769 15.4669 32.8409 17.1469L33.3341 17.3402C23.4597 14.5601 13.0986 13.962 2.9698 15.5874C1.71351 15.7873 0.183967 16.2971 0.0140179 17.5601C-0.159264 18.8764 1.30697 19.7761 2.58659 20.1327C7.07859 21.3823 11.8405 20.5292 16.4858 20.1327C23.0244 19.5728 29.6093 19.9362 36.0466 21.2123L27.9024 23.6516C22.7806 25.1845 17.6188 26.7374 12.9069 29.2866C10.2043 30.7495 7.46514 32.8489 6.90864 35.8747C9.20795 37.5408 12.417 36.3479 14.9762 35.0982L36.2632 24.7246C36.493 24.6095 36.7314 24.5126 36.9764 24.4347C37.2846 24.3249 37.6212 24.3249 37.9294 24.4347C38.1412 24.5236 38.3229 24.6717 38.4526 24.8613C38.6974 25.2546 38.8606 25.6932 38.9325 26.1509C40.0294 31.3975 41.471 36.566 43.2478 41.6229C44.1342 44.1555 45.2472 46.8247 47.4799 48.2876C48.8129 46.6681 48.6729 44.3221 48.3696 42.2461C47.2947 34.9157 45.0656 27.8019 41.765 21.169C49.2873 26.4614 57.877 30.043 66.9308 31.6626C68.5237 31.9458 70.713 31.7959 71.0562 30.213C71.2162 29.5032 70.883 28.7834 70.4431 28.1969ZM41.755 19.1396C41.755 19.4729 41.6716 19.8761 41.3751 20.0427C41.2317 20.1108 41.0738 20.1429 40.9152 20.136C38.8358 20.1727 37.0397 18.7697 35.4402 17.4335C35.1069 17.1669 34.7737 16.687 35.0736 16.3904L35.1269 16.5004C35.3102 15.8773 35.9667 15.5407 36.5598 15.2741C37.2147 14.9497 37.9145 14.7251 38.6359 14.6076C38.9979 14.55 39.3681 14.5698 39.7219 14.6657C40.0758 14.7616 40.4052 14.9315 40.6886 15.1641C41.1123 15.6062 41.3983 16.1619 41.5117 16.7637C41.7044 17.5402 41.7863 18.3401 41.755 19.1396Z" fill="#FFD550"/>
<path d="M40.6996 15.1508C40.4162 14.9182 40.0867 14.7483 39.7329 14.6524C39.3791 14.5565 39.0089 14.5367 38.6468 14.5943C37.9255 14.7118 37.2257 14.9364 36.5708 15.2608C35.9776 15.5274 35.3212 15.864 35.1379 16.4871L35.0846 16.3771C34.7913 16.6737 35.1312 17.1536 35.4511 17.4202C37.0507 18.7531 38.8468 20.1593 40.9262 20.1227C41.0848 20.1296 41.2427 20.0975 41.386 20.0294C41.6826 19.8628 41.7526 19.4662 41.7659 19.1263C41.7985 18.3224 41.7166 17.5179 41.5227 16.737C41.4069 16.14 41.121 15.5892 40.6996 15.1508Z" fill="#CD5B1C"/>
<g opacity="0.7">
<path d="M61.7822 262.317C61.0491 256.349 59.5828 250.431 58.3565 244.503C55.5952 231.1 53.5926 217.553 52.3583 203.925C52.225 202.475 50.7188 201.625 48.5761 201.462C38.5002 200.698 28.3854 200.587 18.2951 201.129C16.259 201.239 14.5129 202.185 14.5129 203.595C14.5079 203.661 14.5079 203.728 14.5129 203.795C14.2983 204.088 14.1639 204.433 14.123 204.794C11.8701 229.099 11.9973 253.566 14.5029 277.846C14.6495 279.262 14.7595 280.739 16.3157 281.845C17.8719 282.951 19.9813 283.241 22.194 283.264C26.7126 283.308 31.2346 283.264 35.7533 283.264H49.9557C51.9384 283.264 54.0545 283.371 55.9772 282.995C58.3099 282.535 59.9327 281.298 60.6792 279.815C61.2923 278.593 61.419 277.226 61.6456 275.957C61.9208 274.39 62.0955 272.807 62.1687 271.218C62.2953 268.246 62.166 265.268 61.7822 262.317ZM53.5446 278.313C54.461 278.366 53.7679 278.069 53.5446 278.313Z" fill="#30325E"/>
</g>
<path d="M62.6727 249.498C61.613 235.659 59.387 221.929 57.8108 208.143C56.2346 194.358 54.9517 180.525 53.9453 166.679C53.6965 163.247 53.4632 159.814 53.2455 156.382C53.1344 154.605 53.0233 152.828 52.9123 151.05C52.839 149.757 52.9123 148.348 52.4757 147.105C52.203 146.33 51.7411 145.635 51.1318 145.084C50.5225 144.533 49.7852 144.143 48.9868 143.949C46.0843 143.193 42.7953 143.189 39.8128 142.983C32.8962 142.506 25.9547 142.513 19.039 143.003C16.743 143.163 14.3737 143.139 12.7975 145.069C11.5412 146.612 11.4046 149.141 11.2813 151.044C9.49851 178.859 9.28191 206.854 9.94838 234.709C10.2727 248.589 10.8692 262.461 11.7378 276.323C11.8978 278.859 12.0711 281.525 13.7372 283.581C15.0702 285.247 17.0096 286.05 19.069 286.294C24.3208 286.91 29.8591 286.38 35.1409 286.37C40.536 286.37 45.9277 286.334 51.3227 286.37C53.872 286.37 56.4512 286.194 58.5039 284.524C60.3334 283.035 61.3331 280.859 61.8363 278.579C63.1692 272.391 63.2225 265.666 63.1326 259.365C63.0893 256.073 62.916 252.787 62.6794 249.505C62.6127 248.585 61.1665 248.575 61.2365 249.505C61.7254 255.601 61.8211 261.723 61.523 267.832C61.3844 270.97 61.0852 274.099 60.6266 277.206C60.1901 279.939 59.1338 282.781 56.5312 284.131C53.772 285.56 49.9098 284.911 46.8141 284.917H37.7968C34.7777 284.917 31.7575 284.93 28.7361 284.954C25.737 284.974 22.6513 285.147 19.6555 284.901C16.2598 284.621 13.9905 282.541 13.444 279.176C12.9375 276.127 12.9741 272.914 12.8009 269.845C12.6209 266.666 12.4554 263.486 12.3043 260.305C12.0022 253.94 11.7578 247.575 11.5712 241.21C10.8137 215.605 10.9847 190.004 12.0844 164.41C12.2177 161.226 12.3677 158.045 12.5343 154.866C12.6109 153.353 12.6009 151.794 12.7809 150.287C12.9208 149.124 13.1441 147.192 13.7639 146.232C15.3301 143.806 19.9254 144.369 22.4513 144.249C25.5971 144.098 28.7461 144.048 31.8985 144.099C35.0509 144.15 38.1966 144.299 41.3357 144.546C42.8442 144.666 44.3515 144.808 45.8577 144.972C47.3039 145.132 48.9501 145.122 50.1198 146.105C51.2894 147.088 51.3361 148.501 51.4161 149.914C51.5094 151.567 51.6071 153.22 51.7093 154.873C51.9026 158.052 52.1114 161.23 52.3358 164.406C53.2244 177.112 54.3574 189.798 55.7348 202.465C57.0977 215.038 58.9438 227.551 60.3401 240.121C60.6733 243.25 60.9899 246.382 61.2298 249.518C61.2998 250.418 62.7427 250.428 62.6727 249.498Z" fill="#A597C9"/>
</svg>
