<svg width="64" height="64" viewBox="0 0 64 64" fill="none" xmlns="http://www.w3.org/2000/svg">
<g clip-path="url(#clip0_273_583)">
<path d="M26.3147 30.1401C26.3147 30.1401 31.5647 29.7501 31.5647 23.5951C31.5647 17.4401 27.2697 14.4351 21.8297 14.4351H3.92969V48.8351H21.8297C21.8297 48.8351 32.7547 49.1801 32.7547 38.6801C32.7547 38.6801 33.2347 30.1401 26.3147 30.1401ZM11.8147 20.5501H21.8147C21.8147 20.5501 24.2497 20.5501 24.2497 24.1301C24.2497 27.7101 22.8197 28.2301 21.1947 28.2301H11.8197L11.8147 20.5501ZM21.3647 42.7201H11.8197V33.5301H21.8197C21.8197 33.5301 25.4447 33.4801 25.4447 38.2551C25.4547 42.2301 22.8047 42.6801 21.3697 42.7201H21.3647ZM47.3297 23.1901C34.0997 23.1901 34.1147 36.4051 34.1147 36.4051C34.1147 36.4051 33.2047 49.5551 47.3297 49.5551C47.3297 49.5551 59.0997 50.2251 59.0997 40.4101H53.0497C53.0497 40.4101 53.2497 44.1101 47.5497 44.1101C47.5497 44.1101 41.4947 44.5151 41.4947 38.1101H59.3197C59.3197 38.1101 61.2547 23.1901 47.3297 23.1901ZM52.7097 33.5301H41.4097C41.4097 33.5301 42.1497 28.2301 47.4647 28.2301C52.7797 28.2301 52.7097 33.5301 52.7097 33.5301ZM39.9297 16.4651H54.1197V20.7001H39.9297V16.4651Z" fill="white"/>
<path d="M56.4502 0H7.54981C3.38016 0 0 3.38044 0 7.55042V56.4496C0 60.6196 3.38016 64 7.54981 64H56.4502C60.6198 64 64 60.6196 64 56.4496V7.55042C64 3.38044 60.6198 0 56.4502 0Z" fill="#60A066"/>
<path d="M27.9522 35.4464C30.8953 38.4298 34.4551 40.7337 38.3823 42.197L43.696 37.9691C43.8536 37.8606 44.0404 37.8025 44.2316 37.8025C44.4229 37.8025 44.6097 37.8606 44.7672 37.9691L54.6336 44.325C55.0081 44.5502 55.3252 44.8594 55.5597 45.2281C55.7943 45.5968 55.9398 46.0151 55.9849 46.4497C56.0301 46.8844 55.9735 47.3236 55.8197 47.7326C55.6658 48.1417 55.419 48.5093 55.0987 48.8066L50.4756 53.3727C49.8135 54.0268 48.9998 54.5069 48.107 54.77C47.2143 55.0331 46.2703 55.0711 45.3592 54.8807C36.2715 53.0032 27.8951 48.608 21.1867 42.197C14.6284 35.7211 10.0897 27.482 8.12091 18.4784C7.9265 17.5816 7.96708 16.6498 8.23871 15.7732C8.51035 14.8967 9.00383 14.1052 9.67133 13.4754L14.4635 8.85289C14.7601 8.54818 15.1217 8.3145 15.5214 8.16935C15.9211 8.0242 16.3484 7.97133 16.7714 8.01471C17.1944 8.05809 17.6021 8.19659 17.964 8.41984C18.3259 8.6431 18.6326 8.94531 18.8611 9.30387L25.4293 19.0421C25.5425 19.1951 25.6037 19.3803 25.6037 19.5706C25.6037 19.7609 25.5425 19.9462 25.4293 20.0991L21.1022 25.2994C22.6041 29.1482 24.944 32.6143 27.9522 35.4464Z" fill="white"/>
</g>
<defs>
<clipPath id="clip0_273_583">
<rect width="64" height="64" fill="white"/>
</clipPath>
</defs>
</svg>
