<svg width="64" height="64" viewBox="0 0 64 64" fill="none" xmlns="http://www.w3.org/2000/svg">
<g clip-path="url(#clip0_273_591)">
<path d="M56.4502 0H7.54981C3.38016 0 0 3.38044 0 7.55042V56.4496C0 60.6196 3.38016 64 7.54981 64H56.4502C60.6198 64 64 60.6196 64 56.4496V7.55042C64 3.38044 60.6198 0 56.4502 0Z" fill="#EEEEEE"/>
<path d="M10.409 50.7602H18.3635V31.4419L7 22.9194V47.3512C7 49.2374 8.5285 50.7602 10.409 50.7602Z" fill="#4285F4"/>
<path d="M45.6367 50.7599H53.5915C55.4777 50.7599 57.0005 49.2314 57.0005 47.3509V22.9189L45.6367 31.4417" fill="#34A853"/>
<path d="M45.6367 16.6689V31.4417L57.0005 22.9192V18.3732C57.0005 14.1574 52.188 11.7539 48.8187 14.2824" fill="#FBBC04"/>
<path d="M18.3633 31.4415V16.669L31.9995 26.8957L45.6358 16.6685V31.4412L31.9995 41.6687" fill="#EA4335"/>
<path d="M7 18.3737V22.9192L18.3635 31.4419V16.6694L15.1818 14.2829C11.8068 11.7544 7 14.1579 7 18.3737Z" fill="#C5221F"/>
</g>
<defs>
<clipPath id="clip0_273_591">
<rect width="64" height="64" fill="white"/>
</clipPath>
</defs>
</svg>
