<svg width="64" height="64" viewBox="0 0 64 64" fill="none" xmlns="http://www.w3.org/2000/svg">
<g clip-path="url(#clip0_273_581)">
<path d="M0 32.0005C0 45.104 7.8795 56.361 19.1548 61.3102C19.0648 59.0757 19.1388 56.3933 19.7118 53.962C20.327 51.3643 23.8293 36.525 23.8293 36.525C23.8293 36.525 22.807 34.4818 22.807 31.462C22.807 26.7197 25.5555 23.178 28.9785 23.178C31.8893 23.178 33.2955 25.3643 33.2955 27.9823C33.2955 30.9083 31.4292 35.285 30.4695 39.3387C29.6677 42.7332 32.1715 45.502 35.5202 45.502C41.5832 45.502 45.6668 37.7148 45.6668 28.4883C45.6668 21.4748 40.943 16.2253 32.3512 16.2253C22.6442 16.2253 16.597 23.4642 16.597 31.5502C16.597 34.3382 17.419 36.3043 18.7065 37.8268C19.2985 38.526 19.3808 38.8072 19.1665 39.6102C19.013 40.199 18.6605 41.6165 18.5145 42.1782C18.3015 42.9887 17.6448 43.2785 16.9123 42.9793C12.4413 41.154 10.359 36.2578 10.359 30.7537C10.359 21.6635 18.0255 10.7635 33.2295 10.7635C45.447 10.7635 53.4883 19.6045 53.4883 29.0947C53.4883 41.648 46.5092 51.0262 36.2217 51.0262C32.767 51.0262 29.5172 49.1587 28.404 47.0375C28.404 47.0375 26.5463 54.4105 26.1528 55.8343C25.4743 58.3015 24.1462 60.7675 22.932 62.6895C25.8764 63.5601 28.9308 64.002 32.0013 64.0017C49.6723 64.0017 64.0003 49.6745 64.0003 32.0005C64.0003 14.3272 49.6723 0 32.0013 0C14.3285 0 0 14.3272 0 32.0005Z" fill="#CB1F27"/>
</g>
<defs>
<clipPath id="clip0_273_581">
<rect width="64" height="64" fill="white"/>
</clipPath>
</defs>
</svg>
