<svg width="50" height="50" viewBox="0 0 50 50" fill="none" xmlns="http://www.w3.org/2000/svg">
<path d="M23.8564 44.0958L7.21354 28.1797C6.65877 27.625 5.39947 26.8483 5.06661 26.1216C4.90104 25.5991 4.85199 25.0467 4.92291 24.5033C4.99384 23.9598 5.18302 23.4385 5.47713 22.9761C5.83592 22.548 6.23743 22.1577 6.67542 21.8111C9.90414 18.6563 13.1365 15.5034 16.3727 12.3524L21.249 7.59252C22.0645 6.79921 22.9466 5.57873 23.923 4.97959C26.7689 3.23209 30.1862 8.41911 31.7229 9.97245L41.7586 20.2023C43.5893 22.0663 47.345 24.4628 44.782 27.3365C41.7197 30.7427 37.8752 33.7107 34.5078 36.8451L29.0101 41.9378C27.7897 43.0473 25.9312 45.6436 23.8564 44.1125C23.0021 43.4801 21.9258 44.7505 22.7913 45.3884C26.375 48.0346 29.404 43.824 31.845 41.5606L43.7945 30.4653C46.1467 28.2851 49.381 25.8497 46.413 22.5434C43.445 19.237 40.3106 16.3078 37.2317 13.2012C34.1528 10.0945 31.2736 6.76592 28.0559 3.85897C24.9437 1.05188 22.4473 4.08088 20.256 6.21671L8.43956 17.7447C6.3592 19.7751 1.3608 23.0648 3.33575 26.521C4.03475 27.7415 5.44385 28.74 6.43687 29.6998L12.8055 35.8022L22.7913 45.3662C23.5624 46.1152 24.6275 44.8337 23.8564 44.0958Z" fill="#BCBBC4"/>
<path d="M25.7577 33.0998L17.1256 24.4899C17.1589 24.8838 17.1978 25.2721 17.231 25.666L25.8409 17.0506L24.6704 17.156L33.2969 25.7492C33.2637 25.3609 33.2304 24.967 33.1915 24.5787L24.5816 33.1886C23.8216 33.9486 25.1031 35.0137 25.8576 34.2593L34.4675 25.6494C34.6067 25.4787 34.6741 25.2606 34.6554 25.0411C34.6368 24.8217 34.5336 24.618 34.3676 24.4733C31.494 21.607 28.624 18.737 25.7577 15.8634C25.587 15.7242 25.3689 15.6568 25.1495 15.6754C24.93 15.694 24.7264 15.7972 24.5816 15.9632L15.9717 24.5953C15.8379 24.764 15.7736 24.9776 15.7922 25.1921C15.8108 25.4067 15.9107 25.606 16.0716 25.7492L24.687 34.3591C25.4471 35.1358 26.5067 33.8543 25.7577 33.0998Z" fill="#BCBBC4"/>
<path d="M0.332391 10.3494L34.7942 44.8112L39.7538 49.7707C40.5138 50.5308 41.5734 49.2493 40.8245 48.4948L6.36265 14.0385L1.40308 9.10671C0.643057 8.34669 -0.422085 9.62819 0.332391 10.3771V10.3494Z" fill="#BCBBC4"/>
<path d="M9.177 1.50638L43.6388 35.9682L48.5984 40.9277C49.3584 41.6878 50.4235 40.4063 49.6691 39.6518L15.2073 5.22329L10.2477 0.230429C9.49322 -0.524047 8.42808 0.751907 9.177 1.50638Z" fill="#BCBBC4"/>
<path d="M14.1645 14.8649L35.5839 36.2898C36.3439 37.0498 37.409 35.7683 36.6545 35.0139L15.2296 13.5945C14.4752 12.8345 13.41 14.116 14.1645 14.8649Z" fill="#BCBBC4"/>
<path d="M39.6485 0.335809L5.19226 34.7921L0.23269 39.7572C-0.527333 40.5117 0.754163 41.5768 1.50309 40.8223L35.9871 6.36607L40.9467 1.4065C41.7067 0.646472 40.4252 -0.418667 39.6707 0.335809H39.6485Z" fill="#BCBBC4"/>
<path d="M48.4978 9.17858L14.036 43.6404L9.07638 48.6C8.31636 49.36 9.59786 50.4196 10.3523 49.6706L44.8086 15.2088L49.7682 10.2493C50.5282 9.48925 49.2467 8.42411 48.4978 9.17858Z" fill="#BCBBC4"/>
<path d="M35.138 14.1601L13.7131 35.585C12.9531 36.3451 14.2346 37.4102 14.9891 36.6557L36.4084 15.2086C37.1684 14.4542 35.8869 13.389 35.138 14.1379V14.1601Z" fill="#BCBBC4"/>
</svg>
