<svg width="49" height="55" viewBox="0 0 49 55" fill="none" xmlns="http://www.w3.org/2000/svg">
<path d="M12.1445 10.706C10.3109 12.4112 9.69971 15.6933 9.16797 18.0403C8.25152 22.2217 7.84112 26.4981 7.9456 30.7775C8.03116 34.4446 8.44677 38.5457 10.3415 41.7789C12.2361 45.0121 16.0316 46.6134 19.7293 46.9556C26.8252 47.6035 37.2704 44.7065 39.813 37.2133C41.2798 32.8861 41.2554 27.911 40.8337 23.4065C40.5036 19.8983 40.0025 15.241 37.6005 12.4051C35.0579 9.42863 29.8506 8.62187 26.2263 8.21237C21.6973 7.70508 16.1477 7.65006 12.3339 10.5288C11.3927 11.2377 12.4501 12.7413 13.3913 12.0262C16.5084 9.67311 21.025 9.61199 24.7533 9.91148C28.1698 10.1804 32.4787 10.7305 35.333 12.8146C37.7777 14.5993 38.3339 18.5353 38.7373 21.304C39.3717 25.3253 39.3985 29.4191 38.8168 33.4484C38.2056 37.1766 36.8243 39.8292 33.5544 41.8522C29.9668 44.0211 25.859 45.1784 21.6668 45.2015C17.9691 45.2015 13.7702 44.1564 11.8389 40.7154C10.2681 37.91 9.92584 34.4324 9.80361 31.2786C9.66606 27.3395 9.98395 23.3977 10.751 19.5316C11.2155 17.1602 11.6922 13.6214 13.5746 11.8856C14.412 11.0849 13.0001 9.91758 12.1445 10.706Z" fill="#A6838A"/>
<path d="M27.1672 16.286C17.6205 12.0871 10.5918 33.1181 21.0004 36.2046C25.5659 37.5554 28.903 32.4153 30.1682 28.797C31.6778 24.4392 31.6534 18.8163 27.1795 16.286C26.1527 15.6748 25.3765 17.3617 26.3971 17.9423C29.7159 19.8248 29.6242 24.1703 28.7013 27.4035C27.919 30.1416 25.6454 34.8478 22.1861 34.5666C17.5166 34.1877 17.2293 27.7274 18.2989 24.4331C19.2951 21.3772 22.4855 16.2187 26.3971 17.9423C27.4606 18.419 28.2491 16.7566 27.1672 16.286Z" fill="#A6838A"/>
<path d="M25.0938 0.969408V8.98821C25.0938 10.1678 26.9273 10.0028 26.9273 8.82929V0.804375C26.9273 -0.37522 25.0938 -0.204075 25.0938 0.969408Z" fill="#A6838A"/>
<path d="M13.0572 1.97172C13.8069 4.64466 14.5566 7.31556 15.3063 9.98442C15.6242 11.1212 17.3416 10.4795 17.0238 9.37323C16.2781 6.70437 15.5304 4.03144 14.7807 1.35444C14.4629 0.223736 12.7455 0.865485 13.0572 1.96563V1.97172Z" fill="#A6838A"/>
<path d="M35.2093 3.48731L33.0518 10.9255C32.7217 12.0562 34.5308 12.3801 34.8548 11.2555L37.0123 3.81736C37.3423 2.68666 35.5332 2.36273 35.2093 3.48731Z" fill="#A6838A"/>
<path d="M26.9234 53.977V45.9521C26.9234 44.7725 25.0898 44.9376 25.0898 46.111V54.1421C25.0898 55.3217 26.9234 55.1505 26.9234 53.977Z" fill="#A6838A"/>
<path d="M14.8221 53.4581C15.5678 50.7852 16.3155 48.1142 17.0652 45.4454C17.383 44.3086 15.5739 43.9846 15.2622 45.1153C14.5084 47.7883 13.7607 50.4592 13.0191 53.128C12.6952 54.2649 14.5043 54.5888 14.8527 53.4581H14.8221Z" fill="#A6838A"/>
<path d="M36.948 50.9833C36.2268 48.51 35.5076 46.0326 34.7905 43.5512C34.4665 42.4205 32.743 43.0623 33.073 44.1624C33.7942 46.6438 34.5134 49.1232 35.2305 51.6006C35.5606 52.7313 37.278 52.0895 36.948 50.9588V50.9833Z" fill="#A6838A"/>
<path d="M48.0597 26.1992H40.0042C38.8246 26.1992 38.9958 28.0328 40.1631 28.0328H48.1941C49.3737 28.0328 49.2087 26.1992 48.0352 26.1992H48.0597Z" fill="#A6838A"/>
<path d="M47.2633 16.188L39.2445 18.431C38.1138 18.7489 38.7555 20.4663 39.8862 20.1546L47.8989 17.9054C49.0358 17.5876 48.394 15.8702 47.2878 16.188H47.2633Z" fill="#A6838A"/>
<path d="M46.9751 37.6712L39.5431 35.5137C38.4063 35.1836 38.0885 36.9927 39.2069 37.3472L46.6451 39.5047C47.7758 39.8348 48.0997 38.0257 46.9751 37.7017V37.6712Z" fill="#A6838A"/>
<path d="M0.966029 29.3834H8.99705C10.1766 29.3834 10.0055 27.5498 8.83203 27.5498H0.807114C-0.372481 27.5498 -0.207454 29.3834 0.966029 29.3834Z" fill="#A6838A"/>
<path d="M1.73009 17.2763L9.74278 19.5255C10.8796 19.8433 11.2035 18.0342 10.0728 17.7225L2.06013 15.4733C0.923316 15.1555 0.59939 16.9646 1.73009 17.2763Z" fill="#A6838A"/>
<path d="M1.49785 39.4315L8.92991 37.274C10.0667 36.944 9.42497 35.2265 8.31872 35.5566L0.886662 37.7141C-0.244037 38.038 0.397711 39.7554 1.49785 39.4315Z" fill="#A6838A"/>
</svg>
