<svg width="456" height="175" viewBox="0 0 456 175" fill="none" xmlns="http://www.w3.org/2000/svg">
<path d="M4.75 91.25C4.75 88.8125 5.375 86.6562 6.625 84.7812C7.875 82.9062 9.46875 81.2812 11.4062 79.9062C13.3438 78.4688 15.5625 77.2812 18.0625 76.3438C20.5625 75.4062 23.0625 74.6562 25.5625 74.0938C28.0625 73.5312 30.4688 73.1562 32.7812 72.9688C35.1562 72.7188 37.1875 72.5938 38.875 72.5938C39.5625 72.5938 40.1875 72.8438 40.75 73.3438C41.3125 73.8438 41.5938 74.4688 41.5938 75.2188C41.5938 75.9062 41.5 76.5312 41.3125 77.0938C41.1875 77.5938 40.9062 78.2188 40.4688 78.9688C39.1562 78.7812 37.5 78.6875 35.5 78.6875C33.5 78.6875 31.4062 78.8125 29.2188 79.0625C27.0938 79.3125 24.9688 79.75 22.8438 80.375C20.7188 80.9375 18.7812 81.75 17.0312 82.8125C15.2812 83.8125 13.875 85.0312 12.8125 86.4688C11.75 87.9062 11.2188 89.6562 11.2188 91.7188C11.2188 93.5938 11.5312 95.2188 12.1562 96.5938C12.7812 97.9062 13.625 99.0625 14.6875 100.062C15.75 101 16.9688 101.781 18.3438 102.406C19.7188 102.969 21.1562 103.438 22.6562 103.812C24.2188 104.125 25.7812 104.344 27.3438 104.469C28.9062 104.594 30.4062 104.656 31.8438 104.656C33.4688 104.656 35.0625 104.625 36.625 104.562C38.25 104.5 39.8125 104.375 41.3125 104.188C42.8125 104 44.3438 103.75 45.9062 103.438C47.4688 103.062 49 102.5 50.5 101.75C51.1875 101.938 51.5312 102.281 51.5312 102.781C51.5938 103.219 51.625 103.688 51.625 104.188C51.625 105.375 51.2188 106.344 50.4062 107.094C49.6562 107.844 48.625 108.438 47.3125 108.875C46.0625 109.312 44.6562 109.625 43.0938 109.812C41.5312 110 40 110.094 38.5 110.094C37 110.156 35.5938 110.156 34.2812 110.094C33.0312 110.094 32.0625 110.094 31.375 110.094C29.5 110.094 27.5 109.969 25.375 109.719C23.3125 109.406 21.3125 108.969 19.375 108.406C17.4375 107.844 15.5625 107.094 13.75 106.156C12 105.156 10.4688 103.969 9.15625 102.594C7.84375 101.219 6.78125 99.5938 5.96875 97.7188C5.15625 95.8438 4.75 93.6875 4.75 91.25ZM81.1562 105.406C80.1562 105.406 79.0938 105.562 77.9688 105.875C76.9062 106.125 75.8438 106.438 74.7812 106.812C73.7188 107.188 72.5938 107.531 71.4062 107.844C70.2812 108.094 69.125 108.219 67.9375 108.219C66.125 108.219 64.375 107.938 62.6875 107.375C61 106.812 59.5 105.969 58.1875 104.844C56.9375 103.719 55.9375 102.375 55.1875 100.812C54.4375 99.1875 54.0625 97.375 54.0625 95.375C54.0625 93.625 54.5938 92 55.6562 90.5C56.7812 89 58.1562 87.75 59.7812 86.75C61.4062 85.75 63.1562 84.9688 65.0312 84.4062C66.9062 83.8438 68.5938 83.5625 70.0938 83.5625C70.7812 83.5625 71.625 83.625 72.625 83.75C73.6875 83.8125 74.8125 83.9688 76 84.2188C77.25 84.4062 78.5 84.6875 79.75 85.0625C81 85.375 82.125 85.8125 83.125 86.375C84.1875 86.9375 85.0625 87.5938 85.75 88.3438C86.5 89.0312 86.9375 89.8438 87.0625 90.7812C87.0625 91.0938 87 91.6562 86.875 92.4688C86.75 93.2188 86.6562 94.0312 86.5938 94.9062C86.5312 95.7812 86.4375 96.625 86.3125 97.4375C86.25 98.1875 86.1875 98.75 86.125 99.125V99.6875C86.125 101.062 86.4375 102.094 87.0625 102.781C87.6875 103.469 88.4375 103.969 89.3125 104.281C90.25 104.531 91.2188 104.656 92.2188 104.656H95.2188C96.1562 104.656 96.75 104.656 97 104.656C97.25 104.594 97.4062 104.562 97.4688 104.562C97.5938 104.562 97.75 104.562 97.9375 104.562C98.1875 104.5 98.8125 104.469 99.8125 104.469C100.625 104.469 101.25 104.625 101.688 104.938C102.125 105.25 102.344 105.906 102.344 106.906C102.344 107.969 102 108.719 101.312 109.156C100.625 109.594 99.8125 109.875 98.875 110C97.9375 110.188 97 110.25 96.0625 110.188C95.125 110.125 94.4062 110.094 93.9062 110.094C92.4688 110.094 91.0938 109.844 89.7812 109.344C88.5312 108.844 87.375 108.312 86.3125 107.75C85.25 107.125 84.2812 106.594 83.4062 106.156C82.5312 105.656 81.7812 105.406 81.1562 105.406ZM59.5938 96.3125C59.5938 97.8125 59.9062 99.0312 60.5312 99.9688C61.2188 100.844 62.0312 101.5 62.9688 101.938C63.9688 102.312 65.0625 102.562 66.25 102.688C67.4375 102.75 68.5938 102.781 69.7188 102.781C70.1562 102.781 70.875 102.75 71.875 102.688C72.9375 102.625 74.0312 102.5 75.1562 102.312C76.2812 102.062 77.2812 101.75 78.1562 101.375C79.0938 101 79.625 100.531 79.75 99.9688L81.625 92.6562C81.75 92.1562 81.625 91.7188 81.25 91.3438C80.875 90.9688 80.3438 90.6562 79.6562 90.4062C79.0312 90.1562 78.3125 89.9375 77.5 89.75C76.75 89.5625 76 89.4062 75.25 89.2812C74.5 89.1562 73.8125 89.0625 73.1875 89C72.625 88.9375 72.2812 88.9062 72.1562 88.9062C71.0312 88.9062 69.7188 89.0312 68.2188 89.2812C66.7812 89.4688 65.4062 89.8438 64.0938 90.4062C62.8438 90.9062 61.7812 91.625 60.9062 92.5625C60.0312 93.5 59.5938 94.75 59.5938 96.3125ZM110.969 104.281V102.312C110.969 101.5 111.031 100.719 111.156 99.9688C111.281 99.2188 111.531 98.5625 111.906 98C112.281 97.4375 112.812 97.1562 113.5 97.1562V97.25H113.781L115.656 104.469C115.656 104.719 115.781 104.906 116.031 105.031C116.281 105.156 116.531 105.281 116.781 105.406C117.094 105.469 117.375 105.5 117.625 105.5C117.938 105.5 118.188 105.5 118.375 105.5C118.5 105.5 118.656 105.5 118.844 105.5C119.094 105.438 119.25 105.406 119.312 105.406C119.688 105.344 120.406 105.188 121.469 104.938C122.531 104.625 123.625 104.344 124.75 104.094C125.938 103.844 127.031 103.594 128.031 103.344C129.094 103.031 129.844 102.844 130.281 102.781C130.594 102.281 131.062 101.844 131.688 101.469C132.312 101.031 132.938 100.625 133.562 100.25C134.188 99.875 134.719 99.4688 135.156 99.0312C135.594 98.5938 135.812 98.0312 135.812 97.3438C135.812 95.7812 135.406 94.5312 134.594 93.5938C133.844 92.6562 132.844 91.9688 131.594 91.5312C130.406 91.0312 129.125 90.6875 127.75 90.5C126.375 90.3125 125.062 90.125 123.812 89.9375C123.312 89.875 122.5 89.7812 121.375 89.6562C120.312 89.4688 119.094 89.2812 117.719 89.0938C116.344 88.9062 114.906 88.7188 113.406 88.5312C111.906 88.2812 110.438 88.0938 109 87.9688C107.625 87.7812 106.375 87.625 105.25 87.5C104.188 87.375 103.406 87.2812 102.906 87.2188C102.531 86.9688 102.125 86.5312 101.688 85.9062C101.25 85.2812 101.031 84.7812 101.031 84.4062C101.031 83.3438 101.594 82.375 102.719 81.5C103.906 80.5625 105.375 79.7188 107.125 78.9688C108.875 78.2188 110.844 77.5625 113.031 77C115.281 76.4375 117.469 75.9375 119.594 75.5C121.781 75.0625 123.781 74.75 125.594 74.5625C127.469 74.375 128.906 74.2812 129.906 74.2812C130.656 74.2812 131.344 74.5312 131.969 75.0312C132.656 75.5312 133 76.25 133 77.1875C133 77.9375 132.781 78.5 132.344 78.875C131.969 79.1875 131.469 79.4062 130.844 79.5312C130.281 79.5938 129.688 79.6562 129.062 79.7188C128.5 79.7188 127.969 79.75 127.469 79.8125C126.469 80 125.188 80.25 123.625 80.5625C122.125 80.875 120.625 81.1875 119.125 81.5C117.625 81.8125 116.375 82.0625 115.375 82.25L113.781 82.625V83.6562C114.969 83.6562 116.469 83.6875 118.281 83.75C120.094 83.8125 122.031 83.9688 124.094 84.2188C126.156 84.4688 128.188 84.875 130.188 85.4375C132.25 85.9375 134.094 86.6562 135.719 87.5938C137.344 88.4688 138.656 89.5938 139.656 90.9688C140.719 92.2812 141.25 93.9062 141.25 95.8438C141.25 98.4688 140.531 100.688 139.094 102.5C137.656 104.312 135.844 105.781 133.656 106.906C131.469 108.031 129.094 108.844 126.531 109.344C123.969 109.844 121.594 110.094 119.406 110.094C118.531 110.094 117.594 110.031 116.594 109.906C115.594 109.719 114.656 109.406 113.781 108.969C112.969 108.531 112.281 107.938 111.719 107.188C111.219 106.438 110.969 105.469 110.969 104.281ZM145.656 93.5C145.656 91.375 146.25 89.3125 147.438 87.3125C148.625 85.3125 150.125 83.5625 151.938 82.0625C153.812 80.5625 155.844 79.375 158.031 78.5C160.281 77.625 162.406 77.1875 164.406 77.1875C166.031 77.1875 167.625 77.4062 169.188 77.8438C170.812 78.2188 172.25 78.8438 173.5 79.7188C174.75 80.5938 175.75 81.6875 176.5 83C177.312 84.25 177.719 85.75 177.719 87.5C177.719 88.3125 177.656 88.9688 177.531 89.4688C177.469 89.9062 177.281 90.3125 176.969 90.6875C176.656 91 176.25 91.3125 175.75 91.625C175.312 91.875 174.75 92.2188 174.062 92.6562C173.688 92.7188 173.125 92.875 172.375 93.125C171.625 93.3125 170.75 93.5312 169.75 93.7812C168.812 94.0312 167.812 94.2812 166.75 94.5312C165.688 94.7812 164.656 95.0312 163.656 95.2812C162.719 95.5312 161.875 95.75 161.125 95.9375C160.375 96.125 159.812 96.25 159.438 96.3125C159.25 96.375 158.844 96.4375 158.219 96.5C157.594 96.5625 156.906 96.6562 156.156 96.7812C155.469 96.8438 154.812 96.9375 154.188 97.0625C153.562 97.125 153.188 97.1875 153.062 97.25C152.875 97.3125 152.656 97.4688 152.406 97.7188C152.219 97.9062 152.125 98.0312 152.125 98.0938C152.125 99.3438 152.469 100.406 153.156 101.281C153.844 102.094 154.719 102.781 155.781 103.344C156.844 103.906 158.031 104.344 159.344 104.656C160.719 104.906 162.062 105.125 163.375 105.312C164.688 105.438 165.906 105.5 167.031 105.5C168.156 105.5 169.062 105.5 169.75 105.5C172.875 105.5 175.938 105.344 178.938 105.031C181.938 104.656 185 104.469 188.125 104.469V105.219C188.125 105.594 188.062 106 187.938 106.438C187.875 106.812 187.75 107.188 187.562 107.562C187.375 107.875 187.125 108.062 186.812 108.125C184.438 108.625 182.312 109.031 180.438 109.344C178.625 109.594 176.906 109.781 175.281 109.906C173.656 109.969 171.969 110 170.219 110C168.469 110.062 166.531 110.094 164.406 110.094H162.812C162.125 110.094 161.375 110.062 160.562 110C159.75 110 158.969 110 158.219 110H156.625C154.688 109.5 153 108.719 151.562 107.656C150.188 106.531 149.062 105.219 148.188 103.719C147.312 102.219 146.656 100.594 146.219 98.8438C145.844 97.0938 145.656 95.3125 145.656 93.5ZM166.656 82.4375C165.844 82.4375 164.906 82.5312 163.844 82.7188C162.844 82.8438 161.781 83.0938 160.656 83.4688C159.594 83.7812 158.531 84.2188 157.469 84.7812C156.406 85.2812 155.469 85.9062 154.656 86.6562C153.844 87.3438 153.156 88.125 152.594 89C152.094 89.875 151.844 90.8438 151.844 91.9062H155.688C157.062 91.9062 158.469 91.8438 159.906 91.7188C161.344 91.5938 162.75 91.4062 164.125 91.1562C165.5 90.8438 166.688 90.4062 167.688 89.8438C168.75 89.2188 169.594 88.4375 170.219 87.5C170.906 86.5625 171.25 85.4062 171.25 84.0312V83.5625L170.312 82.625C170.188 82.625 169.938 82.625 169.562 82.625C169.25 82.5625 168.906 82.5312 168.531 82.5312C168.156 82.4688 167.781 82.4375 167.406 82.4375C167.094 82.4375 166.844 82.4375 166.656 82.4375ZM221.875 99.5C221.875 98.8125 221.906 98.25 221.969 97.8125C222.031 97.375 222.312 96.875 222.812 96.3125C224 97.0625 224.875 97.8125 225.438 98.5625C226.062 99.3125 226.562 100.031 226.938 100.719C227.312 101.344 227.719 101.938 228.156 102.5C228.594 103.062 229.312 103.562 230.312 104C231.312 104.438 232.688 104.781 234.438 105.031C236.188 105.281 238.562 105.406 241.562 105.406C242.188 105.406 243.062 105.406 244.188 105.406C245.312 105.406 246.531 105.344 247.844 105.219C249.219 105.031 250.594 104.812 251.969 104.562C253.344 104.25 254.594 103.844 255.719 103.344C256.844 102.781 257.75 102.125 258.438 101.375C259.188 100.562 259.562 99.5938 259.562 98.4688C259.562 98.2812 259.531 98.0625 259.469 97.8125C259.406 97.5 259.375 97.3125 259.375 97.25L254.875 92.6562L224.688 84.4062C224.125 84.2812 223.688 84.0625 223.375 83.75C223.125 83.4375 222.938 83.0938 222.812 82.7188C222.688 82.3438 222.625 81.9375 222.625 81.5V80.1875C222.625 78.5 223.188 77.0312 224.312 75.7812C225.5 74.5312 226.969 73.5 228.719 72.6875C230.531 71.875 232.531 71.2188 234.719 70.7188C236.969 70.1562 239.156 69.75 241.281 69.5C243.469 69.1875 245.469 69 247.281 68.9375C249.156 68.875 250.594 68.8438 251.594 68.8438H252.625C253.062 68.8438 253.531 68.8438 254.031 68.8438C254.594 68.8438 255.094 68.8438 255.531 68.8438H256.562C257.188 69.0312 257.531 69.375 257.594 69.875C257.656 70.3125 257.688 70.75 257.688 71.1875C257.688 72.0625 257.094 72.7188 255.906 73.1562C254.781 73.5312 253.312 73.8438 251.5 74.0938C249.75 74.2812 247.75 74.4688 245.5 74.6562C243.25 74.8438 241.062 75.125 238.938 75.5C236.875 75.8125 234.969 76.3125 233.219 77C231.469 77.6875 230.156 78.625 229.281 79.8125L230.969 80.75L257.5 88.0625C258.562 88.375 259.562 88.9688 260.5 89.8438C261.438 90.6562 262.219 91.625 262.844 92.75C263.531 93.8125 264.062 94.9688 264.438 96.2188C264.812 97.4062 265 98.5 265 99.5C265 101 264.656 102.344 263.969 103.531C263.281 104.656 262.406 105.625 261.344 106.438C260.281 107.188 259.062 107.812 257.688 108.312C256.312 108.75 254.906 109.125 253.469 109.438C252.031 109.688 250.594 109.875 249.156 110C247.781 110.062 246.531 110.094 245.406 110.094C244.219 110.094 242.781 110.062 241.094 110C239.469 110 237.781 109.906 236.031 109.719C234.281 109.531 232.562 109.25 230.875 108.875C229.188 108.438 227.656 107.844 226.281 107.094C224.969 106.281 223.906 105.281 223.094 104.094C222.281 102.906 221.875 101.375 221.875 99.5ZM279.719 85.5312C277.969 85.5312 276.344 85.6875 274.844 86C273.406 86.25 271.812 86.375 270.062 86.375C269.375 86.375 268.938 86.125 268.75 85.625C268.562 85.0625 268.469 84.5312 268.469 84.0312V83.5625C268.594 83.3125 268.781 83 269.031 82.625C269.344 82.25 269.656 81.9062 269.969 81.5938C270.281 81.2188 270.531 80.9062 270.719 80.6562C270.969 80.4062 271.125 80.2812 271.188 80.2812H279.812V66.2188C279.812 65.9688 279.906 65.7812 280.094 65.6562C280.281 65.5312 280.5 65.4375 280.75 65.375C281.062 65.25 281.344 65.1875 281.594 65.1875C281.844 65.125 282.031 65.0938 282.156 65.0938C283.156 65.0938 283.875 65.4688 284.312 66.2188C284.812 66.9062 285.125 67.7812 285.25 68.8438C285.438 69.9062 285.5 71.0625 285.438 72.3125C285.438 73.5625 285.438 74.7188 285.438 75.7812C285.438 76.8438 285.5 77.7812 285.625 78.5938C285.812 79.3438 286.188 79.75 286.75 79.8125C287.25 79.875 288.188 80 289.562 80.1875C291 80.3125 292.469 80.5 293.969 80.75C295.531 80.9375 297 81.125 298.375 81.3125C299.75 81.5 300.75 81.625 301.375 81.6875C301.5 81.6875 301.719 81.75 302.031 81.875C302.406 81.9375 302.781 82 303.156 82.0625C303.594 82.125 303.969 82.2188 304.281 82.3438C304.594 82.4688 304.812 82.5625 304.938 82.625C305.062 82.625 305.25 82.75 305.5 83C305.75 83.25 305.875 83.4375 305.875 83.5625C305.875 84 305.75 84.4062 305.5 84.7812C305.25 85.1562 304.938 85.4688 304.562 85.7188C304.188 85.9062 303.781 86.0625 303.344 86.1875C302.969 86.25 302.594 86.2812 302.219 86.2812C302.094 86.2812 301.75 86.25 301.188 86.1875C300.625 86.0625 300.031 85.9375 299.406 85.8125C298.844 85.6875 298.281 85.5938 297.719 85.5312C297.219 85.4062 296.906 85.3438 296.781 85.3438H295.844C295.281 85.3438 294.688 85.3438 294.062 85.3438C293.438 85.3438 292.812 85.3438 292.188 85.3438H289.656C289.219 85.3438 288.781 85.3438 288.344 85.3438C287.906 85.3438 287.531 85.3438 287.219 85.3438H286.75L285.812 86.2812C285.812 86.3438 285.812 86.5625 285.812 86.9375C285.812 87.3125 285.781 87.75 285.719 88.25C285.656 88.75 285.594 89.2812 285.531 89.8438C285.531 90.3438 285.531 90.75 285.531 91.0625C285.531 94.4375 285.875 97.0938 286.562 99.0312C287.25 100.969 288.312 102.438 289.75 103.438C291.25 104.375 293.125 104.969 295.375 105.219C297.688 105.406 300.5 105.5 303.812 105.5C304.188 105.5 304.688 105.5 305.312 105.5C305.938 105.5 306.562 105.5 307.188 105.5C307.812 105.5 308.344 105.5 308.781 105.5C309.219 105.438 309.469 105.406 309.531 105.406C309.594 105.406 309.75 105.375 310 105.312C310.25 105.188 310.531 105.094 310.844 105.031C311.219 104.906 311.5 104.781 311.688 104.656C311.938 104.531 312.125 104.469 312.25 104.469C312.5 104.469 312.688 104.594 312.812 104.844C313 105.031 313.125 105.281 313.188 105.594C313.25 105.906 313.281 106.188 313.281 106.438V107.094C313.281 108.094 313.062 108.812 312.625 109.25C312.188 109.688 311.156 109.938 309.531 110H307.938C307.188 110 306.406 110 305.594 110C304.844 110.062 304.062 110.094 303.25 110.094H301.844C298.281 110.094 295.25 109.969 292.75 109.719C290.25 109.406 288.188 108.938 286.562 108.312C284.938 107.625 283.656 106.719 282.719 105.594C281.781 104.469 281.094 103 280.656 101.188C280.281 99.375 280.031 97.1875 279.906 94.625C279.781 92.0625 279.719 89.0312 279.719 85.5312ZM347.406 101.75C345.781 101.75 344.156 102.156 342.531 102.969C340.969 103.719 339.344 104.594 337.656 105.594C335.969 106.594 334.219 107.5 332.406 108.312C330.594 109.062 328.75 109.438 326.875 109.438C326.625 109.438 326.25 109.438 325.75 109.438C325.25 109.375 324.688 109.344 324.062 109.344C323.5 109.281 322.969 109.25 322.469 109.25C321.969 109.25 321.625 109.219 321.438 109.156C320.25 108.469 319.281 107.656 318.531 106.719C317.844 105.781 317.281 104.781 316.844 103.719C316.469 102.594 316.188 101.438 316 100.25C315.812 99.0625 315.719 97.875 315.719 96.6875V94.0625C315.719 92.9375 315.75 91.7188 315.812 90.4062C315.938 89.0938 316.062 87.75 316.188 86.375C316.375 85 316.625 83.75 316.938 82.625C317.25 81.4375 317.688 80.4375 318.25 79.625C318.812 78.8125 319.562 78.2812 320.5 78.0312C320.875 77.9062 321.25 78 321.625 78.3125C322 78.625 322.281 79 322.469 79.4375C322.719 79.8125 322.906 80.25 323.031 80.75C323.156 81.1875 323.219 81.5 323.219 81.6875C323.219 81.875 323.125 82.2812 322.938 82.9062C322.75 83.5312 322.531 84.2188 322.281 84.9688C322.094 85.6562 321.906 86.3125 321.719 86.9375C321.531 87.5625 321.438 87.9375 321.438 88.0625C321.438 88.125 321.406 88.4062 321.344 88.9062C321.344 89.3438 321.312 89.8438 321.25 90.4062C321.25 90.9688 321.25 91.5938 321.25 92.2812C321.25 92.9062 321.25 93.4062 321.25 93.7812C321.25 94.5938 321.219 95.5312 321.156 96.5938C321.094 97.5938 321.125 98.5938 321.25 99.5938C321.438 100.594 321.719 101.531 322.094 102.406C322.469 103.281 323.156 103.969 324.156 104.469C324.219 104.469 324.406 104.5 324.719 104.562C325.094 104.562 325.469 104.562 325.844 104.562C326.281 104.562 326.656 104.594 326.969 104.656C327.344 104.656 327.594 104.656 327.719 104.656C331.094 104.656 334.281 103.906 337.281 102.406C340.281 100.906 342.906 98.875 345.156 96.3125C345.094 95.9375 345.031 95.2188 344.969 94.1562C344.969 93.0938 344.969 92 344.969 90.875C344.969 89.6875 344.969 88.5938 344.969 87.5938C345.031 86.5312 345.094 85.7812 345.156 85.3438C345.156 84.9688 345.219 84.5938 345.344 84.2188C345.469 83.7812 345.625 83.375 345.812 83C346 82.625 346.25 82.3125 346.562 82.0625C346.938 81.8125 347.344 81.6875 347.781 81.6875C348.719 81.6875 349.375 82.0312 349.75 82.7188C350.125 83.4062 350.375 84.3125 350.5 85.4375C350.688 86.5625 350.812 87.875 350.875 89.375C351 90.8125 351.219 92.2812 351.531 93.7812C351.844 95.2812 352.375 96.7812 353.125 98.2812C353.875 99.7188 354.969 101.031 356.406 102.219C357.844 103.344 359.719 104.312 362.031 105.125C364.344 105.875 367.25 106.281 370.75 106.344C370.75 106.469 370.75 106.625 370.75 106.812C370.75 107 370.75 107.156 370.75 107.281C370.75 108.219 370.344 108.906 369.531 109.344C368.719 109.719 367.719 109.969 366.531 110.094C365.406 110.219 364.281 110.25 363.156 110.188C362.031 110.125 361.188 110.094 360.625 110.094C358.75 110.094 357.062 109.656 355.562 108.781C354.062 107.906 352.719 106.969 351.531 105.969C350.344 104.906 349.375 103.938 348.625 103.062C347.938 102.188 347.531 101.75 347.406 101.75ZM407.031 107.188C404.969 107.188 402.938 107.375 400.938 107.75C399 108.062 397.031 108.219 395.031 108.219C393.656 108.219 392.156 108.219 390.531 108.219C388.969 108.156 387.375 108.031 385.75 107.844C384.188 107.594 382.656 107.25 381.156 106.812C379.656 106.312 378.312 105.656 377.125 104.844C376 103.969 375.062 102.906 374.312 101.656C373.625 100.406 373.281 98.8438 373.281 96.9688C373.281 94.7188 373.875 92.7812 375.062 91.1562C376.312 89.5312 377.812 88.25 379.562 87.3125C381.375 86.3125 383.344 85.5938 385.469 85.1562C387.656 84.6562 389.75 84.4062 391.75 84.4062C394.375 84.4062 397.031 84.8438 399.719 85.7188C402.469 86.5312 405 87.625 407.312 89V71.6562C407.312 70.8438 407.438 70.3438 407.688 70.1562C408 69.9062 408.406 69.7812 408.906 69.7812C409.781 69.7812 410.531 70.6562 411.156 72.4062C411.781 74.0938 412.312 76.2812 412.75 78.9688C413.188 81.6562 413.531 84.625 413.781 87.875C414.094 91.125 414.312 94.25 414.438 97.25C414.562 100.25 414.625 102.938 414.625 105.312C414.688 107.625 414.719 109.281 414.719 110.281C413.719 110.281 412.844 110.125 412.094 109.812C411.406 109.438 410.781 109.062 410.219 108.688C409.719 108.312 409.219 107.969 408.719 107.656C408.219 107.344 407.656 107.188 407.031 107.188ZM378.812 96.9688C378.812 98.2188 379.156 99.25 379.844 100.062C380.531 100.812 381.438 101.438 382.562 101.938C383.688 102.438 384.938 102.812 386.312 103.062C387.688 103.312 389.062 103.5 390.438 103.625C391.812 103.688 393.125 103.719 394.375 103.719H397.469C397.594 103.719 398.156 103.75 399.156 103.812C400.219 103.875 401.344 103.875 402.531 103.812C403.719 103.688 404.812 103.5 405.812 103.25C406.812 102.938 407.312 102.438 407.312 101.75V91.7188C406.625 92.4062 406 92.9062 405.438 93.2188C404.938 93.5312 404.281 93.6875 403.469 93.6875C403.406 93.6875 403.062 93.5 402.438 93.125C401.812 92.6875 400.969 92.25 399.906 91.8125C398.906 91.3125 397.719 90.875 396.344 90.5C395.031 90.0625 393.594 89.8438 392.031 89.8438C390.969 89.8438 389.688 89.9688 388.188 90.2188C386.688 90.4062 385.219 90.7812 383.781 91.3438C382.406 91.8438 381.219 92.5625 380.219 93.5C379.281 94.4375 378.812 95.5938 378.812 96.9688ZM410.031 141.688C410.031 140.938 410.062 140.031 410.125 138.969C410.188 137.906 410.406 136.875 410.781 135.875C411.094 134.875 411.562 134 412.188 133.25C412.812 132.5 413.625 132.062 414.625 131.938C414.625 132 414.656 132.125 414.719 132.312C414.719 132.562 414.719 132.75 414.719 132.875C414.719 133.75 414.531 134.531 414.156 135.219C413.781 135.969 413.594 136.875 413.594 137.938C413.594 139.688 413.938 141.281 414.625 142.719C415.312 144.156 416.219 145.438 417.344 146.562C418.469 147.688 419.75 148.656 421.188 149.469C422.688 150.281 424.25 150.938 425.875 151.438C427.562 152 429.25 152.406 430.938 152.656C432.625 152.906 434.188 153.031 435.625 153.031C437.688 153.031 439.438 152.688 440.875 152C442.312 151.312 443.531 150.375 444.531 149.188C445.594 148.062 446.438 146.719 447.062 145.156C447.688 143.656 448.156 142.062 448.469 140.375C448.844 138.75 449.094 137.094 449.219 135.406C449.406 133.719 449.5 132.125 449.5 130.625C449.5 130.375 449.469 129.594 449.406 128.281C449.344 127.031 449.25 125.531 449.125 123.781C449 122.094 448.844 120.281 448.656 118.344C448.469 116.406 448.219 114.594 447.906 112.906C447.594 111.219 447.219 109.844 446.781 108.781C446.344 107.719 445.844 107.188 445.281 107.188C444.094 107.188 442.906 107.344 441.719 107.656C440.594 107.969 439.469 108.312 438.344 108.688C437.219 109.062 436.031 109.406 434.781 109.719C433.594 110.031 432.344 110.188 431.031 110.188C430.781 110.188 430.344 110.188 429.719 110.188C429.156 110.188 428.531 110.156 427.844 110.094C427.156 110.094 426.5 110.062 425.875 110C425.312 110 424.906 110 424.656 110C423.344 109.5 422.25 108.75 421.375 107.75C420.562 106.75 419.906 105.625 419.406 104.375C418.906 103.062 418.562 101.719 418.375 100.344C418.188 98.9062 418.094 97.5938 418.094 96.4062C418.094 94.6562 418.125 93.0938 418.188 91.7188C418.312 90.2812 418.656 88.7812 419.219 87.2188C419.281 87.0938 419.5 87.0312 419.875 87.0312C420.25 86.9688 420.469 86.9375 420.531 86.9375C421.656 86.9375 422.406 87.4062 422.781 88.3438C423.156 89.2812 423.375 90.4375 423.438 91.8125C423.5 93.1875 423.531 94.6875 423.531 96.3125C423.594 97.875 423.844 99.3438 424.281 100.719C424.719 102.094 425.438 103.25 426.438 104.188C427.5 105.062 429.094 105.5 431.219 105.5C434.094 105.5 436.344 105.156 437.969 104.469C439.594 103.781 440.812 102.75 441.625 101.375C442.438 99.9375 442.906 98.2188 443.031 96.2188C443.156 94.1562 443.125 91.75 442.938 89C442.875 88.1875 443.031 87.6562 443.406 87.4062C443.781 87.1562 444.219 87.0312 444.719 87.0312C445.344 87.0312 446 87.7188 446.688 89.0938C447.438 90.4688 448.125 92.2188 448.75 94.3438C449.375 96.4688 450 98.7812 450.625 101.281C451.25 103.719 451.781 106.062 452.219 108.312C452.656 110.562 453 112.5 453.25 114.125C453.562 115.812 453.75 116.875 453.812 117.312C453.875 117.562 453.969 118.031 454.094 118.719C454.219 119.469 454.312 120.344 454.375 121.344C454.5 122.406 454.625 123.469 454.75 124.531C454.875 125.656 455 126.719 455.125 127.719C455.25 128.781 455.375 129.688 455.5 130.438C455.625 131.188 455.688 131.688 455.688 131.938V132.406C455.688 135.656 455.281 138.781 454.469 141.781C453.719 144.781 452.5 147.438 450.812 149.75C449.188 152.125 447.094 154 444.531 155.375C442.031 156.812 439 157.531 435.438 157.531C433.938 157.531 432.25 157.406 430.375 157.156C428.562 156.906 426.719 156.5 424.844 155.938C422.969 155.438 421.125 154.781 419.312 153.969C417.562 153.156 416 152.125 414.625 150.875C413.25 149.688 412.156 148.344 411.344 146.844C410.469 145.344 410.031 143.625 410.031 141.688Z" fill="#E1E1E1"/>
<path d="M0.75 86.25C0.75 83.8125 1.375 81.6562 2.625 79.7812C3.875 77.9062 5.46875 76.2812 7.40625 74.9062C9.34375 73.4688 11.5625 72.2812 14.0625 71.3438C16.5625 70.4062 19.0625 69.6562 21.5625 69.0938C24.0625 68.5312 26.4688 68.1562 28.7812 67.9688C31.1562 67.7188 33.1875 67.5938 34.875 67.5938C35.5625 67.5938 36.1875 67.8438 36.75 68.3438C37.3125 68.8438 37.5938 69.4688 37.5938 70.2188C37.5938 70.9062 37.5 71.5312 37.3125 72.0938C37.1875 72.5938 36.9062 73.2188 36.4688 73.9688C35.1562 73.7812 33.5 73.6875 31.5 73.6875C29.5 73.6875 27.4062 73.8125 25.2188 74.0625C23.0938 74.3125 20.9688 74.75 18.8438 75.375C16.7188 75.9375 14.7812 76.75 13.0312 77.8125C11.2812 78.8125 9.875 80.0312 8.8125 81.4688C7.75 82.9062 7.21875 84.6562 7.21875 86.7188C7.21875 88.5938 7.53125 90.2188 8.15625 91.5938C8.78125 92.9062 9.625 94.0625 10.6875 95.0625C11.75 96 12.9688 96.7812 14.3438 97.4062C15.7188 97.9688 17.1562 98.4375 18.6562 98.8125C20.2188 99.125 21.7812 99.3438 23.3438 99.4688C24.9062 99.5938 26.4062 99.6562 27.8438 99.6562C29.4688 99.6562 31.0625 99.625 32.625 99.5625C34.25 99.5 35.8125 99.375 37.3125 99.1875C38.8125 99 40.3438 98.75 41.9062 98.4375C43.4688 98.0625 45 97.5 46.5 96.75C47.1875 96.9375 47.5312 97.2812 47.5312 97.7812C47.5938 98.2188 47.625 98.6875 47.625 99.1875C47.625 100.375 47.2188 101.344 46.4062 102.094C45.6562 102.844 44.625 103.438 43.3125 103.875C42.0625 104.312 40.6562 104.625 39.0938 104.812C37.5312 105 36 105.094 34.5 105.094C33 105.156 31.5938 105.156 30.2812 105.094C29.0312 105.094 28.0625 105.094 27.375 105.094C25.5 105.094 23.5 104.969 21.375 104.719C19.3125 104.406 17.3125 103.969 15.375 103.406C13.4375 102.844 11.5625 102.094 9.75 101.156C8 100.156 6.46875 98.9688 5.15625 97.5938C3.84375 96.2188 2.78125 94.5938 1.96875 92.7188C1.15625 90.8438 0.75 88.6875 0.75 86.25ZM77.1562 100.406C76.1562 100.406 75.0938 100.562 73.9688 100.875C72.9062 101.125 71.8438 101.438 70.7812 101.812C69.7188 102.188 68.5938 102.531 67.4062 102.844C66.2812 103.094 65.125 103.219 63.9375 103.219C62.125 103.219 60.375 102.938 58.6875 102.375C57 101.812 55.5 100.969 54.1875 99.8438C52.9375 98.7188 51.9375 97.375 51.1875 95.8125C50.4375 94.1875 50.0625 92.375 50.0625 90.375C50.0625 88.625 50.5938 87 51.6562 85.5C52.7812 84 54.1562 82.75 55.7812 81.75C57.4062 80.75 59.1562 79.9688 61.0312 79.4062C62.9062 78.8438 64.5938 78.5625 66.0938 78.5625C66.7812 78.5625 67.625 78.625 68.625 78.75C69.6875 78.8125 70.8125 78.9688 72 79.2188C73.25 79.4062 74.5 79.6875 75.75 80.0625C77 80.375 78.125 80.8125 79.125 81.375C80.1875 81.9375 81.0625 82.5938 81.75 83.3438C82.5 84.0312 82.9375 84.8438 83.0625 85.7812C83.0625 86.0938 83 86.6562 82.875 87.4688C82.75 88.2188 82.6562 89.0312 82.5938 89.9062C82.5312 90.7812 82.4375 91.625 82.3125 92.4375C82.25 93.1875 82.1875 93.75 82.125 94.125V94.6875C82.125 96.0625 82.4375 97.0938 83.0625 97.7812C83.6875 98.4688 84.4375 98.9688 85.3125 99.2812C86.25 99.5312 87.2188 99.6562 88.2188 99.6562H91.2188C92.1562 99.6562 92.75 99.6562 93 99.6562C93.25 99.5938 93.4062 99.5625 93.4688 99.5625C93.5938 99.5625 93.75 99.5625 93.9375 99.5625C94.1875 99.5 94.8125 99.4688 95.8125 99.4688C96.625 99.4688 97.25 99.625 97.6875 99.9375C98.125 100.25 98.3438 100.906 98.3438 101.906C98.3438 102.969 98 103.719 97.3125 104.156C96.625 104.594 95.8125 104.875 94.875 105C93.9375 105.188 93 105.25 92.0625 105.188C91.125 105.125 90.4062 105.094 89.9062 105.094C88.4688 105.094 87.0938 104.844 85.7812 104.344C84.5312 103.844 83.375 103.312 82.3125 102.75C81.25 102.125 80.2812 101.594 79.4062 101.156C78.5312 100.656 77.7812 100.406 77.1562 100.406ZM55.5938 91.3125C55.5938 92.8125 55.9062 94.0312 56.5312 94.9688C57.2188 95.8438 58.0312 96.5 58.9688 96.9375C59.9688 97.3125 61.0625 97.5625 62.25 97.6875C63.4375 97.75 64.5938 97.7812 65.7188 97.7812C66.1562 97.7812 66.875 97.75 67.875 97.6875C68.9375 97.625 70.0312 97.5 71.1562 97.3125C72.2812 97.0625 73.2812 96.75 74.1562 96.375C75.0938 96 75.625 95.5312 75.75 94.9688L77.625 87.6562C77.75 87.1562 77.625 86.7188 77.25 86.3438C76.875 85.9688 76.3438 85.6562 75.6562 85.4062C75.0312 85.1562 74.3125 84.9375 73.5 84.75C72.75 84.5625 72 84.4062 71.25 84.2812C70.5 84.1562 69.8125 84.0625 69.1875 84C68.625 83.9375 68.2812 83.9062 68.1562 83.9062C67.0312 83.9062 65.7188 84.0312 64.2188 84.2812C62.7812 84.4688 61.4062 84.8438 60.0938 85.4062C58.8438 85.9062 57.7812 86.625 56.9062 87.5625C56.0312 88.5 55.5938 89.75 55.5938 91.3125ZM106.969 99.2812V97.3125C106.969 96.5 107.031 95.7188 107.156 94.9688C107.281 94.2188 107.531 93.5625 107.906 93C108.281 92.4375 108.812 92.1562 109.5 92.1562V92.25H109.781L111.656 99.4688C111.656 99.7188 111.781 99.9062 112.031 100.031C112.281 100.156 112.531 100.281 112.781 100.406C113.094 100.469 113.375 100.5 113.625 100.5C113.938 100.5 114.188 100.5 114.375 100.5C114.5 100.5 114.656 100.5 114.844 100.5C115.094 100.438 115.25 100.406 115.312 100.406C115.688 100.344 116.406 100.188 117.469 99.9375C118.531 99.625 119.625 99.3438 120.75 99.0938C121.938 98.8438 123.031 98.5938 124.031 98.3438C125.094 98.0312 125.844 97.8438 126.281 97.7812C126.594 97.2812 127.062 96.8438 127.688 96.4688C128.312 96.0312 128.938 95.625 129.562 95.25C130.188 94.875 130.719 94.4688 131.156 94.0312C131.594 93.5938 131.812 93.0312 131.812 92.3438C131.812 90.7812 131.406 89.5312 130.594 88.5938C129.844 87.6562 128.844 86.9688 127.594 86.5312C126.406 86.0312 125.125 85.6875 123.75 85.5C122.375 85.3125 121.062 85.125 119.812 84.9375C119.312 84.875 118.5 84.7812 117.375 84.6562C116.312 84.4688 115.094 84.2812 113.719 84.0938C112.344 83.9062 110.906 83.7188 109.406 83.5312C107.906 83.2812 106.438 83.0938 105 82.9688C103.625 82.7812 102.375 82.625 101.25 82.5C100.188 82.375 99.4062 82.2812 98.9062 82.2188C98.5312 81.9688 98.125 81.5312 97.6875 80.9062C97.25 80.2812 97.0312 79.7812 97.0312 79.4062C97.0312 78.3438 97.5938 77.375 98.7188 76.5C99.9062 75.5625 101.375 74.7188 103.125 73.9688C104.875 73.2188 106.844 72.5625 109.031 72C111.281 71.4375 113.469 70.9375 115.594 70.5C117.781 70.0625 119.781 69.75 121.594 69.5625C123.469 69.375 124.906 69.2812 125.906 69.2812C126.656 69.2812 127.344 69.5312 127.969 70.0312C128.656 70.5312 129 71.25 129 72.1875C129 72.9375 128.781 73.5 128.344 73.875C127.969 74.1875 127.469 74.4062 126.844 74.5312C126.281 74.5938 125.688 74.6562 125.062 74.7188C124.5 74.7188 123.969 74.75 123.469 74.8125C122.469 75 121.188 75.25 119.625 75.5625C118.125 75.875 116.625 76.1875 115.125 76.5C113.625 76.8125 112.375 77.0625 111.375 77.25L109.781 77.625V78.6562C110.969 78.6562 112.469 78.6875 114.281 78.75C116.094 78.8125 118.031 78.9688 120.094 79.2188C122.156 79.4688 124.188 79.875 126.188 80.4375C128.25 80.9375 130.094 81.6562 131.719 82.5938C133.344 83.4688 134.656 84.5938 135.656 85.9688C136.719 87.2812 137.25 88.9062 137.25 90.8438C137.25 93.4688 136.531 95.6875 135.094 97.5C133.656 99.3125 131.844 100.781 129.656 101.906C127.469 103.031 125.094 103.844 122.531 104.344C119.969 104.844 117.594 105.094 115.406 105.094C114.531 105.094 113.594 105.031 112.594 104.906C111.594 104.719 110.656 104.406 109.781 103.969C108.969 103.531 108.281 102.938 107.719 102.188C107.219 101.438 106.969 100.469 106.969 99.2812ZM141.656 88.5C141.656 86.375 142.25 84.3125 143.438 82.3125C144.625 80.3125 146.125 78.5625 147.938 77.0625C149.812 75.5625 151.844 74.375 154.031 73.5C156.281 72.625 158.406 72.1875 160.406 72.1875C162.031 72.1875 163.625 72.4062 165.188 72.8438C166.812 73.2188 168.25 73.8438 169.5 74.7188C170.75 75.5938 171.75 76.6875 172.5 78C173.312 79.25 173.719 80.75 173.719 82.5C173.719 83.3125 173.656 83.9688 173.531 84.4688C173.469 84.9062 173.281 85.3125 172.969 85.6875C172.656 86 172.25 86.3125 171.75 86.625C171.312 86.875 170.75 87.2188 170.062 87.6562C169.688 87.7188 169.125 87.875 168.375 88.125C167.625 88.3125 166.75 88.5312 165.75 88.7812C164.812 89.0312 163.812 89.2812 162.75 89.5312C161.688 89.7812 160.656 90.0312 159.656 90.2812C158.719 90.5312 157.875 90.75 157.125 90.9375C156.375 91.125 155.812 91.25 155.438 91.3125C155.25 91.375 154.844 91.4375 154.219 91.5C153.594 91.5625 152.906 91.6562 152.156 91.7812C151.469 91.8438 150.812 91.9375 150.188 92.0625C149.562 92.125 149.188 92.1875 149.062 92.25C148.875 92.3125 148.656 92.4688 148.406 92.7188C148.219 92.9062 148.125 93.0312 148.125 93.0938C148.125 94.3438 148.469 95.4062 149.156 96.2812C149.844 97.0938 150.719 97.7812 151.781 98.3438C152.844 98.9062 154.031 99.3438 155.344 99.6562C156.719 99.9062 158.062 100.125 159.375 100.312C160.688 100.438 161.906 100.5 163.031 100.5C164.156 100.5 165.062 100.5 165.75 100.5C168.875 100.5 171.938 100.344 174.938 100.031C177.938 99.6562 181 99.4688 184.125 99.4688V100.219C184.125 100.594 184.062 101 183.938 101.438C183.875 101.812 183.75 102.188 183.562 102.562C183.375 102.875 183.125 103.062 182.812 103.125C180.438 103.625 178.312 104.031 176.438 104.344C174.625 104.594 172.906 104.781 171.281 104.906C169.656 104.969 167.969 105 166.219 105C164.469 105.062 162.531 105.094 160.406 105.094H158.812C158.125 105.094 157.375 105.062 156.562 105C155.75 105 154.969 105 154.219 105H152.625C150.688 104.5 149 103.719 147.562 102.656C146.188 101.531 145.062 100.219 144.188 98.7188C143.312 97.2188 142.656 95.5938 142.219 93.8438C141.844 92.0938 141.656 90.3125 141.656 88.5ZM162.656 77.4375C161.844 77.4375 160.906 77.5312 159.844 77.7188C158.844 77.8438 157.781 78.0938 156.656 78.4688C155.594 78.7812 154.531 79.2188 153.469 79.7812C152.406 80.2812 151.469 80.9062 150.656 81.6562C149.844 82.3438 149.156 83.125 148.594 84C148.094 84.875 147.844 85.8438 147.844 86.9062H151.688C153.062 86.9062 154.469 86.8438 155.906 86.7188C157.344 86.5938 158.75 86.4062 160.125 86.1562C161.5 85.8438 162.688 85.4062 163.688 84.8438C164.75 84.2188 165.594 83.4375 166.219 82.5C166.906 81.5625 167.25 80.4062 167.25 79.0312V78.5625L166.312 77.625C166.188 77.625 165.938 77.625 165.562 77.625C165.25 77.5625 164.906 77.5312 164.531 77.5312C164.156 77.4688 163.781 77.4375 163.406 77.4375C163.094 77.4375 162.844 77.4375 162.656 77.4375ZM217.875 94.5C217.875 93.8125 217.906 93.25 217.969 92.8125C218.031 92.375 218.312 91.875 218.812 91.3125C220 92.0625 220.875 92.8125 221.438 93.5625C222.062 94.3125 222.562 95.0312 222.938 95.7188C223.312 96.3438 223.719 96.9375 224.156 97.5C224.594 98.0625 225.312 98.5625 226.312 99C227.312 99.4375 228.688 99.7812 230.438 100.031C232.188 100.281 234.562 100.406 237.562 100.406C238.188 100.406 239.062 100.406 240.188 100.406C241.312 100.406 242.531 100.344 243.844 100.219C245.219 100.031 246.594 99.8125 247.969 99.5625C249.344 99.25 250.594 98.8438 251.719 98.3438C252.844 97.7812 253.75 97.125 254.438 96.375C255.188 95.5625 255.562 94.5938 255.562 93.4688C255.562 93.2812 255.531 93.0625 255.469 92.8125C255.406 92.5 255.375 92.3125 255.375 92.25L250.875 87.6562L220.688 79.4062C220.125 79.2812 219.688 79.0625 219.375 78.75C219.125 78.4375 218.938 78.0938 218.812 77.7188C218.688 77.3438 218.625 76.9375 218.625 76.5V75.1875C218.625 73.5 219.188 72.0312 220.312 70.7812C221.5 69.5312 222.969 68.5 224.719 67.6875C226.531 66.875 228.531 66.2188 230.719 65.7188C232.969 65.1562 235.156 64.75 237.281 64.5C239.469 64.1875 241.469 64 243.281 63.9375C245.156 63.875 246.594 63.8438 247.594 63.8438H248.625C249.062 63.8438 249.531 63.8438 250.031 63.8438C250.594 63.8438 251.094 63.8438 251.531 63.8438H252.562C253.188 64.0312 253.531 64.375 253.594 64.875C253.656 65.3125 253.688 65.75 253.688 66.1875C253.688 67.0625 253.094 67.7188 251.906 68.1562C250.781 68.5312 249.312 68.8438 247.5 69.0938C245.75 69.2812 243.75 69.4688 241.5 69.6562C239.25 69.8438 237.062 70.125 234.938 70.5C232.875 70.8125 230.969 71.3125 229.219 72C227.469 72.6875 226.156 73.625 225.281 74.8125L226.969 75.75L253.5 83.0625C254.562 83.375 255.562 83.9688 256.5 84.8438C257.438 85.6562 258.219 86.625 258.844 87.75C259.531 88.8125 260.062 89.9688 260.438 91.2188C260.812 92.4062 261 93.5 261 94.5C261 96 260.656 97.3438 259.969 98.5312C259.281 99.6562 258.406 100.625 257.344 101.438C256.281 102.188 255.062 102.812 253.688 103.312C252.312 103.75 250.906 104.125 249.469 104.438C248.031 104.688 246.594 104.875 245.156 105C243.781 105.062 242.531 105.094 241.406 105.094C240.219 105.094 238.781 105.062 237.094 105C235.469 105 233.781 104.906 232.031 104.719C230.281 104.531 228.562 104.25 226.875 103.875C225.188 103.438 223.656 102.844 222.281 102.094C220.969 101.281 219.906 100.281 219.094 99.0938C218.281 97.9062 217.875 96.375 217.875 94.5ZM275.719 80.5312C273.969 80.5312 272.344 80.6875 270.844 81C269.406 81.25 267.812 81.375 266.062 81.375C265.375 81.375 264.938 81.125 264.75 80.625C264.562 80.0625 264.469 79.5312 264.469 79.0312V78.5625C264.594 78.3125 264.781 78 265.031 77.625C265.344 77.25 265.656 76.9062 265.969 76.5938C266.281 76.2188 266.531 75.9062 266.719 75.6562C266.969 75.4062 267.125 75.2812 267.188 75.2812H275.812V61.2188C275.812 60.9688 275.906 60.7812 276.094 60.6562C276.281 60.5312 276.5 60.4375 276.75 60.375C277.062 60.25 277.344 60.1875 277.594 60.1875C277.844 60.125 278.031 60.0938 278.156 60.0938C279.156 60.0938 279.875 60.4688 280.312 61.2188C280.812 61.9062 281.125 62.7812 281.25 63.8438C281.438 64.9062 281.5 66.0625 281.438 67.3125C281.438 68.5625 281.438 69.7188 281.438 70.7812C281.438 71.8438 281.5 72.7812 281.625 73.5938C281.812 74.3438 282.188 74.75 282.75 74.8125C283.25 74.875 284.188 75 285.562 75.1875C287 75.3125 288.469 75.5 289.969 75.75C291.531 75.9375 293 76.125 294.375 76.3125C295.75 76.5 296.75 76.625 297.375 76.6875C297.5 76.6875 297.719 76.75 298.031 76.875C298.406 76.9375 298.781 77 299.156 77.0625C299.594 77.125 299.969 77.2188 300.281 77.3438C300.594 77.4688 300.812 77.5625 300.938 77.625C301.062 77.625 301.25 77.75 301.5 78C301.75 78.25 301.875 78.4375 301.875 78.5625C301.875 79 301.75 79.4062 301.5 79.7812C301.25 80.1562 300.938 80.4688 300.562 80.7188C300.188 80.9062 299.781 81.0625 299.344 81.1875C298.969 81.25 298.594 81.2812 298.219 81.2812C298.094 81.2812 297.75 81.25 297.188 81.1875C296.625 81.0625 296.031 80.9375 295.406 80.8125C294.844 80.6875 294.281 80.5938 293.719 80.5312C293.219 80.4062 292.906 80.3438 292.781 80.3438H291.844C291.281 80.3438 290.688 80.3438 290.062 80.3438C289.438 80.3438 288.812 80.3438 288.188 80.3438H285.656C285.219 80.3438 284.781 80.3438 284.344 80.3438C283.906 80.3438 283.531 80.3438 283.219 80.3438H282.75L281.812 81.2812C281.812 81.3438 281.812 81.5625 281.812 81.9375C281.812 82.3125 281.781 82.75 281.719 83.25C281.656 83.75 281.594 84.2812 281.531 84.8438C281.531 85.3438 281.531 85.75 281.531 86.0625C281.531 89.4375 281.875 92.0938 282.562 94.0312C283.25 95.9688 284.312 97.4375 285.75 98.4375C287.25 99.375 289.125 99.9688 291.375 100.219C293.688 100.406 296.5 100.5 299.812 100.5C300.188 100.5 300.688 100.5 301.312 100.5C301.938 100.5 302.562 100.5 303.188 100.5C303.812 100.5 304.344 100.5 304.781 100.5C305.219 100.438 305.469 100.406 305.531 100.406C305.594 100.406 305.75 100.375 306 100.312C306.25 100.188 306.531 100.094 306.844 100.031C307.219 99.9062 307.5 99.7812 307.688 99.6562C307.938 99.5312 308.125 99.4688 308.25 99.4688C308.5 99.4688 308.688 99.5938 308.812 99.8438C309 100.031 309.125 100.281 309.188 100.594C309.25 100.906 309.281 101.188 309.281 101.438V102.094C309.281 103.094 309.062 103.812 308.625 104.25C308.188 104.688 307.156 104.938 305.531 105H303.938C303.188 105 302.406 105 301.594 105C300.844 105.062 300.062 105.094 299.25 105.094H297.844C294.281 105.094 291.25 104.969 288.75 104.719C286.25 104.406 284.188 103.938 282.562 103.312C280.938 102.625 279.656 101.719 278.719 100.594C277.781 99.4688 277.094 98 276.656 96.1875C276.281 94.375 276.031 92.1875 275.906 89.625C275.781 87.0625 275.719 84.0312 275.719 80.5312ZM343.406 96.75C341.781 96.75 340.156 97.1562 338.531 97.9688C336.969 98.7188 335.344 99.5938 333.656 100.594C331.969 101.594 330.219 102.5 328.406 103.312C326.594 104.062 324.75 104.438 322.875 104.438C322.625 104.438 322.25 104.438 321.75 104.438C321.25 104.375 320.688 104.344 320.062 104.344C319.5 104.281 318.969 104.25 318.469 104.25C317.969 104.25 317.625 104.219 317.438 104.156C316.25 103.469 315.281 102.656 314.531 101.719C313.844 100.781 313.281 99.7812 312.844 98.7188C312.469 97.5938 312.188 96.4375 312 95.25C311.812 94.0625 311.719 92.875 311.719 91.6875V89.0625C311.719 87.9375 311.75 86.7188 311.812 85.4062C311.938 84.0938 312.062 82.75 312.188 81.375C312.375 80 312.625 78.75 312.938 77.625C313.25 76.4375 313.688 75.4375 314.25 74.625C314.812 73.8125 315.562 73.2812 316.5 73.0312C316.875 72.9062 317.25 73 317.625 73.3125C318 73.625 318.281 74 318.469 74.4375C318.719 74.8125 318.906 75.25 319.031 75.75C319.156 76.1875 319.219 76.5 319.219 76.6875C319.219 76.875 319.125 77.2812 318.938 77.9062C318.75 78.5312 318.531 79.2188 318.281 79.9688C318.094 80.6562 317.906 81.3125 317.719 81.9375C317.531 82.5625 317.438 82.9375 317.438 83.0625C317.438 83.125 317.406 83.4062 317.344 83.9062C317.344 84.3438 317.312 84.8438 317.25 85.4062C317.25 85.9688 317.25 86.5938 317.25 87.2812C317.25 87.9062 317.25 88.4062 317.25 88.7812C317.25 89.5938 317.219 90.5312 317.156 91.5938C317.094 92.5938 317.125 93.5938 317.25 94.5938C317.438 95.5938 317.719 96.5312 318.094 97.4062C318.469 98.2812 319.156 98.9688 320.156 99.4688C320.219 99.4688 320.406 99.5 320.719 99.5625C321.094 99.5625 321.469 99.5625 321.844 99.5625C322.281 99.5625 322.656 99.5938 322.969 99.6562C323.344 99.6562 323.594 99.6562 323.719 99.6562C327.094 99.6562 330.281 98.9062 333.281 97.4062C336.281 95.9062 338.906 93.875 341.156 91.3125C341.094 90.9375 341.031 90.2188 340.969 89.1562C340.969 88.0938 340.969 87 340.969 85.875C340.969 84.6875 340.969 83.5938 340.969 82.5938C341.031 81.5312 341.094 80.7812 341.156 80.3438C341.156 79.9688 341.219 79.5938 341.344 79.2188C341.469 78.7812 341.625 78.375 341.812 78C342 77.625 342.25 77.3125 342.562 77.0625C342.938 76.8125 343.344 76.6875 343.781 76.6875C344.719 76.6875 345.375 77.0312 345.75 77.7188C346.125 78.4062 346.375 79.3125 346.5 80.4375C346.688 81.5625 346.812 82.875 346.875 84.375C347 85.8125 347.219 87.2812 347.531 88.7812C347.844 90.2812 348.375 91.7812 349.125 93.2812C349.875 94.7188 350.969 96.0312 352.406 97.2188C353.844 98.3438 355.719 99.3125 358.031 100.125C360.344 100.875 363.25 101.281 366.75 101.344C366.75 101.469 366.75 101.625 366.75 101.812C366.75 102 366.75 102.156 366.75 102.281C366.75 103.219 366.344 103.906 365.531 104.344C364.719 104.719 363.719 104.969 362.531 105.094C361.406 105.219 360.281 105.25 359.156 105.188C358.031 105.125 357.188 105.094 356.625 105.094C354.75 105.094 353.062 104.656 351.562 103.781C350.062 102.906 348.719 101.969 347.531 100.969C346.344 99.9062 345.375 98.9375 344.625 98.0625C343.938 97.1875 343.531 96.75 343.406 96.75ZM403.031 102.188C400.969 102.188 398.938 102.375 396.938 102.75C395 103.062 393.031 103.219 391.031 103.219C389.656 103.219 388.156 103.219 386.531 103.219C384.969 103.156 383.375 103.031 381.75 102.844C380.188 102.594 378.656 102.25 377.156 101.812C375.656 101.312 374.312 100.656 373.125 99.8438C372 98.9688 371.062 97.9062 370.312 96.6562C369.625 95.4062 369.281 93.8438 369.281 91.9688C369.281 89.7188 369.875 87.7812 371.062 86.1562C372.312 84.5312 373.812 83.25 375.562 82.3125C377.375 81.3125 379.344 80.5938 381.469 80.1562C383.656 79.6562 385.75 79.4062 387.75 79.4062C390.375 79.4062 393.031 79.8438 395.719 80.7188C398.469 81.5312 401 82.625 403.312 84V66.6562C403.312 65.8438 403.438 65.3438 403.688 65.1562C404 64.9062 404.406 64.7812 404.906 64.7812C405.781 64.7812 406.531 65.6562 407.156 67.4062C407.781 69.0938 408.312 71.2812 408.75 73.9688C409.188 76.6562 409.531 79.625 409.781 82.875C410.094 86.125 410.312 89.25 410.438 92.25C410.562 95.25 410.625 97.9375 410.625 100.312C410.688 102.625 410.719 104.281 410.719 105.281C409.719 105.281 408.844 105.125 408.094 104.812C407.406 104.438 406.781 104.062 406.219 103.688C405.719 103.312 405.219 102.969 404.719 102.656C404.219 102.344 403.656 102.188 403.031 102.188ZM374.812 91.9688C374.812 93.2188 375.156 94.25 375.844 95.0625C376.531 95.8125 377.438 96.4375 378.562 96.9375C379.688 97.4375 380.938 97.8125 382.312 98.0625C383.688 98.3125 385.062 98.5 386.438 98.625C387.812 98.6875 389.125 98.7188 390.375 98.7188H393.469C393.594 98.7188 394.156 98.75 395.156 98.8125C396.219 98.875 397.344 98.875 398.531 98.8125C399.719 98.6875 400.812 98.5 401.812 98.25C402.812 97.9375 403.312 97.4375 403.312 96.75V86.7188C402.625 87.4062 402 87.9062 401.438 88.2188C400.938 88.5312 400.281 88.6875 399.469 88.6875C399.406 88.6875 399.062 88.5 398.438 88.125C397.812 87.6875 396.969 87.25 395.906 86.8125C394.906 86.3125 393.719 85.875 392.344 85.5C391.031 85.0625 389.594 84.8438 388.031 84.8438C386.969 84.8438 385.688 84.9688 384.188 85.2188C382.688 85.4062 381.219 85.7812 379.781 86.3438C378.406 86.8438 377.219 87.5625 376.219 88.5C375.281 89.4375 374.812 90.5938 374.812 91.9688ZM406.031 136.688C406.031 135.938 406.062 135.031 406.125 133.969C406.188 132.906 406.406 131.875 406.781 130.875C407.094 129.875 407.562 129 408.188 128.25C408.812 127.5 409.625 127.062 410.625 126.938C410.625 127 410.656 127.125 410.719 127.312C410.719 127.562 410.719 127.75 410.719 127.875C410.719 128.75 410.531 129.531 410.156 130.219C409.781 130.969 409.594 131.875 409.594 132.938C409.594 134.688 409.938 136.281 410.625 137.719C411.312 139.156 412.219 140.438 413.344 141.562C414.469 142.688 415.75 143.656 417.188 144.469C418.688 145.281 420.25 145.938 421.875 146.438C423.562 147 425.25 147.406 426.938 147.656C428.625 147.906 430.188 148.031 431.625 148.031C433.688 148.031 435.438 147.688 436.875 147C438.312 146.312 439.531 145.375 440.531 144.188C441.594 143.062 442.438 141.719 443.062 140.156C443.688 138.656 444.156 137.062 444.469 135.375C444.844 133.75 445.094 132.094 445.219 130.406C445.406 128.719 445.5 127.125 445.5 125.625C445.5 125.375 445.469 124.594 445.406 123.281C445.344 122.031 445.25 120.531 445.125 118.781C445 117.094 444.844 115.281 444.656 113.344C444.469 111.406 444.219 109.594 443.906 107.906C443.594 106.219 443.219 104.844 442.781 103.781C442.344 102.719 441.844 102.188 441.281 102.188C440.094 102.188 438.906 102.344 437.719 102.656C436.594 102.969 435.469 103.312 434.344 103.688C433.219 104.062 432.031 104.406 430.781 104.719C429.594 105.031 428.344 105.188 427.031 105.188C426.781 105.188 426.344 105.188 425.719 105.188C425.156 105.188 424.531 105.156 423.844 105.094C423.156 105.094 422.5 105.062 421.875 105C421.312 105 420.906 105 420.656 105C419.344 104.5 418.25 103.75 417.375 102.75C416.562 101.75 415.906 100.625 415.406 99.375C414.906 98.0625 414.562 96.7188 414.375 95.3438C414.188 93.9062 414.094 92.5938 414.094 91.4062C414.094 89.6562 414.125 88.0938 414.188 86.7188C414.312 85.2812 414.656 83.7812 415.219 82.2188C415.281 82.0938 415.5 82.0312 415.875 82.0312C416.25 81.9688 416.469 81.9375 416.531 81.9375C417.656 81.9375 418.406 82.4062 418.781 83.3438C419.156 84.2812 419.375 85.4375 419.438 86.8125C419.5 88.1875 419.531 89.6875 419.531 91.3125C419.594 92.875 419.844 94.3438 420.281 95.7188C420.719 97.0938 421.438 98.25 422.438 99.1875C423.5 100.062 425.094 100.5 427.219 100.5C430.094 100.5 432.344 100.156 433.969 99.4688C435.594 98.7812 436.812 97.75 437.625 96.375C438.438 94.9375 438.906 93.2188 439.031 91.2188C439.156 89.1562 439.125 86.75 438.938 84C438.875 83.1875 439.031 82.6562 439.406 82.4062C439.781 82.1562 440.219 82.0312 440.719 82.0312C441.344 82.0312 442 82.7188 442.688 84.0938C443.438 85.4688 444.125 87.2188 444.75 89.3438C445.375 91.4688 446 93.7812 446.625 96.2812C447.25 98.7188 447.781 101.062 448.219 103.312C448.656 105.562 449 107.5 449.25 109.125C449.562 110.812 449.75 111.875 449.812 112.312C449.875 112.562 449.969 113.031 450.094 113.719C450.219 114.469 450.312 115.344 450.375 116.344C450.5 117.406 450.625 118.469 450.75 119.531C450.875 120.656 451 121.719 451.125 122.719C451.25 123.781 451.375 124.688 451.5 125.438C451.625 126.188 451.688 126.688 451.688 126.938V127.406C451.688 130.656 451.281 133.781 450.469 136.781C449.719 139.781 448.5 142.438 446.812 144.75C445.188 147.125 443.094 149 440.531 150.375C438.031 151.812 435 152.531 431.438 152.531C429.938 152.531 428.25 152.406 426.375 152.156C424.562 151.906 422.719 151.5 420.844 150.938C418.969 150.438 417.125 149.781 415.312 148.969C413.562 148.156 412 147.125 410.625 145.875C409.25 144.688 408.156 143.344 407.344 141.844C406.469 140.344 406.031 138.625 406.031 136.688Z" fill="#4A1520"/>
<path d="M379.615 163.887H349.684C348.174 163.887 346.068 164.273 344.597 163.887C342.478 163.337 342.053 161.844 342.053 160.057V134.393C342.053 132.9 341.713 130.942 342.053 129.476C342.942 125.613 350.678 127.119 353.314 127.119H372.18C375.162 127.119 381.23 125.731 381.871 129.967C382.198 132.088 381.871 134.511 381.871 136.658V157.327C381.871 159.245 382.702 163.474 379.615 163.874C378.366 164.044 378.536 166.001 379.785 165.838C385.278 165.098 383.826 158.04 383.826 154.053V133.005C383.826 129.135 383.898 125.279 378.883 125.148C372.997 125.017 367.112 125.148 361.226 125.148C355.668 125.148 349.998 124.815 344.453 125.148C339.221 125.463 340.098 130.812 340.098 134.556V155.585C340.098 159.409 338.966 165.497 344.407 165.831C350.456 166.211 356.642 165.831 362.717 165.831H379.805C381.047 165.844 380.871 163.887 379.615 163.887Z" fill="#808C36"/>
<path d="M352.763 126.612L361.788 117.589L360.42 117.712L369.451 126.728C370.332 127.616 371.577 126.119 370.702 125.245L361.671 116.222C361.472 116.06 361.219 115.982 360.963 116.004C360.708 116.025 360.471 116.146 360.303 116.339L351.272 125.362C350.384 126.249 351.881 127.493 352.763 126.612Z" fill="#808C36"/>
<path d="M353.33 165.762L362.804 174.783C363.014 174.942 363.281 175.019 363.548 174.996C363.816 174.973 364.064 174.852 364.241 174.66L373.715 165.639C374.647 164.758 373.075 163.514 372.149 164.395L362.661 173.409L364.104 173.292L354.63 164.272C353.698 163.384 352.391 164.881 353.317 165.762H353.33Z" fill="#808C36"/>
<path d="M342.583 151.23L334.679 143.711C334.72 144.173 334.768 144.629 334.809 145.091L342.713 137.559C343.651 136.667 342.07 135.418 341.139 136.303L333.235 143.835C333.063 144.034 332.98 144.29 333.004 144.547C333.028 144.804 333.158 145.041 333.365 145.208L341.262 152.727C342.2 153.619 343.514 152.115 342.583 151.23Z" fill="#808C36"/>
<path d="M382.403 139.768L390.313 147.293C390.265 146.837 390.224 146.375 390.183 145.919L382.287 153.444C381.35 154.33 382.93 155.579 383.861 154.701L391.77 147.176C391.939 146.974 392.02 146.718 391.996 146.461C391.972 146.204 391.844 145.965 391.64 145.795L383.717 138.27C382.786 137.385 381.473 138.882 382.403 139.768Z" fill="#808C36"/>
<path d="M377.921 159.069H346.903L347.982 159.949V131.882L347.075 132.937H378.093L377.014 132.051V160.118C377.014 161.366 379 161.192 379 159.949V131.882C378.973 131.628 378.846 131.394 378.646 131.23C378.446 131.066 378.188 130.984 377.927 131.002H346.903C346.643 131.029 346.404 131.153 346.236 131.348C346.068 131.544 345.984 131.796 346.003 132.051V160.118C346.029 160.372 346.156 160.606 346.357 160.77C346.557 160.934 346.814 161.016 347.075 160.998H378.093C379.371 160.998 379.192 159.069 377.921 159.069Z" fill="#808C36"/>
<path d="M371.905 153.049H352.916L354.011 153.935V136.894L353.097 137.95H372.08L370.985 137.064V154.111C370.985 155.368 373 155.186 373 153.935V136.894C372.973 136.638 372.844 136.402 372.641 136.236C372.438 136.069 372.177 135.986 371.912 136.002H352.916C352.652 136.03 352.409 136.156 352.239 136.354C352.068 136.552 351.984 136.807 352.003 137.064V154.111C352.03 154.368 352.16 154.605 352.364 154.77C352.569 154.936 352.832 155.017 353.097 154.997H372.08C373.376 154.997 373.188 153.049 371.905 153.049Z" fill="#808C36"/>
<path d="M346.326 131.837L352.412 137.733C353.343 138.631 354.601 137.049 353.677 136.158L347.59 130.269C346.66 129.365 345.395 130.954 346.326 131.837Z" fill="#808C36"/>
<path d="M347.757 160.695L353.715 154.659C354.625 153.739 353.144 152.391 352.246 153.304L346.282 159.348C345.378 160.267 346.859 161.608 347.757 160.695Z" fill="#808C36"/>
<path d="M371.323 154.837L377.41 160.733C378.34 161.631 379.605 160.049 378.674 159.158L372.588 153.269C371.657 152.365 370.399 153.954 371.323 154.837Z" fill="#808C36"/>
<path d="M377.243 131.266L371.285 136.549C370.375 137.353 371.856 138.533 372.76 137.734L378.718 132.451C379.622 131.647 378.141 130.467 377.243 131.266Z" fill="#808C36"/>
<path d="M72.592 19.0677C66.4508 19.9355 60.96 24.3272 61.0002 30.7702C61.0404 38.0021 66.6252 45.7731 74.5899 44.9382C80.8987 44.2807 86.5638 39.0211 86.9661 32.736C87.1035 30.8694 86.8222 28.9959 86.1421 27.2473C85.462 25.4987 84.3996 23.9175 83.0296 22.6147C81.6595 21.3119 80.015 20.3192 78.2118 19.7064C76.4086 19.0936 74.4904 18.8756 72.592 19.0677C72.3253 19.0904 72.0787 19.216 71.9064 19.417C71.7342 19.6179 71.6504 19.8778 71.6735 20.1393C71.6966 20.4009 71.8248 20.6427 72.0297 20.8116C72.2346 20.9805 72.4996 21.0627 72.7663 21.04C74.4558 20.866 76.1634 21.0749 77.7574 21.6507C79.3515 22.2265 80.7893 23.1537 81.96 24.3608C83.1307 25.5678 84.0029 27.0225 84.5094 28.6126C85.0158 30.2027 85.143 31.8856 84.8811 33.5315C84.1168 38.436 79.3902 42.4727 74.4156 42.9921C67.7113 43.6956 63.2127 37.0357 63.0182 31.02C62.8372 25.5041 67.5638 21.8158 72.7663 21.0466C74.0402 20.8494 73.8725 18.9165 72.592 19.0677Z" fill="#9E4E0C"/>
<path d="M73.662 28.0377C70.8632 28.3566 67.2387 30.5308 69.9676 35.4194C72.6964 40.308 78.3641 37.4113 78.9238 33.6553C79.4836 29.8994 76.8807 27.6796 73.662 28.0377Z" fill="#9E4E0C"/>
<path d="M65.1265 17.3585C66.0186 19.0321 66.9083 20.7034 67.7956 22.3722C68.4462 23.5949 70.5312 22.857 69.8732 21.6488L67.2115 16.6278C66.5608 15.4051 64.4684 16.143 65.1265 17.3512V17.3585Z" fill="#9E4E0C"/>
<path d="M57.5786 26.8497L62.527 28.9088C63.752 29.4187 64.6379 27.6472 63.4129 27.1373L58.4576 25.0912C57.2326 24.5813 56.3813 26.3528 57.5717 26.8627L57.5786 26.8497Z" fill="#9E4E0C"/>
<path d="M57.4044 37.9642L63.3258 36.6178C64.6131 36.3205 63.8825 34.7441 62.5952 35.0358L56.6808 36.3822C55.3865 36.6795 56.1172 38.2559 57.3766 37.9642H57.4044Z" fill="#9E4E0C"/>
<path d="M66.5329 48.4837L68.8973 43.3341C69.3933 42.2544 67.9579 41.4174 67.4671 42.5163L65.1027 47.6659C64.6067 48.7456 66.0421 49.5826 66.5329 48.4837Z" fill="#9E4E0C"/>
<path d="M82.8826 47.5561L79.7659 42.4099C79.1586 41.4056 77.5302 42.4396 78.1308 43.4439L81.2341 48.5901C81.8414 49.5944 83.4698 48.5604 82.8692 47.5561H82.8826Z" fill="#9E4E0C"/>
<path d="M91.2137 35.1722L85.1115 34.0111C84.8635 33.9739 84.6102 34.0309 84.4055 34.17C84.2008 34.3091 84.0609 34.5192 84.0157 34.7555C83.9705 34.9919 84.0236 35.2359 84.1635 35.4353C84.3035 35.6348 84.5193 35.774 84.765 35.8233L90.8608 36.9844C91.1118 37.0292 91.3711 36.9767 91.5817 36.8385C91.7923 36.7002 91.9369 36.4875 91.9837 36.2472C92.0305 36.0069 91.9757 35.7586 91.8313 35.557C91.6869 35.3554 91.4647 35.217 91.2137 35.1722Z" fill="#9E4E0C"/>
<path d="M88.5204 22.178L84.4041 25.1244C83.3922 25.8193 84.4791 27.5496 85.491 26.8269L89.5948 23.8805C90.6067 23.1509 89.5261 21.4483 88.508 22.178H88.5204Z" fill="#9E4E0C"/>
<path d="M77.5956 15.7758L76.0421 20.8614C75.6578 22.116 78.02 22.4716 78.4044 21.2236C78.9249 19.5329 79.4454 17.8691 79.9579 16.1448C80.3422 14.8835 77.98 14.5279 77.5956 15.7758Z" fill="#9E4E0C"/>
<path d="M69.183 9.70688C70.5681 6.9618 72.078 4.29908 73.3383 1.47165H71.4281C72.4772 3.91025 73.3783 6.41553 74.1261 8.97258C74.5003 10.2422 76.2727 9.52845 75.9641 8.28631C75.2303 5.68728 74.3536 3.13469 73.3383 0.641272C73.2546 0.449956 73.1201 0.287809 72.9508 0.174122C72.7815 0.0604361 72.5845 0 72.3832 0C72.182 0 71.985 0.0604361 71.8156 0.174122C71.6463 0.287809 71.5118 0.449956 71.4281 0.641272C70.0591 3.39236 68.9213 6.26261 68.0277 9.21963C67.8176 9.9059 68.8614 10.3245 69.183 9.67943V9.70688Z" fill="#9E4E0C"/>
<path d="M55.2957 18.1927C54.5229 15.288 53.8966 12.3434 52.9973 9.47851L51.6249 10.8544C54.011 11.8714 56.3297 13.0392 58.5668 14.3507C59.5261 14.9091 60.5654 13.3205 59.6394 12.7023C58.1798 11.7931 56.667 10.9718 55.1091 10.2429C54.1232 9.75103 52.7574 8.66757 51.6315 9.09963C51.4173 9.20211 51.2416 9.37032 51.1301 9.57963C51.0186 9.78894 50.9772 10.0284 51.012 10.2628C51.2879 11.6332 51.71 12.9702 52.2711 14.251C52.8177 15.7644 53.4471 17.2467 54.1565 18.6912C54.4696 19.3559 55.4889 18.8374 55.2957 18.1728V18.1927Z" fill="#9E4E0C"/>
<path d="M53.3899 33.9185C51.1617 32.3406 48.6902 30.3814 46.5868 29.027C46.5182 29.6187 46.4495 30.217 46.3746 30.8087C48.6095 30.0555 50.8855 29.4452 53.1902 28.981C54.3386 28.7509 54.245 26.8574 53.0404 27.0086C50.6167 27.4589 48.2201 28.0583 45.8628 28.8035C45.1076 29.0073 44.6146 30.1184 45.3947 30.6575C47.7405 32.3362 50.2265 33.7864 52.8219 34.9902C52.9503 35.0138 53.0824 34.9945 53.1998 34.9351C53.3172 34.8756 53.414 34.7789 53.4766 34.6586C53.5393 34.5382 53.5646 34.4003 53.549 34.264C53.5335 34.1278 53.4778 34.0001 53.3899 33.8988V33.9185Z" fill="#9E4E0C"/>
<path d="M59.3878 48.5126C57.6044 48.7729 55.8082 48.9347 54.0248 49.2161C53.296 49.3286 52.5673 49.4201 51.845 49.5467C51.5893 49.5889 50.688 49.828 50.8606 49.7929C51.1675 50.3838 51.4998 50.9746 51.7939 51.5655C53.0487 49.1976 54.4341 46.9166 55.9424 44.7352C56.6775 43.666 55.3032 42.3365 54.4914 43.3776C52.9404 45.5672 51.5041 47.8524 50.1894 50.222C50.0757 50.3979 50.0103 50.6062 50.0011 50.822C49.992 51.0377 50.0394 51.2518 50.1378 51.4387C50.2362 51.6256 50.3814 51.7774 50.556 51.876C50.7307 51.9745 50.9274 52.0157 51.1227 51.9946C54.0004 51.5798 56.8347 50.8589 59.586 49.8421C60.2252 49.61 60.0973 48.4353 59.3878 48.5337V48.5126Z" fill="#9E4E0C"/>
<path d="M93.8541 18.7555C95.1733 16.0029 96.224 13.1312 96.9917 10.1798C97.0148 9.99803 96.9894 9.8134 96.9182 9.64434C96.847 9.47527 96.7324 9.32767 96.5858 9.21623C96.4392 9.1048 96.2658 9.03342 96.0827 9.0092C95.8997 8.98498 95.7134 9.00877 95.5426 9.0782C93.1039 10.1749 90.7312 11.4105 88.4363 12.7789C87.3594 13.4716 88.4828 15.0218 89.573 14.3885C91.7601 13.1137 94.0272 11.979 96.3602 10.9912L94.9841 9.63232C94.1598 12.2248 93.4419 15.4902 92.6841 18.3201C92.6799 18.4567 92.7185 18.5912 92.7946 18.705C92.8707 18.8188 92.9805 18.9064 93.109 18.9557C93.2374 19.0049 93.378 19.0134 93.5115 18.9799C93.645 18.9464 93.7647 18.8726 93.8541 18.7687V18.7555Z" fill="#9E4E0C"/>
<path d="M95.1004 34.9488C97.7276 33.7496 100.242 32.2956 102.61 30.6059C103.387 30.0468 102.883 28.9871 102.144 28.7791C99.8322 28.0445 97.48 27.4562 95.1004 27.0172C94.859 26.969 94.6093 27.023 94.406 27.1675C94.2027 27.312 94.0626 27.535 94.0165 27.7876C93.9703 28.0402 94.022 28.3017 94.16 28.5144C94.2981 28.7272 94.5112 28.8738 94.7525 28.9221C97.0831 29.3762 99.384 29.9842 101.641 30.7425L101.418 28.9871C99.1131 30.4759 96.8893 32.2378 94.6283 33.8306C94.1065 34.2011 94.4606 35.2414 95.1066 34.9488H95.1004Z" fill="#9E4E0C"/>
<path d="M88.3017 49.8345C90.1206 50.4914 91.9722 51.0351 93.8476 51.463C94.549 51.6188 95.2568 51.7958 95.9712 51.909C96.1855 51.9444 97.0362 52.0153 96.8544 51.994C97.0539 52.0165 97.2551 51.9754 97.4337 51.876C97.6123 51.7765 97.7606 51.6227 97.8609 51.4333C97.9611 51.2439 98.009 51.027 97.9986 50.8086C97.9883 50.5902 97.9201 50.3798 97.8025 50.2027C96.4909 47.8428 95.051 45.5706 93.4904 43.3983C92.7047 42.3787 91.1396 43.5116 91.9059 44.6091C93.3966 46.7637 94.7797 49.0043 96.0491 51.3214L97.1336 49.7778C94.4905 49.2539 91.3994 48.9353 88.5874 48.5317C88.4527 48.5457 88.3254 48.6054 88.2232 48.7022C88.1211 48.7991 88.0493 48.9283 88.0178 49.0718C87.9863 49.2153 87.9968 49.366 88.0477 49.5027C88.0986 49.6395 88.1874 49.7555 88.3017 49.8345Z" fill="#9E4E0C"/>
<path d="M75.9159 54.7412C74.3185 57.2038 72.3268 59.9153 70.9529 62.2327L72.7343 62.4678C72.0081 59.9839 71.422 57.457 70.9792 54.9003C70.7623 53.6206 68.8691 53.7312 69.0072 55.0663C69.4284 57.7583 70.0013 60.4215 70.7229 63.042C70.9266 63.8859 72.0047 64.4255 72.5766 63.5608C74.2779 60.9783 75.7542 58.2395 76.9873 55.3776C77.0146 55.2334 76.9976 55.0839 76.9387 54.9507C76.8798 54.8174 76.7822 54.7073 76.6598 54.6364C76.5375 54.5655 76.3969 54.5374 76.2584 54.5563C76.1199 54.5751 75.9907 54.6399 75.8896 54.7412H75.9159Z" fill="#9E4E0C"/>
</svg>
