<svg width="176" height="160" viewBox="0 0 176 160" fill="none" xmlns="http://www.w3.org/2000/svg">
<path d="M128.854 51.0958L112.212 35.1797C111.657 34.625 110.398 33.8483 110.065 33.1216C109.899 32.5991 109.85 32.0467 109.921 31.5033C109.992 30.9598 110.181 30.4385 110.475 29.9761C110.834 29.548 111.235 29.1577 111.673 28.8111C114.902 25.6563 118.135 22.5034 121.371 19.3524L126.247 14.5925C127.063 13.7992 127.945 12.5787 128.921 11.9796C131.767 10.2321 135.184 15.4191 136.721 16.9724L146.757 27.2023C148.587 29.0663 152.343 31.4628 149.78 34.3365C146.718 37.7427 142.873 40.7107 139.506 43.8451L134.008 48.9378C132.788 50.0473 130.929 52.6436 128.854 51.1125C128 50.4801 126.924 51.7505 127.789 52.3884C131.373 55.0346 134.402 50.824 136.843 48.5606L148.793 37.4653C151.145 35.2851 154.379 32.8497 151.411 29.5433C148.443 26.237 145.309 23.3078 142.23 20.2012C139.151 17.0945 136.272 13.7659 133.054 10.859C129.942 8.05188 127.445 11.0809 125.254 13.2167L113.438 24.7447C111.357 26.7751 106.359 30.0648 108.334 33.521C109.033 34.7415 110.442 35.74 111.435 36.6998L117.804 42.8022L127.789 52.3662C128.56 53.1152 129.626 51.8337 128.854 51.0958Z" fill="#BCBBC4"/>
<path d="M130.758 40.0998L122.126 31.4899C122.159 31.8838 122.198 32.2721 122.231 32.666L130.841 24.0506L129.67 24.156L138.297 32.7492C138.264 32.3609 138.23 31.967 138.192 31.5787L129.582 40.1886C128.822 40.9486 130.103 42.0137 130.858 41.2593L139.467 32.6494C139.607 32.4787 139.674 32.2606 139.655 32.0411C139.637 31.8217 139.534 31.618 139.368 31.4733C136.494 28.607 133.624 25.737 130.758 22.8634C130.587 22.7242 130.369 22.6568 130.149 22.6754C129.93 22.694 129.726 22.7972 129.582 22.9632L120.972 31.5953C120.838 31.764 120.774 31.9776 120.792 32.1921C120.811 32.4067 120.911 32.606 121.072 32.7492L129.687 41.3591C130.447 42.1358 131.507 40.8543 130.758 40.0998Z" fill="#BCBBC4"/>
<path d="M105.332 17.3494L139.794 51.8112L144.754 56.7707C145.514 57.5308 146.573 56.2493 145.824 55.4948L111.363 21.0385L106.403 16.1067C105.643 15.3467 104.578 16.6282 105.332 17.3771V17.3494Z" fill="#BCBBC4"/>
<path d="M114.175 8.50638L148.637 42.9682L153.596 47.9277C154.356 48.6878 155.422 47.4063 154.667 46.6518L120.205 12.2233L115.246 7.23043C114.491 6.47595 113.426 7.75191 114.175 8.50638Z" fill="#BCBBC4"/>
<path d="M119.163 21.8649L140.582 43.2898C141.342 44.0498 142.407 42.7683 141.653 42.0139L120.228 20.5945C119.473 19.8345 118.408 21.116 119.163 21.8649Z" fill="#BCBBC4"/>
<path d="M144.649 7.33581L110.192 41.7921L105.233 46.7572C104.473 47.5117 105.754 48.5768 106.503 47.8223L140.987 13.3661L145.947 8.4065C146.707 7.64647 145.425 6.58133 144.671 7.33581H144.649Z" fill="#BCBBC4"/>
<path d="M153.498 16.1786L119.036 50.6404L114.076 55.6C113.316 56.36 114.598 57.4196 115.352 56.6706L149.809 22.2088L154.768 17.2493C155.528 16.4892 154.247 15.4241 153.498 16.1786Z" fill="#BCBBC4"/>
<path d="M140.138 21.1601L118.713 42.585C117.953 43.3451 119.235 44.4102 119.989 43.6557L141.408 22.2086C142.168 21.4542 140.887 20.389 140.138 21.1379V21.1601Z" fill="#BCBBC4"/>
<path d="M12.1445 115.706C10.3109 117.411 9.69971 120.693 9.16797 123.04C8.25152 127.222 7.84112 131.498 7.9456 135.777C8.03116 139.445 8.44677 143.546 10.3415 146.779C12.2361 150.012 16.0316 151.613 19.7293 151.956C26.8252 152.604 37.2704 149.706 39.813 142.213C41.2798 137.886 41.2554 132.911 40.8337 128.407C40.5036 124.898 40.0025 120.241 37.6005 117.405C35.0579 114.429 29.8506 113.622 26.2263 113.212C21.6973 112.705 16.1477 112.65 12.3339 115.529C11.3927 116.238 12.4501 117.741 13.3913 117.026C16.5084 114.673 21.025 114.612 24.7533 114.911C28.1698 115.18 32.4787 115.73 35.333 117.815C37.7777 119.599 38.3339 123.535 38.7373 126.304C39.3717 130.325 39.3985 134.419 38.8168 138.448C38.2056 142.177 36.8243 144.829 33.5544 146.852C29.9668 149.021 25.859 150.178 21.6668 150.202C17.9691 150.202 13.7702 149.156 11.8389 145.715C10.2681 142.91 9.92584 139.432 9.80361 136.279C9.66606 132.34 9.98395 128.398 10.751 124.532C11.2155 122.16 11.6922 118.621 13.5746 116.886C14.412 116.085 13.0001 114.918 12.1445 115.706Z" fill="#A6838A"/>
<path d="M27.1672 121.286C17.6205 117.087 10.5918 138.118 21.0004 141.205C25.5659 142.555 28.903 137.415 30.1682 133.797C31.6778 129.439 31.6534 123.816 27.1795 121.286C26.1527 120.675 25.3765 122.362 26.3971 122.942C29.7159 124.825 29.6242 129.17 28.7013 132.404C27.919 135.142 25.6454 139.848 22.1861 139.567C17.5166 139.188 17.2293 132.727 18.2989 129.433C19.2951 126.377 22.4855 121.219 26.3971 122.942C27.4606 123.419 28.2491 121.757 27.1672 121.286Z" fill="#A6838A"/>
<path d="M25.0957 105.969V113.988C25.0957 115.168 26.9293 115.003 26.9293 113.829V105.804C26.9293 104.625 25.0957 104.796 25.0957 105.969Z" fill="#A6838A"/>
<path d="M13.0552 106.972C13.8049 109.645 14.5547 112.316 15.3044 114.984C15.6222 116.121 17.3396 115.479 17.0218 114.373C16.2762 111.704 15.5285 109.031 14.7788 106.354C14.4609 105.224 12.7435 105.865 13.0552 106.966V106.972Z" fill="#A6838A"/>
<path d="M35.2112 108.487L33.0537 115.925C32.7237 117.056 34.5328 117.38 34.8567 116.256L37.0142 108.817C37.3443 107.687 35.5351 107.363 35.2112 108.487Z" fill="#A6838A"/>
<path d="M26.9234 158.977V150.952C26.9234 149.773 25.0898 149.938 25.0898 151.111V159.142C25.0898 160.322 26.9234 160.151 26.9234 158.977Z" fill="#A6838A"/>
<path d="M14.8221 158.458C15.5678 155.785 16.3155 153.114 17.0652 150.445C17.383 149.309 15.5739 148.985 15.2622 150.115C14.5084 152.788 13.7607 155.459 13.0191 158.128C12.6952 159.265 14.5043 159.589 14.8527 158.458H14.8221Z" fill="#A6838A"/>
<path d="M36.946 155.983C36.2248 153.51 35.5056 151.033 34.7885 148.551C34.4646 147.421 32.741 148.062 33.0711 149.162C33.7923 151.644 34.5114 154.123 35.2286 156.601C35.5586 157.731 37.2761 157.09 36.946 155.959V155.983Z" fill="#A6838A"/>
<path d="M48.0577 131.199H40.0023C38.8227 131.199 38.9938 133.033 40.1612 133.033H48.1922C49.3718 133.033 49.2068 131.199 48.0333 131.199H48.0577Z" fill="#A6838A"/>
<path d="M47.2633 121.188L39.2445 123.431C38.1138 123.749 38.7555 125.466 39.8862 125.155L47.8989 122.905C49.0358 122.588 48.394 120.87 47.2878 121.188H47.2633Z" fill="#A6838A"/>
<path d="M46.9771 142.671L39.545 140.514C38.4082 140.184 38.0904 141.993 39.2089 142.347L46.647 144.505C47.7777 144.835 48.1017 143.026 46.9771 142.702V142.671Z" fill="#A6838A"/>
<path d="M0.966029 134.383H8.99705C10.1766 134.383 10.0055 132.55 8.83203 132.55H0.807114C-0.372481 132.55 -0.207454 134.383 0.966029 134.383Z" fill="#A6838A"/>
<path d="M1.73009 122.276L9.74278 124.526C10.8796 124.843 11.2035 123.034 10.0728 122.723L2.06013 120.473C0.923316 120.156 0.59939 121.965 1.73009 122.276Z" fill="#A6838A"/>
<path d="M1.49785 144.431L8.92991 142.274C10.0667 141.944 9.42497 140.227 8.31872 140.557L0.886662 142.714C-0.244037 143.038 0.397711 144.755 1.49785 144.431Z" fill="#A6838A"/>
<path d="M5.875 93.4062V91.25C5.875 90.125 5.84375 88.9688 5.78125 87.7812C5.78125 86.5938 5.78125 85.4375 5.78125 84.3125V79.1562C5.78125 77.8438 5.78125 76.5938 5.78125 75.4062C5.84375 74.1562 5.875 73.0938 5.875 72.2188V67.9062C5.875 66.9062 5.90625 65.9375 5.96875 65C6.09375 64.0625 6.28125 63.1562 6.53125 62.2812C6.78125 61.3438 7.15625 60.4688 7.65625 59.6562C7.96875 59.2188 8.21875 58.9688 8.40625 58.9062C8.59375 58.7812 8.96875 58.7188 9.53125 58.7188C9.78125 58.7188 10.125 58.7812 10.5625 58.9062C11.0625 58.9688 11.3125 59.2188 11.3125 59.6562V88.8125C11.3125 89.875 11.6562 90.6562 12.3438 91.1562C13.0312 91.6562 13.8438 92 14.7812 92.1875C15.7812 92.375 16.7812 92.4688 17.7812 92.4688H20.3125C23.0625 92.4688 25.8438 92.375 28.6562 92.1875C31.4688 92 34.25 91.8125 37 91.625C39.75 91.375 42.5 91.1875 45.25 91.0625C48.0625 90.875 50.875 90.7812 53.6875 90.7812H54.7188C55.0938 90.7812 55.3438 90.8438 55.4688 90.9688C55.6562 91.0938 55.7812 91.3438 55.8438 91.7188C55.9688 92.0938 56.0312 92.6562 56.0312 93.4062C56.0312 93.5938 55.875 93.8125 55.5625 94.0625C55.3125 94.25 55.0312 94.4062 54.7188 94.5312C54.2812 94.7812 53.8125 95.0312 53.3125 95.2812C52.5 95.3438 51.1875 95.4688 49.375 95.6562C47.625 95.7812 45.625 95.9375 43.375 96.125C41.1875 96.3125 38.875 96.5 36.4375 96.6875C34 96.875 31.6562 97.0625 29.4062 97.25C27.1562 97.4375 25.1562 97.5938 23.4062 97.7188C21.6562 97.8438 20.375 97.9375 19.5625 98H14.875C13.5625 98 12.3125 97.875 11.125 97.625C10 97.375 8.96875 96.9375 8.03125 96.3125C7.09375 95.625 6.375 94.6562 5.875 93.4062ZM58.75 86.9375C58.75 84.8125 59.125 82.625 59.875 80.375C60.625 78.125 61.6875 76.0625 63.0625 74.1875C64.5 72.3125 66.1875 70.7812 68.125 69.5938C70.0625 68.4062 72.2812 67.8125 74.7812 67.8125C78.2812 67.8125 81.2188 68.1562 83.5938 68.8438C85.9688 69.5312 87.9062 70.5938 89.4062 72.0312C90.9062 73.4062 91.9688 75.2188 92.5938 77.4688C93.2812 79.6562 93.625 82.25 93.625 85.25C93.625 85.4375 93.5938 85.8125 93.5312 86.375C93.5312 86.875 93.5312 87.4062 93.5312 87.9688C93.5312 88.5312 93.5 89.0938 93.4375 89.6562C93.4375 90.1562 93.4375 90.5312 93.4375 90.7812C93 92.3438 92.1562 93.625 90.9062 94.625C89.7188 95.5625 88.3125 96.2812 86.6875 96.7812C85.125 97.2812 83.4688 97.625 81.7188 97.8125C80.0312 98 78.5 98.0938 77.125 98.0938C75.1875 98.0938 73.1562 97.9688 71.0312 97.7188C68.9062 97.4688 66.9062 96.9688 65.0312 96.2188C63.2188 95.4062 61.7188 94.2812 60.5312 92.8438C59.3438 91.3438 58.75 89.375 58.75 86.9375ZM63.4375 85.7188C63.4375 87.3438 63.9062 88.6875 64.8438 89.75C65.8438 90.75 67.0312 91.5312 68.4062 92.0938C69.7812 92.6562 71.25 93.0312 72.8125 93.2188C74.4375 93.4062 75.8125 93.5 76.9375 93.5C78.0625 93.5 79.0312 93.5 79.8438 93.5C80.7188 93.5 81.5625 93.4062 82.375 93.2188C83.1875 93.0312 84.0312 92.75 84.9062 92.375C85.7812 92 86.8125 91.4688 88 90.7812C88.625 89.7812 88.9688 88.8125 89.0312 87.875C89.0938 86.875 89.125 85.8438 89.125 84.7812C89.125 82.6562 88.7188 80.7812 87.9062 79.1562C87.0938 77.5312 86 76.2188 84.625 75.2188C83.25 74.2188 81.5938 73.5625 79.6562 73.25C77.7812 72.875 75.6875 72.9062 73.375 73.3438C72.4375 73.5312 71.375 74.0938 70.1875 75.0312C69 75.9688 67.9062 77.0625 66.9062 78.3125C65.9062 79.5625 65.0625 80.875 64.375 82.25C63.75 83.5625 63.4375 84.7188 63.4375 85.7188ZM97.8438 120.688C98.5938 120.688 99.2812 121.031 99.9062 121.719C100.594 122.469 101.25 123.312 101.875 124.25C102.5 125.188 103.094 126.125 103.656 127.062C104.219 128.062 104.812 128.75 105.438 129.125C106.75 130.188 108.219 131.062 109.844 131.75C111.531 132.438 113.25 132.969 115 133.344C116.75 133.781 118.5 134.094 120.25 134.281C122.062 134.531 123.812 134.656 125.5 134.656C125.625 134.656 125.844 134.625 126.156 134.562C126.531 134.562 126.906 134.562 127.281 134.562C127.656 134.562 128 134.531 128.312 134.469C128.688 134.469 128.938 134.469 129.062 134.469C130 134.031 130.719 133.438 131.219 132.688C131.781 132 132.156 131.219 132.344 130.344C132.594 129.531 132.75 128.656 132.812 127.719C132.875 126.781 132.906 125.844 132.906 124.906C132.906 124.219 132.844 123.031 132.719 121.344C132.656 119.719 132.531 117.781 132.344 115.531C132.156 113.344 131.906 111.031 131.594 108.594C131.344 106.156 130.969 103.844 130.469 101.656C130.031 99.4688 129.469 97.5625 128.781 95.9375C128.094 94.3125 127.312 93.1875 126.438 92.5625C125.812 93.25 125.188 93.9375 124.562 94.625C123.938 95.25 123.219 95.8125 122.406 96.3125C121.656 96.8125 120.875 97.2188 120.062 97.5312C119.25 97.8438 118.344 98 117.344 98C115.344 98 113.219 97.7812 110.969 97.3438C108.719 96.9062 106.625 96.1562 104.688 95.0938C102.75 94.0312 101.156 92.6875 99.9062 91.0625C98.6562 89.375 98.0312 87.2812 98.0312 84.7812C98.0312 82.4688 98.6562 80.5312 99.9062 78.9688C101.156 77.3438 102.688 76.0625 104.5 75.125C106.375 74.125 108.406 73.4062 110.594 72.9688C112.781 72.5312 114.844 72.3125 116.781 72.3125C117.406 72.3125 118.156 72.3438 119.031 72.4062C119.969 72.4062 120.906 72.4688 121.844 72.5938C122.781 72.7188 123.656 72.9062 124.469 73.1562C125.281 73.4062 125.938 73.7812 126.438 74.2812C126.5 74.4062 126.562 74.75 126.625 75.3125C126.75 75.8125 126.844 76.375 126.906 77C127.031 77.625 127.125 78.2188 127.188 78.7812C127.25 79.3438 127.281 79.6562 127.281 79.7188C127.531 80.8438 127.875 81.9375 128.312 83C128.812 84 129.344 85.0625 129.906 86.1875C130.469 87.25 131 88.3125 131.5 89.375C132 90.4375 132.406 91.5 132.719 92.5625C134.406 97.9375 135.781 103.281 136.844 108.594C137.906 113.906 138.438 119.375 138.438 125C138.438 125.25 138.406 125.688 138.344 126.312C138.344 127 138.344 127.688 138.344 128.375C138.344 129.125 138.312 129.812 138.25 130.438C138.25 131.125 138.25 131.594 138.25 131.844C138.188 133.469 137.688 134.812 136.75 135.875C135.812 137 134.656 137.844 133.281 138.406C131.969 139.031 130.531 139.469 128.969 139.719C127.469 140.031 126.125 140.188 124.938 140.188C122.938 140.188 120.844 140 118.656 139.625C116.531 139.312 114.469 138.812 112.469 138.125C110.469 137.438 108.562 136.562 106.75 135.5C105 134.5 103.469 133.281 102.156 131.844C100.844 130.406 99.7812 128.781 98.9688 126.969C98.2188 125.156 97.8438 123.062 97.8438 120.688ZM103.469 85.3438C103.469 86.5938 103.844 87.6875 104.594 88.625C105.344 89.5625 106.281 90.3438 107.406 90.9688C108.531 91.5312 109.719 91.9688 110.969 92.2812C112.219 92.5312 113.312 92.6562 114.25 92.6562C117.812 92.6562 120.281 91.7812 121.656 90.0312C123.031 88.2188 123.719 85.5938 123.719 82.1562C123.719 81.1562 123.531 80.375 123.156 79.8125C122.781 79.1875 122.281 78.75 121.656 78.5C121.031 78.25 120.312 78.0938 119.5 78.0312C118.688 77.9062 117.875 77.8438 117.062 77.8438C115.938 77.8438 114.594 77.9688 113.031 78.2188C111.469 78.4062 109.969 78.7812 108.531 79.3438C107.156 79.9062 105.969 80.6875 104.969 81.6875C103.969 82.625 103.469 83.8438 103.469 85.3438ZM138.25 86.9375C138.25 84.8125 138.625 82.625 139.375 80.375C140.125 78.125 141.188 76.0625 142.562 74.1875C144 72.3125 145.688 70.7812 147.625 69.5938C149.562 68.4062 151.781 67.8125 154.281 67.8125C157.781 67.8125 160.719 68.1562 163.094 68.8438C165.469 69.5312 167.406 70.5938 168.906 72.0312C170.406 73.4062 171.469 75.2188 172.094 77.4688C172.781 79.6562 173.125 82.25 173.125 85.25C173.125 85.4375 173.094 85.8125 173.031 86.375C173.031 86.875 173.031 87.4062 173.031 87.9688C173.031 88.5312 173 89.0938 172.938 89.6562C172.938 90.1562 172.938 90.5312 172.938 90.7812C172.5 92.3438 171.656 93.625 170.406 94.625C169.219 95.5625 167.812 96.2812 166.188 96.7812C164.625 97.2812 162.969 97.625 161.219 97.8125C159.531 98 158 98.0938 156.625 98.0938C154.688 98.0938 152.656 97.9688 150.531 97.7188C148.406 97.4688 146.406 96.9688 144.531 96.2188C142.719 95.4062 141.219 94.2812 140.031 92.8438C138.844 91.3438 138.25 89.375 138.25 86.9375ZM142.938 85.7188C142.938 87.3438 143.406 88.6875 144.344 89.75C145.344 90.75 146.531 91.5312 147.906 92.0938C149.281 92.6562 150.75 93.0312 152.312 93.2188C153.938 93.4062 155.312 93.5 156.438 93.5C157.562 93.5 158.531 93.5 159.344 93.5C160.219 93.5 161.062 93.4062 161.875 93.2188C162.688 93.0312 163.531 92.75 164.406 92.375C165.281 92 166.312 91.4688 167.5 90.7812C168.125 89.7812 168.469 88.8125 168.531 87.875C168.594 86.875 168.625 85.8438 168.625 84.7812C168.625 82.6562 168.219 80.7812 167.406 79.1562C166.594 77.5312 165.5 76.2188 164.125 75.2188C162.75 74.2188 161.094 73.5625 159.156 73.25C157.281 72.875 155.188 72.9062 152.875 73.3438C151.938 73.5312 150.875 74.0938 149.688 75.0312C148.5 75.9688 147.406 77.0625 146.406 78.3125C145.406 79.5625 144.562 80.875 143.875 82.25C143.25 83.5625 142.938 84.7188 142.938 85.7188Z" fill="#E1E1E1"/>
<path d="M1.875 88.4062V86.25C1.875 85.125 1.84375 83.9688 1.78125 82.7812C1.78125 81.5938 1.78125 80.4375 1.78125 79.3125V74.1562C1.78125 72.8438 1.78125 71.5938 1.78125 70.4062C1.84375 69.1562 1.875 68.0938 1.875 67.2188V62.9062C1.875 61.9062 1.90625 60.9375 1.96875 60C2.09375 59.0625 2.28125 58.1562 2.53125 57.2812C2.78125 56.3438 3.15625 55.4688 3.65625 54.6562C3.96875 54.2188 4.21875 53.9688 4.40625 53.9062C4.59375 53.7812 4.96875 53.7188 5.53125 53.7188C5.78125 53.7188 6.125 53.7812 6.5625 53.9062C7.0625 53.9688 7.3125 54.2188 7.3125 54.6562V83.8125C7.3125 84.875 7.65625 85.6562 8.34375 86.1562C9.03125 86.6562 9.84375 87 10.7812 87.1875C11.7812 87.375 12.7812 87.4688 13.7812 87.4688H16.3125C19.0625 87.4688 21.8438 87.375 24.6562 87.1875C27.4688 87 30.25 86.8125 33 86.625C35.75 86.375 38.5 86.1875 41.25 86.0625C44.0625 85.875 46.875 85.7812 49.6875 85.7812H50.7188C51.0938 85.7812 51.3438 85.8438 51.4688 85.9688C51.6562 86.0938 51.7812 86.3438 51.8438 86.7188C51.9688 87.0938 52.0312 87.6562 52.0312 88.4062C52.0312 88.5938 51.875 88.8125 51.5625 89.0625C51.3125 89.25 51.0312 89.4062 50.7188 89.5312C50.2812 89.7812 49.8125 90.0312 49.3125 90.2812C48.5 90.3438 47.1875 90.4688 45.375 90.6562C43.625 90.7812 41.625 90.9375 39.375 91.125C37.1875 91.3125 34.875 91.5 32.4375 91.6875C30 91.875 27.6562 92.0625 25.4062 92.25C23.1562 92.4375 21.1562 92.5938 19.4062 92.7188C17.6562 92.8438 16.375 92.9375 15.5625 93H10.875C9.5625 93 8.3125 92.875 7.125 92.625C6 92.375 4.96875 91.9375 4.03125 91.3125C3.09375 90.625 2.375 89.6562 1.875 88.4062ZM54.75 81.9375C54.75 79.8125 55.125 77.625 55.875 75.375C56.625 73.125 57.6875 71.0625 59.0625 69.1875C60.5 67.3125 62.1875 65.7812 64.125 64.5938C66.0625 63.4062 68.2812 62.8125 70.7812 62.8125C74.2812 62.8125 77.2188 63.1562 79.5938 63.8438C81.9688 64.5312 83.9062 65.5938 85.4062 67.0312C86.9062 68.4062 87.9688 70.2188 88.5938 72.4688C89.2812 74.6562 89.625 77.25 89.625 80.25C89.625 80.4375 89.5938 80.8125 89.5312 81.375C89.5312 81.875 89.5312 82.4062 89.5312 82.9688C89.5312 83.5312 89.5 84.0938 89.4375 84.6562C89.4375 85.1562 89.4375 85.5312 89.4375 85.7812C89 87.3438 88.1562 88.625 86.9062 89.625C85.7188 90.5625 84.3125 91.2812 82.6875 91.7812C81.125 92.2812 79.4688 92.625 77.7188 92.8125C76.0312 93 74.5 93.0938 73.125 93.0938C71.1875 93.0938 69.1562 92.9688 67.0312 92.7188C64.9062 92.4688 62.9062 91.9688 61.0312 91.2188C59.2188 90.4062 57.7188 89.2812 56.5312 87.8438C55.3438 86.3438 54.75 84.375 54.75 81.9375ZM59.4375 80.7188C59.4375 82.3438 59.9062 83.6875 60.8438 84.75C61.8438 85.75 63.0312 86.5312 64.4062 87.0938C65.7812 87.6562 67.25 88.0312 68.8125 88.2188C70.4375 88.4062 71.8125 88.5 72.9375 88.5C74.0625 88.5 75.0312 88.5 75.8438 88.5C76.7188 88.5 77.5625 88.4062 78.375 88.2188C79.1875 88.0312 80.0312 87.75 80.9062 87.375C81.7812 87 82.8125 86.4688 84 85.7812C84.625 84.7812 84.9688 83.8125 85.0312 82.875C85.0938 81.875 85.125 80.8438 85.125 79.7812C85.125 77.6562 84.7188 75.7812 83.9062 74.1562C83.0938 72.5312 82 71.2188 80.625 70.2188C79.25 69.2188 77.5938 68.5625 75.6562 68.25C73.7812 67.875 71.6875 67.9062 69.375 68.3438C68.4375 68.5312 67.375 69.0938 66.1875 70.0312C65 70.9688 63.9062 72.0625 62.9062 73.3125C61.9062 74.5625 61.0625 75.875 60.375 77.25C59.75 78.5625 59.4375 79.7188 59.4375 80.7188ZM93.8438 115.688C94.5938 115.688 95.2812 116.031 95.9062 116.719C96.5938 117.469 97.25 118.312 97.875 119.25C98.5 120.188 99.0938 121.125 99.6562 122.062C100.219 123.062 100.812 123.75 101.438 124.125C102.75 125.188 104.219 126.062 105.844 126.75C107.531 127.438 109.25 127.969 111 128.344C112.75 128.781 114.5 129.094 116.25 129.281C118.062 129.531 119.812 129.656 121.5 129.656C121.625 129.656 121.844 129.625 122.156 129.562C122.531 129.562 122.906 129.562 123.281 129.562C123.656 129.562 124 129.531 124.312 129.469C124.688 129.469 124.938 129.469 125.062 129.469C126 129.031 126.719 128.438 127.219 127.688C127.781 127 128.156 126.219 128.344 125.344C128.594 124.531 128.75 123.656 128.812 122.719C128.875 121.781 128.906 120.844 128.906 119.906C128.906 119.219 128.844 118.031 128.719 116.344C128.656 114.719 128.531 112.781 128.344 110.531C128.156 108.344 127.906 106.031 127.594 103.594C127.344 101.156 126.969 98.8438 126.469 96.6562C126.031 94.4688 125.469 92.5625 124.781 90.9375C124.094 89.3125 123.312 88.1875 122.438 87.5625C121.812 88.25 121.188 88.9375 120.562 89.625C119.938 90.25 119.219 90.8125 118.406 91.3125C117.656 91.8125 116.875 92.2188 116.062 92.5312C115.25 92.8438 114.344 93 113.344 93C111.344 93 109.219 92.7812 106.969 92.3438C104.719 91.9062 102.625 91.1562 100.688 90.0938C98.75 89.0312 97.1562 87.6875 95.9062 86.0625C94.6562 84.375 94.0312 82.2812 94.0312 79.7812C94.0312 77.4688 94.6562 75.5312 95.9062 73.9688C97.1562 72.3438 98.6875 71.0625 100.5 70.125C102.375 69.125 104.406 68.4062 106.594 67.9688C108.781 67.5312 110.844 67.3125 112.781 67.3125C113.406 67.3125 114.156 67.3438 115.031 67.4062C115.969 67.4062 116.906 67.4688 117.844 67.5938C118.781 67.7188 119.656 67.9062 120.469 68.1562C121.281 68.4062 121.938 68.7812 122.438 69.2812C122.5 69.4062 122.562 69.75 122.625 70.3125C122.75 70.8125 122.844 71.375 122.906 72C123.031 72.625 123.125 73.2188 123.188 73.7812C123.25 74.3438 123.281 74.6562 123.281 74.7188C123.531 75.8438 123.875 76.9375 124.312 78C124.812 79 125.344 80.0625 125.906 81.1875C126.469 82.25 127 83.3125 127.5 84.375C128 85.4375 128.406 86.5 128.719 87.5625C130.406 92.9375 131.781 98.2812 132.844 103.594C133.906 108.906 134.438 114.375 134.438 120C134.438 120.25 134.406 120.688 134.344 121.312C134.344 122 134.344 122.688 134.344 123.375C134.344 124.125 134.312 124.812 134.25 125.438C134.25 126.125 134.25 126.594 134.25 126.844C134.188 128.469 133.688 129.812 132.75 130.875C131.812 132 130.656 132.844 129.281 133.406C127.969 134.031 126.531 134.469 124.969 134.719C123.469 135.031 122.125 135.188 120.938 135.188C118.938 135.188 116.844 135 114.656 134.625C112.531 134.312 110.469 133.812 108.469 133.125C106.469 132.438 104.562 131.562 102.75 130.5C101 129.5 99.4688 128.281 98.1562 126.844C96.8438 125.406 95.7812 123.781 94.9688 121.969C94.2188 120.156 93.8438 118.062 93.8438 115.688ZM99.4688 80.3438C99.4688 81.5938 99.8438 82.6875 100.594 83.625C101.344 84.5625 102.281 85.3438 103.406 85.9688C104.531 86.5312 105.719 86.9688 106.969 87.2812C108.219 87.5312 109.312 87.6562 110.25 87.6562C113.812 87.6562 116.281 86.7812 117.656 85.0312C119.031 83.2188 119.719 80.5938 119.719 77.1562C119.719 76.1562 119.531 75.375 119.156 74.8125C118.781 74.1875 118.281 73.75 117.656 73.5C117.031 73.25 116.312 73.0938 115.5 73.0312C114.688 72.9062 113.875 72.8438 113.062 72.8438C111.938 72.8438 110.594 72.9688 109.031 73.2188C107.469 73.4062 105.969 73.7812 104.531 74.3438C103.156 74.9062 101.969 75.6875 100.969 76.6875C99.9688 77.625 99.4688 78.8438 99.4688 80.3438ZM134.25 81.9375C134.25 79.8125 134.625 77.625 135.375 75.375C136.125 73.125 137.188 71.0625 138.562 69.1875C140 67.3125 141.688 65.7812 143.625 64.5938C145.562 63.4062 147.781 62.8125 150.281 62.8125C153.781 62.8125 156.719 63.1562 159.094 63.8438C161.469 64.5312 163.406 65.5938 164.906 67.0312C166.406 68.4062 167.469 70.2188 168.094 72.4688C168.781 74.6562 169.125 77.25 169.125 80.25C169.125 80.4375 169.094 80.8125 169.031 81.375C169.031 81.875 169.031 82.4062 169.031 82.9688C169.031 83.5312 169 84.0938 168.938 84.6562C168.938 85.1562 168.938 85.5312 168.938 85.7812C168.5 87.3438 167.656 88.625 166.406 89.625C165.219 90.5625 163.812 91.2812 162.188 91.7812C160.625 92.2812 158.969 92.625 157.219 92.8125C155.531 93 154 93.0938 152.625 93.0938C150.688 93.0938 148.656 92.9688 146.531 92.7188C144.406 92.4688 142.406 91.9688 140.531 91.2188C138.719 90.4062 137.219 89.2812 136.031 87.8438C134.844 86.3438 134.25 84.375 134.25 81.9375ZM138.938 80.7188C138.938 82.3438 139.406 83.6875 140.344 84.75C141.344 85.75 142.531 86.5312 143.906 87.0938C145.281 87.6562 146.75 88.0312 148.312 88.2188C149.938 88.4062 151.312 88.5 152.438 88.5C153.562 88.5 154.531 88.5 155.344 88.5C156.219 88.5 157.062 88.4062 157.875 88.2188C158.688 88.0312 159.531 87.75 160.406 87.375C161.281 87 162.312 86.4688 163.5 85.7812C164.125 84.7812 164.469 83.8125 164.531 82.875C164.594 81.875 164.625 80.8438 164.625 79.7812C164.625 77.6562 164.219 75.7812 163.406 74.1562C162.594 72.5312 161.5 71.2188 160.125 70.2188C158.75 69.2188 157.094 68.5625 155.156 68.25C153.281 67.875 151.188 67.9062 148.875 68.3438C147.938 68.5312 146.875 69.0938 145.688 70.0312C144.5 70.9688 143.406 72.0625 142.406 73.3125C141.406 74.5625 140.562 75.875 139.875 77.25C139.25 78.5625 138.938 79.7188 138.938 80.7188Z" fill="#4A1520"/>
</svg>
