<svg width="322" height="184" viewBox="0 0 322 184" fill="none" xmlns="http://www.w3.org/2000/svg">
<path d="M51.8525 178.096L35.2096 162.18C34.6549 161.625 33.3956 160.848 33.0627 160.122C32.8971 159.599 32.8481 159.047 32.919 158.503C32.9899 157.96 33.1791 157.439 33.4732 156.976C33.832 156.548 34.2335 156.158 34.6715 155.811C37.9002 152.656 41.1326 149.503 44.3687 146.352L49.2451 141.593C50.0606 140.799 50.9427 139.579 51.9191 138.98C54.765 137.232 58.1823 142.419 59.719 143.972L69.7546 154.202C71.5854 156.066 75.3411 158.463 72.7781 161.336C69.7158 164.743 65.8713 167.711 62.5039 170.845L57.0062 175.938C55.7857 177.047 53.9273 179.644 51.8525 178.112C50.9982 177.48 49.9219 178.75 50.7873 179.388C54.3711 182.035 57.4001 177.824 59.8411 175.561L71.7906 164.465C74.1428 162.285 77.3771 159.85 74.4091 156.543C71.4411 153.237 68.3067 150.308 65.2278 147.201C62.1489 144.094 59.2697 140.766 56.052 137.859C52.9398 135.052 50.4434 138.081 48.2521 140.217L36.4357 151.745C34.3553 153.775 29.3569 157.065 31.3318 160.521C32.0308 161.741 33.4399 162.74 34.433 163.7L40.8016 169.802L50.7873 179.366C51.5585 180.115 52.6236 178.834 51.8525 178.096Z" fill="#BCBBC4"/>
<path d="M53.7577 167.1L45.1256 158.49C45.1589 158.884 45.1978 159.272 45.231 159.666L53.8409 151.051L52.6704 151.156L61.2969 159.749C61.2637 159.361 61.2304 158.967 61.1915 158.579L52.5816 167.189C51.8216 167.949 53.1031 169.014 53.8576 168.259L62.4675 159.649C62.6067 159.479 62.6741 159.261 62.6554 159.041C62.6368 158.822 62.5336 158.618 62.3676 158.473C59.494 155.607 56.624 152.737 53.7577 149.863C53.587 149.724 53.3689 149.657 53.1495 149.675C52.93 149.694 52.7264 149.797 52.5816 149.963L43.9717 158.595C43.8379 158.764 43.7736 158.978 43.7922 159.192C43.8108 159.407 43.9107 159.606 44.0716 159.749L52.687 168.359C53.4471 169.136 54.5067 167.854 53.7577 167.1Z" fill="#BCBBC4"/>
<path d="M28.3324 144.349L62.7942 178.811L67.7538 183.771C68.5138 184.531 69.5734 183.249 68.8245 182.495L34.3626 148.039L29.4031 143.107C28.6431 142.347 27.5779 143.628 28.3324 144.377V144.349Z" fill="#BCBBC4"/>
<path d="M37.177 135.506L71.6388 169.968L76.5984 174.928C77.3584 175.688 78.4235 174.406 77.6691 173.652L43.2073 139.223L38.2477 134.23C37.4932 133.476 36.4281 134.752 37.177 135.506Z" fill="#BCBBC4"/>
<path d="M42.1645 148.865L63.5839 170.29C64.3439 171.05 65.409 169.768 64.6545 169.014L43.2296 147.595C42.4752 146.834 41.41 148.116 42.1645 148.865Z" fill="#BCBBC4"/>
<path d="M67.6485 134.336L33.1923 168.792L28.2327 173.757C27.4727 174.512 28.7542 175.577 29.5031 174.822L63.9871 140.366L68.9467 135.406C69.7067 134.646 68.4252 133.581 67.6707 134.336H67.6485Z" fill="#BCBBC4"/>
<path d="M76.4978 143.179L42.036 177.64L37.0764 182.6C36.3164 183.36 37.5979 184.42 38.3523 183.671L72.8086 149.209L77.7682 144.249C78.5282 143.489 77.2467 142.424 76.4978 143.179Z" fill="#BCBBC4"/>
<path d="M63.138 148.16L41.7131 169.585C40.9531 170.345 42.2346 171.41 42.9891 170.656L64.4084 149.209C65.1684 148.454 63.8869 147.389 63.138 148.138V148.16Z" fill="#BCBBC4"/>
<path d="M285.144 10.706C283.311 12.4112 282.7 15.6933 282.168 18.0403C281.252 22.2217 280.841 26.4981 280.946 30.7775C281.031 34.4446 281.447 38.5457 283.341 41.7789C285.236 45.0121 289.032 46.6134 292.729 46.9556C299.825 47.6035 310.27 44.7065 312.813 37.2133C314.28 32.8861 314.255 27.911 313.834 23.4065C313.504 19.8983 313.002 15.241 310.6 12.4051C308.058 9.42863 302.851 8.62187 299.226 8.21237C294.697 7.70508 289.148 7.65006 285.334 10.5288C284.393 11.2377 285.45 12.7413 286.391 12.0262C289.508 9.67311 294.025 9.61199 297.753 9.91148C301.17 10.1804 305.479 10.7305 308.333 12.8146C310.778 14.5993 311.334 18.5353 311.737 21.304C312.372 25.3253 312.399 29.4191 311.817 33.4484C311.206 37.1766 309.824 39.8292 306.554 41.8522C302.967 44.0211 298.859 45.1784 294.667 45.2015C290.969 45.2015 286.77 44.1564 284.839 40.7154C283.268 37.91 282.926 34.4324 282.804 31.2786C282.666 27.3395 282.984 23.3977 283.751 19.5316C284.215 17.1602 284.692 13.6214 286.575 11.8856C287.412 11.0849 286 9.91758 285.144 10.706Z" fill="#A6838A"/>
<path d="M300.167 16.286C290.62 12.0871 283.592 33.1181 294 36.2046C298.566 37.5554 301.903 32.4153 303.168 28.797C304.678 24.4392 304.653 18.8163 300.179 16.286C299.153 15.6748 298.376 17.3617 299.397 17.9423C302.716 19.8248 302.624 24.1703 301.701 27.4035C300.919 30.1416 298.645 34.8478 295.186 34.5666C290.517 34.1877 290.229 27.7274 291.299 24.4331C292.295 21.3772 295.486 16.2187 299.397 17.9423C300.461 18.419 301.249 16.7566 300.167 16.286Z" fill="#A6838A"/>
<path d="M298.094 0.969408V8.98821C298.094 10.1678 299.927 10.0028 299.927 8.82929V0.804375C299.927 -0.37522 298.094 -0.204075 298.094 0.969408Z" fill="#A6838A"/>
<path d="M286.057 1.97172C286.807 4.64466 287.557 7.31556 288.306 9.98442C288.624 11.1212 290.342 10.4795 290.024 9.37323C289.278 6.70437 288.53 4.03144 287.781 1.35444C287.463 0.223736 285.745 0.865485 286.057 1.96563V1.97172Z" fill="#A6838A"/>
<path d="M308.209 3.48731L306.052 10.9255C305.722 12.0562 307.531 12.3801 307.855 11.2555L310.012 3.81736C310.342 2.68666 308.533 2.36273 308.209 3.48731Z" fill="#A6838A"/>
<path d="M299.923 53.977V45.9521C299.923 44.7725 298.09 44.9376 298.09 46.111V54.1421C298.09 55.3217 299.923 55.1505 299.923 53.977Z" fill="#A6838A"/>
<path d="M287.822 53.4581C288.568 50.7852 289.315 48.1142 290.065 45.4454C290.383 44.3086 288.574 43.9846 288.262 45.1153C287.508 47.7883 286.761 50.4592 286.019 53.128C285.695 54.2649 287.504 54.5888 287.853 53.4581H287.822Z" fill="#A6838A"/>
<path d="M309.948 50.9833C309.227 48.51 308.508 46.0326 307.79 43.5512C307.467 42.4205 305.743 43.0623 306.073 44.1624C306.794 46.6438 307.513 49.1232 308.231 51.6006C308.561 52.7313 310.278 52.0895 309.948 50.9588V50.9833Z" fill="#A6838A"/>
<path d="M321.06 26.1992H313.004C311.825 26.1992 311.996 28.0328 313.163 28.0328H321.194C322.374 28.0328 322.209 26.1992 321.035 26.1992H321.06Z" fill="#A6838A"/>
<path d="M320.263 16.188L312.245 18.431C311.114 18.7489 311.756 20.4663 312.886 20.1546L320.899 17.9054C322.036 17.5876 321.394 15.8702 320.288 16.188H320.263Z" fill="#A6838A"/>
<path d="M319.975 37.6712L312.543 35.5137C311.406 35.1836 311.088 36.9927 312.207 37.3472L319.645 39.5047C320.776 39.8348 321.1 38.0257 319.975 37.7017V37.6712Z" fill="#A6838A"/>
<path d="M273.966 29.3834H281.997C283.177 29.3834 283.006 27.5498 281.832 27.5498H273.807C272.628 27.5498 272.793 29.3834 273.966 29.3834Z" fill="#A6838A"/>
<path d="M274.73 17.2763L282.743 19.5255C283.88 19.8433 284.204 18.0342 283.073 17.7225L275.06 15.4733C273.923 15.1555 273.599 16.9646 274.73 17.2763Z" fill="#A6838A"/>
<path d="M274.498 39.4315L281.93 37.274C283.067 36.944 282.425 35.2265 281.319 35.5566L273.887 37.7141C272.756 38.038 273.398 39.7554 274.498 39.4315Z" fill="#A6838A"/>
<path d="M4.75 108.25C4.75 107.625 4.75 106.688 4.75 105.438C4.8125 104.188 4.90625 102.844 5.03125 101.406C5.21875 99.9062 5.40625 98.4062 5.59375 96.9062C5.78125 95.3438 6.03125 93.9375 6.34375 92.6875C6.71875 91.375 7.1875 90.3125 7.75 89.5C8.375 88.6875 9.09375 88.2812 9.90625 88.2812C9.96875 88.2812 10 88.2812 10 88.2812C10.0625 88.2812 10.125 88.2812 10.1875 88.2812C10.25 88.3438 10.3438 88.375 10.4688 88.375C10.5312 88.4375 10.6562 88.5625 10.8438 88.75C11.0312 88.875 11.2188 89.0312 11.4062 89.2188C11.5938 89.4062 11.75 89.625 11.875 89.875C12.0625 90.0625 12.1875 90.1875 12.25 90.25C11.6875 91.4375 11.2812 92.4062 11.0312 93.1562C10.7812 93.8438 10.5938 94.4375 10.4688 94.9375C10.3438 95.4375 10.3125 95.875 10.375 96.25C10.4375 96.5625 10.5 96.9688 10.5625 97.4688C10.625 97.9062 10.6875 98.5 10.75 99.25C10.8125 99.9375 10.8438 100.844 10.8438 101.969C11.9062 101.969 13.2188 101.875 14.7812 101.688C16.4062 101.5 18.0625 101.25 19.75 100.938C21.5 100.562 23.2188 100.094 24.9062 99.5312C26.6562 98.9688 28.2188 98.2812 29.5938 97.4688C30.9688 96.5938 32.0625 95.5938 32.875 94.4688C33.75 93.3438 34.1875 92 34.1875 90.4375C34.1875 89.5 33.625 88.6875 32.5 88C31.375 87.3125 29.9375 86.75 28.1875 86.3125C26.4375 85.875 24.5 85.5625 22.375 85.375C20.3125 85.125 18.2812 84.9688 16.2812 84.9062C14.3438 84.7812 12.5625 84.7188 10.9375 84.7188C9.375 84.7188 8.28125 84.7188 7.65625 84.7188C7.15625 84.5312 6.84375 84.2812 6.71875 83.9688C6.65625 83.5938 6.625 83.2188 6.625 82.8438C6.625 82.1562 6.75 81.625 7 81.25C7.3125 80.875 7.84375 80.5312 8.59375 80.2188C8.78125 80.2188 9.09375 80.2188 9.53125 80.2188C10.0312 80.2188 10.5312 80.2188 11.0312 80.2188C11.5938 80.2188 12.0938 80.2188 12.5312 80.2188C13.0312 80.1562 13.4062 80.125 13.6562 80.125C15.4062 80.125 16.9688 80.1562 18.3438 80.2188C19.7188 80.2188 21.0938 80.3125 22.4688 80.5C23.8438 80.625 25.3125 80.8125 26.875 81.0625C28.4375 81.25 30.25 81.5625 32.3125 82C33.4375 82.6875 34.4375 83.25 35.3125 83.6875C36.25 84.0625 37.0625 84.5312 37.75 85.0938C38.4375 85.5938 38.9375 86.2812 39.25 87.1562C39.5625 87.9688 39.7188 89.1875 39.7188 90.8125C39.7188 92.9375 39.1875 94.7812 38.125 96.3438C37.125 97.9062 35.8125 99.2812 34.1875 100.469C32.5625 101.594 30.6875 102.562 28.5625 103.375C26.5 104.125 24.375 104.781 22.1875 105.344C20 105.844 17.875 106.281 15.8125 106.656C13.75 107.031 11.9688 107.344 10.4688 107.594V110.781C10.4688 111.906 10.4688 112.875 10.4688 113.688C10.5312 114.5 10.5625 115.344 10.5625 116.219C10.625 117.031 10.7188 117.906 10.8438 118.844C10.9688 119.781 11.0938 120.875 11.2188 122.125C10.9062 122.688 10.4688 123.156 9.90625 123.531C9.34375 123.844 8.75 124 8.125 124C7.3125 124 6.6875 123.688 6.25 123.062C5.8125 122.375 5.46875 121.531 5.21875 120.531C4.96875 119.469 4.8125 118.344 4.75 117.156C4.6875 115.906 4.65625 114.688 4.65625 113.5C4.71875 112.312 4.75 111.25 4.75 110.312C4.75 109.375 4.75 108.688 4.75 108.25ZM43.1875 112.938C43.1875 110.812 43.5625 108.625 44.3125 106.375C45.0625 104.125 46.125 102.062 47.5 100.188C48.9375 98.3125 50.625 96.7812 52.5625 95.5938C54.5 94.4062 56.7188 93.8125 59.2188 93.8125C62.7188 93.8125 65.6562 94.1562 68.0312 94.8438C70.4062 95.5312 72.3438 96.5938 73.8438 98.0312C75.3438 99.4062 76.4062 101.219 77.0312 103.469C77.7188 105.656 78.0625 108.25 78.0625 111.25C78.0625 111.438 78.0312 111.812 77.9688 112.375C77.9688 112.875 77.9688 113.406 77.9688 113.969C77.9688 114.531 77.9375 115.094 77.875 115.656C77.875 116.156 77.875 116.531 77.875 116.781C77.4375 118.344 76.5938 119.625 75.3438 120.625C74.1562 121.562 72.75 122.281 71.125 122.781C69.5625 123.281 67.9062 123.625 66.1562 123.812C64.4688 124 62.9375 124.094 61.5625 124.094C59.625 124.094 57.5938 123.969 55.4688 123.719C53.3438 123.469 51.3438 122.969 49.4688 122.219C47.6562 121.406 46.1562 120.281 44.9688 118.844C43.7812 117.344 43.1875 115.375 43.1875 112.938ZM47.875 111.719C47.875 113.344 48.3438 114.688 49.2812 115.75C50.2812 116.75 51.4688 117.531 52.8438 118.094C54.2188 118.656 55.6875 119.031 57.25 119.219C58.875 119.406 60.25 119.5 61.375 119.5C62.5 119.5 63.4688 119.5 64.2812 119.5C65.1562 119.5 66 119.406 66.8125 119.219C67.625 119.031 68.4688 118.75 69.3438 118.375C70.2188 118 71.25 117.469 72.4375 116.781C73.0625 115.781 73.4062 114.812 73.4688 113.875C73.5312 112.875 73.5625 111.844 73.5625 110.781C73.5625 108.656 73.1562 106.781 72.3438 105.156C71.5312 103.531 70.4375 102.219 69.0625 101.219C67.6875 100.219 66.0312 99.5625 64.0938 99.25C62.2188 98.875 60.125 98.9062 57.8125 99.3438C56.875 99.5312 55.8125 100.094 54.625 101.031C53.4375 101.969 52.3438 103.062 51.3438 104.312C50.3438 105.562 49.5 106.875 48.8125 108.25C48.1875 109.562 47.875 110.719 47.875 111.719ZM83.4062 105.719C83.3438 105.719 83.1875 105.625 82.9375 105.438C82.6875 105.188 82.5625 104.969 82.5625 104.781C82.5 104.781 82.4688 104.719 82.4688 104.594V104.125C82.4688 104.062 82.5 104 82.5625 103.938C83.25 103.25 83.8125 102.75 84.25 102.438C84.75 102.125 85.4062 101.969 86.2188 101.969C86.4688 101.969 86.6875 102.031 86.875 102.156C87.125 102.281 87.3125 102.406 87.4375 102.531C87.5625 102.656 87.6875 102.781 87.8125 102.906C88 103.031 88.1875 103.094 88.375 103.094C88.5625 103.094 88.9375 102.812 89.5 102.25C90.0625 101.625 90.8125 100.875 91.75 100C92.6875 99.125 93.8438 98.1875 95.2188 97.1875C96.5938 96.125 98.125 95.1562 99.8125 94.2812C101.562 93.4062 103.438 92.6875 105.438 92.125C107.5 91.5 109.75 91.1875 112.188 91.1875H112.75C113 91.25 113.5 91.375 114.25 91.5625C115.062 91.6875 115.906 91.875 116.781 92.125C117.656 92.3125 118.469 92.5 119.219 92.6875C120.031 92.8125 120.594 92.9062 120.906 92.9688C120.969 93.0312 121.094 93.1562 121.281 93.3438C121.469 93.4688 121.656 93.625 121.844 93.8125C122.031 93.9375 122.188 94.0938 122.312 94.2812C122.5 94.4688 122.625 94.625 122.688 94.75C122.688 94.8125 122.719 94.9062 122.781 95.0312C122.781 95.0312 122.781 95.0625 122.781 95.125C122.844 95.1875 122.875 95.2188 122.875 95.2188L122.781 95.4062C122.781 95.4062 122.781 95.4375 122.781 95.5C122.719 95.5625 122.688 95.625 122.688 95.6875C122.625 95.875 122.469 96.0938 122.219 96.3438C121.969 96.5312 121.844 96.625 121.844 96.625H105.344C103.969 96.625 102.469 97.0312 100.844 97.8438C99.2812 98.5938 97.7812 99.5938 96.3438 100.844C94.9688 102.031 93.8125 103.406 92.875 104.969C92 106.469 91.5625 107.938 91.5625 109.375V122.688C90.875 122.688 90.375 122.781 90.0625 122.969C89.75 123.094 89.4688 123.25 89.2188 123.438C89.0312 123.625 88.8125 123.781 88.5625 123.906C88.3125 124.031 87.9688 124.094 87.5312 124.094H87.3438C87.2812 124.094 87.2188 124.062 87.1562 124C86.9062 123.938 86.6875 123.812 86.5 123.625C86.3125 123.375 86.2188 123.219 86.2188 123.156L83.4062 105.719ZM136.656 99.5312C134.906 99.5312 133.281 99.6875 131.781 100C130.344 100.25 128.75 100.375 127 100.375C126.312 100.375 125.875 100.125 125.688 99.625C125.5 99.0625 125.406 98.5312 125.406 98.0312V97.5625C125.531 97.3125 125.719 97 125.969 96.625C126.281 96.25 126.594 95.9062 126.906 95.5938C127.219 95.2188 127.469 94.9062 127.656 94.6562C127.906 94.4062 128.062 94.2812 128.125 94.2812H136.75V80.2188C136.75 79.9688 136.844 79.7812 137.031 79.6562C137.219 79.5312 137.438 79.4375 137.688 79.375C138 79.25 138.281 79.1875 138.531 79.1875C138.781 79.125 138.969 79.0938 139.094 79.0938C140.094 79.0938 140.812 79.4688 141.25 80.2188C141.75 80.9062 142.062 81.7812 142.188 82.8438C142.375 83.9062 142.438 85.0625 142.375 86.3125C142.375 87.5625 142.375 88.7188 142.375 89.7812C142.375 90.8438 142.438 91.7812 142.562 92.5938C142.75 93.3438 143.125 93.75 143.688 93.8125C144.188 93.875 145.125 94 146.5 94.1875C147.938 94.3125 149.406 94.5 150.906 94.75C152.469 94.9375 153.938 95.125 155.312 95.3125C156.688 95.5 157.688 95.625 158.312 95.6875C158.438 95.6875 158.656 95.75 158.969 95.875C159.344 95.9375 159.719 96 160.094 96.0625C160.531 96.125 160.906 96.2188 161.219 96.3438C161.531 96.4688 161.75 96.5625 161.875 96.625C162 96.625 162.188 96.75 162.438 97C162.688 97.25 162.812 97.4375 162.812 97.5625C162.812 98 162.688 98.4062 162.438 98.7812C162.188 99.1562 161.875 99.4688 161.5 99.7188C161.125 99.9062 160.719 100.062 160.281 100.188C159.906 100.25 159.531 100.281 159.156 100.281C159.031 100.281 158.688 100.25 158.125 100.188C157.562 100.062 156.969 99.9375 156.344 99.8125C155.781 99.6875 155.219 99.5938 154.656 99.5312C154.156 99.4062 153.844 99.3438 153.719 99.3438H152.781C152.219 99.3438 151.625 99.3438 151 99.3438C150.375 99.3438 149.75 99.3438 149.125 99.3438H146.594C146.156 99.3438 145.719 99.3438 145.281 99.3438C144.844 99.3438 144.469 99.3438 144.156 99.3438H143.688L142.75 100.281C142.75 100.344 142.75 100.562 142.75 100.938C142.75 101.312 142.719 101.75 142.656 102.25C142.594 102.75 142.531 103.281 142.469 103.844C142.469 104.344 142.469 104.75 142.469 105.062C142.469 108.438 142.812 111.094 143.5 113.031C144.188 114.969 145.25 116.438 146.688 117.438C148.188 118.375 150.062 118.969 152.312 119.219C154.625 119.406 157.438 119.5 160.75 119.5C161.125 119.5 161.625 119.5 162.25 119.5C162.875 119.5 163.5 119.5 164.125 119.5C164.75 119.5 165.281 119.5 165.719 119.5C166.156 119.438 166.406 119.406 166.469 119.406C166.531 119.406 166.688 119.375 166.938 119.312C167.188 119.188 167.469 119.094 167.781 119.031C168.156 118.906 168.438 118.781 168.625 118.656C168.875 118.531 169.062 118.469 169.188 118.469C169.438 118.469 169.625 118.594 169.75 118.844C169.938 119.031 170.062 119.281 170.125 119.594C170.188 119.906 170.219 120.188 170.219 120.438V121.094C170.219 122.094 170 122.812 169.562 123.25C169.125 123.688 168.094 123.938 166.469 124H164.875C164.125 124 163.344 124 162.531 124C161.781 124.062 161 124.094 160.188 124.094H158.781C155.219 124.094 152.188 123.969 149.688 123.719C147.188 123.406 145.125 122.938 143.5 122.312C141.875 121.625 140.594 120.719 139.656 119.594C138.719 118.469 138.031 117 137.594 115.188C137.219 113.375 136.969 111.188 136.844 108.625C136.719 106.062 136.656 103.031 136.656 99.5312ZM173.688 94.75C173.688 92.4375 173.75 90.125 173.875 87.8125C174 85.4375 174.281 83.1562 174.719 80.9688C175.156 78.7812 175.75 76.75 176.5 74.875C177.312 73 178.375 71.375 179.688 70C181.062 68.5625 182.75 67.4375 184.75 66.625C186.75 65.8125 189.125 65.4062 191.875 65.4062C193.625 65.4062 195.25 65.625 196.75 66.0625C198.312 66.4375 199.688 67.0625 200.875 67.9375C202.062 68.75 203.031 69.8438 203.781 71.2188C204.531 72.5312 204.906 74.125 204.906 76C204.906 76.5 204.844 77.0938 204.719 77.7812C204.594 78.4062 204.406 79.0625 204.156 79.75C203.906 80.375 203.562 80.9375 203.125 81.4375C202.75 81.875 202.25 82.0938 201.625 82.0938C201.5 82.0938 201.406 82.0938 201.344 82.0938C201.281 82.0938 201.219 82.0625 201.156 82L200.688 81.5312C200.438 81.2812 200.281 81.125 200.219 81.0625C200.281 80.8125 200.344 80.4375 200.406 79.9375C200.531 79.4375 200.625 78.9062 200.688 78.3438C200.812 77.7812 200.906 77.25 200.969 76.75C201.031 76.1875 201.094 75.8125 201.156 75.625V74.5938C201.156 73.5938 200.781 72.8125 200.031 72.25C199.344 71.625 198.5 71.1562 197.5 70.8438C196.562 70.4688 195.562 70.2188 194.5 70.0938C193.5 69.9688 192.688 69.9062 192.062 69.9062C189.75 69.9062 187.812 70.3125 186.25 71.125C184.75 71.9375 183.5 73.0312 182.5 74.4062C181.562 75.7812 180.812 77.375 180.25 79.1875C179.688 80.9375 179.281 82.7812 179.031 84.7188C178.781 86.5938 178.625 88.5 178.562 90.4375C178.5 92.3125 178.438 94.0625 178.375 95.6875C178.562 96.1875 178.781 96.6875 179.031 97.1875C179.281 97.6875 179.656 98.0938 180.156 98.4062C183.469 98.2812 186.938 98.2812 190.562 98.4062C194.25 98.4688 197.781 98.7812 201.156 99.3438C201.469 99.4062 201.688 99.5938 201.812 99.9062C202 100.156 202.125 100.469 202.188 100.844C202.312 101.219 202.375 101.594 202.375 101.969C202.438 102.281 202.469 102.5 202.469 102.625C202.094 102.625 201.438 102.656 200.5 102.719C199.625 102.719 198.625 102.75 197.5 102.812C196.375 102.812 195.188 102.844 193.938 102.906C192.75 102.906 191.594 102.906 190.469 102.906C189.344 102.906 188.344 102.938 187.469 103C186.594 103 185.969 103 185.594 103H184.375C183.875 103 183.281 103.062 182.594 103.188C181.906 103.312 181.219 103.5 180.531 103.75C179.906 104 179.469 104.344 179.219 104.781V105.719L183.812 132.25C183.875 132.688 183.812 133.062 183.625 133.375C183.438 133.75 183.156 134.062 182.781 134.312C182.406 134.562 182.031 134.719 181.656 134.781C181.281 134.906 180.938 134.969 180.625 134.969C179.5 134.969 178.562 134.156 177.812 132.531C177.062 130.906 176.438 128.812 175.938 126.25C175.438 123.75 175.031 120.938 174.719 117.812C174.406 114.688 174.156 111.656 173.969 108.719C173.844 105.719 173.75 102.969 173.688 100.469C173.688 97.9688 173.688 96.0625 173.688 94.75ZM207.438 112.938C207.438 110.812 207.812 108.625 208.562 106.375C209.312 104.125 210.375 102.062 211.75 100.188C213.188 98.3125 214.875 96.7812 216.812 95.5938C218.75 94.4062 220.969 93.8125 223.469 93.8125C226.969 93.8125 229.906 94.1562 232.281 94.8438C234.656 95.5312 236.594 96.5938 238.094 98.0312C239.594 99.4062 240.656 101.219 241.281 103.469C241.969 105.656 242.312 108.25 242.312 111.25C242.312 111.438 242.281 111.812 242.219 112.375C242.219 112.875 242.219 113.406 242.219 113.969C242.219 114.531 242.188 115.094 242.125 115.656C242.125 116.156 242.125 116.531 242.125 116.781C241.688 118.344 240.844 119.625 239.594 120.625C238.406 121.562 237 122.281 235.375 122.781C233.812 123.281 232.156 123.625 230.406 123.812C228.719 124 227.188 124.094 225.812 124.094C223.875 124.094 221.844 123.969 219.719 123.719C217.594 123.469 215.594 122.969 213.719 122.219C211.906 121.406 210.406 120.281 209.219 118.844C208.031 117.344 207.438 115.375 207.438 112.938ZM212.125 111.719C212.125 113.344 212.594 114.688 213.531 115.75C214.531 116.75 215.719 117.531 217.094 118.094C218.469 118.656 219.938 119.031 221.5 119.219C223.125 119.406 224.5 119.5 225.625 119.5C226.75 119.5 227.719 119.5 228.531 119.5C229.406 119.5 230.25 119.406 231.062 119.219C231.875 119.031 232.719 118.75 233.594 118.375C234.469 118 235.5 117.469 236.688 116.781C237.312 115.781 237.656 114.812 237.719 113.875C237.781 112.875 237.812 111.844 237.812 110.781C237.812 108.656 237.406 106.781 236.594 105.156C235.781 103.531 234.688 102.219 233.312 101.219C231.938 100.219 230.281 99.5625 228.344 99.25C226.469 98.875 224.375 98.9062 222.062 99.3438C221.125 99.5312 220.062 100.094 218.875 101.031C217.688 101.969 216.594 103.062 215.594 104.312C214.594 105.562 213.75 106.875 213.062 108.25C212.438 109.562 212.125 110.719 212.125 111.719ZM245.688 108.344C245.688 105.031 245.812 101.906 246.062 98.9688C246.375 96.0312 246.656 93.0625 246.906 90.0625C247.219 87.0625 247.438 84.0312 247.562 80.9688C247.75 77.9062 247.781 74.5938 247.656 71.0312C247.719 70.7812 247.812 70.5 247.938 70.1875C248.062 69.875 248.219 69.5938 248.406 69.3438C248.656 69.0312 248.906 68.7812 249.156 68.5938C249.406 68.3438 249.688 68.2188 250 68.2188C250.75 68.2188 251.375 68.625 251.875 69.4375C252.375 70.1875 252.719 71.1875 252.906 72.4375C253.156 73.625 253.312 74.9375 253.375 76.375C253.438 77.8125 253.438 79.2188 253.375 80.5938C253.375 81.9062 253.344 83.0625 253.281 84.0625C253.219 85.0625 253.188 85.75 253.188 86.125C253.188 89.8125 253 93.4688 252.625 97.0938C252.312 100.656 252.156 104.312 252.156 108.062V109.562C252.156 110.312 252.156 111.094 252.156 111.906C252.156 112.719 252.156 113.5 252.156 114.25V115.75C252.219 116.375 252.438 116.906 252.812 117.344C253.188 117.719 253.594 118.062 254.031 118.375C254.531 118.625 255.031 118.844 255.531 119.031C256.031 119.219 256.469 119.344 256.844 119.406C257.094 119.406 257.5 119.438 258.062 119.5C258.688 119.5 259.344 119.5 260.031 119.5C260.719 119.5 261.344 119.5 261.906 119.5C262.531 119.5 262.969 119.5 263.219 119.5C264.281 119.5 265.125 119.5 265.75 119.5C266.438 119.438 266.969 119.375 267.344 119.312C267.781 119.25 268.188 119.188 268.562 119.125C268.938 119 269.344 118.938 269.781 118.938C270.219 118.875 270.75 118.812 271.375 118.75C272 118.688 272.844 118.656 273.906 118.656C273.906 120.719 273.5 122.156 272.688 122.969C271.875 123.781 270.812 124.25 269.5 124.375C268.25 124.562 266.844 124.562 265.281 124.375C263.781 124.188 262.312 124.094 260.875 124.094H259.562C258.938 124.094 258.25 124.062 257.5 124C256.75 124 256.031 124 255.344 124H254.125C252.188 123.625 250.656 122.938 249.531 121.938C248.406 120.875 247.562 119.625 247 118.188C246.5 116.688 246.156 115.094 245.969 113.406C245.781 111.719 245.688 110.031 245.688 108.344ZM274.188 123.156C273.75 121.906 273.344 120.562 272.969 119.125C272.656 117.625 272.375 116.094 272.125 114.531C271.938 112.969 271.781 111.438 271.656 109.938C271.531 108.438 271.469 107.031 271.469 105.719C271.469 105.531 271.5 105.188 271.562 104.688C271.625 104.125 271.688 103.562 271.75 103C271.875 102.438 272 101.906 272.125 101.406C272.25 100.844 272.344 100.469 272.406 100.281C272.469 100.219 272.75 100.156 273.25 100.094C273.75 100.031 274.062 100 274.188 100C275 100 275.656 100.438 276.156 101.312C276.656 102.188 277.094 103.312 277.469 104.688C277.844 106.062 278.094 107.594 278.219 109.281C278.406 110.906 278.562 112.5 278.688 114.062C278.812 115.562 278.875 116.906 278.875 118.094C278.875 119.281 278.875 120.094 278.875 120.531C278.875 120.719 278.875 121.031 278.875 121.469C278.938 121.844 278.938 122.25 278.875 122.688C278.812 123.062 278.656 123.375 278.406 123.625C278.219 123.875 277.875 124 277.375 124H277C276.875 124 276.688 123.969 276.438 123.906C276.188 123.781 275.906 123.688 275.594 123.625C275.281 123.5 275 123.406 274.75 123.344C274.5 123.281 274.312 123.219 274.188 123.156ZM273.156 81.8125C273.156 80.25 274.156 79.0938 276.156 78.3438C276.594 78.1562 276.969 78.2188 277.281 78.5312C277.656 78.8438 277.938 79.25 278.125 79.75C278.375 80.25 278.531 80.7812 278.594 81.3438C278.719 81.8438 278.781 82.2188 278.781 82.4688C278.781 82.8438 278.688 83.1562 278.5 83.4062C278.312 83.5938 278.062 83.7188 277.75 83.7812C277.5 83.8438 277.219 83.875 276.906 83.875H276.156C275.281 83.875 274.562 83.7812 274 83.5938C273.438 83.4062 273.156 82.8125 273.156 81.8125ZM282.344 112.938C282.344 110.812 282.719 108.625 283.469 106.375C284.219 104.125 285.281 102.062 286.656 100.188C288.094 98.3125 289.781 96.7812 291.719 95.5938C293.656 94.4062 295.875 93.8125 298.375 93.8125C301.875 93.8125 304.812 94.1562 307.188 94.8438C309.562 95.5312 311.5 96.5938 313 98.0312C314.5 99.4062 315.562 101.219 316.188 103.469C316.875 105.656 317.219 108.25 317.219 111.25C317.219 111.438 317.188 111.812 317.125 112.375C317.125 112.875 317.125 113.406 317.125 113.969C317.125 114.531 317.094 115.094 317.031 115.656C317.031 116.156 317.031 116.531 317.031 116.781C316.594 118.344 315.75 119.625 314.5 120.625C313.312 121.562 311.906 122.281 310.281 122.781C308.719 123.281 307.062 123.625 305.312 123.812C303.625 124 302.094 124.094 300.719 124.094C298.781 124.094 296.75 123.969 294.625 123.719C292.5 123.469 290.5 122.969 288.625 122.219C286.812 121.406 285.312 120.281 284.125 118.844C282.938 117.344 282.344 115.375 282.344 112.938ZM287.031 111.719C287.031 113.344 287.5 114.688 288.438 115.75C289.438 116.75 290.625 117.531 292 118.094C293.375 118.656 294.844 119.031 296.406 119.219C298.031 119.406 299.406 119.5 300.531 119.5C301.656 119.5 302.625 119.5 303.438 119.5C304.312 119.5 305.156 119.406 305.969 119.219C306.781 119.031 307.625 118.75 308.5 118.375C309.375 118 310.406 117.469 311.594 116.781C312.219 115.781 312.562 114.812 312.625 113.875C312.688 112.875 312.719 111.844 312.719 110.781C312.719 108.656 312.312 106.781 311.5 105.156C310.688 103.531 309.594 102.219 308.219 101.219C306.844 100.219 305.188 99.5625 303.25 99.25C301.375 98.875 299.281 98.9062 296.969 99.3438C296.031 99.5312 294.969 100.094 293.781 101.031C292.594 101.969 291.5 103.062 290.5 104.312C289.5 105.562 288.656 106.875 287.969 108.25C287.344 109.562 287.031 110.719 287.031 111.719Z" fill="#E1E1E1"/>
<path d="M0.75 103.25C0.75 102.625 0.75 101.688 0.75 100.438C0.8125 99.1875 0.90625 97.8438 1.03125 96.4062C1.21875 94.9062 1.40625 93.4062 1.59375 91.9062C1.78125 90.3438 2.03125 88.9375 2.34375 87.6875C2.71875 86.375 3.1875 85.3125 3.75 84.5C4.375 83.6875 5.09375 83.2812 5.90625 83.2812C5.96875 83.2812 6 83.2812 6 83.2812C6.0625 83.2812 6.125 83.2812 6.1875 83.2812C6.25 83.3438 6.34375 83.375 6.46875 83.375C6.53125 83.4375 6.65625 83.5625 6.84375 83.75C7.03125 83.875 7.21875 84.0312 7.40625 84.2188C7.59375 84.4062 7.75 84.625 7.875 84.875C8.0625 85.0625 8.1875 85.1875 8.25 85.25C7.6875 86.4375 7.28125 87.4062 7.03125 88.1562C6.78125 88.8438 6.59375 89.4375 6.46875 89.9375C6.34375 90.4375 6.3125 90.875 6.375 91.25C6.4375 91.5625 6.5 91.9688 6.5625 92.4688C6.625 92.9062 6.6875 93.5 6.75 94.25C6.8125 94.9375 6.84375 95.8438 6.84375 96.9688C7.90625 96.9688 9.21875 96.875 10.7812 96.6875C12.4062 96.5 14.0625 96.25 15.75 95.9375C17.5 95.5625 19.2188 95.0938 20.9062 94.5312C22.6562 93.9688 24.2188 93.2812 25.5938 92.4688C26.9688 91.5938 28.0625 90.5938 28.875 89.4688C29.75 88.3438 30.1875 87 30.1875 85.4375C30.1875 84.5 29.625 83.6875 28.5 83C27.375 82.3125 25.9375 81.75 24.1875 81.3125C22.4375 80.875 20.5 80.5625 18.375 80.375C16.3125 80.125 14.2812 79.9688 12.2812 79.9062C10.3438 79.7812 8.5625 79.7188 6.9375 79.7188C5.375 79.7188 4.28125 79.7188 3.65625 79.7188C3.15625 79.5312 2.84375 79.2812 2.71875 78.9688C2.65625 78.5938 2.625 78.2188 2.625 77.8438C2.625 77.1562 2.75 76.625 3 76.25C3.3125 75.875 3.84375 75.5312 4.59375 75.2188C4.78125 75.2188 5.09375 75.2188 5.53125 75.2188C6.03125 75.2188 6.53125 75.2188 7.03125 75.2188C7.59375 75.2188 8.09375 75.2188 8.53125 75.2188C9.03125 75.1562 9.40625 75.125 9.65625 75.125C11.4062 75.125 12.9688 75.1562 14.3438 75.2188C15.7188 75.2188 17.0938 75.3125 18.4688 75.5C19.8438 75.625 21.3125 75.8125 22.875 76.0625C24.4375 76.25 26.25 76.5625 28.3125 77C29.4375 77.6875 30.4375 78.25 31.3125 78.6875C32.25 79.0625 33.0625 79.5312 33.75 80.0938C34.4375 80.5938 34.9375 81.2812 35.25 82.1562C35.5625 82.9688 35.7188 84.1875 35.7188 85.8125C35.7188 87.9375 35.1875 89.7812 34.125 91.3438C33.125 92.9062 31.8125 94.2812 30.1875 95.4688C28.5625 96.5938 26.6875 97.5625 24.5625 98.375C22.5 99.125 20.375 99.7812 18.1875 100.344C16 100.844 13.875 101.281 11.8125 101.656C9.75 102.031 7.96875 102.344 6.46875 102.594V105.781C6.46875 106.906 6.46875 107.875 6.46875 108.688C6.53125 109.5 6.5625 110.344 6.5625 111.219C6.625 112.031 6.71875 112.906 6.84375 113.844C6.96875 114.781 7.09375 115.875 7.21875 117.125C6.90625 117.688 6.46875 118.156 5.90625 118.531C5.34375 118.844 4.75 119 4.125 119C3.3125 119 2.6875 118.688 2.25 118.062C1.8125 117.375 1.46875 116.531 1.21875 115.531C0.96875 114.469 0.8125 113.344 0.75 112.156C0.6875 110.906 0.65625 109.688 0.65625 108.5C0.71875 107.312 0.75 106.25 0.75 105.312C0.75 104.375 0.75 103.688 0.75 103.25ZM39.1875 107.938C39.1875 105.812 39.5625 103.625 40.3125 101.375C41.0625 99.125 42.125 97.0625 43.5 95.1875C44.9375 93.3125 46.625 91.7812 48.5625 90.5938C50.5 89.4062 52.7188 88.8125 55.2188 88.8125C58.7188 88.8125 61.6562 89.1562 64.0312 89.8438C66.4062 90.5312 68.3438 91.5938 69.8438 93.0312C71.3438 94.4062 72.4062 96.2188 73.0312 98.4688C73.7188 100.656 74.0625 103.25 74.0625 106.25C74.0625 106.438 74.0312 106.812 73.9688 107.375C73.9688 107.875 73.9688 108.406 73.9688 108.969C73.9688 109.531 73.9375 110.094 73.875 110.656C73.875 111.156 73.875 111.531 73.875 111.781C73.4375 113.344 72.5938 114.625 71.3438 115.625C70.1562 116.562 68.75 117.281 67.125 117.781C65.5625 118.281 63.9062 118.625 62.1562 118.812C60.4688 119 58.9375 119.094 57.5625 119.094C55.625 119.094 53.5938 118.969 51.4688 118.719C49.3438 118.469 47.3438 117.969 45.4688 117.219C43.6562 116.406 42.1562 115.281 40.9688 113.844C39.7812 112.344 39.1875 110.375 39.1875 107.938ZM43.875 106.719C43.875 108.344 44.3438 109.688 45.2812 110.75C46.2812 111.75 47.4688 112.531 48.8438 113.094C50.2188 113.656 51.6875 114.031 53.25 114.219C54.875 114.406 56.25 114.5 57.375 114.5C58.5 114.5 59.4688 114.5 60.2812 114.5C61.1562 114.5 62 114.406 62.8125 114.219C63.625 114.031 64.4688 113.75 65.3438 113.375C66.2188 113 67.25 112.469 68.4375 111.781C69.0625 110.781 69.4062 109.812 69.4688 108.875C69.5312 107.875 69.5625 106.844 69.5625 105.781C69.5625 103.656 69.1562 101.781 68.3438 100.156C67.5312 98.5312 66.4375 97.2188 65.0625 96.2188C63.6875 95.2188 62.0312 94.5625 60.0938 94.25C58.2188 93.875 56.125 93.9062 53.8125 94.3438C52.875 94.5312 51.8125 95.0938 50.625 96.0312C49.4375 96.9688 48.3438 98.0625 47.3438 99.3125C46.3438 100.562 45.5 101.875 44.8125 103.25C44.1875 104.562 43.875 105.719 43.875 106.719ZM79.4062 100.719C79.3438 100.719 79.1875 100.625 78.9375 100.438C78.6875 100.188 78.5625 99.9688 78.5625 99.7812C78.5 99.7812 78.4688 99.7188 78.4688 99.5938V99.125C78.4688 99.0625 78.5 99 78.5625 98.9375C79.25 98.25 79.8125 97.75 80.25 97.4375C80.75 97.125 81.4062 96.9688 82.2188 96.9688C82.4688 96.9688 82.6875 97.0312 82.875 97.1562C83.125 97.2812 83.3125 97.4062 83.4375 97.5312C83.5625 97.6562 83.6875 97.7812 83.8125 97.9062C84 98.0312 84.1875 98.0938 84.375 98.0938C84.5625 98.0938 84.9375 97.8125 85.5 97.25C86.0625 96.625 86.8125 95.875 87.75 95C88.6875 94.125 89.8438 93.1875 91.2188 92.1875C92.5938 91.125 94.125 90.1562 95.8125 89.2812C97.5625 88.4062 99.4375 87.6875 101.438 87.125C103.5 86.5 105.75 86.1875 108.188 86.1875H108.75C109 86.25 109.5 86.375 110.25 86.5625C111.062 86.6875 111.906 86.875 112.781 87.125C113.656 87.3125 114.469 87.5 115.219 87.6875C116.031 87.8125 116.594 87.9062 116.906 87.9688C116.969 88.0312 117.094 88.1562 117.281 88.3438C117.469 88.4688 117.656 88.625 117.844 88.8125C118.031 88.9375 118.188 89.0938 118.312 89.2812C118.5 89.4688 118.625 89.625 118.688 89.75C118.688 89.8125 118.719 89.9062 118.781 90.0312C118.781 90.0312 118.781 90.0625 118.781 90.125C118.844 90.1875 118.875 90.2188 118.875 90.2188L118.781 90.4062C118.781 90.4062 118.781 90.4375 118.781 90.5C118.719 90.5625 118.688 90.625 118.688 90.6875C118.625 90.875 118.469 91.0938 118.219 91.3438C117.969 91.5312 117.844 91.625 117.844 91.625H101.344C99.9688 91.625 98.4688 92.0312 96.8438 92.8438C95.2812 93.5938 93.7812 94.5938 92.3438 95.8438C90.9688 97.0312 89.8125 98.4062 88.875 99.9688C88 101.469 87.5625 102.938 87.5625 104.375V117.688C86.875 117.688 86.375 117.781 86.0625 117.969C85.75 118.094 85.4688 118.25 85.2188 118.438C85.0312 118.625 84.8125 118.781 84.5625 118.906C84.3125 119.031 83.9688 119.094 83.5312 119.094H83.3438C83.2812 119.094 83.2188 119.062 83.1562 119C82.9062 118.938 82.6875 118.812 82.5 118.625C82.3125 118.375 82.2188 118.219 82.2188 118.156L79.4062 100.719ZM132.656 94.5312C130.906 94.5312 129.281 94.6875 127.781 95C126.344 95.25 124.75 95.375 123 95.375C122.312 95.375 121.875 95.125 121.688 94.625C121.5 94.0625 121.406 93.5312 121.406 93.0312V92.5625C121.531 92.3125 121.719 92 121.969 91.625C122.281 91.25 122.594 90.9062 122.906 90.5938C123.219 90.2188 123.469 89.9062 123.656 89.6562C123.906 89.4062 124.062 89.2812 124.125 89.2812H132.75V75.2188C132.75 74.9688 132.844 74.7812 133.031 74.6562C133.219 74.5312 133.438 74.4375 133.688 74.375C134 74.25 134.281 74.1875 134.531 74.1875C134.781 74.125 134.969 74.0938 135.094 74.0938C136.094 74.0938 136.812 74.4688 137.25 75.2188C137.75 75.9062 138.062 76.7812 138.188 77.8438C138.375 78.9062 138.438 80.0625 138.375 81.3125C138.375 82.5625 138.375 83.7188 138.375 84.7812C138.375 85.8438 138.438 86.7812 138.562 87.5938C138.75 88.3438 139.125 88.75 139.688 88.8125C140.188 88.875 141.125 89 142.5 89.1875C143.938 89.3125 145.406 89.5 146.906 89.75C148.469 89.9375 149.938 90.125 151.312 90.3125C152.688 90.5 153.688 90.625 154.312 90.6875C154.438 90.6875 154.656 90.75 154.969 90.875C155.344 90.9375 155.719 91 156.094 91.0625C156.531 91.125 156.906 91.2188 157.219 91.3438C157.531 91.4688 157.75 91.5625 157.875 91.625C158 91.625 158.188 91.75 158.438 92C158.688 92.25 158.812 92.4375 158.812 92.5625C158.812 93 158.688 93.4062 158.438 93.7812C158.188 94.1562 157.875 94.4688 157.5 94.7188C157.125 94.9062 156.719 95.0625 156.281 95.1875C155.906 95.25 155.531 95.2812 155.156 95.2812C155.031 95.2812 154.688 95.25 154.125 95.1875C153.562 95.0625 152.969 94.9375 152.344 94.8125C151.781 94.6875 151.219 94.5938 150.656 94.5312C150.156 94.4062 149.844 94.3438 149.719 94.3438H148.781C148.219 94.3438 147.625 94.3438 147 94.3438C146.375 94.3438 145.75 94.3438 145.125 94.3438H142.594C142.156 94.3438 141.719 94.3438 141.281 94.3438C140.844 94.3438 140.469 94.3438 140.156 94.3438H139.688L138.75 95.2812C138.75 95.3438 138.75 95.5625 138.75 95.9375C138.75 96.3125 138.719 96.75 138.656 97.25C138.594 97.75 138.531 98.2812 138.469 98.8438C138.469 99.3438 138.469 99.75 138.469 100.062C138.469 103.438 138.812 106.094 139.5 108.031C140.188 109.969 141.25 111.438 142.688 112.438C144.188 113.375 146.062 113.969 148.312 114.219C150.625 114.406 153.438 114.5 156.75 114.5C157.125 114.5 157.625 114.5 158.25 114.5C158.875 114.5 159.5 114.5 160.125 114.5C160.75 114.5 161.281 114.5 161.719 114.5C162.156 114.438 162.406 114.406 162.469 114.406C162.531 114.406 162.688 114.375 162.938 114.312C163.188 114.188 163.469 114.094 163.781 114.031C164.156 113.906 164.438 113.781 164.625 113.656C164.875 113.531 165.062 113.469 165.188 113.469C165.438 113.469 165.625 113.594 165.75 113.844C165.938 114.031 166.062 114.281 166.125 114.594C166.188 114.906 166.219 115.188 166.219 115.438V116.094C166.219 117.094 166 117.812 165.562 118.25C165.125 118.688 164.094 118.938 162.469 119H160.875C160.125 119 159.344 119 158.531 119C157.781 119.062 157 119.094 156.188 119.094H154.781C151.219 119.094 148.188 118.969 145.688 118.719C143.188 118.406 141.125 117.938 139.5 117.312C137.875 116.625 136.594 115.719 135.656 114.594C134.719 113.469 134.031 112 133.594 110.188C133.219 108.375 132.969 106.188 132.844 103.625C132.719 101.062 132.656 98.0312 132.656 94.5312ZM169.688 89.75C169.688 87.4375 169.75 85.125 169.875 82.8125C170 80.4375 170.281 78.1562 170.719 75.9688C171.156 73.7812 171.75 71.75 172.5 69.875C173.312 68 174.375 66.375 175.688 65C177.062 63.5625 178.75 62.4375 180.75 61.625C182.75 60.8125 185.125 60.4062 187.875 60.4062C189.625 60.4062 191.25 60.625 192.75 61.0625C194.312 61.4375 195.688 62.0625 196.875 62.9375C198.062 63.75 199.031 64.8438 199.781 66.2188C200.531 67.5312 200.906 69.125 200.906 71C200.906 71.5 200.844 72.0938 200.719 72.7812C200.594 73.4062 200.406 74.0625 200.156 74.75C199.906 75.375 199.562 75.9375 199.125 76.4375C198.75 76.875 198.25 77.0938 197.625 77.0938C197.5 77.0938 197.406 77.0938 197.344 77.0938C197.281 77.0938 197.219 77.0625 197.156 77L196.688 76.5312C196.438 76.2812 196.281 76.125 196.219 76.0625C196.281 75.8125 196.344 75.4375 196.406 74.9375C196.531 74.4375 196.625 73.9062 196.688 73.3438C196.812 72.7812 196.906 72.25 196.969 71.75C197.031 71.1875 197.094 70.8125 197.156 70.625V69.5938C197.156 68.5938 196.781 67.8125 196.031 67.25C195.344 66.625 194.5 66.1562 193.5 65.8438C192.562 65.4688 191.562 65.2188 190.5 65.0938C189.5 64.9688 188.688 64.9062 188.062 64.9062C185.75 64.9062 183.812 65.3125 182.25 66.125C180.75 66.9375 179.5 68.0312 178.5 69.4062C177.562 70.7812 176.812 72.375 176.25 74.1875C175.688 75.9375 175.281 77.7812 175.031 79.7188C174.781 81.5938 174.625 83.5 174.562 85.4375C174.5 87.3125 174.438 89.0625 174.375 90.6875C174.562 91.1875 174.781 91.6875 175.031 92.1875C175.281 92.6875 175.656 93.0938 176.156 93.4062C179.469 93.2812 182.938 93.2812 186.562 93.4062C190.25 93.4688 193.781 93.7812 197.156 94.3438C197.469 94.4062 197.688 94.5938 197.812 94.9062C198 95.1562 198.125 95.4688 198.188 95.8438C198.312 96.2188 198.375 96.5938 198.375 96.9688C198.438 97.2812 198.469 97.5 198.469 97.625C198.094 97.625 197.438 97.6562 196.5 97.7188C195.625 97.7188 194.625 97.75 193.5 97.8125C192.375 97.8125 191.188 97.8438 189.938 97.9062C188.75 97.9062 187.594 97.9062 186.469 97.9062C185.344 97.9062 184.344 97.9375 183.469 98C182.594 98 181.969 98 181.594 98H180.375C179.875 98 179.281 98.0625 178.594 98.1875C177.906 98.3125 177.219 98.5 176.531 98.75C175.906 99 175.469 99.3438 175.219 99.7812V100.719L179.812 127.25C179.875 127.688 179.812 128.062 179.625 128.375C179.438 128.75 179.156 129.062 178.781 129.312C178.406 129.562 178.031 129.719 177.656 129.781C177.281 129.906 176.938 129.969 176.625 129.969C175.5 129.969 174.562 129.156 173.812 127.531C173.062 125.906 172.438 123.812 171.938 121.25C171.438 118.75 171.031 115.938 170.719 112.812C170.406 109.688 170.156 106.656 169.969 103.719C169.844 100.719 169.75 97.9688 169.688 95.4688C169.688 92.9688 169.688 91.0625 169.688 89.75ZM203.438 107.938C203.438 105.812 203.812 103.625 204.562 101.375C205.312 99.125 206.375 97.0625 207.75 95.1875C209.188 93.3125 210.875 91.7812 212.812 90.5938C214.75 89.4062 216.969 88.8125 219.469 88.8125C222.969 88.8125 225.906 89.1562 228.281 89.8438C230.656 90.5312 232.594 91.5938 234.094 93.0312C235.594 94.4062 236.656 96.2188 237.281 98.4688C237.969 100.656 238.312 103.25 238.312 106.25C238.312 106.438 238.281 106.812 238.219 107.375C238.219 107.875 238.219 108.406 238.219 108.969C238.219 109.531 238.188 110.094 238.125 110.656C238.125 111.156 238.125 111.531 238.125 111.781C237.688 113.344 236.844 114.625 235.594 115.625C234.406 116.562 233 117.281 231.375 117.781C229.812 118.281 228.156 118.625 226.406 118.812C224.719 119 223.188 119.094 221.812 119.094C219.875 119.094 217.844 118.969 215.719 118.719C213.594 118.469 211.594 117.969 209.719 117.219C207.906 116.406 206.406 115.281 205.219 113.844C204.031 112.344 203.438 110.375 203.438 107.938ZM208.125 106.719C208.125 108.344 208.594 109.688 209.531 110.75C210.531 111.75 211.719 112.531 213.094 113.094C214.469 113.656 215.938 114.031 217.5 114.219C219.125 114.406 220.5 114.5 221.625 114.5C222.75 114.5 223.719 114.5 224.531 114.5C225.406 114.5 226.25 114.406 227.062 114.219C227.875 114.031 228.719 113.75 229.594 113.375C230.469 113 231.5 112.469 232.688 111.781C233.312 110.781 233.656 109.812 233.719 108.875C233.781 107.875 233.812 106.844 233.812 105.781C233.812 103.656 233.406 101.781 232.594 100.156C231.781 98.5312 230.688 97.2188 229.312 96.2188C227.938 95.2188 226.281 94.5625 224.344 94.25C222.469 93.875 220.375 93.9062 218.062 94.3438C217.125 94.5312 216.062 95.0938 214.875 96.0312C213.688 96.9688 212.594 98.0625 211.594 99.3125C210.594 100.562 209.75 101.875 209.062 103.25C208.438 104.562 208.125 105.719 208.125 106.719ZM241.688 103.344C241.688 100.031 241.812 96.9062 242.062 93.9688C242.375 91.0312 242.656 88.0625 242.906 85.0625C243.219 82.0625 243.438 79.0312 243.562 75.9688C243.75 72.9062 243.781 69.5938 243.656 66.0312C243.719 65.7812 243.812 65.5 243.938 65.1875C244.062 64.875 244.219 64.5938 244.406 64.3438C244.656 64.0312 244.906 63.7812 245.156 63.5938C245.406 63.3438 245.688 63.2188 246 63.2188C246.75 63.2188 247.375 63.625 247.875 64.4375C248.375 65.1875 248.719 66.1875 248.906 67.4375C249.156 68.625 249.312 69.9375 249.375 71.375C249.438 72.8125 249.438 74.2188 249.375 75.5938C249.375 76.9062 249.344 78.0625 249.281 79.0625C249.219 80.0625 249.188 80.75 249.188 81.125C249.188 84.8125 249 88.4688 248.625 92.0938C248.312 95.6562 248.156 99.3125 248.156 103.062V104.562C248.156 105.312 248.156 106.094 248.156 106.906C248.156 107.719 248.156 108.5 248.156 109.25V110.75C248.219 111.375 248.438 111.906 248.812 112.344C249.188 112.719 249.594 113.062 250.031 113.375C250.531 113.625 251.031 113.844 251.531 114.031C252.031 114.219 252.469 114.344 252.844 114.406C253.094 114.406 253.5 114.438 254.062 114.5C254.688 114.5 255.344 114.5 256.031 114.5C256.719 114.5 257.344 114.5 257.906 114.5C258.531 114.5 258.969 114.5 259.219 114.5C260.281 114.5 261.125 114.5 261.75 114.5C262.438 114.438 262.969 114.375 263.344 114.312C263.781 114.25 264.188 114.188 264.562 114.125C264.938 114 265.344 113.938 265.781 113.938C266.219 113.875 266.75 113.812 267.375 113.75C268 113.688 268.844 113.656 269.906 113.656C269.906 115.719 269.5 117.156 268.688 117.969C267.875 118.781 266.812 119.25 265.5 119.375C264.25 119.562 262.844 119.562 261.281 119.375C259.781 119.188 258.312 119.094 256.875 119.094H255.562C254.938 119.094 254.25 119.062 253.5 119C252.75 119 252.031 119 251.344 119H250.125C248.188 118.625 246.656 117.938 245.531 116.938C244.406 115.875 243.562 114.625 243 113.188C242.5 111.688 242.156 110.094 241.969 108.406C241.781 106.719 241.688 105.031 241.688 103.344ZM270.188 118.156C269.75 116.906 269.344 115.562 268.969 114.125C268.656 112.625 268.375 111.094 268.125 109.531C267.938 107.969 267.781 106.438 267.656 104.938C267.531 103.438 267.469 102.031 267.469 100.719C267.469 100.531 267.5 100.188 267.562 99.6875C267.625 99.125 267.688 98.5625 267.75 98C267.875 97.4375 268 96.9062 268.125 96.4062C268.25 95.8438 268.344 95.4688 268.406 95.2812C268.469 95.2188 268.75 95.1562 269.25 95.0938C269.75 95.0312 270.062 95 270.188 95C271 95 271.656 95.4375 272.156 96.3125C272.656 97.1875 273.094 98.3125 273.469 99.6875C273.844 101.062 274.094 102.594 274.219 104.281C274.406 105.906 274.562 107.5 274.688 109.062C274.812 110.562 274.875 111.906 274.875 113.094C274.875 114.281 274.875 115.094 274.875 115.531C274.875 115.719 274.875 116.031 274.875 116.469C274.938 116.844 274.938 117.25 274.875 117.688C274.812 118.062 274.656 118.375 274.406 118.625C274.219 118.875 273.875 119 273.375 119H273C272.875 119 272.688 118.969 272.438 118.906C272.188 118.781 271.906 118.688 271.594 118.625C271.281 118.5 271 118.406 270.75 118.344C270.5 118.281 270.312 118.219 270.188 118.156ZM269.156 76.8125C269.156 75.25 270.156 74.0938 272.156 73.3438C272.594 73.1562 272.969 73.2188 273.281 73.5312C273.656 73.8438 273.938 74.25 274.125 74.75C274.375 75.25 274.531 75.7812 274.594 76.3438C274.719 76.8438 274.781 77.2188 274.781 77.4688C274.781 77.8438 274.688 78.1562 274.5 78.4062C274.312 78.5938 274.062 78.7188 273.75 78.7812C273.5 78.8438 273.219 78.875 272.906 78.875H272.156C271.281 78.875 270.562 78.7812 270 78.5938C269.438 78.4062 269.156 77.8125 269.156 76.8125ZM278.344 107.938C278.344 105.812 278.719 103.625 279.469 101.375C280.219 99.125 281.281 97.0625 282.656 95.1875C284.094 93.3125 285.781 91.7812 287.719 90.5938C289.656 89.4062 291.875 88.8125 294.375 88.8125C297.875 88.8125 300.812 89.1562 303.188 89.8438C305.562 90.5312 307.5 91.5938 309 93.0312C310.5 94.4062 311.562 96.2188 312.188 98.4688C312.875 100.656 313.219 103.25 313.219 106.25C313.219 106.438 313.188 106.812 313.125 107.375C313.125 107.875 313.125 108.406 313.125 108.969C313.125 109.531 313.094 110.094 313.031 110.656C313.031 111.156 313.031 111.531 313.031 111.781C312.594 113.344 311.75 114.625 310.5 115.625C309.312 116.562 307.906 117.281 306.281 117.781C304.719 118.281 303.062 118.625 301.312 118.812C299.625 119 298.094 119.094 296.719 119.094C294.781 119.094 292.75 118.969 290.625 118.719C288.5 118.469 286.5 117.969 284.625 117.219C282.812 116.406 281.312 115.281 280.125 113.844C278.938 112.344 278.344 110.375 278.344 107.938ZM283.031 106.719C283.031 108.344 283.5 109.688 284.438 110.75C285.438 111.75 286.625 112.531 288 113.094C289.375 113.656 290.844 114.031 292.406 114.219C294.031 114.406 295.406 114.5 296.531 114.5C297.656 114.5 298.625 114.5 299.438 114.5C300.312 114.5 301.156 114.406 301.969 114.219C302.781 114.031 303.625 113.75 304.5 113.375C305.375 113 306.406 112.469 307.594 111.781C308.219 110.781 308.562 109.812 308.625 108.875C308.688 107.875 308.719 106.844 308.719 105.781C308.719 103.656 308.312 101.781 307.5 100.156C306.688 98.5312 305.594 97.2188 304.219 96.2188C302.844 95.2188 301.188 94.5625 299.25 94.25C297.375 93.875 295.281 93.9062 292.969 94.3438C292.031 94.5312 290.969 95.0938 289.781 96.0312C288.594 96.9688 287.5 98.0625 286.5 99.3125C285.5 100.562 284.656 101.875 283.969 103.25C283.344 104.562 283.031 105.719 283.031 106.719Z" fill="#4A1520"/>
</svg>
