<svg width="109" height="160" viewBox="0 0 109 160" fill="none" xmlns="http://www.w3.org/2000/svg">
<path d="M43.2185 65.1032C46.7904 84.3483 50.9266 103.606 58.158 121.795C59.23 124.486 60.4052 127.213 62.3745 129.336C64.3438 131.459 67.2952 132.897 70.1375 132.343C75.0462 131.391 77.0712 125.611 78.2031 120.743C83.1983 99.2313 88.3531 77.328 88.0104 55.0995C87.819 42.4951 83.3582 40.74 71.886 38.1438C64.7356 36.5251 59.1919 35.1459 52.3883 38.7732C41.6119 44.5024 41.1829 54.1885 43.2185 65.1032Z" fill="#FAE3C4"/>
<path opacity="0.64" d="M40.1816 40.5178L26.3451 41.5255C22.7899 41.7817 19.1593 42.0583 15.8685 43.4213C12.5777 44.7842 9.61119 47.462 8.83471 50.9483C8.74815 51.1427 8.70852 51.3547 8.71901 51.5673C8.72949 51.7798 8.78981 51.9869 8.89508 52.1718C9.00036 52.3567 9.14764 52.5143 9.32503 52.6317C9.50242 52.7492 9.70496 52.8234 9.91627 52.8481C11.7074 53.366 13.6248 53.1775 15.4558 52.8379C19.8548 52.0233 24.0512 50.3825 28.212 48.7494C33.1008 46.8319 38.2408 44.7325 41.4104 40.5465C37.1159 33.1778 31.11 26.9519 23.9008 22.3955C21.1643 20.6739 18.1568 19.1678 14.9347 18.9939C14.7329 18.9562 14.5251 18.9648 14.3271 19.0191C14.1291 19.0733 13.946 19.1718 13.7916 19.3071C13.6228 19.5419 13.5368 19.8262 13.5474 20.1151C13.4705 21.8617 14.1299 23.5638 14.9124 25.1229C18.2311 31.6331 24.0342 36.554 30.1605 40.5371C32.4581 42.0737 34.8789 43.4176 37.3981 44.555C38.562 45.0666 39.8294 45.5187 41.0982 45.2894C42.1174 45.0584 43.0394 44.5155 43.7359 43.7362C45.9114 41.4985 46.6839 38.2169 46.7083 35.099C46.7327 31.981 46.1098 28.8858 45.9118 25.7699C45.5897 20.7442 46.2181 15.1367 43.0497 11.2199C42.7097 10.7315 42.2165 10.3705 41.6482 10.1941C40.5225 9.95161 39.5439 10.972 38.9283 11.941C35.8757 16.7613 35.2294 22.7702 35.9981 28.4092C36.7667 34.0482 38.8194 39.4248 40.8929 44.7313" fill="#FFA864"/>
<path d="M27.4213 53.3774C25.9234 55.8758 24.4776 58.4966 24.0641 61.3821C23.8987 62.5554 23.9921 63.9276 24.9222 64.6648C25.7106 65.2924 26.8898 65.2257 27.7827 64.7582C28.6494 64.2336 29.3949 63.5309 29.9698 62.6965C32.1245 59.8135 34.1112 56.8086 35.9201 53.6968C38.0756 50.1437 40.2581 46.4883 41.0581 42.4139C41.2211 41.8585 41.1925 41.2644 40.9769 40.7272C40.7289 40.3425 40.3877 40.0268 39.9849 39.8094C36.3486 37.4341 32.3264 35.7572 28.3267 34.0781C22.4043 31.5844 16.1323 29.0407 9.77694 29.8657C8.36314 30.0491 6.70667 30.659 6.45283 32.0583C6.24968 33.1669 7.0513 34.1884 7.85409 34.9735C11.9028 38.9327 17.337 41.2529 22.8892 42.377C28.4414 43.5011 34.1591 43.5019 39.8226 43.3578C40.5339 43.3383 41.3794 43.2476 41.7362 42.6291C41.9212 42.1957 41.954 41.7125 41.8292 41.2581C40.9538 36.2419 38.5337 31.5665 35.3174 27.6223C32.1011 23.6781 28.0919 20.4012 23.8392 17.5917C21.8194 16.2589 19.6279 14.9872 17.2092 14.8581C16.9306 14.8248 16.6481 14.8631 16.3883 14.9693C15.5482 15.3684 15.7382 16.6047 16.0894 17.4674C20.3766 27.9947 28.2786 36.647 38.3743 41.8684C38.7915 42.1332 39.2781 42.2675 39.7719 42.2542C40.5691 42.1815 41.0819 41.3807 41.4101 40.6468C42.3639 38.5069 42.7079 36.1546 42.9999 33.8298C43.4398 30.2879 43.772 26.7104 43.4253 23.1584C43.0786 19.6065 42.0195 16.0605 39.8914 13.1934C39.2508 12.3435 38.233 11.4416 37.2062 11.7851C36.3243 12.0745 35.9623 13.084 35.7664 13.9739C34.2743 20.4686 35.3836 27.2529 36.4965 33.828C36.7924 35.9443 37.2865 38.0282 37.9725 40.052C38.3499 41.0531 38.9239 42.1181 39.9403 42.4568C40.9567 42.7956 42.1574 42.2183 43.126 41.6349C45.6061 40.146 48.0623 38.5458 50.0401 36.4305C52.018 34.3153 53.4936 31.6236 53.6709 28.737C52.8371 28.3588 51.9009 28.9983 51.2127 29.6198C47.0186 33.4269 43.0478 37.5906 38.6419 41.1673C34.1063 44.8648 30.4607 48.313 27.4213 53.3774Z" fill="#FFA864"/>
<path d="M98.874 53.3138C98.952 52.6254 99.0074 51.939 99.0342 51.2371C99.0477 50.8862 98.5653 50.8257 98.3705 51.0297C98.1756 51.2337 97.9108 51.5667 97.6865 51.846C97.604 51.8609 97.5295 51.9046 97.4764 51.9694C97.4232 52.0341 97.3948 52.1157 97.3963 52.1995C95.3662 54.8373 93.9816 57.9294 92.2734 60.7604C91.148 62.6117 89.964 64.4184 88.8873 66.3061C87.8106 68.1938 86.7405 70.2035 85.7268 72.1854C84.7832 74.0383 83.8777 75.9104 82.8435 77.717C81.8565 79.4421 80.8022 81.1279 79.7578 82.8219C77.6764 86.1911 75.6191 89.6262 74.2662 93.3649C73.1964 96.3239 72.6143 99.4518 71.61 102.432C72.0896 95.4715 72.1608 88.4889 71.8234 81.52C71.2651 70.7871 70.0249 60.1005 68.1102 49.525C67.6049 46.6234 67.0152 43.7432 66.3047 40.883C65.7185 38.5384 65.1056 36.2007 64.6041 33.8392C64.4386 32.3737 64.1252 30.581 62.8729 29.7959C62.8061 29.7655 62.7311 29.7579 62.6596 29.7743C62.588 29.7906 62.5239 29.8301 62.4769 29.8865C61.8009 30.7779 61.4127 31.8543 61.3642 32.972C61.2407 34.3722 61.2536 35.7811 61.4028 37.1788C61.5322 38.5977 61.7156 40.0117 61.8762 41.4232C62.056 42.9964 62.0962 44.5824 62.1258 46.1512C62.1736 48.4178 62.1583 50.6901 62.035 52.9723C61.9694 55.0723 61.7178 57.1623 61.2831 59.2179C60.8709 60.9223 60.2273 62.5798 60.0236 64.3288C60.0236 64.3288 60.0256 64.3513 60.0269 64.3649C59.6562 63.6205 59.2771 62.8829 58.8895 62.1522C57.8563 60.2344 56.7268 58.3572 55.5405 56.5533C54.8129 55.4478 54.06 54.3629 53.3709 53.2312C51.9606 50.7761 50.404 48.4079 48.7095 46.1396C47.8446 44.9809 46.8337 43.9389 45.7019 43.0393C45.8455 42.8218 45.802 42.4942 45.4773 42.4693C45.1526 42.4444 44.8991 42.404 44.6133 42.3574C44.1001 42.09 43.5502 41.8999 42.9815 41.7932C42.7411 41.7507 42.4975 41.7288 42.2534 41.7278C42.0545 41.6548 41.8624 41.5644 41.6793 41.4577C42.53 40.9263 43.4406 40.4972 44.392 40.1793C45.9588 39.5822 47.5764 39.094 48.9965 38.1833C50.229 37.3081 51.3454 36.2799 52.3187 35.1233C53.4654 33.8906 54.508 32.565 55.4359 31.1601C56.344 29.8667 57.0135 28.4212 57.4127 26.8921C57.4817 26.5772 57.5254 26.2573 57.5434 25.9354C57.5584 25.8324 57.5338 25.7276 57.4746 25.6419C57.4154 25.5563 57.326 25.4963 57.2243 25.474C56.5077 25.335 55.7659 25.7161 55.1612 26.0573C54.347 26.532 53.5746 27.075 52.8524 27.6805C52.1368 28.2499 51.4467 28.8488 50.7426 29.4444C49.8993 30.1572 49.0859 30.8491 48.3012 31.6065C47.2845 32.6076 46.3209 33.6447 45.3279 34.6573C44.6257 35.3755 43.8804 36.0502 43.0962 36.6776L42.8931 36.8415C43.4554 35.225 43.8253 33.5479 43.995 31.8448C44.1874 29.4524 44.0777 27.0453 43.6685 24.6803C43.2656 22.232 42.6372 19.8262 41.7914 17.4936C41.1206 15.629 40.2846 13.8281 39.2932 12.1123C38.5876 10.8124 37.7052 9.61658 36.6712 8.55898C35.9499 7.87082 34.7835 7.08246 33.831 7.84154C33.3204 8.32626 32.9705 8.95573 32.8284 9.64529C32.5678 10.6314 32.4149 11.6428 32.3723 12.6618C31.599 11.7513 30.8048 10.8609 29.9561 10.0208C29.1011 9.20605 28.2048 8.43583 27.2706 7.71324C26.6341 7.2081 25.9264 6.5187 25.0992 6.36251C24.2721 6.20633 23.688 6.97267 23.4524 7.72541C22.8155 9.65476 23.3669 11.7664 23.9902 13.6217C24.5099 15.0867 25.1609 16.4989 25.7457 17.9308L25.3652 17.7429C21.9087 16.1626 18.0583 15.6533 14.3098 16.2805C13.2364 16.466 12.1748 16.7145 11.1306 17.0247C10.4146 17.2399 9.68946 17.406 8.99633 17.6736C8.25668 17.9211 7.63065 18.4264 7.23242 19.0971C7.08821 19.4148 7.02906 19.7645 7.06075 20.112C7.09244 20.4594 7.2139 20.7927 7.4132 21.079C7.85421 21.7737 8.40123 22.3951 9.03441 22.9205C9.65819 23.4858 10.3229 24.002 10.9966 24.5174C11.6703 25.0328 12.4194 25.6775 13.1349 26.2527C14.1449 27.0689 15.1745 27.8682 16.2238 28.6506C18.2998 30.2008 20.4242 31.683 22.5382 33.1525C24.5921 34.5593 26.6566 35.9334 28.8099 37.1859C29.3513 37.4953 29.8927 37.8047 30.4382 38.1093C28.7854 37.2653 27.1669 36.3502 25.4752 35.5779C20.4279 33.2678 15.0125 32.1993 9.52926 31.5322C8.39052 31.3953 5.58674 30.6791 5.72821 32.6783C5.85655 33.6007 6.27866 34.4573 6.93196 35.121C7.65297 35.8936 8.45923 36.5819 9.3353 37.1727C11.1509 38.4283 13.0742 39.5205 15.0826 40.4364C17.0404 41.3758 19.0857 42.1203 21.1892 42.6591L20.3965 42.7813C18.5426 43.0685 16.6583 43.1223 14.7879 43.2293C12.722 43.3167 10.6691 43.6013 8.65734 44.0792C6.72405 44.5916 4.76426 45.5107 3.63142 47.231C3.57957 47.2948 3.54984 47.3737 3.54669 47.4559C3.54354 47.5381 3.56714 47.6191 3.61395 47.6867C4.47235 48.5304 5.53755 49.1334 6.70263 49.4352C8.0077 49.8072 9.34256 50.0654 10.6922 50.2068C11.9051 50.3596 13.1273 50.4661 14.3316 50.6742C16.2481 51.023 18.1962 51.1681 20.1432 51.107C23.0397 50.9972 25.8237 50.2028 28.5635 49.3216C29.3357 49.074 30.0972 48.8092 30.8575 48.531C28.7167 51.1815 27.1787 54.2666 26.3505 57.5716C25.8471 59.6612 25.7716 61.831 26.1285 63.9505C26.1348 64.0088 26.1542 64.0649 26.1852 64.1147C26.2162 64.1645 26.2581 64.2066 26.3077 64.2379C26.3573 64.2692 26.4133 64.2888 26.4716 64.2954C26.5298 64.302 26.5888 64.2953 26.6442 64.2759C27.9468 63.6854 29.0629 62.7496 29.8715 61.5698C30.8232 60.2609 31.6523 58.8671 32.3482 57.4061C33.0046 56.0881 33.6036 54.739 34.303 53.4444C35.2965 51.5915 36.2619 49.7276 37.246 47.871C37.7494 46.9167 38.2707 45.9608 38.8044 45.0401C39.2882 44.1539 39.8377 43.3052 40.4484 42.5011C40.6177 42.3004 40.8026 42.1135 41.0014 41.942C41.0461 41.9722 41.0926 41.9998 41.1406 42.0247C41.078 42.2347 41.1838 42.4976 41.47 42.4488C41.6186 42.4352 41.7627 42.4221 41.9203 42.4077C42.1181 42.4851 42.311 42.5583 42.4887 42.6148C43.1474 42.8325 43.8216 43.0003 44.5055 43.1166C45.5841 43.8082 46.5479 44.6643 47.3618 45.6539C49.2022 47.757 50.6721 50.18 52.1211 52.5731C53.7671 55.2843 55.6105 57.8686 57.1963 60.6171C58.2029 62.342 59.1362 64.16 60.0061 65.9791C60.1561 67.3364 60.4122 68.6797 60.7722 69.9969C61.2974 72.22 61.8631 74.4393 62.2934 76.7164C62.7236 78.9935 62.988 81.1949 63.358 83.4094C63.7138 85.5361 64.1773 87.6434 64.7468 89.7231C65.3514 91.8708 66.1329 93.966 66.8215 96.0878C67.5548 98.2672 68.165 100.486 68.6493 102.734C68.6625 102.878 68.703 103.024 68.7309 103.181C69.0473 106.649 69.3632 110.113 69.7021 113.579C69.7108 113.653 69.7425 113.721 69.7927 113.775C69.8523 114.678 69.9181 115.549 69.9991 116.436C70.207 118.716 70.5225 120.98 70.7931 123.249C71.3481 127.841 71.4879 132.461 71.8808 137.066C71.91 137.386 71.9391 137.706 71.9683 138.026C71.9975 138.346 71.9591 138.722 71.9633 139.066C71.9878 141.094 72.1572 143.117 72.4701 145.12C72.4787 145.215 72.4877 145.314 72.4968 145.413C72.5419 147.153 72.5376 148.897 72.6278 150.633C72.6814 151.718 72.7755 152.8 72.9236 153.876C72.9358 153.959 72.9765 154.034 73.0385 154.09C73.1006 154.146 73.1801 154.178 73.2634 154.181C73.3467 154.184 73.4284 154.158 73.4945 154.107C73.5607 154.057 73.607 153.984 73.6254 153.903C74.1891 150.872 73.5867 147.802 73.1235 144.765C73.0595 143.368 72.9682 141.968 72.8359 140.567L72.6436 138.459C72.6348 135.176 72.8705 131.885 72.6529 128.603C72.3648 123.901 71.6893 119.234 71.3427 114.538C71.1972 112.594 71.174 110.647 71.1194 108.704C72.1454 107.157 73.2292 105.645 74.3392 104.172C75.6984 102.395 77.1773 100.734 78.5394 98.9386C79.9015 97.143 81.1318 95.2958 82.3894 93.4506C83.6471 91.6054 84.9118 89.9367 86.2506 88.234C88.7649 85.0298 91.262 81.7362 92.8753 77.9647C94.5999 73.9195 95.3786 69.511 96.3194 65.2376C96.99 62.1833 97.8562 59.1339 98.4191 56.044C98.5648 55.5293 98.6794 55.0062 98.7622 54.4776C98.8434 54.0951 98.8809 53.7047 98.874 53.3138ZM43.4121 37.3528C44.101 36.7904 44.767 36.2255 45.3998 35.5955C46.3695 34.6259 47.2983 33.6055 48.2647 32.6499C49.6327 31.267 51.1399 30.0168 52.6386 28.7719C53.4239 28.0985 54.2553 27.4809 55.1267 26.9235C55.4696 26.7044 55.8329 26.5192 56.2116 26.3703C56.3538 26.3114 56.5023 26.269 56.6541 26.2436C56.4217 27.505 55.9505 28.7103 55.266 29.7948C54.4108 31.2306 53.4209 32.5816 52.3097 33.8297C51.3743 34.9504 50.3465 35.9906 49.2373 36.9396C47.9482 37.9928 46.3654 38.5641 44.8228 39.1272C43.6055 39.5107 42.4342 40.0272 41.3302 40.6675C41.325 40.606 41.3072 40.5463 41.278 40.4919C41.2489 40.4376 41.2089 40.3898 41.1606 40.3514C41.6599 39.7475 42.0433 39.0566 42.2917 38.3134C42.6736 37.9697 43.0494 37.6584 43.4121 37.3528ZM33.2937 10.216C33.4364 9.58982 33.6208 8.82359 34.1288 8.36849C34.8795 7.68686 35.91 8.62841 36.4765 9.2126C37.4306 10.2552 38.2503 11.4134 38.9163 12.6599C39.8564 14.3466 40.6438 16.114 41.269 17.941C42.8116 22.3058 43.7651 27.0832 43.3481 31.7222C43.1316 33.7399 42.6576 35.7217 41.9377 37.619C41.5875 37.9381 41.2638 38.2851 40.9696 38.6565L40.9377 38.7049C41.1078 37.9847 41.2247 37.2529 41.2875 36.5156C41.4934 34.5462 41.4495 32.5587 41.1567 30.6004C40.4601 26.1493 38.6538 21.8811 36.3196 18.0472C35.2986 16.3991 34.164 14.824 32.9241 13.3336C32.9506 12.2852 33.0743 11.2415 33.2937 10.216ZM24.7432 13.612C24.1318 11.8874 23.5194 9.85398 24.0933 8.0303C24.1878 7.72192 24.3408 7.25832 24.654 7.10712C24.774 7.07377 24.9 7.06736 25.0228 7.08835C25.1456 7.10934 25.2623 7.15721 25.3644 7.22853C25.7082 7.42805 26.0333 7.65836 26.3355 7.91662L27.5441 8.86918C29.303 10.3162 30.9039 11.9453 32.3199 13.7294C32.2947 15.9003 32.4621 18.0691 32.8202 20.2104C32.9708 21.1641 33.1529 22.1149 33.3435 23.0604C31.3056 21.2598 29.0759 19.6887 26.6945 18.3756C26.0496 16.7812 25.3264 15.2257 24.7432 13.612ZM33.5781 24.1382C33.8086 25.2708 34.0431 26.3985 34.247 27.5381C34.7277 30.2193 35.1273 32.908 35.6056 35.5623C35.709 36.1478 35.8172 36.7375 35.9296 37.3222C35.6998 37.0434 35.4782 36.7548 35.2619 36.4747C33.9868 34.7478 32.8624 32.9144 31.901 30.9949C30.0033 27.2666 28.5722 23.3276 27.1031 19.4193C28.118 19.9977 29.0993 20.633 30.0424 21.3222C31.2444 22.2027 32.4166 23.1541 33.5781 24.1382ZM28.5938 36.2109C26.5298 34.9912 24.5501 33.6503 22.5781 32.295C20.5283 30.8832 18.4908 29.4567 16.502 27.9667C15.4981 27.2165 14.5091 26.4483 13.5352 25.662C12.8586 25.1151 12.2029 24.5482 11.5152 24.0295C10.8276 23.5109 10.2497 23.0504 9.65216 22.5235C9.04335 22.0266 8.50861 21.4453 8.06415 20.7971C7.89343 20.5865 7.79167 20.3284 7.77269 20.0579C7.75371 19.7874 7.81842 19.5177 7.95804 19.2853C8.35954 18.7082 9.1149 18.4258 9.74949 18.2135C10.4807 17.9651 11.2304 17.7696 11.9604 17.5576C12.9396 17.2784 13.937 17.0675 14.9455 16.9265C16.7714 16.6591 18.6276 16.6736 20.4491 16.9696C22.4428 17.3214 24.3693 17.9823 26.1591 18.9286C26.2063 19.0469 26.2624 19.1644 26.3054 19.2877C27.118 21.3755 27.9089 23.4744 28.7613 25.5495C30.461 29.6956 32.4019 33.847 35.1951 37.3847C35.4933 37.7663 35.805 38.1466 36.129 38.5122L36.2582 39.1817C36.339 39.5695 36.4238 39.9523 36.5267 40.3335L36.4698 40.3069C35.9489 40.0728 35.4325 39.8384 34.9153 39.5948C32.75 38.56 30.6429 37.432 28.5938 36.2109ZM17.4768 40.6949C15.3603 39.8498 13.3171 38.8316 11.368 37.6504C10.4885 37.1273 9.64627 36.544 8.84724 35.9046C8.08845 35.3306 7.43088 34.6337 6.90167 33.843C6.67997 33.4967 6.53312 33.1078 6.47057 32.7014C6.4528 32.5769 6.45818 32.4501 6.48642 32.3275C6.51266 32.2542 6.56303 32.1919 6.62927 32.151C6.91183 32.0302 7.22173 31.9878 7.52635 32.0283C7.92912 32.0532 8.33036 32.0984 8.72856 32.1639C11.2214 32.5088 13.7094 32.7996 16.1757 33.3014C18.7729 33.8315 21.3161 34.5983 23.7735 35.5923C25.0049 36.0977 26.2019 36.6744 27.3871 37.2703C28.4965 37.8322 29.5776 38.433 30.6915 38.9945C32.5934 39.9293 34.64 40.6101 36.4539 41.7254C36.5546 41.7844 36.6472 41.8532 36.7438 41.917C34.1758 42.0922 31.6027 42.0635 29.0383 42.0794C27.5499 42.0925 26.0542 42.1245 24.5654 42.233C24.1916 42.2671 23.8133 42.3016 23.4394 42.3357C21.3964 42.0155 19.3961 41.4651 17.4768 40.6949ZM35.139 42.7447C33.9426 42.9192 32.7333 42.9885 31.5248 42.9517C30.6834 42.9376 29.8382 42.883 28.9972 42.8235C31.0346 42.8057 33.0889 42.8227 35.139 42.7447ZM29.1963 48.3418C28.1125 48.7087 27.021 49.0399 25.9275 49.3485C24.5142 49.7775 23.0672 50.0857 21.6018 50.2699C19.7289 50.4665 17.8394 50.4407 15.9726 50.193C14.6356 50.0242 13.3151 49.7859 11.9765 49.6491C10.6379 49.5123 9.34605 49.3395 8.05781 49.0573C6.88169 48.8571 5.75939 48.4168 4.76086 47.7638C4.63054 47.6691 4.50595 47.5667 4.38775 47.4572C5.38028 46.1403 6.88726 45.3852 8.44797 44.9204C10.3709 44.4061 12.3445 44.1042 14.3332 44.0202C16.2327 43.8833 18.1411 43.8455 20.0258 43.5963C21.1477 43.4486 22.2638 43.2378 23.3701 43.1187C24.3401 43.2482 25.3089 43.3143 26.2871 43.384C27.439 43.4652 28.5748 43.5705 29.748 43.6361C31.8619 43.8326 33.993 43.7285 36.0777 43.3267C34.5321 44.5281 33.1053 45.875 31.8169 47.3489L31.7723 47.4074C30.9211 47.7349 30.0593 48.0451 29.1963 48.3418ZM37.3793 45.8968C36.3456 47.7579 35.3979 49.6656 34.4027 51.5504C33.6661 52.9347 32.943 54.3178 32.2593 55.7337C31.6011 57.1811 30.8574 58.5881 30.0323 59.9473C29.3182 61.1959 28.3453 62.2773 27.179 63.1189C27.0549 63.2029 26.9251 63.2738 26.7954 63.3447C26.3111 59.828 27.174 56.2929 28.7695 53.1725C29.7198 51.3177 30.8897 49.5839 32.254 48.0084C33.4591 47.5194 34.6333 46.9573 35.7699 46.3252C36.5366 45.9011 37.2746 45.4272 37.9793 44.9064C37.7718 45.2206 37.5798 45.556 37.3793 45.8968ZM39.8922 41.9296C39.753 42.0967 39.6187 42.2679 39.4853 42.4482C38.5203 43.5627 37.3797 44.512 36.1086 45.2587C35.2492 45.7784 34.3612 46.2491 33.4488 46.6686C34.2556 45.8316 35.1118 45.0437 36.0129 44.3091C37.3071 43.2447 38.6995 42.3056 40.1713 41.5045C40.0788 41.6355 39.9977 41.7928 39.9012 41.9288L39.8922 41.9296ZM37.7782 40.7599C37.6201 40.7294 37.4645 40.6874 37.3126 40.6343C37.1851 40.2326 37.0843 39.8239 36.9924 39.4145C37.162 39.5807 37.3266 39.7428 37.4905 39.8959C37.8466 40.222 38.2414 40.5032 38.6659 40.7334C38.3783 40.8056 38.0785 40.8143 37.7872 40.759L37.7782 40.7599ZM38.7083 41.4971L38.1789 41.8179L38.1204 41.8232L37.8051 41.852C37.7445 41.7349 37.6834 41.6133 37.6314 41.4909C37.8262 41.5308 38.0243 41.5522 38.2231 41.555C38.3894 41.5518 38.5549 41.5321 38.7173 41.4963L38.7083 41.4971ZM40.1434 38.7592C40.0084 39.3577 39.7209 39.9112 39.309 40.3659C38.5393 40.0587 37.8567 39.5673 37.3211 38.9348C37.1355 38.7428 36.9496 38.5463 36.7681 38.3494C36.5569 37.2786 36.3498 36.2029 36.1562 35.126C35.7017 32.5831 35.3095 30.0255 34.846 27.4834C34.6828 26.5899 34.5015 25.6981 34.3157 24.8067L34.6221 25.0785C35.868 26.1912 37.1025 27.3775 37.8109 28.9207C38.4513 30.3157 38.566 31.8223 38.9321 33.2968C39.2823 34.6955 39.6995 36.0836 39.9702 37.5078C40.0432 37.9099 40.1125 38.3214 40.1458 38.7362L40.1434 38.7592ZM40.4471 37.11C40.192 35.8071 39.8301 34.5275 39.5127 33.2393C39.138 31.7201 39.036 30.1534 38.3861 28.7048C37.6498 27.0551 36.3613 25.7737 35.0392 24.5726L34.08 23.7154C33.8536 22.6278 33.6367 21.544 33.4549 20.4478C33.1104 18.4708 32.9203 16.47 32.8864 14.4635C35.3901 17.5885 37.394 21.0829 38.8267 24.8221C39.5953 26.8105 40.1404 28.8782 40.4517 30.9871C40.6909 32.8239 40.708 34.6828 40.5026 36.5236C40.5109 36.7136 40.488 36.911 40.4651 37.1084L40.4471 37.11ZM79.5176 84.5697C81.5786 81.1752 83.694 77.8302 85.4683 74.2801C87.4257 70.2717 89.5922 66.3689 91.9587 62.5877C93.1308 60.7504 94.185 58.8647 95.2514 56.9643C96.0496 55.4844 96.9502 54.0622 97.9468 52.708C98.0535 52.8309 98.1211 52.9829 98.141 53.1444C98.043 54.0617 97.9 54.9832 97.73 55.9071C97.4298 56.9448 97.0678 57.9637 96.6458 58.9582C95.2506 62.3329 93.2944 65.4817 91.5327 68.6718C89.1031 73.0538 86.6498 77.4243 84.4823 81.9413C82.5546 85.9505 80.7174 90.0059 78.5841 93.9022C76.6492 97.5447 74.3641 100.99 71.7612 104.19C72.9117 101.319 73.5213 98.2427 74.4138 95.2818C75.5509 91.4673 77.4796 87.9668 79.5356 84.5681L79.5176 84.5697ZM65.8517 59.9639L65.1051 51.7794C64.873 49.2344 64.7166 46.6734 64.4067 44.1219C64.1464 42.0155 63.7518 39.9304 63.5682 37.817C63.4285 36.2855 63.3272 34.5779 63.7182 33.0389C63.7969 33.4541 63.8806 33.8734 63.9683 34.2878C63.9893 34.5175 64.0094 34.7383 64.0312 34.977C64.1076 35.8148 64.1615 36.6547 64.2379 37.4925C64.3333 38.5375 64.5498 39.5669 64.7122 40.6013C65.6173 46.4402 66.1095 52.3357 66.1852 58.2439C66.217 60.1849 66.2212 62.1239 66.2255 64.0629C66.1244 62.705 65.995 61.3361 65.8697 59.9622L65.8517 59.9639ZM67.3201 78.7014C67.7536 82.359 68.1822 86.0124 68.5707 89.6741C68.3864 88.7492 68.1921 87.8298 67.9876 86.9159L67.9191 86.6133C67.7062 83.9802 67.5019 81.3419 67.3381 78.6998L67.3201 78.7014ZM69.312 98.1997C69.3235 98.3259 69.3346 98.4475 69.3687 98.5715C69.418 99.1121 69.4357 99.6555 69.4629 100.203C69.5293 101.727 69.5687 103.254 69.6126 104.781C69.6044 104.691 69.5961 104.601 69.5879 104.51C69.311 101.475 69.0337 98.434 68.7567 95.3981C68.7009 94.7855 68.645 94.1729 68.5891 93.5603C68.8511 95.1048 69.0981 96.6508 69.33 98.1981L69.312 98.1997ZM67.052 47.5822C68.031 52.8387 68.9208 58.1124 69.5911 63.4198C71.0051 73.97 71.5768 84.616 71.3007 95.2569C71.2128 98.0778 71.0518 100.893 70.8177 103.703C70.7015 102.678 70.5673 101.655 70.4236 100.628C70.2606 99.5045 70.0931 98.3813 69.921 97.2585C69.8321 95.8859 69.719 94.5124 69.5815 93.1382C69.0217 87.5982 68.3313 82.0701 67.6638 76.5445C67.4435 74.7266 67.2292 72.9083 67.0209 71.0893C66.9443 67.1131 66.9586 63.1376 66.9045 59.1593C66.8384 53.1744 66.3694 47.2007 65.5007 41.2788C65.4083 40.665 65.298 40.0528 65.1963 39.4353C65.8653 42.1403 66.5434 44.8444 67.052 47.5822ZM61.1194 62.2032C61.6711 60.4273 62.09 58.6129 62.3727 56.7749C62.637 54.6933 62.7547 52.5978 62.7999 50.5044C62.9177 47.0294 62.7825 43.5504 62.3954 40.095C62.0633 37.4002 61.5149 34.3754 62.2617 31.7093C62.3726 31.2906 62.5528 30.8934 62.7949 30.5343C63.1228 30.8662 63.3617 31.2756 63.4893 31.7245C62.8158 33.203 62.7758 34.9053 62.8668 36.5003C62.9718 38.4982 63.3241 40.469 63.6269 42.4444C63.9621 44.6257 64.1352 46.8218 64.3402 49.0196L65.0974 57.3212C65.4672 61.3751 65.8399 65.4606 66.2919 69.5207C66.3184 71.653 66.3629 73.7836 66.4663 75.9134C66.5697 78.0432 66.7174 80.2598 66.879 82.4297C66.092 79.5765 65.1792 76.756 64.1408 73.9681C63.0987 71.1564 61.9419 68.3823 60.6578 65.6562C60.6455 64.4949 60.8016 63.3378 61.1211 62.2212L61.1194 62.2032ZM64.8239 87.3316C63.805 82.9826 63.4163 78.5216 62.4236 74.1611C61.9681 72.1543 61.4593 70.1614 61.0116 68.1402C61.606 69.4788 62.1714 70.8322 62.708 72.2003C64.3299 76.2814 65.6853 80.4634 66.7655 84.7201C66.932 85.3998 67.0939 86.0799 67.2468 86.7609C67.4588 89.0852 67.6709 91.4094 67.8829 93.7337C68.0379 95.4334 68.1928 97.1315 68.3475 98.8282C67.2306 94.9968 65.7271 91.2597 64.812 87.3509L64.8239 87.3316ZM71.9905 129.108C71.9485 128.349 71.8975 127.591 71.8301 126.852C71.4242 122.402 70.7349 117.982 70.4277 113.518C70.4722 113.209 70.5163 112.896 70.5572 112.597C70.7522 116.926 71.344 121.223 71.7372 125.534C71.8333 126.688 71.9291 127.887 71.9905 129.108ZM95.9246 63.7475C94.9556 68.0598 94.2097 72.479 92.6452 76.6367C91.181 80.4992 88.7617 83.8492 86.254 87.0756C84.9369 88.7672 83.6095 90.4461 82.3899 92.2106C81.1702 93.9751 79.9486 95.867 78.6475 97.6343C77.1847 99.6209 75.5552 101.473 74.058 103.431C73.0536 104.733 72.0903 106.072 71.1681 107.446C71.2232 106.905 71.2787 106.368 71.3248 105.828C77.2005 99.197 80.9625 90.901 84.7074 82.9654C86.9305 78.2616 89.4624 73.7068 92.0193 69.177C93.5821 66.3956 95.2834 63.6379 96.6452 60.7432C96.3945 61.7289 96.136 62.729 95.923 63.7295L95.9246 63.7475Z" fill="#526352"/>
</svg>
