<svg width="268" height="284" viewBox="0 0 268 284" fill="none" xmlns="http://www.w3.org/2000/svg">
<path d="M167 232C162.5 226.5 132 231.5 132.999 242.5C133.999 253.5 119.5 246 119.5 258C119.5 270 149.541 282.311 161 277C181.5 267.5 188.5 292.5 212 280C228.285 271.337 221.642 219.005 208.5 215.5C193.5 211.5 193.5 201 180 200.5C163.034 199.871 177.62 244.98 167 232Z" fill="#C0A694"/>
<path d="M64.8047 52.3917C51.858 48.1927 38.0644 55.9888 28.1759 65.3244C19.932 73.0995 12.5069 83.6948 14.3194 94.892C15.4181 101.729 19.918 107.811 20.2049 114.732C20.9677 131.479 -2.04948 142.802 0.147965 159.423C1.13472 166.834 7.10422 172.593 13.4446 176.554C24.5928 183.511 39.5481 186.562 50.7103 179.627C60.7317 173.405 65.0566 161.053 73.5525 152.872C79.5285 147.137 87.3215 143.671 95.583 143.075C102.882 142.585 110.664 144.286 117.229 141.059C123.072 138.183 126.522 132.018 128.916 125.957C133.373 114.655 134.78 100.211 126.067 91.7428C119.307 85.1714 107.634 83.5058 103.995 74.8C102.539 71.3009 102.742 67.3329 101.413 63.7988C99.544 58.851 94.8202 55.4009 89.7884 53.7773C84.7567 52.1537 79.3751 52.0418 64.8047 52.3917Z" fill="#FFC9A3"/>
<path d="M91.5447 49.5778L91.4888 49.5078C91.5238 49.5638 91.5377 49.5778 91.5447 49.5778Z" fill="black"/>
<path d="M267.488 98.391C267.055 98.0775 266.549 97.88 266.018 97.8171C264.949 97.6074 263.861 97.5019 262.771 97.5022C261.805 97.522 260.84 97.5944 259.881 97.7191C259.748 97.5092 259.615 97.2992 259.496 97.0893C258.18 94.9898 257.621 92.9603 256.9 90.427C256.018 87.4655 255.475 84.4133 255.283 81.3292C254.961 77.5642 254.891 73.7781 254.492 70.0271C254.328 68.6813 254.07 67.3485 253.723 66.0381C253.455 64.879 253.08 63.7474 252.603 62.6579C251.749 60.7194 250.685 58.7669 248.95 57.4862C248.289 56.8965 247.497 56.4719 246.64 56.2475C244.093 55.8137 241.476 56.1636 238.942 56.3805C236.073 56.6325 233.204 56.7864 230.334 57.0313L227.696 57.3673C227.699 57.3534 227.699 57.3391 227.696 57.3253C223.644 57.7172 219.613 58.375 215.575 58.9139C212.895 59.3128 210.886 59.6557 208.325 59.8656C207.772 59.9076 207.219 59.9566 206.666 59.9706C205.964 59.972 205.263 59.9253 204.567 59.8306C204.365 59.7989 204.167 59.7521 203.972 59.6907C203.828 59.6557 203.688 59.6088 203.552 59.5507L203.307 59.3898C202.439 58.2491 203.307 56.9404 204.294 55.7717C205.117 54.9738 206.01 54.2502 206.96 53.6092C208.702 52.3926 210.539 51.3184 212.454 50.397C214.19 49.5003 215.975 48.7013 217.801 48.0036C221.183 46.689 224.641 45.5812 228.158 44.6865C230.257 44.0776 232.441 43.7277 234.547 43.1049C234.884 43.0096 235.184 42.8151 235.409 42.5467C235.634 42.2783 235.772 41.9485 235.807 41.6002C235.829 40.9008 235.713 40.2038 235.464 39.5497C235.137 38.58 234.756 37.6291 234.323 36.7015C233.238 34.4766 231.908 32.3803 230.355 30.452C228.928 28.8406 227.349 27.3711 225.639 26.0641C224.385 25.1451 223.033 24.3682 221.608 23.7477C219.718 22.8869 217.521 22.2641 215.477 22.9499C213.122 23.8645 211.111 25.4914 209.725 27.6037C206.351 32.2996 208.948 31.8727 209.312 31.8377C209.909 31.7585 210.495 31.6154 211.061 31.4108C212.776 30.8229 214.21 30.2351 215.26 29.7942C215.442 29.7172 216.919 29.1854 216.296 28.6675C215.463 27.9677 207.758 32.5585 209.298 30.1371C211.173 27.2048 213.266 24.5385 216.429 23.7967H216.289C216.723 23.7175 217.164 23.687 217.605 23.7057C217.773 23.7057 217.934 23.7057 218.094 23.7057C218.416 23.7547 218.738 23.8177 219.053 23.8947C220.789 24.3917 222.44 25.1466 223.952 26.1341C225.858 27.4198 227.607 28.9228 229.166 30.613C230.412 32.0475 231.503 33.6098 232.42 35.2738C233.638 37.2543 235.121 40.8724 234.75 41.7122C234.533 42.1251 233.645 42.2581 232.7 42.489C231.37 42.7899 230.04 43.0979 228.718 43.4338C224.427 44.501 220.218 45.8714 216.121 47.5347C213.623 48.5985 211.222 49.8792 208.843 51.1808C207.814 51.7911 206.818 52.4569 205.862 53.1753C204.901 53.8171 204.024 54.5765 203.251 55.4358C202.696 56.0979 202.273 56.8605 202.006 57.6822C201.899 58.1128 201.902 58.5633 202.014 58.9924C202.127 59.4216 202.345 59.8156 202.649 60.1386C203.298 60.5657 204.05 60.8077 204.826 60.8384C205.669 60.9387 206.519 60.9621 207.366 60.9084C210.026 60.7474 212.657 60.3135 215.288 59.9216L220.803 59.1518C220.859 59.1591 220.915 59.1591 220.971 59.1518C224.057 59.0188 227.122 58.55 230.194 58.2141C233.071 57.9971 235.947 57.8292 238.816 57.5842C240.686 57.3629 242.567 57.253 244.45 57.2553C245.134 57.2274 245.819 57.291 246.486 57.4443C247.202 57.6548 247.858 58.034 248.397 58.55C249.13 59.1429 249.762 59.8521 250.265 60.6494C250.741 61.4129 251.164 62.2079 251.532 63.0288C252.462 65.2675 253.086 67.6215 253.387 70.0271C253.716 72.9873 253.89 77.5992 254.177 81.1123C254.352 82.9458 254.534 84.7864 254.877 86.5989C255.164 88.1525 255.577 89.6852 256.046 91.2038C256.623 93.5414 257.545 95.7798 258.782 97.8451C257.481 98.062 256.193 98.349 254.919 98.6919C253.134 99.2407 251.386 99.9022 249.685 100.672C246.701 102.066 243.562 103.1 240.335 103.752C239.412 103.947 238.477 104.08 237.536 104.151C236.49 104.188 235.444 104.169 234.4 104.095C234.304 104.091 234.21 104.118 234.13 104.172C234.051 104.226 233.991 104.305 233.96 104.395C226.243 104.376 218.534 103.939 210.865 103.087C205.827 102.548 199.766 101.897 195.35 99.8816C187.281 96.1865 190.172 93.4502 185.609 97.3132C184.768 98.0658 183.801 98.6651 182.753 99.0838C181.635 99.3849 180.471 99.4868 179.317 99.3847C179.079 98.9508 178.834 98.5169 178.582 98.083C178.69 98.1554 178.812 98.2035 178.94 98.2241C179.068 98.2446 179.199 98.2371 179.324 98.202C180.213 97.8241 180.619 96.8024 181.221 96.1025C182.208 94.7589 183.208 93.4362 184.146 92.0576C185.238 90.4394 186.126 88.693 186.791 86.8579C187.637 84.9917 187.908 82.9159 187.568 80.8954C187.208 78.9643 186.427 77.1364 185.28 75.5417C184.646 74.7509 183.961 74.0028 183.229 73.3023C181.487 71.854 179.612 70.5723 177.631 69.4742C174.488 67.5427 170.786 65.6532 168.806 63.0848C168.004 62.1163 167.59 60.8842 167.644 59.6277C167.757 58.932 168.046 58.2768 168.484 57.7242C168.66 57.5139 168.868 57.3322 169.1 57.1853L169.016 57.2483C169.306 57.0612 169.616 56.9063 169.94 56.7864L169.849 56.8284C173.775 55.0998 179.989 60.1526 182.991 63.2808C184.646 65.0121 186.189 66.8471 187.61 68.7744C188.072 69.3692 188.527 69.9711 189.01 70.552C189.353 71.0728 189.819 71.5008 190.367 71.7976C190.587 71.9002 190.825 71.9573 191.067 71.9656C191.243 71.984 191.421 71.96 191.585 71.8956C191.653 71.8784 191.715 71.8447 191.767 71.7976C192.326 71.0742 192.761 70.263 193.055 69.3973C193.818 67.4938 194.375 65.5135 194.713 63.4907C195.168 59.9496 194.419 57.9481 191.914 55.3938C189.473 52.982 186.806 50.8096 183.95 48.9064C181.004 46.688 177.911 44.9244 176.252 41.8382C176.16 41.6291 176.083 41.4139 176.021 41.1943C175.964 40.9805 175.922 40.763 175.895 40.5435C175.867 40.3368 175.867 40.1273 175.895 39.9207V40.0396C175.895 39.9906 175.937 39.8997 175.951 39.8367L176.105 39.6337L176.329 39.4518L176.658 39.2488L176.987 39.1229H176.868C177.098 39.0736 177.333 39.0548 177.568 39.0669C177.861 39.0599 178.154 39.0977 178.435 39.1788C179.42 39.5336 180.36 40.0034 181.235 40.5785C182.04 41.0614 183.467 42.1811 183.866 42.475C186.729 44.8229 189.312 47.4928 191.564 50.432C191.963 50.9359 193.048 52.5315 193.664 53.3923C194.237 54.3531 194.996 55.1904 195.896 55.8556C196.269 56.1109 196.691 56.2871 197.135 56.3735C197.461 56.4076 197.79 56.3695 198.1 56.2618C198.41 56.1542 198.692 55.9797 198.926 55.7507C199.231 55.4372 199.482 55.0753 199.668 54.6799C200.095 53.9381 200.445 53.1543 200.795 52.3775C201.74 50.278 202.544 48.1786 203.538 45.8692C204.448 43.6717 205.323 41.4603 206.079 39.1998C206.674 37.5834 207.119 35.9154 207.408 34.2171C207.863 31.4418 207.967 28.6203 207.716 25.8192C207.219 22.8799 206.701 19.8777 205.414 17.1624C204.126 14.4471 202.67 11.5638 200.515 9.24036C198.874 7.37744 196.977 5.7564 194.881 4.42557C192.381 2.68295 189.596 1.38989 186.651 0.604528C184.001 0.038374 181.282 -0.131434 178.582 0.100654C176.358 0.378038 174.175 0.923186 172.081 1.72425C170.782 2.32144 169.55 3.05576 168.407 3.9147C166.367 5.36644 164.49 7.03474 162.808 8.89045C161.507 10.2901 160.394 11.8087 159.092 13.1804C158.796 13.4829 158.456 13.74 158.085 13.9432L157.784 14.0691H157.574L157.378 13.9852C156.724 13.4095 156.162 12.7368 155.712 11.9907C154.417 10.1571 153.116 8.32359 151.66 6.61602C150.521 5.13957 149.119 3.88676 147.524 2.92095C146.127 2.09241 144.594 1.51895 142.996 1.22737C140.856 0.989682 138.692 1.12943 136.6 1.64027C134.396 2.37241 132.322 3.44952 130.456 4.83147C127.982 6.72938 125.73 8.90096 123.744 11.3048C122.04 13.4555 120.529 15.7529 119.23 18.1701C117.897 20.587 116.777 23.116 115.885 25.7282C114.774 28.754 113.938 31.8739 113.387 35.0499C112.963 37.4246 112.678 39.8221 112.533 42.2301C112.414 44.6935 112.477 47.1288 112.603 49.6202C112.751 53.8974 113.28 58.1529 114.185 62.336C115.277 66.5938 117.178 70.6019 119.783 74.1421C121.414 76.4095 123.282 78.404 124.745 80.4825C125.27 81.1628 125.725 81.8943 126.103 82.6659C126.005 82.4 126.201 82.9039 126.229 82.9668C126.417 83.4601 126.556 83.9713 126.641 84.4925C126.671 84.6943 126.689 84.8975 126.697 85.1013C126.708 85.2854 126.708 85.47 126.697 85.6542C126.28 88.132 125.049 90.4001 123.198 92.0995C121.715 93.5832 120.007 94.8079 118.412 96.1515C118.251 96.2775 118.09 96.4175 117.929 96.5644C117.581 94.838 117.019 93.1618 116.256 91.5747C113.618 86.0531 108.124 82.6029 105.409 77.5782C104.894 76.6272 104.555 75.5912 104.408 74.52C104.092 72.7251 103.944 70.9047 103.967 69.0823C103.967 65.5482 104.149 62.0211 104.128 58.487C104.175 56.2411 104.025 53.9954 103.68 51.7757C103.474 50.262 103.116 48.7731 102.61 47.3318C101.859 45.2326 100.856 43.2327 99.6212 41.3763C97.7071 38.3232 95.2386 35.6553 92.3431 33.5103C91.1467 32.6302 89.8962 31.8262 88.599 31.1029C86.6707 30.1007 84.5483 29.5277 82.3776 29.4233C80.9489 29.4226 79.5299 29.6591 78.1786 30.1231C76.1911 30.8229 73.5108 32.2786 72.0552 33.0064C71.7667 33.1787 71.4309 33.2547 71.0964 33.2233L70.8935 33.1044C70.8256 33.0208 70.7648 32.9319 70.7115 32.8384C70.5044 32.3232 70.3314 31.7948 70.1936 31.2568C69.4938 28.6395 68.906 25.9522 67.6113 23.5588C65.2346 19.0586 61.6368 15.32 57.2311 12.7724C52.8254 10.2248 47.7904 8.97146 42.7046 9.15638C39.9006 9.18654 37.117 9.63711 34.4466 10.493C32.3071 11.1158 30.2384 11.9601 28.2742 13.0124C26.7269 13.8996 25.2358 14.8812 23.8093 15.9517C21.7205 17.4228 19.7545 19.0611 17.9308 20.8504C16.363 22.5226 14.9287 24.315 13.6409 26.2111C11.4195 29.4662 9.48086 32.9056 7.84631 36.4915C6.11842 40.0464 4.81704 43.7931 3.96928 47.6537C3.44249 50.324 3.20783 53.0436 3.26946 55.7647C3.23001 58.0066 3.44127 60.246 3.8993 62.441C4.41126 64.9024 5.08693 67.3268 5.92179 69.6982C7.39142 74.0511 9.62386 77.4452 10.5266 81.9171C10.7825 83.1381 10.8626 84.3895 10.7646 85.6332C10.7467 86.0503 10.6905 86.465 10.5966 86.8718C10.5117 87.0949 10.4759 87.3336 10.4916 87.5717C10.5158 87.6632 10.5668 87.7455 10.638 87.808C10.7092 87.8704 10.7974 87.9102 10.8913 87.9222C10.9853 87.9342 11.0807 87.918 11.1653 87.8755C11.2499 87.833 11.32 87.7662 11.3664 87.6837C11.6743 86.9838 11.9403 86.214 12.2272 85.4722C13.067 83.3727 13.6828 81.9031 14.6136 79.9156C16.4753 75.7129 18.7121 71.6866 21.2969 67.8856C22.3264 66.3913 23.4458 64.961 24.6491 63.6027C25.6955 62.4815 26.8204 61.4361 28.0152 60.4745C29.6458 59.2008 31.1085 58.0671 33.1939 57.6122C34.2968 57.2633 35.4834 57.2829 36.5741 57.6682C36.7179 57.725 36.8581 57.7905 36.994 57.8641C37.1485 57.9368 37.2961 58.0235 37.4349 58.1231C37.5851 58.2347 37.7213 58.3639 37.8408 58.508C38.7575 59.9496 38.6946 61.8741 38.3447 63.5187C36.945 69.3063 31.4864 74.5689 26.9305 78.7189C23.3124 81.9871 19.6173 85.1713 15.8173 88.2365C12.2412 91.2318 8.30119 93.8351 5.31994 97.4602C4.68924 98.2936 4.17591 99.2095 3.79432 100.183C3.37852 101.071 3.08879 102.013 2.93354 102.982C2.80862 104.306 2.86987 105.642 3.11549 106.95C3.38843 109.091 4.47315 111.009 5.52289 112.863C6.76158 114.963 8.07725 117.062 9.18997 119.204C12.1642 124.802 14.1307 130.275 14.7886 136.405C14.8655 137.014 14.9425 137.616 15.0125 138.225C15.0278 138.621 15.1008 139.012 15.2294 139.387C15.2648 139.48 15.321 139.563 15.3938 139.631C15.4666 139.699 15.554 139.75 15.6493 139.779C16.2162 139.884 16.4681 139.191 16.6711 138.785C17.7488 136.482 18.7706 134.166 20.0162 131.934C22.1647 127.959 24.5091 124.096 26.7556 120.176C29.4429 115.495 32.2632 110.883 34.8175 106.131C36.6861 102.632 38.3796 99.0838 39.9193 95.4517C41.3189 92.1765 42.5016 88.8244 43.7403 85.4862C45.3359 81.0633 47.4424 75.8076 49.024 71.8816C50.3326 68.7044 51.8792 65.6322 53.4608 62.581C54.8605 59.8237 56.3651 57.1013 58.0307 54.484C59.4936 52.0509 61.1956 49.7699 63.1114 47.6747C63.2406 47.5398 63.3786 47.4136 63.5243 47.2968L63.6573 47.2128C63.7133 48.2276 62.9575 50.313 62.3766 51.5447C61.6348 53.1613 60.851 54.7639 60.0462 56.3525C57.7601 60.8454 55.4553 65.3336 53.1319 69.8171C50.2906 75.4157 47.2044 80.9024 44.6081 86.6129C43.2084 89.7551 41.9417 92.9533 40.5071 96.0745C37.5189 102.478 34.2087 108.727 30.8915 114.97C29.009 118.469 27.3294 122.129 25.4049 125.635C23.7183 128.714 21.7658 131.633 19.9743 134.649C19.7998 134.918 19.6632 135.21 19.5684 135.517C19.5373 135.616 19.5287 135.721 19.5433 135.824C19.5578 135.926 19.5951 136.025 19.6523 136.111C19.7048 136.181 19.7767 136.233 19.8589 136.262C19.9411 136.291 20.0299 136.294 20.1142 136.272C20.6756 136.084 21.1908 135.779 21.6258 135.377L23.6623 133.767C25.1693 132.573 26.8185 131.364 28.6101 130.142C32.5291 127.343 36.4201 125.061 40.801 123.648C45.9447 121.891 51.2984 120.771 56.2531 118.455C57.7018 117.702 59.0832 116.827 60.3821 115.838C61.602 114.9 62.7187 113.835 63.7133 112.66C65.4466 110.657 66.9861 108.495 68.3111 106.201C71.1104 101.666 73.0839 96.6974 74.8965 91.7076C75.6489 89.6804 76.2707 87.607 76.758 85.5002C77.0886 84.18 77.3225 82.8374 77.4578 81.4832C77.4617 81.4436 77.4617 81.4038 77.4578 81.3642V81.2243C77.4578 80.9304 77.4718 80.6364 77.4998 80.3425C77.4998 80.1116 77.4998 79.8806 77.4998 79.6427C78.4798 81.6738 79.2467 83.8009 79.7882 85.9901C80.1661 87.3897 79.9562 88.9363 81.9717 88.0196C83.7394 87.1208 85.4295 86.0768 87.0244 84.8984C88.2363 84.0152 89.3759 83.037 90.4326 81.9731C91.3703 80.9488 92.1961 79.8274 92.8959 78.6279C93.8586 76.6139 94.6024 74.5023 95.1144 72.3295C95.5841 70.1989 95.8836 68.0343 96.0102 65.8561C96.2971 66.6399 96.577 67.4307 96.8429 68.2495C97.3258 69.6492 97.8577 71.0488 98.2006 72.4975C100.3 81.4972 97.8017 79.0618 104.758 84.7234C106.058 85.6775 107.068 86.9736 107.676 88.4675C108.005 89.446 108.262 90.447 108.446 91.4627C106.563 90.5196 104.579 89.7941 102.533 89.3002C100.182 88.6324 97.7534 88.2818 95.3103 88.2575C92.1471 88.2085 89.1029 89.4052 86.3736 90.9238C84.5725 92.0446 82.9156 93.3819 81.4398 94.9058C80.1976 96.2543 79.0539 97.6903 78.0177 99.2028C75.9071 102.21 74.0908 105.414 72.594 108.769C70.4147 113.253 68.8606 118.014 67.9752 122.92C67.242 127.12 67.1477 131.407 67.6953 135.636C67.7653 136.049 67.8352 136.468 67.9192 136.881C65.0409 136.405 62.1215 136.224 59.2064 136.342C55.4204 136.5 51.6642 137.085 48.0092 138.085C40.9576 140.131 34.52 143.885 29.2679 149.016C27.0525 151.266 25.0365 153.703 23.2424 156.301C21.1619 159.165 19.2796 162.167 17.6089 165.287C16.9837 166.449 16.4005 167.629 15.8593 168.828C15.6074 169.402 15.3624 169.976 15.1595 170.571C14.9733 171.002 14.9412 171.484 15.0685 171.935C15.7683 173.489 19.4354 171.019 20.4781 170.536C21.7098 169.836 23.9353 168.793 24.7821 168.436C26.7448 167.665 28.7467 166.997 30.7795 166.435C33.068 165.854 36.5321 165.203 38.3237 164.958C41.2027 164.531 44.1124 164.343 47.0225 164.398C48.1986 164.489 49.3675 164.658 50.5216 164.902C52.7182 165.162 54.8093 165.989 56.5891 167.303C57.4027 167.872 58.1493 168.532 58.8145 169.269L58.9825 169.507C59.1224 169.724 59.2554 169.955 59.3814 170.207C59.5073 170.459 59.7313 170.837 59.8782 171.166C60.0476 171.564 60.1652 171.983 60.2281 172.411C60.2631 172.763 60.2631 173.117 60.2281 173.468C59.9972 174.735 59.5283 175.071 58.3806 176.113C57.2916 176.727 56.1334 177.209 54.9305 177.548C51.0954 178.528 46.6166 178.248 42.2777 178.647C39.643 178.819 37.0224 179.162 34.4326 179.676C32.1178 180.06 29.8331 180.607 27.5953 181.313C24.6699 182.284 21.8285 183.492 19.0995 184.924C15.9535 186.466 13.0962 188.537 10.6526 191.048C9.32997 192.466 8.22824 194.075 7.38442 195.82C6.69098 197.608 6.31444 199.502 6.2717 201.419C6.37767 203.626 6.64195 205.822 7.0625 207.99C7.50339 209.88 8.02126 211.748 8.53913 213.589C8.93803 214.989 9.36492 216.388 9.82681 217.788C9.92865 218.238 10.1216 218.662 10.3937 219.034C10.5034 219.14 10.6502 219.2 10.8031 219.2C10.9559 219.2 11.1028 219.14 11.2125 219.034C11.3797 218.851 11.4998 218.63 11.5624 218.39C11.9011 216.673 12.4487 215.005 13.193 213.421C13.7362 212.439 14.3367 211.491 14.9915 210.58C15.5513 209.747 16.1836 208.964 16.881 208.242C20.5555 204.89 24.5389 201.893 28.778 199.292C31.1692 197.832 33.6517 196.528 36.2102 195.387C38.3614 194.476 40.5736 193.716 42.8305 193.112C45.9653 192.187 49.2475 191.866 52.5021 192.167C53.5624 192.363 54.5648 192.796 55.4344 193.434C55.6361 193.6 55.802 193.806 55.9223 194.038C56.0426 194.27 56.1146 194.524 56.1342 194.785V194.967C56.0822 195.27 55.9954 195.566 55.8752 195.848C55.6739 196.33 55.4401 196.798 55.1754 197.248C54.9222 197.662 54.6164 198.04 54.2656 198.375C52.4736 200.144 50.5404 201.763 48.4851 203.218C43.9292 206.647 39.2824 209.964 34.7685 213.442C32.9422 214.802 31.1945 216.265 29.5339 217.823C28.674 218.586 27.8695 219.409 27.1265 220.286C26.4266 221.14 25.8668 222.071 25.2649 222.974C24.6294 223.892 24.0789 224.867 23.6203 225.885C23.0714 227.286 22.6772 228.744 22.4446 230.231C22.3395 231.552 22.4101 232.882 22.6546 234.185C23.0324 235.472 23.5983 236.696 24.3342 237.817C24.9884 238.699 25.7115 239.527 26.4966 240.294C28.2971 242.085 30.1942 243.777 32.1792 245.361C34.3133 247.108 36.3439 248.977 38.2607 250.96C39.9362 252.717 41.4888 254.588 42.9075 256.558C44.5871 258.749 47.1064 263.773 47.1484 263.794C44.5661 267.014 45.049 271.332 47.2814 271.835C47.5797 271.87 47.882 271.831 48.1616 271.721C48.4411 271.611 48.6892 271.434 48.884 271.206C49.2718 270.665 49.491 270.023 49.5138 269.358C49.5964 267.487 49.2242 265.623 48.4291 263.927C48.667 263.668 48.933 263.41 49.2339 263.102C50.1507 262.192 51.1024 261.317 52.0752 260.463C54.0336 258.676 56.1047 257.016 58.2756 255.495C61.5788 253.304 65.0639 251.366 68.1222 248.818C70.8644 246.588 73.3691 244.081 75.5963 241.337C78.4314 238.054 81.0989 234.63 83.5883 231.078C86.4369 227.355 89.0545 223.462 91.4263 219.419C91.9582 218.453 92.4411 217.466 92.8959 216.465L95.6952 216.549C94.3047 218.816 92.781 220.999 91.1324 223.086C90.3486 224.044 88.9279 225.927 87.7732 227.138C86.4855 228.537 85.0859 229.832 83.7282 231.169C82.8721 232.102 82.2234 233.206 81.8247 234.409C81.5043 235.542 81.2704 236.698 81.1249 237.866C80.796 240.105 80.4251 242.352 80.3201 244.612C80.0325 249.365 80.3428 254.136 81.2439 258.812C81.6008 261.242 82.1388 263.642 82.8535 265.992C83.3503 267.369 84.0005 268.686 84.792 269.918C84.0427 270.105 83.3321 270.423 82.6925 270.856C82.0907 271.388 81.4538 272.087 81.6568 272.955C82.0395 273.938 82.7197 274.777 83.6023 275.356C86.2756 277.399 91.1464 278.617 94.6385 279.38C133.311 287.875 181.494 282.06 188.877 278.12C191.305 276.825 192.593 274.187 193.384 271.66C194.579 268.089 195.544 264.445 196.274 260.75C197.38 254.081 197.541 247.307 197.611 240.56C197.639 237.537 197.653 234.504 197.653 231.463C197.701 228.205 197.563 224.948 197.24 221.707C197.094 220.232 196.806 218.774 196.379 217.354C195.917 216.076 195.269 214.873 194.454 213.785C193.799 213.032 193.068 212.35 192.271 211.749C190.956 210.722 189.45 209.965 187.841 209.523C187.428 209.39 187.008 209.257 186.595 209.138C187.463 208.97 188.331 208.795 189.192 208.578C189.896 208.453 190.577 208.217 191.207 207.878C192.404 207.06 191.263 205.94 190.318 205.562C189.296 205.21 188.237 204.975 187.162 204.862C185.931 204.701 184.692 204.533 183.446 204.477C177.197 204.099 171.017 205.177 164.866 206.136L162.801 206.472C157.56 206.171 152.304 205.898 147.076 205.772C145.313 205.716 143.547 205.667 141.779 205.625C142.737 204.708 143.682 203.785 144.578 202.826C147.824 199.376 150.791 195.674 153.452 191.755C156.853 186.954 160.051 182.013 163.193 177.058C166.482 171.894 169.674 166.673 172.711 161.361C175.579 156.552 178.149 151.571 180.409 146.448C181.613 143.67 182.639 140.818 183.481 137.91C184.167 135.349 184.707 132.75 185.098 130.128C185.896 124.872 186.217 119.449 185.21 114.193C184.294 110.314 182.924 106.555 181.13 102.996C180.703 102.156 180.276 101.316 179.842 100.476C180.739 100.513 181.636 100.44 182.515 100.259C184.615 99.8256 186.714 97.6631 187.96 96.7604C188.034 96.7011 188.114 96.6496 188.198 96.6064L188.331 96.5364C188.422 96.5842 188.506 96.6429 188.583 96.7114L188.541 96.6764L188.576 96.7114C188.891 96.9913 189.199 97.2782 189.521 97.5512C190.929 98.7451 192.487 99.7519 194.154 100.546C197.464 102.205 201.152 102.933 204.756 103.479C209.193 104.123 213.651 104.542 218.115 104.941C223.602 105.326 229.11 105.557 234.61 105.494C235.373 105.494 236.143 105.452 236.906 105.417L236.787 105.228C237.263 105.228 237.739 105.228 238.186 105.179C240.541 104.912 242.865 104.425 245.129 103.724C247.501 102.982 249.769 101.925 252.092 101.043C254.237 100.179 256.475 99.5685 258.761 99.2238L259.524 99.1188C259.994 99.867 260.594 100.526 261.295 101.064C262.207 101.684 263.252 102.08 264.346 102.219C264.915 102.233 265.48 102.113 265.995 101.87C266.51 101.627 266.962 101.267 267.313 100.819C268.048 100.036 268.321 99.1888 267.488 98.391ZM120.791 95.1788C123.002 93.4082 125.284 91.5117 126.46 88.8804C127.202 87.5086 127.524 85.9481 127.383 84.3945C127.054 81.9101 125.284 79.9716 123.884 78.0471C122.485 76.3115 121.309 74.9539 120.098 73.2113C118.524 70.98 117.22 68.5697 116.214 66.0311C114.325 61.1883 113.933 56.4995 113.534 51.4468C113.261 47.8553 113.247 44.2489 113.492 40.6555C113.758 37.778 114.226 34.9228 114.891 32.1106C115.504 29.6544 116.259 27.2359 117.152 24.8674C118.269 21.8935 119.676 19.0362 121.351 16.3366C123.016 13.5263 125.047 10.9495 127.39 8.6735C128.917 7.10043 130.628 5.71652 132.485 4.55154C133.979 3.53723 135.636 2.78686 137.384 2.3331C139.203 1.95262 141.071 1.85818 142.919 2.05316C144.656 2.39145 146.309 3.06924 147.783 4.04766C148.909 4.83651 149.92 5.7787 150.785 6.84696C151.919 8.14163 152.675 9.17038 153.739 10.619C154.438 11.6478 155.187 12.7185 155.95 13.6982C157.154 15.3288 158.113 15.1959 159.519 13.9922C161.003 12.5155 162.2 10.773 163.648 9.26835C165.968 6.70548 168.694 4.54208 171.717 2.86496C173.894 1.91624 176.193 1.27783 178.547 0.968437C180.882 0.785378 183.231 0.872263 185.546 1.22737C189.248 1.9272 192.187 3.53679 195.343 5.69225C197.873 7.43387 200.068 9.61723 201.824 12.1376C202.882 13.8619 203.842 15.6446 204.7 17.4773C205.582 19.1149 206.037 21.3333 206.505 23.4328C206.645 24.0836 206.974 25.9802 206.988 26.2321C207.129 27.9189 207.113 29.6151 206.939 31.2988C206.85 32.7584 206.649 34.209 206.337 35.6377C205.594 38.3335 204.688 40.9814 203.622 43.5667C202.803 45.6032 201.95 47.6187 201.11 49.6412C200.606 50.7609 199.773 52.9094 198.94 54.344C198.24 55.6527 197.443 55.8556 196.141 54.8689C195.39 54.1178 194.725 53.2844 194.161 52.3845C193.109 50.8207 191.969 49.3182 190.745 47.8847C188.268 44.9245 185.404 42.3116 182.229 40.1166C181.3 39.4993 180.319 38.9653 179.296 38.521C178.766 38.27 178.181 38.1546 177.595 38.1851C177.008 38.2157 176.439 38.3912 175.937 38.696C174.985 39.2698 174.943 40.2776 175.188 41.2573C175.685 43.2728 177.435 44.9594 178.981 46.2611C182.103 48.7594 185.833 51.1598 188.632 53.4832C190.376 54.8827 191.921 56.5144 193.223 58.333C194.146 59.8167 194.182 62.1821 193.867 63.8756C193.659 64.9905 193.373 66.0896 193.013 67.1648C192.653 68.4057 192.173 69.6082 191.578 70.7549C191.519 70.8593 191.454 70.9598 191.382 71.0558L191.326 71.1258H191.207C190.936 71.0955 190.679 70.9887 190.465 70.8179C188.478 68.6414 186.329 65.2963 183.803 62.8189C182.619 61.5702 181.334 60.4209 179.961 59.3828C178.509 58.2102 176.906 57.2381 175.195 56.4925C173.867 55.8588 172.392 55.5953 170.926 55.7297C169.801 55.8912 168.764 56.4319 167.987 57.2623C167.465 57.9192 167.123 58.7006 166.993 59.5297C166.92 60.3636 167.016 61.2037 167.273 62.0001C167.724 62.9821 168.352 63.872 169.128 64.6244C172.137 67.5217 175.979 69.3063 179.436 71.5877C182.054 73.2323 184.335 75.1848 185.658 78.0331C186.784 80.1854 187.071 82.6795 186.462 85.0313C185.847 87.1202 184.953 89.1164 183.803 90.9658C182.823 92.4914 181.704 93.9331 180.661 95.3957C180.205 96.0895 179.685 96.7386 179.107 97.3342C178.572 96.9492 178.075 96.5133 177.624 96.0326C177.029 95.4587 176.448 94.8639 175.874 94.269C174.999 93.2333 174.062 92.2465 173.145 91.2528C171.489 89.5221 169.707 87.9174 167.812 86.452C167.114 85.6807 166.482 84.852 165.923 83.9746C165.348 83.014 164.833 82.0183 164.383 80.9933L164.32 80.2585C164.023 76.241 163.471 72.2463 162.668 68.2985C161.269 62.574 160.051 57.1713 159.631 51.5027C159.127 45.5892 159.393 39.6477 159.19 33.7202C159.099 31.4948 159.022 29.2553 158.728 27.0439C158.617 25.6426 158.277 24.269 157.721 22.9779C157.602 22.7103 157.447 22.4606 157.259 22.2361C157.215 22.1586 157.153 22.0934 157.077 22.0466C157.001 21.9999 156.915 21.9732 156.826 21.969C156.737 21.9648 156.649 21.9833 156.569 22.0226C156.489 22.062 156.421 22.121 156.37 22.1941C156.294 22.3902 156.277 22.6043 156.321 22.81C156.377 23.5098 156.419 24.1466 156.468 24.8184C156.797 29.2973 156.846 33.7902 157.035 38.2761C157.308 46.597 158.644 55.1208 159.687 62.9799C160.205 66.6609 160.681 70.349 161.381 74.0021C161.737 76.0638 162.268 78.0913 162.969 80.0626L163.431 81.1473C163.508 81.9101 163.585 82.6729 163.683 83.4357C162.089 82.4207 160.419 81.5316 158.686 80.7764C156.738 79.8485 154.662 79.2141 152.528 78.8939C150.606 78.5629 148.662 78.3781 146.712 78.341C145.392 78.3945 144.077 78.5466 142.779 78.7959C140.141 79.2368 137.741 80.4825 135.438 81.7911C132.11 83.8333 129.196 86.4854 126.851 89.6082C125.766 91.0895 124.896 92.7177 124.269 94.444C122.981 97.5582 122.352 100.875 121.526 104.13C121.365 104.682 121.19 105.529 121.015 106.159C120.847 105.704 120.693 105.207 120.434 104.612C119.936 103.403 119.346 102.233 118.67 101.113C118.475 100.029 118.293 98.9368 118.118 97.8521L118.055 97.4882C118.943 96.6834 119.86 95.9276 120.791 95.1998V95.1788ZM165.65 86.0321L167.441 87.4317C169.093 89.2023 170.94 90.7419 172.704 92.4285C173.404 93.1283 174.104 93.8281 174.803 94.5279C175.272 95.0668 175.727 95.6197 176.203 96.1795C176.94 97.1898 177.611 98.2464 178.212 99.3427C176.228 99.1636 174.294 98.6204 172.508 97.7401C167.847 95.2278 165.937 90.5949 165.02 85.5842L165.65 86.0321ZM164.754 84.1495L164.691 83.7157C164.817 83.9396 164.95 84.1705 165.083 84.4155C164.971 84.3315 164.859 84.2545 164.754 84.1705V84.1495ZM163.074 77.3962C162.773 76.2275 162.542 75.0448 162.284 73.8971C161.71 70.8809 161.269 67.8786 160.884 64.9254C160.982 65.3453 161.08 65.7582 161.185 66.1711C162.037 69.5633 162.641 73.0133 162.99 76.4935C163.018 76.7384 163.074 77.0463 163.074 77.3962ZM158.434 45.8272C158.392 45.4073 158.357 44.9944 158.322 44.5675C157.784 37.9541 157.819 31.3128 157.371 24.6995C157.656 25.9251 157.855 27.1691 157.966 28.4225C158.49 34.1751 158.309 39.9906 158.441 45.7922L158.434 45.8272ZM117.299 99.0908C117.166 98.9088 117.033 98.7339 116.893 98.5589L117.166 98.307C117.208 98.5379 117.257 98.8039 117.299 99.0908ZM97.8927 68.0396C97.3398 66.304 96.703 64.6034 96.0172 62.9169C95.9743 60.9712 95.766 59.0327 95.3943 57.1223C94.9665 54.4414 94.0153 51.8709 92.595 49.5572C92.3298 49.1488 92.0015 48.785 91.6223 48.4795C90.7685 47.9686 90.1456 48.4795 89.9497 49.3683C89.8967 50.5741 90.1369 51.7747 90.6495 52.8674C91.2514 54.449 91.7412 55.5057 92.3221 56.8984C93.1899 58.9349 94.1066 61.0973 95.0024 63.3298C95.0192 65.4768 94.853 67.6214 94.5055 69.7402C94.0784 72.4295 93.3118 75.0538 92.2241 77.5502C91.8831 78.2929 91.4631 78.9968 90.9714 79.6497C90.4173 80.442 89.7868 81.178 89.0889 81.8471C87.4733 83.3351 85.7072 84.6508 83.8192 85.7731C82.9782 86.3338 82.0796 86.803 81.1389 87.1728C80.9588 85.5633 80.5755 83.9831 79.9982 82.47C79.5261 81.0886 78.9434 79.7476 78.2556 78.46C78.0317 78.0471 77.7727 77.6062 77.4928 77.1513C77.4928 76.5634 77.4928 75.9686 77.4368 75.3807C77.2364 72.6653 76.7269 69.9817 75.9182 67.3818C75.3584 65.6532 74.8265 63.8197 73.6158 62.42C72.3491 60.8944 70.3056 61.1323 69.8507 63.1898C69.2489 67.4237 74.0497 73.6872 76.5061 77.8861C76.5061 78.6489 76.5061 79.4117 76.4711 80.1745C76.4318 80.6403 76.4318 81.1085 76.4711 81.5742C76.4711 81.5742 76.4711 81.6092 76.4711 81.6302C76.3381 82.9177 76.1159 84.1944 75.8062 85.4512C75.1623 88.0666 74.3512 90.6379 73.3778 93.1493C72.1275 96.5562 70.6715 99.8842 69.0179 103.115C67.7697 105.408 66.3911 107.628 64.889 109.763C63.6372 111.446 62.2315 113.009 60.69 114.431C59.4833 115.422 58.2037 116.32 56.862 117.118C51.4034 120.093 44.769 121.17 38.6666 123.48C34.1597 125.152 30.1777 127.889 26.2797 130.653C24.3692 131.955 22.3887 133.669 20.7301 134.901C21.143 134.201 21.7098 133.347 22.1297 132.668C23.5294 130.429 24.929 128.196 26.1887 125.88C27.7073 123.081 29.051 120.281 30.4996 117.447C32.893 112.842 35.3984 108.3 37.7078 103.661C39.0095 101.043 40.3042 98.433 41.5149 95.7736C42.8165 92.8344 44.0272 89.8531 45.3289 86.9068C47.1274 82.9458 49.1709 79.1038 51.1794 75.2408C54.0207 69.7542 56.918 64.2955 59.7383 58.8019C60.837 56.6674 61.9357 54.54 62.9505 52.3635C63.6503 50.7819 64.4621 49.1513 64.4971 47.3808C64.5178 47.2185 64.5042 47.0536 64.4572 46.8969C64.4102 46.7402 64.3308 46.5951 64.2241 46.471C64.1295 46.3876 64.018 46.3257 63.8972 46.2895C63.7764 46.2532 63.6492 46.2435 63.5243 46.2611C63.3622 46.3066 63.2032 46.3627 63.0484 46.429C62.4574 46.8545 61.9337 47.3664 61.4948 47.9476C60.949 48.6055 60.3891 49.2493 59.8712 49.9211C56.4981 54.407 53.8807 59.4038 51.3404 64.3865C47.8832 71.1118 45.3499 78.25 42.6696 85.3043C40.9115 90.3614 38.9004 95.3271 36.6441 100.183C33.9497 105.935 30.6746 111.38 27.4764 116.873C24.2782 122.367 21.087 127.644 18.1827 133.193C17.4829 134.642 16.7831 136.104 16.0832 137.581C15.9923 137.77 15.8873 138.001 15.7823 138.232C15.7851 138.178 15.7851 138.125 15.7823 138.071C15.4501 134.212 14.6608 130.406 13.4309 126.734C11.9843 122.826 10.1731 119.063 8.02126 115.495C6.62161 113.038 4.87205 110.596 4.17223 108.14C3.92638 107.181 3.77173 106.202 3.71034 105.214C3.45141 102.702 4.24921 100.868 5.4669 98.7059C7.4684 95.8436 10.9815 93.2753 13.9558 90.8609C18.4067 87.3197 22.7479 83.648 26.9795 79.8456C31.0875 76.1296 35.2164 72.2245 37.8548 67.2908C39.1215 64.7364 39.9892 61.6922 38.9745 58.8929C38.4916 57.4023 36.875 56.6814 35.4054 56.5135C33.9464 56.4783 32.4971 56.7601 31.1575 57.3393C29.2919 58.2953 27.5699 59.5085 26.0417 60.9434C23.9141 62.8761 22.0336 65.0645 20.4431 67.4587C16.944 72.4835 14.2777 78.0471 11.8913 83.6737L11.7023 84.1425C11.6314 82.9864 11.4581 81.8389 11.1845 80.7134C10.0508 76.3745 7.81132 72.7634 6.54463 68.7114C5.99104 67.0359 5.52387 65.3331 5.14498 63.6097C4.64834 61.6765 4.35284 59.6971 4.2632 57.7032C4.2632 55.6037 4.20722 53.4483 4.38217 51.3348C4.876 47.2807 5.9434 43.3175 7.55238 39.5637C9.42083 35.1248 11.7203 30.8799 14.4177 26.8899C15.6639 25.0143 17.0687 23.2489 18.6166 21.6133C21.0496 19.2977 23.6844 17.2039 26.4896 15.3568C29.3021 13.4664 32.4202 12.0766 35.7063 11.2489C41.4695 9.63641 47.5959 9.89616 53.2019 11.9907C58.8949 14.1991 63.6243 18.3484 66.5546 23.7057C67.5335 25.534 68.2631 27.4852 68.724 29.5073C68.9899 30.501 69.2139 31.5018 69.5358 32.4745C69.7458 33.1743 70.1097 34.0421 70.9355 34.1471C71.8452 34.3361 72.629 33.7482 73.4128 33.3843C74.4766 32.8454 75.5473 32.3066 76.632 31.7957C78.9694 30.578 81.9787 29.9762 84.4421 30.599C86.6363 31.109 88.7033 32.0615 90.5165 33.3983C93.2163 35.1647 95.585 37.3912 97.5148 39.9766C99.5994 42.7033 101.171 45.7859 102.155 49.0744C102.715 51.3251 103.036 53.6286 103.113 55.9466C103.211 59.7397 103.043 63.5327 102.959 67.3258C102.959 70.566 102.959 73.9391 104.051 77.0253C105.556 80.5245 108.369 83.1418 110.881 85.8851C113.681 88.8454 115.696 91.7356 116.725 95.6826C116.851 96.2425 116.963 96.8024 117.068 97.3622L116.466 97.9221C116.004 97.3762 115.514 96.8444 115.003 96.3335C113.357 94.6217 111.471 93.1579 109.405 91.9876C108.705 85.2973 105.64 84.2895 102.064 81.4902C100.328 80.0906 100.195 78.6209 99.8872 76.3395C99.7192 75.2478 99.6352 74.0441 99.3203 72.3505C98.9221 70.8798 98.4456 69.4314 97.8927 68.0116V68.0396ZM90.8944 49.2283L90.9504 49.1373H91.0274C91.0757 49.1586 91.1205 49.1869 91.1604 49.2213C91.2555 49.3107 91.3444 49.4066 91.4263 49.5082C91.4823 49.5572 91.5103 49.5992 91.5033 49.5992L91.5383 49.6482C92.833 51.3558 93.6867 53.9031 94.2186 56.4015C94.4716 57.6178 94.6608 58.8465 94.7855 60.0826C93.7497 57.7102 92.686 55.3588 91.6153 52.9934C91.2234 52.0276 90.4046 49.7812 90.8735 49.2003L90.8944 49.2283ZM76.4641 75.5277C73.8817 71.5387 70.5016 66.7379 70.8655 63.4347C71.1594 62.1821 72.2651 62.0351 73.3708 63.8616C74.4174 65.8849 75.1827 68.0416 75.6453 70.272C76.0582 71.989 76.325 73.7378 76.4431 75.4997L76.4641 75.5277ZM115.654 98.6639C115.122 99.1748 114.625 99.6437 114.255 99.9796C114.16 100.055 114.059 100.123 113.954 100.183C113.175 99.4065 112.452 98.5763 111.791 97.6981C110.783 96.4433 110.066 94.9805 109.692 93.4152C110.581 93.9509 111.428 94.5545 112.225 95.2208C113.446 96.2755 114.59 97.4168 115.647 98.6359L115.654 98.6639ZM68.4861 126.594C68.7914 123.735 69.3369 120.907 70.1167 118.14C71.0292 115.016 72.1996 111.973 73.6158 109.042C74.5069 107.176 75.4633 105.31 76.4851 103.444C77.7919 101.303 79.222 99.2394 80.768 97.2642C84.0922 93.2473 87.8852 90.6509 92.854 89.5662C96.542 88.9293 100.86 89.8461 104.912 91.1618C106.22 91.6176 107.485 92.189 108.691 92.8694C108.81 93.3872 108.929 93.8981 109.069 94.353C109.874 96.8723 111.644 98.9718 113.471 100.833C114.101 101.33 114.772 100.525 115.234 100.134L116.137 99.2867C116.662 99.9866 117.194 100.742 117.726 101.582C117.845 102.282 117.978 102.94 118.125 103.612C118.568 105.59 119.194 107.522 119.993 109.385C121.582 113.584 123.044 117.818 124.234 122.143C124.988 125.374 125.561 128.645 125.949 131.941C126.564 136.412 127.033 140.905 127.824 145.356C128.803 150.295 130.165 155.15 131.897 159.878C133.354 164.207 135.207 168.394 137.433 172.383C139.064 175.17 140.437 178.101 141.534 181.138C142.046 182.467 142.435 183.839 142.695 185.239L142.772 185.981C142.807 186.366 142.772 186.751 142.821 187.136C142.87 187.521 142.821 187.912 142.821 188.297C142.821 188.682 142.821 188.892 142.779 189.186C142.737 189.48 142.737 189.669 142.702 189.886C142.096 193.576 140.99 197.167 139.413 200.558C138.713 202.091 137.79 204.001 136.908 205.583H133.612C132.873 204.086 131.967 202.677 130.91 201.384C129.314 199.67 127.536 198.135 125.606 196.807C121.358 193.707 116.774 191.125 112.4 188.213C109.559 186.338 106.598 184.63 103.771 182.734C103.484 179.235 103.127 175.68 102.658 172.166C101.959 167.023 101.07 161.844 98.9494 157.078C98.4247 155.791 97.7877 154.552 97.0459 153.376C96.4704 152.397 95.7209 151.532 94.8345 150.822C94.0753 150.28 93.2557 149.83 92.3921 149.478C91.4383 149.202 90.4683 148.984 89.4878 148.827C88.4451 148.617 87.7662 147.113 86.6885 145.839C85.5258 144.411 84.1662 143.155 82.6505 142.109C79.3893 139.863 75.5823 138.61 71.7542 137.665C70.8095 137.448 69.8577 137.259 68.899 137.084C68.787 136.524 68.682 135.958 68.591 135.384C68.2798 132.454 68.2423 129.502 68.4791 126.566L68.4861 126.594ZM136.32 206.626C136.005 207.151 135.711 207.613 135.452 207.955C135.319 208.074 135.168 208.171 135.004 208.242H134.927L134.836 208.151V208.109C134.595 207.655 134.377 207.188 134.186 206.71C134.186 206.668 134.144 206.619 134.13 206.57C134.822 206.584 135.571 206.584 136.313 206.598L136.32 206.626ZM96.9549 165.973C95.915 163.159 94.5028 160.497 92.756 158.058C91.9442 157.092 91.0064 156.126 89.7187 155.875C88.4311 155.623 87.2624 156.091 86.1706 156.623C85.3456 157.143 84.5906 157.766 83.9242 158.478C83.2244 159.178 82.5245 159.92 81.8247 160.675L81.0409 161.578C78.082 158.008 75.5021 154.141 73.3429 150.038C71.395 146.281 69.9592 142.279 69.0739 138.141L70.4736 138.414C73.705 139.031 76.8399 140.076 79.7952 141.521C80.586 141.927 82.2376 142.998 82.5945 143.222C83.9288 144.24 85.1365 145.415 86.1916 146.721C87.0244 147.715 87.5913 149.058 88.844 149.632C89.41 149.801 89.9878 149.927 90.5725 150.01C91.4362 150.136 92.2705 150.416 93.0359 150.836C93.6061 151.103 94.1342 151.452 94.6035 151.872C95.22 152.419 95.7445 153.061 96.1571 153.775C96.6217 154.496 97.0423 155.243 97.4168 156.014C98.8462 159.032 99.8969 162.215 100.545 165.49C101.391 169.802 102.003 174.157 102.379 178.535C102.498 179.669 102.603 180.809 102.693 181.95L102.386 181.74C101.648 181.222 100.928 180.697 100.223 180.165C99.9485 175.273 98.8409 170.464 96.9479 165.945L96.9549 165.973ZM99.1244 179.361C96.78 177.52 94.5475 175.554 92.2241 173.419C88.7445 170.26 85.4872 166.865 82.4756 163.258C82.2306 162.971 81.9927 162.684 81.7757 162.39L81.8597 162.292C82.9599 160.992 84.1279 159.752 85.3588 158.576C86.1886 157.688 87.2665 157.071 88.4521 156.805C88.8556 156.681 89.2872 156.681 89.6908 156.805C90.1 156.886 90.484 157.064 90.8105 157.323C91.6698 158.078 92.4043 158.963 92.9869 159.947C94.4013 162.286 95.5737 164.762 96.486 167.338C97.9581 171.182 98.8451 175.225 99.1174 179.333L99.1244 179.361ZM100.272 181.39C101.098 182.006 101.935 182.603 102.784 183.182L102.952 185.456C103.117 187.173 103.194 188.896 103.183 190.621C103.053 194.073 102.584 197.505 101.784 200.866C101.357 202.798 100.916 204.722 100.307 206.612C100.118 207.172 99.9222 207.711 99.7332 208.228L99.0334 208.34C97.9277 208.529 96.829 208.732 95.7302 208.949C97.2973 203.881 98.4672 198.698 99.2293 193.448C99.8797 189.451 100.226 185.411 100.265 181.362L100.272 181.39ZM102.568 202.28C103.701 197.381 104.527 192.349 104.121 187.325C104.044 186.184 103.96 185.043 103.869 183.91C105.416 184.931 106.99 185.911 108.572 186.884C111.105 188.465 113.59 190.124 116.116 191.727C117.978 192.909 119.86 194.05 121.715 195.261C124.606 197.079 127.303 199.19 129.763 201.559C130.285 202.118 130.753 202.725 131.162 203.372C131.681 204.082 132.148 204.828 132.562 205.604C128.846 205.604 125.137 205.695 121.435 205.891C114.567 206.231 107.723 206.958 100.937 208.067C101.609 206.168 102.151 204.225 102.561 202.252L102.568 202.28ZM47.4564 270.863C47.0295 270.863 45.6718 270.065 46.9385 266.188C47.1092 265.751 47.3451 265.343 47.6383 264.977C47.9549 265.802 48.2121 266.649 48.4081 267.51C49.003 270.73 47.9742 270.87 47.4494 270.835L47.4564 270.863ZM91.3843 216.976C89.7376 220.188 87.8398 223.265 85.7087 226.179C83.5743 229.167 80.747 233.051 78.8925 235.529C76.5597 238.496 74.1173 241.379 71.5653 244.178C69.4411 246.387 67.1093 248.386 64.602 250.148C62.0547 251.918 59.3464 253.444 56.813 255.243C54.8815 256.642 53.1109 258.231 51.3124 259.784C50.2277 260.75 49.1569 261.73 48.1492 262.773L48.0092 262.913C46.8203 260.47 45.4323 258.129 43.8593 255.914C41.6107 252.808 39.05 249.94 36.2172 247.356C33.4179 244.724 30.2757 242.457 27.5743 239.755C26.7834 238.984 26.0446 238.161 25.3629 237.292C24.7387 236.345 24.2377 235.322 23.8723 234.248C23.6748 233.477 23.5737 232.685 23.5714 231.889C23.4979 230.74 23.6476 229.588 24.0122 228.495C24.2201 227.679 24.4867 226.879 24.81 226.102C25.2526 225.224 25.7504 224.376 26.3007 223.562C26.8915 222.611 27.5364 221.695 28.2322 220.818C29.7401 219.216 31.3458 217.708 33.04 216.304C36.2662 213.743 39.6393 211.252 43.2084 208.606C45.4689 206.941 47.7293 205.275 49.9687 203.575C52.1291 202.053 54.1064 200.287 55.8612 198.312C56.1988 197.836 56.4828 197.324 56.708 196.786C56.9705 196.279 57.1523 195.733 57.2469 195.17C57.3129 194.419 57.0984 193.671 56.645 193.07C56.29 192.638 55.8461 192.287 55.3434 192.041C54.6663 191.643 53.9357 191.344 53.1739 191.153C52.1084 190.996 51.0314 190.931 49.9547 190.957C46.6777 191.12 43.4403 191.747 40.3391 192.818C36.8346 193.945 33.4554 195.43 30.2547 197.248C27.9942 198.515 25.8668 199.998 23.7183 201.447C21.9618 202.665 20.2892 204.001 18.6376 205.359C17.2016 206.445 15.9125 207.713 14.8026 209.131C13.8346 210.385 12.9643 211.712 12.1992 213.099C11.5646 214.421 11.0833 215.811 10.7646 217.242L10.6806 216.983C9.50489 213.211 8.04925 208.354 7.65735 204.96C7.46362 203.686 7.36072 202.4 7.34943 201.111C7.41998 199.312 7.81594 197.541 8.51814 195.883C9.93496 193.217 11.9289 190.9 14.3547 189.102C16.6449 187.406 19.1079 185.956 21.7028 184.777C24.5282 183.443 27.4706 182.373 30.4926 181.579C35.1165 180.44 39.8429 179.767 44.6011 179.571C46.8755 179.459 49.1499 179.459 51.4174 179.235C53.1197 179.155 54.801 178.825 56.4071 178.255C57.2764 177.966 58.1155 177.594 58.9125 177.142C59.6838 176.602 60.3482 175.923 60.872 175.141C62.1177 173.006 61.1099 170.445 59.7803 168.604C58.7688 167.456 57.589 166.467 56.2811 165.672C54.2376 164.314 51.7813 163.908 49.4089 163.531C47.7685 163.25 46.1011 163.161 44.4401 163.265C42.3643 163.363 40.2948 163.566 38.2397 163.874C33.075 164.636 27.9173 165.826 23.1865 168.072C22.0247 168.632 20.877 169.206 19.7573 169.85C18.4206 170.55 16.7831 171.565 15.9223 171.488C15.9075 171.428 15.9075 171.365 15.9223 171.306C16.5801 169.143 18.5256 165.49 20.1212 162.838C21.3389 160.787 22.6896 158.814 24.0682 156.861C25.3294 155.034 26.6989 153.283 28.1692 151.62C33.2153 146.012 39.6434 141.825 46.8125 139.478C50.5183 138.309 54.3546 137.604 58.2337 137.378C61.5253 137.167 64.8304 137.346 68.0802 137.91C69.04 142.454 70.6275 146.842 72.797 150.948C74.9841 154.966 77.5626 158.759 80.4951 162.271C78.481 164.592 76.5889 167.017 74.8265 169.535C73.2169 171.761 71.7333 174.077 70.2916 176.414C68.668 178.99 67.1004 181.6 65.7288 184.315C62.6277 190.459 59.955 196.81 57.7298 203.323C54.2049 213.315 51.3824 223.541 49.2829 233.926C48.723 236.725 48.2751 239.49 47.8832 242.282C47.7293 243.311 47.5683 244.332 47.4144 245.361C47.3724 245.662 47.3234 245.97 47.2814 246.271C47.2814 246.453 47.1974 246.649 47.2814 246.817C47.3359 246.943 47.4323 247.048 47.5544 247.112C47.6766 247.176 47.8171 247.196 47.9523 247.169C48.0876 247.142 48.2095 247.069 48.2976 246.963C48.3856 246.857 48.4346 246.724 48.4361 246.586C48.898 243.43 49.5558 238.755 50.2696 235.046C51.1234 230.518 52.1662 226.018 53.3069 221.553C55.2594 214.254 57.5058 207.032 60.1442 199.942C61.6514 195.767 63.3729 191.672 65.3019 187.675C66.6875 184.741 68.2293 181.884 69.9207 179.116C70.6485 177.926 71.3833 176.741 72.1252 175.561C74.8205 171.176 77.8455 167.002 81.1739 163.076L81.8737 163.888C84.5383 167.074 87.4016 170.09 90.4466 172.915C93.2469 175.606 96.183 178.152 99.2433 180.543C99.2433 180.676 99.2433 180.809 99.2433 180.949C99.2841 183.433 99.1532 185.916 98.8514 188.381C98.5435 191.181 98.2636 193.364 97.7317 196.24C96.9471 200.627 95.8645 204.955 94.4915 209.194C91.3935 209.827 88.3385 210.654 85.3448 211.672C84.087 212.03 82.8679 212.513 81.7057 213.113C81.5697 213.256 81.4564 213.419 81.3698 213.596C81.3166 213.748 81.2971 213.911 81.3128 214.071C81.3285 214.232 81.379 214.388 81.4608 214.527C81.9218 214.993 82.5074 215.316 83.1474 215.458C85.9117 216.157 88.802 216.241 91.6363 216.416L91.3843 216.976ZM92.0841 215.514C90.1106 215.43 88.1301 215.297 86.1636 215.073C85.4008 214.989 82.9165 214.618 82.3146 214.065V214.016V213.974C82.5545 213.763 82.8393 213.61 83.1474 213.526C85.0439 212.826 86.9684 212.203 88.8999 211.623C90.6355 211.133 92.3991 210.699 94.1556 210.314C93.5118 212.073 92.812 213.792 92.0562 215.472L92.0841 215.514ZM95.4713 215.626C94.7715 215.626 94.0716 215.626 93.3368 215.563C94.1206 213.75 94.8135 211.902 95.4363 210.034C96.745 209.768 98.0536 209.53 99.3553 209.334C99.0194 210.188 98.6555 211.007 98.3056 211.825C97.6897 213.136 97.0179 214.417 96.2901 215.668L95.4713 215.626ZM190.06 211.588C191.024 212.124 191.915 212.783 192.712 213.547C193.522 214.239 194.18 215.093 194.643 216.052C195.805 218.04 196.008 220.202 196.281 222.085C196.848 227.684 196.624 233.282 196.652 238.881C196.603 246.152 196.498 253.731 195.406 260.575C194.88 263.397 194.205 266.188 193.384 268.938C192.411 272.094 191.746 275.125 189.185 277.028L189.269 276.958C189.079 277.099 188.88 277.227 188.674 277.343C188.497 277.44 188.315 277.527 188.128 277.602L187.827 277.721C187.547 277.819 187.274 277.945 186.987 278.015C148.889 286.952 98.0396 281.514 86.3806 275.964C85.0023 275.41 83.7813 274.526 82.8255 273.389C82.7667 273.264 82.7013 273.143 82.6295 273.025C82.5036 272.647 82.4826 272.731 82.6295 272.276C82.6766 272.217 82.7187 272.154 82.7555 272.087C82.8202 271.997 82.8928 271.913 82.9724 271.835C83.2038 271.568 83.4935 271.357 83.8192 271.22L84.0362 271.129L85.0999 270.758L85.3308 270.681C88.0252 273.396 91.8322 273.543 95.2893 273.83C161.633 279.317 181.585 271.248 179.625 269.631C178.596 268.784 172.984 268.231 169.604 267.916C166.224 267.601 162.871 267.287 159.505 267.021C148.397 266.19 137.267 265.759 126.117 265.726C117.125 265.521 108.129 265.966 99.2013 267.056C95.8912 267.469 92.595 267.972 89.3408 268.707C88.1861 268.973 87.0454 269.26 85.9187 269.617C85.8627 269.533 85.8067 269.456 85.7577 269.372C85.0067 268.202 84.3916 266.951 83.9242 265.642C83.1865 263.19 82.6321 260.688 82.2656 258.154C81.6274 254.589 81.295 250.977 81.2719 247.356C81.3388 244.935 81.5515 242.521 81.9087 240.126C82.1122 238.329 82.4254 236.546 82.8465 234.787C83.1465 233.884 83.5908 233.035 84.1621 232.274C85.1839 231.162 87.3603 229.16 88.683 227.663C90.2436 225.892 91.4403 224.338 92.567 222.876C94.1197 220.886 95.55 218.804 96.8499 216.64C98.9494 216.64 101.091 216.675 103.218 216.689C112.736 216.689 122.247 216.36 131.75 215.703C146.125 214.394 160.534 213.323 174.81 211.196C177.918 210.727 181.032 210.279 184.125 209.719C186.154 210.113 188.134 210.726 190.032 211.546L190.06 211.588ZM86.4995 270.247C88.1441 269.75 89.8167 269.379 91.4963 269.036C102.987 266.818 115.101 266.314 127.089 266.489C133.392 266.489 139.691 266.652 145.985 266.979C151.324 267.196 156.657 267.503 161.983 267.965C165.923 268.336 169.87 268.623 173.796 269.099C175.083 269.25 176.359 269.484 177.617 269.799C180.234 270.275 159.708 277.826 94.7575 272.654C91.5173 272.416 88.3331 272.066 86.4995 270.247ZM183.95 205.464C185.745 205.592 187.528 205.839 189.29 206.206C189.528 206.26 189.762 206.332 189.99 206.423C190.189 206.511 190.379 206.619 190.556 206.745L190.808 207.004L190.878 207.13L190.836 207.172C190.712 207.262 190.578 207.339 190.437 207.403C189.505 207.719 188.551 207.967 187.582 208.144C186.63 208.347 185.651 208.536 184.657 208.718C184.041 208.571 183.432 208.438 182.809 208.326C177.526 207.459 172.172 207.179 166.839 206.815C172.494 205.884 178.002 205.037 183.95 205.464ZM176.784 208.62C178.386 208.774 180.038 208.963 181.683 209.229C177.519 209.929 173.243 210.489 169.618 211.014C160.891 212.14 152.122 212.959 143.353 213.715C139.434 214.058 135.522 214.45 131.596 214.758C126.567 215.103 121.526 215.35 116.473 215.5C110.119 215.696 103.764 215.747 97.4098 215.654C97.8087 214.954 98.1936 214.254 98.5575 213.554C99.2853 212.098 99.9408 210.612 100.524 209.096C103.708 208.578 106.871 208.165 109.937 207.788C117.606 206.949 125.316 206.554 133.031 206.605C133.234 207.046 133.423 207.487 133.619 207.927C133.769 208.367 134.035 208.759 134.389 209.061C135.501 209.663 136.488 208.361 136.957 207.487L137.44 206.633L139.539 206.668L138.308 207.857C137.713 208.445 137.125 209.04 136.537 209.642C136.009 210.139 135.552 210.706 135.179 211.329C135.067 211.49 134.989 211.672 134.949 211.865C134.91 212.057 134.909 212.256 134.948 212.448C135.026 212.597 135.147 212.719 135.296 212.797C135.445 212.874 135.615 212.904 135.781 212.882C137.104 212.758 138.419 212.564 139.721 212.301C144.907 211.406 150.002 210.069 155.117 208.872C157.42 208.354 159.736 207.955 162.06 207.571C166.951 207.822 171.871 208.144 176.784 208.585V208.62ZM151.828 207.046L158.19 207.368C157.163 207.554 156.141 207.757 155.124 207.976C150.4 209.061 145.726 210.314 140.96 211.182C139.49 211.455 138.035 211.742 136.558 211.944C136.803 211.902 136.46 211.944 136.362 211.944C136.264 211.944 135.984 211.986 135.788 211.993V211.902C135.865 211.739 135.957 211.582 136.061 211.434C136.292 211.049 136.215 211.245 136.369 211.035C137.769 209.523 139.224 208.102 140.708 206.682C144.438 206.745 148.133 206.864 151.828 207.011V207.046ZM180.094 102.968C181.941 106.549 183.351 110.338 184.293 114.256C184.761 116.516 184.979 118.821 184.944 121.128C184.974 123.469 184.829 125.808 184.51 128.126C183.971 132.682 182.94 137.166 181.438 141.5C179.072 148.169 175.741 154.454 172.053 160.766C170.122 164.111 168.176 167.457 166.133 170.739C162.353 176.827 158.532 182.902 154.48 188.815C151.871 192.702 149.046 196.44 146.02 200.012C144.291 201.986 142.415 203.819 140.526 205.611L137.965 205.562C138.755 204.106 139.497 202.63 140.169 201.118C141.908 197.454 143.087 193.55 143.668 189.536C143.821 187.94 143.788 186.331 143.57 184.742C143.391 183.698 143.126 182.671 142.779 181.67C142.066 179.531 141.203 177.445 140.197 175.428C138.797 172.628 137.16 169.927 135.837 167.072C134.541 164.224 133.405 161.306 132.436 158.331C131.354 155.304 130.438 152.22 129.693 149.093C127.635 140.856 127.446 132.696 125.753 124.214C124.836 119.701 123.219 115.369 121.715 111.03C121.015 109.175 120.245 107.37 119.671 105.48C119.713 105.578 119.748 105.676 119.783 105.767C120.098 106.425 120.483 108.566 121.54 107.734C121.782 107.36 121.946 106.941 122.023 106.502C122.156 105.984 122.289 105.466 122.415 104.948C123.065 102.408 123.604 99.8326 124.367 97.3202C124.924 95.5462 125.626 93.8211 126.467 92.1625C128.223 89.2205 130.536 86.6486 133.276 84.5904C135.572 82.8259 138.116 81.4109 140.827 80.3915C142.673 79.8218 144.586 79.4925 146.516 79.4117C148.294 79.412 150.068 79.5595 151.821 79.8526C153.324 80.0306 154.8 80.3805 156.223 80.8954C158.149 81.6263 160.02 82.494 161.822 83.4917C162.546 83.8949 163.247 84.3389 163.921 84.8214C164.122 86.213 164.415 87.5899 164.796 88.9433C165.257 90.4021 165.838 91.8205 166.531 93.1843C167.907 95.6163 169.966 97.5919 172.452 98.8668C173.867 99.5239 175.372 99.9695 176.917 100.19C177.54 100.287 178.177 100.378 178.813 100.434C179.247 101.288 179.702 102.163 180.094 102.933V102.968ZM266.823 99.5667C266.825 99.5946 266.825 99.6227 266.823 99.6507C266.734 99.8215 266.636 99.9873 266.529 100.148C266.305 100.488 265.999 100.768 265.64 100.962C265.281 101.156 264.88 101.259 264.472 101.26C263.479 101.129 262.539 100.74 261.743 100.134C261.36 99.7973 261.02 99.4167 260.728 98.9998C261.359 98.9165 261.995 98.8744 262.631 98.8738C263.896 98.8597 265.159 98.9865 266.396 99.2517L266.62 99.3147L266.697 99.3567L266.788 99.4477L266.844 99.5387L266.823 99.5667Z" fill="black"/>
</svg>
