<svg width="560" height="303" viewBox="0 0 560 303" fill="none" xmlns="http://www.w3.org/2000/svg">
<path d="M4.19292 69.5031C1.91229 46.7325 19.1652 26.6936 42.0219 25.5654L509.608 2.48713C535.355 1.21639 555.563 24.273 550.928 49.6306L510.961 268.292C507.381 287.88 489.939 301.851 470.042 301.069L60.3997 284.971C40.4666 284.188 24.1576 268.838 22.1695 248.988L4.19292 69.5031Z" fill="#FFC9A3"/>
<mask id="mask0_1371_100373" style="mask-type:alpha" maskUnits="userSpaceOnUse" x="3" y="2" width="549" height="300">
<path d="M4.19292 69.5031C1.91229 46.7325 19.1652 26.6936 42.0219 25.5654L509.608 2.48713C535.355 1.21639 555.563 24.273 550.928 49.6306L510.961 268.292C507.381 287.88 489.939 301.851 470.042 301.069L60.3997 284.971C40.4666 284.188 24.1576 268.838 22.1695 248.988L4.19292 69.5031Z" fill="#CFA98E"/>
</mask>
<g mask="url(#mask0_1371_100373)">
<circle cx="512.733" cy="39.256" r="58.4835" fill="#C0A694"/>
</g>
</svg>
