<svg width="9" height="12" viewBox="0 0 9 12" fill="none" xmlns="http://www.w3.org/2000/svg">
<path d="M7.04118 12.0012C6.56787 12.0017 6.1088 11.8393 5.74118 11.5412L0.64118 7.33117C0.441185 7.17195 0.279673 6.96968 0.168662 6.73941C0.0576506 6.50914 0 6.2568 0 6.00117C0 5.74554 0.0576506 5.49319 0.168662 5.26292C0.279673 5.03265 0.441185 4.83038 0.64118 4.67117L5.74118 0.461168C6.04821 0.215162 6.41818 0.0603538 6.80891 0.0143849C7.19965 -0.031584 7.59544 0.0331352 7.95118 0.201168C8.26035 0.337447 8.52377 0.559841 8.70996 0.841787C8.89615 1.12373 8.99725 1.45331 9.00118 1.79117V10.2112C8.99725 10.549 8.89615 10.8786 8.70996 11.1606C8.52377 11.4425 8.26035 11.6649 7.95118 11.8012C7.66531 11.9312 7.35521 11.9993 7.04118 12.0012ZM2.18118 6.00117L7.00118 10.0012V2.09117L2.18118 6.00117Z" fill="white"/>
</svg>
