<svg width="174" height="174" viewBox="0 0 174 174" fill="none" xmlns="http://www.w3.org/2000/svg">
<g clip-path="url(#clip0_195_895)">
<rect width="174" height="174" fill="white"/>
<path d="M172.004 136.467L172 41" stroke="#363636" stroke-width="2.5" stroke-linecap="round" stroke-linejoin="round"/>
<path d="M38.2 123H33V128.2H38.2V123Z" fill="#363636"/>
<path d="M38.2 116H33V121.2H38.2V116Z" fill="#363636"/>
<path d="M38.2 109H33V114.2H38.2V109Z" fill="#363636"/>
<path d="M147.361 146.677H26.7116C25.3874 146.677 24.1174 146.151 23.1811 145.215C22.2448 144.279 21.7188 143.009 21.7188 141.684V130.778L28.0721 130.635V50.1784C28.0721 48.8542 28.5981 47.5843 29.5345 46.6479C30.4708 45.7116 31.7408 45.1855 33.0649 45.1855H140.141C141.465 45.1855 142.735 45.7116 143.672 46.6479C144.608 47.5843 145.134 48.8542 145.134 50.1784V130.458L152.354 130.795V141.679C152.354 142.336 152.226 142.985 151.975 143.592C151.724 144.198 151.357 144.749 150.893 145.213C150.429 145.677 149.879 146.045 149.273 146.297C148.666 146.548 148.017 146.677 147.361 146.677ZM24.0229 133.024V141.677C24.0236 142.39 24.3071 143.073 24.8111 143.577C25.3152 144.081 25.9987 144.365 26.7116 144.366H147.361C148.074 144.365 148.757 144.081 149.261 143.577C149.765 143.073 150.049 142.39 150.049 141.677V132.999L142.827 132.662V50.1784C142.826 49.4664 142.543 48.7839 142.039 48.2804C141.536 47.777 140.853 47.4936 140.141 47.4922H33.0649C32.3529 47.4936 31.6705 47.777 31.167 48.2804C30.6635 48.7839 30.3801 49.4664 30.3788 50.1784V132.885L24.0229 133.024Z" fill="#363636"/>
<path d="M143.965 130.351L29.2305 130.591L29.2353 132.902L143.97 132.662L143.965 130.351Z" fill="#363636"/>
<path d="M96.3726 141.574H76.8307C76.6745 141.581 76.5185 141.557 76.3721 141.502C76.2257 141.447 76.0919 141.364 75.9789 141.256C75.8658 141.148 75.7758 141.018 75.7143 140.874C75.6528 140.731 75.6211 140.576 75.6211 140.42C75.6211 140.263 75.6528 140.109 75.7143 139.965C75.7758 139.821 75.8658 139.691 75.9789 139.583C76.0919 139.476 76.2257 139.392 76.3721 139.337C76.5185 139.282 76.6745 139.258 76.8307 139.265H96.3726C96.5287 139.258 96.6847 139.282 96.8311 139.337C96.9775 139.392 97.1113 139.476 97.2244 139.583C97.3374 139.691 97.4274 139.821 97.4889 139.965C97.5504 140.109 97.5821 140.263 97.5821 140.42C97.5821 140.576 97.5504 140.731 97.4889 140.874C97.4274 141.018 97.3374 141.148 97.2244 141.256C97.1113 141.364 96.9775 141.447 96.8311 141.502C96.6847 141.557 96.5287 141.581 96.3726 141.574Z" fill="#363636"/>
<path d="M102.277 163.038H71.8008L75.096 144.367H98.9792L102.277 163.038ZM74.5668 160.726H99.5309L97.0495 146.676H77.0457L74.5668 160.726Z" fill="#363636"/>
<path d="M109.856 163.038H64.2144C63.9079 163.038 63.6139 162.916 63.3971 162.7C63.1804 162.483 63.0586 162.189 63.0586 161.882C63.0586 161.576 63.1804 161.282 63.3971 161.065C63.6139 160.848 63.9079 160.727 64.2144 160.727H109.856C110.163 160.727 110.457 160.848 110.674 161.065C110.89 161.282 111.012 161.576 111.012 161.882C111.012 162.189 110.89 162.483 110.674 162.7C110.457 162.916 110.163 163.038 109.856 163.038Z" fill="#363636"/>
<path d="M93.223 93.7902V98.4611C93.3062 103.113 92.1138 106.713 89.6457 109.261C87.1775 111.809 83.6592 113.082 79.0908 113.08C74.6405 113.08 71.2288 111.847 68.8555 109.38C66.4823 106.914 65.3173 103.355 65.3605 98.7032V74.0137H68.4536L68.3313 98.4011C68.2913 102.282 69.2017 105.235 71.0624 107.258C72.923 109.282 75.6524 110.293 79.2506 110.292C82.8504 110.292 85.5907 109.3 87.4713 107.318C89.3519 105.336 90.2722 102.464 90.2323 98.7032L90.11 74.0137H93.2655L93.223 93.7902Z" fill="#363636"/>
<path d="M107.236 100.82L107.359 112.77H104.203L104.385 101.002L104.203 74.0059H107.418L107.236 100.82Z" fill="#363636"/>
<path d="M135.128 124.406L130.559 119.082L126.47 122.582L121.477 105.277L137.836 112.855L133.648 116.39L138.239 121.74L135.128 124.406Z" fill="#363636"/>
<path d="M169.476 169.225C172.962 165.738 172.962 160.084 169.476 156.598C165.989 153.111 160.335 153.111 156.849 156.598C153.362 160.084 153.362 165.738 156.849 169.225C160.335 172.711 165.989 172.711 169.476 169.225Z" stroke="#363636" stroke-width="2.5" stroke-linecap="round" stroke-linejoin="round"/>
<path d="M2 74L2 172H37" stroke="#363636" stroke-width="2.5" stroke-linecap="round" stroke-linejoin="round"/>
<path d="M53.4107 172H46.1836" stroke="#363636" stroke-width="2.5" stroke-linecap="round" stroke-linejoin="round"/>
<path d="M60 172H59" stroke="#363636" stroke-width="2.5" stroke-linecap="round" stroke-linejoin="round"/>
<path d="M93.7926 16.9622C97.9587 15.2366 99.937 10.4603 98.2114 6.29424C96.4857 2.12814 91.7095 0.149768 87.5434 1.87542C83.3773 3.60108 81.3989 8.3773 83.1246 12.5434C84.8502 16.7095 89.6265 18.6879 93.7926 16.9622Z" fill="#363636"/>
<path d="M78.7926 29.2112C82.9587 27.4856 84.937 22.7094 83.2114 18.5433C81.4857 14.3772 76.7095 12.3988 72.5434 14.1244C68.3773 15.8501 66.3989 20.6263 68.1246 24.7924C69.8502 28.9585 74.6265 30.9369 78.7926 29.2112Z" fill="#363636"/>
<path d="M104 10H172.132" stroke="#363636" stroke-width="2.5" stroke-linecap="round" stroke-linejoin="round"/>
<path d="M89 22.249H157.132" stroke="#363636" stroke-width="2.5" stroke-linecap="round" stroke-linejoin="round"/>
<rect x="24" y="42" width="44" height="25" fill="white"/>
<path d="M11.4073 4.27742H15.1672V7.12891L11.4073 7.12891V4.27742ZM18.9257 4.27742H22.6842V7.12891H18.9216L18.9257 4.27742ZM26.4428 4.27742H30.2013V7.12891H26.4428V4.27742ZM33.9599 4.27742H37.7184V7.12891H33.9599V4.27742ZM41.4769 4.27742H45.2355V7.12891H41.4769V4.27742ZM48.9954 4.27742H52.7539V7.12891H48.9954V4.27742Z" fill="#363636"/>
<path d="M55.6055 11.4063H58.457V15.165H55.6055V11.4063ZM55.6055 18.9236H58.457V22.6823H55.6055V18.9236ZM55.6055 26.441H58.457V30.1996H55.6055V26.441ZM55.6055 33.9583H58.457V37.7169H55.6055V33.9583ZM55.6055 41.477H58.457V45.2356H55.6055V41.477ZM55.6055 48.9943H58.457V52.7529H55.6055V48.9943Z" fill="#363636"/>
<path d="M11.4073 57.0294L15.1672 57.0294L15.1672 59.8809L11.4073 59.8809L11.4073 57.0294ZM18.9257 57.0294L22.6842 57.0294L22.6842 59.8809L18.9216 59.8809L18.9257 57.0294ZM26.4428 57.0294L30.2013 57.0294L30.2013 59.8809L26.4428 59.8809L26.4428 57.0294ZM33.9599 57.0294L37.7184 57.0294L37.7184 59.8809L33.9599 59.8809L33.9599 57.0294ZM41.4769 57.0294L45.2355 57.0294L45.2355 59.8809L41.4769 59.8809L41.4769 57.0294ZM48.9954 57.0294L52.7539 57.0294L52.7539 59.8809L48.9954 59.8809L48.9954 57.0294Z" fill="#363636"/>
<path d="M2.85163 11.4063H5.70312L5.70312 15.165H2.85163L2.85163 11.4063ZM2.85163 18.9236H5.70312L5.70312 22.6823L2.85163 22.6823L2.85163 18.9236ZM2.85163 26.441L5.70312 26.441L5.70312 30.1996L2.85163 30.1996L2.85163 26.441ZM2.85163 33.9583H5.70312L5.70312 37.7169H2.85163L2.85163 33.9583ZM2.85163 41.477H5.70312L5.70312 45.2356H2.85163L2.85163 41.477ZM2.85163 48.9943H5.70312L5.70312 52.7529H2.85163L2.85163 48.9943Z" fill="#363636"/>
<path d="M55.5951 52.6517L59.8999 52.6517C60.7014 52.6517 61.47 52.9701 62.0368 53.5368C62.6035 54.1035 62.9219 54.8721 62.9219 55.6736L62.9219 59.5197C62.9208 60.4421 62.5538 61.3265 61.9016 61.9787C61.2493 62.631 60.365 62.9979 59.4425 62.999L55.5965 62.999C54.795 62.999 54.0264 62.6806 53.4596 62.1139C52.8929 61.5472 52.5745 60.7786 52.5745 59.9771L52.5745 55.6722C52.5749 54.8712 52.8933 54.1032 53.4596 53.5368C54.026 52.9704 54.7941 52.6521 55.5951 52.6517ZM59.4412 61.9922C60.0938 61.99 60.7191 61.7299 61.1807 61.2685C61.6424 60.8071 61.9029 60.182 61.9054 59.5293L61.9054 55.6832C61.9047 55.1508 61.6928 54.6405 61.3164 54.264C60.9399 53.8876 60.4296 53.6757 59.8972 53.675L55.5923 53.675C55.06 53.6757 54.5496 53.8876 54.1731 54.264C53.7967 54.6405 53.5848 55.1508 53.5841 55.6832L53.5841 59.9881C53.5848 60.5205 53.7967 61.0309 54.1731 61.4073C54.5496 61.7838 55.06 61.9956 55.5923 61.9963L59.4412 61.9922Z" fill="#363636"/>
<path d="M3.02479 52.6513L7.32964 52.6513C8.1311 52.6513 8.89975 52.9697 9.46647 53.5364C10.0332 54.1031 10.3516 54.8717 10.3516 55.6732L10.3516 59.9781C10.3516 60.7795 10.0332 61.5482 9.46647 62.1149C8.89975 62.6816 8.1311 63 7.32964 63L3.02479 63C2.22333 63 1.45468 62.6816 0.887963 62.1149C0.321243 61.5482 0.00286872 60.7795 0.00286872 59.9781L0.00286872 55.6732C0.00286872 54.8717 0.321243 54.1031 0.887963 53.5364C1.45468 52.9697 2.22333 52.6513 3.02479 52.6513ZM7.32964 61.9918C7.86202 61.9911 8.37239 61.7792 8.74885 61.4028C9.1253 61.0263 9.33713 60.516 9.33786 59.9836L9.33786 55.6787C9.33713 55.1463 9.1253 54.6359 8.74885 54.2595C8.37239 53.883 7.86202 53.6712 7.32964 53.6705L3.02479 53.6705C2.49229 53.6709 1.98171 53.8826 1.60518 54.2591C1.22865 54.6356 1.01693 55.1462 1.01657 55.6787L1.01657 59.9836C1.01693 60.5161 1.22865 61.0267 1.60518 61.4032C1.98171 61.7797 2.49229 61.9914 3.02479 61.9918L7.32964 61.9918Z" fill="#363636"/>
<path d="M55.5951 -7.77368e-05L59.8999 -7.77368e-05C60.7014 -7.77368e-05 61.47 0.318313 62.0368 0.885034C62.6035 1.45175 62.9219 2.22038 62.9219 3.02185L62.9219 7.32671C62.9219 8.12817 62.6035 8.89682 62.0368 9.46354C61.47 10.0303 60.7014 10.3486 59.8999 10.3486L55.5951 10.3486C54.7936 10.3486 54.025 10.0303 53.4583 9.46354C52.8915 8.89682 52.5732 8.12817 52.5732 7.32671V3.02185C52.5732 2.22038 52.8915 1.45175 53.4583 0.885034C54.025 0.318313 54.7936 -7.77368e-05 55.5951 -7.77368e-05ZM59.8999 9.34041C60.4323 9.33969 60.9427 9.12787 61.3191 8.75142C61.6956 8.37496 61.9074 7.86459 61.9082 7.33221L61.9082 3.02735C61.9074 2.49496 61.6956 1.98459 61.3191 1.60814C60.9427 1.23168 60.4323 1.01987 59.8999 1.01914L55.5951 1.01914C55.0627 1.01987 54.5523 1.23168 54.1759 1.60814C53.7994 1.98459 53.5876 2.49496 53.5869 3.02735V7.33221C53.5876 7.86459 53.7994 8.37496 54.1759 8.75142C54.5523 9.12787 55.0627 9.33969 55.5951 9.34041L59.8999 9.34041Z" fill="#363636"/>
<path d="M3.02479 -7.77368e-05L7.32964 -7.77368e-05C8.1311 -7.77368e-05 8.89975 0.318313 9.46647 0.885034C10.0332 1.45175 10.3516 2.22038 10.3516 3.02185L10.3516 7.32671C10.3516 8.12817 10.0332 8.89682 9.46647 9.46354C8.89975 10.0303 8.1311 10.3486 7.32964 10.3486L3.02479 10.3486C2.22333 10.3486 1.45468 10.0303 0.887963 9.46354C0.321243 8.89682 0.00286872 8.12817 0.00286872 7.32671L0.00286872 3.02185C0.00286872 2.22038 0.321243 1.45175 0.887963 0.885034C1.45468 0.318313 2.22333 -7.77368e-05 3.02479 -7.77368e-05ZM7.32964 9.34041C7.86202 9.33969 8.37239 9.12787 8.74885 8.75142C9.1253 8.37496 9.33713 7.86459 9.33786 7.33221L9.33786 3.02735C9.33713 2.49496 9.1253 1.98459 8.74885 1.60814C8.37239 1.23168 7.86202 1.01987 7.32964 1.01914L3.02479 1.01914C2.49372 1.02095 1.98494 1.23291 1.60967 1.60869C1.23441 1.98447 1.02316 2.49352 1.02207 3.0246L1.02207 7.32946C1.02243 7.86196 1.23411 8.37254 1.61065 8.74907C1.98718 9.1256 2.49779 9.3373 3.03029 9.33766L7.32964 9.34041Z" fill="#363636"/>
<path d="M24.6445 15.9796L38.5687 15.9796L39.3242 19.8779L23.8835 19.8779L24.6445 15.9796ZM37.7363 16.9961L25.4824 16.9961L25.1212 18.8615L38.0921 18.8615L37.7363 16.9961Z" fill="#363636"/>
<path d="M23.929 21.1495H39.2735L41.2227 31.1891L31.6074 47.7383L21.9854 31.1891L23.929 21.1495ZM38.4356 22.1659H24.7669L23.0499 31.0092L31.6019 45.7163L40.1526 31.0092L38.4356 22.1659Z" fill="#363636"/>
<path d="M31.6073 29.84C31.3798 29.8402 31.1574 29.773 30.9681 29.6469C30.7789 29.5207 30.6313 29.3413 30.5441 29.1312C30.4569 28.9211 30.4339 28.6899 30.4781 28.4668C30.5223 28.2437 30.6317 28.0387 30.7925 27.8778C30.9532 27.7169 31.158 27.6072 31.3811 27.5628C31.6042 27.5183 31.8354 27.541 32.0456 27.628C32.2557 27.7149 32.4353 27.8623 32.5617 28.0514C32.6881 28.2405 32.7556 28.4628 32.7556 28.6903C32.7556 28.995 32.6347 29.2872 32.4193 29.5027C32.204 29.7183 31.9119 29.8396 31.6073 29.84ZM31.6073 30.8564C32.0357 30.8564 32.4545 30.7294 32.8107 30.4914C33.167 30.2534 33.4446 29.915 33.6085 29.5192C33.7725 29.1234 33.8154 28.6879 33.7318 28.2677C33.6482 27.8475 33.4419 27.4615 33.139 27.1586C32.836 26.8556 32.4501 26.6493 32.0299 26.5657C31.6097 26.4822 31.1741 26.525 30.7783 26.689C30.3825 26.8529 30.0442 27.1306 29.8062 27.4868C29.5681 27.843 29.4411 28.2618 29.4411 28.6903C29.4415 29.2647 29.6698 29.8154 30.076 30.2216C30.4821 30.6277 31.0329 30.8561 31.6073 30.8564Z" fill="#363636"/>
<path d="M31.5979 30.2911C31.7325 30.2915 31.8614 30.3452 31.9564 30.4405C32.0514 30.5358 32.1048 30.6648 32.1048 30.7994L32.1048 45.7661C32.1084 45.835 32.0979 45.9039 32.074 45.9686C32.0501 46.0333 32.0133 46.0924 31.9658 46.1425C31.9183 46.1925 31.8612 46.2323 31.7978 46.2595C31.7344 46.2868 31.6662 46.3008 31.5972 46.3008C31.5283 46.3008 31.46 46.2868 31.3967 46.2595C31.3333 46.2323 31.2761 46.1925 31.2286 46.1425C31.1812 46.0924 31.1443 46.0333 31.1205 45.9686C31.0966 45.9039 31.0861 45.835 31.0897 45.7661L31.0897 30.8035C31.0891 30.7364 31.1019 30.6699 31.1272 30.6077C31.1525 30.5456 31.1898 30.4891 31.2371 30.4415C31.2843 30.3938 31.3405 30.356 31.4025 30.3302C31.4644 30.3044 31.5308 30.2911 31.5979 30.2911Z" fill="#363636"/>
</g>
<defs>
<clipPath id="clip0_195_895">
<rect width="174" height="174" fill="white"/>
</clipPath>
</defs>
</svg>
