<svg width="174" height="174" viewBox="0 0 174 174" fill="none" xmlns="http://www.w3.org/2000/svg">
<g clip-path="url(#clip0_195_929)">
<rect width="174" height="174" fill="white"/>
<path d="M152.693 165.346C152.693 163.498 151.194 162 149.346 162C147.498 162 146 163.498 146 165.346C146 167.194 147.498 168.692 149.346 168.692C151.194 168.692 152.693 167.194 152.693 165.346Z" fill="#363636"/>
<path d="M165.061 173.49C169.891 173.49 173.806 169.575 173.806 164.745C173.806 159.915 169.891 156 165.061 156C160.232 156 156.316 159.915 156.316 164.745C156.316 169.575 160.232 173.49 165.061 173.49Z" fill="#363636"/>
<path d="M14.0036 22.7811C19.7151 21.7699 23.5255 16.32 22.5143 10.6085C21.5031 4.89692 16.0532 1.08654 10.3417 2.09775C4.63014 3.10896 0.81975 8.55884 1.83096 14.2704C2.84217 19.9819 8.29206 23.7923 14.0036 22.7811Z" stroke="#363636" stroke-width="2.5" stroke-linecap="round" stroke-linejoin="round"/>
<path d="M2 103V42" stroke="#363636" stroke-width="2.5" stroke-linecap="round" stroke-linejoin="round"/>
<path d="M24 23H72.5977" stroke="#363636" stroke-width="2.5" stroke-linecap="round" stroke-linejoin="round"/>
<path d="M28 12H76.5977" stroke="#363636" stroke-width="2.5" stroke-linecap="round" stroke-linejoin="round"/>
<path d="M43.3094 53.8896H38.1094V59.0897H43.3094V53.8896Z" fill="#363636"/>
<path d="M53.325 53.8896H48.125V59.0897H53.325V53.8896Z" fill="#363636"/>
<path d="M63.3407 53.8896H58.1406V59.0897H63.3407V53.8896Z" fill="#363636"/>
<path d="M148.859 147.675H28.2077C26.8835 147.675 25.6135 147.149 24.6772 146.213C23.7409 145.277 23.2148 144.007 23.2148 142.682V131.776L29.5707 131.633V51.1764C29.5707 49.8522 30.0967 48.5823 31.0331 47.646C31.9694 46.7096 33.2394 46.1836 34.5635 46.1836H141.637C142.961 46.1836 144.231 46.7096 145.168 47.646C146.104 48.5823 146.63 49.8522 146.63 51.1764V131.456L153.852 131.793V142.677C153.853 143.334 153.724 143.983 153.474 144.59C153.223 145.196 152.855 145.747 152.392 146.211C151.928 146.675 151.377 147.044 150.771 147.295C150.165 147.546 149.515 147.675 148.859 147.675ZM25.5215 134.022V142.675C25.5222 143.387 25.8053 144.07 26.3089 144.574C26.8124 145.078 27.4952 145.362 28.2077 145.364H148.859C149.213 145.364 149.563 145.295 149.89 145.161C150.216 145.026 150.513 144.828 150.764 144.579C151.014 144.329 151.213 144.033 151.349 143.707C151.485 143.381 151.555 143.031 151.555 142.677V134L144.316 133.663V51.1764C144.315 50.4642 144.032 49.7814 143.528 49.2778C143.025 48.7741 142.342 48.4909 141.63 48.4903H34.5635C33.8513 48.4909 33.1685 48.7741 32.6649 49.2778C32.1613 49.7814 31.8781 50.4642 31.8774 51.1764V133.883L25.5215 134.022Z" fill="#363636"/>
<path d="M145.465 131.351L30.7305 131.592L30.7353 133.903L145.47 133.663L145.465 131.351Z" fill="#363636"/>
<path d="M97.885 142.572H78.3306C78.1745 142.579 78.0185 142.555 77.8721 142.5C77.7257 142.445 77.5919 142.362 77.4788 142.254C77.3658 142.146 77.2758 142.016 77.2143 141.872C77.1528 141.729 77.1211 141.574 77.1211 141.418C77.1211 141.261 77.1528 141.107 77.2143 140.963C77.2758 140.819 77.3658 140.689 77.4788 140.581C77.5919 140.474 77.7257 140.39 77.8721 140.335C78.0185 140.28 78.1745 140.256 78.3306 140.263H97.885C98.0412 140.256 98.1972 140.28 98.3436 140.335C98.49 140.39 98.6238 140.474 98.7368 140.581C98.8499 140.689 98.9399 140.819 99.0014 140.963C99.0629 141.107 99.0946 141.261 99.0946 141.418C99.0946 141.574 99.0629 141.729 99.0014 141.872C98.9399 142.016 98.8499 142.146 98.7368 142.254C98.6238 142.362 98.49 142.445 98.3436 142.5C98.1972 142.555 98.0412 142.579 97.885 142.572Z" fill="#363636"/>
<path d="M103.773 164.037H73.2969L76.5946 145.366H100.475L103.773 164.037ZM76.0629 161.725H101.027L98.5456 147.675H78.5318L76.0629 161.725Z" fill="#363636"/>
<path d="M111.368 164.036H65.7183C65.4118 164.036 65.1178 163.915 64.901 163.698C64.6843 163.481 64.5625 163.187 64.5625 162.88C64.5625 162.574 64.6843 162.28 64.901 162.063C65.1178 161.846 65.4118 161.725 65.7183 161.725H111.368C111.674 161.725 111.968 161.846 112.185 162.063C112.402 162.28 112.524 162.574 112.524 162.88C112.524 163.187 112.402 163.481 112.185 163.698C111.968 163.915 111.674 164.036 111.368 164.036Z" fill="#363636"/>
<path d="M84.7764 94.7893V99.4601C84.8563 104.112 83.663 107.712 81.1965 110.26C78.7301 112.808 75.2118 114.081 70.6417 114.079C66.1931 114.079 62.7813 112.846 60.4064 110.379C58.0315 107.913 56.8665 104.354 56.9114 99.7022V75.0127H60.0045L59.8846 99.4002C59.8447 103.281 60.7542 106.234 62.6132 108.257C64.4722 110.281 67.2025 111.292 70.804 111.291C74.4038 111.291 77.1432 110.3 79.0221 108.317C80.9011 106.335 81.8215 103.463 81.7832 99.7022L81.6634 75.0127H84.8163L84.7764 94.7893Z" fill="#363636"/>
<path d="M109.285 93.6357L122.933 113.777H119.051L117.473 111.056L107.16 96.1346L96.7878 111.238L95.3325 113.787H91.8125L105.341 93.9503L92.4191 75.0225H96.3635L97.8189 77.6312L107.343 91.5237L116.744 77.7535L118.262 75.0225H121.852L109.285 93.6357Z" fill="#363636"/>
<path d="M163.655 20.0326L120.743 20.0326C118.225 20.0054 115.82 18.9908 114.049 17.2091C112.278 15.4275 111.285 13.0226 111.285 10.5166C111.285 8.01059 112.278 5.60571 114.049 3.82407C115.82 2.04243 118.225 1.02784 120.743 1.00056L163.653 1.00056C164.918 0.986865 166.172 1.22289 167.344 1.69497C168.517 2.16705 169.583 2.86581 170.482 3.75082C171.381 4.63583 172.094 5.6895 172.581 6.85084C173.069 8.01219 173.319 9.25815 173.319 10.5166C173.319 11.7751 173.069 13.021 172.581 14.1824C172.094 15.3437 171.381 16.3974 170.482 17.2824C169.583 18.1674 168.517 18.8662 167.344 19.3382C166.172 19.8103 164.918 20.0463 163.653 20.0326H163.655ZM120.743 2.68195C118.654 2.68195 116.651 3.50768 115.175 4.97749C113.698 6.4473 112.868 8.44079 112.868 10.5194C112.868 12.598 113.698 14.5915 115.175 16.0613C116.651 17.5312 118.654 18.3569 120.743 18.3569L163.653 18.3569C164.695 18.3693 165.729 18.1759 166.695 17.7877C167.661 17.3996 168.54 16.8245 169.281 16.0957C170.022 15.367 170.61 14.4991 171.012 13.5423C171.414 12.5856 171.62 11.5591 171.62 10.5222C171.62 9.4854 171.414 8.45886 171.012 7.50214C170.61 6.54541 170.022 5.67753 169.281 4.94878C168.54 4.22003 167.661 3.64491 166.695 3.25676C165.729 2.86861 164.695 2.67515 163.653 2.68759L120.743 2.68195Z" fill="#363636"/>
<path d="M163.981 19.6807C162.134 19.6807 160.328 19.1329 158.792 18.1066C157.256 17.0803 156.059 15.6215 155.352 13.9148C154.645 12.208 154.46 10.33 154.82 8.51815C155.18 6.7063 156.07 5.04201 157.376 3.73573C158.683 2.42946 160.347 1.53988 162.159 1.17948C163.971 0.819077 165.849 1.00405 167.555 1.711C169.262 2.41795 170.721 3.61512 171.747 5.15114C172.774 6.68715 173.321 8.49302 173.321 10.3404C173.319 12.8168 172.334 15.1909 170.583 16.942C168.832 18.6931 166.457 19.678 163.981 19.6807ZM163.981 2.21041C162.373 2.21041 160.801 2.68732 159.463 3.58083C158.126 4.47433 157.084 5.7443 156.469 7.23013C155.853 8.71596 155.692 10.3509 156.006 11.9282C156.32 13.5055 157.095 14.9543 158.232 16.0914C159.369 17.2286 160.818 18.0029 162.395 18.3165C163.973 18.6301 165.608 18.4689 167.093 17.8533C168.579 17.2377 169.849 16.1954 170.742 14.8581C171.636 13.5208 172.112 11.9486 172.112 10.3404C172.11 8.18471 171.252 6.11805 169.728 4.59388C168.203 3.0697 166.137 2.21252 163.981 2.21041Z" fill="#363636"/>
<path d="M163.655 43.9994L120.743 43.9994C118.225 43.9722 115.82 42.9576 114.049 41.1759C112.278 39.3943 111.285 36.9894 111.285 34.4834C111.285 31.9774 112.278 29.5725 114.049 27.7909C115.82 26.0092 118.225 24.9946 120.743 24.9674L163.653 24.9674C164.918 24.9537 166.172 25.1897 167.344 25.6618C168.517 26.1339 169.583 26.8326 170.482 27.7176C171.381 28.6026 172.094 29.6563 172.581 30.8176C173.069 31.979 173.319 33.2249 173.319 34.4834C173.319 35.7419 173.069 36.9878 172.581 38.1492C172.094 39.3105 171.381 40.3642 170.482 41.2492C169.583 42.1342 168.517 42.833 167.344 43.305C166.172 43.7771 164.918 44.0131 163.653 43.9994H163.655ZM120.743 26.6488C118.671 26.6735 116.693 27.5098 115.237 28.9764C113.781 30.443 112.965 32.4217 112.965 34.4834C112.965 36.5451 113.781 38.5238 115.237 39.9904C116.693 41.457 118.671 42.2933 120.743 42.318L163.653 42.318C164.695 42.3305 165.729 42.137 166.695 41.7489C167.661 41.3607 168.54 40.7856 169.281 40.0569C170.022 39.3281 170.61 38.4602 171.012 37.5035C171.414 36.5468 171.62 35.5202 171.62 34.4834C171.62 33.4466 171.414 32.42 171.012 31.4633C170.61 30.5066 170.022 29.6387 169.281 28.9099C168.54 28.1812 167.661 27.6061 166.695 27.2179C165.729 26.8298 164.695 26.6363 163.653 26.6488L120.743 26.6488Z" fill="#363636"/>
<path d="M120.626 43.6475C118.778 43.6475 116.972 43.0997 115.436 42.0734C113.9 41.0471 112.703 39.5883 111.996 37.8816C111.289 36.1748 111.104 34.2968 111.465 32.485C111.825 30.6731 112.715 29.0088 114.021 27.7025C115.327 26.3963 116.991 25.5067 118.803 25.1463C120.615 24.7859 122.493 24.9708 124.2 25.6778C125.907 26.3847 127.365 27.5819 128.392 29.1179C129.418 30.654 129.966 32.4598 129.966 34.3072C129.963 36.7836 128.978 39.1577 127.227 40.9088C125.476 42.6599 123.102 43.6448 120.626 43.6475ZM120.626 26.1772C119.017 26.177 117.445 26.6537 116.108 27.5471C114.77 28.4404 113.728 29.7103 113.112 31.1961C112.497 32.682 112.336 34.3169 112.649 35.8943C112.963 37.4717 113.738 38.9206 114.875 40.0578C116.012 41.1951 117.461 41.9695 119.038 42.2832C120.616 42.5969 122.251 42.4358 123.737 41.8202C125.222 41.2047 126.492 40.1623 127.386 38.825C128.279 37.4877 128.756 35.9154 128.755 34.3072C128.753 32.1517 127.896 30.0852 126.372 28.5611C124.847 27.0369 122.781 26.1796 120.626 26.1772Z" fill="#363636"/>
<path d="M172 56.9997V107.582" stroke="#363636" stroke-width="2.5" stroke-linecap="round" stroke-linejoin="round"/>
<path d="M2 37V38" stroke="#363636" stroke-width="2.5" stroke-linecap="round" stroke-linejoin="round"/>
<path d="M172 112V113" stroke="#363636" stroke-width="2.5" stroke-linecap="round" stroke-linejoin="round"/>
<rect x="11" y="113" width="52" height="52" fill="white"/>
<path d="M12.2544 119.945H10.5078V173.999H12.2544V119.945Z" fill="#363636"/>
<path d="M44.7271 119H42.9805V173.053H44.7271V119Z" fill="#363636"/>
<path d="M57 128.754H0V130.41H57V128.754Z" fill="#363636"/>
<path d="M57 162.688H0V164.345H57V162.688Z" fill="#363636"/>
<rect x="14.25" y="132.75" width="26.125" height="27.5" fill="#363636"/>
</g>
<defs>
<clipPath id="clip0_195_929">
<rect width="174" height="174" fill="white"/>
</clipPath>
</defs>
</svg>
