<svg width="140" height="186" viewBox="0 0 140 186" fill="none" xmlns="http://www.w3.org/2000/svg">
<path d="M89.039 185.819V96.1599C88.9477 95.724 88.7091 95.3329 88.3634 95.0521C88.0177 94.7714 87.5859 94.6182 87.1406 94.6182C86.6953 94.6182 86.2635 94.7714 85.9178 95.0521C85.5721 95.3329 85.3336 95.724 85.2422 96.1599V185.778L89.039 185.819Z" fill="#231F20"/>
<path d="M46.5947 185.819V96.1597C46.5948 95.8804 46.5347 95.6045 46.4183 95.3506C46.302 95.0968 46.1323 94.871 45.9207 94.6888C45.7091 94.5066 45.4606 94.3723 45.1923 94.2949C44.924 94.2176 44.6422 94.199 44.3661 94.2406C43.893 94.3371 43.4687 94.5964 43.167 94.9734C42.8654 95.3505 42.7055 95.8214 42.7153 96.3041V185.798L46.5947 185.819Z" fill="#231F20"/>
<path d="M87.1016 0L139.7 152.101H34.5234L87.1016 0Z" fill="#26A69A"/>
<path d="M44.6543 22.9258L89.3293 152.101H0L44.6543 22.9258Z" fill="#26C6DA"/>
</svg>
