<svg width="205" height="104" viewBox="0 0 205 104" fill="none" xmlns="http://www.w3.org/2000/svg">
<path d="M28.592 23.7101C24.222 19.3401 18.252 18.1601 12.252 17.8301C11.0978 18.3305 10.0721 19.0861 9.25204 20.0401C6.25204 24.0401 1.58203 37.7101 1.58203 37.7101C1.58203 37.7101 7.91205 57.3801 8.91205 59.7101C9.91205 62.0401 15.582 63.3801 20.582 64.7101C23.272 65.4301 27.582 65.3701 31.922 64.8001C41.502 52.3801 42.312 35.1401 28.592 23.7101Z" fill="#FE819D"/>
<path d="M44.9917 22.2801L44.5917 22.3801C44.5917 22.3801 43.2617 20.3801 38.9217 17.3801C34.5817 14.3801 25.2617 14.3801 25.2617 14.3801C25.2617 14.3801 17.1317 15.3801 12.2617 17.8301C18.2617 18.1601 24.2617 19.3401 28.6017 23.7101C42.3217 35.1401 41.5117 52.3801 31.9417 64.8001C35.3599 64.3966 38.7172 63.5841 41.9417 62.3801C47.6117 60.0401 50.2817 49.0401 50.2817 49.0401L50.9217 48.8901C51.5917 39.7101 48.3717 30.8501 44.9917 22.2801Z" fill="#FE6285"/>
<path d="M84.5307 14.6501C80.8607 12.2301 76.8307 12.7901 72.8807 13.6001C72.2307 14.8801 71.8807 15.7201 71.8807 15.7201L44.9707 22.4201C48.4007 30.9701 51.6507 39.8201 51.0207 49.0001L75.6807 43.0001C75.8398 43.2826 76.0851 43.5069 76.3807 43.6401C80.3807 41.8601 84.4507 40.3001 87.6507 37.6401C96.5907 31.5901 92.5907 20.6101 84.5307 14.6501Z" fill="#FE819D"/>
<path d="M95.5009 9.60026C90.7509 4.89026 84.7809 4.54026 79.0409 4.60026C76.57 7.29208 74.4958 10.3226 72.8809 13.6003C76.8309 12.7903 80.8809 12.2303 84.5309 14.6503C92.5309 20.6503 96.6108 31.5903 87.6408 37.6503C84.4408 40.3403 80.3708 41.9003 76.3708 43.6503C77.8308 44.5303 81.2308 45.5203 83.3708 46.3103C85.6708 47.1603 91.1809 47.4903 95.0009 47.3103C101.481 35.2003 104.711 22.0203 95.5009 9.60026Z" fill="#FE6285"/>
<path d="M113.92 22.3802C113.26 18.0402 105.26 4.71019 106.26 5.38019C106.26 5.38019 88.5904 -0.959808 82.5904 2.04019C81.3121 2.72159 80.1509 3.60267 79.1504 4.65019C84.8904 4.60019 90.8604 4.98019 95.5904 9.71019C104.74 22.1802 101.43 35.3402 94.8904 47.4802C95.5104 47.4802 96.0804 47.4202 96.5904 47.3802C100.26 47.0402 107.26 42.3802 110.26 37.3802C113.26 32.3802 114.59 26.7102 113.92 22.3802Z" fill="#FE819D"/>
<path d="M23.5104 13.4302C19.1404 14.1402 13.2404 14.7902 9.88041 17.9902C5.88041 21.7802 3.32041 28.4402 1.06041 33.3402C-1.19959 38.2402 0.590403 41.3402 2.3704 46.0602C4.1504 50.7802 5.48041 56.9702 8.66041 61.0602C11.3604 64.5202 15.7804 65.0602 19.8004 66.0602C24.3904 67.2202 27.3104 67.6502 31.3804 64.7502C34.8904 62.2402 36.8204 58.5502 38.5204 54.6802C39.8804 51.5802 42.0804 46.9702 39.8304 43.8402C39.0704 42.7702 37.2804 43.8402 38.0604 44.8402C40.1404 47.7002 37.3304 53.5102 35.9904 56.0402C33.9904 59.7402 30.9204 64.0402 26.4304 64.3302C23.1604 64.5502 19.0504 63.1402 15.9004 62.1202C10.9004 60.4902 9.79042 57.9202 7.98042 53.3802C6.57042 49.8402 5.20041 46.2902 3.81041 42.7502C1.90041 37.8402 3.35041 33.9602 5.72041 29.4802C7.35041 26.4202 9.06041 22.1802 11.7204 19.8302C14.6704 17.1702 20.4004 16.7302 24.0804 15.4002C24.3377 15.3286 24.5559 15.1577 24.6872 14.9252C24.8185 14.6927 24.852 14.4175 24.7804 14.1602C24.7088 13.903 24.5379 13.6847 24.3054 13.5534C24.0728 13.4221 23.7977 13.3886 23.5404 13.4602L23.5104 13.4302Z" fill="#BB4667"/>
<path d="M12.3312 19.1001C18.7712 21.0101 27.1512 20.7301 30.9712 27.0401C34.2312 32.4101 35.5012 38.8801 37.7612 44.6701C37.8461 44.9804 38.0507 45.2443 38.3301 45.4037C38.6096 45.5631 38.9409 45.605 39.2512 45.5201C39.5615 45.4352 39.8254 45.2306 39.9848 44.9512C40.1442 44.6717 40.1861 44.3404 40.1012 44.0301C39.1012 37.6001 36.0012 27.8001 31.7312 22.6801C27.8312 18.0001 18.1712 17.4801 12.5612 17.3601C12.351 17.3677 12.1502 17.4494 11.9946 17.5909C11.8389 17.7324 11.7384 17.9244 11.7108 18.1329C11.6832 18.3414 11.7304 18.553 11.844 18.73C11.9575 18.9071 12.1301 19.0382 12.3312 19.1001Z" fill="#BB4667"/>
<path d="M22.8217 15.1402C30.8217 16.3702 40.5317 16.8002 43.8217 25.5502C46.1617 31.6802 47.6417 38.1602 50.3217 44.1602C50.9317 45.5402 52.9917 44.5302 52.6717 43.1602C51.5717 38.3602 49.6717 33.6902 48.1517 29.0302C47.0617 25.7602 46.2317 21.9302 43.9017 19.2602C39.3617 14.0602 29.6017 12.4202 23.0817 12.9802C21.9517 13.0702 21.4817 14.9202 22.7917 15.1302L22.8217 15.1402Z" fill="#BB4667"/>
<path d="M27.8412 66.7102C33.4412 66.4202 41.4812 66.1402 45.3212 61.3902C48.7512 57.1502 51.7812 50.4702 52.1912 45.0102C52.1781 44.7371 52.0699 44.4772 51.8852 44.2756C51.7005 44.074 51.451 43.9435 51.1801 43.9067C50.9092 43.8698 50.634 43.929 50.4022 44.074C50.1704 44.2189 49.9966 44.4405 49.9112 44.7002C48.9112 49.4402 47.1812 54.6402 44.1912 58.5802C40.3412 63.6602 33.2712 63.2402 27.5112 64.2902C26.1512 64.5402 26.4612 66.7802 27.8412 66.7102Z" fill="#BB4667"/>
<path d="M44.1603 23.3802C54.0103 21.5102 63.8803 18.8202 73.6103 16.3802C75.2503 15.9702 74.5403 13.5802 72.9203 13.8802C62.9676 15.5332 53.1607 17.9674 43.5903 21.1602C43.4445 21.2003 43.3081 21.2686 43.1887 21.3614C43.0694 21.4542 42.9695 21.5696 42.8947 21.701C42.7438 21.9664 42.7044 22.2808 42.7853 22.5752C42.8662 22.8696 43.0607 23.1198 43.3261 23.2708C43.5914 23.4217 43.9059 23.4611 44.2003 23.3802H44.1603Z" fill="#BB4667"/>
<path d="M76.0618 14.7901C82.3818 14.3301 87.1918 16.8501 89.7218 22.8901C92.0718 28.5001 90.3918 33.8201 85.9518 37.7301C85.1518 38.4401 86.1719 39.5901 87.0419 39.1401C100.722 32.1401 89.6618 6.82008 75.5918 13.0601C74.7518 13.4301 75.1718 14.8501 76.0618 14.7901Z" fill="#BB4667"/>
<path d="M50.8105 49.4702C56.982 48.3394 63.0823 46.8502 69.0805 45.0102C74.4905 43.4902 80.2806 42.2402 85.3806 39.8502C86.6106 39.2702 85.6506 37.6902 84.5406 37.8502C78.7606 38.6802 72.9705 40.8502 67.3605 42.4902C61.7505 44.1302 55.8805 45.6402 50.3605 47.7602C50.1516 47.8375 49.9792 47.9903 49.8775 48.1886C49.7757 48.3868 49.7521 48.616 49.8111 48.8308C49.8702 49.0456 50.0077 49.2305 50.1964 49.3489C50.3852 49.4673 50.6114 49.5105 50.8305 49.4702H50.8105Z" fill="#BB4667"/>
<path d="M72.072 16.2502C76.172 10.7002 78.072 3.40022 86.072 2.86022C91.932 2.47022 98.132 4.33023 103.922 5.15023C105.682 5.40023 106.492 2.74023 104.672 2.42023C97.982 1.23023 89.742 -1.10978 82.952 0.610221C76.162 2.33022 72.752 9.08022 70.102 15.1302C69.9831 15.3838 69.9636 15.6728 70.0472 15.9401C70.1309 16.2074 70.3117 16.4337 70.554 16.5743C70.7962 16.7149 71.0824 16.7596 71.356 16.6996C71.6296 16.6396 71.8708 16.4793 72.032 16.2502H72.072Z" fill="#BB4667"/>
<path d="M103.152 4.82021C107.622 8.97021 109.202 15.0702 111.392 20.6202C112.812 24.2202 113.652 26.5202 111.982 30.6202C110.997 32.928 109.827 35.152 108.482 37.2702C105.382 42.2102 101.182 45.6102 95.262 46.2702C92.1363 46.5281 88.9894 46.2816 85.942 45.5402C83.742 45.0602 77.942 44.2002 76.942 41.7902C76.342 40.4002 74.272 41.4202 74.592 42.7902C75.082 44.9002 76.532 45.5402 78.462 46.2702C82.4475 47.7316 86.6115 48.6499 90.842 49.0002C98.072 49.5902 104.452 47.0702 108.902 41.3002C112.762 36.3002 117.162 29.5502 115.472 23.0402C114.171 18.6953 112.515 14.4644 110.522 10.3902C109.172 7.39021 107.752 4.39021 104.602 3.07021C103.482 2.59021 102.132 3.92022 103.192 4.90022L103.152 4.82021Z" fill="#BB4667"/>
<path d="M78.9117 5.95024C83.0817 6.32024 89.5217 5.95023 92.7617 9.29023C95.2817 11.9202 96.5817 16.7402 98.0017 19.9902C100.242 25.1002 101.202 29.4102 99.6716 34.8502C98.4816 39.0602 96.0316 42.6302 93.9516 46.4102C93.7792 46.694 93.7267 47.0347 93.8054 47.3572C93.8842 47.6798 94.0879 47.9578 94.3717 48.1302C94.6554 48.3026 94.9961 48.3552 95.3186 48.2765C95.6412 48.1977 95.9193 47.994 96.0917 47.7102C99.1717 43.1202 102.092 37.8802 102.982 32.3602C103.882 27.0002 102.112 22.6402 99.9817 17.8202C98.0817 13.4502 96.7716 7.77023 92.1516 5.47023C88.2516 3.47023 82.8017 3.23023 78.6217 4.16023C77.5217 4.40023 77.8717 5.91022 78.8717 6.00022L78.9117 5.95024Z" fill="#BB4667"/>
<path d="M135.902 38.9203L135.592 38.7103C132.922 37.0403 118.592 39.0403 118.592 39.0403C118.592 39.0403 114.922 44.3803 113.922 48.0403C112.922 51.7003 112.262 55.7103 114.592 60.7103C116.442 64.7103 122.652 67.9903 125.172 69.2103C122.338 65.2649 120.744 60.5652 120.592 55.7103C121.432 46.4703 127.922 41.4703 135.902 38.9203Z" fill="#F5B944"/>
<path d="M131.591 47.7102C134.451 46.2802 137.831 46.3802 140.981 45.8202C140.965 45.7815 140.945 45.7446 140.921 45.7102C140.601 44.7102 138.431 40.7102 135.921 38.9202C127.921 41.4702 121.451 46.4702 120.611 55.7102C120.764 60.5651 122.358 65.2647 125.191 69.2102C125.861 69.5302 126.281 69.7102 126.281 69.7102C128.89 69.6815 131.476 69.2324 133.941 68.3802C135.811 67.6302 137.331 67.1002 138.341 66.7702C135.691 65.2402 132.651 64.2302 129.611 62.7102C124.591 59.7102 127.591 51.7102 131.591 47.7102Z" fill="#E1AB7D"/>
<path d="M181.032 51.8603C178.147 52.8689 175.417 54.2758 172.922 56.0403L143.262 47.7103C143.262 47.7103 141.422 46.7803 140.982 45.8203C137.832 46.3803 134.452 46.2803 131.592 47.7103C127.592 51.7103 124.592 59.7103 129.592 62.7103C132.592 64.2303 135.672 65.2403 138.322 66.7703C139.112 66.5103 139.592 66.3803 139.592 66.3803L169.262 75.0403L169.322 75.1903C168.848 73.4019 168.602 71.5605 168.592 69.7103C168.761 65.8621 170.021 62.1413 172.223 58.9811C174.425 55.821 177.48 53.3515 181.032 51.8603Z" fill="#F5B944"/>
<path d="M176.592 75.7102C177.442 64.7102 183.342 55.8002 193.672 53.3702C191.632 52.0821 189.322 51.2845 186.922 51.0402C184.923 50.9034 182.917 51.1826 181.032 51.8602C177.48 53.3513 174.425 55.8208 172.223 58.981C170.021 62.1412 168.761 65.862 168.592 69.7102C168.602 71.5604 168.848 73.4018 169.322 75.1902C170.349 77.776 171.552 80.2885 172.922 82.7102C174.532 85.2802 178.282 86.0902 183.512 86.4602C180.592 83.6502 176.082 80.8402 176.592 75.7102Z" fill="#E1AB7D"/>
<path d="M198.92 58.3801C197.492 56.4053 195.713 54.7104 193.67 53.3801C183.34 55.8001 177.44 64.7101 176.59 75.7101C176.08 80.8401 179.96 83.2301 182.92 86.0401C184.41 86.0401 182.06 86.7001 182.26 86.7101C187.92 87.0401 195.59 83.7101 196.92 82.7101C198.25 81.7101 201.59 73.3801 202.92 69.3801C204.25 65.3801 200.92 61.0401 198.92 58.3801Z" fill="#F5B944"/>
<path d="M187.232 52.2301C189.732 53.2301 193.812 53.6101 195.762 55.5101C197.462 57.1601 198.632 60.0101 199.712 62.1001C201.132 64.8401 202.072 66.4901 201.302 69.5001C200.671 71.4431 199.916 73.3437 199.042 75.1901C198.262 77.1301 197.642 79.7501 196.392 81.4201C194.892 83.4201 189.932 84.8601 187.392 85.0901C183.322 85.4701 181.392 83.5401 179.482 80.2401C178.322 78.1901 176.662 74.6901 177.892 72.3501C178.512 71.1801 176.732 70.1401 176.122 71.3501C173.952 75.5801 178.072 82.9701 181.412 85.7301C183.522 87.4801 185.412 88.2601 188.142 87.8301C191.272 87.3201 195.672 86.6101 197.912 84.0901C200.152 81.5701 201.042 77.3801 202.212 74.3001C203.382 71.2201 204.962 68.5401 203.982 65.3701C202.657 61.2257 200.556 57.3707 197.792 54.0101C195.352 51.3401 191.202 50.8201 187.792 50.3301C187.535 50.2585 187.26 50.292 187.027 50.4233C186.794 50.5546 186.624 50.7728 186.552 51.0301C186.48 51.2874 186.514 51.5625 186.645 51.7951C186.776 52.0276 186.995 52.1985 187.252 52.2701L187.232 52.2301Z" fill="#EC8500"/>
<path d="M195.221 53.0503C191.221 52.8803 184.381 53.4003 181.641 56.6803C178.591 60.3303 176.381 67.2603 175.781 71.8703C175.783 72.1346 175.871 72.391 176.033 72.6004C176.194 72.8098 176.419 72.9606 176.675 73.0297C176.93 73.0989 177.2 73.0826 177.445 72.9834C177.69 72.8842 177.896 72.7075 178.031 72.4803C179.791 68.4803 180.591 63.9303 182.901 60.1803C185.501 55.9703 191.201 56.3203 195.461 54.7903C195.663 54.728 195.836 54.596 195.949 54.418C196.062 54.24 196.109 54.0275 196.08 53.8184C196.051 53.6093 195.949 53.4173 195.792 53.2766C195.634 53.136 195.432 53.0557 195.221 53.0503Z" fill="#EC8500"/>
<path d="M187.961 49.9502C183.471 49.4102 176.551 50.5701 173.351 54.1401C171.821 55.8401 171.221 58.1401 170.511 60.2701C169.172 63.7512 168.037 67.3072 167.111 70.9202C166.821 72.2702 168.811 73.3102 169.471 71.9202C171.471 67.6202 172.471 62.9201 174.271 58.5001C176.461 53.1701 183.381 53.0301 188.271 52.1101C189.581 51.8601 189.101 50.1101 187.981 49.9601L187.961 49.9502Z" fill="#EC8500"/>
<path d="M184.91 85.3002C181.23 84.5002 176.08 84.8902 173.67 81.5002C171.769 78.619 170.444 75.396 169.77 72.0102C169.69 71.7436 169.517 71.5144 169.283 71.3637C169.049 71.213 168.769 71.1507 168.493 71.1881C168.217 71.2254 167.964 71.3599 167.778 71.5674C167.593 71.7749 167.487 72.0418 167.48 72.3202C167.64 76.1302 169.88 80.9702 172.27 83.9102C174.98 87.2502 180.61 87.6102 184.59 87.7202C184.881 87.7068 185.158 87.5917 185.372 87.395C185.586 87.1982 185.725 86.9324 185.763 86.644C185.801 86.3556 185.736 86.063 185.581 85.8174C185.425 85.5717 185.188 85.3886 184.91 85.3002Z" fill="#EC8500"/>
<path d="M174.221 55.6503C169.221 53.4003 163.521 52.1702 158.291 50.5802C152.721 48.8902 146.971 46.7502 141.201 45.8802C140.878 45.8154 140.543 45.8752 140.263 46.0475C139.983 46.2198 139.779 46.4919 139.691 46.8089C139.604 47.1259 139.64 47.4642 139.792 47.7558C139.944 48.0474 140.201 48.2705 140.511 48.3802C146.161 50.1002 151.881 51.6002 157.511 53.3002C162.711 54.8502 168.211 57.1403 173.611 57.7902C173.862 57.7891 174.107 57.7055 174.306 57.5521C174.506 57.3987 174.65 57.184 174.716 56.9411C174.781 56.6981 174.766 56.4403 174.671 56.2071C174.576 55.9739 174.407 55.7783 174.191 55.6503H174.221Z" fill="#EC8500"/>
<path d="M139.402 45.4602C129.752 40.1702 120.912 59.3202 131.172 63.9002C132.052 64.2902 133.032 63.2602 132.262 62.4902C129.492 59.7402 128.262 56.3902 129.862 52.6002C131.612 48.5002 134.722 47.2002 138.932 47.1802C139.132 47.1758 139.326 47.1068 139.484 46.9834C139.642 46.86 139.756 46.6889 139.808 46.4956C139.861 46.3022 139.85 46.0969 139.777 45.9104C139.704 45.7238 139.572 45.5659 139.402 45.4602Z" fill="#EC8500"/>
<path d="M169.402 74.0203C163.612 71.4303 157.272 69.7903 151.252 67.8303C147.758 66.7036 144.262 65.5936 140.762 64.5003C138.302 63.7203 135.432 62.2903 132.832 62.4003C132.608 62.4218 132.396 62.5109 132.224 62.6556C132.052 62.8004 131.927 62.994 131.868 63.2108C131.808 63.4277 131.816 63.6575 131.89 63.8699C131.964 64.0823 132.1 64.2673 132.282 64.4003C134.212 65.8303 137.182 66.2903 139.452 67.0303C143.122 68.2203 146.792 69.4303 150.452 70.5903C156.452 72.4603 162.672 74.9003 168.922 75.5903C169.782 75.7003 170.152 74.2903 169.372 73.9403L169.402 74.0203Z" fill="#EC8500"/>
<path d="M143.421 47.2302C141.731 43.2302 139.611 38.5402 135.211 36.9802C130.311 35.2302 123.981 36.9802 119.091 37.8802C117.271 38.1902 118.091 40.8802 119.841 40.6102C123.571 40.0902 127.561 38.9202 131.321 39.0702C137.221 39.3002 138.411 44.1402 141.381 48.0702C142.061 48.9702 143.951 48.4802 143.381 47.2102L143.421 47.2302Z" fill="#EC8500"/>
<path d="M119.411 38.2701C115.101 40.0001 113.641 45.8701 112.181 49.8901C110.091 55.6201 111.991 59.8301 115.481 64.6601C116.93 66.7765 118.922 68.4635 121.248 69.5439C123.575 70.6244 126.149 71.0583 128.701 70.8001C132.091 70.5601 139.061 70.0901 140.301 66.2501C140.371 65.9514 140.334 65.6373 140.195 65.3635C140.057 65.0897 139.826 64.8738 139.543 64.754C139.26 64.6343 138.944 64.6184 138.651 64.7092C138.358 64.8 138.106 64.9916 137.941 65.2501C136.591 67.6901 129.311 68.2501 126.941 68.2501C121.871 68.1501 118.581 65.2501 116.201 61.0201C114.961 58.8401 113.531 56.1801 113.941 53.5901C114.364 52.0823 114.948 50.6241 115.681 49.2401C116.991 45.9601 118.001 42.8601 120.491 40.2401C121.231 39.4701 120.491 37.8401 119.361 38.3001L119.411 38.2701Z" fill="#EC8500"/>
<path d="M137.24 39.2502C134.036 38.4143 130.642 38.6965 127.62 40.0502C124.23 41.7402 123.26 45.8702 121.84 49.1102C118.51 56.7502 120.17 62.8502 124.72 69.7102C124.892 69.9812 125.163 70.175 125.474 70.2508C125.786 70.3266 126.116 70.2784 126.393 70.1166C126.67 69.9547 126.873 69.6916 126.961 69.3827C127.048 69.0738 127.012 68.7431 126.86 68.4602C123.7 62.6602 121.09 57.7402 123.91 51.2102C124.66 49.2914 125.522 47.4182 126.49 45.6002C128.91 41.4302 132.79 41.6002 136.99 41.0902C137.99 40.9602 138.36 39.5202 137.24 39.2502Z" fill="#EC8500"/>
<path d="M84.3819 62.4802C81.1319 61.9202 76.9519 61.4802 74.5919 62.7102C71.9219 64.0402 70.5918 70.3802 69.9218 73.7102C69.2518 77.0402 72.9218 82.7102 75.9218 83.7102C76.4335 83.874 76.9545 84.0076 77.4819 84.1101C76.3135 81.8132 75.668 79.2861 75.5919 76.7102C75.5919 70.3902 79.3519 65.3202 84.3819 62.4802Z" fill="#F5B944"/>
<path d="M81.5918 77.7102C77.3918 71.8302 83.7718 68.7702 89.4818 67.3502C88.9118 65.6302 87.7318 63.1402 85.5918 62.7102L84.3818 62.4802C79.3818 65.3202 75.5918 70.3902 75.5918 76.7102C75.668 79.2861 76.3134 81.8133 77.4818 84.1102C79.8178 84.615 82.2242 84.7064 84.5918 84.3802C85.4123 84.0225 86.1931 83.5801 86.9218 83.0602C84.8118 81.6002 82.6418 80.3502 81.5918 77.7102Z" fill="#E1AB7D"/>
<path d="M124.301 78.5201C123.641 78.7691 123.053 79.178 122.591 79.7101L121.921 80.7101L89.9207 69.0401C89.8087 68.4683 89.6618 67.9039 89.4807 67.3501C83.7707 68.7701 77.3907 71.8301 81.5907 77.7101C82.6407 80.3501 84.8107 81.6001 86.9207 83.0601C87.4907 82.6901 87.9207 82.3801 87.9207 82.3801L118.261 93.3801C118.645 94.4021 119.082 95.4034 119.571 96.3801C118.351 89.9201 120.031 82.7901 124.301 78.5201Z" fill="#F5B944"/>
<path d="M141.922 86.0401C140.513 83.1661 138.596 80.571 136.262 78.3801C136.138 78.2854 136.007 78.1986 135.872 78.1201C130.792 79.2801 127.032 82.8301 124.592 87.7101C124.03 89.97 123.933 92.3207 124.308 94.6192C124.683 96.9177 125.521 99.1159 126.772 101.08C129.442 101.44 132.412 101.71 133.262 101.71C134.592 101.71 138.262 98.3801 139.922 95.7101C141.582 93.0401 143.592 89.3801 141.922 86.0401Z" fill="#F5B944"/>
<path d="M124.59 87.7101C127.03 82.8301 130.79 79.2801 135.87 78.1201C134.896 77.5087 133.81 77.0982 132.674 76.9127C131.539 76.7273 130.379 76.7706 129.26 77.0401C127.545 77.3499 125.868 77.8461 124.26 78.5201C119.99 82.7901 118.31 89.9201 119.53 96.3501C120.42 98.0901 121.65 100.02 122.88 100.35C124.149 100.66 125.434 100.894 126.73 101.05C125.49 99.0869 124.661 96.8924 124.293 94.5995C123.925 92.3066 124.026 89.9628 124.59 87.7101Z" fill="#E1AB7D"/>
<path d="M131.341 78.0101C135.001 79.4601 137.691 80.4501 139.561 84.2201C141.511 88.1701 141.081 89.3601 139.561 93.0901C138.141 96.6201 136.651 99.6401 132.391 100.09C129.601 100.37 127.631 99.6201 126.241 97.2301C125.491 95.9301 124.381 93.4801 125.151 92.0001C125.771 90.8301 123.981 89.7901 123.381 91.0001C121.731 94.2501 124.881 99.6501 127.461 101.64C130.571 104.04 136.081 103.29 138.891 100.64C140.641 98.9601 141.251 96.0701 142.071 93.8701C143.141 91.0201 144.321 89.1301 143.211 86.2401C140.831 80.0201 138.441 77.0501 131.851 76.1601C131.594 76.0898 131.319 76.1246 131.088 76.2568C130.856 76.389 130.687 76.6078 130.616 76.8651C130.546 77.1223 130.581 77.397 130.713 77.6286C130.845 77.8602 131.064 78.0298 131.321 78.1001L131.341 78.0101Z" fill="#EC8500"/>
<path d="M137.022 78.0102C134.162 77.6602 129.142 78.2202 127.182 80.5802C124.887 83.796 123.476 87.5581 123.092 91.4902C123.094 91.7545 123.182 92.0109 123.343 92.2203C123.505 92.4297 123.73 92.5804 123.985 92.6496C124.24 92.7188 124.511 92.7025 124.756 92.6033C125.001 92.5041 125.207 92.3274 125.342 92.1002C126.782 89.2902 127.132 85.8002 128.962 83.1702C130.792 80.5402 134.802 80.9002 137.462 79.6702C138.362 79.2502 137.782 78.1002 137.022 78.0102Z" fill="#EC8500"/>
<path d="M132.221 75.8402C128.961 75.2302 124.141 76.1302 121.681 78.5002C120.607 79.7054 119.851 81.1592 119.481 82.7302C118.439 85.3242 117.612 88 117.011 90.7302C116.801 92.0702 118.621 93.1202 119.371 91.7302C120.951 88.7302 121.521 85.3502 122.801 82.2502C124.271 78.6802 129.041 78.7802 132.221 77.9302C133.221 77.6702 133.311 76.0302 132.221 75.8302V75.8402Z" fill="#EC8500"/>
<path d="M129.971 100.51C127.551 99.8902 123.971 100.27 122.321 98.0502C121.026 96.0539 120.098 93.8425 119.581 91.5202C119.495 91.2605 119.322 91.039 119.09 90.894C118.858 90.7491 118.583 90.6899 118.312 90.7267C118.041 90.7636 117.791 90.8941 117.607 91.0957C117.422 91.2973 117.314 91.5571 117.301 91.8302C117.301 94.5102 119.051 98.1402 120.751 100.19C122.751 102.58 126.751 102.98 129.651 102.93C129.941 102.917 130.218 102.802 130.432 102.605C130.647 102.408 130.785 102.142 130.823 101.854C130.861 101.566 130.797 101.273 130.641 101.027C130.485 100.782 130.248 100.599 129.971 100.51Z" fill="#EC8500"/>
<path d="M122.502 79.8502C117.212 77.3802 111.502 75.5402 106.072 73.4202C100.872 71.4202 95.012 68.2602 89.422 67.5902C87.872 67.4102 87.802 69.6802 89.072 70.1502C94.682 72.1502 100.302 74.1502 105.872 76.3402C110.872 78.3402 116.512 81.3402 121.922 81.9902C123.052 82.1402 123.502 80.3102 122.502 79.8502Z" fill="#EC8500"/>
<path d="M88.5917 67.4901C85.1417 65.0801 81.0717 68.8301 79.7617 71.9001C78.3917 75.1301 79.1417 79.6901 82.7617 80.9701C83.6817 81.2901 84.1817 80.1001 83.6417 79.4701C81.9417 77.5201 81.0217 75.4701 82.1017 72.9001C82.545 71.7714 83.31 70.7978 84.3017 70.1001C85.5117 69.2901 86.7017 69.3801 88.0817 69.2201C88.2814 69.212 88.4733 69.1404 88.6295 69.0159C88.7858 68.8913 88.8983 68.7202 88.9506 68.5273C89.003 68.3345 88.9926 68.13 88.9209 67.9435C88.8491 67.7569 88.7198 67.5981 88.5517 67.4901H88.5917Z" fill="#EC8500"/>
<path d="M119.132 92.7802C113.242 90.0602 107.132 87.7801 101.062 85.3901C97.5486 83.9901 94.0252 82.6168 90.4919 81.2702C88.4919 80.5302 85.7119 78.8602 83.5519 79.2702C83.3695 79.3239 83.2039 79.4237 83.0712 79.5599C82.9384 79.696 82.8428 79.864 82.7936 80.0477C82.7444 80.2314 82.7433 80.4247 82.7902 80.609C82.8372 80.7933 82.9308 80.9624 83.0619 81.1002C84.4719 82.5802 87.4519 83.1001 89.2919 83.7901C92.9619 85.2301 96.6219 86.7202 100.292 88.1602C106.102 90.4402 112.422 93.6502 118.682 94.4002C119.542 94.5002 119.902 93.1002 119.132 92.7402V92.7802Z" fill="#EC8500"/>
<path d="M91.5303 68.8702C90.4703 65.8702 88.7503 62.4802 85.5303 61.4202C81.9703 60.2302 77.5903 61.4202 74.0303 62.0602C72.2103 62.3902 73.0303 65.0602 74.7803 64.7902C77.4103 64.4402 80.5303 63.3802 83.2003 63.6902C86.7703 64.0902 87.6203 67.5702 89.6503 69.9502C89.8257 70.1175 90.0508 70.2234 90.2916 70.2518C90.5323 70.2803 90.7759 70.2299 90.9855 70.1082C91.1952 69.9864 91.3597 69.7999 91.4543 69.5767C91.549 69.3534 91.5686 69.1055 91.5103 68.8702H91.5303Z" fill="#EC8500"/>
<path d="M74.3017 62.4103C71.1517 63.6603 70.0817 67.5203 69.0117 70.5003C67.5317 74.6603 68.5617 77.2503 71.0117 80.8703C73.0117 83.7803 75.5917 85.6803 79.1817 85.8703C82.1817 86.0503 87.8217 85.6203 89.3217 82.6603C89.4644 82.368 89.4914 82.0326 89.3973 81.7212C89.3032 81.4099 89.095 81.1456 88.8143 80.9812C88.5336 80.8168 88.2012 80.7646 87.8836 80.8349C87.5661 80.9052 87.2868 81.0928 87.1017 81.3603C85.7117 83.1803 80.7617 83.4103 78.7717 83.1203C75.6417 82.6603 73.6317 80.6403 72.2717 77.8303C71.6972 76.8436 71.37 75.7326 71.3177 74.5921C71.2655 73.4516 71.4899 72.3153 71.9717 71.2803C72.9717 68.8503 73.7317 66.3603 75.4417 64.2803C76.1017 63.4903 75.5017 61.8603 74.3117 62.3403L74.3017 62.4103Z" fill="#EC8500"/>
<path d="M86.9513 63.1101C82.0913 61.5101 78.4513 63.7601 76.5913 68.1101C75.4013 70.9101 74.0013 73.4901 74.3113 76.6101C74.6213 79.7301 76.2113 82.4701 77.8513 84.9201C78.0313 85.1777 78.3017 85.358 78.6087 85.4251C78.9157 85.4922 79.2367 85.4413 79.5078 85.2824C79.7789 85.1235 79.9802 84.8684 80.0717 84.5677C80.1631 84.2671 80.138 83.9431 80.0013 83.6601C78.9513 81.7401 77.6113 79.8301 77.1913 77.6601C76.6013 74.5601 77.6113 72.7301 78.8313 70.0601C79.7413 68.0601 80.0313 66.7001 82.3213 65.7501C83.7413 65.1601 85.4413 65.2701 86.9513 64.9401C87.1231 64.8594 87.2683 64.7314 87.3701 64.5711C87.4718 64.4109 87.5259 64.2249 87.5259 64.0351C87.5259 63.8453 87.4718 63.6594 87.3701 63.4991C87.2683 63.3389 87.1231 63.2109 86.9513 63.1301V63.1101Z" fill="#EC8500"/>
</svg>
