<svg width="138" height="160" viewBox="0 0 138 160" fill="none" xmlns="http://www.w3.org/2000/svg">
<path d="M38.3169 53.7229L32.513 58.1211L27.0627 43.1885L19.9458 45.8821C19.9458 45.8821 22.9213 63.201 23.9735 66.7195C24.9331 69.9181 29.3144 73.0326 33.279 72.477C37.2436 71.9215 45.5391 64.1143 45.5391 64.1143L38.3169 53.7229Z" fill="#FFBF9D"/>
<path d="M21.0242 52.4309C21.0242 52.4309 20.1825 46.5386 19.5764 44.2238C19.0966 42.3468 19.5049 39.6405 19.5049 39.6405C19.5049 39.6405 18.4695 37.1153 20.8643 36.4419C20.8643 36.4419 21.1884 35.8148 22.7624 35.7433C22.7624 35.7433 22.7161 35.1667 24.004 34.8468C24.1951 34.7988 24.3964 34.8106 24.5806 34.8805L25.0604 35.0656C25.2276 34.727 25.4792 34.4371 25.7911 34.2241C26.1029 34.011 26.4644 33.8819 26.8407 33.8493C28.5537 33.803 28.419 34.5522 29.0166 35.6885C29.6142 36.8249 30.3592 40.0572 30.2792 41.3745C30.1993 42.6919 28.5957 43.8366 28.4611 45.8484C28.3264 47.8602 29.2018 51.9048 29.2018 51.9048L21.0242 52.4309Z" fill="#FFBF9D"/>
<path d="M18.0538 36.7626L31.2031 35.6238L31.6022 40.2319L18.4529 41.3708L18.0538 36.7626Z" fill="#1AB1D2"/>
<path d="M36.9753 42.6372L32.9981 42.9823C32.856 42.994 32.715 42.9494 32.6055 42.8581C32.4961 42.7667 32.4269 42.636 32.413 42.4941L31.6008 33.096C31.5891 32.9532 31.6343 32.8117 31.7265 32.7021C31.8187 32.5925 31.9505 32.5238 32.0932 32.511L36.0704 32.1659C36.2127 32.1542 36.3538 32.1995 36.4627 32.2919C36.5716 32.3842 36.6394 32.516 36.6512 32.6583C37.3774 35.7349 37.6524 38.9007 37.4677 42.0564C37.4794 42.1987 37.434 42.3398 37.3417 42.4487C37.2494 42.5576 37.1176 42.6254 36.9753 42.6372Z" fill="#1AB1D2"/>
<path d="M30.1651 35.7812C30.2366 35.7812 31.6339 35.0825 31.5918 33.0203L35.4891 33.5169L36.2383 42.1574L32.4125 42.5025C32.4125 42.5025 32.0548 40.5834 31.0784 40.2887L29.4201 37.734L30.1651 35.7812Z" fill="#1AB1D2"/>
<path d="M31.5926 33.0118C31.6255 33.2542 31.6833 33.4926 31.7651 33.7231C31.8914 34.1692 32.0808 34.8048 32.3165 35.5539V35.5329C32.3628 36.181 32.4175 36.9302 32.4596 37.7256C32.5227 38.9504 32.6068 40.0783 32.6994 40.9116V40.8906C32.6111 41.3914 32.5437 41.7955 32.5016 42.0775C32.4696 42.2239 32.4555 42.3737 32.4596 42.5236C32.5229 42.3902 32.5668 42.2485 32.59 42.1027C32.6616 41.8249 32.7499 41.4209 32.8594 40.9285V40.9032C32.8005 40.0615 32.7373 38.9462 32.6742 37.7172C32.6321 36.9218 32.569 36.1684 32.5058 35.5202V35.4992C32.2533 34.7543 32.0387 34.1272 31.8787 33.6937C31.8097 33.4562 31.7137 33.2274 31.5926 33.0118Z" fill="#263238"/>
<path d="M32.4058 35.5243C33.1997 35.564 33.9957 35.5316 34.7837 35.4275C35.5776 35.3972 36.3668 35.2915 37.1406 35.1119C35.5527 35.1058 33.9677 35.2467 32.4058 35.5328V35.5243Z" fill="#263238"/>
<path d="M32.7771 40.9074C34.4179 40.9106 36.0557 40.7698 37.6719 40.4865C36.8512 40.4496 36.0289 40.4834 35.214 40.5875C34.3936 40.6197 33.578 40.7267 32.7771 40.9074Z" fill="#263238"/>
<path d="M12.2721 34.3166L16.2493 33.9714C16.3914 33.9597 16.5324 34.0043 16.6419 34.0957C16.7513 34.187 16.8204 34.3178 16.8343 34.4597L17.6466 43.8578C17.6583 44.0005 17.6131 44.1421 17.5209 44.2517C17.4286 44.3612 17.2968 44.4299 17.1542 44.4428L13.177 44.7879C13.0347 44.7995 12.8935 44.7542 12.7846 44.6619C12.6757 44.5695 12.6079 44.4378 12.5961 44.2955C11.87 41.2189 11.595 38.0531 11.7797 34.8974C11.768 34.7551 11.8133 34.614 11.9057 34.5051C11.998 34.3962 12.1298 34.3284 12.2721 34.3166Z" fill="#1AB1D2"/>
<path d="M19.0832 41.1809C19.0116 41.1809 17.6143 41.8796 17.6564 43.9419L13.7591 43.4452L13.0142 34.8047L16.8357 34.4596C16.8357 34.4596 17.2566 36.4587 18.2204 36.7534L19.8281 39.2281L19.0832 41.1809Z" fill="#1AB1D2"/>
<path d="M17.6562 43.942C17.626 43.6991 17.5681 43.4604 17.4837 43.2307C17.3574 42.7846 17.168 42.149 16.9323 41.3999V41.4209C16.8861 40.7728 16.8313 40.0236 16.7893 39.2282C16.7261 38.0034 16.6419 36.8755 16.5494 36.0422C16.6377 35.5413 16.7051 35.1373 16.7472 34.8553C16.7819 34.7093 16.7961 34.5591 16.7893 34.4092C16.7259 34.5425 16.682 34.6843 16.6588 34.8301C16.5872 35.1078 16.4988 35.5119 16.3894 36.0085V36.0295C16.4483 36.8713 16.5115 37.9866 16.5746 39.2156C16.6167 40.0152 16.6798 40.7644 16.743 41.4125V41.4335C16.9955 42.1785 17.2101 42.8056 17.3701 43.2391C17.4375 43.4838 17.5336 43.7197 17.6562 43.942Z" fill="#263238"/>
<path d="M16.8398 41.4292C16.0459 41.3896 15.25 41.422 14.4619 41.526C13.6681 41.5569 12.879 41.6625 12.105 41.8417C13.6929 41.8477 15.2779 41.7068 16.8398 41.4208V41.4292Z" fill="#263238"/>
<path d="M16.4688 36.0463C14.828 36.0431 13.1901 36.184 11.574 36.4672C12.3947 36.5041 13.217 36.4703 14.0319 36.3662C14.8522 36.3341 15.6679 36.227 16.4688 36.0463Z" fill="#263238"/>
<path d="M29.9465 42.1616C30.4894 41.5976 30.4726 40.718 30.3674 39.9436C30.1233 37.9444 30.1022 35.798 29.2563 33.9672C28.6376 33.6726 27.8127 34.1945 27.5012 35.053C27.1898 35.9116 27.5307 37.5488 27.5812 38.6683C25.7841 39.1566 23.7933 40.9495 23.5534 42.7929" fill="#FFBF9D"/>
<path d="M23.5604 42.7929C23.693 42.2514 23.9164 41.7362 24.2212 41.2694C24.5679 40.7466 24.9939 40.2808 25.4838 39.8889C26.1013 39.3748 26.8174 38.9924 27.5882 38.7652L27.6681 38.7441V38.6642C27.6387 38.0244 27.5419 37.3595 27.4913 36.6692C27.4408 35.979 27.3945 35.2341 27.8196 34.649C27.9765 34.4132 28.1928 34.223 28.4467 34.0977C28.5608 34.0352 28.6879 34.0001 28.8179 33.9949C28.9478 33.9898 29.0772 34.0149 29.1959 34.0682L29.1454 34.0135C29.5829 35.0307 29.8665 36.1073 29.9871 37.2079C30.1134 38.2138 30.1891 39.1187 30.2902 39.8679C30.41 40.4418 30.3927 41.0359 30.2397 41.6019C30.1648 41.8006 30.0643 41.9888 29.9408 42.1616C29.9408 42.1616 29.9913 42.128 30.0671 42.048C30.1699 41.9205 30.2536 41.7787 30.3154 41.6271C30.5005 41.0524 30.541 40.4409 30.4333 39.8468C30.3491 39.0977 30.2902 38.1928 30.1723 37.1827C30.0694 36.0604 29.7955 34.9604 29.36 33.9209V33.8831H29.3264C29.1773 33.8192 29.016 33.7887 28.8538 33.7938C28.6917 33.7988 28.5326 33.8394 28.3878 33.9125C28.0986 34.0535 27.8518 34.2684 27.6723 34.5354C27.453 34.8556 27.3249 35.2296 27.302 35.617C27.2724 35.977 27.2724 36.3387 27.302 36.6987C27.3525 37.3973 27.4535 38.0623 27.4871 38.6852L27.5629 38.5842C26.7647 38.8253 26.0252 39.2295 25.3912 39.7711C24.894 40.1813 24.4674 40.6704 24.1286 41.2189C23.902 41.5725 23.7343 41.9605 23.6319 42.3679C23.6039 42.4742 23.5842 42.5825 23.573 42.6919C23.5562 42.7551 23.552 42.7929 23.5604 42.7929Z" fill="#FF9A6C"/>
<path d="M20.9077 38.3863C20.8062 38.5708 20.6619 38.7281 20.4868 38.8451C20.4034 38.9036 20.3079 38.9427 20.2074 38.9594C20.1069 38.9762 20.0039 38.9702 19.906 38.9419C19.7774 38.8769 19.6642 38.785 19.5742 38.6725C19.4841 38.5599 19.4193 38.4293 19.3842 38.2895C19.254 37.972 19.1786 37.6348 19.1611 37.2921C19.1433 36.9475 19.2444 36.6073 19.4473 36.3283C19.5516 36.1927 19.6885 36.0858 19.8452 36.0174C20.0019 35.9489 20.1734 35.9212 20.3437 35.9369C20.5139 35.9609 20.671 36.0417 20.7894 36.1662C20.9079 36.2908 20.9807 36.4517 20.9961 36.6229" fill="#FFBF9D"/>
<path d="M21.0183 36.6228C21.0183 36.6228 21.0562 36.5303 21.0183 36.3703C20.9764 36.2585 20.9101 36.1574 20.8242 36.0744C20.7383 35.9914 20.6349 35.9286 20.5217 35.8905C20.3483 35.8402 20.1647 35.8367 19.9895 35.8803C19.8143 35.9239 19.6538 36.0131 19.5242 36.1388C19.3749 36.2944 19.2601 36.4799 19.1876 36.683C19.1151 36.8861 19.0863 37.1023 19.1034 37.3173C19.1308 37.7328 19.2395 38.1389 19.4232 38.5126C19.503 38.6821 19.6265 38.8274 19.781 38.9334C19.8554 38.9801 19.9385 39.0112 20.0253 39.025C20.1121 39.0387 20.2008 39.0348 20.286 39.0134C20.5168 38.9487 20.7141 38.7981 20.8373 38.5925C20.9257 38.4536 20.951 38.3695 20.9384 38.3611C20.9257 38.3526 20.871 38.4242 20.77 38.5378C20.6395 38.6981 20.4585 38.8094 20.2565 38.8535C20.1922 38.8662 20.126 38.8661 20.0617 38.8531C19.9974 38.8401 19.9363 38.8145 19.882 38.7777C19.7581 38.6777 19.6623 38.5472 19.6042 38.3989C19.4445 38.0469 19.349 37.6692 19.3222 37.2836C19.3077 37.098 19.3316 36.9114 19.3925 36.7354C19.4533 36.5595 19.5497 36.3979 19.6757 36.2609C19.7792 36.1543 19.9079 36.0756 20.0499 36.0322C20.192 35.9888 20.3427 35.982 20.488 36.0126C20.5862 36.0399 20.6779 36.0863 20.7581 36.1491C20.8383 36.212 20.9052 36.29 20.9552 36.3787C20.9931 36.5345 21.0015 36.6228 21.0183 36.6228Z" fill="#FF9A6C"/>
<path d="M20.9405 36.3451C20.7671 36.9013 20.741 37.493 20.8648 38.0623C20.9272 38.3336 21.0511 38.587 21.2267 38.803C21.3136 38.9116 21.4247 38.9982 21.5512 39.0559C21.6776 39.1137 21.8159 39.1409 21.9548 39.1355C22.0932 39.1266 22.2242 39.0696 22.3249 38.9743C22.4256 38.8789 22.4897 38.7513 22.5062 38.6136L22.8008 36.0884" fill="#FFBF9D"/>
<path d="M22.8007 36.0927C22.6986 36.4095 22.6336 36.7372 22.6071 37.0691C22.5608 37.4016 22.5146 37.7551 22.4598 38.1381L22.422 38.4453L22.4009 38.6053C22.3977 38.6486 22.3877 38.6912 22.3715 38.7315C22.3317 38.8162 22.2694 38.8885 22.1916 38.9404C22.1137 38.9923 22.0231 39.022 21.9295 39.0261C21.8296 39.0288 21.7301 39.0116 21.6369 38.9755C21.5437 38.9394 21.4586 38.885 21.3866 38.8157C21.2445 38.68 21.1338 38.5148 21.0625 38.3317C20.9313 38.0111 20.864 37.668 20.8647 37.3216C20.8661 36.9947 20.8914 36.6684 20.9405 36.3452C20.7701 36.6396 20.691 36.978 20.7132 37.3174C20.6888 37.6883 20.7447 38.0602 20.8773 38.4075C20.9529 38.6231 21.0783 38.8178 21.2435 38.9756C21.3358 39.0653 21.4453 39.1353 21.5654 39.1816C21.6854 39.2279 21.8136 39.2494 21.9422 39.245C22.0754 39.2398 22.2046 39.1977 22.3154 39.1234C22.4261 39.0491 22.514 38.9455 22.5693 38.8241C22.5952 38.7628 22.6095 38.6971 22.6113 38.6305L22.6324 38.4706C22.6324 38.3654 22.6534 38.2644 22.6619 38.1633C22.6997 37.7804 22.7292 37.4268 22.7629 37.0943C22.812 36.7628 22.8247 36.4269 22.8007 36.0927Z" fill="#FF9A6C"/>
<path d="M25.207 35.1204C25.1692 35.922 25.0175 36.7141 24.7567 37.473C24.6508 37.8177 24.4902 38.1431 24.2811 38.4368C24.0712 38.7325 23.7645 38.9454 23.4141 39.0387C23.319 39.0671 23.2189 39.0755 23.1204 39.0632C23.0218 39.0508 22.9269 39.0181 22.8417 38.9671C22.7481 38.8903 22.6733 38.7931 22.623 38.683C22.5727 38.5728 22.5482 38.4527 22.5513 38.3316C22.516 37.3387 22.6673 36.3479 22.9974 35.4108" fill="#FFBF9D"/>
<path d="M22.9962 35.4108C22.9307 35.51 22.8823 35.6195 22.8532 35.7348C22.7454 36.0344 22.6582 36.3409 22.5922 36.6523C22.4903 37.1168 22.4395 37.591 22.4407 38.0665C22.4126 38.3611 22.4821 38.6569 22.6385 38.9082C22.6927 38.9767 22.7602 39.0336 22.8368 39.0755C22.9134 39.1175 22.9977 39.1436 23.0846 39.1523C23.2528 39.1699 23.4228 39.1483 23.5813 39.0892C23.8591 38.9667 24.1072 38.7856 24.3084 38.5582C24.5097 38.3308 24.6593 38.0625 24.7471 37.7719C24.9128 37.3281 25.0381 36.8703 25.1217 36.404C25.1798 36.09 25.2136 35.772 25.2227 35.4528C25.2435 35.3373 25.2435 35.219 25.2227 35.1035C25.1848 35.1035 25.1595 35.5959 24.987 36.3661C24.882 36.8185 24.7412 37.2618 24.5661 37.6919C24.4828 37.952 24.3462 38.1918 24.1651 38.3962C23.9839 38.6005 23.7621 38.7649 23.5139 38.8787C23.4007 38.9359 23.2723 38.9561 23.147 38.9365C23.0216 38.9169 22.9056 38.8584 22.8153 38.7693C22.6822 38.5512 22.6246 38.2953 22.6511 38.0412C22.6421 37.5789 22.6759 37.1168 22.7521 36.6607C22.891 35.899 23.0299 35.4234 22.9962 35.4108Z" fill="#FF9A6C"/>
<path d="M27.3711 34.7584C27.3303 35.5972 27.1716 36.426 26.8997 37.2205C26.7884 37.58 26.6207 37.9195 26.4031 38.2264C26.1829 38.5345 25.8634 38.7574 25.4982 38.8577C25.3982 38.8878 25.2929 38.8965 25.1893 38.8835C25.0856 38.8704 24.9858 38.8359 24.8964 38.782C24.7984 38.7014 24.7198 38.5998 24.6666 38.4847C24.6134 38.3695 24.5869 38.2438 24.5891 38.117C24.5537 37.0793 24.7136 36.0443 25.0605 35.0657" fill="#FFBF9D"/>
<path d="M25.0616 35.0657C25.0616 35.0657 24.99 35.1793 24.9101 35.3981C24.7987 35.713 24.7088 36.035 24.6407 36.3619C24.5355 36.8474 24.4819 37.3425 24.4808 37.8392C24.4473 38.1532 24.5215 38.4693 24.6912 38.7357C24.7471 38.8071 24.817 38.8664 24.8966 38.9098C24.9762 38.9532 25.0639 38.9799 25.1542 38.9882C25.3282 39.0065 25.5042 38.9834 25.6676 38.9209C25.9574 38.7935 26.2161 38.6049 26.4261 38.3681C26.636 38.1312 26.7922 37.8517 26.8839 37.5488C27.0604 37.0853 27.1928 36.6062 27.2796 36.1178C27.3399 35.7898 27.3765 35.4579 27.389 35.1246C27.4068 35.0032 27.4068 34.8798 27.389 34.7584C27.3511 34.7584 27.3259 35.2761 27.1449 36.0842C27.0406 36.5573 26.8999 37.0216 26.724 37.4731C26.6368 37.7454 26.4936 37.9965 26.3037 38.2103C26.1139 38.424 25.8814 38.5958 25.6213 38.7146C25.5014 38.7754 25.3656 38.797 25.2327 38.7767C25.0999 38.7563 24.9768 38.6949 24.8806 38.601C24.7447 38.3698 24.6844 38.1021 24.708 37.835C24.7017 37.3501 24.7383 36.8656 24.8175 36.3872C24.9311 35.5707 25.0952 35.0741 25.0616 35.0657Z" fill="#FF9A6C"/>
<path d="M93.5297 20.0362C92.3681 19.6154 91.0423 19.8931 89.7881 19.7795C87.4396 19.5649 85.5205 17.9192 84.3841 16.0632C83.2477 14.2071 82.7006 12.107 81.9262 10.1162C81.1518 8.12552 80.6383 6.32839 78.635 4.69961C75.1038 1.85451 69.1232 2.64996 68.9549 6.60196L71.3749 9.81322C69.9074 15.2062 70.3949 20.9445 72.7512 26.0126C73.2183 27.0185 73.8202 28.0623 74.885 28.5968C75.9498 29.1313 77.5828 28.8619 77.97 27.8266C79.321 29.1902 80.7225 30.5707 82.5196 31.4209C84.3168 32.271 86.6231 32.4857 88.3319 31.505C90.0406 30.5244 90.7014 28.138 89.3209 26.7997C91.3706 26.8796 93.5886 26.2567 94.7334 24.7332C95.8781 23.2096 95.4236 20.7433 93.5297 20.0362Z" fill="#263238"/>
<path d="M66.9984 4.75856C67.5919 4.102 69.4521 3.59695 70.3149 3.79897C71.1778 4.03494 71.9357 4.5555 72.4656 5.27623C72.9952 5.99099 73.4203 6.77749 73.7282 7.61208C74.1196 8.58851 74.4563 9.71645 73.9976 10.6676C73.5767 11.543 72.6003 11.9934 71.6659 12.2669C71.144 12.4185 70.4748 12.49 70.1424 12.0565C70.0108 11.8472 69.9327 11.6087 69.9151 11.3621C69.5032 8.95377 68.5012 6.68502 66.9984 4.75856Z" fill="#1AB1D2"/>
<path d="M56.9264 0.137419C60.0829 -0.409716 62.8607 0.793983 65.529 2.56586C68.2432 4.45703 70.3167 7.13041 71.4731 10.2298C72.6296 13.3292 72.8141 16.7074 72.0021 19.9143C71.5517 21.5445 70.7758 23.0667 69.7211 24.3889C68.6665 25.7112 67.355 26.8062 65.8657 27.6078C61.7664 29.7122 56.5097 29.0009 52.8187 26.2358C49.1276 23.4706 47.0148 18.8873 46.8212 14.283C46.6442 11.0898 47.4745 7.92165 49.1949 5.22578C50.0639 3.89279 51.198 2.75305 52.5267 1.87762C53.8555 1.00218 55.3503 0.409809 56.918 0.137419" fill="#263238"/>
<path d="M65.9468 10.8402C65.4796 9.63232 65.6564 8.28552 65.467 7.00607C65.0461 4.18622 64.0023 1.63152 61.3719 0.545665C58.9224 -0.468639 54.7137 0.070079 51.7718 1.02967C49.7297 1.65736 47.909 2.8546 46.5235 4.48083C45.641 5.58264 45.0354 6.87979 44.7571 8.26372C44.4789 9.64765 44.5361 11.0781 44.9242 12.4353L59.3391 10.2805C60.6943 11.3958 62.079 12.5237 63.7204 13.1424C64.194 13.3492 64.7129 13.4304 65.2271 13.3781C65.483 13.3461 65.7244 13.2415 65.9228 13.0767C66.1212 12.9119 66.2683 12.6937 66.3466 12.448C66.4729 11.9008 66.1488 11.3705 65.9468 10.8402Z" fill="#263238"/>
<path d="M66.2425 37.1785L66.293 9.92696C66.2784 9.33822 66.044 8.77627 65.6358 8.35174C65.2276 7.92721 64.6753 7.67088 64.0876 7.6332L51.4867 5.01537C47.4757 4.76284 45.0305 9.79228 44.9505 13.8074C44.8579 18.2729 44.921 23.7274 45.5902 27.027C46.937 33.66 52.0927 34.2913 52.0927 34.2913C52.0927 34.2913 52.0927 34.548 52.2316 36.9723C52.2316 36.9723 52.4084 41.9891 58.0228 41.4083C61.6718 41.0337 66.2425 37.1785 66.2425 37.1785Z" fill="#FFBF9D"/>
<path d="M46.8033 19.6281C46.8032 19.7404 46.8257 19.8516 46.8693 19.9551C46.9129 20.0587 46.9768 20.1524 47.0572 20.2308C47.1376 20.3093 47.2329 20.3709 47.3375 20.4119C47.442 20.4529 47.5538 20.4726 47.6661 20.4698C47.8843 20.47 48.0941 20.3853 48.2511 20.2338C48.4081 20.0822 48.5002 19.8756 48.5078 19.6575C48.5023 19.4324 48.409 19.2183 48.2478 19.061C48.0866 18.9037 47.8703 18.8157 47.645 18.8158C47.4268 18.8157 47.217 18.9003 47.06 19.0518C46.903 19.2034 46.8109 19.41 46.8033 19.6281Z" fill="#263238"/>
<path d="M46.2516 16.1937C46.3652 16.2989 46.9923 15.7728 47.914 15.7728C48.8358 15.7728 49.5302 16.1685 49.627 16.0506C49.6733 15.9959 49.5554 15.8023 49.2524 15.6003C48.8429 15.3384 48.3615 15.2118 47.8761 15.2383C47.3963 15.257 46.9349 15.428 46.5588 15.7265C46.2853 15.937 46.2011 16.1432 46.2516 16.1937Z" fill="#263238"/>
<path d="M54.8775 19.0135C54.8775 19.1259 54.8999 19.2371 54.9435 19.3406C54.9871 19.4441 55.051 19.5379 55.1314 19.6163C55.2118 19.6948 55.3071 19.7563 55.4117 19.7974C55.5163 19.8384 55.628 19.8581 55.7403 19.8553C55.9578 19.8555 56.167 19.7714 56.3239 19.6208C56.4808 19.4701 56.5733 19.2646 56.582 19.0472C56.5821 18.9349 56.5596 18.8237 56.516 18.7202C56.4724 18.6166 56.4085 18.5229 56.3281 18.4444C56.2477 18.366 56.1524 18.3044 56.0478 18.2634C55.9433 18.2224 55.8315 18.2027 55.7192 18.2055C55.6106 18.2021 55.5024 18.2205 55.401 18.2594C55.2995 18.2984 55.2069 18.3573 55.1285 18.4326C55.0501 18.5078 54.9875 18.598 54.9444 18.6977C54.9013 18.7975 54.8786 18.9049 54.8775 19.0135Z" fill="#263238"/>
<path d="M55.0894 15.8991C55.1989 16.0085 55.8302 15.4782 56.7519 15.4782C57.6736 15.4782 58.368 15.8739 58.4648 15.7602C58.5616 15.6466 58.3933 15.5077 58.0903 15.3057C57.6799 15.046 57.1988 14.921 56.714 14.9479C56.2345 14.9645 55.7728 15.1341 55.3967 15.4319C55.1231 15.6466 55.0347 15.8528 55.0894 15.8991Z" fill="#263238"/>
<path d="M52.2552 23.357C51.7622 23.2251 51.2546 23.1558 50.7443 23.1508C50.5086 23.1508 50.2856 23.1003 50.2393 22.9403C50.209 22.6987 50.2531 22.4535 50.3655 22.2375L50.9842 20.4151C51.826 17.8225 52.4531 15.6929 52.3478 15.6592C52.2426 15.6255 51.464 17.7005 50.6054 20.2888C50.3992 20.9286 50.1846 21.5514 50.0162 22.1196C49.8809 22.4105 49.8512 22.7393 49.932 23.0498C49.9722 23.1332 50.0311 23.2062 50.1041 23.2631C50.1771 23.32 50.2622 23.3594 50.3529 23.378C50.4912 23.4072 50.6325 23.42 50.7738 23.4159C51.2682 23.4553 51.7655 23.4355 52.2552 23.357Z" fill="#263238"/>
<path d="M52.0835 34.2913C55.229 34.2064 58.2889 33.249 60.9219 31.5261C60.9219 31.5261 58.8722 36.2441 52.1593 35.9032L52.0835 34.2913Z" fill="#FF9A6C"/>
<path d="M52.7395 25.5623C52.9052 25.3332 53.1268 25.1503 53.3831 25.031C53.6395 24.9117 53.9221 24.8599 54.2041 24.8805C54.408 24.8904 54.6077 24.9413 54.7914 25.0302C54.9751 25.1192 55.139 25.2444 55.2731 25.3982C55.4028 25.5463 55.484 25.7306 55.5058 25.9262C55.5276 26.1218 55.489 26.3194 55.3952 26.4925C55.2546 26.6649 55.0656 26.7912 54.8525 26.855C54.6394 26.9187 54.412 26.9171 54.1999 26.8502C53.7567 26.7151 53.3447 26.4934 52.9878 26.1979C52.8819 26.1277 52.7893 26.0393 52.7142 25.9369C52.6805 25.8864 52.6626 25.8271 52.6626 25.7665C52.6626 25.7058 52.6805 25.6465 52.7142 25.596" fill="#FF9A6C"/>
<path d="M54.9972 23.8789C54.8457 23.8789 54.8878 24.8763 54.0629 25.6255C53.238 26.3746 52.1647 26.3073 52.1647 26.4462C52.1647 26.5093 52.4089 26.6314 52.8592 26.623C53.4448 26.6043 54.0057 26.3826 54.4459 25.9959C54.8657 25.6205 55.1237 25.097 55.1656 24.5354C55.1866 24.1146 55.0646 23.8705 54.9972 23.8789Z" fill="#263238"/>
<path d="M55.5139 12.2123C55.6149 12.4606 56.5282 12.3049 57.6183 12.389C58.7083 12.4732 59.5922 12.7299 59.7226 12.4985C59.7816 12.389 59.6174 12.1576 59.2555 11.9303C58.7721 11.6517 58.2314 11.4875 57.6748 11.4503C57.1181 11.4131 56.5603 11.5038 56.0442 11.7156C55.6612 11.9008 55.4676 12.1071 55.5139 12.2123Z" fill="#263238"/>
<path d="M46.3374 12.549C46.5057 12.7511 47.1328 12.507 47.8946 12.4649C48.6564 12.4228 49.313 12.5448 49.4518 12.3218C49.515 12.2123 49.4013 12.0061 49.1109 11.8209C48.72 11.5951 48.2701 11.4919 47.8198 11.525C47.3695 11.558 46.9395 11.7256 46.5857 12.0061C46.3416 12.2123 46.2616 12.4522 46.3374 12.549Z" fill="#263238"/>
<path d="M64.8637 21.1979C64.8637 20.7013 65.3687 19.5144 65.8569 19.405C67.1616 19.1483 69.5312 19.1525 69.6953 22.4816C69.9184 27.0354 65.3014 26.3199 65.2888 26.1895C65.2761 26.059 64.9352 22.9151 64.8637 21.1979Z" fill="#FFBF9D"/>
<path d="M66.5925 24.4176C66.5925 24.4176 66.6725 24.4681 66.8114 24.5228C67.0016 24.6002 67.2146 24.6002 67.4048 24.5228C67.8762 24.325 68.2466 23.5422 68.2255 22.7172C68.2184 22.3266 68.1234 21.9425 67.9478 21.5935C67.8979 21.4537 67.8148 21.3281 67.7055 21.2276C67.5963 21.1271 67.4642 21.0548 67.3207 21.0169C67.2287 20.9962 67.1324 21.009 67.0491 21.053C66.9658 21.097 66.9009 21.1692 66.8661 21.2568C66.8114 21.3873 66.8409 21.4757 66.8198 21.4841C66.7988 21.4925 66.7188 21.4125 66.7441 21.2231C66.765 21.1096 66.8226 21.0061 66.9082 20.9285C67.0265 20.8318 67.1764 20.7824 67.3291 20.7896C67.514 20.8208 67.688 20.8981 67.8351 21.0143C67.9823 21.1305 68.0977 21.282 68.1708 21.4546C68.3861 21.8412 68.5032 22.2748 68.5117 22.7172C68.5117 23.6347 68.0909 24.5144 67.4511 24.7374C67.3307 24.7799 67.2021 24.7944 67.0753 24.7798C66.9484 24.7652 66.8265 24.7219 66.7188 24.6533C66.6052 24.5059 66.5757 24.4176 66.5925 24.4176Z" fill="#FF9A6C"/>
<path d="M48.5672 4.8133C48.7272 4.20724 49.4932 4.03048 50.1203 3.97156C54.611 3.70641 59.0765 4.75859 63.3694 6.10538C64.8214 6.55993 66.3155 7.0776 67.4308 8.10874C68.9333 9.4892 69.5352 11.6315 69.5352 13.6727C69.4787 15.6118 69.1311 17.5313 68.504 19.3671H66.6438C65.9992 19.8685 65.4196 20.4482 64.9182 21.0927C64.4135 21.7429 64.1676 22.5571 64.2279 23.378C64.329 24.2661 64.9055 25.091 64.7961 25.9748C64.7119 26.6061 64.4763 28.3948 63.9544 28.761L63.8365 26.7871C63.5959 25.7825 63.2162 24.8164 62.7086 23.9167C62.132 23.0329 61.8668 21.1684 62.2456 20.1836C62.6244 19.1988 62.8054 19.1651 63.5082 18.3654C64.2574 17.4858 64.2911 16.5557 63.9291 15.4698C63.462 14.1483 62.4308 13.7863 61.4502 12.7931C60.4022 11.7282 60.5327 10.0111 60.7347 8.53382C56.9276 8.81903 53.1149 8.05939 49.7078 6.33686C49.0681 6.01279 48.3821 5.47828 48.5672 4.8133Z" fill="#263238"/>
<path d="M69.6541 24.5818C69.6541 24.5818 69.7046 24.5481 69.7762 24.4681C69.8477 24.3882 69.9529 24.2619 70.0792 24.0978C70.4305 23.6317 70.743 23.1376 71.0135 22.6205C71.4239 21.8546 71.7526 21.0477 71.9942 20.2131C72.2743 19.1858 72.4159 18.1256 72.415 17.0608C72.4452 15.1342 72.2431 13.2109 71.8132 11.3327C71.6797 10.7593 71.5039 10.1966 71.2871 9.64918C71.2113 9.45558 71.1314 9.31669 71.0851 9.2283C71.0636 9.17702 71.0353 9.12888 71.0009 9.08521C71.0562 9.29018 71.1251 9.49125 71.2071 9.68705C71.3894 10.2395 71.5411 10.8015 71.6617 11.3705C72.0434 13.2426 72.2226 15.1503 72.1962 17.0608C72.197 18.1073 72.0641 19.1497 71.8006 20.1626C71.5692 20.9867 71.2606 21.7871 70.8788 22.5532C70.6217 23.0725 70.3306 23.5744 70.0076 24.0557C69.8794 24.2238 69.7613 24.3995 69.6541 24.5818Z" fill="#455A64"/>
<path d="M70.6126 79.249C70.6126 79.249 82.7295 88.3904 76.5259 105.865L84.1647 135.326C89.0132 134.787 93.5418 134.375 97.1318 134.337C97.1318 134.337 99.2362 146.046 95.8229 150.187C95.8229 150.187 83.828 150.667 76.6479 150.877C68.9712 151.101 62.2288 140.402 57.9906 131.362C53.7524 122.321 48.6641 108.445 46.3072 104.741C43.9503 101.038 39.2786 90.6926 39.2786 90.6926L70.6126 79.249Z" fill="#263238"/>
<path d="M51.2188 111.808C50.8821 111.808 45.6674 114.724 36.4461 112.919C27.2248 111.113 20.1036 109.434 20.1036 109.434C20.474 109.649 22.5362 113.369 23.2012 116.77L7.40584 118.272C7.40584 118.272 4.42606 106.315 3.80316 100.991C3.18027 95.6672 7.17016 90.7977 13.2644 90.0275C19.3586 89.2573 38.3947 85.8608 38.3947 85.8608L46.6312 97.0266L51.2188 111.808Z" fill="#263238"/>
<path d="M24.9648 142.717C24.9648 142.717 24.3883 131.395 24.3798 127.245C24.3588 120.394 23.2014 116.782 23.2014 116.782L7.40601 118.272L14.6829 143.735C15.0533 144.051 24.9648 142.717 24.9648 142.717Z" fill="#FFBF9D"/>
<path d="M11.6473 103.205C11.6979 103.342 11.7673 103.471 11.8535 103.588C12.0575 103.926 12.2869 104.248 12.5396 104.552C13.3771 105.551 14.3487 106.429 15.4267 107.161C16.4975 107.903 17.6395 108.536 18.8358 109.051C19.2946 109.249 19.6776 109.388 19.9385 109.472C20.0739 109.526 20.2151 109.564 20.3594 109.586C20.3594 109.552 19.7996 109.329 18.9032 108.904C17.7388 108.352 16.62 107.709 15.5572 106.98C14.4962 106.255 13.5244 105.408 12.6616 104.455C12.005 103.71 11.681 103.184 11.6473 103.205Z" fill="#455A64"/>
<path d="M42.6704 97.1487C42.721 97.3273 42.7886 97.5007 42.8724 97.6664L43.4953 99.0468C44.0424 100.251 44.7579 101.837 45.5491 103.592C46.3404 105.347 47.018 106.959 47.5441 108.167L48.1501 109.556C48.214 109.73 48.2973 109.897 48.3984 110.053C48.3597 109.871 48.3033 109.693 48.2301 109.522C48.108 109.186 47.9229 108.706 47.6872 108.108C47.22 106.921 46.5424 105.288 45.7512 103.504C44.9599 101.719 44.2023 100.137 43.6468 98.9795C43.3606 98.4071 43.1249 97.9441 42.9565 97.6285C42.8792 97.4585 42.7832 97.2975 42.6704 97.1487Z" fill="#455A64"/>
<path d="M82.1824 142.683C82.3597 142.358 82.5009 142.016 82.6033 141.66C82.8306 141.021 83.1084 140.12 83.3609 139.11C83.6134 138.1 83.7818 137.17 83.8701 136.496C83.9446 136.133 83.9771 135.763 83.9669 135.393C83.8545 135.744 83.7714 136.103 83.7186 136.467C83.5839 137.136 83.3945 138.049 83.1462 139.055C82.8979 140.061 82.6454 140.962 82.456 141.614C82.3338 141.962 82.2422 142.319 82.1824 142.683Z" fill="#455A64"/>
<path d="M81.6406 125.604L76.6406 138.857L73.1053 135.099L79.6373 117.86L81.6406 125.604Z" fill="#455A64"/>
<path d="M28.167 151.942C28.167 151.942 27.3252 147.599 26.6981 145.208C26.3439 144.316 25.9218 143.452 25.4355 142.624C24.9894 142.022 13.992 143.701 13.9878 143.765C13.9836 143.828 9.1393 149.236 6.01642 149.989C2.89354 150.743 0.258882 151.812 0.444066 153.032C0.62925 154.253 -1.71922 155.259 4.99371 155.036C11.7066 154.813 14.6401 154.615 18.9667 154.371C23.2933 154.127 27.4473 154.741 27.9481 153.339C28.449 151.938 28.167 151.942 28.167 151.942Z" fill="#263238"/>
<path d="M18.9186 153.125C17.4202 149.982 15.6441 146.979 13.6114 144.152L10.5348 146.753L14.9582 153.668L16.1409 154.93C16.1409 154.93 19.4069 153.074 19.1627 153.095" fill="#263238"/>
<path d="M19.1629 153.108C18.919 153.293 18.6584 153.455 18.3842 153.592L16.1031 154.88H16.1915L15.0215 153.626L10.6191 146.698L10.5981 146.841L10.96 146.534L13.6747 144.236L13.5189 144.215C14.9727 146.239 16.305 148.347 17.5088 150.528C17.9549 151.34 18.3001 151.997 18.5358 152.447L18.8051 152.965C18.8682 153.083 18.9019 153.142 18.9103 153.138C18.8915 153.073 18.8676 153.009 18.8388 152.948L18.5989 152.418C18.3842 151.955 18.0602 151.29 17.6267 150.465C16.4588 148.258 15.1441 146.132 13.6915 144.101L13.6242 144.009L13.5358 144.08L10.8211 146.374L10.455 146.681L10.3834 146.744L10.4339 146.824L14.8952 153.714L16.0863 154.977L16.1242 155.019L16.1747 154.989C17.1427 154.43 17.9044 153.971 18.4221 153.643C18.6831 153.478 18.8809 153.348 19.0113 153.251L19.1544 153.138C19.1544 153.138 19.1797 153.112 19.1797 153.095C19.1797 153.079 19.1587 153.104 19.1629 153.108Z" fill="#455A64"/>
<path d="M19.7263 153.121C19.6642 152.625 19.7145 152.121 19.8736 151.647C20.0615 151.143 20.3558 150.685 20.7364 150.305C21.2165 149.849 21.7681 149.475 22.3694 149.198C23.0049 148.887 23.632 148.655 24.2212 148.424C24.8104 148.192 25.3071 147.973 25.7532 147.843C26.6496 147.594 27.2347 147.552 27.2304 147.51C27.091 147.488 26.949 147.488 26.8096 147.51C26.4375 147.537 26.0685 147.596 25.7069 147.687C25.1752 147.837 24.6525 148.017 24.1412 148.226C23.5646 148.449 22.9123 148.672 22.2641 148.992C21.6392 149.279 21.0695 149.674 20.5807 150.158C20.1863 150.564 19.8898 151.055 19.7137 151.593C19.596 151.953 19.5586 152.336 19.6042 152.712C19.6137 152.856 19.6554 152.995 19.7263 153.121Z" fill="#455A64"/>
<path d="M6.38314 149.888C6.33684 149.935 7.22488 150.898 8.25181 152.136C9.27875 153.373 10.0742 154.413 10.1289 154.375C10.0129 154.111 9.86291 153.863 9.68278 153.638C9.37975 153.217 8.94204 152.616 8.42016 151.993C7.89828 151.37 7.40165 150.835 7.02707 150.461C6.84046 150.241 6.62367 150.048 6.38314 149.888Z" fill="#455A64"/>
<path d="M28.0211 151.942C28.0211 151.942 28.4083 151.942 28.6356 152.628C28.8628 153.314 28.6356 154.514 28.5724 155.023C28.5093 155.532 27.8948 156.656 25.7442 156.753C23.5935 156.85 16.0388 156.45 13.3621 156.42C10.6853 156.391 7.23836 156.496 4.32171 156.235C1.40506 155.974 0.466514 155.566 0.167694 154.973C-0.131126 154.379 -0.0301242 152.839 0.462298 152.973C0.954719 153.108 0.336042 153.912 1.35035 154.236C2.36465 154.56 3.27373 154.72 5.52962 154.585C7.7855 154.451 8.93869 154.775 11.3545 153.988C13.7703 153.201 14.1028 153.601 15.6137 153.718C17.1247 153.836 18.8082 152.94 20.8578 152.565C22.9075 152.191 28.0211 151.942 28.0211 151.942Z" fill="#F5F5F5"/>
<path d="M123.52 138.112C123.52 138.112 103.154 133.718 95.8937 134.632C95.3592 134.699 95.8264 150.204 95.8264 150.204L124.168 148.02L123.52 138.112Z" fill="#FFBF9D"/>
<path d="M126.892 132.212C126.892 132.212 122.894 134.118 120.748 135.309C119.97 135.873 119.237 136.495 118.555 137.17C118.083 137.75 122.448 147.986 122.507 147.973C122.566 147.961 129.022 151.307 130.503 154.148C131.985 156.988 133.698 159.27 134.834 158.777C135.971 158.285 137.528 160.318 135.642 153.87C133.757 147.422 132.835 144.611 131.522 140.507C130.209 136.404 129.792 132.203 128.311 132.069C126.829 131.934 126.892 132.212 126.892 132.212Z" fill="#263238"/>
<path d="M130.351 140.869C127.68 143.103 125.214 145.571 122.982 148.243L126.264 150.574L131.862 144.573L132.805 143.104C132.805 143.104 130.195 140.402 130.279 140.633" fill="#263238"/>
<path d="M130.277 140.638C130.519 140.826 130.74 141.039 130.938 141.273L132.739 143.159V143.07L131.784 144.522L126.169 150.507H126.317L125.925 150.229L123.059 148.154L123.08 148.31C124.674 146.398 126.382 144.583 128.194 142.877C128.85 142.262 129.402 141.744 129.793 141.42L130.214 141C130.311 140.907 130.357 140.861 130.353 140.852C130.295 140.888 130.241 140.927 130.189 140.97L129.734 141.332C129.338 141.656 128.774 142.136 128.084 142.763C126.237 144.443 124.505 146.246 122.899 148.159L122.828 148.243L122.92 148.31L125.816 150.372L126.203 150.646L126.283 150.705L126.35 150.633L131.927 144.627C132.264 144.093 132.579 143.596 132.861 143.159L132.891 143.108L132.853 143.066C132.07 142.271 131.434 141.643 130.988 141.227C130.765 141.016 130.567 140.856 130.462 140.755C130.418 140.713 130.368 140.676 130.315 140.646C130.308 140.643 130.3 140.641 130.292 140.641C130.284 140.641 130.276 140.643 130.269 140.646C130.269 140.646 130.273 140.642 130.277 140.638Z" fill="#455A64"/>
<path d="M130.148 140.09C129.683 140.273 129.182 140.348 128.684 140.309C128.148 140.256 127.631 140.085 127.169 139.808C126.607 139.46 126.108 139.02 125.691 138.508C125.228 137.969 124.85 137.405 124.479 136.904C124.109 136.404 123.772 135.962 123.537 135.562C123.074 134.758 122.884 134.202 122.846 134.219C122.863 134.356 122.9 134.489 122.956 134.615C123.074 134.968 123.224 135.31 123.402 135.638C123.68 136.117 123.986 136.579 124.319 137.022C124.677 137.523 125.056 138.095 125.527 138.647C125.961 139.179 126.483 139.632 127.072 139.985C127.564 140.267 128.114 140.431 128.68 140.465C129.058 140.49 129.437 140.433 129.791 140.297C129.922 140.251 130.043 140.181 130.148 140.09Z" fill="#455A64"/>
<path d="M130.338 153.815C130.389 153.849 131.104 152.75 132.047 151.446C132.99 150.141 133.798 149.114 133.73 149.072C133.513 149.25 133.32 149.457 133.158 149.686C132.809 150.086 132.35 150.659 131.895 151.315C131.441 151.972 131.028 152.578 130.759 153.049C130.581 153.282 130.44 153.54 130.338 153.815Z" fill="#455A64"/>
<path d="M126.948 132.346C126.948 132.346 126.859 131.968 127.457 131.58C128.055 131.193 129.288 131.126 129.793 131.046C130.298 130.966 131.544 131.294 132.175 133.352C132.806 135.41 134.279 142.83 134.932 145.427C135.584 148.024 136.527 151.345 137.002 154.232C137.478 157.119 137.314 158.129 136.805 158.571C136.295 159.013 134.789 159.295 134.793 158.786C134.797 158.276 135.736 158.672 135.816 157.607C135.896 156.542 135.816 155.625 135.113 153.47C134.41 151.315 134.448 150.124 133.084 147.999C131.721 145.873 132.024 145.431 131.763 143.933C131.502 142.435 130.214 141.037 129.338 139.143C128.463 137.25 126.948 132.346 126.948 132.346Z" fill="#F5F5F5"/>
<path d="M51.3135 37.7845C51.3135 37.7845 38.1317 46.7954 36.1957 51.6734C34.2597 56.5513 35.497 63.8324 35.8379 65.781C36.1789 67.7297 37.4078 70.2255 37.029 74.8761C36.6502 79.5268 36.5703 92.9947 38.9819 94.8676C41.3935 96.7405 49.1291 93.0536 55.619 92.4434C62.1089 91.8331 78.3672 92.2413 78.3672 92.2413C78.3672 92.2413 77.9884 84.1227 69.3858 77.0268L66.5364 70.5748C66.5364 70.5748 71.2208 59.4301 70.9724 53.984C70.7241 48.5379 69.6046 40.133 66.2797 36.2568C64.3094 35.6635 62.2712 35.3254 60.2149 35.2509C57.9127 35.1878 51.3135 37.7845 51.3135 37.7845Z" fill="#1AB1D2"/>
<path d="M47.3981 75.3812C47.6182 75.3586 47.8363 75.3192 48.0504 75.2633L49.8055 74.8972C51.2869 74.5941 53.3492 74.2238 55.6388 73.9418C57.9283 73.6598 60.02 73.5209 61.531 73.4536L63.3239 73.3862C63.5438 73.3927 63.7637 73.3772 63.9805 73.3399C63.7628 73.3113 63.5434 73.2987 63.3239 73.302C62.903 73.302 62.2843 73.302 61.5268 73.302C59.5499 73.3435 57.5763 73.4839 55.6135 73.7229C53.6501 73.9639 51.7003 74.3053 49.7718 74.7456C49.031 74.914 48.4376 75.0655 48.0294 75.1665C47.8126 75.218 47.6013 75.2899 47.3981 75.3812Z" fill="#263238"/>
<path opacity="0.3" d="M54.3725 102.182C54.3725 102.182 53.2193 89.6909 54.0821 84.6614C54.9449 79.632 56.9146 74.329 56.7757 74.0175C56.6368 73.7061 52.4323 56.5766 52.4323 56.5766L59.0863 56.021L65.2227 77.2204L54.3725 102.182Z" fill="black"/>
<path d="M44.3538 49.9015C44.3472 50.1464 44.4135 50.3879 44.5443 50.5951C44.675 50.8024 44.8644 50.9661 45.0883 51.0656C45.3123 51.1651 45.5607 51.1959 45.8021 51.1541C46.0436 51.1122 46.2672 50.9996 46.4446 50.8305C46.6219 50.6614 46.7451 50.4434 46.7984 50.2043C46.8518 49.9651 46.8329 49.7154 46.7442 49.487C46.6555 49.2586 46.501 49.0616 46.3002 48.9211C46.0994 48.7806 45.8615 48.7029 45.6165 48.6978C45.2897 48.691 44.9735 48.8138 44.737 49.0393C44.5004 49.2648 44.3627 49.5748 44.3538 49.9015Z" fill="white"/>
<path d="M70.4219 53.6472C70.4219 53.6472 70.1693 70.2717 69.9252 73.0958C69.6811 75.9198 68.3512 81.0924 68.3512 81.0924L60.9228 103.453L53.6711 102.069C53.6711 102.069 56.512 81.3912 57.7241 77.5654C58.9362 73.7397 58.0229 72.4266 57.3033 69.8382C56.5836 67.2498 53.1156 55.8442 53.1156 55.8442C53.1156 55.8442 59.0078 53.9334 63.6374 53.4536C68.267 52.9738 70.4219 53.6472 70.4219 53.6472Z" fill="#FFBF9D"/>
<path d="M47.7433 110.141L60.3906 110.463L60.2777 114.894L47.6304 114.571L47.7433 110.141Z" fill="#1AB1D2"/>
<path d="M65.3981 107.86L61.5724 107.763C61.4358 107.76 61.3034 107.81 61.204 107.904C61.1047 107.998 61.0465 108.127 61.0421 108.264L60.8106 117.3C60.8089 117.368 60.8207 117.436 60.8451 117.499C60.8696 117.563 60.9064 117.621 60.9533 117.67C61.0002 117.719 61.0563 117.759 61.1185 117.786C61.1807 117.814 61.2477 117.829 61.3157 117.83L65.1414 117.927C65.2092 117.929 65.2767 117.918 65.3402 117.894C65.4036 117.87 65.4616 117.834 65.5109 117.787C65.5602 117.741 65.5998 117.685 65.6274 117.623C65.655 117.561 65.6701 117.494 65.6717 117.426C66.1848 114.441 66.2628 111.398 65.9032 108.39C65.9055 108.253 65.8538 108.121 65.7593 108.022C65.6648 107.922 65.5351 107.864 65.3981 107.86Z" fill="#1AB1D2"/>
<path d="M59.285 114.825C59.3523 114.825 60.7328 115.41 60.8127 117.384L64.508 116.681L64.7227 108.369L61.0442 108.264C61.0442 108.264 60.8127 110.12 59.8952 110.457L58.4601 112.982L59.285 114.825Z" fill="#1AB1D2"/>
<path d="M60.8121 117.384C60.9152 117.172 60.9929 116.949 61.0436 116.719C61.1698 116.298 61.3424 115.684 61.5402 114.956V114.935C61.5402 114.312 61.5781 113.588 61.5739 112.83C61.5739 111.652 61.5739 110.579 61.5739 109.771C61.4546 109.256 61.2942 108.752 61.0941 108.264C61.1623 108.787 61.2692 109.305 61.414 109.813V109.787C61.3761 110.596 61.3592 111.677 61.3719 112.856C61.3719 113.617 61.3719 114.337 61.3719 114.96V114.905C61.1909 115.638 61.0478 116.252 60.951 116.686C60.8793 116.913 60.8327 117.147 60.8121 117.384Z" fill="#263238"/>
<path d="M61.4419 114.931C62.1934 115.062 62.9562 115.119 63.7189 115.099C64.4791 115.154 65.2429 115.138 66 115.048C65.2479 114.922 64.4856 114.865 63.7231 114.88C62.9628 114.827 62.1992 114.844 61.4419 114.931Z" fill="#263238"/>
<path d="M61.4857 109.762C62.2619 109.889 63.0479 109.946 63.8342 109.931C64.6211 109.989 65.4117 109.972 66.1953 109.88C65.4178 109.753 64.6303 109.697 63.8426 109.712C63.0571 109.656 62.2681 109.673 61.4857 109.762Z" fill="#263238"/>
<path d="M42.2525 117.267L46.074 117.363C46.1421 117.366 46.21 117.354 46.2737 117.33C46.3374 117.306 46.3957 117.269 46.445 117.222C46.4944 117.175 46.5339 117.119 46.5612 117.056C46.5886 116.994 46.6032 116.926 46.6043 116.858L46.8358 107.822C46.8375 107.754 46.8257 107.686 46.8012 107.623C46.7768 107.56 46.74 107.502 46.6931 107.452C46.6462 107.403 46.5901 107.364 46.5279 107.336C46.4657 107.308 46.3987 107.293 46.3307 107.292L42.505 107.195C42.368 107.193 42.2356 107.244 42.1364 107.339C42.0372 107.433 41.9791 107.563 41.9747 107.7C41.4629 110.685 41.3863 113.729 41.7474 116.736C41.7457 116.804 41.7575 116.872 41.7819 116.935C41.8064 116.999 41.8432 117.057 41.8901 117.106C41.937 117.155 41.9931 117.195 42.0553 117.222C42.1175 117.25 42.1845 117.265 42.2525 117.267Z" fill="#1AB1D2"/>
<path d="M48.3665 110.297C48.2992 110.297 46.9229 109.716 46.8387 107.742L43.1435 108.445L42.933 116.757L46.6073 116.858C46.6073 116.858 46.8808 114.926 47.7983 114.585L49.1914 112.123L48.3665 110.297Z" fill="#1AB1D2"/>
<path d="M46.8398 107.75C46.7408 107.962 46.6633 108.184 46.6084 108.411C46.4821 108.832 46.3095 109.447 46.1159 110.175V110.2C46.0907 110.823 46.0739 111.547 46.0823 112.304C46.0823 113.487 46.0823 114.56 46.0823 115.364V115.389C46.2049 115.902 46.3638 116.406 46.5579 116.896C46.4923 116.372 46.3853 115.854 46.238 115.347C46.2801 114.543 46.2969 113.462 46.2843 112.283C46.2843 111.522 46.2843 110.802 46.2843 110.179V110.2C46.4653 109.468 46.6126 108.849 46.7052 108.415C46.776 108.2 46.8212 107.977 46.8398 107.75Z" fill="#263238"/>
<path d="M46.207 110.192C45.4563 110.065 44.6955 110.009 43.9343 110.023C43.174 109.968 42.41 109.986 41.6532 110.078C43.1642 110.259 44.6889 110.297 46.207 110.192Z" fill="#263238"/>
<path d="M46.168 115.364C45.391 115.232 44.6032 115.174 43.8153 115.192C43.0297 115.138 42.241 115.155 41.4584 115.242C42.2353 115.374 43.0233 115.43 43.8111 115.41C44.5965 115.466 45.3853 115.45 46.168 115.364Z" fill="#263238"/>
<path d="M61.7014 37.4647C66.4783 37.5867 70.1483 42.7929 70.8049 49.67L70.9648 55.0109L52.4464 56.5597L52.1729 50.8232C52.1729 50.8232 50.0811 37.1659 61.7014 37.4647Z" fill="#1AB1D2"/>
<path d="M61.7017 37.4647C61.6723 37.461 61.6426 37.461 61.6133 37.4647H61.3439C60.9958 37.4542 60.6474 37.4626 60.3002 37.4899C58.9774 37.5564 57.685 37.9097 56.5123 38.5253C55.6918 38.9828 54.9615 39.5861 54.3574 40.3056C53.6599 41.1563 53.1184 42.1238 52.7581 43.1633C52.3473 44.3332 52.0885 45.5511 51.9879 46.787C51.861 48.1474 51.8808 49.5175 52.0468 50.8737C52.131 52.6877 52.2236 54.6153 52.3162 56.6144V56.7238H52.4256L60.2202 56.0715L70.9735 55.1413H71.0703V55.0445C71.0198 53.4452 70.9707 51.902 70.923 50.4149C70.9048 49.6925 70.8345 48.9724 70.7126 48.2601C70.6452 47.9149 70.5821 47.5698 70.519 47.2331L70.2791 46.2483C69.9533 45.038 69.5033 43.8645 68.9365 42.7466C68.4379 41.7966 67.826 40.9105 67.1141 40.1077C66.5276 39.4548 65.8517 38.888 65.1065 38.4243C64.7656 38.2475 64.4584 38.0707 64.1554 37.9487C63.8523 37.8266 63.5746 37.7214 63.3136 37.6667L62.6234 37.5194C62.4256 37.4899 62.253 37.4857 62.1141 37.4731H61.8027C61.7678 37.4676 61.7323 37.4676 61.6975 37.4731H61.8027L62.1141 37.511C62.2488 37.511 62.4172 37.5404 62.615 37.5741L63.2926 37.7382C63.5493 37.7972 63.8145 37.9276 64.1343 38.0328C64.4542 38.1381 64.7362 38.3359 65.0687 38.5126C65.796 38.982 66.4558 39.5483 67.0299 40.1961C67.7292 40.9958 68.3284 41.8777 68.8144 42.8224C69.3666 43.9337 69.8038 45.0986 70.1191 46.2988C70.1991 46.6187 70.2749 46.9427 70.3548 47.2752C70.4348 47.6077 70.4769 47.9486 70.54 48.2937C70.6597 49.0005 70.7272 49.7151 70.742 50.4318C70.7841 51.9048 70.8304 53.4452 70.8767 55.0614L70.9693 54.952L60.2286 55.8484L52.4383 56.5008L52.5561 56.6018C52.4551 54.6026 52.3583 52.675 52.2699 50.8653C51.9186 48.3049 52.1488 45.6983 52.9433 43.239C53.2873 42.2134 53.8134 41.2582 54.4963 40.4192C55.0831 39.7056 55.7965 39.1063 56.6007 38.6515C57.7534 38.0362 59.0222 37.6692 60.3254 37.5741C60.7758 37.5152 61.1251 37.5362 61.3608 37.5194H61.6301L61.7017 37.4647Z" fill="#263238"/>
<path d="M61.6133 101.437C61.6133 101.437 60.3128 106.997 60.0308 109.266C59.7993 111.105 58.4862 113.378 58.4862 113.378C58.4862 113.378 58.5283 115.983 56.1546 115.76C56.1546 115.76 55.6453 116.202 54.2143 115.718C54.2143 115.718 54.0376 116.172 52.493 115.869L51.3987 115.305C51.3987 115.305 51.6512 116.273 50.0561 115.89C48.461 115.507 48.7556 114.796 48.6209 113.571C48.4862 112.346 48.9534 109.202 49.4627 108.053C49.9719 106.905 51.8322 106.454 52.6487 104.687C53.4652 102.919 54.1091 99.0258 54.1091 99.0258L61.6133 101.437Z" fill="#FFBF9D"/>
<path d="M55.5105 113.588C55.463 114.365 55.7009 115.133 56.1797 115.747C56.1097 115.376 56.0011 115.014 55.8556 114.665C55.7813 114.295 55.6655 113.933 55.5105 113.588Z" fill="#FF9A6C"/>
<path d="M53.1166 113.352C53.1322 113.831 53.2667 114.298 53.508 114.712C53.6825 115.156 53.961 115.551 54.3203 115.865C54.1442 115.431 53.9389 115.009 53.7058 114.602C53.5359 114.174 53.3391 113.756 53.1166 113.352Z" fill="#FF9A6C"/>
<path d="M50.9255 113.289C50.9375 114.004 51.095 114.708 51.3885 115.36C51.4194 115.002 51.3779 114.641 51.2665 114.299C51.2225 113.943 51.1065 113.599 50.9255 113.289Z" fill="#FF9A6C"/>
</svg>
