<svg width="140" height="157" viewBox="0 0 140 157" fill="none" xmlns="http://www.w3.org/2000/svg">
<g style="mix-blend-mode:multiply" opacity="0.6">
<path d="M92.3448 126.78C92.3448 131.819 71.6712 135.934 46.1724 135.934C20.6736 135.934 0 131.844 0 126.78C0 121.715 20.6736 117.629 46.1934 117.629C71.7131 117.629 92.3448 121.728 92.3448 126.78Z" fill="#CCCCCC"/>
</g>
<path d="M123.419 96.3551C123.419 96.3551 115.352 55.4908 85.0113 37.4333H63.3256C32.9807 55.4908 24.9179 96.3551 24.9179 96.3551C16.0445 143.871 71.1784 137.82 71.1784 137.82H77.1584C77.1584 137.82 132.292 143.871 123.419 96.3551Z" fill="#E8C47B"/>
<path d="M123.42 96.3551C123.42 96.3551 115.353 55.4908 85.0128 37.4333H72.9605C93.5711 55.5832 99.3621 84.8866 99.3621 84.8866C107.463 128.3 57.1078 122.774 57.1078 122.774H51.6485C51.6485 122.774 38.5212 124.21 26.7461 119.834C36.8792 141.57 71.1841 137.812 71.1841 137.812H77.1641C77.1641 137.812 132.294 143.871 123.42 96.3551Z" fill="#DAB873"/>
<path d="M41.3185 10.8678C40.193 9.3896 38.4167 6.20646 40.3484 4.72827C42.8681 2.80494 47.7939 4.84585 50.3556 5.56815C53.7151 6.50041 57.4022 7.33609 61.0808 6.95395C64.6713 6.5802 68.7573 4.58549 71.9405 3.29207C75.1236 1.99866 78.563 -0.374002 82.418 0.814428C86.4578 2.07425 88.0452 5.59334 92.7065 6.03428C100.891 6.81537 105.725 -0.533581 113.405 0.251707C117.395 0.671647 116.937 3.14509 114.699 4.87105L85.0132 37.4584H63.3275L41.3185 10.8678Z" fill="#E8C47B"/>
<g style="mix-blend-mode:multiply" opacity="0.6">
<path d="M101.663 150.154C91.6851 150.154 83.6055 147.042 83.6055 143.204C83.6055 139.365 91.6935 136.258 101.663 136.258C111.632 136.258 119.72 139.37 119.72 143.204C119.72 147.038 111.641 150.154 101.663 150.154Z" fill="#CCCCCC"/>
</g>
<g style="mix-blend-mode:multiply" opacity="0.6">
<path d="M120.62 128.989C110.646 128.989 102.562 125.877 102.562 122.039C102.562 118.2 110.651 115.093 120.62 115.093C130.589 115.093 138.677 118.205 138.677 122.039C138.677 125.873 130.598 128.989 120.62 128.989Z" fill="#CCCCCC"/>
</g>
<g style="mix-blend-mode:multiply" opacity="0.6">
<path d="M118.411 142.674C108.442 142.339 100.253 145.173 100.123 149.007C99.9925 152.841 107.971 156.226 117.945 156.566C127.918 156.906 136.103 154.067 136.229 150.233C136.355 146.399 128.372 143.015 118.411 142.674Z" fill="#CCCCCC"/>
</g>
<g style="mix-blend-mode:multiply" opacity="0.6">
<path d="M67.3333 131.189C77.3027 130.849 85.4915 133.683 85.6217 137.522C85.7519 141.36 77.773 144.736 67.8036 145.081C57.8343 145.425 49.6454 142.582 49.5152 138.748C49.3851 134.914 57.3639 131.525 67.3333 131.189Z" fill="#CCCCCC"/>
</g>
<path d="M59.3906 133.234C59.3906 137.068 67.4787 140.18 77.448 140.18C87.4174 140.18 95.5055 137.068 95.5055 133.234V129.95H59.3906V133.234Z" fill="#FF931E"/>
<path d="M75.7363 131.638V140.146C76.3032 140.167 76.8786 140.18 77.4581 140.18V131.638H75.7363Z" fill="#D17918"/>
<path d="M72.2559 131.638V139.886C73.1881 139.995 74.154 140.075 75.145 140.121V131.638H72.2559Z" fill="#D17918"/>
<path d="M71.5395 139.798V129.967H59.3906V133.234C59.3906 136.275 64.4677 138.853 71.5395 139.798Z" fill="#D17918"/>
<path d="M83.8906 131.638V139.726L84.4786 139.634V131.655L83.8906 131.638Z" fill="#D17918"/>
<path d="M81.6445 139.991L82.2324 139.932V131.638H81.6445V139.991Z" fill="#D17918"/>
<path d="M78.8184 131.638V140.159L79.6582 140.13V131.638H78.8184Z" fill="#D17918"/>
<path d="M77.4578 136.883C67.48 136.883 59.4004 133.772 59.4004 129.933C59.4004 126.095 67.48 123.025 77.4578 123.025C87.4356 123.025 95.5152 126.137 95.5152 129.971C95.5152 133.805 87.4314 136.883 77.4578 136.883Z" fill="#FF931E"/>
<path style="mix-blend-mode:multiply" opacity="0.4" d="M87.6372 135.691C87.1248 135.691 86.6083 135.72 86.0834 135.72C76.1098 135.72 68.026 132.609 68.026 128.77C68.026 126.385 71.1503 124.285 75.9124 123.034C66.6737 123.336 59.4004 126.318 59.4004 129.95C59.4004 133.789 67.4884 136.9 77.4578 136.9C80.8883 136.927 84.3084 136.52 87.6372 135.691Z" fill="url(#paint0_linear_48_54679)"/>
<path d="M95.5055 130.165C95.2073 126.427 87.2452 123.446 77.448 123.446C67.6508 123.446 59.693 126.44 59.3906 130.165C59.6846 133.898 67.6508 136.884 77.448 136.884C87.2452 136.884 95.1947 133.902 95.5055 130.165ZM77.448 136.044C69.339 136.044 62.7501 133.524 62.7501 130.387C62.7501 127.25 69.3474 124.731 77.448 124.731C85.5487 124.731 92.1459 127.25 92.1459 130.387C92.1459 133.524 85.5613 136.044 77.4564 136.044H77.448Z" fill="#D17918"/>
<path d="M75.8198 128.989L68.832 131.004V132.399L75.971 130.194C76.8699 130.853 77.9091 131.294 79.0072 131.483L79.3305 131.546V132.806H81.9258V131.844C82.4885 131.87 83.0176 131.87 83.4753 131.844V132.785H86.0664V129.048H83.4753V130.853C83.0554 130.853 82.5011 130.853 81.9258 130.832V129.048H79.3305V130.307C78.7385 130.104 78.2179 129.733 77.8313 129.241L75.8198 128.989Z" fill="#D17918"/>
<path d="M92.1596 129.95C92.1596 133.07 85.5624 135.607 77.4617 135.607C69.3611 135.607 62.7638 133.087 62.7638 129.95C62.7638 126.813 69.3611 124.298 77.4617 124.298C85.5624 124.298 92.1596 126.817 92.1596 129.95ZM95.5191 129.95C95.5191 126.116 87.4311 123.004 77.4617 123.004C67.4923 123.004 59.4043 126.116 59.4043 129.95C59.4043 133.784 67.4797 136.883 77.4575 136.883C87.4353 136.883 95.5149 133.772 95.5149 129.933L95.5191 129.95Z" fill="#FFC022"/>
<path d="M64.6973 129.95C64.6973 127.246 70.4211 125.045 77.4592 125.045C84.4974 125.045 90.217 127.246 90.217 129.95C90.217 132.655 84.4932 134.859 77.4592 134.859C70.4253 134.859 64.6973 132.659 64.6973 129.95ZM89.6585 129.95C89.6585 127.363 84.1993 125.26 77.4592 125.26C70.7192 125.26 65.281 127.359 65.281 129.95C65.281 132.541 70.7402 134.645 77.4592 134.645C84.1783 134.645 89.6585 132.537 89.6585 129.95Z" fill="#FFC022"/>
<path d="M75.8198 128.065L68.832 130.076V131.471L75.971 129.266C76.8708 129.923 77.9096 130.364 79.0072 130.555L79.3305 130.618V131.878H81.9258V130.925C82.4885 130.946 83.0176 130.95 83.4753 130.925V131.844H86.0664V128.111H83.4753V129.913C82.9588 129.932 82.4416 129.925 81.9258 129.892V128.111H79.3305V129.371C78.7393 129.166 78.2191 128.796 77.8313 128.304L75.8198 128.065Z" fill="#FFC022"/>
<path d="M59.3906 126.288C59.3906 130.122 67.4787 133.234 77.448 133.234C87.4174 133.234 95.5055 130.122 95.5055 126.288V123.025H59.3906V126.288Z" fill="#FF931E"/>
<path d="M75.7363 124.705V133.213C76.3032 133.213 76.8786 133.247 77.4581 133.247V124.705H75.7363Z" fill="#D17918"/>
<path d="M72.2559 124.705V132.953C73.1881 133.062 74.154 133.137 75.145 133.188V124.705H72.2559Z" fill="#D17918"/>
<path d="M71.5395 132.852V123.025H59.3906V126.297C59.3906 129.324 64.4677 131.907 71.5395 132.852Z" fill="#D17918"/>
<path d="M83.8906 124.705V132.789C84.088 132.76 84.2854 132.734 84.4786 132.701V124.705H83.8906Z" fill="#D17918"/>
<path d="M81.6445 133.045L82.2324 132.986V124.705H81.6445V133.045Z" fill="#D17918"/>
<path d="M78.8184 124.705V133.226L79.6582 133.192V124.705H78.8184Z" fill="#D17918"/>
<path d="M77.4578 129.95C67.48 129.95 59.4004 126.843 59.4004 123.005C59.4004 119.166 67.4884 116.059 77.4578 116.059C87.4272 116.059 95.5152 119.166 95.5152 123.005C95.5152 126.843 87.4314 129.95 77.4578 129.95Z" fill="#FF931E"/>
<path style="mix-blend-mode:multiply" opacity="0.4" d="M87.6372 128.745C87.1248 128.745 86.6083 128.77 86.0834 128.77C76.1098 128.77 68.026 125.663 68.026 121.825C68.026 119.439 71.1503 117.335 75.9124 116.084C66.6737 116.386 59.4004 119.368 59.4004 123.005C59.4004 126.843 67.4884 129.95 77.4578 129.95C80.8881 129.978 84.3082 129.573 87.6372 128.745Z" fill="url(#paint1_linear_48_54679)"/>
<path d="M95.5055 123.219C95.2073 119.485 87.2452 116.5 77.448 116.5C67.6508 116.5 59.693 119.498 59.3906 123.219C59.6846 126.956 67.6508 129.938 77.448 129.938C87.2452 129.938 95.1947 126.956 95.5055 123.219ZM77.448 129.098C69.339 129.098 62.7501 126.578 62.7501 123.445C62.7501 120.313 69.3474 117.789 77.448 117.789C85.5487 117.789 92.1459 120.308 92.1459 123.445C92.1459 126.582 85.5613 129.089 77.4564 129.089L77.448 129.098Z" fill="#D17918"/>
<path d="M75.8198 122.039L68.832 124.05V125.444L75.971 123.24C76.8708 123.897 77.9096 124.338 79.0072 124.529L79.3305 124.592V125.852H81.9258V124.894C82.4885 124.919 83.0176 124.919 83.4753 124.894V125.835H86.0664V122.097H83.4753V123.899C82.9591 123.925 82.4419 123.925 81.9258 123.899V122.102H79.3305V123.361C78.7385 123.158 78.2179 122.787 77.8313 122.295L75.8198 122.039Z" fill="#D17918"/>
<path d="M92.1596 123.025C92.1596 126.146 85.5624 128.682 77.4617 128.682C69.3611 128.682 62.7638 126.162 62.7638 123.025C62.7638 119.888 69.3611 117.369 77.4617 117.369C85.5624 117.369 92.1596 119.888 92.1596 123.025ZM95.5191 123.025C95.5191 119.187 87.4311 116.08 77.4617 116.08C67.4923 116.08 59.4043 119.187 59.4043 123.025C59.4043 126.864 67.4923 129.971 77.4617 129.971C87.4311 129.971 95.5191 126.864 95.5191 123.025Z" fill="#FFC022"/>
<path d="M64.6973 123.025C64.6973 120.317 70.4211 118.116 77.4592 118.116C84.4974 118.116 90.217 120.317 90.217 123.025C90.217 125.734 84.4932 127.934 77.4592 127.934C70.4253 127.934 64.6973 125.709 64.6973 123.025ZM89.6585 123.025C89.6585 120.438 84.1993 118.335 77.4592 118.335C70.7192 118.335 65.281 120.434 65.281 123.025C65.281 125.616 70.7402 127.716 77.4592 127.716C84.1783 127.716 89.6585 125.591 89.6585 123.025Z" fill="#FFC022"/>
<path d="M75.8198 121.106L68.832 123.114V124.512L75.971 122.303C76.8699 122.962 77.9091 123.403 79.0072 123.592L79.3305 123.659V124.919H81.9258V123.962C82.4885 123.987 83.0176 123.991 83.4753 123.962V124.902H86.0664V121.165H83.4753V122.971C83.0554 122.971 82.5011 122.971 81.9258 122.95V121.165H79.3305V122.425C78.7377 122.223 78.2167 121.852 77.8313 121.358L75.8198 121.106Z" fill="#FFC022"/>
<path d="M59.3906 119.339C59.3906 123.177 67.4787 126.284 77.448 126.284C87.4174 126.284 95.5055 123.177 95.5055 119.339V116.059H59.3906V119.339Z" fill="#FF931E"/>
<path d="M75.7363 117.743V126.255C76.3032 126.276 76.8786 126.284 77.4581 126.284V117.743H75.7363Z" fill="#D17918"/>
<path d="M72.2559 117.743V125.99C73.1881 126.099 74.154 126.179 75.145 126.225V117.743H72.2559Z" fill="#D17918"/>
<path d="M71.5395 125.902V116.071H59.3906V119.338C59.3906 122.379 64.4677 124.961 71.5395 125.902Z" fill="#D17918"/>
<path d="M83.8906 117.743V125.831L84.4786 125.743V117.743H83.8906Z" fill="#D17918"/>
<path d="M81.6445 126.095L82.2324 126.041V117.743H81.6445V126.095Z" fill="#D17918"/>
<path d="M78.8184 117.743V126.263C79.1039 126.263 79.3895 126.263 79.6582 126.234V117.743H78.8184Z" fill="#D17918"/>
<path d="M77.4578 123.025C67.48 123.025 59.4004 119.914 59.4004 116.08C59.4004 112.246 67.4884 109.13 77.4578 109.13C87.4272 109.13 95.5152 112.241 95.5152 116.08C95.5152 119.918 87.4314 123.025 77.4578 123.025Z" fill="#FF931E"/>
<path style="mix-blend-mode:multiply" opacity="0.4" d="M87.6372 121.795C87.1248 121.795 86.6083 121.825 86.0834 121.825C76.1098 121.825 68.026 118.713 68.026 114.879C68.026 112.494 71.1503 110.39 75.9124 109.138C66.6737 109.441 59.4004 112.422 59.4004 116.059C59.4004 119.893 67.4884 123.005 77.4578 123.005C80.8884 123.033 84.3088 122.627 87.6372 121.795Z" fill="url(#paint2_linear_48_54679)"/>
<path d="M95.5055 116.273C95.2073 112.535 87.2452 109.554 77.448 109.554C67.6508 109.554 59.693 112.548 59.3906 116.273C59.6846 120.01 67.6508 122.992 77.448 122.992C87.2452 122.992 95.1947 120.01 95.5055 116.273ZM77.448 122.152C69.339 122.152 62.7501 119.632 62.7501 116.495C62.7501 113.358 69.3474 110.843 77.448 110.843C85.5487 110.843 92.1459 113.363 92.1459 116.495C92.1459 119.628 85.5613 122.144 77.4564 122.144L77.448 122.152Z" fill="#D17918"/>
<path d="M75.8198 115.093L68.832 117.1V118.498L75.971 116.294C76.8708 116.951 77.9096 117.392 79.0072 117.583L79.3305 117.646V118.906H81.9258V117.948C82.4885 117.974 83.0176 117.978 83.4753 117.969V118.906H86.0664V115.168H83.4753V116.974C82.9588 116.994 82.4416 116.987 81.9258 116.953V115.168H79.3305V116.428C78.7393 116.223 78.2191 115.853 77.8313 115.362L75.8198 115.093Z" fill="#D17918"/>
<path d="M92.1596 116.059C92.1596 119.175 85.5624 121.711 77.4617 121.711C69.3611 121.711 62.7638 119.191 62.7638 116.059C62.7638 112.926 69.3611 110.402 77.4617 110.402C85.5624 110.402 92.1596 112.922 92.1596 116.059ZM95.5191 116.059C95.5191 112.22 87.4311 109.109 77.4617 109.109C67.4923 109.109 59.4043 112.22 59.4043 116.059C59.4043 119.897 67.4797 123.025 77.4575 123.025C87.4353 123.025 95.5149 119.914 95.5149 116.08L95.5191 116.059Z" fill="#FFC022"/>
<path d="M64.6973 116.059C64.6973 113.35 70.4211 111.15 77.4592 111.15C84.4974 111.15 90.217 113.35 90.217 116.059C90.217 118.767 84.4932 120.964 77.4592 120.964C70.4253 120.964 64.6973 118.763 64.6973 116.059ZM89.6585 116.059C89.6585 113.472 84.1993 111.364 77.4592 111.364C70.7192 111.364 65.281 113.464 65.281 116.059C65.281 118.654 70.7402 120.749 77.4592 120.749C84.1783 120.749 89.6585 118.646 89.6585 116.059Z" fill="#FFC022"/>
<path d="M75.8198 114.161L68.832 116.168V117.566L75.971 115.362C76.8708 116.019 77.9096 116.46 79.0072 116.651L79.3305 116.714V117.974H81.9258V117.016C82.4885 117.041 83.0176 117.041 83.4753 117.016V117.957H86.0664V114.207H83.4753V116.013C83.0554 116.013 82.5011 116.013 81.9258 115.987V114.207H79.3305V115.467C78.7385 115.263 78.2179 114.893 77.8313 114.4L75.8198 114.161Z" fill="#FFC022"/>
<path d="M103.871 119.893C103.871 123.731 111.959 126.839 121.929 126.839C131.898 126.839 139.986 123.731 139.986 119.893V116.613H103.871V119.893Z" fill="#FF931E"/>
<path d="M120.217 118.297V126.805C120.784 126.826 121.355 126.834 121.934 126.834V118.297H120.217Z" fill="#D17918"/>
<path d="M116.732 118.297V126.545C117.67 126.654 118.633 126.732 119.622 126.78V118.297H116.732Z" fill="#D17918"/>
<path d="M116.016 126.456V116.625H103.871V119.893C103.871 122.933 108.948 125.516 116.016 126.456Z" fill="#D17918"/>
<path d="M128.371 118.297V126.385L128.959 126.297V118.297H128.371Z" fill="#D17918"/>
<path d="M126.121 126.649L126.709 126.595V118.297H126.121V126.649Z" fill="#D17918"/>
<path d="M123.273 118.297V126.805L124.134 126.775V118.297H123.273Z" fill="#D17918"/>
<path d="M121.932 123.559C111.959 123.559 103.875 120.447 103.875 116.613C103.875 112.779 111.963 109.663 121.932 109.663C131.902 109.663 139.99 112.775 139.99 116.613C139.99 120.451 131.91 123.559 121.932 123.559Z" fill="#FF931E"/>
<path style="mix-blend-mode:multiply" opacity="0.4" d="M132.113 122.349C131.601 122.349 131.085 122.379 130.56 122.379C120.582 122.379 112.502 119.267 112.502 115.433C112.502 113.048 115.631 110.944 120.389 109.692C111.15 109.995 103.881 112.976 103.881 116.613C103.881 120.447 111.969 123.559 121.938 123.559C125.367 123.587 128.786 123.18 132.113 122.349Z" fill="url(#paint3_linear_48_54679)"/>
<path d="M139.982 116.827C139.688 113.089 131.722 110.108 121.925 110.108C112.127 110.108 104.174 113.102 103.867 116.827C104.165 120.564 112.127 123.546 121.925 123.546C131.722 123.546 139.709 120.564 139.982 116.827ZM121.925 122.706C113.816 122.706 107.227 120.186 107.227 117.05C107.227 113.913 113.82 111.397 121.925 111.397C130.029 111.397 136.623 113.917 136.623 117.05C136.623 120.182 130.05 122.698 121.933 122.698L121.925 122.706Z" fill="#D17918"/>
<path d="M120.296 115.647L113.309 117.655V119.053L120.448 116.848C121.349 117.504 122.389 117.945 123.488 118.137L123.811 118.2V119.46H126.402V118.503C126.969 118.528 127.498 118.532 127.952 118.503V119.443H130.547V115.706H127.952V117.512C127.532 117.512 126.982 117.512 126.402 117.491V115.706H123.811V116.966C123.22 116.764 122.699 116.395 122.312 115.903L120.296 115.647Z" fill="#D17918"/>
<path d="M136.64 116.613C136.64 119.729 130.043 122.265 121.942 122.265C113.842 122.265 107.244 119.746 107.244 116.613C107.244 113.48 113.837 110.957 121.942 110.957C130.047 110.957 136.64 113.476 136.64 116.613ZM140 116.613C140 112.775 131.912 109.663 121.942 109.663C111.973 109.663 103.885 112.775 103.885 116.613C103.885 120.451 111.973 123.559 121.942 123.559C131.912 123.559 140 120.447 140 116.613Z" fill="#FFC022"/>
<path d="M109.176 116.613C109.176 113.904 114.9 111.704 121.934 111.704C128.968 111.704 134.696 113.904 134.696 116.613C134.696 119.322 128.972 121.518 121.934 121.518C114.895 121.518 109.176 119.317 109.176 116.613ZM134.133 116.613C134.133 114.026 128.674 111.918 121.934 111.918C115.194 111.918 109.734 114.018 109.734 116.613C109.734 119.208 115.194 121.304 121.934 121.304C128.674 121.304 134.133 119.2 134.133 116.613Z" fill="#FFC022"/>
<path d="M120.296 114.715L113.309 116.726V118.121L120.448 115.916C121.349 116.572 122.389 117.013 123.488 117.205C123.593 117.23 123.702 117.247 123.811 117.268V118.528H126.402V117.566C126.969 117.591 127.498 117.591 127.952 117.566V118.507H130.547V114.769H127.952V116.571C127.435 116.59 126.918 116.583 126.402 116.55V114.769H123.811V116.029C123.22 115.824 122.7 115.454 122.312 114.963L120.296 114.715Z" fill="#FFC022"/>
<path d="M103.871 112.947C103.871 116.781 111.959 119.893 121.929 119.893C131.898 119.893 139.986 116.781 139.986 112.947V109.663H103.871V112.947Z" fill="#FF931E"/>
<path d="M120.217 111.351V119.859C120.784 119.88 121.355 119.893 121.934 119.893V111.351H120.217Z" fill="#D17918"/>
<path d="M116.732 111.351V119.599C117.67 119.708 118.633 119.786 119.622 119.834V111.351H116.732Z" fill="#D17918"/>
<path d="M116.016 119.511V109.676H103.871V112.947C103.871 115.983 108.948 118.566 116.016 119.511Z" fill="#D17918"/>
<path d="M128.371 111.351V119.439L128.959 119.347V111.368L128.371 111.351Z" fill="#D17918"/>
<path d="M126.12 119.704L126.691 119.666V111.351H126.104L126.12 119.704Z" fill="#D17918"/>
<path d="M123.273 111.351V119.872C123.563 119.872 123.849 119.872 124.134 119.838V111.351H123.273Z" fill="#D17918"/>
<path d="M121.932 116.613C111.959 116.613 103.875 113.501 103.875 109.663C103.875 105.825 111.963 102.717 121.932 102.717C131.902 102.717 139.99 105.829 139.99 109.663C139.99 113.497 131.91 116.613 121.932 116.613Z" fill="#FF931E"/>
<path style="mix-blend-mode:multiply" opacity="0.4" d="M132.113 115.404C131.601 115.404 131.085 115.429 130.56 115.429C120.582 115.429 112.502 112.321 112.502 108.483C112.502 106.098 115.631 103.994 120.389 102.747C111.15 103.049 103.881 106.031 103.881 109.663C103.881 113.501 111.969 116.613 121.938 116.613C125.367 116.639 128.786 116.232 132.113 115.404Z" fill="url(#paint4_linear_48_54679)"/>
<path d="M139.982 109.881C139.688 106.144 131.722 103.162 121.925 103.162C112.127 103.162 104.174 106.157 103.867 109.881C104.165 113.615 112.127 116.6 121.925 116.6C131.722 116.6 139.709 113.615 139.982 109.881ZM121.925 115.761C113.816 115.761 107.227 113.22 107.227 110.104C107.227 106.988 113.82 104.447 121.925 104.447C130.029 104.447 136.623 106.967 136.623 110.104C136.623 113.241 130.05 115.752 121.933 115.752L121.925 115.761Z" fill="#D17918"/>
<path d="M120.296 108.701L113.309 110.709V112.107L120.448 109.902C121.349 110.559 122.389 111 123.488 111.192C123.593 111.217 123.702 111.238 123.811 111.255V112.514H126.402V111.557C126.969 111.582 127.498 111.582 127.952 111.557V112.498H130.547V108.748H127.952V110.553C127.532 110.553 126.982 110.553 126.402 110.532V108.748H123.811V110.007C123.219 109.804 122.699 109.433 122.312 108.941L120.296 108.701Z" fill="#D17918"/>
<path d="M136.64 109.663C136.64 112.783 130.043 115.32 121.942 115.32C113.842 115.32 107.244 112.8 107.244 109.663C107.244 106.526 113.837 104.011 121.942 104.011C130.047 104.011 136.64 106.53 136.64 109.663ZM140 109.663C140 105.829 131.912 102.717 121.942 102.717C111.973 102.717 103.885 105.829 103.885 109.663C103.885 113.497 111.973 116.613 121.942 116.613C131.912 116.613 140 113.501 140 109.663Z" fill="#FFC022"/>
<path d="M109.176 109.663C109.176 106.959 114.9 104.758 121.934 104.758C128.968 104.758 134.696 106.959 134.696 109.663C134.696 112.367 128.972 114.572 121.934 114.572C114.895 114.572 109.176 112.372 109.176 109.663ZM134.133 109.663C134.133 107.076 128.674 104.972 121.934 104.972C115.194 104.972 109.734 107.072 109.734 109.663C109.734 112.254 115.194 114.358 121.934 114.358C128.674 114.358 134.133 112.25 134.133 109.663Z" fill="#FFC022"/>
<path d="M120.296 107.765L113.309 109.776V111.17L120.448 108.961C121.348 109.621 122.388 110.063 123.488 110.255L123.811 110.318V111.578H126.402V110.62C126.969 110.645 127.498 110.65 127.952 110.641V111.578H130.547V107.84H127.952V109.646C127.435 109.665 126.918 109.658 126.402 109.625V107.823H123.811V109.083C123.22 108.881 122.699 108.512 122.312 108.021L120.296 107.765Z" fill="#FFC022"/>
<path d="M103.871 106.001C103.871 109.835 111.959 112.947 121.929 112.947C131.898 112.947 139.986 109.835 139.986 106.001V102.717H103.871V106.001Z" fill="#FF931E"/>
<path d="M120.217 104.405V112.913C120.784 112.934 121.355 112.947 121.934 112.947V104.405H120.217Z" fill="#D17918"/>
<path d="M116.732 104.405V112.653C117.67 112.759 118.633 112.838 119.622 112.888V104.405H116.732Z" fill="#D17918"/>
<path d="M116.016 112.561V102.73H103.871V106.001C103.871 109.037 108.948 111.62 116.016 112.561Z" fill="#D17918"/>
<path d="M128.371 104.405V112.489L128.959 112.401V104.422L128.371 104.405Z" fill="#D17918"/>
<path d="M126.121 112.758L126.709 112.699V104.405H126.121V112.758Z" fill="#D17918"/>
<path d="M123.273 104.405V112.947L124.134 112.913V104.405H123.273Z" fill="#D17918"/>
<path d="M121.932 109.663C111.959 109.663 103.875 106.556 103.875 102.717C103.875 98.879 111.963 95.7715 121.932 95.7715C131.902 95.7715 139.99 98.879 139.99 102.717C139.99 106.556 131.91 109.663 121.932 109.663Z" fill="#FF931E"/>
<path style="mix-blend-mode:multiply" opacity="0.4" d="M132.113 108.458C131.601 108.458 131.085 108.483 130.56 108.483C120.582 108.483 112.502 105.371 112.502 101.537C112.502 99.1519 115.631 97.0481 120.389 95.7966C111.15 96.099 103.881 99.0806 103.881 102.717C103.881 106.555 111.969 109.663 121.938 109.663C125.367 109.69 128.786 109.285 132.113 108.458Z" fill="url(#paint5_linear_48_54679)"/>
<path d="M139.982 102.931C139.688 99.194 131.722 96.2124 121.925 96.2124C112.127 96.2124 104.174 99.2066 103.867 102.931C104.165 106.669 112.127 109.65 121.925 109.65C131.722 109.65 139.709 106.669 139.982 102.931ZM121.925 108.811C113.816 108.811 107.227 106.291 107.227 103.158C107.227 100.025 113.82 97.5016 121.925 97.5016C130.029 97.5016 136.623 100.021 136.623 103.158C136.623 106.295 130.05 108.802 121.933 108.802L121.925 108.811Z" fill="#D17918"/>
<path d="M120.296 101.751L113.309 103.759V105.157L120.448 102.952C121.349 103.609 122.389 104.05 123.488 104.242C123.593 104.267 123.702 104.284 123.811 104.305V105.565H126.402V104.611C126.969 104.636 127.498 104.636 127.952 104.611V105.548H130.547V101.814H127.952V103.616C127.436 103.642 126.919 103.642 126.402 103.616V101.835H123.811V103.095C123.225 102.888 122.709 102.518 122.325 102.029L120.296 101.751Z" fill="#D17918"/>
<path d="M136.64 102.717C136.64 105.833 130.043 108.374 121.942 108.374C113.842 108.374 107.244 105.833 107.244 102.717C107.244 99.6013 113.837 97.0607 121.942 97.0607C130.047 97.0607 136.64 99.5803 136.64 102.717ZM140 102.717C140 98.879 131.912 95.7715 121.942 95.7715C111.973 95.7715 103.885 98.879 103.885 102.717C103.885 106.556 111.973 109.663 121.942 109.663C131.912 109.663 140 106.556 140 102.717Z" fill="#FFC022"/>
<path d="M109.176 102.717C109.176 100.009 114.9 97.8081 121.934 97.8081C128.968 97.8081 134.696 100.009 134.696 102.717C134.696 105.426 128.972 107.626 121.934 107.626C114.895 107.626 109.176 105.422 109.176 102.717ZM134.133 102.717C134.133 100.13 128.674 98.0265 121.934 98.0265C115.194 98.0265 109.734 100.126 109.734 102.717C109.734 105.308 115.194 107.408 121.934 107.408C128.674 107.408 134.133 105.304 134.133 102.717Z" fill="#FFC022"/>
<path d="M120.296 100.819L113.309 102.826V104.221L120.448 102.016C121.355 102.668 122.399 103.103 123.501 103.288L123.824 103.356V104.615H126.415V103.658C126.982 103.683 127.511 103.687 127.964 103.658V104.599H130.56V100.861H127.952V102.667C127.532 102.667 126.982 102.667 126.402 102.646V100.861H123.811V102.121C123.218 101.919 122.697 101.548 122.312 101.054L120.296 100.819Z" fill="#FFC022"/>
<path d="M103.871 99.0512C103.871 102.889 111.959 105.997 121.929 105.997C131.898 105.997 139.986 102.889 139.986 99.0512V95.7715H103.871V99.0512Z" fill="#FF931E"/>
<path d="M120.217 97.4551V105.967C120.784 105.988 121.355 105.997 121.934 105.997V97.4551H120.217Z" fill="#D17918"/>
<path d="M116.732 97.4551V105.703C117.67 105.812 118.633 105.89 119.622 105.938V97.4551H116.732Z" fill="#D17918"/>
<path d="M116.016 105.615V95.7842H103.871V99.0513C103.871 102.092 108.948 104.674 116.016 105.615Z" fill="#D17918"/>
<path d="M128.371 97.4551V105.543L128.959 105.455V97.4551H128.371Z" fill="#D17918"/>
<path d="M126.121 105.808L126.709 105.753V97.4551H126.121V105.808Z" fill="#D17918"/>
<path d="M123.273 97.4551V105.976L124.134 105.946V97.4551H123.273Z" fill="#D17918"/>
<path d="M121.932 102.717C111.959 102.717 103.875 99.6056 103.875 95.7715C103.875 91.9375 111.963 88.8215 121.932 88.8215C131.902 88.8215 139.99 91.9333 139.99 95.7715C139.99 99.6098 131.91 102.717 121.932 102.717Z" fill="#FF931E"/>
<path style="mix-blend-mode:multiply" opacity="0.4" d="M132.113 101.508C131.601 101.508 131.085 101.537 130.56 101.537C120.582 101.537 112.502 98.4255 112.502 94.5914C112.502 92.2062 115.631 90.1023 120.389 88.8508C111.15 89.1532 103.881 92.1348 103.881 95.7714C103.881 99.6055 111.969 102.717 121.938 102.717C125.367 102.745 128.786 102.339 132.113 101.508Z" fill="url(#paint6_linear_48_54679)"/>
<path d="M139.982 95.9854C139.688 92.2479 131.722 89.2664 121.925 89.2664C112.127 89.2664 104.174 92.2605 103.867 95.9854C104.165 99.7229 112.127 102.704 121.925 102.704C131.722 102.704 139.709 99.7229 139.982 95.9854ZM121.925 101.865C113.816 101.865 107.227 99.3449 107.227 96.208C107.227 93.071 113.82 90.5556 121.925 90.5556C130.029 90.5556 136.623 93.0752 136.623 96.208C136.623 99.3407 130.05 101.856 121.933 101.856L121.925 101.865Z" fill="#D17918"/>
<path d="M120.296 94.8057L113.309 96.813V98.2114L120.448 96.0067C121.349 96.6628 122.389 97.1038 123.488 97.2959L123.811 97.3589V98.6187H126.402V97.6613C126.969 97.6865 127.498 97.6907 127.952 97.6613V98.6019H130.547V94.8645H127.952V96.6702C127.532 96.6702 126.982 96.6702 126.402 96.6492V94.8645H123.811V96.1243C123.22 95.9221 122.699 95.5532 122.312 95.0618L120.296 94.8057Z" fill="#D17918"/>
<path d="M136.64 95.7715C136.64 98.8875 130.043 101.424 121.942 101.424C113.842 101.424 107.244 98.9043 107.244 95.7715C107.244 92.6388 113.837 90.115 121.942 90.115C130.047 90.115 136.64 92.6346 136.64 95.7715ZM140 95.7715C140 91.9333 131.912 88.8215 121.942 88.8215C111.973 88.8215 103.885 91.9333 103.885 95.7715C103.885 99.6098 111.973 102.717 121.942 102.717C131.912 102.717 140 99.6056 140 95.7715Z" fill="#FFC022"/>
<path d="M109.176 95.7714C109.176 93.0628 114.9 90.8623 121.934 90.8623C128.968 90.8623 134.696 93.0628 134.696 95.7714C134.696 98.48 128.972 100.676 121.934 100.676C114.895 100.676 109.176 98.4758 109.176 95.7714ZM134.133 95.7714C134.133 93.1846 128.674 91.0765 121.934 91.0765C115.194 91.0765 109.734 93.1762 109.734 95.7714C109.734 98.3666 115.194 100.462 121.934 100.462C128.674 100.462 134.133 98.3582 134.133 95.7714Z" fill="#FFC022"/>
<path d="M120.296 93.8733L113.309 95.8806V97.2748L120.448 95.0701C121.349 95.7262 122.389 96.1673 123.488 96.3593C123.593 96.3845 123.702 96.4013 123.811 96.4223V97.6821H126.402V96.7247C126.969 96.7499 127.498 96.7499 127.952 96.7247V97.6653H130.547V93.9279H127.952V95.7294C127.435 95.7489 126.918 95.7419 126.402 95.7084V93.9279H123.811V95.1877C123.22 94.9825 122.7 94.6124 122.312 94.1211L120.296 93.8733Z" fill="#FFC022"/>
<path d="M103.871 92.1055C103.871 95.9395 111.959 99.0513 121.929 99.0513C131.898 99.0513 139.986 95.9395 139.986 92.1055V88.8215H103.871V92.1055Z" fill="#FF931E"/>
<path d="M120.217 90.5095V99.0175C120.784 99.0385 121.355 99.0511 121.934 99.0511V90.5095H120.217Z" fill="#D17918"/>
<path d="M116.732 90.5095V98.7571C117.67 98.8663 118.633 98.9447 119.622 98.9923V90.5095H116.732Z" fill="#D17918"/>
<path d="M116.016 98.669V88.834H103.871V92.1053C103.871 95.1457 108.948 97.7241 116.016 98.669Z" fill="#D17918"/>
<path d="M128.371 90.5095V98.5976L128.959 98.5052V90.5263L128.371 90.5095Z" fill="#D17918"/>
<path d="M126.121 98.8621L126.709 98.8033V90.5095H126.121V98.8621Z" fill="#D17918"/>
<path d="M123.273 90.5095V99.0301L124.134 99.0007V90.5095H123.273Z" fill="#D17918"/>
<path d="M121.932 95.7713C111.959 95.7713 103.875 92.6595 103.875 88.8213C103.875 84.983 111.963 81.8755 121.932 81.8755C131.902 81.8755 139.99 84.9872 139.99 88.8213C139.99 92.6553 131.91 95.7713 121.932 95.7713Z" fill="#FF931E"/>
<path style="mix-blend-mode:multiply" opacity="0.4" d="M132.113 94.5618C131.601 94.5618 131.085 94.5912 130.56 94.5912C120.582 94.5912 112.502 91.4794 112.502 87.6412C112.502 85.2559 115.631 83.152 120.389 81.9048C111.15 82.2071 103.881 85.1887 103.881 88.8212C103.881 92.6594 111.969 95.7712 121.938 95.7712C125.367 95.7969 128.786 95.3906 132.113 94.5618Z" fill="url(#paint7_linear_48_54679)"/>
<path d="M139.982 89.0398C139.688 85.3024 131.722 82.3208 121.925 82.3208C112.127 82.3208 104.174 85.315 103.867 89.0398C104.165 92.7731 112.127 95.7589 121.925 95.7589C131.722 95.7589 139.709 92.7899 139.982 89.0398ZM121.925 94.919C113.816 94.919 107.227 92.3784 107.227 89.2624C107.227 86.1465 113.82 83.6058 121.925 83.6058C130.029 83.6058 136.623 86.1255 136.623 89.2624C136.623 92.3994 130.05 94.9106 121.933 94.9106L121.925 94.919Z" fill="#D17918"/>
<path d="M120.296 87.8596L113.309 89.8501V91.2443L120.448 89.0396C121.349 89.6958 122.389 90.1368 123.488 90.3289C123.593 90.3541 123.702 90.3751 123.811 90.3919V91.6517H126.402V90.69C126.969 90.7152 127.498 90.7152 127.952 90.69V91.6307H130.547V87.8932H127.952V89.699C127.532 89.699 126.982 89.699 126.402 89.678V87.9184H123.811V89.1782C123.219 88.9745 122.699 88.6041 122.312 88.1116L120.296 87.8596Z" fill="#D17918"/>
<path d="M136.64 88.8213C136.64 91.9414 130.043 94.4779 121.942 94.4779C113.842 94.4779 107.244 91.9582 107.244 88.8213C107.244 85.6843 113.837 83.1689 121.942 83.1689C130.047 83.1689 136.64 85.6885 136.64 88.8213ZM140 88.8213C140 84.9872 131.912 81.8755 121.942 81.8755C111.973 81.8755 103.885 84.9872 103.885 88.8213C103.885 92.6553 111.973 95.7713 121.942 95.7713C131.912 95.7713 140 92.6595 140 88.8213Z" fill="#FFC022"/>
<path d="M109.176 88.8212C109.176 86.1167 114.9 83.9163 121.934 83.9163C128.968 83.9163 134.696 86.1167 134.696 88.8212C134.696 91.5256 128.972 93.7303 121.934 93.7303C114.895 93.7303 109.176 91.5298 109.176 88.8212ZM134.133 88.8212C134.133 86.2343 128.674 84.1304 121.934 84.1304C115.194 84.1304 109.734 86.2301 109.734 88.8212C109.734 91.4122 115.194 93.5161 121.934 93.5161C128.674 93.5161 134.133 91.408 134.133 88.8212Z" fill="#FFC022"/>
<path d="M120.296 86.9106L113.309 88.9222V90.3164L120.448 88.1075C121.349 88.779 122.394 89.2319 123.501 89.4303L123.824 89.4933V90.7531H126.415V89.7956C126.982 89.8208 127.511 89.825 127.964 89.7956V90.7321H130.56V86.9946H127.952V88.8004C127.435 88.8198 126.918 88.8128 126.402 88.7794V86.9946H123.811V88.2545C123.22 88.0492 122.7 87.6791 122.312 87.1878L120.296 86.9106Z" fill="#FFC022"/>
<path d="M87.5449 140.89C87.5449 144.724 95.633 147.836 105.602 147.836C115.572 147.836 123.66 144.724 123.66 140.89V137.606H87.5449V140.89Z" fill="#FF931E"/>
<path d="M103.889 139.294V147.802C104.456 147.823 105.027 147.835 105.606 147.835V139.294H103.889Z" fill="#D17918"/>
<path d="M100.404 139.294V147.541C101.341 147.651 102.302 147.726 103.293 147.776V139.294H100.404Z" fill="#D17918"/>
<path d="M99.6896 147.453V137.618H87.5449V140.89C87.5449 143.926 92.622 146.509 99.6896 147.453Z" fill="#D17918"/>
<path d="M112.043 139.294V147.382L112.631 147.294V139.315L112.043 139.294Z" fill="#D17918"/>
<path d="M109.793 147.646L110.381 147.588V139.294H109.793V147.646Z" fill="#D17918"/>
<path d="M106.955 139.294V147.802L107.795 147.768V139.294H106.955Z" fill="#D17918"/>
<path d="M105.606 144.552C95.6327 144.552 87.5488 141.444 87.5488 137.606C87.5488 133.768 95.6369 130.66 105.606 130.66C115.576 130.66 123.664 133.768 123.664 137.606C123.664 141.444 115.584 144.552 105.606 144.552Z" fill="#FF931E"/>
<path style="mix-blend-mode:multiply" opacity="0.4" d="M115.774 143.347C115.261 143.347 114.745 143.372 114.22 143.372C104.242 143.372 96.1624 140.264 96.1624 136.426C96.1624 134.041 99.2909 131.937 104.049 130.685C94.8102 130.988 87.541 133.969 87.541 137.606C87.541 141.444 95.6291 144.552 105.598 144.552C109.027 144.579 112.446 144.174 115.774 143.347Z" fill="url(#paint8_linear_48_54679)"/>
<path d="M123.656 137.82C123.362 134.082 115.396 131.101 105.598 131.101C95.8012 131.101 87.8476 134.095 87.541 137.82C87.8392 141.557 95.8012 144.539 105.598 144.539C115.396 144.539 123.362 141.557 123.656 137.82ZM105.598 143.699C97.4894 143.699 90.9005 141.179 90.9005 138.047C90.9005 134.914 97.4936 132.39 105.598 132.39C113.703 132.39 120.296 134.91 120.296 138.047C120.296 141.184 113.716 143.691 105.607 143.691L105.598 143.699Z" fill="#D17918"/>
<path d="M103.968 136.64L96.9805 138.651V140.046L104.119 137.841C105.021 138.497 106.061 138.938 107.16 139.13C107.265 139.155 107.374 139.172 107.483 139.193V140.453H110.074V139.5C110.641 139.525 111.17 139.525 111.624 139.5V140.436H114.219V136.703H111.624V138.504C111.107 138.524 110.59 138.517 110.074 138.483V136.703H107.483V137.963C106.891 137.759 106.371 137.389 105.984 136.896L103.968 136.64Z" fill="#D17918"/>
<path d="M120.312 137.606C120.312 140.722 113.715 143.263 105.614 143.263C97.5134 143.263 90.9162 140.722 90.9162 137.606C90.9162 134.49 97.5092 131.949 105.614 131.949C113.719 131.949 120.312 134.469 120.312 137.606ZM123.671 137.606C123.671 133.768 115.583 130.66 105.614 130.66C95.6447 130.66 87.5566 133.768 87.5566 137.606C87.5566 141.444 95.6447 144.552 105.614 144.552C115.583 144.552 123.671 141.444 123.671 137.606Z" fill="#FFC022"/>
<path d="M92.8496 137.606C92.8496 134.901 98.5734 132.697 105.607 132.697C112.641 132.697 118.369 134.901 118.369 137.606C118.369 140.31 112.646 142.515 105.607 142.515C98.5692 142.515 92.8496 140.31 92.8496 137.606ZM117.807 137.606C117.807 135.019 112.347 132.915 105.628 132.915C98.9093 132.915 93.4291 135.015 93.4291 137.606C93.4291 140.197 98.8883 142.297 105.628 142.297C112.368 142.297 117.807 140.193 117.807 137.606Z" fill="#FFC022"/>
<path d="M103.968 135.708L96.9805 137.723V139.117L104.119 136.913C105.02 137.571 106.061 138.012 107.16 138.202L107.483 138.269V139.529H110.074V138.563C110.641 138.588 111.17 138.593 111.624 138.563V139.504H114.219V135.766H111.624V137.572C111.204 137.572 110.654 137.572 110.074 137.551V135.766H107.483V137.026C106.89 136.824 106.369 136.453 105.984 135.959L103.968 135.708Z" fill="#FFC022"/>
<path d="M87.5449 133.944C87.5449 137.782 95.633 140.894 105.602 140.894C115.572 140.894 123.66 137.782 123.66 133.944V130.664H87.5449V133.944Z" fill="#FF931E"/>
<path d="M103.889 132.344V140.856C104.456 140.877 105.027 140.89 105.606 140.89V132.344H103.889Z" fill="#D17918"/>
<path d="M100.404 132.344V140.591C101.342 140.701 102.305 140.78 103.293 140.831V132.344H100.404Z" fill="#D17918"/>
<path d="M99.6896 140.503V130.673H87.5449V133.944C87.5449 136.98 92.622 139.563 99.6896 140.503Z" fill="#D17918"/>
<path d="M112.043 132.344V140.432L112.631 140.344V132.344H112.043Z" fill="#D17918"/>
<path d="M109.793 140.696L110.381 140.642V132.344H109.793V140.696Z" fill="#D17918"/>
<path d="M106.955 132.344V140.864L107.795 140.835V132.344H106.955Z" fill="#D17918"/>
<path d="M105.606 137.606C95.6327 137.606 87.5488 134.494 87.5488 130.66C87.5488 126.826 95.6369 123.71 105.606 123.71C115.576 123.71 123.664 126.822 123.664 130.66C123.664 134.498 115.584 137.606 105.606 137.606Z" fill="#FF931E"/>
<path style="mix-blend-mode:multiply" opacity="0.4" d="M115.774 136.396C115.261 136.396 114.745 136.426 114.22 136.426C104.242 136.426 96.1624 133.314 96.1624 129.48C96.1624 127.095 99.2909 124.991 104.049 123.739C94.8102 124.042 87.541 127.023 87.541 130.66C87.541 134.494 95.6291 137.606 105.598 137.606C109.028 137.633 112.446 137.227 115.774 136.396Z" fill="url(#paint9_linear_48_54679)"/>
<path d="M123.656 130.874C123.362 127.137 115.396 124.155 105.598 124.155C95.8012 124.155 87.8476 127.149 87.541 130.874C87.8392 134.612 95.8012 137.593 105.598 137.593C115.396 137.593 123.362 134.612 123.656 130.874ZM105.598 136.753C97.4894 136.753 90.9005 134.234 90.9005 131.097C90.9005 127.96 97.4936 125.444 105.598 125.444C113.703 125.444 120.296 127.964 120.296 131.097C120.296 134.229 113.716 136.745 105.607 136.745L105.598 136.753Z" fill="#D17918"/>
<path d="M103.968 129.694L96.9805 131.701V133.104L104.119 130.899C105.021 131.555 106.061 131.996 107.16 132.189L107.483 132.252V133.511H110.074V132.554C110.641 132.579 111.17 132.583 111.624 132.575V133.511H114.219V129.744H111.624V131.55C111.107 131.57 110.59 131.563 110.074 131.529V129.744H107.483V131.004C106.891 130.802 106.371 130.433 105.984 129.942L103.968 129.694Z" fill="#D17918"/>
<path d="M120.312 130.66C120.312 133.776 113.715 136.312 105.614 136.312C97.5134 136.312 90.9162 133.793 90.9162 130.66C90.9162 127.527 97.5092 125.003 105.614 125.003C113.719 125.003 120.312 127.523 120.312 130.66ZM123.671 130.66C123.671 126.822 115.583 123.71 105.614 123.71C95.6447 123.71 87.5566 126.822 87.5566 130.66C87.5566 134.498 95.6447 137.606 105.614 137.606C115.583 137.606 123.671 134.494 123.671 130.66Z" fill="#FFC022"/>
<path d="M92.8496 130.66C92.8496 127.951 98.5734 125.751 105.607 125.751C112.641 125.751 118.369 127.951 118.369 130.66C118.369 133.368 112.646 135.565 105.607 135.565C98.5692 135.565 92.8496 133.364 92.8496 130.66ZM117.807 130.66C117.807 128.073 112.347 125.965 105.628 125.965C98.9093 125.965 93.4291 128.065 93.4291 130.66C93.4291 133.255 98.8883 135.351 105.628 135.351C112.368 135.351 117.807 133.247 117.807 130.66Z" fill="#FFC022"/>
<path d="M103.968 128.762L96.9805 130.769V132.163L104.119 129.959C105.021 130.615 106.061 131.056 107.16 131.248C107.265 131.273 107.374 131.29 107.483 131.311V132.571H110.074V131.613C110.641 131.638 111.17 131.638 111.624 131.613V132.554H114.219V128.816H111.624V130.618C111.108 130.644 110.59 130.644 110.074 130.618V128.821H107.483V130.08C106.892 129.875 106.372 129.505 105.984 129.014L103.968 128.762Z" fill="#FFC022"/>
<path d="M87.5449 126.994C87.5449 130.828 95.633 133.94 105.602 133.94C115.572 133.94 123.66 130.828 123.66 126.994V123.71H87.5449V126.994Z" fill="#FF931E"/>
<path d="M103.889 125.398V133.91C104.456 133.91 105.027 133.94 105.606 133.94V125.398H103.889Z" fill="#D17918"/>
<path d="M100.404 125.398V133.646C101.342 133.755 102.305 133.833 103.293 133.881V125.398H100.404Z" fill="#D17918"/>
<path d="M99.6896 133.558V123.727H87.5449V126.994C87.5449 130.034 92.622 132.613 99.6896 133.558Z" fill="#D17918"/>
<path d="M112.043 125.398V133.486L112.631 133.398V125.398H112.043Z" fill="#D17918"/>
<path d="M109.793 133.751L110.381 133.692V125.398H109.793V133.751Z" fill="#D17918"/>
<path d="M106.955 125.398V133.919L107.795 133.889V125.398H106.955Z" fill="#D17918"/>
<path d="M105.606 130.66C95.6327 130.66 87.5488 127.548 87.5488 123.71C87.5488 119.872 95.6369 116.764 105.606 116.764C115.576 116.764 123.664 119.876 123.664 123.71C123.664 127.544 115.584 130.66 105.606 130.66Z" fill="#FF931E"/>
<path style="mix-blend-mode:multiply" opacity="0.4" d="M115.774 129.45C115.261 129.45 114.745 129.48 114.22 129.48C104.242 129.48 96.1624 126.368 96.1624 122.53C96.1624 120.145 99.2909 118.041 104.049 116.793C94.8102 117.096 87.541 120.077 87.541 123.71C87.541 127.548 95.6291 130.66 105.598 130.66C109.027 130.686 112.446 130.279 115.774 129.45Z" fill="url(#paint10_linear_48_54679)"/>
<path d="M123.656 123.929C123.362 120.191 115.396 117.209 105.598 117.209C95.8012 117.209 87.8476 120.204 87.541 123.929C87.8392 127.662 95.8012 130.648 105.598 130.648C115.396 130.648 123.362 127.645 123.656 123.929ZM105.598 129.808C97.4894 129.808 90.9005 127.267 90.9005 124.151C90.9005 121.035 97.4936 118.494 105.598 118.494C113.703 118.494 120.296 121.035 120.296 124.151C120.296 127.267 113.716 129.799 105.607 129.799L105.598 129.808Z" fill="#D17918"/>
<path d="M103.968 122.748L96.9805 124.756V126.15L104.119 123.945C105.021 124.601 106.061 125.042 107.16 125.234C107.265 125.26 107.374 125.281 107.483 125.297V126.557H110.074V125.587C110.641 125.612 111.17 125.616 111.624 125.587V126.528H114.219V122.79H111.624V124.596C111.204 124.596 110.654 124.596 110.074 124.596V122.811H107.483V124.071C106.891 123.867 106.371 123.497 105.984 123.004L103.968 122.748Z" fill="#D17918"/>
<path d="M120.312 123.71C120.312 126.83 113.715 129.367 105.614 129.367C97.5134 129.367 90.9162 126.847 90.9162 123.71C90.9162 120.573 97.5092 118.058 105.614 118.058C113.719 118.058 120.312 120.577 120.312 123.71ZM123.671 123.71C123.671 119.876 115.583 116.764 105.614 116.764C95.6447 116.764 87.5566 119.876 87.5566 123.71C87.5566 127.544 95.6447 130.66 105.614 130.66C115.583 130.66 123.671 127.548 123.671 123.71Z" fill="#FFC022"/>
<path d="M92.8496 123.71C92.8496 121.005 98.5734 118.805 105.607 118.805C112.641 118.805 118.369 121.005 118.369 123.71C118.369 126.414 112.646 128.619 105.607 128.619C98.5692 128.619 92.8496 126.418 92.8496 123.71ZM117.807 123.71C117.807 121.123 112.347 119.019 105.628 119.019C98.9093 119.019 93.4291 121.119 93.4291 123.71C93.4291 126.301 98.8883 128.405 105.628 128.405C112.368 128.405 117.807 126.297 117.807 123.71Z" fill="#FFC022"/>
<path d="M103.968 121.812L96.9805 123.823V125.217L104.119 123.013C105.021 123.669 106.061 124.11 107.16 124.302L107.483 124.365V125.625H110.074V124.672C110.641 124.693 111.17 124.697 111.624 124.672V125.608H114.219V121.871H111.624V123.676C111.107 123.696 110.59 123.689 110.074 123.655V121.871H107.483V123.13C106.892 122.925 106.372 122.555 105.984 122.064L103.968 121.812Z" fill="#FFC022"/>
<path d="M87.5449 120.048C87.5449 123.882 95.633 126.994 105.602 126.994C115.572 126.994 123.66 123.882 123.66 120.048V116.764H87.5449V120.048Z" fill="#FF931E"/>
<path d="M103.889 118.452V126.96C104.456 126.981 105.027 126.994 105.606 126.994V118.452H103.889Z" fill="#D17918"/>
<path d="M100.404 118.452V126.7C101.341 126.809 102.302 126.885 103.293 126.935V118.452H100.404Z" fill="#D17918"/>
<path d="M99.6896 126.612V116.777H87.5449V120.048C87.5449 123.084 92.622 125.667 99.6896 126.612Z" fill="#D17918"/>
<path d="M112.043 118.452V126.536L112.631 126.448V118.469L112.043 118.452Z" fill="#D17918"/>
<path d="M109.793 126.805L110.381 126.746V118.452H109.793V126.805Z" fill="#D17918"/>
<path d="M106.955 118.452V126.973L107.795 126.939V118.452H106.955Z" fill="#D17918"/>
<path d="M105.606 123.71C95.6327 123.71 87.5488 120.602 87.5488 116.764C87.5488 112.926 95.6369 109.818 105.606 109.818C115.576 109.818 123.664 112.926 123.664 116.764C123.664 120.602 115.584 123.71 105.606 123.71Z" fill="#FF931E"/>
<path style="mix-blend-mode:multiply" opacity="0.4" d="M115.774 122.505C115.261 122.505 114.745 122.53 114.22 122.53C104.242 122.53 96.1624 119.422 96.1624 115.584C96.1624 113.199 99.2909 111.095 104.049 109.844C94.8102 110.146 87.541 113.127 87.541 116.764C87.541 120.602 95.6291 123.71 105.598 123.71C109.027 123.737 112.446 123.332 115.774 122.505Z" fill="url(#paint11_linear_48_54679)"/>
<path d="M123.656 116.978C123.362 113.245 115.396 110.259 105.598 110.259C95.8012 110.259 87.8476 113.258 87.541 116.978C87.8392 120.716 95.8012 123.697 105.598 123.697C115.396 123.697 123.362 120.716 123.656 116.978ZM105.598 122.857C97.4894 122.857 90.9005 120.338 90.9005 117.205C90.9005 114.072 97.4936 111.548 105.598 111.548C113.703 111.548 120.296 114.068 120.296 117.205C120.296 120.342 113.716 122.849 105.607 122.849L105.598 122.857Z" fill="#D17918"/>
<path d="M103.968 115.798L96.9805 117.81V119.204L104.119 116.999C105.021 117.655 106.061 118.096 107.16 118.289C107.265 118.314 107.374 118.331 107.483 118.352V119.611H110.074V118.658C110.641 118.683 111.17 118.683 111.624 118.658V119.595H114.219V115.861H111.624V117.663C111.107 117.682 110.59 117.675 110.074 117.642V115.861H107.483V117.121C106.891 116.917 106.371 116.547 105.984 116.054L103.968 115.798Z" fill="#D17918"/>
<path d="M120.312 116.764C120.312 119.884 113.715 122.421 105.614 122.421C97.5134 122.421 90.9162 119.901 90.9162 116.764C90.9162 113.627 97.5092 111.108 105.614 111.108C113.719 111.108 120.312 113.648 120.312 116.764ZM123.671 116.764C123.671 112.926 115.583 109.818 105.614 109.818C95.6447 109.818 87.5566 112.926 87.5566 116.764C87.5566 120.602 95.6447 123.71 105.614 123.71C115.583 123.71 123.671 120.602 123.671 116.764Z" fill="#FFC022"/>
<path d="M92.8496 116.764C92.8496 114.06 98.5734 111.855 105.607 111.855C112.641 111.855 118.369 114.06 118.369 116.764C118.369 119.468 112.646 121.673 105.607 121.673C98.5692 121.673 92.8496 119.468 92.8496 116.764ZM117.807 116.764C117.807 114.177 112.347 112.073 105.628 112.073C98.9093 112.073 93.4291 114.173 93.4291 116.764C93.4291 119.355 98.8883 121.455 105.628 121.455C112.368 121.455 117.807 119.351 117.807 116.764Z" fill="#FFC022"/>
<path d="M103.968 114.866L96.9805 116.873V118.272L104.119 116.063C105.02 116.721 106.061 117.162 107.16 117.352L107.483 117.419V118.679H110.074V117.722C110.641 117.747 111.17 117.751 111.624 117.722V118.662H114.219V114.925H111.624V116.726C111.204 116.726 110.654 116.726 110.074 116.705V114.921H107.483V116.18C106.89 115.978 106.369 115.607 105.984 115.114L103.968 114.866Z" fill="#FFC022"/>
<path d="M87.5449 113.098C87.5449 116.936 95.633 120.048 105.602 120.048C115.572 120.048 123.66 116.936 123.66 113.098V109.818H87.5449V113.098Z" fill="#FF931E"/>
<path d="M103.889 111.502V120.015C104.456 120.036 105.027 120.048 105.606 120.048V111.502H103.889Z" fill="#D17918"/>
<path d="M100.404 111.502V119.754C101.342 119.861 102.305 119.939 103.293 119.989V111.502H100.404Z" fill="#D17918"/>
<path d="M99.6896 119.666V109.831H87.5449V113.098C87.5449 116.138 92.622 118.721 99.6896 119.666Z" fill="#D17918"/>
<path d="M112.043 111.502V119.59L112.631 119.502V111.502H112.043Z" fill="#D17918"/>
<path d="M109.793 119.855L110.381 119.8V111.502H109.793V119.855Z" fill="#D17918"/>
<path d="M106.955 111.502V120.023L107.795 119.994V111.502H106.955Z" fill="#D17918"/>
<path d="M105.606 116.764C95.6327 116.764 87.5488 113.652 87.5488 109.818C87.5488 105.984 95.6159 102.868 105.606 102.868C115.597 102.868 123.664 105.98 123.664 109.818C123.664 113.656 115.584 116.764 105.606 116.764Z" fill="#FF931E"/>
<path style="mix-blend-mode:multiply" opacity="0.4" d="M115.774 115.555C115.261 115.555 114.745 115.584 114.22 115.584C104.242 115.584 96.1624 112.472 96.1624 108.638C96.1624 106.253 99.2909 104.149 104.049 102.898C94.8102 103.2 87.541 106.182 87.541 109.818C87.541 113.652 95.6291 116.764 105.598 116.764C109.028 116.792 112.446 116.385 115.774 115.555Z" fill="url(#paint12_linear_48_54679)"/>
<path d="M123.656 110.033C123.362 106.295 115.396 103.313 105.598 103.313C95.8012 103.313 87.8476 106.308 87.541 110.033C87.8392 113.77 95.8012 116.752 105.598 116.752C115.396 116.752 123.362 113.787 123.656 110.033ZM105.598 115.912C97.4894 115.912 90.9005 113.392 90.9005 110.255C90.9005 107.118 97.4936 104.603 105.598 104.603C113.703 104.603 120.296 107.122 120.296 110.255C120.296 113.388 113.716 115.886 105.607 115.886L105.598 115.912Z" fill="#D17918"/>
<path d="M103.968 108.852L96.9805 110.847V112.245L104.119 110.041C105.021 110.697 106.061 111.138 107.16 111.33L107.483 111.393V112.653H110.074V111.687C110.641 111.712 111.17 111.716 111.624 111.708V112.644H114.219V108.907H111.624V110.713C111.107 110.732 110.59 110.725 110.074 110.692V108.907H107.483V110.167C106.891 109.965 106.371 109.596 105.984 109.104L103.968 108.852Z" fill="#D17918"/>
<path d="M120.312 109.818C120.312 112.934 113.715 115.471 105.614 115.471C97.5134 115.471 90.9162 112.951 90.9162 109.818C90.9162 106.685 97.5092 104.162 105.614 104.162C113.719 104.162 120.312 106.681 120.312 109.818ZM123.671 109.818C123.671 105.98 115.583 102.868 105.614 102.868C95.6447 102.868 87.5566 105.98 87.5566 109.818C87.5566 113.656 95.6447 116.764 105.614 116.764C115.583 116.764 123.671 113.652 123.671 109.818Z" fill="#FFC022"/>
<path d="M92.8496 109.818C92.8496 107.11 98.5734 104.909 105.607 104.909C112.641 104.909 118.369 107.11 118.369 109.818C118.369 112.527 112.646 114.723 105.607 114.723C98.5692 114.723 92.8496 112.527 92.8496 109.818ZM117.807 109.818C117.807 107.231 112.347 105.123 105.628 105.123C98.9093 105.123 93.4291 107.223 93.4291 109.818C93.4291 112.414 98.8883 114.509 105.628 114.509C112.368 114.509 117.807 112.405 117.807 109.818Z" fill="#FFC022"/>
<path d="M103.968 107.908L96.9805 109.915V111.309L104.119 109.105C105.021 109.761 106.061 110.202 107.16 110.394C107.265 110.419 107.374 110.436 107.483 110.457V111.717H110.074V110.759C110.641 110.784 111.17 110.784 111.624 110.759V111.7H114.219V107.962H111.624V109.764C111.204 109.764 110.654 109.764 110.074 109.764V107.979H107.483V109.239C106.892 109.034 106.372 108.664 105.984 108.172L103.968 107.908Z" fill="#FFC022"/>
<g style="mix-blend-mode:multiply" opacity="0.6">
<path d="M68.1057 111.444C65.3803 110.78 62.0417 114.358 59.5011 120.086V120.111C59.5221 120.187 59.5473 120.262 59.5725 120.338C59.5832 120.369 59.5959 120.4 59.6103 120.43C59.6518 120.537 59.6995 120.64 59.7531 120.741L59.7825 120.791C59.8286 120.88 59.879 120.964 59.9336 121.048L60.0092 121.153C60.0084 121.162 60.0084 121.172 60.0092 121.182L59.9126 121.321C59.8748 121.379 59.8412 121.438 59.8076 121.497C59.7741 121.556 59.7489 121.598 59.7237 121.648C59.6908 121.709 59.6614 121.773 59.6355 121.837C59.6145 121.883 59.5893 121.934 59.5725 121.98C59.5463 122.047 59.5239 122.116 59.5053 122.186C59.4869 122.229 59.4728 122.274 59.4633 122.32C59.4439 122.395 59.4285 122.47 59.4171 122.547C59.4171 122.589 59.4171 122.627 59.4171 122.664C59.4004 122.78 59.3919 122.896 59.3919 123.013V126.297C59.3857 126.405 59.3857 126.513 59.3919 126.62C59.3919 126.654 59.3919 126.687 59.3919 126.721C59.4033 126.797 59.4187 126.873 59.4381 126.948C59.4454 126.985 59.4553 127.021 59.4675 127.057C59.4885 127.133 59.5137 127.208 59.5389 127.284C59.5496 127.317 59.5623 127.349 59.5767 127.38C59.6191 127.485 59.6668 127.587 59.7195 127.687L59.7489 127.741C59.7937 127.825 59.844 127.909 59.9 127.993L59.9756 128.103V128.128L59.879 128.266C59.8412 128.325 59.8076 128.388 59.7741 128.447C59.7405 128.506 59.7153 128.544 59.6901 128.594C59.6564 128.656 59.627 128.721 59.6019 128.787C59.5784 128.834 59.5573 128.881 59.5389 128.93C59.5127 128.996 59.4903 129.063 59.4717 129.131C59.4545 129.175 59.4405 129.22 59.4297 129.266C59.4103 129.342 59.3949 129.419 59.3835 129.497C59.3815 129.535 59.3815 129.572 59.3835 129.61C59.3668 129.726 59.3583 129.842 59.3583 129.959V133.243C59.3519 133.35 59.3519 133.458 59.3583 133.566C59.3583 133.604 59.3583 133.637 59.3583 133.671C59.3697 133.746 59.3851 133.82 59.4045 133.894C59.4123 133.932 59.4221 133.97 59.4339 134.007C59.4549 134.083 59.4801 134.158 59.5053 134.23C59.5161 134.262 59.5287 134.295 59.5431 134.326C59.5847 134.431 59.6323 134.533 59.6859 134.633C59.6859 134.654 59.6859 134.67 59.7153 134.687C59.7601 134.771 59.8104 134.855 59.8664 134.939L59.942 135.048L60.0848 135.246L60.1772 135.359L60.3494 135.557L60.4418 135.653C60.5299 135.746 60.6223 135.838 60.7231 135.93L60.8323 136.027L61.0465 136.207L61.2019 136.329L61.3992 136.476L61.5756 136.602L61.7898 136.745L61.9745 136.867L62.3567 137.098L62.6044 137.232L62.7976 137.337L63.0706 137.48L63.2596 137.568L63.5619 137.711L63.7089 137.778C64.0952 137.95 64.4984 138.114 64.9225 138.269L65.0527 138.316L65.4726 138.463L65.5944 138.5C66.1907 138.698 66.8248 138.878 67.4884 139.046C68.7754 136.36 69.7748 133.544 70.4699 130.647C72.9392 120.959 71.8305 112.359 68.1057 111.444Z" fill="#CCCCCC"/>
</g>
<path d="M53.623 143.006C57.1925 144.422 63.0632 138.047 66.7377 128.775C70.4122 119.502 70.5172 110.835 66.9351 109.42L63.8821 108.21L50.5742 141.805L53.623 143.006Z" fill="#FF931E"/>
<path d="M58.1777 127.225L66.0894 130.362C66.3162 129.841 66.5387 129.312 66.7529 128.774L58.8118 125.629L58.1777 127.225Z" fill="#D17918"/>
<path d="M56.8984 130.463L64.5665 133.524C65.0075 132.684 65.44 131.844 65.8474 130.925L57.9609 127.8L56.8984 130.463Z" fill="#D17918"/>
<path d="M64.218 134.133L55.0759 130.513L50.6035 141.805L53.6397 143.006C56.4659 144.127 60.7367 140.361 64.218 134.133Z" fill="#D17918"/>
<path d="M61.1816 119.666L68.6986 122.643C68.7448 122.45 68.791 122.257 68.8329 122.064L61.3958 119.124L61.1816 119.666Z" fill="#D17918"/>
<path d="M68.1182 124.81C68.177 124.623 68.2316 124.434 68.282 124.243L60.5719 121.186L60.3535 121.732L68.1182 124.81Z" fill="#D17918"/>
<path d="M59.3086 124.382L67.2287 127.523C67.3252 127.25 67.4218 126.981 67.5142 126.713L59.6235 123.584L59.3086 124.382Z" fill="#D17918"/>
<path d="M63.7023 127.565C60.0236 136.842 54.1529 143.212 50.5876 141.801C47.0223 140.39 47.1063 131.723 50.7849 122.446C54.4636 113.17 60.3302 106.799 63.8955 108.21C67.4608 109.621 67.381 118.289 63.7023 127.565Z" fill="#FF931E"/>
<path style="mix-blend-mode:multiply" opacity="0.4" d="M66.3287 117.659C66.1565 118.142 65.9759 118.625 65.7827 119.112C62.1083 128.388 56.2375 134.759 52.668 133.348C50.4507 132.466 49.6486 128.787 50.2366 123.899C47.1122 132.609 47.2088 140.461 50.5893 141.801C54.1546 143.212 60.0254 136.842 63.704 127.565C64.9909 124.386 65.8727 121.058 66.3287 117.659Z" fill="url(#paint13_linear_48_54679)"/>
<path d="M64.0953 108.302C60.5132 107.206 54.7936 113.506 51.1863 122.606C47.579 131.706 47.4321 140.214 50.7958 141.864C54.3779 142.964 60.0975 136.665 63.7047 127.565C67.312 118.465 67.48 109.957 64.0953 108.302ZM62.9027 127.246C59.9169 134.784 55.1254 139.983 52.2278 138.836C49.3302 137.69 49.4016 130.618 52.3874 123.08C55.3731 115.542 60.1646 110.348 63.0622 111.494C65.9598 112.64 65.8884 119.708 62.9027 127.246Z" fill="#D17918"/>
<path d="M55.7426 126.171L55.0371 133.406L56.3347 133.923L56.9184 126.461C57.8623 125.868 58.6557 125.064 59.2365 124.113C59.2995 124.021 59.3583 123.928 59.4171 123.836L60.5719 124.294L61.5294 121.883L60.6391 121.531C60.8701 121.014 61.0591 120.523 61.227 120.094L62.1005 120.443L63.0538 118.032L59.5809 116.655L58.6276 119.065L60.3074 119.729C60.1604 120.149 59.963 120.64 59.7152 121.165L58.0565 120.506L57.099 122.916L58.2833 123.387C57.8752 123.862 57.3385 124.209 56.7379 124.386L55.7426 126.171Z" fill="#D17918"/>
<path d="M62.6638 111.334C65.5614 112.485 65.49 119.553 62.5 127.091C59.51 134.629 54.7269 139.823 51.8293 138.677C48.9317 137.53 48.9989 130.459 51.9889 122.921C54.9789 115.383 59.762 110.188 62.6638 111.334ZM63.8984 108.21C60.3331 106.799 54.4623 113.17 50.7879 122.446C47.1134 131.723 47.0084 140.386 50.5905 141.801C54.1726 143.216 60.0266 136.842 63.7052 127.565C67.3839 118.289 67.4847 109.625 63.8984 108.21Z" fill="#FFC022"/>
<path d="M52.5413 136.884C50.0217 135.888 50.0889 129.745 52.6799 123.214C55.271 116.684 59.4284 112.162 61.9438 113.161C64.4592 114.161 64.3963 120.3 61.8052 126.83C59.2142 133.36 55.0568 137.866 52.5413 136.884ZM61.738 113.682C59.3318 112.729 55.3591 117.041 52.8815 123.294C50.4039 129.547 50.3619 135.41 52.7471 136.363C55.1324 137.316 59.126 133.003 61.6037 126.75C64.0813 120.497 64.1443 114.627 61.738 113.665V113.682Z" fill="#FFC022"/>
<path d="M54.8816 125.831L54.1719 133.066L55.4695 133.579L56.0532 126.116C56.997 125.523 57.7905 124.72 58.3713 123.769C58.4343 123.676 58.4931 123.584 58.5519 123.492L59.7067 123.949L60.6641 121.539L59.7739 121.186C60.0048 120.67 60.1938 120.178 60.3618 119.754L61.2353 120.098L62.1927 117.688L58.7114 116.306L57.7582 118.717L59.4379 119.38C59.2909 119.8 59.0936 120.292 58.8458 120.817L57.1912 120.157L56.2338 122.568L57.4012 123.025C56.9931 123.501 56.4565 123.848 55.8558 124.025L54.8816 125.831Z" fill="#FFC022"/>
<g style="mix-blend-mode:multiply" opacity="0.6">
<path d="M112.632 147.29C119.121 146.236 123.673 143.766 123.673 140.89V137.606C123.657 136.943 123.432 136.302 123.03 135.775C123.432 135.246 123.657 134.604 123.673 133.94V130.66C123.657 129.996 123.432 129.354 123.03 128.825C123.432 128.298 123.657 127.657 123.673 126.994V123.71C123.657 123.047 123.432 122.406 123.03 121.879C123.432 121.352 123.657 120.711 123.673 120.048V119.998C119.965 118.7 113.052 124.285 107.765 133.016C104.515 138.387 102.604 143.758 102.285 147.714C102.618 147.739 102.954 147.76 103.293 147.777C104.053 147.815 104.822 147.836 105.607 147.836C106.392 147.836 107.077 147.815 107.795 147.781C109.295 147.714 110.791 147.567 112.276 147.34L112.632 147.29Z" fill="#CCCCCC"/>
</g>
<path d="M133.498 153.795C129.933 155.206 124.058 148.835 120.384 139.559C116.709 130.282 116.604 121.619 120.186 120.208L123.239 118.998L136.547 152.593L133.498 153.795Z" fill="#FF931E"/>
<path d="M128.96 138.009L121.048 141.146C120.821 140.63 120.599 140.1 120.385 139.559L128.326 136.413L128.96 138.009Z" fill="#D17918"/>
<path d="M130.244 141.247L122.576 144.287C122.131 143.447 121.703 142.607 121.291 141.688L129.177 138.563L130.244 141.247Z" fill="#D17918"/>
<path d="M122.91 144.921L132.052 141.297L136.529 152.589L133.488 153.795C130.671 154.912 126.4 151.162 122.91 144.921Z" fill="#D17918"/>
<path d="M125.958 130.429L118.441 133.411C118.395 133.218 118.349 133.02 118.307 132.831L125.74 129.892L125.958 130.429Z" fill="#D17918"/>
<path d="M119.019 135.598L118.855 135.027L126.566 131.974L126.784 132.52L119.019 135.598Z" fill="#D17918"/>
<path d="M127.835 135.17L119.915 138.307C119.814 138.034 119.717 137.766 119.625 137.497L127.532 134.364L127.835 135.17Z" fill="#D17918"/>
<path d="M123.436 138.349C127.11 147.625 132.981 153.996 136.546 152.585C140.112 151.174 140.028 142.506 136.353 133.23C132.679 123.953 126.804 117.566 123.238 118.998C119.673 120.43 119.761 129.077 123.436 138.349Z" fill="#FF931E"/>
<path style="mix-blend-mode:multiply" opacity="0.4" d="M120.812 128.443C120.985 128.926 121.165 129.409 121.358 129.9C125.037 139.172 130.908 145.547 134.473 144.132C136.69 143.254 137.497 139.571 136.905 134.687C140.029 143.397 139.932 151.246 136.552 152.585C132.987 153.996 127.116 147.626 123.441 138.349C122.153 135.171 121.269 131.842 120.812 128.443Z" fill="url(#paint14_linear_48_54679)"/>
<path d="M123.437 138.349C127.044 147.449 132.759 153.752 136.341 152.652C139.701 150.998 139.558 142.49 135.951 133.389C132.344 124.289 126.628 117.99 123.042 119.09C119.678 120.741 119.829 129.249 123.437 138.349ZM124.075 122.278C126.977 121.131 131.764 126.33 134.75 133.868C137.736 141.406 137.811 148.469 134.909 149.62C132.008 150.771 127.224 145.572 124.234 138.034C121.245 130.496 121.177 123.445 124.075 122.278Z" fill="#D17918"/>
<path d="M131.395 136.959L132.101 144.195L130.803 144.707L130.219 137.249C129.277 136.652 128.484 135.848 127.901 134.897C127.838 134.809 127.784 134.713 127.725 134.62L126.566 135.082L125.613 132.684L126.499 132.332C126.268 131.815 126.079 131.328 125.911 130.9L125.041 131.244L124.084 128.833L127.557 127.456L128.514 129.867L126.835 130.534C126.982 130.954 127.179 131.441 127.427 131.966L129.085 131.311L130.039 133.722L128.859 134.188C129.264 134.665 129.8 135.013 130.4 135.191L131.395 136.959Z" fill="#D17918"/>
<path d="M124.479 122.122C127.376 120.972 132.164 126.171 135.154 133.709C138.144 141.246 138.211 148.31 135.313 149.46C132.416 150.611 127.624 145.412 124.638 137.874C121.652 130.336 121.577 123.269 124.479 122.122ZM123.219 118.998C119.654 120.409 119.742 129.077 123.416 138.349C127.091 147.621 132.961 153.996 136.527 152.585C140.092 151.174 140.008 142.506 136.334 133.23C132.659 123.953 126.805 117.566 123.24 118.998H123.219Z" fill="#FFC022"/>
<path d="M125.331 137.602C122.74 131.059 122.677 124.924 125.192 123.928C127.708 122.933 131.865 127.443 134.456 133.982C137.047 140.52 137.11 146.656 134.595 147.655C132.079 148.654 127.926 144.14 125.331 137.602ZM125.532 137.522C128.01 143.775 131.983 148.088 134.389 147.134C136.795 146.181 136.736 140.314 134.259 134.062C131.781 127.809 127.804 123.496 125.398 124.449C122.992 125.402 123.055 131.265 125.532 137.522Z" fill="#FFC022"/>
<path d="M132.266 136.615L132.993 143.85L131.695 144.363L131.111 136.905C130.169 136.309 129.375 135.504 128.793 134.553C128.73 134.465 128.676 134.368 128.617 134.276L127.458 134.738L126.5 132.323L127.391 131.97C127.16 131.454 126.971 130.967 126.803 130.538L125.929 130.883L124.955 128.485L128.428 127.107L129.385 129.518L127.706 130.186C127.853 130.606 128.05 131.093 128.298 131.618L129.957 130.962L130.91 133.373L129.726 133.839C130.134 134.315 130.67 134.664 131.271 134.843L132.266 136.615Z" fill="#FFC022"/>
<path d="M66.5849 115.811L65.8458 113.946L65.1109 115.811L63.2422 116.55L65.1109 117.285L65.8458 119.154L66.5849 117.285L68.4494 116.55L66.5849 115.811Z" fill="white"/>
<path d="M119.595 113.837L118.856 111.969L118.121 113.837L116.252 114.572L118.121 115.307L118.856 117.176L119.595 115.307L121.459 114.572L119.595 113.837Z" fill="white"/>
<path d="M136.967 93.0164L136.233 91.1477L135.493 93.0164L133.629 93.7513L135.493 94.4904L136.233 96.355L136.967 94.4904L138.836 93.7513L136.967 93.0164Z" fill="white"/>
<path d="M92.458 127.384L91.7189 125.516L90.984 127.384L89.1152 128.119L90.984 128.854L91.7189 130.723L92.458 128.854L94.3225 128.119L92.458 127.384Z" fill="white"/>
<path d="M65.5941 37.4333C65.5941 37.4333 55.5995 44.7319 52.4668 50.3003C52.4668 50.3003 65.8251 40.4023 72.9599 37.4333H65.5941Z" fill="#DAB873"/>
<path d="M68.5977 37.4333C68.5977 37.4333 76.2994 41.511 80.0788 50.3003C80.0788 50.3003 79.5917 42.8842 75.5771 37.4333H68.5977Z" fill="#DAB873"/>
<path d="M83.8906 55.7805C83.8906 55.7805 90.6517 68.4669 94.3219 82.3081C94.3219 82.2913 95.1198 66.5982 83.8906 55.7805Z" fill="#DAB873"/>
<path d="M92.8496 57.3889C92.8496 57.3889 99.6106 70.0753 103.281 83.9165C103.281 83.9165 104.075 68.2066 92.8496 57.3889Z" fill="#E8C47B"/>
<path d="M82.2363 62.1342C82.2363 62.1342 93.5747 60.2823 103.897 62.9447C103.897 62.9321 93.5663 57.5737 82.2363 62.1342Z" fill="#E8C47B"/>
<path d="M84.6973 68.2318C84.6973 68.2318 96.0356 66.3798 106.358 69.0423C106.375 69.0423 96.0356 63.6838 84.6973 68.2318Z" fill="#E8C47B"/>
<path d="M84.6973 68.2316C87.6905 67.8028 90.7106 67.5894 93.7344 67.5933C93.5706 67.207 93.4026 66.8122 93.2262 66.4175C90.3001 66.5272 87.4148 67.141 84.6973 68.2316Z" fill="#DAB873"/>
<path d="M90.9165 61.4999C90.7233 61.1136 90.5259 60.7272 90.3244 60.3367C87.5483 60.4902 84.8161 61.0973 82.2363 62.134C85.1114 61.7202 88.0118 61.5083 90.9165 61.4999Z" fill="#DAB873"/>
<path d="M54.125 6.48387L68.5961 33.549V4.68652L67.7563 5.03087L67.6093 5.08967C67.3237 5.20305 67.0424 5.31643 66.7694 5.42142H66.7358C66.4418 5.5306 66.1521 5.63979 65.8539 5.74477L65.6733 5.80777L64.9805 6.03873L64.7453 6.11432C64.4807 6.19831 64.2162 6.2781 63.9474 6.35369L63.8802 6.37468C63.5946 6.45447 63.3133 6.52586 63.0403 6.59305L62.8094 6.64345L62.1711 6.76943L61.9275 6.81562C61.6503 6.86181 61.3732 6.89961 61.0876 6.929C58.7576 7.13177 56.4103 6.9817 54.125 6.48387Z" fill="#DAB873"/>
<path d="M50.3549 5.55993C50.0526 5.47594 49.7166 5.37095 49.3555 5.25757L61.3616 23.6593L52.5806 6.13944C51.8247 5.95887 51.1024 5.7615 50.3549 5.55993Z" fill="#DAB873"/>
<path d="M114.698 4.84595C116.936 3.1368 117.394 0.646552 113.405 0.226612C106.408 -0.487286 101.772 5.54305 94.8097 6.03438L78.8184 37.4333H85.0335L114.698 4.84595Z" fill="#DAB873"/>
<path d="M80.7246 29.6896L92.5795 6.00914C90.1481 5.74458 88.5565 4.64014 86.9985 3.4895L80.7246 29.6896Z" fill="#DAB873"/>
<path d="M61.8786 104.703C48.9361 104.703 38.4082 94.4191 38.4082 81.7831C38.4082 69.1471 48.9361 58.8669 61.8786 58.8669C74.8212 58.8669 85.3491 69.1471 85.3491 81.7831C85.3491 94.4191 74.8212 104.703 61.8786 104.703ZM61.8786 61.8065C50.5403 61.8065 41.3478 70.768 41.3478 81.7831C41.3478 92.7981 50.5571 101.764 61.8786 101.764C73.2002 101.764 82.4095 92.7981 82.4095 81.7831C82.4095 70.768 73.2002 61.8065 61.8786 61.8065Z" fill="#534741"/>
<path d="M53.541 84.5507L62.3598 96.3468H68.4867L58.8029 84.2735C61.1835 83.2006 63.1656 81.4051 64.4679 79.1418C64.5686 78.9612 64.6526 78.7807 64.745 78.5959H70.2042V74.2159H66.0048C66.1031 73.3475 66.1284 72.4724 66.0804 71.5997H70.2042V67.2197H53.8056V71.5997H61.7256C61.8045 72.4722 61.7734 73.3512 61.6333 74.2159H53.8056V78.5959H59.3908C58.0733 79.823 56.4623 80.6907 54.7127 81.1155L53.541 84.5507Z" fill="#534741"/>
<path d="M90.9165 36.3037C90.7752 36.3035 90.6344 36.2881 90.4965 36.2575C79.5487 33.8387 59.3034 36.2575 59.1018 36.2869C57.947 36.4255 56.9139 35.489 56.788 34.1872C56.662 32.8854 57.4977 31.7264 58.6483 31.5878C59.4882 31.4828 79.7293 29.0681 91.307 31.6172C91.8833 31.7826 92.3749 32.1611 92.6822 32.6759C92.9895 33.1906 93.0894 33.8031 92.9616 34.3888C92.901 34.8978 92.6625 35.369 92.2884 35.7193C91.9142 36.0697 91.4283 36.2766 90.9165 36.3037Z" fill="#FF931E"/>
<path d="M72.755 30.5378C72.4065 30.5378 72.0579 30.563 71.7136 30.5756C70.7941 32.0635 70.1378 33.6985 69.7734 35.4091L70.6553 35.363C71.0502 33.6384 71.7622 32.0022 72.755 30.5378Z" fill="#BF6E17"/>
<path d="M66.7947 30.8442L65.7491 30.9198C64.8748 32.4367 64.2642 34.091 63.9434 35.8121L64.8168 35.7407C65.1739 34.0022 65.8441 32.343 66.7947 30.8442Z" fill="#BF6E17"/>
<path d="M69.7903 30.6638L68.7488 30.7226C67.8454 32.2231 67.2075 33.8682 66.8633 35.5855L67.7368 35.5267C68.1164 33.7933 68.8126 32.1447 69.7903 30.6638Z" fill="#BF6E17"/>
<path d="M63.7665 31.0796L62.7335 31.1678C61.8889 32.6978 61.3069 34.3586 61.0117 36.0811L61.8894 35.9971C62.2165 34.259 62.8522 32.5935 63.7665 31.0796Z" fill="#BF6E17"/>
<path d="M59.6914 31.4785C58.9279 32.9434 58.3993 34.5192 58.125 36.1483C58.3893 36.2642 58.6765 36.3188 58.9649 36.3078C59.2583 34.5716 59.8569 32.9011 60.7328 31.3735L59.6914 31.4785Z" fill="#BF6E17"/>
<path d="M89.5438 31.277C89.2498 31.2266 88.9474 31.1804 88.6451 31.1384C87.8583 32.5541 87.2986 34.0845 86.9863 35.6738L87.8262 35.7788C88.1479 34.1941 88.7281 32.6732 89.5438 31.277Z" fill="#BF6E17"/>
<path d="M91.3202 31.6213H91.2698C90.553 33.0307 90.0519 34.5397 89.7832 36.0979C90.031 36.1483 90.2745 36.1945 90.5097 36.2491C90.5433 36.2491 90.5769 36.2491 90.6105 36.2491C90.8674 34.7456 91.3517 33.2899 92.0467 31.9321C91.8283 31.7799 91.5811 31.6741 91.3202 31.6213Z" fill="#BF6E17"/>
<path d="M84.1767 30.6638L83.2066 30.605C82.3312 32.0422 81.6997 33.6144 81.3379 35.2579L82.1988 35.2915C82.5816 33.6449 83.2511 32.0784 84.1767 30.6638Z" fill="#BF6E17"/>
<path d="M86.8917 30.9118C86.581 30.874 86.2702 30.8446 85.9552 30.811C85.1144 32.2346 84.5089 33.7845 84.1621 35.401L85.002 35.4682C85.3669 33.8526 86.0061 32.3115 86.8917 30.9118Z" fill="#BF6E17"/>
<path d="M81.3966 30.5211L80.4013 30.4917C79.4915 31.9365 78.834 33.5255 78.457 35.1908H79.3263C79.7318 33.523 80.433 31.9415 81.3966 30.5211Z" fill="#BF6E17"/>
<path d="M77.5597 30.4539C76.6342 31.9121 75.9665 33.5187 75.5859 35.2034H76.4594C76.8634 33.5105 77.5751 31.9063 78.5591 30.4707L77.5597 30.4539Z" fill="#BF6E17"/>
<path d="M75.682 30.4666H74.6531C73.7253 31.9398 73.0591 33.5622 72.6836 35.2623L73.5613 35.2329C73.9685 33.527 74.6875 31.9111 75.682 30.4666Z" fill="#BF6E17"/>
<g style="mix-blend-mode:multiply" opacity="0.8">
<path d="M90.9179 34.288C90.7766 34.2901 90.6355 34.2746 90.498 34.2419C79.5502 31.8272 59.3049 34.2419 59.1033 34.2754C58.6508 34.3149 58.1979 34.2049 57.8141 33.9621C57.4302 33.7194 57.1366 33.3573 56.9784 32.9316C56.8131 33.3297 56.7482 33.7624 56.7894 34.1915C56.9154 35.4891 57.9484 36.4255 59.1033 36.2912C59.3049 36.266 79.5502 33.8429 90.498 36.2618C90.6359 36.2923 90.7767 36.3078 90.9179 36.308C91.4314 36.2839 91.9197 36.0788 92.2964 35.7291C92.673 35.3793 92.9137 34.9075 92.9756 34.3972C93.064 33.9042 93.0056 33.396 92.8077 32.9358C92.6608 33.3222 92.4031 33.6566 92.0669 33.8972C91.7307 34.1377 91.331 34.2737 90.9179 34.288Z" fill="#B3B3B3"/>
</g>
<path d="M90.9165 41.0491C90.7751 41.0511 90.6341 41.0356 90.4965 41.0029C79.5487 38.5882 59.3034 41.0029 59.1018 41.0365C57.947 41.1751 56.9139 40.2386 56.788 38.9368C56.662 37.635 57.4977 36.4717 58.6483 36.3331C59.4882 36.2282 79.7293 33.8135 91.307 36.3625C92.4451 36.6145 93.1884 37.8575 92.9616 39.1383C92.9 39.6466 92.6612 40.1168 92.2871 40.4663C91.9131 40.8158 91.4277 41.0221 90.9165 41.0491Z" fill="#FF931E"/>
<path d="M72.755 35.2832L71.7136 35.321C70.7941 36.8088 70.1378 38.4439 69.7734 40.1545L70.6553 40.1083C71.0511 38.384 71.763 36.748 72.755 35.2832Z" fill="#BF6E17"/>
<path d="M66.7947 35.594C66.4378 35.6192 66.0893 35.6402 65.7491 35.6696C64.8747 37.1849 64.2641 38.8378 63.9434 40.5577L64.8168 40.4863C65.1737 38.749 65.844 37.0912 66.7947 35.594Z" fill="#BF6E17"/>
<path d="M69.7903 35.4133L68.7488 35.4679C67.8455 36.97 67.2076 38.6164 66.8633 40.335L67.7368 40.2762C68.1147 38.5422 68.8109 36.8934 69.7903 35.4133Z" fill="#BF6E17"/>
<path d="M63.7665 35.825L62.7335 35.9173C61.8873 37.4466 61.3052 39.1077 61.0117 40.8306L61.8894 40.7424C62.2165 39.0044 62.8522 37.3389 63.7665 35.825Z" fill="#BF6E17"/>
<path d="M59.6914 36.2194C58.9271 37.6826 58.3985 39.2571 58.125 40.885C58.3887 41.0029 58.6763 41.0576 58.9649 41.0445C59.2543 39.3045 59.85 37.6296 60.7244 36.0977C60.3423 36.148 59.9811 36.1858 59.6914 36.2194Z" fill="#BF6E17"/>
<path d="M89.5438 36.0266C89.2498 35.9762 88.9474 35.9258 88.6451 35.8838C87.8592 37.2999 87.2995 38.8301 86.9863 40.4191L87.8262 40.5283C88.1472 38.9435 88.7275 37.4225 89.5438 36.0266Z" fill="#BF6E17"/>
<path d="M91.3202 36.3667H91.2698C90.5504 37.7824 90.0492 39.2987 89.7832 40.8643L90.5097 41.0112H90.6105C90.8681 39.5079 91.3524 38.0523 92.0467 36.6943C91.8297 36.5361 91.5824 36.4246 91.3202 36.3667Z" fill="#BF6E17"/>
<path d="M84.1767 35.4133L83.2066 35.3503C82.332 36.785 81.7006 38.3543 81.3379 39.9949L82.1988 40.0327C82.5807 38.3884 83.2503 36.8245 84.1767 35.4133Z" fill="#BF6E17"/>
<path d="M86.8917 35.6779L85.9552 35.5813C85.113 37.0041 84.5074 38.5543 84.1621 40.1712C84.4477 40.1712 84.729 40.2132 85.002 40.2384C85.3679 38.6218 86.007 37.0795 86.8917 35.6779Z" fill="#BF6E17"/>
<path d="M81.3966 35.2582L80.4013 35.2288C79.4915 36.6735 78.834 38.2626 78.457 39.9279H79.3263C79.7328 38.2604 80.4339 36.679 81.3966 35.2582Z" fill="#BF6E17"/>
<path d="M77.5597 35.1992C76.6353 36.658 75.9677 38.2645 75.5859 39.9487H76.4594C76.865 38.2564 77.5766 36.6524 78.5591 35.216L77.5597 35.1992Z" fill="#BF6E17"/>
<path d="M75.682 35.2117H74.6531C73.7262 36.6853 73.0599 38.3076 72.6836 40.0074L73.5613 39.978C73.9685 38.2722 74.6875 36.6563 75.682 35.2117Z" fill="#BF6E17"/>
<g style="mix-blend-mode:multiply" opacity="0.8">
<path d="M90.9182 39.0373C90.7771 39.0385 90.6363 39.0245 90.4982 38.9953C79.5504 36.5764 59.3051 38.9953 59.1035 39.0247C58.6516 39.0645 58.1991 38.955 57.8153 38.713C57.4315 38.4711 57.1376 38.11 56.9786 37.6851C56.8128 38.083 56.7479 38.5158 56.7897 38.9449C56.9156 40.2425 57.9487 41.179 59.1035 41.0446C59.3051 41.0194 79.5504 38.5963 90.4982 41.011C90.6358 41.0437 90.7768 41.0592 90.9182 41.0572C91.431 41.0333 91.9188 40.8288 92.2954 40.4799C92.672 40.131 92.913 39.6602 92.9759 39.1507C93.0643 38.6562 93.0059 38.1467 92.8079 37.6851C92.661 38.0714 92.4033 38.4059 92.0671 38.6464C91.731 38.8869 91.3313 39.0229 90.9182 39.0373Z" fill="#B3B3B3"/>
</g>
<defs>
<linearGradient id="paint0_linear_48_54679" x1="73.5146" y1="123.034" x2="73.5146" y2="136.9" gradientUnits="userSpaceOnUse">
<stop stop-color="white"/>
<stop offset="1" stop-color="#D17918"/>
</linearGradient>
<linearGradient id="paint1_linear_48_54679" x1="73.5146" y1="116.084" x2="73.5146" y2="129.955" gradientUnits="userSpaceOnUse">
<stop stop-color="white"/>
<stop offset="1" stop-color="#D17918"/>
</linearGradient>
<linearGradient id="paint2_linear_48_54679" x1="73.5146" y1="109.138" x2="73.5146" y2="123.005" gradientUnits="userSpaceOnUse">
<stop stop-color="white"/>
<stop offset="1" stop-color="#D17918"/>
</linearGradient>
<linearGradient id="paint3_linear_48_54679" x1="117.991" y1="109.692" x2="117.991" y2="123.559" gradientUnits="userSpaceOnUse">
<stop stop-color="white"/>
<stop offset="1" stop-color="#D17918"/>
</linearGradient>
<linearGradient id="paint4_linear_48_54679" x1="117.991" y1="102.747" x2="117.991" y2="116.613" gradientUnits="userSpaceOnUse">
<stop stop-color="white"/>
<stop offset="1" stop-color="#D17918"/>
</linearGradient>
<linearGradient id="paint5_linear_48_54679" x1="117.991" y1="95.7966" x2="117.991" y2="109.663" gradientUnits="userSpaceOnUse">
<stop stop-color="white"/>
<stop offset="1" stop-color="#D17918"/>
</linearGradient>
<linearGradient id="paint6_linear_48_54679" x1="117.991" y1="88.8508" x2="117.991" y2="102.717" gradientUnits="userSpaceOnUse">
<stop stop-color="white"/>
<stop offset="1" stop-color="#D17918"/>
</linearGradient>
<linearGradient id="paint7_linear_48_54679" x1="117.991" y1="81.9048" x2="117.991" y2="95.7712" gradientUnits="userSpaceOnUse">
<stop stop-color="white"/>
<stop offset="1" stop-color="#D17918"/>
</linearGradient>
<linearGradient id="paint8_linear_48_54679" x1="101.664" y1="130.685" x2="101.664" y2="144.556" gradientUnits="userSpaceOnUse">
<stop stop-color="white"/>
<stop offset="1" stop-color="#D17918"/>
</linearGradient>
<linearGradient id="paint9_linear_48_54679" x1="101.664" y1="123.739" x2="101.664" y2="137.606" gradientUnits="userSpaceOnUse">
<stop stop-color="white"/>
<stop offset="1" stop-color="#D17918"/>
</linearGradient>
<linearGradient id="paint10_linear_48_54679" x1="101.664" y1="116.793" x2="101.664" y2="130.66" gradientUnits="userSpaceOnUse">
<stop stop-color="white"/>
<stop offset="1" stop-color="#D17918"/>
</linearGradient>
<linearGradient id="paint11_linear_48_54679" x1="101.664" y1="109.844" x2="101.664" y2="123.714" gradientUnits="userSpaceOnUse">
<stop stop-color="white"/>
<stop offset="1" stop-color="#D17918"/>
</linearGradient>
<linearGradient id="paint12_linear_48_54679" x1="101.664" y1="102.898" x2="101.664" y2="116.764" gradientUnits="userSpaceOnUse">
<stop stop-color="white"/>
<stop offset="1" stop-color="#D17918"/>
</linearGradient>
<linearGradient id="paint13_linear_48_54679" x1="49.3411" y1="126.12" x2="62.232" y2="131.229" gradientUnits="userSpaceOnUse">
<stop stop-color="white"/>
<stop offset="1" stop-color="#D17918"/>
</linearGradient>
<linearGradient id="paint14_linear_48_54679" x1="138.04" y1="137.311" x2="125.145" y2="142.441" gradientUnits="userSpaceOnUse">
<stop stop-color="white"/>
<stop offset="1" stop-color="#D17918"/>
</linearGradient>
</defs>
</svg>
