<svg width="136" height="205" viewBox="0 0 136 205" fill="none" xmlns="http://www.w3.org/2000/svg">
<path d="M95.3757 114.634C94.0277 108.702 94.0284 102.543 95.3777 96.6116C96.7269 90.68 99.3903 85.127 103.172 80.3618C106.953 75.5967 111.755 71.741 117.225 69.0791C122.695 66.4171 128.692 65.0168 134.775 64.9814C137.597 76.6829 134.914 90.324 127.356 99.7079C123.469 104.415 118.582 108.198 113.05 110.779C107.518 113.361 101.48 114.678 95.3757 114.634Z" fill="#EC6D6D"/>
<path d="M74.3136 111.749C75.329 105.754 74.9864 99.6074 73.3111 93.7623C71.6358 87.9171 68.6704 82.5224 64.6335 77.9754C60.5966 73.4284 55.5909 69.845 49.9853 67.4893C44.3797 65.1336 38.317 64.0656 32.2439 64.3639C30.0774 76.2165 33.5035 89.6813 41.5773 98.6242C45.7195 103.102 50.8057 106.603 56.4676 108.873C62.1294 111.143 68.2253 112.125 74.3136 111.749Z" fill="#EC6D6D"/>
<path d="M87.1002 65.1197C85.9592 59.1429 86.1741 52.9863 87.7292 47.1037C89.2842 41.221 92.1398 35.7624 96.0853 31.1303C100.031 26.4982 104.966 22.8107 110.526 20.3396C116.086 17.8686 122.13 16.6771 128.213 16.8529C130.631 28.6551 127.47 42.1955 119.597 51.3148C115.545 55.8837 110.526 59.4931 104.905 61.8809C99.2841 64.2687 93.202 65.3751 87.1002 65.1197Z" fill="#EC6D6D"/>
<path d="M76.2171 51.8566C77.9033 46.0071 78.2548 39.8538 77.2458 33.8504C76.2369 27.847 73.8931 22.1466 70.3874 17.1697C66.8817 12.1929 62.3035 8.06645 56.9905 5.09479C51.6775 2.12314 45.7651 0.382089 39.6895 0C36.2005 11.5251 38.0899 25.3048 45.0805 35.1043C48.6968 40.0376 53.3686 44.1016 58.7553 46.9998C64.142 49.8979 70.1076 51.5572 76.2171 51.8566Z" fill="#EC6D6D"/>
<path d="M63.2557 117.883C59.7447 112.918 55.1646 108.804 49.8528 105.843C44.5411 102.882 38.6329 101.151 32.5633 100.776C26.4937 100.402 20.4174 101.393 14.7819 103.678C9.14631 105.963 4.09503 109.483 0 113.978C6.82688 123.904 18.7676 131.02 30.7965 131.675C36.8911 131.927 42.9652 130.82 48.5791 128.434C54.193 126.049 59.2062 122.445 63.2557 117.883Z" fill="#EC6D6D"/>
<path d="M42.6624 76.4183C52.5741 83.2295 61.2189 91.7209 68.2065 101.509C75.1984 111.251 80.4997 122.1 83.8882 133.603C85.8063 140.069 87.0722 146.71 87.6669 153.429C87.7299 154.235 88.9265 154.235 88.9265 153.429C87.8575 141.282 84.6777 129.416 79.5301 118.362C74.4148 107.332 67.4688 97.2468 58.9865 88.5354C54.208 83.627 48.9504 79.2091 43.2922 75.3477C42.6246 74.8817 42.0326 75.9649 42.6624 76.4183Z" fill="#613A3A"/>
<path d="M14.8876 112.581C32.7403 112.359 50.5152 114.969 67.5503 120.314C72.3031 121.817 76.9845 123.518 81.5945 125.416C82.3377 125.73 82.6526 124.521 81.922 124.156C65.4079 117.325 47.9206 113.138 30.1032 111.749C25.0649 111.363 19.9931 111.199 14.8876 111.258C14.7206 111.258 14.5604 111.324 14.4423 111.442C14.3242 111.561 14.2578 111.721 14.2578 111.888C14.2578 112.055 14.3242 112.215 14.4423 112.333C14.5604 112.451 14.7206 112.518 14.8876 112.518V112.581Z" fill="#613A3A"/>
<path d="M130.314 67.5002C121.106 72.9505 113.238 80.3968 107.289 89.2908C100.563 98.9895 95.8272 109.885 91.9477 120.982C89.6301 127.569 87.6148 134.257 85.6498 140.933C85.6064 141.1 85.6311 141.278 85.7185 141.427C85.8059 141.575 85.9489 141.683 86.1159 141.727C86.2829 141.77 86.4604 141.746 86.6092 141.658C86.758 141.571 86.866 141.428 86.9094 141.261C90.4488 129.572 94.0008 117.808 99.0769 106.673C103.443 96.6707 109.503 87.4966 116.988 79.5543C121.122 75.2725 125.837 71.5922 130.994 68.6212C131.136 68.5377 131.239 68.4012 131.281 68.2418C131.322 68.0823 131.298 67.913 131.215 67.771C131.131 67.629 130.995 67.5261 130.835 67.4847C130.676 67.4434 130.507 67.4671 130.365 67.5506L130.314 67.5002Z" fill="#613A3A"/>
<path d="M81.4426 122.821C83.0171 109.646 84.1003 96.3701 83.1682 83.0942C82.4977 71.3471 79.7781 59.8078 75.1322 48.9976C72.5125 43.1177 69.124 37.6115 65.0556 32.6232C64.5518 31.9934 63.67 32.8877 64.1739 33.5049C71.2215 42.4491 76.2374 52.8204 78.8731 63.8984C81.7149 75.994 82.7841 88.4385 82.0472 100.842C81.7323 108.21 81.0144 115.541 80.1327 122.859C80.0445 123.652 81.2915 123.652 81.3922 122.859L81.4426 122.821Z" fill="#613A3A"/>
<path d="M125.959 17.9745C116.242 21.7472 107.726 28.0749 101.309 36.2887C94.3097 45.336 89.1997 55.6974 86.2823 66.7577C84.4814 73.3417 83.1346 80.0416 82.2516 86.8101C82.1383 87.6036 83.3475 87.9437 83.5112 87.1502C85.1109 75.411 87.7434 63.6844 92.6935 52.8773C96.9484 43.2167 103.355 34.6561 111.423 27.8495C115.877 24.1441 120.923 21.2146 126.349 19.1837C127.092 18.9066 126.765 17.6974 126.009 17.9241L125.959 17.9745Z" fill="#613A3A"/>
<path d="M108.789 204.592H58.7462L52.8262 142.709H114.709L108.789 204.592Z" fill="#892387"/>
</svg>
