<svg width="161" height="249" viewBox="0 0 161 249" fill="none" xmlns="http://www.w3.org/2000/svg">
<g filter="url(#filter0_d_36_1981)">
<path d="M151.053 0.688637C151.053 0.688637 139.84 -5.75526 128.241 20.7807C116.642 47.3166 112.544 62.55 112.544 62.55C112.544 62.55 109.399 68.1562 105.482 64.844C101.564 61.5319 95.8673 51.8274 89.6682 54.0054C83.2243 56.2737 81.5103 63.697 83.4048 74.3552C85.2993 85.0134 88.5599 108.521 88.8692 110.647C89.1785 112.774 88.1475 115.893 85.106 114.062C82.0645 112.232 64.1891 94.5762 56.3404 103.559C48.4918 112.542 58.6087 141.385 59.6526 144.555C60.6965 147.725 60.1552 149.143 58.6731 150.032C57.191 150.922 51.7395 144.413 46.4426 139.593C41.1457 134.773 34.1734 130.121 30.0622 135.727C25.951 141.333 25.8608 163.384 48.9429 197.872L60.6836 213.157L79.8864 210.914C120.754 203.633 136.593 188.257 137.765 181.427C138.938 174.596 130.729 172.805 123.589 172.328C116.449 171.851 107.982 172.444 107.595 170.756C107.209 169.068 107.84 167.689 110.856 166.245C113.871 164.802 141.683 152.133 142.702 140.225C143.72 128.316 118.576 127.672 115.16 126.757C111.745 125.842 113.317 122.891 115.019 121.666C116.72 120.442 135.961 106.472 144.957 100.453C153.953 94.4344 158.115 88.0292 155.267 81.8301C152.548 75.8502 141.606 78.4793 136.49 77.9638C131.373 77.4483 133.255 71.2622 133.255 71.2622C133.255 71.2622 141.348 57.8073 152.458 31.0136C163.567 4.21989 150.795 0.611313 150.795 0.611313" fill="#29697D"/>
<path d="M140.626 24.4796C140.626 24.4796 140.626 24.6729 140.42 25.0467C140.213 25.4204 140.046 26.0004 139.762 26.7092C139.157 28.1784 138.293 30.3178 137.185 33.0629C134.942 38.5789 131.643 46.5435 127.519 56.364C119.271 76.005 107.672 103.044 94.7452 132.866C81.8188 162.688 70.1554 189.701 61.817 209.303L51.9707 232.501L49.2771 238.816C48.9807 239.512 48.7359 240.105 48.5683 240.44C48.4008 240.775 48.3105 240.994 48.3105 240.994C48.3105 240.994 48.375 240.801 48.5168 240.427L49.174 238.765C49.7669 237.283 50.6433 235.156 51.7516 232.411C53.9941 226.895 57.3063 218.931 61.4303 209.11C69.6656 189.469 81.2775 162.431 94.204 132.595C107.13 102.76 118.781 75.773 127.119 56.1707L136.979 32.9727C138.138 30.2533 139.041 28.1269 139.659 26.6577C139.968 25.9617 140.2 25.3689 140.368 25.0209C140.536 24.6729 140.626 24.4796 140.626 24.4796Z" fill="#E0E0E0"/>
<path d="M97.0645 67.8599C97.3015 68.2667 97.4917 68.699 97.6315 69.1486C97.9666 69.9863 98.4048 71.2107 98.9203 72.7185C99.9771 75.7343 101.33 79.9486 102.787 84.6269C104.243 89.3052 105.364 93.4163 106.344 96.6125L107.452 100.234C107.617 100.671 107.733 101.125 107.8 101.587C107.56 101.182 107.369 100.749 107.233 100.298C106.898 99.4607 106.46 98.2493 105.944 96.7285C104.913 93.687 103.624 89.4598 102.22 84.7944C100.815 80.1291 99.5389 76.0178 98.5723 72.8345C98.1212 71.404 97.7475 70.257 97.4511 69.2131C97.2716 68.778 97.1419 68.3241 97.0645 67.8599Z" fill="#E0E0E0"/>
<path d="M109.553 101.858C109.553 101.703 118.059 98.5328 128.678 94.7825C139.298 91.0321 147.945 88.1066 148.01 88.2612C148.074 88.4159 139.504 91.5863 128.884 95.3367C118.265 99.087 109.604 102.013 109.553 101.858Z" fill="#E0E0E0"/>
<path d="M87.6426 146.759C88.1087 146.661 88.584 146.614 89.0602 146.617L92.9266 146.398C96.1872 146.205 100.659 145.921 105.647 145.431C110.634 144.942 115.068 144.362 118.303 143.911L122.169 143.382C122.635 143.285 123.111 143.241 123.587 143.253C123.142 143.425 122.679 143.546 122.208 143.614C121.318 143.795 120.017 144.052 118.406 144.336C115.184 144.89 110.673 145.547 105.737 146.037C100.801 146.527 96.2516 146.733 92.991 146.823C91.3543 146.823 90.0268 146.823 89.1247 146.823C88.63 146.87 88.1313 146.849 87.6426 146.759Z" fill="#E0E0E0"/>
<path d="M69.5996 118.547C69.9031 118.864 70.1751 119.209 70.4115 119.579L72.4607 122.517C74.1619 125.004 76.4817 128.471 79.0077 132.325C81.5337 136.178 83.8148 139.671 85.4516 142.222L87.3332 145.264C87.5917 145.62 87.7998 146.011 87.9518 146.424C87.6441 146.111 87.3718 145.765 87.1399 145.393L85.0907 142.454C83.3895 139.967 81.0697 136.5 78.5437 132.647C76.0177 128.793 73.7495 125.301 72.0998 122.749L70.2182 119.707C69.9597 119.351 69.7516 118.961 69.5996 118.547Z" fill="#E0E0E0"/>
<path d="M45.2168 155.742C45.6036 156.138 45.953 156.57 46.2607 157.03C46.9438 158.01 47.8201 159.273 48.8383 160.781C51.0421 163.964 53.9934 168.385 57.3313 173.282C60.6692 178.179 63.5819 182.638 65.6955 185.886L68.1699 189.753C68.4944 190.211 68.7749 190.698 69.0076 191.209C68.6231 190.814 68.2778 190.382 67.9766 189.92L65.3991 186.17C63.1953 182.986 60.244 178.566 56.8931 173.669C53.5423 168.771 50.6426 164.312 48.5419 161.064C47.5366 159.518 46.7118 158.216 46.0674 157.198C45.7427 156.738 45.4582 156.251 45.2168 155.742Z" fill="#E0E0E0"/>
<path d="M68.7246 190.294C69.3138 190.162 69.9131 190.08 70.516 190.049L75.4005 189.598C79.5246 189.211 85.221 188.657 91.4844 187.871C97.7479 187.085 103.419 186.221 107.504 185.577L112.363 184.804C112.949 184.687 113.544 184.618 114.141 184.597C113.575 184.794 112.993 184.94 112.401 185.036C111.267 185.28 109.618 185.616 107.581 185.989C103.509 186.75 97.851 187.678 91.5618 188.464C85.2725 189.25 79.5762 189.753 75.4392 190.023C73.3642 190.152 71.6888 190.255 70.5289 190.281C69.929 190.338 69.3253 190.342 68.7246 190.294Z" fill="#E0E0E0"/>
<path d="M55.4236 121.099C50.8484 125.777 43.9276 122.852 41.1181 119.063C38.3086 115.274 37.6513 110.364 37.11 105.685C35.8212 95.0014 34.6355 83.7762 38.5276 73.7623C39.5697 70.7016 41.4333 67.9864 43.9147 65.9137C45.1675 64.8937 46.6671 64.222 48.2623 63.9663C49.8574 63.7106 51.4918 63.88 53.0006 64.4574C56.4803 66.0039 58.1558 69.9347 59.2383 73.5948C62.4019 84.3797 63.1239 95.7337 61.3519 106.832C60.5271 111.988 59.0321 117.31 55.4236 121.099Z" fill="#E8505B"/>
<g opacity="0.2">
<path d="M55.4236 121.099C50.8484 125.777 43.9276 122.852 41.1181 119.063C38.3086 115.274 37.6513 110.364 37.11 105.685C35.8212 95.0014 34.6355 83.7762 38.5276 73.7623C39.5697 70.7016 41.4333 67.9864 43.9147 65.9137C45.1675 64.8937 46.6671 64.222 48.2623 63.9663C49.8574 63.7106 51.4918 63.88 53.0006 64.4574C56.4803 66.0039 58.1558 69.9347 59.2383 73.5948C62.4019 84.3797 63.1239 95.7337 61.3519 106.832C60.5271 111.988 59.0321 117.31 55.4236 121.099Z" fill="black"/>
</g>
<path d="M37.1221 145.638C31.5803 141.513 24.5049 139.941 17.5842 139.941C13.8725 139.941 9.92884 140.418 7.0162 142.725C4.10356 145.032 2.85342 149.749 5.3021 152.545C6.927 154.07 9.03231 154.982 11.2563 155.123C16.5402 155.922 22.5331 155.961 26.219 159.827C28.3326 162.031 29.4409 165.291 32.1602 166.658C33.5432 167.226 35.0737 167.328 36.52 166.949C37.9663 166.57 39.2498 165.73 40.1764 164.557C41.9782 162.139 42.7853 159.123 42.4318 156.128C42.4129 154.089 41.924 152.082 41.0031 150.262C40.0822 148.443 38.7541 146.86 37.1221 145.638Z" fill="#E8505B"/>
<path d="M64.3532 130.365C61.1184 124.927 61.4921 117.826 64.263 112.142C67.0338 106.459 71.9183 102.012 77.2667 98.6229C83.5554 94.639 90.5589 91.9163 97.8872 90.6067C100.754 89.988 103.72 89.988 106.586 90.6067C108.025 90.9223 109.364 91.5854 110.488 92.5379C111.611 93.4904 112.484 94.7035 113.03 96.0711C114.384 100.169 111.742 104.435 109.074 107.838C104.369 113.821 99.1973 119.424 93.6085 124.592C89.1235 128.755 84.1102 132.763 78.1431 134C72.1761 135.237 66.325 134 63.9666 129.618" fill="#E8505B"/>
<path d="M42.5734 201.029C42.4774 200.212 42.4774 199.385 42.5734 198.568C42.6894 196.789 42.844 194.56 43.0116 191.905C43.2189 188.614 43.2533 185.314 43.1147 182.02C42.8917 178 42.3444 174.005 41.4779 170.073C40.644 166.152 39.2599 162.368 37.3667 158.835C35.8198 155.96 33.6541 153.464 31.0259 151.527C29.2326 150.247 27.2496 149.255 25.1491 148.589C24.3492 148.422 23.5678 148.176 22.8164 147.854C23.6436 147.882 24.465 148.003 25.2651 148.215C27.4656 148.75 29.5522 149.675 31.4255 150.947C34.2159 152.867 36.523 155.408 38.1658 158.371C40.1581 161.964 41.6045 165.834 42.4574 169.854C43.3402 173.842 43.8707 177.9 44.0426 181.981C44.1382 185.305 44.0306 188.632 43.7204 191.943C43.4755 194.766 43.1791 197.098 42.96 198.606C42.9145 199.425 42.785 200.237 42.5734 201.029Z" fill="#263238"/>
<path d="M42.9478 195.9C42.9346 195.523 42.9737 195.145 43.0638 194.779C43.2056 193.941 43.386 192.884 43.5922 191.583C44.0562 188.812 44.7134 184.804 45.3836 179.829C46.7626 169.88 48.1416 156.064 48.9664 140.766C49.7912 125.468 49.7912 111.588 49.3788 101.549C49.3015 99.0483 49.1855 96.78 49.0437 94.7824C48.902 92.7848 48.8375 91.0836 48.7086 89.6273C48.5798 88.171 48.5283 87.256 48.4638 86.4054C48.4268 86.0282 48.4268 85.6484 48.4638 85.2712C48.5873 85.6289 48.661 86.0018 48.6829 86.3796C48.7946 87.2388 48.9364 88.3084 49.1082 89.5886C49.3015 90.9805 49.4562 92.7075 49.6237 94.7437C49.7912 96.78 49.9846 99.0096 50.1005 101.523C50.7637 114.614 50.7249 127.731 49.9846 140.818C49.1597 156.154 47.6648 169.983 46.1182 179.932C45.3707 184.907 44.5975 188.953 44.0175 191.66C43.734 192.949 43.4891 193.993 43.2958 194.817C43.2224 195.191 43.1055 195.554 42.9478 195.9Z" fill="#263238"/>
<path d="M47.2148 169.441C47.3232 168.32 47.5171 167.208 47.7948 166.116C48.4762 163.12 49.3107 160.16 50.295 157.25C51.7512 152.925 53.4508 148.687 55.3857 144.555C57.7284 139.479 60.4243 134.574 63.4534 129.876C68.7985 121.199 75.6764 113.565 83.7517 107.348C85.1522 106.29 86.6156 105.317 88.1336 104.435C88.8037 104.036 89.4223 103.636 89.9894 103.327L91.6261 102.554C92.6264 102.044 93.6649 101.613 94.7321 101.265C94.861 101.51 90.3245 103.275 84.177 107.967C76.3242 114.291 69.604 121.904 64.304 130.482C61.2918 135.137 58.5965 139.989 56.2363 145.006C54.269 149.09 52.5096 153.271 50.9652 157.533C49.6764 161.167 48.7614 164.17 48.1685 166.258C47.9435 167.345 47.6244 168.41 47.2148 169.441Z" fill="#263238"/>
<path d="M57.0847 237.837H33.2423C31.1623 237.837 29.1026 237.427 27.181 236.631C25.2593 235.835 23.5132 234.669 22.0424 233.198C20.5716 231.727 19.4049 229.981 18.6089 228.059C17.8129 226.137 17.4033 224.078 17.4033 221.998L17.4033 182.316H72.9238V221.998C72.9238 224.078 72.5141 226.137 71.7182 228.059C70.9222 229.981 69.7554 231.727 68.2846 233.198C66.8139 234.669 65.0678 235.835 63.1461 236.631C61.2244 237.427 59.1647 237.837 57.0847 237.837Z" fill="#E8505B"/>
<path d="M35.4082 182.471C35.5287 183.051 35.7419 183.608 36.0397 184.121C36.7472 185.556 37.5705 186.93 38.5013 188.232C41.6001 192.573 45.6979 196.105 50.4487 198.53C55.1995 200.955 60.4639 202.201 65.7976 202.163C67.4007 202.161 69.0005 202.019 70.5789 201.738C71.1655 201.682 71.7396 201.535 72.2801 201.3C72.2801 201.12 69.7928 201.609 65.8363 201.48C60.6419 201.334 55.5455 200.032 50.9174 197.668C46.2894 195.305 42.246 191.941 39.0812 187.819C36.6196 184.675 35.5629 182.394 35.4082 182.471Z" fill="#FAFAFA"/>
<path d="M17.9199 219.845C18.5385 219.816 19.148 219.686 19.7242 219.459C21.3225 218.963 22.8545 218.275 24.2865 217.41C29.1409 214.569 32.8197 210.086 34.6584 204.771C36.4972 199.456 36.3747 193.658 34.3132 188.425C33.7171 186.861 32.9384 185.373 31.9934 183.992C31.3103 183.025 30.8593 182.548 30.8077 182.587C31.9051 184.544 32.8612 186.577 33.6688 188.67C35.4813 193.771 35.504 199.337 33.7333 204.452C31.9626 209.568 28.5037 213.928 23.9256 216.817C21.9959 217.963 19.9892 218.975 17.9199 219.845Z" fill="#FAFAFA"/>
<path d="M32.1464 236.303C32.1894 233.533 32.5791 230.78 33.3063 228.107C34.2098 225.254 35.6103 222.584 37.4433 220.219C39.7001 217.333 42.4918 214.909 45.6657 213.079C51.5232 209.819 58.2703 208.518 64.92 209.368C67.666 209.792 70.3822 210.39 73.0522 211.159C72.4139 210.756 71.7248 210.44 71.0031 210.218C69.0634 209.503 67.0552 208.989 65.0103 208.685C58.1914 207.603 51.2069 208.842 45.1759 212.203C41.8906 214.094 39.0197 216.628 36.7345 219.652C34.8723 222.119 33.4867 224.912 32.649 227.888C32.0678 229.91 31.7984 232.009 31.85 234.112C31.8433 234.853 31.9432 235.591 32.1464 236.303Z" fill="#FAFAFA"/>
</g>
<defs>
<filter id="filter0_d_36_1981" x="0" y="0" width="160.998" height="248.994" filterUnits="userSpaceOnUse" color-interpolation-filters="sRGB">
<feFlood flood-opacity="0" result="BackgroundImageFix"/>
<feColorMatrix in="SourceAlpha" type="matrix" values="0 0 0 0 0 0 0 0 0 0 0 0 0 0 0 0 0 0 127 0" result="hardAlpha"/>
<feOffset dy="4"/>
<feGaussianBlur stdDeviation="2"/>
<feComposite in2="hardAlpha" operator="out"/>
<feColorMatrix type="matrix" values="0 0 0 0 0 0 0 0 0 0 0 0 0 0 0 0 0 0 0.25 0"/>
<feBlend mode="normal" in2="BackgroundImageFix" result="effect1_dropShadow_36_1981"/>
<feBlend mode="normal" in="SourceGraphic" in2="effect1_dropShadow_36_1981" result="shape"/>
</filter>
</defs>
</svg>
