<svg width="221" height="301" viewBox="0 0 221 301" fill="none" xmlns="http://www.w3.org/2000/svg">
<path d="M127.728 259.718C131.173 246.574 130.25 232.37 125.023 219.818C122.298 213.274 118.382 207.318 115.525 200.837C112.793 194.637 110.999 188.04 109.969 181.35C107.867 167.721 108.905 153.767 110.913 140.194C112.937 126.504 115.708 112.854 118.759 99.3593C121.826 85.7975 125.685 72.2823 132.036 59.8548C132.81 58.3392 133.62 56.8431 134.467 55.3665C134.895 54.6169 133.735 53.9405 133.309 54.6901C126.416 66.7491 122.066 80.0276 118.768 93.4679C117.109 100.238 115.704 107.066 114.339 113.9C112.973 120.734 111.618 127.558 110.474 134.427C108.234 147.864 106.72 161.59 107.899 175.217C108.471 181.832 109.685 188.404 111.758 194.717C113.964 201.432 117.371 207.506 120.641 213.737C123.917 219.984 126.382 226.495 127.572 233.467C128.759 240.408 128.742 247.503 127.522 254.438C127.229 256.094 126.862 257.735 126.435 259.361C126.217 260.196 127.508 260.549 127.728 259.718Z" fill="#535735"/>
<path d="M129.101 234.333C128.553 228.322 131.25 222.56 134.152 217.473C137.26 212.019 141.08 206.934 143.75 201.234C146.639 195.06 148.013 188.326 149.453 181.705C150.774 175.63 152.201 169.565 154.933 163.944C157.389 158.893 160.863 154.203 165.747 151.28C166.358 150.915 166.987 150.582 167.629 150.275C168.284 149.962 167.12 148.072 166.373 148.428C161.173 150.907 157.271 155.348 154.515 160.325C151.534 165.706 149.868 171.641 148.52 177.608C147.004 184.312 145.809 191.15 143.199 197.543C140.775 203.485 136.946 208.701 133.675 214.18C130.592 219.346 127.575 225.108 127.472 231.267C127.46 232.004 127.487 232.741 127.554 233.475C127.599 233.973 127.997 234.554 128.442 234.78C128.854 234.991 129.146 234.792 129.104 234.331L129.101 234.333Z" fill="#535735"/>
<path d="M110.367 183.897C109.324 177.255 110.292 170.471 112.461 164.152C114.631 157.832 117.994 152.094 121.889 146.692C125.843 141.207 130.197 136.018 133.974 130.406C137.797 124.747 140.754 118.55 142.75 112.02C144.771 105.4 145.945 98.5509 146.793 91.6923C146.899 90.8251 147.002 89.9576 147.099 89.0898C147.145 88.6803 145.715 87.9325 145.671 88.3219C144.886 95.2756 143.837 102.223 141.967 108.981C140.126 115.633 137.427 121.955 133.704 127.775C130.06 133.473 125.732 138.685 121.71 144.113C117.76 149.445 114.205 155.023 111.798 161.235C109.415 167.382 108.08 174.051 108.64 180.655C108.711 181.486 108.814 182.313 108.943 183.137C108.993 183.458 109.442 183.725 109.7 183.862C109.784 183.906 110.416 184.195 110.372 183.906L110.367 183.897Z" fill="#535735"/>
<path d="M109.583 149.148C109.013 143.104 108.318 137.071 107.356 131.077C106.369 124.925 105.106 118.808 103.38 112.818C101.699 106.988 99.5759 101.259 96.7677 95.8737C93.9285 90.4292 90.2235 85.6301 86.3632 80.8822C82.4746 76.0995 78.5082 71.2547 75.9112 65.6164C75.5839 64.9064 75.282 64.1864 75.0053 63.4563C74.7978 62.9124 73.8087 63.3988 73.9879 63.8686C76.1909 69.6568 79.8986 74.6397 83.7525 79.4251C87.5918 84.1894 91.5362 88.8642 94.583 94.1945C97.5996 99.4762 99.8785 105.153 101.681 110.954C103.539 116.932 104.899 123.058 105.962 129.223C107.001 135.257 107.754 141.328 108.358 147.414C108.429 148.129 108.498 148.844 108.565 149.559C108.617 150.113 109.63 149.65 109.583 149.147V149.148Z" fill="#535735"/>
<path d="M83.8048 251.16C88.0435 244.111 89.6405 235.917 89.6323 227.766C89.6241 219.372 88.0691 211.043 86.0672 202.919C83.93 194.251 81.3431 185.695 77.1838 177.762C73.5623 170.873 69.01 164.514 63.6549 158.866C58.2823 153.182 52.1401 148.278 45.4073 144.297C44.5821 143.81 43.7484 143.338 42.9062 142.882C42.5351 142.68 41.9354 142.751 41.5351 142.777C41.4354 142.784 40.5926 142.928 40.759 143.019C47.6003 146.748 53.8864 151.416 59.4344 156.887C65.0139 162.38 69.8039 168.621 73.6672 175.431C77.9818 183.049 80.8184 191.273 83.0214 199.72C85.1668 207.942 86.9685 216.327 87.3415 224.841C87.6962 232.935 86.676 241.228 83.0351 248.553C82.5872 249.454 82.1 250.335 81.5817 251.198C81.5186 251.302 82.6228 251.365 82.7014 251.364C82.9501 251.36 83.6594 251.417 83.8148 251.16H83.8048Z" fill="#535735"/>
<path d="M89.1669 221.087C90.6404 213.871 90.5838 206.461 89.7154 199.171C88.8177 191.639 87.0918 184.236 85.2938 176.878C83.4655 169.414 81.5459 161.963 80.225 154.391C78.9214 146.884 78.2797 139.269 79.0202 131.665C79.437 127.381 80.2003 123.139 80.9983 118.912C81.8168 114.578 82.6395 110.245 83.4664 105.914C83.6706 104.838 83.8748 103.762 84.0789 102.686C84.2014 102.046 82.8778 102.201 82.7671 102.784C81.9426 107.124 81.1184 111.466 80.2945 115.808C79.49 120.046 78.649 124.283 78.0805 128.56C77.053 136.238 77.287 143.903 78.4187 151.558C79.5403 159.145 81.385 166.605 83.2169 174.045C85.036 181.432 86.8734 188.834 87.9959 196.366C89.0874 203.679 89.4704 211.144 88.3433 218.477C88.2031 219.385 88.0407 220.289 87.856 221.189C87.7253 221.829 89.0499 221.672 89.1678 221.091L89.1669 221.087Z" fill="#535735"/>
<path d="M86.9665 240.473C87.1364 232.642 86.0248 224.837 83.6757 217.365C81.3215 209.848 77.7909 202.752 73.2155 196.34C70.6328 192.738 67.7206 189.384 64.5167 186.321C64.1511 185.967 63.4408 185.974 63.1547 186.422C62.8265 186.938 63.1474 187.525 63.5277 187.889C68.9603 193.1 73.4915 199.244 76.957 205.919C80.4564 212.654 82.8667 219.9 84.098 227.389C84.7801 231.576 85.0714 235.818 84.9683 240.06C84.9409 241.236 86.9309 241.888 86.9638 240.473H86.9665Z" fill="#535735"/>
<path d="M87.0775 243.796C85.5555 236.855 83.0444 230.144 79.9062 223.777C76.7071 217.257 72.8149 211.101 68.2969 205.414C65.8536 202.334 63.1911 199.434 60.3304 196.738C60.0388 196.463 59.3897 196.403 59.014 196.33C58.9016 196.308 58.1164 196.228 58.2151 196.322C63.3854 201.166 67.859 206.743 71.713 212.684C75.684 218.779 78.9839 225.286 81.5553 232.09C82.9366 235.739 84.055 239.482 84.9019 243.29C84.9512 243.515 85.7748 243.637 85.9577 243.68C86.0354 243.699 87.093 243.869 87.0775 243.796Z" fill="#535735"/>
<path d="M85.5297 247.179C85.6567 236.437 79.6281 226.755 71.1862 220.486C68.8588 218.768 66.3749 217.273 63.7673 216.021C63.6187 215.953 63.4549 215.926 63.2924 215.942C63.1299 215.958 62.9746 216.017 62.8422 216.112C62.6593 216.244 62.4628 216.588 62.759 216.731C71.9349 221.169 79.8457 228.649 82.9226 238.573C83.809 241.397 84.2479 244.342 84.2234 247.301C84.2161 247.941 85.5233 247.717 85.5297 247.183V247.179Z" fill="#535735"/>
<path d="M119.921 57.232C128.895 60.0264 134.255 69.8833 143.408 72.0644C149.961 73.6267 156.808 70.7764 162.321 66.9966C173.488 59.3408 181.591 47.3284 183.522 34.1797C184.436 27.9281 183.931 21.2989 180.861 15.7329C177.296 9.27187 170.613 4.86125 163.5 2.41781C150.629 -2.00469 135.528 -0.363848 124.438 7.3705C113.348 15.1048 106.857 28.9364 108.898 42.0521C110.007 49.1502 115.099 55.7301 119.921 57.232Z" fill="#535735"/>
<path d="M175.373 36.4095C175.21 36.4167 175.053 36.4662 174.916 36.5531C174.881 36.564 174.846 36.5768 174.814 36.5851C174.599 36.6417 174.492 36.6591 174.195 36.713C173.492 36.8419 172.783 36.9434 172.073 37.0293C170.506 37.2185 168.897 37.3675 167.319 37.2121C162.853 36.7697 158.452 35.841 153.981 35.4214C152.212 35.2426 150.433 35.1752 148.656 35.2194C153.552 31.3554 159.037 28.2529 164.796 25.8899C166.771 25.0812 168.777 24.3554 170.813 23.7125C171.293 23.5607 171.786 23.0817 171.93 22.5963C172.058 22.163 171.816 21.897 171.372 22.0378C164.16 24.3231 157.253 27.6267 151.062 31.9852C149.711 32.9359 148.401 33.9414 147.131 35.0018C147.993 31.4934 148.909 27.9878 150.311 24.6494C151.762 21.1993 153.806 18.0299 156.351 15.2852C157.834 13.6924 159.447 12.2248 161.172 10.8974C161.48 10.6589 162.032 10.0967 161.868 9.65059C161.703 9.2045 161.066 9.53358 160.83 9.7164C157.603 12.2129 154.67 15.1307 152.329 18.4782C149.926 21.9098 148.245 25.7418 147.021 29.7365C146.779 30.5272 146.557 31.3234 146.341 32.1214C145.082 25.0613 143.461 18.0704 141.486 11.1762C140.891 9.09754 140.383 6.83693 138.782 5.27288C138.226 4.72441 136.647 6.30949 137.203 6.85247C138.613 8.23005 139.078 10.1543 139.609 11.9889C140.166 13.9128 140.69 15.8465 141.18 17.7899C142.235 21.9339 143.177 26.1035 144.007 30.2987C144.222 31.3853 144.428 32.474 144.625 33.5648C142.689 32.0483 140.61 30.7027 138.5 29.4577C135.266 27.549 131.887 25.8442 128.361 24.5425C126.449 23.8377 124.222 22.8971 122.173 23.4519C121.694 23.5808 121.196 24.0973 121.056 24.569C120.922 25.0187 121.173 25.2463 121.614 25.1266C122.562 24.8706 123.565 25.1613 124.479 25.4255C125.266 25.6531 126.045 25.9118 126.816 26.1906C128.492 26.7985 130.133 27.506 131.742 28.2766C135.039 29.8483 138.2 31.6908 141.193 33.7851C141.914 34.2925 142.625 34.8172 143.316 35.3647C137.863 35.4561 132.364 36.0119 127.085 37.3081C125.441 37.6988 123.83 38.2162 122.266 38.8557C121.789 39.0559 121.303 39.4572 121.15 39.9728C121.031 40.3713 121.262 40.7187 121.708 40.5313C124.526 39.353 127.535 38.6683 130.541 38.1765C133.829 37.6492 137.145 37.3195 140.473 37.1893C141.595 37.1408 142.72 37.1216 143.843 37.1153C141.854 38.6698 139.992 40.3816 138.277 42.2343C135.939 44.7344 133.781 47.4548 132.097 50.4422C131.308 51.8408 130.614 53.3207 130.193 54.8747C130.075 55.308 130.31 55.5621 130.751 55.4333C131.208 55.298 131.74 54.7861 131.868 54.3162C132.585 51.6735 134.081 49.273 135.69 47.0855C137.621 44.4724 139.819 42.0675 142.249 39.9097C143.216 39.047 144.228 38.2365 145.282 37.4818C145.729 40.5539 145.927 43.6571 145.873 46.761C145.816 50.2749 145.472 53.8271 144.561 57.2304C144.082 59.0193 143.448 60.7644 142.561 62.3924C142.378 62.7197 142.325 63.2151 142.817 63.2151C143.31 63.2151 143.823 62.6667 144.039 62.2763C145.755 59.1318 146.66 55.6033 147.16 52.0757C147.674 48.4494 147.754 44.7628 147.526 41.1063C147.477 40.3101 147.41 39.5139 147.33 38.7195C151.81 43.3276 155.036 49.0582 159.574 53.6288C160.988 55.0521 162.527 56.3492 164.228 57.416C164.929 57.8557 166.391 56.202 165.807 55.8364C159.591 51.9386 155.8 45.3323 151.245 39.789C150.442 38.8119 149.604 37.863 148.72 36.9553C152.432 36.9498 156.142 37.5403 159.803 38.0998C162.053 38.4435 164.313 38.8173 166.584 38.9919C168.25 39.1199 169.947 38.9444 171.598 38.725C172.362 38.6235 173.124 38.5047 173.877 38.342C174.589 38.1884 175.274 37.937 175.632 37.2286C175.796 36.9041 175.874 36.4141 175.373 36.4095ZM175.018 36.5284H175.002C175.03 36.5138 175.061 36.5042 175.093 36.5001C175.066 36.5065 175.043 36.5256 175.018 36.5284Z" fill="white"/>
<path d="M70.2617 83.8835C73.0242 82.2774 75.4028 80.0927 78.0052 78.2535C86.8055 72.0375 95.7519 64.3187 98.4815 53.4178C101.621 40.8652 95.4265 27.7905 87.2086 17.6356C82.4853 11.799 76.9092 6.41391 70.0287 3.18525C63.1481 -0.0434166 54.7912 -0.877092 47.875 2.27936C43.1892 4.41839 39.4935 8.18364 36.3827 12.2058C32.111 17.7298 28.3467 24.3946 27.333 31.4022C26.236 38.9647 28.1557 46.0601 30.7627 53.076C33.2592 59.7965 35.6587 66.4486 40.2147 72.1234C45.8411 79.132 55.3726 85.4229 64.6335 85.6067C66.5897 85.6432 68.4701 84.9256 70.2617 83.8835Z" fill="#535735"/>
<path d="M89.7955 39.1085C85.6015 40.136 81.413 41.1872 77.2127 42.1872C73.1439 43.1571 69.056 43.8884 64.8574 43.6974C64.5713 43.6846 64.2861 43.6608 64 43.6416C65.0556 42.5851 66.0456 41.4651 66.9645 40.2877C69.3741 37.1888 71.3257 33.7563 74.0498 30.9052C76.9754 27.8587 80.439 25.3794 84.266 23.5923C84.7724 23.3546 85.2459 22.7568 85.3346 22.2001C85.4132 21.7055 85.107 21.4459 84.638 21.6662C81.1679 23.3002 77.9664 25.4523 75.1431 28.0486C72.2179 30.7352 69.9829 33.9136 67.7214 37.1514C66.3429 39.1467 64.7901 41.0158 63.0813 42.7366C61.0282 35.4237 59.4002 27.8612 60.2942 20.2493C60.8225 15.7564 62.2769 11.4098 65.0549 7.79905C65.2825 7.50379 65.7176 6.76244 65.3191 6.43702C64.9205 6.11159 64.2697 6.78621 64.0713 7.04399C58.7201 13.9977 57.6185 22.8984 58.5948 31.4016C58.955 34.5388 59.5921 37.6121 60.3591 40.6552L53.4392 33.3815L44.0594 23.5137C43.511 22.9387 41.9195 24.8208 42.5484 25.4827L58.9212 42.6946L59.2557 43.0493C57.2328 42.6909 55.2281 42.2137 53.25 41.6662C49.4271 40.6076 45.7167 39.1825 41.893 38.134C37.6588 36.9722 33.1824 36.4292 29.014 38.1295C28.5048 38.337 28.0313 38.9851 27.9454 39.5217C27.8631 40.04 28.1721 40.2475 28.6419 40.0555C32.2847 38.5692 36.3269 39.0984 40.0328 40.0555C43.8382 41.0382 47.5148 42.4688 51.2929 43.5511C54.1476 44.3683 57.0518 45.0539 59.998 45.4534C57.2556 47.5942 54.2802 49.4005 51.2033 51.0103C47.4993 52.9473 43.6636 54.6156 39.8271 56.2674C39.3188 56.4859 38.8453 57.1148 38.7585 57.6587C38.6771 58.1688 38.9852 58.3955 39.4541 58.1934C46.1857 55.2957 52.9922 52.3239 58.9367 47.9727C59.902 47.2658 60.8372 46.5208 61.7421 45.7377C63.0786 50.3869 64.5357 55.0105 65.5878 59.7319C66.8676 65.4634 67.4919 71.4152 66.4389 77.2345C66.3475 77.7345 66.6839 77.9658 67.1345 77.7684C67.6409 77.5453 68.1053 76.9191 68.2031 76.3771C69.8942 67.0311 67.4764 57.7739 64.8565 48.8192C65.5549 49.4801 66.2698 50.1218 67.0093 50.7388C69.6959 52.9674 72.6667 54.8679 75.1038 57.3863C77.8964 60.2712 79.7256 63.8939 81.5182 67.4416C81.9359 68.2643 83.6133 66.4891 83.2367 65.7441C81.6196 62.5446 79.9696 59.3233 77.6478 56.5617C75.3826 53.8678 72.4638 51.8815 69.7142 49.7287C68.181 48.5088 66.7202 47.2006 65.3392 45.8108C68.5459 45.7861 71.7133 45.3291 74.8625 44.6225C79.5903 43.563 84.2843 42.3372 88.9892 41.1854C89.545 41.0492 90.0039 40.4897 90.1995 39.9742C90.3266 39.6369 90.3586 38.9668 89.7955 39.1085Z" fill="white"/>
<path d="M220.977 123.831C220.952 123.3 220.919 122.763 220.867 122.219C220.445 120.665 220.005 119.057 219.538 117.41C219.294 116.547 219.043 115.678 218.785 114.803C218.19 112.792 217.555 110.746 216.858 108.702C216.725 108.313 216.593 107.919 216.451 107.53C215.72 105.449 214.923 103.378 214.043 101.355C213.887 100.984 213.724 100.617 213.555 100.25C212.767 98.5046 211.916 96.8034 210.985 95.1689C210.768 94.775 210.541 94.3901 210.311 94.0089C209.224 92.1831 208.002 90.4414 206.655 88.7984C206.428 88.5242 206.192 88.2427 205.957 87.9757C204.129 85.8952 202.082 84.0734 199.782 82.608C199.408 82.3695 199.03 82.14 198.638 81.9152C195.256 80.0028 191.355 78.8346 186.821 78.6856C184.811 78.5172 182.788 78.5856 180.794 78.8894C180.246 78.9717 179.708 79.0722 179.181 79.1865C174.897 80.1381 171.114 82.1684 167.672 84.8211C166.851 85.4519 166.045 86.1201 165.252 86.8258C162.327 89.4137 159.637 92.4019 157.065 95.4669C156.22 96.4725 155.39 97.4844 154.564 98.4945C153.123 100.262 151.708 102.021 150.294 103.705C146.311 107.736 141.463 111.035 138.447 115.83C138.293 116.142 138.149 116.454 138.01 116.761C137.299 118.298 136.7 119.884 136.216 121.507C130.296 141.709 153.493 144.086 155.737 157.714C155.811 158.156 156.377 158.94 156.345 159.096C156.489 159.096 169.457 156.993 176.364 156.882C194.994 157.651 218.591 147.603 220.829 128.01C220.985 126.623 221.034 125.226 220.977 123.831Z" fill="#FFE4CA"/>
<path d="M157.803 152.093C157.798 152.156 157.785 152.214 157.779 152.276C157.83 152.2 157.879 152.124 157.933 152.048C157.891 152.066 157.847 152.081 157.803 152.093ZM220.978 123.829C220.689 124.685 220.382 125.535 220.056 126.376C215.095 139.905 203.651 151.87 188.686 152.997C178.301 153.692 167.101 150.448 157.581 156.135C157.581 155.631 157.574 155.126 157.56 154.621C166.323 147.456 178.012 146.576 188.624 144.032C203.067 141.509 214.7 130.868 219.539 117.408C219.295 116.545 219.044 115.676 218.786 114.801C216.518 123.091 211.792 130.822 204.824 135.851C191.478 145.392 173.156 142.418 159.659 151.636C172.423 134.857 196.287 132.6 210.093 116.793C210.676 116.358 214.042 112.441 216.858 108.699C216.725 108.311 216.593 107.917 216.451 107.527C201.585 130.666 175.347 131.068 158.979 150.621C174.411 118.588 188.252 129.062 209.207 106.253C209.71 105.478 211.979 103.459 214.043 101.354C213.888 100.983 213.724 100.616 213.556 100.249C186.681 130.668 178.383 113.998 159.107 147.6C160.108 131.238 172.004 116.23 186.515 109.207C195.076 105.392 205.62 103.559 210.985 95.1692C210.769 94.7752 210.542 94.3903 210.312 94.0092C210.171 94.1323 210.064 94.2897 210.002 94.4662C198.645 110.064 177.955 100.768 161.471 133.249C164.454 123.723 169.89 108.513 179.767 104.564C187.971 101.698 196.323 98.7662 202.758 92.6544C203.398 92.0146 205.081 90.4606 206.656 88.8014C206.429 88.5272 206.194 88.2457 205.959 87.9787C198.117 97.1446 188.551 99.5761 177.377 104.323C184.106 96.3411 195.812 92.7577 199.784 82.611C199.41 82.3724 199.032 82.143 198.639 81.9181C198.531 82.0573 198.447 82.2141 198.392 82.3816C195.894 89.9523 188.13 93.3428 182.401 98.1172C175.118 104.059 169.283 111.67 165.064 120.056C164.956 104.938 171.311 96.6647 178.664 84.4813C179.127 84.0407 180.097 81.4181 180.796 78.897L179.182 79.1941C176.121 90.2914 166.005 98.5057 164.509 110.311C161.796 103.214 163.739 95.4105 166.229 88.5217C166.245 88.0263 166.997 86.4192 167.674 84.8287C166.852 85.4539 166.045 86.1194 165.253 86.8251C161.622 95.2578 159.461 107.119 163.964 113.681C163.66 117.017 163.042 120.593 163.279 123.868C160.659 129.941 158.774 136.447 157.907 142.966C157.649 144.778 157.468 146.596 157.349 148.422C156.284 142.311 155.967 135.833 152.817 130.28C149.153 122.952 149.379 114.484 153.148 107.262C154.611 103.382 155.682 99.365 157.065 95.4699C156.221 96.4754 155.391 97.4874 154.564 98.4975C153.777 100.898 153.044 103.32 152.225 105.719C148.831 113.134 146.725 121.336 150.097 129.199C152.454 134.101 154.358 139.147 154.85 144.63C152.007 141.943 148.413 140.159 145.762 137.24C141.03 132.378 136.977 123.91 138.007 116.763C137.296 118.3 136.697 119.887 136.213 121.509C136.611 126.979 139.027 132.6 142.205 136.549C142.962 137.489 143.68 138.419 144.557 139.258C145.368 140.024 146.224 140.741 147.122 141.404C148.753 142.627 150.492 143.717 152.032 145.061C153.507 146.341 154.711 147.895 155.323 149.769C155.589 150.606 155.755 151.471 155.818 152.347C155.858 152.858 155.871 153.371 155.859 153.884C155.829 155.164 155.959 156.434 155.907 157.723C155.882 158.29 155.935 158.804 156.09 159.094C156.219 159.34 156.239 159.426 156.615 159.249C157.219 158.952 157.678 158.262 157.569 157.569C169.255 150.916 183.116 157.687 195.344 153.181C207.47 149.286 215.891 139.469 220.825 128.014C220.982 126.626 221.034 125.227 220.978 123.83V123.829Z" fill="#FFCFA6"/>
<path d="M62.9318 152.287C60.7379 152.143 59.1528 152.385 58.108 153.26C57.7685 153.545 57.4875 153.892 57.2807 154.283C57.1743 154.476 57.0826 154.676 57.0065 154.882C56.7249 155.637 56.5777 156.575 56.5494 157.737C49.3663 172.996 30.6397 162.947 24.7299 158.845C23.0415 157.464 21.3074 155.927 19.5743 154.261C18.843 153.559 18.1117 152.832 17.3904 152.086C15.4827 150.12 13.606 148.007 11.8326 145.778C10.881 144.582 9.95684 143.358 9.08111 142.102C7.56183 139.955 6.17879 137.716 4.94016 135.396C4.73448 135.016 4.53795 134.637 4.34598 134.257C3.27667 132.146 2.37294 129.955 1.64294 127.704C1.39795 126.958 1.18588 126.207 0.995739 125.461C-0.0500118 121.356 -0.331559 117.215 0.437214 113.176C0.535025 112.645 0.655686 112.118 0.794632 111.59C1.54055 108.736 2.83586 105.944 4.78841 103.264C5.695 102.312 6.6729 101.432 7.71359 100.629C8.07924 100.348 8.45494 100.075 8.82973 99.8248C12.2832 97.4559 16.3647 96.171 20.5524 96.1345C21.2041 96.1217 21.8605 96.1345 22.5132 96.1884C26.8506 96.4791 31.2284 97.917 35.4187 100.102C36.2853 100.552 37.1473 101.035 37.9919 101.549C41.8824 103.894 45.5544 106.838 48.8023 110.028C49.3611 110.577 49.9062 111.132 50.4376 111.694C52.7077 114.074 54.7841 116.631 56.6472 119.342C63.0543 127.306 78.2862 146.274 62.9318 152.287Z" fill="#FFE4CA"/>
<path d="M58.1078 153.26C57.7684 153.544 57.4874 153.891 57.2806 154.283C56.1739 153.416 55.069 152.546 53.966 151.674C51.6432 149.837 49.3296 147.988 47.0114 146.148C46.7298 145.925 46.4483 145.701 46.1667 145.473C46.1576 145.464 46.1439 145.459 46.1356 145.451C46.1274 145.443 46.1128 145.433 46.1 145.424C46.0872 145.415 46.0908 145.424 46.0863 145.415C45.7828 145.17 45.483 144.933 45.1795 144.692C44.9381 144.5 44.6968 144.311 44.4482 144.119C44.4482 144.119 44.4482 144.119 44.4399 144.119C44.4014 144.083 44.3594 144.05 44.3147 144.022C44.301 144.008 44.2836 143.995 44.2699 143.981C41.8128 142.056 39.3026 140.175 36.8592 138.222C36.3674 137.829 35.8847 137.436 35.4021 137.029C34.5035 136.288 33.6195 135.533 32.7511 134.756C31.4404 133.573 30.1921 132.322 29.0115 131.008C28.069 129.977 27.1576 128.906 26.2691 127.823C25.621 127.028 24.9894 126.225 24.3796 125.398C24.3796 125.398 24.3796 125.389 24.3705 125.389C23.1877 123.807 22.1244 122.139 21.1894 120.399C19.3227 116.866 18.1426 113.001 16.1617 109.521C14.0839 105.885 11.082 103.031 7.71436 100.632C8.08 100.351 8.45571 100.078 8.8305 99.8276C10.6222 101.096 12.3243 102.503 13.8298 104.108C15.4366 105.84 16.7907 107.79 17.8519 109.901C19.7058 113.558 20.9599 117.464 23.0386 121.011C24.6374 123.736 26.6302 126.222 28.6806 128.614C29.1495 129.163 29.623 129.696 30.1139 130.222L30.123 130.231C30.2574 130.383 30.3973 130.539 30.5435 130.688C32.0982 132.349 33.7509 133.915 35.4926 135.379C36.2522 136.018 37.021 136.643 37.798 137.268C38.6201 137.929 39.4464 138.584 40.2771 139.233C41.9526 140.542 43.641 141.842 45.3157 143.151C45.9053 143.608 46.4958 144.072 47.0808 144.536L47.1878 144.617C47.1878 144.617 47.1969 144.617 47.1969 144.626C47.3441 144.737 47.4867 144.853 47.6348 144.97C50.0508 146.889 52.4632 148.82 54.8892 150.728C55.2549 151.023 55.6205 151.313 55.9862 151.6C56.6931 152.155 57.4003 152.709 58.1078 153.26Z" fill="#FFCFA6"/>
<path d="M47.2037 144.62C47.2302 144.673 47.1123 144.852 46.9441 145.031C46.69 145.305 46.3234 145.579 46.1671 145.468C46.158 145.459 46.1442 145.455 46.136 145.446C46.1278 145.438 46.1132 145.428 46.1004 145.419C45.5165 145.014 44.957 144.576 44.4248 144.105C44.3717 144.064 44.3211 144.019 44.2731 143.972C42.7273 142.587 41.4091 140.97 40.2793 139.219C39.5661 138.112 38.9202 136.963 38.345 135.779C36.6255 132.272 35.4098 128.546 34.2662 124.821C33.1135 121.073 31.9974 117.303 30.6929 113.6C29.3391 109.736 27.7677 105.911 25.6269 102.413C24.5807 100.693 23.3705 99.0768 22.0134 97.5888C21.5435 97.0796 21.0618 96.5887 20.5508 96.1262C21.2025 96.1134 21.8589 96.1262 22.5116 96.1801C23.314 97.0006 24.0644 97.8704 24.7585 98.7844C27.4743 102.349 29.3821 106.463 30.9543 110.641C32.5001 114.732 33.7598 118.932 35.0331 123.113C37.1767 130.18 39.6293 138.096 45.3161 143.139C45.8789 143.633 46.4682 144.095 47.0812 144.524L47.1882 144.605C47.1882 144.605 47.1991 144.616 47.2037 144.62Z" fill="#FFCFA6"/>
<path d="M55.6905 149.726C53.1081 145.848 50.6738 141.855 48.6408 137.659C46.8766 134.023 45.4295 130.235 44.4194 126.324C43.455 122.577 42.774 118.753 41.9513 114.965C41.5445 113.102 41.1423 111.217 40.5033 109.416C39.8287 107.513 38.9265 105.699 37.9082 103.957C37.1357 102.635 36.2956 101.357 35.4199 100.102C36.2865 100.553 37.1485 101.035 37.9932 101.549C38.5965 102.496 39.1678 103.469 39.6953 104.458C40.6194 106.195 41.4147 108 41.9559 109.89C42.4696 111.672 42.8535 113.495 43.2356 115.308C44.0492 119.154 44.7412 123.032 45.8134 126.815C48.0649 134.768 52.1611 142.026 56.7179 148.866C56.8788 149.11 55.8111 149.905 55.6905 149.726Z" fill="#FFCFA6"/>
<path d="M62.2397 141.046C62.226 144.384 61.087 147.604 59.6802 150.592C59.5595 150.852 59.2606 151.093 59.0193 151.232C58.9471 151.272 58.6536 151.415 58.6536 151.286C58.6541 151.256 58.6616 151.227 58.6756 151.201C60.2524 147.864 61.4545 144.236 61.1437 140.498C60.8795 137.411 59.5842 134.556 57.9443 131.961C56.9388 130.37 55.8711 128.833 54.9597 127.181C54.0946 125.611 53.3135 123.996 52.6195 122.343C51.4491 119.537 50.4757 116.653 49.7063 113.712C49.3763 112.488 49.0947 111.255 48.8086 110.027C49.3674 110.576 49.9125 111.131 50.444 111.693C50.6268 112.453 50.8233 113.212 51.0381 113.967C51.8971 117.067 52.9974 120.095 54.329 123.022C55.0931 124.692 55.9503 126.318 56.8967 127.891C57.8483 129.477 58.9562 130.964 59.8548 132.581C61.2927 135.182 62.2534 138.044 62.2397 141.046Z" fill="#FFCFA6"/>
<path d="M30.5448 130.684C30.5219 130.933 29.691 131.662 29.5081 131.483C29.3427 131.322 29.1772 131.161 29.0118 131.005C27.2192 129.296 25.3231 127.7 23.3342 126.226C19.4437 123.321 15.2625 120.838 10.9826 118.56C8.83355 117.412 6.65795 116.316 4.46955 115.245C3.41923 114.731 2.35154 114.244 1.31127 113.708C1.00398 113.555 0.710908 113.376 0.435547 113.172C0.533357 112.641 0.654024 112.113 0.79297 111.586C1.22169 112.359 2.1998 112.788 2.964 113.155C4.1877 113.744 5.41018 114.341 6.63144 114.945C12.778 117.988 18.8806 121.28 24.3754 125.385C24.3799 125.385 24.3845 125.395 24.3845 125.395C26.3939 126.884 28.3092 128.497 30.1197 130.223L30.1288 130.232L30.5356 130.625C30.5411 130.634 30.5448 130.643 30.5464 130.653C30.5479 130.664 30.5474 130.674 30.5448 130.684Z" fill="#FFCFA6"/>
<path d="M37.4782 137.786C37.3356 137.924 37.0851 138.165 36.862 138.214C36.8321 138.222 36.8014 138.225 36.7706 138.223C33.9113 138.022 31.0528 137.173 28.3681 136.212C27.1901 135.801 26.0356 135.325 24.91 134.787C23.7088 134.202 22.6009 133.452 21.4217 132.826C18.491 131.272 15.2971 130.137 11.9734 129.815C10.2621 129.651 8.53811 129.78 6.82688 129.633C5.34334 129.51 3.90462 129.064 2.61188 128.326C2.27594 128.134 1.95065 127.924 1.63743 127.696C1.39245 126.951 1.18037 126.2 0.990234 125.454C2.02684 126.437 3.16583 127.29 4.46388 127.893C7.54629 129.318 11.0748 128.568 14.3364 129.112C17.4992 129.64 20.5185 130.864 23.2947 132.441C24.3843 133.061 25.4255 133.72 26.5691 134.232C27.8121 134.788 29.0839 135.276 30.3791 135.695C32.0099 136.226 33.6901 136.718 35.3921 137.026C36.1496 137.17 36.9148 137.27 37.6838 137.325C37.7005 137.325 37.7166 137.332 37.7286 137.343C37.8246 137.414 37.5184 137.742 37.4782 137.786Z" fill="#FFCFA6"/>
<path d="M47.0113 146.152C46.8367 146.282 46.6667 146.358 46.5689 146.29C45.3577 145.459 43.8704 145.075 42.4499 144.767C40.565 144.361 38.6481 144.127 36.7367 143.91C33.1049 143.489 29.4237 143.2 25.8587 142.35C24.1301 141.935 22.5578 141.274 20.9361 140.563C18.8547 139.649 16.755 138.777 14.6196 137.995C11.6252 136.887 8.53995 136.042 5.39888 135.471C5.24257 135.444 5.09082 135.418 4.93451 135.395C4.72883 135.015 4.5323 134.636 4.34033 134.256C5.3678 134.408 6.39527 134.578 7.41816 134.779C10.7282 135.435 13.9495 136.463 17.0941 137.678C19.256 138.517 21.3786 139.456 23.5002 140.39C24.9875 141.046 26.5781 141.439 28.1686 141.748C31.8178 142.462 35.5392 142.731 39.2295 143.2C40.8685 143.405 42.5084 143.642 44.1118 144.04L44.429 144.119C44.4349 144.117 44.4413 144.117 44.4472 144.119C44.4472 144.119 44.4472 144.119 44.4555 144.119C45.3093 144.339 46.1667 144.616 46.9483 145.033C47.1733 145.15 47.3912 145.28 47.6009 145.422C47.6814 145.483 47.3368 145.912 47.0113 146.152Z" fill="#FFCFA6"/>
<path d="M53.2429 152.586C53.2338 152.576 53.2201 152.576 53.1981 152.576C50.095 152.893 46.9624 152.76 43.897 152.183C40.8548 151.603 37.9781 150.428 34.9496 149.798C29.1907 148.596 23.1739 148.819 17.532 147.019C14.3899 146.015 11.5053 144.337 9.08008 142.101C9.9558 143.357 10.88 144.581 11.8316 145.777C12.9309 146.435 14.0849 146.997 15.2805 147.457C18.0229 148.516 20.9362 149.011 23.8394 149.369C26.8057 149.734 29.7903 149.941 32.7384 150.455C35.807 150.986 38.6929 152.121 41.7223 152.822C45.1782 153.616 48.7408 153.838 52.2685 153.479C52.5372 153.452 52.7914 153.224 52.9787 153.045C53.0062 153.014 53.3097 152.652 53.2429 152.586Z" fill="#FFCFA6"/>
<path d="M55.8568 154.863C55.8568 154.948 55.7362 155.118 55.6959 155.168C55.5008 155.41 55.2446 155.597 54.9537 155.708C51.6171 156.762 48.2888 157.861 44.934 158.852C42.1195 159.683 39.2208 160.376 36.2719 160.412C33.5789 160.443 31.0056 159.809 28.5348 158.766C26.2028 157.784 24.0053 156.524 21.7703 155.354C21.0463 154.974 20.3178 154.604 19.5764 154.257C18.8451 153.555 18.1138 152.827 17.3926 152.082C17.8789 152.242 18.3615 152.421 18.8351 152.613C24.2677 154.807 29.1143 158.768 35.0908 159.412C38.6202 159.787 42.1359 159.014 45.4999 158.032C48.9305 157.031 52.3256 155.901 55.7298 154.824C55.8212 154.796 55.8568 154.818 55.8568 154.863Z" fill="#FFCFA6"/>
<path d="M35.6304 230.373C34.2839 230.11 33.0983 231.31 33.357 232.658C37.3737 253.586 48.7718 273.035 65.1043 286.706C85.2917 303.602 115.276 300.901 125.821 298.746C140.752 295.696 153.267 284.96 161.534 272.141C169.283 260.122 173.75 246.33 177.448 232.487C177.752 231.35 176.618 230.36 175.529 230.801C151.37 240.593 137.207 244.021 118.869 243.991C99.8701 243.96 87.1044 242.367 68.2014 240.459C62.3144 239.864 43.6555 231.932 35.6304 230.373Z" fill="#FDB744"/>
</svg>
