<svg width="151" height="216" viewBox="0 0 151 216" fill="none" xmlns="http://www.w3.org/2000/svg">
<g clip-path="url(#clip0_53_54861)">
<g opacity="0.1">
<path d="M85.7782 204.909C85.7782 204.909 83.1222 207.863 83.8831 211.537C84.6441 215.212 89.6217 213.299 92.1226 213.299C94.6235 213.299 109.202 214.652 110.516 214.827C111.829 215.002 132.578 214.696 132.578 214.696C132.578 214.696 139.567 206.656 131.817 199.123C124.067 191.589 114.902 202.563 111.33 200.096C107.758 197.629 105.388 196.159 93.6784 202.797" fill="black"/>
<path d="M85.7782 204.909C85.7782 204.909 83.1222 207.863 83.8831 211.537C84.6441 215.212 89.6217 213.299 92.1226 213.299C94.6235 213.299 109.202 214.652 110.516 214.827C111.829 215.002 132.578 214.696 132.578 214.696C132.578 214.696 139.567 206.656 131.817 199.123C124.067 191.589 114.902 202.563 111.33 200.096C107.758 197.629 105.388 196.159 93.6784 202.797" stroke="black" stroke-miterlimit="10"/>
<path d="M16.4976 122.962C16.4976 122.962 10.3084 128.967 4.25479 131.079C-1.79878 133.191 0.794226 137.634 0.794226 137.634L4.25479 143.09C4.25479 143.09 7.64751 139.683 13.5945 133.026C19.5414 126.368 19.7062 125.361 19.7062 125.361C19.7062 125.361 6.29527 149.343 4.59407 157.261C4.59407 157.261 4.56014 155.241 7.5845 155.105C10.6089 154.969 11.9466 154.005 11.9466 154.005C11.9466 154.005 15.824 134.116 18.9016 130.403C21.9793 126.69 14.5396 144.063 15.0242 150.073C15.0242 150.073 16.1535 147.64 18.5817 147.475L21.0051 147.309" fill="black"/>
<path d="M16.4976 122.962C16.4976 122.962 10.3084 128.967 4.25479 131.079C-1.79878 133.191 0.794226 137.634 0.794226 137.634L4.25479 143.09C4.25479 143.09 7.64751 139.683 13.5945 133.026C19.5414 126.368 19.7062 125.361 19.7062 125.361C19.7062 125.361 6.29527 149.343 4.59407 157.261C4.59407 157.261 4.56014 155.241 7.5845 155.105C10.6089 154.969 11.9466 154.005 11.9466 154.005C11.9466 154.005 15.824 134.116 18.9016 130.403C21.9793 126.69 14.5396 144.063 15.0242 150.073C15.0242 150.073 16.1535 147.64 18.5817 147.475L21.0051 147.309" stroke="black" stroke-miterlimit="10"/>
<path d="M57.2009 90.2834C57.2009 90.2834 76.3309 100.503 90.9051 95.9577C105.479 91.4124 116.976 83.3048 118.473 71.5473C119.753 61.5515 117.426 44.9616 119.069 43.8082C119.069 43.8082 102.959 42.173 101.321 42.1584C100.206 42.1584 98.7519 49.8086 96.6581 55.483C96.0252 57.1646 94.9432 58.6387 93.5307 59.7436C92.1183 60.8484 90.4301 61.5413 88.6513 61.7461C85.0114 62.1549 80.0629 62.6075 77.1064 62.4567C72.4994 62.2049 67.9031 63.1185 63.7391 65.1138C56.5126 68.6225 48.9323 75.898 57.2009 90.2834Z" fill="black" stroke="black" stroke-miterlimit="10"/>
<path d="M85.2578 80.3899C85.2578 80.3899 98.0144 83.3098 104.848 75.6255C110.18 69.6592 111.149 48.5337 111.149 48.5337" fill="black"/>
<path d="M85.2578 80.3899C85.2578 80.3899 98.0144 83.3098 104.848 75.6255C110.18 69.6592 111.149 48.5337 111.149 48.5337" stroke="black" stroke-width="2" stroke-miterlimit="10"/>
<path d="M73.3355 66.9045C73.3355 66.9045 85.3505 73.6495 87.7157 79.8446C90.081 86.0397 97.2541 100.795 107.243 115.857C117.232 130.919 123.402 150.866 100.749 163.943C77.969 177.082 21.9795 180.625 16.207 139.459C11.8013 103.335 38.5747 100.805 41.7445 89.5922" fill="black"/>
<path d="M73.3355 66.9045C73.3355 66.9045 85.3505 73.6495 87.7157 79.8446C90.081 86.0397 97.2541 100.795 107.243 115.857C117.232 130.919 123.402 150.866 100.749 163.943C77.969 177.082 21.9795 180.625 16.207 139.459C11.8013 103.335 38.5747 100.805 41.7445 89.5922" stroke="black" stroke-miterlimit="10"/>
<path d="M16.8242 142.837C16.8242 142.837 17.0859 154.234 22.7954 170.61C22.7954 170.61 19.0052 172.863 21.0021 174.81C22.999 176.756 25.8973 179.355 25.8973 179.355C25.8973 179.355 22.2429 181.628 23.188 183.579C24.1331 185.531 29.4209 186.499 29.3627 191.531C29.3046 196.563 27.6421 199.162 29.6099 200.622C31.5777 202.082 31.9557 209.065 31.9557 209.065C31.9557 209.065 40.6314 201.902 49.0405 203.848C57.4495 205.795 65.9556 208.072 65.9556 208.072C65.9556 208.072 66.1155 201.259 64.9329 196.544C63.7503 191.828 64.9571 193.784 66.0525 191.351C67.1479 188.918 65.1655 189.078 65.2625 184.051C65.3594 179.024 71.0786 172.523 71.539 172.036C71.9994 171.549 71.539 157.247 71.539 157.247C71.539 157.247 78.3244 182.426 77.738 186.159C77.1515 189.891 75.174 192.281 77.6604 194.067C80.1468 195.853 82.735 194.602 81.4894 197.201C80.2437 199.799 80.268 200.607 81.6299 200.933C82.9918 201.259 82.8271 200.447 82.987 202.223C83.1206 203.44 83.3772 204.64 83.7528 205.805V208.238C83.7528 208.238 103.14 200.014 107.192 199.756C109.697 199.6 111.132 200.052 111.694 200.291C111.777 200.329 111.871 200.337 111.959 200.314C112.047 200.291 112.125 200.238 112.179 200.164C113.255 198.748 116.764 194.967 114.689 195.113C112.373 195.274 112.906 194.115 112.751 191.356C112.596 188.597 115.499 184.859 112.911 184.373C110.323 183.886 111.457 179.895 111.122 174.747C110.788 169.598 120.331 158.463 110.812 147.392" fill="black"/>
<path d="M16.8242 142.837C16.8242 142.837 17.0859 154.234 22.7954 170.61C22.7954 170.61 19.0052 172.863 21.0021 174.81C22.999 176.756 25.8973 179.355 25.8973 179.355C25.8973 179.355 22.2429 181.628 23.188 183.579C24.1331 185.531 29.4209 186.499 29.3627 191.531C29.3046 196.563 27.6421 199.162 29.6099 200.622C31.5777 202.082 31.9557 209.065 31.9557 209.065C31.9557 209.065 40.6314 201.902 49.0405 203.848C57.4495 205.795 65.9556 208.072 65.9556 208.072C65.9556 208.072 66.1155 201.259 64.9329 196.544C63.7503 191.828 64.9571 193.784 66.0525 191.351C67.1479 188.918 65.1655 189.078 65.2625 184.051C65.3594 179.024 71.0786 172.523 71.539 172.036C71.9994 171.549 71.539 157.247 71.539 157.247C71.539 157.247 78.3244 182.426 77.738 186.159C77.1515 189.891 75.174 192.281 77.6604 194.067C80.1468 195.853 82.735 194.602 81.4894 197.201C80.2437 199.799 80.268 200.607 81.6299 200.933C82.9918 201.259 82.8271 200.447 82.987 202.223C83.1206 203.44 83.3772 204.64 83.7528 205.805V208.238C83.7528 208.238 103.14 200.014 107.192 199.756C109.697 199.6 111.132 200.052 111.694 200.291C111.777 200.329 111.871 200.337 111.959 200.314C112.047 200.291 112.125 200.238 112.179 200.164C113.255 198.748 116.764 194.967 114.689 195.113C112.373 195.274 112.906 194.115 112.751 191.356C112.596 188.597 115.499 184.859 112.911 184.373C110.323 183.886 111.457 179.895 111.122 174.747C110.788 169.598 120.331 158.463 110.812 147.392" stroke="black" stroke-miterlimit="10"/>
<path d="M63.0352 77.319C63.0352 77.319 67.1355 85.2368 67.9837 90.7117L87.0216 84.6188C87.0216 84.6188 78.9664 70.0193 75.0551 69.6494" fill="black"/>
<path d="M63.0352 77.319C63.0352 77.319 67.1355 85.2368 67.9837 90.7117L87.0216 84.6188C87.0216 84.6188 78.9664 70.0193 75.0551 69.6494" stroke="black" stroke-miterlimit="10"/>
<path d="M51.8611 17.4609C51.8611 17.4609 55.9566 3.08038 50.029 1.13378C44.1015 -0.812826 34.4032 0.768789 30.3416 3.32857C26.28 5.88836 28.684 14.2685 24.8066 16.5168C20.9292 18.7651 9.89323 28.4203 11.9531 33.8805C14.013 39.3407 16.9452 42.5234 21.5302 43.0441C22.3694 43.1144 23.2143 43.0453 24.0312 42.8398C26.7969 42.1694 29.2288 40.5191 30.8796 38.1922L35.009 32.5082" fill="black"/>
<path d="M51.8611 17.4609C51.8611 17.4609 55.9566 3.08038 50.029 1.13378C44.1015 -0.812826 34.4032 0.768789 30.3416 3.32857C26.28 5.88836 28.684 14.2685 24.8066 16.5168C20.9292 18.7651 9.89323 28.4203 11.9531 33.8805C14.013 39.3407 16.9452 42.5234 21.5302 43.0441C22.3694 43.1144 23.2143 43.0453 24.0312 42.8398C26.7969 42.1694 29.2288 40.5191 30.8796 38.1922L35.009 32.5082" stroke="black" stroke-miterlimit="10"/>
<path d="M32.6211 71.8636C32.6211 71.8636 34.2641 68.457 35.6745 67.7027C37.0849 66.9484 36.1592 60.3202 36.1592 60.3202L40.7151 57.6631C40.7151 57.6631 78.8638 61.3422 79.7604 62.3398C80.6571 63.3374 76.9396 70.1797 78.699 71.8636C80.0415 73.1386 81.9221 74.9879 82.746 75.8006C82.7765 75.8301 82.7968 75.8686 82.804 75.9105C82.8112 75.9524 82.8048 75.9955 82.7859 76.0335C82.767 76.0715 82.7364 76.1025 82.6987 76.1219C82.661 76.1412 82.6182 76.148 82.5764 76.1412L73.7553 75.0609L68.7341 66.6126" fill="black"/>
<path d="M32.6211 71.8636C32.6211 71.8636 34.2641 68.457 35.6745 67.7027C37.0849 66.9484 36.1592 60.3202 36.1592 60.3202L40.7151 57.6631C40.7151 57.6631 78.8638 61.3422 79.7604 62.3398C80.6571 63.3374 76.9396 70.1797 78.699 71.8636C80.0415 73.1386 81.9221 74.9879 82.746 75.8006C82.7765 75.8301 82.7968 75.8686 82.804 75.9105C82.8112 75.9524 82.8048 75.9955 82.7859 76.0335C82.767 76.0715 82.7364 76.1025 82.6987 76.1219C82.661 76.1412 82.6182 76.148 82.5764 76.1412L73.7553 75.0609L68.7341 66.6126" stroke="black" stroke-miterlimit="10"/>
<path d="M57.6113 23.4224C57.6113 23.4224 57.9942 28.1672 60.1849 28.1672C62.3757 28.1672 62.8506 26.79 62.8506 26.79C62.8506 26.79 65.1189 28.8583 64.0236 29.8559L62.9282 30.8292C62.9282 30.8292 65.5164 31.2136 64.7312 33.3598C63.946 35.5059 62.3805 35.2772 62.3805 35.2772C62.3971 36.0482 62.231 36.8121 61.8958 37.506C61.8958 37.506 59.0169 32.9559 57.5968 32.3865C56.1767 31.8171 54.7614 32.4449 54.4125 33.5301C54.0635 34.6153 53.9036 35.1799 53.9036 35.1799L50.1328 30.4593L57.6113 23.4224Z" fill="black" stroke="black" stroke-miterlimit="10"/>
<path d="M39.5131 37.7446C39.5131 37.7446 35.9071 34.3721 34.9669 36.6691C34.0266 38.9661 31.991 45.2536 36.2222 46.9374C38.3353 47.7793 39.4695 47.0201 40.0753 46.0468C40.4598 45.3856 40.6963 44.6483 40.7684 43.8861" fill="black"/>
<path d="M39.5131 37.7446C39.5131 37.7446 35.9071 34.3721 34.9669 36.6691C34.0266 38.9661 31.991 45.2536 36.2222 46.9374C38.3353 47.7793 39.4695 47.0201 40.0753 46.0468C40.4598 45.3856 40.6963 44.6483 40.7684 43.8861" stroke="black" stroke-miterlimit="10"/>
<path d="M40.3491 51.142C40.543 53.4342 41.6674 64.7293 41.6674 64.7293C41.6674 64.7293 52.7713 75.859 68.1887 70.2431C83.6062 64.6271 81.1974 47.8279 74.7706 43.0198C68.3438 38.2117 61.7668 39.8469 60.9816 31.5738C60.1965 23.3007 54.8554 18.1374 47.8179 21.0475C40.7804 23.9577 34.659 26.2596 37.9499 35.1604" fill="black"/>
<path d="M40.3491 51.142C40.543 53.4342 41.6674 64.7293 41.6674 64.7293C41.6674 64.7293 52.7713 75.859 68.1887 70.2431C83.6062 64.6271 81.1974 47.8279 74.7706 43.0198C68.3438 38.2117 61.7668 39.8469 60.9816 31.5738C60.1965 23.3007 54.8554 18.1374 47.8179 21.0475C40.7804 23.9577 34.659 26.2596 37.9499 35.1604" stroke="black" stroke-miterlimit="10"/>
<path d="M42.2878 2.41363C42.2878 2.41363 46.6498 3.46966 47.1878 8.09771C48.0893 16.181 46.2815 18.4634 46.2815 18.4634L50.5175 18.0789C50.5175 18.0789 53.76 5.54279 50.2655 2.99274C46.771 0.442693 43.6933 0.311297 39.6947 1.53279C35.6962 2.75428 35.2018 3.90765 42.2878 2.41363Z" fill="black" stroke="black" stroke-miterlimit="10"/>
<path opacity="0.63" d="M39.9766 46.2464C40.1666 46.2011 40.3639 46.1961 40.556 46.2317C40.748 46.2672 40.9306 46.3426 41.092 46.4529C41.2534 46.5633 41.3902 46.7062 41.4935 46.8726C41.5969 47.0389 41.6646 47.2251 41.6923 47.4192C41.8765 48.7137 42.177 50.0812 42.6617 50.5484C43.631 51.5217 42.7828 57.1084 45.5697 59.4638C48.0415 61.5467 55.5297 65.3717 57.2019 66.2136C57.2105 66.22 57.2167 66.229 57.2197 66.2393C57.2227 66.2495 57.2222 66.2605 57.2183 66.2705C57.2145 66.2805 57.2074 66.2889 57.1983 66.2945C57.1892 66.3 57.1785 66.3024 57.1679 66.3012L40.1317 62.7925C40.1317 62.7925 41.3967 62.4421 41.3918 62.4226C41.3046 61.936 40.7424 55.6095 40.7424 55.6095C40.7424 55.6095 39.773 47.0591 39.7148 46.5773C39.7963 46.4625 39.8836 46.352 39.9766 46.2464Z" fill="black" stroke="black" stroke-miterlimit="10"/>
<path d="M60.6409 32.1336C60.6409 32.1336 59.8073 30.1091 58.1109 31.3841C56.4146 32.6591 55.6197 35.2384 55.9929 35.618C56.3661 35.9976 59.2208 37.2775 60.6409 34.8101C61.1547 33.6276 60.6409 32.1336 60.6409 32.1336Z" fill="black" stroke="black" stroke-miterlimit="10"/>
<g opacity="0.36">
<path d="M62.3398 45.7743L65.6986 48.5287L69.5615 46.9325L63.3916 44.7913" fill="black"/>
<path d="M62.3398 45.7792C62.6403 45.9836 62.936 46.1928 63.2268 46.4069C63.5176 46.6259 63.8133 46.8303 64.1041 47.0542L65.8295 48.373L65.6211 48.3389C66.9006 47.7842 68.1802 47.2342 69.4742 46.7135V47.1612C68.4467 46.7963 67.4241 46.4215 66.4111 46.0225C65.3981 45.6234 64.3803 45.2292 63.3819 44.7913C64.4385 45.0687 65.4854 45.3801 66.5226 45.7013C67.5598 46.0225 68.6018 46.3583 69.6293 46.7087C69.6589 46.7185 69.6862 46.7342 69.7096 46.7548C69.733 46.7754 69.752 46.8005 69.7656 46.8287C69.7791 46.8568 69.7869 46.8874 69.7885 46.9186C69.7901 46.9498 69.7854 46.981 69.7747 47.0104C69.7659 47.042 69.75 47.0712 69.7281 47.0957C69.7063 47.1202 69.6791 47.1393 69.6487 47.1515C68.3643 47.6966 67.0703 48.2124 65.7713 48.7185C65.7394 48.7331 65.7037 48.7376 65.6692 48.7316C65.6346 48.7255 65.6026 48.7091 65.5775 48.6845L63.9441 47.2245C63.6678 46.9861 63.4061 46.7379 63.1396 46.4945C62.873 46.2512 62.6113 46.0322 62.3398 45.7792Z" fill="black"/>
</g>
<path d="M57.1315 32.3962C57.2766 32.1567 57.478 31.9566 57.7179 31.8132C57.9578 31.6699 58.2291 31.5876 58.5079 31.5737C58.8424 31.6062 59.1587 31.742 59.413 31.9625C59.6674 32.1831 59.8473 32.4774 59.928 32.805C60.1278 33.5922 60.07 34.4232 59.7632 35.1749C59.6228 35.5255 59.3732 35.821 59.0518 36.0175C58.7303 36.2139 58.3542 36.3008 57.9796 36.265C57.2757 36.2277 56.5996 35.9765 56.0409 35.5448C55.6774 35.3161 56.4675 33.4376 57.1315 32.3962Z" fill="black" stroke="black" stroke-miterlimit="10"/>
<path d="M55.8242 28.0894C55.8242 28.0894 55.4703 35.905 58.3735 37.2822C61.2767 38.6594 63.1621 34.7565 64.8827 35.866C66.6033 36.9756 68.4887 42.6451 64.8827 44.7912C61.2767 46.9373 57.4187 46.2025 55.1892 38.7567C52.9597 31.311 55.8242 28.0894 55.8242 28.0894Z" fill="black" stroke="black" stroke-miterlimit="10"/>
<path d="M41.6649 131.955C41.6649 131.955 54.2276 136.014 56.5589 135.688C58.8902 135.362 59.2731 147.406 59.2731 147.406L16.8205 142.837C16.8205 142.837 11.7266 140.403 12.8171 138.286C13.9076 136.17 15.6476 123.745 15.6476 123.745" fill="black"/>
<path d="M41.6649 131.955C41.6649 131.955 54.2276 136.014 56.5589 135.688C58.8902 135.362 59.2731 147.406 59.2731 147.406L16.8205 142.837C16.8205 142.837 11.7266 140.403 12.8171 138.286C13.9076 136.17 15.6476 123.745 15.6476 123.745" stroke="black" stroke-miterlimit="10"/>
<path d="M58.8616 44.9567C58.8116 44.9098 58.7729 44.852 58.7484 44.7878C58.724 44.7235 58.7145 44.6546 58.7205 44.5861C58.7266 44.5176 58.7481 44.4514 58.7835 44.3925C58.8189 44.3336 58.8671 44.2836 58.9246 44.2462C59.2053 44.0652 59.5106 43.9259 59.831 43.8326C61.4061 43.3119 63.7665 45.2439 62.8165 45.6332C61.4401 46.1977 59.5208 45.5699 58.8616 44.9567Z" fill="black" stroke="black" stroke-miterlimit="10"/>
<path d="M64.8984 44.7913C65.0339 44.3147 65.2503 43.8653 65.5382 43.4627C65.8325 43.2637 66.1613 43.1218 66.5075 43.0442C66.1754 43.7872 65.6103 44.4008 64.8984 44.7913Z" fill="black" stroke="black" stroke-miterlimit="10"/>
<path d="M37.8003 27.4858C37.8003 27.4858 38.1832 32.2258 40.3788 32.2258C42.5744 32.2258 43.0396 30.8437 43.0396 30.8437C43.0396 30.8437 45.3128 32.9169 44.2174 33.9096L43.122 34.8829C43.122 34.8829 45.7053 35.2674 44.9202 37.4135C44.135 39.5596 42.5695 39.3261 42.5695 39.3261C42.589 40.0989 42.4227 40.8651 42.0848 41.5598C42.0848 41.5598 39.2059 37.0047 37.7858 36.4353C36.3657 35.866 34.9504 36.4986 34.6015 37.579C34.2525 38.6593 34.1168 39.2336 34.1168 39.2336L31.4414 35.1165L37.8003 27.4858Z" fill="black" stroke="black" stroke-miterlimit="10"/>
<path d="M38.1973 33.1407C38.1973 33.1407 40.4849 34.1822 41.59 33.5203C42.695 32.8585 43.044 30.8438 43.044 30.8438C43.044 30.8438 40.8775 32.3572 38.9873 31.7197C37.097 31.0822 38.1973 33.1407 38.1973 33.1407Z" fill="black" stroke="black" stroke-miterlimit="10"/>
<path d="M30.8906 38.1923L33.6436 38.6789C33.6436 38.6789 44.0592 24.8873 48.7557 23.4224C51.7563 22.5265 54.8729 22.0837 58.0033 22.1085L53.5297 17.6654C53.5297 17.6654 43.9623 15.5144 37.7003 22.8774C33.9808 27.1995 31.6123 32.5263 30.8906 38.1923Z" fill="black" stroke="black" stroke-miterlimit="10"/>
<path d="M50.1484 23.0331C50.1484 23.0331 51.7915 24.639 53.5412 23.4224C55.2908 22.2058 54.7141 17.9719 53.5412 18.5072C53.6555 18.7553 53.7165 19.0247 53.7203 19.2979C53.7241 19.5712 53.6705 19.8422 53.5631 20.0933C53.4556 20.3445 53.2967 20.57 53.0967 20.7554C52.8967 20.9408 52.6601 21.0818 52.4022 21.1692C52.4022 21.1692 53.3958 20.0402 51.869 19.2761C51.8593 19.2761 52.155 22.4004 50.1484 23.0331Z" fill="black" stroke="black" stroke-miterlimit="10"/>
<path d="M53.6445 44.8205C53.6445 44.8205 56.4799 45.8473 56.6786 46.66C56.8773 47.4727 55.1761 49.614 62.7952 49.0933C69.5806 48.6066 74.4273 44.1002 68.902 43.9153C68.6947 43.9076 68.4977 43.8226 68.3495 43.6769C67.6467 42.9712 67.8649 43.1902 68.4658 42.9031" fill="black"/>
<path d="M53.6445 44.8205C54.1729 44.9649 54.6924 45.1404 55.2003 45.3461C55.7304 45.5457 56.2222 45.8354 56.6544 46.2026C56.7915 46.3329 56.8847 46.5031 56.9209 46.6892C56.944 46.8506 56.944 47.0145 56.9209 47.1759C56.8886 47.41 56.9035 47.6483 56.9645 47.8766C57.0703 48.0687 57.2207 48.2323 57.403 48.3535C57.5853 48.4746 57.794 48.5498 58.0114 48.5726C59.0453 48.7623 60.099 48.8195 61.1473 48.7429C62.2127 48.7085 63.2748 48.6045 64.3267 48.4314C65.3668 48.2462 66.3885 47.9694 67.3802 47.6041C68.3615 47.2564 69.2859 46.7643 70.1234 46.1442C70.5041 45.8958 70.7921 45.5279 70.9425 45.0979C70.958 45.0162 70.9503 44.9319 70.9203 44.8544C70.8903 44.777 70.8392 44.7096 70.7729 44.6599C70.588 44.5119 70.3754 44.4027 70.1477 44.3387C69.9006 44.2583 69.6478 44.1965 69.3916 44.1538L68.999 44.1002C68.8435 44.0927 68.6906 44.0564 68.5482 43.9932C68.4095 43.9245 68.2884 43.8246 68.1944 43.7012C68.1072 43.5941 68.0199 43.4919 67.9327 43.3751C67.8455 43.2583 67.8358 43.2729 67.8406 43.1415C67.8455 43.0101 67.9909 43.0345 68.0539 43.0053C68.1864 42.9781 68.3175 42.944 68.4465 42.9031C68.3276 42.9709 68.2046 43.031 68.0781 43.0831C68.0199 43.0831 67.9424 43.1561 67.9618 43.1561C67.9854 43.2002 68.0166 43.2397 68.0539 43.2729C68.2252 43.46 68.4309 43.612 68.6597 43.7206C68.9162 43.7415 69.1739 43.7415 69.4303 43.7206C69.7153 43.725 69.9993 43.7559 70.2785 43.8131C70.5848 43.8687 70.8767 43.9863 71.1364 44.1586C71.2899 44.2613 71.4164 44.3999 71.5048 44.5626C71.5977 44.7388 71.6381 44.9381 71.6211 45.1368C71.5835 45.475 71.4545 45.7965 71.2479 46.0663C71.0717 46.3108 70.8684 46.5345 70.642 46.733C69.7782 47.4704 68.7945 48.0532 67.734 48.4558C66.6927 48.8713 65.6084 49.1684 64.5012 49.3415C63.404 49.5076 62.2956 49.5874 61.186 49.5799C60.0585 49.6245 58.9304 49.5048 57.837 49.2247C57.5423 49.1411 57.2625 49.0114 57.0082 48.8402C56.7177 48.6467 56.5061 48.3548 56.412 48.0178C56.3488 47.7128 56.3488 47.3981 56.412 47.0931C56.4366 46.9814 56.4464 46.8668 56.4411 46.7525C56.4308 46.6615 56.3917 46.5762 56.3296 46.5092C55.9658 46.1353 55.5454 45.8216 55.084 45.5797C54.6187 45.3071 54.1341 45.0541 53.6445 44.8205Z" fill="black"/>
<path d="M46.1299 29.963C46.1299 29.963 46.4207 27.5979 48.7374 28.2646C51.0542 28.9313 51.9557 25.515 48.8877 25.6172C45.8197 25.7194 42.994 27.1794 43.5563 29.2866C44.1185 31.3938 46.1299 29.963 46.1299 29.963Z" fill="black" stroke="black" stroke-miterlimit="10"/>
<path d="M29.3594 115.808C29.3594 115.808 34.6908 117.142 47.0693 115.322L59.4285 113.497C59.4285 113.497 62.4141 88.293 55.5511 81.5383" fill="black"/>
<path d="M29.3594 115.808C29.3594 115.808 34.6908 117.142 47.0693 115.322L59.4285 113.497C59.4285 113.497 62.4141 88.293 55.5511 81.5383" stroke="black" stroke-miterlimit="10"/>
<path d="M56.7952 26.3471C56.7952 26.3471 58.2492 25.2326 59.1119 26.7899C59.9746 28.3472 62.3301 26.9797 60.6289 25.4516C58.9277 23.9235 56.6255 23.2325 55.7822 24.6633C54.9389 26.094 56.7952 26.3471 56.7952 26.3471Z" fill="black" stroke="black" stroke-miterlimit="10"/>
<path d="M42.0853 134.515C42.0853 134.515 46.5249 139.912 45.9191 145.387C45.3132 150.862 42.8608 151.475 42.0853 153.426C41.3098 155.378 39.8558 159.505 37.0689 159.023C34.282 158.541 33.6762 160.969 31.1268 160.123C28.5774 159.276 23.4884 156.955 25.0636 154.4C26.6387 151.845 27.7293 153.426 27.7293 153.426C27.7293 153.426 20.212 150.633 23.7307 143.625" fill="black"/>
<path d="M42.0853 134.515C42.0853 134.515 46.5249 139.912 45.9191 145.387C45.3132 150.862 42.8608 151.475 42.0853 153.426C41.3098 155.378 39.8558 159.505 37.0689 159.023C34.282 158.541 33.6762 160.969 31.1268 160.123C28.5774 159.276 23.4884 156.955 25.0636 154.4C26.6387 151.845 27.7293 153.426 27.7293 153.426C27.7293 153.426 20.212 150.633 23.7307 143.625" stroke="black" stroke-miterlimit="10"/>
<path d="M55.997 41.3069C55.997 41.3069 57.5043 43.9397 53.6414 44.8108C53.6414 44.8108 48.7462 46.4702 52.5897 50.7382" fill="black"/>
<path d="M55.9985 41.3069C56.2317 41.671 56.3639 42.091 56.3814 42.5235C56.39 42.9776 56.2428 43.4209 55.9646 43.7791C55.6805 44.1268 55.3251 44.409 54.9226 44.6064C54.719 44.6891 54.5203 44.7816 54.3167 44.8546L53.6915 45.0395H53.7157C53.1631 45.2542 52.6527 45.5656 52.2084 45.9593C51.7671 46.3345 51.4662 46.8494 51.3554 47.4192C51.2841 48.0097 51.3799 48.6084 51.6316 49.1468C51.7673 49.4194 51.9079 49.6919 52.063 49.9644C52.2181 50.2369 52.4168 50.4511 52.5913 50.7382C52.3732 50.5192 52.1551 50.2856 51.9418 50.052C51.7451 49.8011 51.5623 49.5395 51.3941 49.2685C51.061 48.6907 50.9042 48.0273 50.9434 47.3608C51.0373 46.6811 51.3709 46.0577 51.8837 45.604C52.3726 45.1578 52.944 44.8122 53.5655 44.5869L54.1568 44.4361C54.3458 44.3777 54.53 44.2998 54.7239 44.2317C55.0875 44.0823 55.4173 43.8604 55.6932 43.5795C55.9628 43.2884 56.1326 42.9184 56.1779 42.5235C56.2153 42.1094 56.1539 41.6923 55.9985 41.3069Z" fill="black"/>
<path d="M70.7115 46.0469C70.7115 46.0469 72.1413 47.3998 71.3028 50.2321C70.4643 53.0644 69.3641 54.3735 71.5645 54.9088C73.5323 55.3954 75.1899 55.5609 75.0445 57.2155C75.0106 57.5708 74.9621 57.9212 74.9379 58.2764C74.8894 59.1621 74.3999 61.2304 71.3028 63.6296" fill="black"/>
<path d="M70.7133 46.0469C71.0575 46.3857 71.3307 46.7901 71.5172 47.2363C71.7036 47.6826 71.7994 48.1617 71.799 48.6456C71.7971 49.6087 71.6333 50.5647 71.3143 51.473L70.9121 52.7967C70.7728 53.1489 70.731 53.5322 70.7909 53.9063C70.8297 54.1204 71.1399 54.281 71.5373 54.3929C71.9347 54.5049 72.4194 54.5973 72.8701 54.7044C73.3546 54.8214 73.8268 54.9843 74.2805 55.191C74.5407 55.3119 74.7784 55.4765 74.9833 55.6777C75.2164 55.8946 75.3843 56.1728 75.468 56.4807C75.5071 56.6269 75.5299 56.7771 75.5358 56.9284C75.5358 57.0647 75.5358 57.2204 75.5358 57.3372L75.4535 58.0234L75.4147 58.3689C75.4147 58.5003 75.3808 58.6317 75.3565 58.7582C75.3054 59.0054 75.234 59.2479 75.1433 59.4833C74.7892 60.3951 74.2513 61.2235 73.5632 61.9166C72.9065 62.5945 72.1672 63.1864 71.3628 63.6782C72.031 63.041 72.6454 62.3492 73.1997 61.61C73.7461 60.9034 74.1614 60.1039 74.4259 59.2497C74.4862 59.046 74.53 58.8376 74.5568 58.6268C74.5568 58.5246 74.581 58.4224 74.581 58.3202V57.9698L74.6344 57.2642C74.6344 57.1474 74.6344 57.0744 74.6344 56.9771C74.6262 56.8961 74.6099 56.8163 74.5859 56.7386C74.4453 56.1595 73.5196 55.8918 72.6472 55.6923C72.1964 55.5755 71.7651 55.4879 71.2707 55.3419C71.1422 55.3087 71.0172 55.2631 70.8975 55.2056L70.7037 55.1229L70.5098 55.0013C70.376 54.9076 70.254 54.7981 70.1463 54.6752C70.0396 54.5294 69.9622 54.3641 69.9185 54.1885C69.8763 54.0298 69.8551 53.8662 69.8555 53.7019C69.8636 53.5632 69.8798 53.4251 69.9039 53.2882C69.9555 53.039 70.0235 52.7935 70.1075 52.5534C70.2578 52.0959 70.4419 51.6677 70.5922 51.2346C70.9615 50.4117 71.2113 49.5398 71.3337 48.6456C71.4497 47.7324 71.2291 46.8081 70.7133 46.0469Z" fill="black"/>
<path d="M53.4499 37.6228C53.4499 37.6228 53.3966 39.803 50.2656 40.7763Z" fill="black"/>
<path d="M53.4499 37.6228C53.4781 38.0349 53.3943 38.447 53.2076 38.8151C53.0219 39.1851 52.7669 39.5156 52.4564 39.7884C52.1483 40.0612 51.8001 40.2844 51.424 40.4502C51.2398 40.533 51.0459 40.5914 50.8569 40.6546C50.6679 40.7179 50.4643 40.7422 50.2656 40.7714C50.4401 40.6644 50.6194 40.5816 50.7891 40.4892L51.2737 40.1972C51.6001 39.9996 51.9083 39.7732 52.1946 39.5207C52.4785 39.2699 52.7294 38.9837 52.941 38.6691C53.1643 38.3493 53.3361 37.9962 53.4499 37.6228Z" fill="black"/>
<path d="M35.0222 40.9612C35.0222 40.9612 35.5068 38.3333 35.9915 38.6788C36.4762 39.0243 38.8123 40.9612 38.8123 40.9612C38.8123 40.9612 36.3405 41.5354 37.1838 42.6547C38.0271 43.774 38.8656 43.8519 39.4375 43.044C38.8656 44.7911 37.2759 46.0759 35.8655 44.796C34.4551 43.5161 34.6393 41.112 37.3825 41.5841" fill="black"/>
<path d="M35.0222 40.9612C35.0222 40.9612 35.5068 38.3333 35.9915 38.6788C36.4762 39.0243 38.8123 40.9612 38.8123 40.9612C38.8123 40.9612 36.3405 41.5354 37.1838 42.6547C38.0271 43.774 38.8656 43.8519 39.4375 43.044C38.8656 44.7911 37.2759 46.0759 35.8655 44.796C34.4551 43.5161 34.6393 41.112 37.3825 41.5841" stroke="black" stroke-miterlimit="10" stroke-linecap="round"/>
<path d="M52.3912 33.6275C52.3912 33.6275 51.4558 31.3548 49.5607 32.7856C47.6657 34.2163 46.7739 37.0973 47.1907 37.5207C47.6075 37.9441 50.8015 39.3797 52.3912 36.6204C52.9874 35.2918 52.3912 33.6275 52.3912 33.6275Z" fill="black" stroke="black" stroke-miterlimit="10"/>
<path d="M64.8472 116.689C64.8472 116.689 65.6808 117.341 77.3227 112.63C88.9645 107.92 96.7096 108.898 87.0161 112.63C77.3227 116.363 68.836 119.444 70.2464 120.587C71.6568 121.731 81.486 117.667 81.0159 120.587C80.5457 123.507 75.0495 120.305 69.5533 123.609C66.8052 125.264 66.5338 126.758 66.9507 127.843C67.1803 128.387 67.5804 128.841 68.0904 129.136C68.6003 129.432 69.1922 129.552 69.7763 129.478C73.8169 129.08 77.8059 128.265 81.6799 127.045C87.8255 124.967 94.3783 124.086 88.8385 127.045C83.2987 130.004 70.6826 131.576 65.6711 132.087C60.6596 132.598 39.4551 129.225 39.4551 129.225L29.3594 117.341C29.3594 117.341 56.3072 119.2 64.8472 116.689Z" fill="black" stroke="black" stroke-miterlimit="10"/>
<path d="M46.668 33.6275C46.668 33.6275 48.9411 29.7732 51.8588 30.7076Z" fill="black"/>
<path d="M46.668 33.6275C46.8316 33.0987 47.0894 32.604 47.4289 32.1676C47.7594 31.7117 48.1641 31.3152 48.626 30.9947C49.1001 30.6614 49.6439 30.4416 50.2158 30.3523C50.7865 30.2807 51.3647 30.4022 51.8588 30.6979C51.3436 30.6908 50.8304 30.763 50.3369 30.912C49.8777 31.0764 49.4413 31.2988 49.038 31.5738C48.2021 32.2031 47.4102 32.8893 46.668 33.6275Z" fill="black"/>
<path d="M56.5742 30.9605C56.5742 30.9605 57.2091 29.0139 58.3869 29.1599C58.7648 29.2368 59.1219 29.3938 59.4345 29.6204C59.7471 29.847 60.0079 30.138 60.1996 30.4739" fill="black"/>
<path d="M56.5742 30.9606C56.5787 30.5072 56.7007 30.0627 56.928 29.671C57.0462 29.4578 57.2023 29.2681 57.3885 29.1113C57.6047 28.9369 57.8646 28.8258 58.1397 28.7901C58.4021 28.7811 58.6634 28.8292 58.9055 28.9313C59.1279 29.0214 59.3329 29.1499 59.5113 29.3109C59.8537 29.6165 60.0898 30.024 60.185 30.4739C59.8724 30.2072 59.5329 29.974 59.1721 29.778C59.0075 29.7005 58.8374 29.6354 58.6632 29.5834C58.5052 29.5404 58.3422 29.5191 58.1785 29.5201C58.0341 29.5395 57.8954 29.5893 57.7714 29.6661C57.622 29.768 57.4825 29.8837 57.3545 30.0116C57.1122 30.289 56.8553 30.6005 56.5742 30.9606Z" fill="black"/>
<path d="M125.739 31.5884V34.3428L115.076 40.314L113.593 35.7492L112.488 33.9389" fill="black"/>
<path d="M125.739 31.5884V34.3428L115.076 40.314L113.593 35.7492L112.488 33.9389" stroke="black" stroke-miterlimit="10"/>
<path d="M99.9986 42.173C99.2965 41.9383 98.7121 41.4398 98.3679 40.7821C98.0237 40.1244 97.9463 39.3585 98.1519 38.6448C98.7869 35.866 100.42 34.8051 100.42 34.8051L125.74 31.5737" fill="black"/>
<path d="M99.9986 42.173C99.2965 41.9383 98.7121 41.4398 98.3679 40.7821C98.0237 40.1244 97.9463 39.3585 98.1519 38.6448C98.7869 35.866 100.42 34.8051 100.42 34.8051L125.74 31.5737" stroke="black" stroke-miterlimit="10"/>
<path d="M49.9414 28.7998C49.9414 28.7998 51.0513 28.8679 50.6054 30.5712Z" fill="black"/>
<path d="M49.9414 28.7999C50.0426 28.7369 50.1592 28.7036 50.2783 28.7036C50.3973 28.7036 50.5139 28.7369 50.6151 28.7999C50.7198 28.8661 50.8102 28.9528 50.881 29.0548C50.9518 29.1568 51.0014 29.272 51.0271 29.3936C51.0803 29.6171 51.0633 29.8517 50.9786 30.0652C50.9017 30.2604 50.7704 30.4293 50.6006 30.5518C50.5147 30.3755 50.4512 30.1892 50.4115 29.997C50.3679 29.8316 50.3437 29.6856 50.3146 29.5639C50.2721 29.2765 50.1417 29.0096 49.9414 28.7999Z" fill="black"/>
<path d="M58.0039 26.9652C58.0039 26.9652 59.6469 26.863 59.1914 29.4422Z" fill="black"/>
<path d="M58.0039 26.9652C58.1433 26.8876 58.3001 26.8469 58.4595 26.8469C58.6189 26.8469 58.7757 26.8876 58.9151 26.9652C59.2053 27.1345 59.4189 27.41 59.5112 27.7341C59.6008 28.0242 59.6142 28.3327 59.55 28.6295C59.4985 28.9184 59.3751 29.1896 59.1914 29.4179C59.0995 29.1599 59.0298 28.8945 58.9829 28.6246C58.9539 28.503 58.9248 28.391 58.9054 28.2742C58.886 28.1574 58.8618 28.0504 58.8182 27.9579C58.7604 27.7439 58.6579 27.5447 58.5175 27.3735C58.3771 27.2023 58.202 27.0631 58.0039 26.9652Z" fill="black"/>
<path d="M48.3603 34.0703C48.5199 33.8127 48.7397 33.5982 49.0008 33.4455C49.2618 33.2928 49.5561 33.2066 49.858 33.1943C50.2221 33.229 50.5664 33.3764 50.8434 33.6162C51.1204 33.8559 51.3163 34.1762 51.4041 34.5326C51.6218 35.3927 51.5589 36.3001 51.2248 37.1216C51.0712 37.5018 50.7997 37.8223 50.4505 38.0353C50.1012 38.2483 49.6929 38.3426 49.2861 38.3042C48.5274 38.2586 47.7997 37.9857 47.1971 37.5207C46.7755 37.2481 47.6382 35.2042 48.3603 34.0703Z" fill="black" stroke="black" stroke-miterlimit="10"/>
<path d="M42.541 68.0337C42.541 68.0337 16.7806 78.8909 8.23578 91.7141C-0.309014 104.537 1.16924 116.047 8.33271 123.78C15.4962 131.512 25.6986 141.693 25.1654 143.625C25.1654 143.625 39.2597 134.651 40.5877 133.615C41.9157 132.578 39.4633 126.763 37.8784 121.731C36.9963 118.937 33.0026 112.898 34.127 111.711C36.7443 108.951 42.919 104.518 45.9191 102.386C49.7559 99.7053 52.823 96.0584 54.8129 91.8115C58.1862 84.4874 59.2186 73.9903 42.541 68.0337Z" fill="black" stroke="black" stroke-miterlimit="10"/>
<path d="M46.8587 71.8296C46.8587 71.8296 24.2293 93.2812 24.1081 95.9577C23.987 98.6343 24.2293 98.026 21.6848 98.1477C19.1402 98.2693 20.8366 100.951 23.0176 102.289C25.1987 103.627 26.7787 105.331 24.8351 106.43C22.8916 107.53 28.5332 110.105 29.6043 112.757C30.6755 115.409 32.6239 133.196 32.6239 133.196" fill="black"/>
<path d="M46.8587 71.8296C46.8587 71.8296 24.2293 93.2812 24.1081 95.9577C23.987 98.6343 24.2293 98.026 21.6848 98.1477C19.1402 98.2693 20.8366 100.951 23.0176 102.289C25.1987 103.627 26.7787 105.331 24.8351 106.43C22.8916 107.53 28.5332 110.105 29.6043 112.757C30.6755 115.409 32.6239 133.196 32.6239 133.196" stroke="black" stroke-width="2" stroke-miterlimit="10"/>
<g style="mix-blend-mode:multiply">
<path d="M47.8164 35.2918C47.8164 35.2918 51.7471 33.4912 52.2366 33.6274C51.7713 32.5081 50.1477 31.1114 47.8164 35.2918Z" fill="black"/>
<path d="M47.8164 35.2918C47.8164 35.2918 51.7471 33.4912 52.2366 33.6274C51.7713 32.5081 50.1477 31.1114 47.8164 35.2918Z" stroke="black" stroke-miterlimit="10"/>
</g>
<path d="M110.995 7.27529C107.704 7.63871 104.515 8.64998 101.613 10.2513C98.7105 11.8526 96.1509 14.0126 94.0803 16.6077C92.0098 19.2028 90.4689 22.1823 89.5458 25.3757C88.6227 28.5691 88.3354 31.9138 88.7004 35.2188L138.825 29.6272C138.086 22.9579 134.739 16.8566 129.52 12.665C124.301 8.47336 117.638 6.53468 110.995 7.27529Z" fill="black" stroke="black" stroke-miterlimit="10"/>
<g style="mix-blend-mode:multiply">
<path d="M56.3477 33.9C56.3477 33.9 60.0796 32.2989 60.5692 32.44C60.2784 31.1699 58.6402 29.6856 56.3477 33.9Z" fill="black"/>
<path d="M56.3477 33.9C56.3477 33.9 60.0796 32.2989 60.5692 32.44C60.2784 31.1699 58.6402 29.6856 56.3477 33.9Z" stroke="black" stroke-miterlimit="10"/>
</g>
<g style="mix-blend-mode:screen" opacity="0.29">
<path d="M63.2437 39.1947C64.1484 39.1947 64.8819 38.6957 64.8819 38.0803C64.8819 37.4648 64.1484 36.9658 63.2437 36.9658C62.3389 36.9658 61.6055 37.4648 61.6055 38.0803C61.6055 38.6957 62.3389 39.1947 63.2437 39.1947Z" fill="black"/>
<path d="M63.2437 39.1947C64.1484 39.1947 64.8819 38.6957 64.8819 38.0803C64.8819 37.4648 64.1484 36.9658 63.2437 36.9658C62.3389 36.9658 61.6055 37.4648 61.6055 38.0803C61.6055 38.6957 62.3389 39.1947 63.2437 39.1947Z" stroke="black" stroke-miterlimit="10"/>
</g>
<path d="M69.394 61.1816C69.394 61.1816 68.9627 59.2058 71.1437 59.4832Z" fill="black"/>
<path d="M69.3948 61.1817C69.2549 60.9475 69.1905 60.6755 69.2106 60.4031C69.2279 60.1045 69.3559 59.8233 69.5693 59.6147C69.7917 59.4251 70.0725 59.3185 70.3642 59.313C70.4992 59.3132 70.6339 59.3262 70.7664 59.3519C70.8948 59.3896 71.0197 59.4384 71.1396 59.4979C71.0173 59.5368 70.8927 59.5676 70.7664 59.5904C70.6501 59.6293 70.5338 59.6536 70.4272 59.6877C70.2315 59.7465 70.0511 59.8479 69.8989 59.9846C69.6143 60.3234 69.4386 60.7407 69.3948 61.1817Z" fill="black"/>
<path d="M60.0462 34.3428C60.3888 34.3428 60.6665 34.1619 60.6665 33.9388C60.6665 33.7158 60.3888 33.5349 60.0462 33.5349C59.7035 33.5349 59.4258 33.7158 59.4258 33.9388C59.4258 34.1619 59.7035 34.3428 60.0462 34.3428Z" fill="black" stroke="black" stroke-miterlimit="10"/>
<path d="M51.5344 36.0266C51.8771 36.0266 52.1548 35.8457 52.1548 35.6227C52.1548 35.3996 51.8771 35.2188 51.5344 35.2188C51.1918 35.2188 50.9141 35.3996 50.9141 35.6227C50.9141 35.8457 51.1918 36.0266 51.5344 36.0266Z" fill="black" stroke="black" stroke-miterlimit="10"/>
<path d="M72.3285 68.2185C72.3285 68.2185 77.8295 71.7662 75.8666 74.2968C73.9037 76.8274 70.2541 77.898 70.2541 77.898L64.8984 76.2142L66.4979 69.4692" fill="black"/>
<path d="M72.3285 68.2185C72.3285 68.2185 77.8295 71.7662 75.8666 74.2968C73.9037 76.8274 70.2541 77.898 70.2541 77.898L64.8984 76.2142L66.4979 69.4692" stroke="black" stroke-miterlimit="10"/>
<path d="M98.7852 41.9783C98.7852 41.9783 99.6333 37.3746 102.057 36.2894C104.48 35.2042 115.031 34.4547 116.733 34.3428C118.434 34.2309 120.852 35.866 120.852 35.866C120.852 35.866 121.822 33.6177 123.155 33.1943C124.487 32.7709 125.946 30.9168 127.4 31.1114C128.854 31.3061 128.612 33.4863 127.4 35.6227C126.189 37.7591 121.967 41.662 119.408 42.8787C118.644 43.2583 117.964 43.7889 117.41 44.4386C116.855 45.0884 116.437 45.8439 116.18 46.6599" fill="black"/>
<path d="M98.7852 41.9783C98.7852 41.9783 99.6333 37.3746 102.057 36.2894C104.48 35.2042 115.031 34.4547 116.733 34.3428C118.434 34.2309 120.852 35.866 120.852 35.866C120.852 35.866 121.822 33.6177 123.155 33.1943C124.487 32.7709 125.946 30.9168 127.4 31.1114C128.854 31.3061 128.612 33.4863 127.4 35.6227C126.189 37.7591 121.967 41.662 119.408 42.8787C118.644 43.2583 117.964 43.7889 117.41 44.4386C116.855 45.0884 116.437 45.8439 116.18 46.6599" stroke="black" stroke-miterlimit="10"/>
<path d="M38.2578 59.9651L70.2802 69.2115L68.579 76.1998L58.4687 83.1589C58.3397 83.2491 58.1833 83.2913 58.0266 83.2779C57.87 83.2646 57.7229 83.1967 57.6108 83.0859C55.4298 80.8911 44.7718 70.2967 41.4712 69.6105" fill="black"/>
<path d="M38.2578 59.9651L70.2802 69.2115L68.579 76.1998L58.4687 83.1589C58.3397 83.2491 58.1833 83.2913 58.0266 83.2779C57.87 83.2646 57.7229 83.1967 57.6108 83.0859C55.4298 80.8911 44.7718 70.2967 41.4712 69.6105" stroke="black" stroke-miterlimit="10"/>
<path d="M73.2031 74.6035C73.2031 74.6035 82.0581 76.8226 83.6236 79.1975C85.1891 81.5724 89.3427 85.9425 88.7951 86.1712C88.2474 86.3999 75.2242 79.4311 73.2031 76.2143" fill="black"/>
<path d="M73.2031 74.6035C73.2031 74.6035 82.0581 76.8226 83.6236 79.1975C85.1891 81.5724 89.3427 85.9425 88.7951 86.1712C88.2474 86.3999 75.2242 79.4311 73.2031 76.2143" stroke="black" stroke-miterlimit="10"/>
<path d="M70.2522 76.1414C70.2522 76.1414 72.5495 79.0613 70.2522 84.0251C67.9548 88.9889 65.8901 90.9988 65.6962 90.6922C65.5023 90.3856 66.4669 78.1318 68.58 76.2144" fill="black"/>
<path d="M70.2522 76.1414C70.2522 76.1414 72.5495 79.0613 70.2522 84.0251C67.9548 88.9889 65.8901 90.9988 65.6962 90.6922C65.5023 90.3856 66.4669 78.1318 68.58 76.2144" stroke="black" stroke-miterlimit="10"/>
<path d="M24.4688 144.667L43.0124 135.805C43.0124 135.805 41.7328 133.824 41.3693 133.639" fill="black"/>
<path d="M24.4688 144.667L43.0124 135.805C43.0124 135.805 41.7328 133.824 41.3693 133.639" stroke="black" stroke-miterlimit="10"/>
<path d="M40.4531 35.6228C40.4531 35.6228 43.4048 35.8466 43.5066 36.9659C43.7096 36.8766 43.872 36.7141 43.9617 36.5106C44.0514 36.307 44.062 36.0771 43.9912 35.8661C43.7634 35.0874 41.8684 34.8247 40.4531 35.6228Z" fill="black" stroke="black" stroke-miterlimit="10"/>
<path d="M39.8984 36.966C39.8984 36.966 41.716 37.8371 41.8759 39.1997C42.0358 40.5623 42.0407 39.3846 42.0407 39.3846C42.0407 39.3846 43.3735 36.8589 39.8984 36.966Z" fill="black" stroke="black" stroke-miterlimit="10"/>
<path d="M30.8906 38.1922C30.8906 38.1922 31.1039 22.0646 33.0426 20.2348C34.9813 18.405 36.5516 15.6019 37.2205 17.8016C37.8893 20.0012 35.5047 18.9598 35.0007 21.6656" fill="black"/>
<path d="M30.8906 38.1922C30.8906 38.1922 31.1039 22.0646 33.0426 20.2348C34.9813 18.405 36.5516 15.6019 37.2205 17.8016C37.8893 20.0012 35.5047 18.9598 35.0007 21.6656" stroke="black" stroke-miterlimit="10"/>
<path d="M23.5 17.3733C23.5 17.3733 33.5909 17.1884 37.8754 11.8304C42.1599 6.47233 39.0047 2.09733 36.0918 6.47719C33.1789 10.857 37.1969 12.0785 31.7298 14.0251C28.9256 14.9839 26.1779 16.1018 23.5 17.3733Z" fill="black" stroke="black" stroke-miterlimit="10"/>
<path d="M98.1523 40.7715V50.266L119.41 50.7478L118.378 47.8036L120.854 43.9152" fill="black"/>
<path d="M98.1523 40.7715V50.266L119.41 50.7478L118.378 47.8036L120.854 43.9152" stroke="black" stroke-miterlimit="10"/>
<path d="M85.8103 36.4161L142.125 30.5665V29.1504L85.2578 35.0632L85.8103 36.4161Z" fill="black" stroke="black" stroke-miterlimit="10"/>
<g style="mix-blend-mode:multiply" opacity="0.38">
<path d="M128.18 31.5737C128.18 31.5737 123.764 38.5669 118.428 41.5647C113.092 44.5624 107.998 48.6016 103.888 49.137C99.7779 49.6723 98.0718 49.137 98.0718 49.137C98.0718 49.137 97.941 39.4429 98.1736 38.6253C98.5787 37.3995 99.1813 36.2488 99.9572 35.2187C100.844 34.007 128.18 31.5737 128.18 31.5737Z" fill="black"/>
<path d="M128.18 31.5737C128.18 31.5737 123.764 38.5669 118.428 41.5647C113.092 44.5624 107.998 48.6016 103.888 49.137C99.7779 49.6723 98.0718 49.137 98.0718 49.137C98.0718 49.137 97.941 39.4429 98.1736 38.6253C98.5787 37.3995 99.1813 36.2488 99.9572 35.2187C100.844 34.007 128.18 31.5737 128.18 31.5737Z" stroke="black" stroke-miterlimit="10"/>
</g>
<path d="M110.486 7.64523C111.592 7.64523 112.488 6.74538 112.488 5.63536C112.488 4.52534 111.592 3.62549 110.486 3.62549C109.381 3.62549 108.484 4.52534 108.484 5.63536C108.484 6.74538 109.381 7.64523 110.486 7.64523Z" fill="black" stroke="black" stroke-width="3" stroke-miterlimit="10"/>
<path d="M38.7647 127.731L19.4844 138.126L22.0968 141.129L21.2292 142.632L23.2212 145.387L42.7632 134.116L40.7664 127.731" fill="black"/>
<path d="M38.7647 127.731L19.4844 138.126L22.0968 141.129L21.2292 142.632L23.2212 145.387L42.7632 134.116L40.7664 127.731" stroke="black" stroke-miterlimit="10"/>
<path d="M27.7134 153.426C27.6424 154.019 27.7318 154.621 27.9723 155.167C28.2128 155.714 28.5956 156.185 29.0802 156.531C29.0802 156.531 28.5665 156.59 29.0802 157.748C29.3982 158.457 29.7709 159.141 30.195 159.792C30.195 159.792 24.0832 157.616 24.8054 155.13C25.5276 152.643 26.7441 152.945 26.7441 152.945" fill="black"/>
<path d="M27.7134 153.426C27.6424 154.019 27.7318 154.621 27.9723 155.167C28.2128 155.714 28.5956 156.185 29.0802 156.531C29.0802 156.531 28.5665 156.59 29.0802 157.748C29.3982 158.457 29.7709 159.141 30.195 159.792C30.195 159.792 24.0832 157.616 24.8054 155.13C25.5276 152.643 26.7441 152.945 26.7441 152.945" stroke="black" stroke-miterlimit="10"/>
<path d="M116.174 48.1394C116.638 48.1394 117.013 47.7624 117.013 47.2975C117.013 46.8325 116.638 46.4556 116.174 46.4556C115.711 46.4556 115.336 46.8325 115.336 47.2975C115.336 47.7624 115.711 48.1394 116.174 48.1394Z" fill="black" stroke="black" stroke-miterlimit="10"/>
<path d="M23.7447 140.948C24.2078 140.948 24.5832 140.572 24.5832 140.107C24.5832 139.642 24.2078 139.265 23.7447 139.265C23.2817 139.265 22.9062 139.642 22.9062 140.107C22.9062 140.572 23.2817 140.948 23.7447 140.948Z" fill="black" stroke="black" stroke-miterlimit="10"/>
<path d="M111.43 10.7499C111.43 10.7499 117.73 12.0834 119.117 13.9229L124.07 11.003C124.07 11.003 121.836 8.0831 114.832 9.46519" fill="black"/>
<path d="M111.43 10.7499C111.43 10.7499 117.73 12.0834 119.117 13.9229L124.07 11.003C124.07 11.003 121.836 8.0831 114.832 9.46519" stroke="black" stroke-miterlimit="10"/>
<path d="M125.051 11.6892L120.5 15.1055L123.321 17.1202L127.484 15.5532" fill="black"/>
<path d="M125.051 11.6892L120.5 15.1055L123.321 17.1202L127.484 15.5532" stroke="black" stroke-miterlimit="10"/>
<g style="mix-blend-mode:multiply">
<path d="M101.868 13.0811C101.868 13.0811 98.2327 24.5855 100.758 26.61C103.283 28.6344 123.285 27.5833 123.285 27.5833L124.003 29.6758L89.9351 33.5204C89.9351 33.5204 89.5328 20.1716 101.868 13.0811Z" fill="black"/>
<path d="M101.868 13.0811C101.868 13.0811 98.2327 24.5855 100.758 26.61C103.283 28.6344 123.285 27.5833 123.285 27.5833L124.003 29.6758L89.9351 33.5204C89.9351 33.5204 89.5328 20.1716 101.868 13.0811Z" stroke="black" stroke-miterlimit="10"/>
</g>
<path d="M96.115 7.11963C95.7515 10.7354 93.3281 11.4995 93.3281 11.4995C93.3281 11.4995 96.3622 10.5262 97.0892 14.3951C97.0892 14.3951 96.1974 10.4581 99.3526 10.3169C98.8929 10.3297 98.4386 10.2153 98.0393 9.98611C97.6401 9.75692 97.3114 9.42184 97.0892 9.01757C96.7161 8.41113 96.3904 7.77659 96.115 7.11963Z" fill="black" stroke="black" stroke-miterlimit="10"/>
<path d="M99.2716 4.92969C99.1359 6.26798 98.2344 6.55997 98.2344 6.55997C98.2344 6.55997 99.3588 6.19498 99.6302 7.63547C99.6302 7.63547 99.3006 6.17551 100.469 6.11711C100.298 6.1222 100.129 6.07936 99.9806 5.9934C99.8325 5.90745 99.7112 5.78177 99.6302 5.63047C99.4914 5.40732 99.3715 5.17291 99.2716 4.92969Z" fill="black" stroke="black" stroke-miterlimit="10"/>
<path d="M58.7315 138.778C58.7315 138.778 59.1144 147.402 57.7137 152.594C56.313 157.787 54.2773 175.253 54.2773 175.253C54.2773 175.253 63.302 171.179 66.8401 176.854C70.3782 182.528 97.0498 182.966 102.386 178.163C107.722 173.36 114.988 163.753 116.849 168.118C118.71 172.484 119.073 173.214 119.073 173.214C119.073 173.214 120.944 136.17 109.753 119.877" fill="black"/>
<path d="M58.7315 138.778C58.7315 138.778 59.1144 147.402 57.7137 152.594C56.313 157.787 54.2773 175.253 54.2773 175.253C54.2773 175.253 63.302 171.179 66.8401 176.854C70.3782 182.528 97.0498 182.966 102.386 178.163C107.722 173.36 114.988 163.753 116.849 168.118C118.71 172.484 119.073 173.214 119.073 173.214C119.073 173.214 120.944 136.17 109.753 119.877" stroke="black" stroke-miterlimit="10"/>
<path d="M65.6585 204.753C67.4033 207.897 67.1706 212.89 67.1706 212.89C67.1706 212.89 65.0817 214.092 64.1608 213.421C63.2399 212.749 62.9588 215.761 62.9588 215.761H31.1061C31.1061 215.761 30.224 214.759 29.9186 211.615C29.6133 208.471 33.6167 201.605 40.2519 197.604C46.8871 193.604 58.844 204.753 58.844 204.753" fill="black"/>
<path d="M65.6585 204.753C67.4033 207.897 67.1706 212.89 67.1706 212.89C67.1706 212.89 65.0817 214.092 64.1608 213.421C63.2399 212.749 62.9588 215.761 62.9588 215.761H31.1061C31.1061 215.761 30.224 214.759 29.9186 211.615C29.6133 208.471 33.6167 201.605 40.2519 197.604C46.8871 193.604 58.844 204.753 58.844 204.753" stroke="black" stroke-miterlimit="10"/>
<path d="M84.168 212.365L85.021 214.827H92.2329L93.842 213.596L96.658 214.827L132.558 214.696L133.372 213.581C133.372 213.581 117.945 213.138 97.5062 213.581" fill="black"/>
<path d="M84.168 212.365L85.021 214.827H92.2329L93.842 213.596L96.658 214.827L132.558 214.696L133.372 213.581C133.372 213.581 117.945 213.138 97.5062 213.581" stroke="black" stroke-miterlimit="10"/>
<path d="M30.707 215.012C30.707 215.012 33.7653 213.124 40.8125 212.992C47.8596 212.861 62.9572 215.761 62.9572 215.761" fill="black"/>
<path d="M30.707 215.012C30.707 215.012 33.7653 213.124 40.8125 212.992C47.8596 212.861 62.9572 215.761 62.9572 215.761" stroke="black" stroke-miterlimit="10"/>
<path d="M63.9609 213.333C63.9609 213.333 64.4989 211.659 64.8237 211.537C65.1484 211.416 67.1792 210.861 67.1792 210.861V212.89C67.1792 212.89 65.318 214.165 63.9609 213.333Z" fill="black" stroke="black" stroke-miterlimit="10"/>
<path d="M58.8438 204.729C59.7016 206.032 60.389 207.44 60.8891 208.919C61.5967 211.148 62.1589 211.352 63.1137 208.919C63.668 207.58 64.035 206.17 64.2042 204.729" fill="black"/>
<path d="M58.8438 204.729C59.7016 206.032 60.389 207.44 60.8891 208.919C61.5967 211.148 62.1589 211.352 63.1137 208.919C63.668 207.58 64.035 206.17 64.2042 204.729" stroke="black" stroke-miterlimit="10"/>
<path d="M113.54 200.412C113.54 200.412 112.324 199.799 110.453 203.556C108.582 207.313 106.406 207.401 106.018 207.05C105.63 206.7 108.277 202.773 107.714 202.116C107.152 201.459 107.113 202.685 105.979 202.247C104.845 201.809 101.617 202.422 101.617 202.422L93.4844 204.286C93.4844 204.286 105.475 199.249 108.509 199.741" fill="black"/>
<path d="M113.54 200.412C113.54 200.412 112.324 199.799 110.453 203.556C108.582 207.313 106.406 207.401 106.018 207.05C105.63 206.7 108.277 202.773 107.714 202.116C107.152 201.459 107.113 202.685 105.979 202.247C104.845 201.809 101.617 202.422 101.617 202.422L93.4844 204.286C93.4844 204.286 105.475 199.249 108.509 199.741" stroke="black" stroke-miterlimit="10"/>
<g style="mix-blend-mode:screen" opacity="0.51">
<path d="M123.85 197.75C123.85 197.75 120.559 199.045 119.071 199.697C117.583 200.349 121.068 199.137 123.85 201.06C126.632 202.982 129.942 207.746 131.507 206.238C133.073 204.729 132.724 199.03 123.85 197.75Z" fill="black"/>
<path d="M123.85 197.75C123.85 197.75 120.559 199.045 119.071 199.697C117.583 200.349 121.068 199.137 123.85 201.06C126.632 202.982 129.942 207.746 131.507 206.238C133.073 204.729 132.724 199.03 123.85 197.75Z" stroke="black" stroke-miterlimit="10"/>
</g>
<g style="mix-blend-mode:screen" opacity="0.51">
<path d="M41.9883 198.982C41.9883 198.982 47.4699 199.376 50.0145 202.977C52.559 206.578 54.5801 210.053 55.7579 209.79C56.9356 209.527 56.7369 197.663 41.9883 198.982Z" fill="black"/>
<path d="M41.9883 198.982C41.9883 198.982 47.4699 199.376 50.0145 202.977C52.559 206.578 54.5801 210.053 55.7579 209.79C56.9356 209.527 56.7369 197.663 41.9883 198.982Z" stroke="black" stroke-miterlimit="10"/>
</g>
</g>
<path d="M94.6493 204.909C94.6493 204.909 91.9933 207.863 92.7542 211.537C93.5152 215.212 98.4928 213.299 100.969 213.299C103.446 213.299 118.054 214.652 119.387 214.827C120.72 215.002 141.449 214.696 141.449 214.696C141.449 214.696 148.434 206.656 140.688 199.123C132.943 191.589 123.768 202.563 120.201 200.096C116.634 197.629 114.254 196.159 102.549 202.797" fill="#0F0B08"/>
<path d="M25.3714 122.962C25.3714 122.962 19.1822 128.967 13.1286 131.079C7.07502 133.191 9.66318 137.634 9.66318 137.634L13.1286 143.09C13.1286 143.09 16.5213 139.683 22.4634 133.026C28.4055 126.368 28.58 125.361 28.58 125.361C28.58 125.361 15.1642 149.353 13.4679 157.261C13.4679 157.261 13.4339 155.241 16.4535 155.105C19.473 154.969 20.8155 154.005 20.8155 154.005C20.8155 154.005 24.6929 134.116 27.7657 130.403C30.8386 126.69 23.4037 144.063 23.8883 150.073C23.8883 150.073 25.0176 147.64 27.4458 147.475L29.8692 147.309" fill="#D8D8D8"/>
<path d="M66.0764 90.2834C66.0764 90.2834 85.2017 100.503 99.7806 95.9577C114.36 91.4124 125.846 83.3048 127.349 71.5473C128.628 61.5515 126.302 44.9616 127.945 43.8082C127.945 43.8082 111.834 42.173 110.196 42.1584C109.077 42.1584 107.627 49.8086 105.534 55.483C104.899 57.1673 103.814 58.6433 102.398 59.7483C100.982 60.8534 99.2897 61.5447 97.5075 61.7461C93.8676 62.1549 88.9191 62.6075 85.9626 62.4567C81.3556 62.2049 76.7593 63.1185 72.5953 65.1138C65.3882 68.6225 57.8079 75.898 66.0764 90.2834Z" fill="#FFEFD6"/>
<path d="M94.1133 80.3899C94.1133 80.3899 106.865 83.3098 113.704 75.6255C119.035 69.6592 120.005 48.5337 120.005 48.5337" stroke="#EDD9C0" stroke-width="2" stroke-miterlimit="10"/>
<path d="M82.2096 66.9045C82.2096 66.9045 94.2247 73.6495 96.5899 79.8446C98.9551 86.0397 106.128 100.795 116.117 115.857C126.107 130.919 132.272 150.857 109.623 163.943C86.8431 177.082 30.8585 180.625 25.086 139.459C20.6803 103.335 47.4488 100.805 50.6186 89.5922" fill="#FFFDFA"/>
<path d="M68.9492 79.4263C68.9492 79.4263 69.4339 80.4482 70.064 82.1223" stroke="#D8D8D8" stroke-linecap="round" stroke-linejoin="round"/>
<path d="M71.3672 85.772C71.9149 87.4509 72.4771 89.3635 72.9327 91.3636" stroke="#D8D8D8" stroke-linecap="round" stroke-linejoin="round" stroke-dasharray="7.96 7.96"/>
<path d="M73.332 93.2666C73.5114 94.2399 73.6616 95.1889 73.7731 96.1524L76.5309 95.2278" stroke="#D8D8D8" stroke-linecap="round" stroke-linejoin="round"/>
<path d="M83.0273 93.0523L92.7741 89.7966" stroke="#D8D8D8" stroke-linecap="round" stroke-linejoin="round" stroke-dasharray="14.13 14.13"/>
<path d="M96.0508 88.7114L98.8086 87.7916C98.8086 87.7916 98.3675 86.721 97.6066 85.1296" stroke="#D8D8D8" stroke-linecap="round" stroke-linejoin="round"/>
<path d="M95.2329 80.6672C93.9957 78.462 92.5198 76.4007 90.832 74.5208" stroke="#D8D8D8" stroke-linecap="round" stroke-linejoin="round" stroke-dasharray="10.38 10.38"/>
<path d="M88.958 72.8419C88.1843 72.2467 87.2888 71.8311 86.3359 71.6252" stroke="#D8D8D8" stroke-linecap="round" stroke-linejoin="round"/>
<path d="M25.6953 142.837C25.6953 142.837 25.957 154.234 31.6616 170.61C31.6616 170.61 27.8715 172.863 29.8732 174.81C31.8749 176.756 34.7684 179.355 34.7684 179.355C34.7684 179.355 31.1091 181.628 32.0591 183.579C33.009 185.531 38.292 186.499 38.2338 191.531C38.1757 196.563 36.5132 199.162 38.4762 200.622C40.4391 202.082 40.8268 209.065 40.8268 209.065C40.8268 209.065 49.5219 201.902 57.9067 203.848C66.2916 205.795 74.8218 208.072 74.8218 208.072C74.8218 208.072 74.9818 201.259 73.7991 196.544C72.6165 191.828 73.7991 193.784 74.9187 191.351C76.0383 188.918 74.0269 189.078 74.1287 184.051C74.2305 179.024 79.9448 172.523 80.4295 172.036C80.9142 171.549 80.4295 157.247 80.4295 157.247C80.4295 157.247 87.2149 182.426 86.6285 186.159C86.042 189.891 84.0597 192.281 86.5509 194.067C89.0421 195.853 91.6254 194.602 90.375 197.201C89.1245 199.799 89.1584 200.607 90.5204 200.933C91.8823 201.259 91.7175 200.447 91.8775 202.223C92.0081 203.44 92.2631 204.64 92.6384 205.805V208.238C92.6384 208.238 112.025 200.014 116.082 199.756C118.588 199.6 120.022 200.052 120.585 200.291C120.668 200.328 120.761 200.336 120.849 200.313C120.937 200.29 121.015 200.237 121.069 200.164C122.145 198.748 125.65 194.967 123.58 195.113C121.263 195.274 121.796 194.115 121.641 191.356C121.486 188.597 124.389 184.859 121.801 184.373C119.213 183.886 120.347 179.895 120.013 174.747C119.678 169.598 129.222 158.463 119.698 147.392" fill="#240A00"/>
<path d="M71.9102 77.319C71.9102 77.319 76.0105 85.2368 76.8587 90.7117L95.8966 84.6188C95.8966 84.6188 87.8414 70.0193 83.9349 69.6494" fill="#FFEFD6"/>
<path d="M60.7284 17.4609C60.7284 17.4609 64.8288 3.08038 58.9012 1.13378C52.9737 -0.812826 43.2753 0.768789 39.2138 3.32857C35.1522 5.88836 37.5707 14.288 33.6933 16.5363C29.816 18.7846 18.78 28.4398 20.8398 33.9C22.8997 39.3602 25.8271 42.5429 30.417 43.0636C31.2561 43.1338 32.1011 43.0648 32.9179 42.8592C35.6824 42.186 38.1133 40.5363 39.7663 38.2117L43.8957 32.5276" fill="#FFEFD6"/>
<path d="M41.4922 71.8636C41.4922 71.8636 43.1401 68.457 44.5505 67.7027C45.9609 66.9484 45.0352 60.3202 45.0352 60.3202L49.5911 57.6631C49.5911 57.6631 87.7349 61.3422 88.6364 62.3398C89.5379 63.3374 85.8156 70.1797 87.5749 71.8636C88.9126 73.1386 90.7932 74.9879 91.622 75.8006C91.6525 75.8301 91.6728 75.8686 91.6799 75.9105C91.6871 75.9524 91.6808 75.9955 91.6618 76.0335C91.6429 76.0715 91.6124 76.1025 91.5747 76.1219C91.537 76.1412 91.4941 76.148 91.4523 76.1412L82.641 75.0609L77.6343 66.6126" fill="#7680FF"/>
<path d="M66.4865 23.4224C66.4865 23.4224 66.8645 28.1623 69.0601 28.1623C71.2557 28.1623 71.7258 26.7851 71.7258 26.7851C71.7258 26.7851 73.9941 28.8534 72.8987 29.851L71.8033 30.8243C71.8033 30.8243 74.3866 31.2088 73.6063 33.3549C72.826 35.501 71.2557 35.2723 71.2557 35.2723C71.2723 36.0433 71.1061 36.8073 70.771 37.5012C70.771 37.5012 67.8629 32.951 66.4719 32.3816C65.0809 31.8122 63.6366 32.44 63.2828 33.5252C62.929 34.6105 62.7981 35.175 62.7981 35.175L59.0273 30.4545L66.4865 23.4224Z" fill="#8C7B64"/>
<path d="M48.3881 37.7446C48.3881 37.7446 44.7821 34.3721 43.8419 36.6691C42.9016 38.9661 40.866 45.2536 45.0972 46.9374C47.2055 47.7793 48.3445 47.0201 48.9503 46.0468C49.3345 45.3859 49.5695 44.6483 49.6385 43.8861" fill="#FCD3A7"/>
<path d="M49.2242 51.142C49.418 53.4342 50.5425 64.7293 50.5425 64.7293C50.5425 64.7293 61.6415 75.859 77.0638 70.2431C92.4861 64.6271 90.0676 47.8279 83.6456 43.0198C77.2237 38.2117 70.6419 39.8469 69.8809 31.5738C69.12 23.3007 63.7643 18.1228 56.7172 21.033C49.67 23.9431 43.5583 26.245 46.8492 35.1458" fill="#FCD3A7"/>
<path d="M51.1628 2.41363C51.1628 2.41363 55.5248 3.46966 56.0579 8.09771C56.9594 16.181 55.1565 18.4634 55.1565 18.4634L59.3925 18.0789C59.3925 18.0789 62.6301 5.54279 59.1405 2.99274C55.6508 0.442693 52.5683 0.311297 48.5697 1.53279C44.5712 2.75428 44.0768 3.90765 51.1628 2.41363Z" fill="white"/>
<path opacity="0.63" d="M48.8459 46.2464C49.0359 46.2011 49.2333 46.1961 49.4253 46.2317C49.6174 46.2672 49.7999 46.3426 49.9613 46.4529C50.1228 46.5633 50.2595 46.7062 50.3629 46.8726C50.4663 47.0389 50.534 47.2251 50.5617 47.4192C50.7459 48.7137 51.0464 50.0812 51.531 50.5484C52.5004 51.5217 51.6522 57.1084 54.4391 59.4638C56.9109 61.5467 64.3991 65.3717 66.0712 66.2136C66.0798 66.22 66.0861 66.229 66.0891 66.2393C66.092 66.2495 66.0916 66.2605 66.0877 66.2705C66.0838 66.2805 66.0768 66.2889 66.0677 66.2945C66.0586 66.3 66.0479 66.3024 66.0373 66.3012L49.001 62.7925C49.001 62.7925 50.2612 62.4421 50.2612 62.4226C50.1739 61.936 49.6117 55.6095 49.6117 55.6095C49.6117 55.6095 48.6424 47.0591 48.5842 46.5773C48.5551 46.5676 48.8265 46.2512 48.8459 46.2464Z" fill="#FFA585"/>
<path d="M69.5166 32.1335C69.5166 32.1335 68.6781 30.1139 66.972 31.384C65.266 32.6542 64.4808 35.2383 64.8588 35.6179C65.2369 35.9975 68.0868 37.2774 69.5069 34.8101C70.0497 33.6275 69.5166 32.1335 69.5166 32.1335Z" fill="white" stroke="#FFA585" stroke-miterlimit="10"/>
<g opacity="0.36">
<path d="M71.2109 45.7792C71.5114 45.9836 71.8022 46.1928 72.0979 46.4069C72.3935 46.6211 72.6843 46.8303 72.9703 47.0542L74.7006 48.373L74.4922 48.3389C75.7669 47.7842 77.0512 47.2342 78.3405 46.7135V47.1612C77.313 46.7963 76.2903 46.4215 75.2773 46.0225C74.2644 45.6234 73.2466 45.2292 72.2481 44.7913C73.3047 45.0687 74.3468 45.3801 75.3888 45.7013C76.4309 46.0225 77.4632 46.3583 78.4956 46.7087C78.5545 46.7296 78.6028 46.7731 78.63 46.8295C78.6572 46.886 78.6611 46.951 78.641 47.0104C78.6317 47.0425 78.615 47.0721 78.5923 47.0966C78.5695 47.1211 78.5414 47.1399 78.5101 47.1515C77.2306 47.6966 75.9365 48.2124 74.6327 48.7185C74.5999 48.7329 74.5636 48.7373 74.5283 48.7312C74.493 48.7252 74.4603 48.7089 74.434 48.6845L72.8055 47.2245C72.5292 46.9861 72.2675 46.7379 72.001 46.4945C71.7344 46.2512 71.4727 46.0322 71.2109 45.7792Z" fill="#FFA585"/>
</g>
<path d="M66.0034 32.3962C66.149 32.1561 66.3511 31.9555 66.592 31.8121C66.8328 31.6687 67.105 31.5869 67.3847 31.5737C67.7192 31.6062 68.0354 31.742 68.2898 31.9625C68.5441 32.1831 68.7241 32.4774 68.8048 32.805C69.0045 33.5922 68.9467 34.4232 68.64 35.1749C68.4995 35.5255 68.2499 35.821 67.9285 36.0175C67.6071 36.2139 67.231 36.3008 66.8564 36.265C66.1524 36.2277 65.4764 35.9765 64.9177 35.5448C64.5493 35.3161 65.3442 33.4376 66.0034 32.3962Z" fill="#281800"/>
<path d="M64.7127 28.0894C64.7127 28.0894 64.3589 35.905 67.2621 37.2822C70.1652 38.6594 72.0506 34.7565 73.7712 35.866C75.4918 36.9756 77.3772 42.6451 73.7712 44.7912C70.1652 46.9373 66.3024 46.2025 64.0777 38.7567C61.8531 31.311 64.7127 28.0894 64.7127 28.0894Z" fill="url(#paint0_linear_53_54861)"/>
<path d="M50.5399 131.955C50.5399 131.955 63.1026 136.014 65.4339 135.688C67.7652 135.362 68.1481 147.406 68.1481 147.406L25.6955 142.837C25.6955 142.837 20.6016 140.403 21.6921 138.286C22.7826 136.17 24.5226 123.745 24.5226 123.745" fill="#E8CCA6"/>
<path d="M67.7317 44.9567C67.6828 44.909 67.6452 44.8508 67.6217 44.7865C67.5981 44.7222 67.5893 44.6533 67.5958 44.5851C67.6023 44.5169 67.624 44.4511 67.6593 44.3924C67.6946 44.3338 67.7425 44.2838 67.7996 44.2462C68.0802 44.0652 68.3855 43.9259 68.7059 43.8326C70.2811 43.3119 72.6414 45.2439 71.6915 45.6332C70.315 46.1977 68.3909 45.5699 67.7317 44.9567Z" fill="#F78461"/>
<path d="M73.7578 44.7913C73.8933 44.3147 74.1097 43.8653 74.3976 43.4627C74.6919 43.2637 75.0207 43.1218 75.3669 43.0442C75.0348 43.7872 74.4697 44.4008 73.7578 44.7913Z" fill="#F78461"/>
<path d="M46.6753 27.4858C46.6753 27.4858 47.0582 32.2258 49.2538 32.2258C51.4494 32.2258 51.9146 30.8437 51.9146 30.8437C51.9146 30.8437 54.1878 32.9169 53.0924 33.9096L51.9922 34.8829C51.9922 34.8829 54.5803 35.2674 53.7952 37.4135C53.01 39.5596 51.4639 39.3601 51.4639 39.3601C51.4813 40.1328 51.3151 40.8985 50.9792 41.5938C50.9792 41.5938 48.1003 37.0388 46.6802 36.4694C45.2601 35.9 43.8448 36.5327 43.4959 37.613C43.1469 38.6934 43.0112 39.2677 43.0112 39.2677L40.3164 35.1409L46.6753 27.4858Z" fill="#C6A779"/>
<path d="M47.0723 33.1407C47.0723 33.1407 49.3599 34.1822 50.465 33.5203C51.57 32.8585 51.919 30.8438 51.919 30.8438C51.919 30.8438 49.7525 32.3572 47.8623 31.7197C45.972 31.0822 47.0723 33.1407 47.0723 33.1407Z" fill="#DDB98A"/>
<path d="M39.7656 38.1923L42.5186 38.6789C42.5186 38.6789 52.9148 24.8873 57.6307 23.4224C60.6313 22.5265 63.7479 22.0837 66.8783 22.1085L62.4047 17.6654C62.4047 17.6654 52.8324 15.5144 46.5753 22.8774C42.8558 27.1995 40.4873 32.5263 39.7656 38.1923Z" fill="#EDD9C0"/>
<path d="M59.0234 23.0331C59.0234 23.0331 60.6665 24.639 62.4162 23.4224C64.1658 22.2058 63.5891 17.9719 62.4162 18.5072C62.5305 18.7553 62.5915 19.0247 62.5953 19.2979C62.5991 19.5712 62.5455 19.8422 62.4381 20.0933C62.3306 20.3445 62.1717 20.57 61.9717 20.7554C61.7717 20.9408 61.535 21.0818 61.2772 21.1692C61.2772 21.1692 62.2707 20.0402 60.7392 19.2761C60.7295 19.2761 61.03 22.4004 59.0234 23.0331Z" fill="#C6A779"/>
<path d="M62.5117 44.8205C63.0387 44.9644 63.5566 45.1399 64.0627 45.3461C64.5925 45.5461 65.0843 45.8358 65.5167 46.2026C65.6539 46.3329 65.7471 46.5031 65.7833 46.6892C65.8035 46.8508 65.8035 47.0143 65.7833 47.1759C65.751 47.41 65.7658 47.6483 65.8269 47.8766C65.9327 48.0687 66.0831 48.2323 66.2654 48.3535C66.4476 48.4746 66.6564 48.5498 66.8738 48.5726C67.9077 48.7624 68.9614 48.8196 70.0096 48.7429C71.0734 48.7086 72.1339 48.6045 73.1842 48.4314C74.2245 48.2475 75.2464 47.9706 76.2377 47.6041C77.2209 47.2575 78.1472 46.7654 78.9858 46.1442C79.3637 45.8929 79.651 45.526 79.8049 45.0979C79.8193 45.0158 79.8106 44.9313 79.7797 44.8539C79.7489 44.7766 79.6972 44.7094 79.6304 44.6599C79.4472 44.512 79.2362 44.4027 79.01 44.3387C78.7629 44.2583 78.5102 44.1965 78.2539 44.1538L77.8565 44.1002C77.7025 44.0927 77.5513 44.0564 77.4106 43.9932C77.2718 43.9245 77.1507 43.8246 77.0568 43.7012C76.9695 43.5941 76.8774 43.4919 76.795 43.3751C76.7126 43.2583 76.6981 43.2729 76.6981 43.1415C76.6981 43.0101 76.8532 43.0345 76.9114 43.0053C77.0456 42.9787 77.1783 42.9445 77.3088 42.9031C77.1894 42.9699 77.0665 43.03 76.9404 43.0831C76.8823 43.0831 76.7999 43.1561 76.8193 43.1561C76.8469 43.1987 76.8795 43.2379 76.9162 43.2729C77.0866 43.461 77.2925 43.6132 77.522 43.7206C77.7785 43.7416 78.0362 43.7416 78.2927 43.7206C78.5776 43.7252 78.8616 43.7562 79.1409 43.8131C79.4469 43.8696 79.7386 43.9871 79.9987 44.1586C80.1511 44.2628 80.2772 44.401 80.3671 44.5626C80.4601 44.7388 80.5005 44.9381 80.4834 45.1368C80.4464 45.476 80.3155 45.7981 80.1054 46.0663C79.9308 46.3107 79.7292 46.5343 79.5044 46.733C78.6398 47.4694 77.6563 48.0521 76.5963 48.4558C75.5551 48.8713 74.4707 49.1684 73.3636 49.3415C72.2664 49.5074 71.1579 49.5872 70.0484 49.5799C68.9208 49.6245 67.7927 49.5048 66.6993 49.2247C66.4029 49.1416 66.1215 49.0118 65.8657 48.8402C65.577 48.6458 65.3672 48.3541 65.2744 48.0178C65.2111 47.7128 65.2111 47.3981 65.2744 47.0931C65.2966 46.981 65.3063 46.8668 65.3034 46.7525C65.2897 46.6625 65.2511 46.5782 65.192 46.5092C64.8282 46.1353 64.4078 45.8216 63.9463 45.5797C63.4908 45.3071 63.0061 45.0541 62.5117 44.8205Z" fill="#FFA585"/>
<path d="M55.0089 29.963C55.0089 29.963 55.3045 27.5979 57.6213 28.2646C59.938 28.9313 60.8395 25.515 57.7715 25.6172C54.7035 25.7194 51.8731 27.1794 52.4401 29.2866C53.0072 31.3938 55.0089 29.963 55.0089 29.963Z" fill="#AF8F66"/>
<path d="M38.2344 115.808C38.2344 115.808 43.5658 117.142 55.9443 115.322L68.3035 113.497C68.3035 113.497 71.2843 88.293 64.4261 81.5383" fill="#E8CCA6"/>
<path d="M65.6489 26.3471C65.6489 26.3471 67.1029 25.2326 67.9656 26.7899C68.8283 28.3472 71.179 26.9797 69.4826 25.4516C67.7863 23.9235 65.4744 23.2325 64.6359 24.6633C63.7974 26.094 65.6489 26.3471 65.6489 26.3471Z" fill="#AF8F66"/>
<path d="M50.9759 134.515C50.9759 134.515 55.4155 139.912 54.8097 145.387C54.2038 150.862 51.7514 151.475 50.9759 153.426C50.2004 155.378 48.7464 159.505 45.9595 159.023C43.1727 158.541 42.5668 160.969 40.0174 160.123C37.4681 159.276 32.379 156.955 33.9542 154.4C35.5294 151.845 36.6199 153.426 36.6199 153.426C36.6199 153.426 29.1026 150.633 32.6213 143.625" fill="#FCD3A7"/>
<path d="M64.8741 41.3069C65.1089 41.6699 65.2397 42.0908 65.2522 42.5235C65.2649 42.9775 65.1192 43.4216 64.8402 43.7791C64.5561 44.1268 64.2007 44.409 63.7982 44.6064C63.5946 44.6891 63.3959 44.7816 63.1923 44.8546L62.5671 45.0395H62.6107C62.0581 45.2542 61.5477 45.5656 61.1034 45.9593C60.6621 46.3345 60.3612 46.8494 60.2504 47.4192C60.1773 48.0093 60.2714 48.608 60.5218 49.1468C60.6623 49.4194 60.8029 49.6919 60.958 49.9644C61.1131 50.2369 61.3118 50.4511 61.4863 50.7382C61.2633 50.5192 61.0501 50.2856 60.832 50.052C60.6139 49.8184 60.4491 49.5654 60.2843 49.2685C59.9528 48.6902 59.7977 48.0268 59.8384 47.3608C59.9302 46.6804 60.2642 46.0563 60.7787 45.604C61.2668 45.1568 61.8385 44.8111 62.4605 44.5869L63.0469 44.4361C63.2408 44.3777 63.425 44.2998 63.614 44.2317C63.9782 44.0834 64.3082 43.8614 64.5833 43.5795C64.8529 43.2884 65.0227 42.9184 65.068 42.5235C65.1009 42.1083 65.0344 41.6911 64.8741 41.3069Z" fill="#FFA585"/>
<path d="M79.572 46.0469C79.9161 46.3857 80.1894 46.7901 80.3759 47.2363C80.5623 47.6826 80.6581 48.1617 80.6577 48.6456C80.6558 49.6087 80.4919 50.5647 80.173 51.473L79.7659 52.7967C79.6301 53.1498 79.59 53.5326 79.6496 53.9063C79.6883 54.1204 79.9985 54.281 80.396 54.3929C80.7934 54.5049 81.2732 54.5973 81.7288 54.7044C82.213 54.8221 82.6852 54.985 83.1392 55.191C83.3994 55.3119 83.6371 55.4765 83.842 55.6777C84.0751 55.8946 84.243 56.1728 84.3267 56.4807C84.3634 56.6274 84.3862 56.7773 84.3945 56.9284C84.3945 57.0647 84.3945 57.2204 84.3703 57.3372L84.2879 58.0234L84.2443 58.3689C84.234 58.4996 84.2162 58.6296 84.191 58.7582C84.1398 59.0054 84.0685 59.2479 83.9777 59.4833C83.6237 60.3951 83.0857 61.2235 82.3977 61.9166C81.7403 62.5957 80.9992 63.1877 80.1924 63.6782C80.8634 63.0423 81.4795 62.3504 82.0342 61.61C82.5787 60.9022 82.9938 60.1031 83.2604 59.2497C83.3207 59.046 83.3644 58.8376 83.3913 58.6268C83.3913 58.5246 83.3912 58.4224 83.4155 58.3202L83.4397 57.9698L83.493 57.2642C83.493 57.1474 83.493 57.0744 83.493 56.9771C83.4848 56.8961 83.4686 56.8163 83.4446 56.7386C83.304 56.1595 82.3783 55.8918 81.5059 55.6923C81.06 55.5755 80.6286 55.4879 80.1342 55.3419C80.0044 55.308 79.8779 55.2624 79.7562 55.2056L79.5672 55.1229L79.3733 55.0013C79.2396 54.9076 79.1175 54.7981 79.0098 54.6752C78.9031 54.5294 78.8257 54.3641 78.782 54.1885C78.7374 54.0303 78.7162 53.8663 78.719 53.7019C78.7247 53.563 78.7409 53.4247 78.7675 53.2882C78.8167 53.0385 78.8848 52.7928 78.971 52.5534C79.1213 52.0959 79.3006 51.6677 79.4557 51.2346C79.8251 50.4117 80.0748 49.5398 80.1973 48.6456C80.3119 47.7318 80.0895 46.8074 79.572 46.0469Z" fill="#FFA585"/>
<path d="M62.3249 37.6228C62.3531 38.0349 62.2693 38.447 62.0826 38.8151C61.8969 39.1851 61.6419 39.5156 61.3314 39.7884C61.0233 40.0612 60.6751 40.2844 60.299 40.4502C60.1148 40.533 59.9209 40.5914 59.7319 40.6546C59.5429 40.7179 59.3393 40.7422 59.1406 40.7714C59.3103 40.6644 59.4896 40.5816 59.6641 40.4892L60.1487 40.1972C60.4751 39.9996 60.7833 39.7732 61.0696 39.5207C61.3522 39.2686 61.6029 38.9826 61.816 38.6691C62.0393 38.3493 62.2111 37.9962 62.3249 37.6228Z" fill="#FFA585"/>
<path d="M43.8945 40.9612C43.8945 40.9612 44.3792 38.3333 44.8881 38.6788C45.397 39.0243 47.7089 40.9612 47.7089 40.9612C47.7089 40.9612 45.2371 41.5354 46.0804 42.6547C46.9237 43.774 47.7574 43.8519 48.3341 43.044C47.7574 44.7911 46.1725 46.0759 44.7621 44.796C43.3517 43.5161 43.5359 41.112 46.2791 41.5841" stroke="#FFA585" stroke-miterlimit="10" stroke-linecap="round"/>
<path d="M61.2662 33.6275C61.2662 33.6275 60.3308 31.3548 58.4357 32.7856C56.5407 34.2163 55.6489 37.0973 56.0657 37.5207C56.4825 37.9441 59.7007 39.3602 61.2662 36.6204C61.8624 35.2918 61.2662 33.6275 61.2662 33.6275Z" fill="white" stroke="#FFA585" stroke-miterlimit="10"/>
<path d="M44.1914 118.115C44.1914 118.115 57.0837 118.115 62.4733 117.711C67.8629 117.307 71.6821 117.794 68.1488 118.767C64.6155 119.74 45.975 122.008 45.975 122.008C45.975 122.008 65.2747 120.237 63.7383 121.57C62.2019 122.904 61.3149 122.208 53.5941 122.962C45.8732 123.716 44.7197 123.746 44.7197 123.746C44.7197 123.746 61.1065 125.011 56.8365 125.658C52.5666 126.305 45.9605 125.901 45.9605 125.901C45.9605 125.901 58.562 128.987 54.8348 129.473C51.1077 129.96 44.7052 127.736 44.7052 127.736" fill="#D8D8D8"/>
<path d="M55.543 33.6275C55.7066 33.0987 55.9644 32.604 56.3039 32.1676C56.6344 31.7117 57.0391 31.3152 57.5011 30.9947C57.9751 30.6614 58.5189 30.4416 59.0908 30.3524C59.66 30.2806 60.2366 30.4023 60.729 30.6979C60.2154 30.6908 59.7037 30.763 59.212 30.912C58.7528 31.0764 58.3163 31.2988 57.913 31.5738C57.0771 32.2031 56.2852 32.8893 55.543 33.6275Z" fill="#FFA585"/>
<path d="M65.4492 30.9607C65.452 30.5077 65.5723 30.0633 65.7982 29.6711C65.924 29.4561 66.0883 29.2664 66.2829 29.1115C66.4991 28.937 66.759 28.8259 67.0341 28.7903C67.295 28.7807 67.5548 28.8288 67.795 28.9314C68.0195 29.0203 68.2264 29.1489 68.4057 29.311C68.7539 29.6134 68.9939 30.0219 69.0891 30.4741C68.7781 30.2075 68.4403 29.9742 68.081 29.7782C67.9161 29.7014 67.7461 29.6363 67.5721 29.5835C67.414 29.5411 67.251 29.5198 67.0874 29.5202C66.943 29.5396 66.8043 29.5894 66.6803 29.6662C66.531 29.7682 66.3914 29.8838 66.2635 30.0118C66.0017 30.2891 65.7303 30.6006 65.4492 30.9607Z" fill="#FFA585"/>
<path d="M134.614 31.5884V34.3428L123.951 40.314L122.468 35.7492L121.363 33.9389" fill="#F78461"/>
<g style="mix-blend-mode:multiply" opacity="0.46">
<path d="M65.6787 84.4583C65.6787 84.4583 67.8598 98.0017 61.0743 103.759C54.2889 109.516 52.3502 112.358 52.515 115.117C52.6798 117.877 48.9575 132.715 48.9575 132.715L34.9844 105.302" fill="#E8CCA6"/>
</g>
<path d="M108.87 42.173C108.168 41.9383 107.583 41.4398 107.239 40.7821C106.895 40.1244 106.817 39.3585 107.023 38.6448C107.658 35.866 109.291 34.8051 109.291 34.8051L134.611 31.5737" fill="#F78461"/>
<path d="M58.8164 28.7999C58.9176 28.7369 59.0342 28.7036 59.1533 28.7036C59.2723 28.7036 59.3889 28.7369 59.4901 28.7999C59.5941 28.8664 59.6837 28.9533 59.7537 29.0552C59.8236 29.1572 59.8724 29.2723 59.8972 29.3936C59.9486 29.6061 59.9359 29.8292 59.8608 30.0345C59.7858 30.2399 59.6517 30.4182 59.4756 30.5469C59.3931 30.3697 59.3313 30.1836 59.2914 29.9922C59.2478 29.8267 59.2235 29.6807 59.1896 29.559C59.147 29.2731 59.0166 29.0077 58.8164 28.7999Z" fill="#FFA585"/>
<path d="M66.8789 26.9652C67.0175 26.8876 67.1734 26.8469 67.3321 26.8469C67.4907 26.8469 67.6467 26.8876 67.7852 26.9652C68.078 27.1328 68.2937 27.4088 68.3862 27.7341C68.4801 28.0318 68.4935 28.3493 68.425 28.6539C68.3694 28.9415 68.2464 29.2117 68.0664 29.4423C67.9723 29.185 67.9025 28.9194 67.8579 28.649C67.8289 28.5273 67.7998 28.4154 67.7804 28.2986C67.761 28.1818 67.7368 28.0748 67.6932 27.9823C67.6376 27.7642 67.5362 27.5606 67.3957 27.3852C67.2553 27.2098 67.0791 27.0666 66.8789 26.9652Z" fill="#FFA585"/>
<path d="M57.2357 34.0703C57.3953 33.8127 57.6151 33.5982 57.8762 33.4455C58.1372 33.2928 58.4315 33.2066 58.7334 33.1943C59.0975 33.229 59.4418 33.3764 59.7188 33.6162C59.9958 33.8559 60.1917 34.1762 60.2795 34.5326C60.4972 35.3927 60.4343 36.3001 60.1002 37.1216C59.946 37.5014 59.6743 37.8213 59.3253 38.0343C58.9762 38.2472 58.5682 38.3418 58.1615 38.3042C57.4026 38.2595 56.6747 37.9865 56.0725 37.5207C55.6509 37.2481 56.5087 35.2042 57.2357 34.0703Z" fill="#281800"/>
<path d="M51.4121 68.0337C51.4121 68.0337 25.6517 78.8909 17.1069 91.7141C8.56208 104.537 10.0403 116.047 17.2038 123.78C24.3673 131.512 34.5697 141.693 34.0365 143.625C34.0365 143.625 48.1308 134.651 49.4588 133.615C50.7868 132.578 48.3344 126.763 46.7447 121.731C45.8674 118.937 41.8688 112.898 42.9981 111.711C45.6154 108.951 51.7901 104.518 54.7902 102.386C58.6269 99.7053 61.6941 96.0584 63.684 91.8115C67.0573 84.4874 68.08 73.9903 51.4121 68.0337Z" fill="#FFEFD6"/>
<path d="M55.7337 71.8296C55.7337 71.8296 33.1043 93.2812 32.9831 95.9577C32.862 98.6343 33.1043 98.026 30.5598 98.1477C28.0152 98.2693 29.7116 100.951 31.8926 102.289C34.0737 103.627 35.6488 105.331 33.7101 106.43C31.7715 107.53 37.4082 110.105 38.4793 112.757C39.5505 115.409 41.494 133.196 41.494 133.196" stroke="#EDD9C0" stroke-width="2" stroke-miterlimit="10"/>
<g style="mix-blend-mode:multiply">
<path d="M56.6914 35.2918C56.6914 35.2918 60.6221 33.4912 61.1116 33.6274C60.6706 32.5081 59.0227 31.1114 56.6914 35.2918Z" fill="#CCDFFF"/>
</g>
<path d="M119.87 7.27529C116.579 7.63871 113.39 8.64998 110.488 10.2513C107.586 11.8526 105.026 14.0126 102.955 16.6077C100.885 19.2028 99.3439 22.1823 98.4208 25.3757C97.4977 28.5691 97.2104 31.9138 97.5754 35.2188L147.7 29.6272C146.961 22.9579 143.614 16.8566 138.395 12.665C133.176 8.47336 126.513 6.53468 119.87 7.27529Z" fill="#777777"/>
<g style="mix-blend-mode:multiply">
<path d="M65.2227 33.9C65.2227 33.9 68.9498 32.2989 69.4442 32.44C69.1485 31.1699 67.5103 29.6856 65.2227 33.9Z" fill="#CCDFFF"/>
</g>
<path opacity="0.38" d="M98.6579 176.596C98.6579 176.596 99.3219 183.224 99.0795 185.964C98.8372 188.704 101.018 187.487 101.624 191.254C102.23 195.02 100.471 193.93 101.198 198.31C101.925 202.69 102.351 204.286 102.351 204.286L92.6091 208.252C92.6091 208.252 91.8821 195.089 93.4815 193.327C95.081 191.565 92.2941 191.624 91.4168 186.757C90.5396 181.891 90.4766 175.379 90.4766 175.379" fill="black"/>
<g style="mix-blend-mode:screen" opacity="0.29">
<path d="M72.1148 39.1947C73.0195 39.1947 73.753 38.6957 73.753 38.0803C73.753 37.4648 73.0195 36.9658 72.1148 36.9658C71.21 36.9658 70.4766 37.4648 70.4766 38.0803C70.4766 38.6957 71.21 39.1947 72.1148 39.1947Z" fill="#FCD3A7"/>
</g>
<path d="M78.2706 61.1817C78.1285 60.9483 78.064 60.6756 78.0864 60.403C78.1037 60.1045 78.2316 59.8232 78.445 59.6147C78.666 59.4177 78.9493 59.3056 79.2448 59.2983C79.3798 59.2988 79.5144 59.3118 79.647 59.3373C79.7739 59.3749 79.8971 59.4238 80.0154 59.4833C79.8947 59.5221 79.7717 59.553 79.647 59.5757C79.5307 59.6147 79.4144 59.639 79.3078 59.6731C79.1121 59.7319 78.9317 59.8332 78.7795 59.9699C78.4905 60.3121 78.3129 60.735 78.2706 61.1817Z" fill="#FFA585"/>
<path d="M68.9212 34.3428C69.2638 34.3428 69.5415 34.1619 69.5415 33.9388C69.5415 33.7158 69.2638 33.5349 68.9212 33.5349C68.5785 33.5349 68.3008 33.7158 68.3008 33.9388C68.3008 34.1619 68.5785 34.3428 68.9212 34.3428Z" fill="white"/>
<path d="M60.4055 36.0266C60.7482 36.0266 61.0259 35.8457 61.0259 35.6227C61.0259 35.3996 60.7482 35.2188 60.4055 35.2188C60.0629 35.2188 59.7852 35.3996 59.7852 35.6227C59.7852 35.8457 60.0629 36.0266 60.4055 36.0266Z" fill="white"/>
<path d="M81.2027 68.2185C81.2027 68.2185 86.6989 71.7662 84.7408 74.2968C82.7827 76.8274 79.1283 77.898 79.1283 77.898L73.7969 76.2142L75.3963 69.4692" fill="#6C9EEF"/>
<path d="M107.684 41.9783C107.684 41.9783 108.532 37.3746 110.955 36.2894C113.379 35.2042 123.93 34.4547 125.626 34.3428C127.323 34.2309 129.751 35.866 129.751 35.866C129.751 35.866 130.72 33.6177 132.053 33.1943C133.386 32.7709 134.825 30.9168 136.279 31.1114C137.733 31.3061 137.491 33.4863 136.279 35.6227C135.068 37.7591 130.846 41.662 128.287 42.8787C127.522 43.2575 126.841 43.7878 126.286 44.4376C125.73 45.0874 125.311 45.8434 125.054 46.6599" fill="#FFA585"/>
<path d="M47.1328 59.9651L79.1552 69.2115L77.454 76.1998L67.3388 83.1589C67.2106 83.2488 67.055 83.2907 66.8992 83.2774C66.7433 83.264 66.5971 83.1963 66.4858 83.0859C64.3048 80.8911 53.6468 70.2967 50.3462 69.6105" fill="#84AEFF"/>
<path d="M82.0781 74.6035C82.0781 74.6035 90.9331 76.8226 92.4986 79.1975C94.0641 81.5724 98.2177 85.9425 97.6652 86.1712C97.1127 86.3999 84.0944 79.4311 82.0781 76.2143" fill="#6C9EEF"/>
<path d="M79.1272 76.1414C79.1272 76.1414 81.4246 79.0613 79.1272 84.0251C76.8299 88.9889 74.7652 90.9988 74.5713 90.6922C74.3774 90.3856 75.3371 78.1318 77.4551 76.2144" fill="#6C9EEF"/>
<path d="M33.3438 144.667L51.8874 135.805C51.8874 135.805 50.6078 133.824 50.2443 133.639" fill="#FFA585"/>
<path d="M49.3281 35.6228C49.3281 35.6228 52.2798 35.8466 52.3816 36.9659C52.5846 36.8766 52.747 36.7141 52.8367 36.5106C52.9264 36.307 52.937 36.0771 52.8662 35.8661C52.6384 35.0874 50.7385 34.8247 49.3281 35.6228Z" fill="#DDB98A"/>
<path d="M48.7656 36.966C48.7656 36.966 50.588 37.8371 50.7479 39.1997C50.9079 40.5623 50.9079 39.3846 50.9079 39.3846C50.9079 39.3846 52.2456 36.8589 48.7656 36.966Z" fill="#DDB98A"/>
<path d="M39.7656 38.1922C39.7656 38.1922 39.9983 22.0646 41.937 20.2348C43.8757 18.405 45.4412 15.6019 46.1148 17.8016C46.7885 20.0012 44.3991 18.9598 43.895 21.6656" fill="#EDD9C0"/>
<path d="M32.375 17.3733C32.375 17.3733 42.4611 17.1884 46.7456 11.8304C51.0301 6.47233 47.8749 2.09733 44.9668 6.47719C42.0588 10.857 46.0719 12.0785 40.6048 14.0251C37.8006 14.9839 35.0529 16.1018 32.375 17.3733Z" fill="#EDD9C0"/>
<path d="M107.023 40.7715V50.266L128.281 50.7478L127.249 47.8036L129.726 43.9152" fill="#EDD9C0"/>
<path d="M94.6853 36.4161L151 30.5665V29.1504L94.1328 35.0632L94.6853 36.4161Z" fill="#8C8C8C"/>
<g style="mix-blend-mode:multiply" opacity="0.38">
<path d="M137.054 31.5737C137.054 31.5737 132.633 38.5669 127.302 41.5647C121.971 44.5624 116.891 48.6065 112.747 49.1564C108.603 49.7063 106.931 49.1564 106.931 49.1564C106.931 49.1564 106.8 39.4623 107.033 38.6448C107.438 37.419 108.041 36.2682 108.817 35.2382C109.718 34.007 137.054 31.5737 137.054 31.5737Z" fill="#FFC2A8"/>
</g>
<path d="M119.361 7.64523C120.467 7.64523 121.363 6.74538 121.363 5.63536C121.363 4.52534 120.467 3.62549 119.361 3.62549C118.256 3.62549 117.359 4.52534 117.359 5.63536C117.359 6.74538 118.256 7.64523 119.361 7.64523Z" stroke="#777777" stroke-width="3" stroke-miterlimit="10"/>
<path d="M47.6397 127.731L28.3594 138.126L30.9718 141.129L30.0994 142.632L32.0914 145.387L51.6382 134.116L49.6414 127.731" fill="#EDD9C0"/>
<path d="M36.6036 153.426C36.5325 154.019 36.6219 154.621 36.8625 155.167C37.103 155.714 37.4857 156.185 37.9704 156.531C37.9704 156.531 37.4566 156.59 37.9704 157.748C38.2883 158.457 38.661 159.141 39.0851 159.792C39.0851 159.792 32.9588 157.631 33.6616 155.13C34.3644 152.628 35.6003 152.945 35.6003 152.945" fill="#FFA585"/>
<path d="M125.049 48.1394C125.513 48.1394 125.888 47.7624 125.888 47.2975C125.888 46.8325 125.513 46.4556 125.049 46.4556C124.586 46.4556 124.211 46.8325 124.211 47.2975C124.211 47.7624 124.586 48.1394 125.049 48.1394Z" fill="#4D3400"/>
<path d="M32.6197 140.948C33.0828 140.948 33.4582 140.572 33.4582 140.107C33.4582 139.642 33.0828 139.265 32.6197 139.265C32.1567 139.265 31.7812 139.642 31.7812 140.107C31.7812 140.572 32.1567 140.948 32.6197 140.948Z" fill="#4D3400"/>
<path d="M120.285 10.7499C120.285 10.7499 126.586 12.1077 127.991 13.9229L132.945 11.003C132.945 11.003 130.71 8.0831 123.707 9.46519" fill="#ADC2FF"/>
<path d="M133.923 11.6892L129.367 15.1055L132.188 17.1202L136.356 15.5532" fill="#ADC2FF"/>
<g style="mix-blend-mode:multiply">
<path d="M110.734 13.0811C110.734 13.0811 107.099 24.5855 109.619 26.61C112.14 28.6344 132.152 27.5833 132.152 27.5833L132.864 29.6758L98.8062 33.5204C98.8062 33.5204 98.4039 20.1716 110.734 13.0811Z" fill="#ADC2FF"/>
</g>
<path d="M104.99 7.11963C104.626 10.7354 102.203 11.4995 102.203 11.4995C102.203 11.4995 105.237 10.5262 105.964 14.3951C105.964 14.3951 105.072 10.4581 108.223 10.3169C107.764 10.3299 107.31 10.2155 106.911 9.98627C106.513 9.75702 106.185 9.42182 105.964 9.01757C105.591 8.41113 105.265 7.77659 104.99 7.11963Z" fill="#FFE9D1"/>
<path d="M108.138 4.92969C108.007 6.26798 107.105 6.55997 107.105 6.55997C107.105 6.55997 108.23 6.19498 108.501 7.63547C108.501 7.63547 108.172 6.17551 109.34 6.11711C109.169 6.1222 109 6.07936 108.852 5.9934C108.704 5.90745 108.582 5.78177 108.501 5.63047C108.363 5.40618 108.242 5.17195 108.138 4.92969Z" fill="#FFE9D1"/>
<path d="M67.6035 138.778C67.6035 138.778 67.9864 147.402 66.5809 152.594C65.1753 157.787 63.1445 175.253 63.1445 175.253C63.1445 175.253 72.174 171.179 75.7073 176.854C79.2405 182.528 105.922 182.966 111.258 178.163C116.594 173.36 123.86 163.753 125.721 168.118C127.582 172.484 127.945 173.214 127.945 173.214C127.945 173.214 129.816 136.17 118.625 119.877" fill="#FFFDFA"/>
<path d="M74.5311 204.753C76.2759 207.897 76.0433 212.89 76.0433 212.89C76.0433 212.89 73.9543 214.092 73.0335 213.421C72.1126 212.749 71.8266 215.761 71.8266 215.761H39.9981C39.9981 215.761 39.116 214.759 38.8058 211.615C38.4956 208.471 42.5087 201.605 49.1439 197.604C55.7791 193.604 67.736 204.753 67.736 204.753" fill="#0F0B08"/>
<path d="M93.043 212.365L93.8911 214.827H101.108L102.717 213.596L105.533 214.827L141.433 214.696L142.232 213.596C142.232 213.596 126.8 213.153 106.367 213.596" fill="black"/>
<path d="M39.582 215.012C39.582 215.012 42.6403 213.124 49.6875 212.992C56.7346 212.861 71.8177 215.761 71.8177 215.761" fill="black"/>
<path d="M72.8359 213.333C72.8359 213.333 73.3691 211.659 73.6987 211.537C74.0282 211.416 76.0542 210.861 76.0542 210.861V212.89C76.0542 212.89 74.193 214.165 72.8359 213.333Z" fill="black"/>
<path d="M67.7188 204.729C68.5766 206.032 69.264 207.44 69.7641 208.919C70.4668 211.148 71.0339 211.352 71.9887 208.919C72.543 207.58 72.91 206.17 73.0792 204.729" fill="black"/>
<path d="M122.412 200.412C122.412 200.412 121.196 199.799 119.325 203.556C117.454 207.313 115.278 207.401 114.885 207.05C114.493 206.7 117.149 202.773 116.586 202.116C116.024 201.459 115.981 202.685 114.846 202.247C113.712 201.809 110.484 202.422 110.484 202.422L102.352 204.286C102.352 204.286 114.342 199.249 117.376 199.741" fill="black"/>
<g style="mix-blend-mode:screen" opacity="0.51">
<path d="M132.721 197.75C132.721 197.75 129.43 199.045 127.942 199.697C126.454 200.349 129.939 199.137 132.721 201.06C135.503 202.982 138.808 207.746 140.379 206.238C141.949 204.729 141.61 199.03 132.721 197.75Z" fill="#492913"/>
</g>
<g style="mix-blend-mode:screen" opacity="0.51">
<path d="M50.8594 198.982C50.8594 198.982 56.341 199.376 58.8856 202.977C61.4301 206.578 63.4512 210.053 64.6241 209.79C65.797 209.527 65.6031 197.663 50.8594 198.982Z" fill="#492913"/>
</g>
<path d="M91.418 140.953C91.418 140.953 95.4844 146.019 95.969 151.533C96.4537 157.047 95.0821 161.753 96.5361 164.755C97.9901 167.758 103.564 165.972 107.199 165.077C110.834 164.181 121.657 158.75 121.657 158.75C121.657 158.75 103.889 170.109 99.1194 169.622C94.3502 169.135 94.7574 162.989 94.7574 160.303C94.7574 157.616 96.5361 147.732 91.418 140.953Z" fill="#D8D8D8"/>
<path d="M92.9844 140.584C92.9844 140.584 109.541 138.987 113.418 134.515C117.296 130.043 117.082 130.218 111.644 134.174C106.206 138.131 92.9844 140.584 92.9844 140.584Z" fill="#D8D8D8"/>
<path d="M76.0562 177.316C76.0562 177.316 76.8317 170.693 77.1952 160.283C77.5587 149.874 78.0385 140.462 73.7589 148.302C69.4792 156.142 65.3789 172.513 63.1445 175.233C63.1445 175.233 67.7829 173.656 69.4792 173.817C71.1756 173.978 76.0562 177.316 76.0562 177.316Z" fill="#D8D8D8"/>
</g>
<defs>
<linearGradient id="paint0_linear_53_54861" x1="65.0374" y1="28.4251" x2="73.2154" y2="46.2601" gradientUnits="userSpaceOnUse">
<stop stop-color="#FCD3A7"/>
<stop offset="1" stop-color="#FFA585"/>
</linearGradient>
<clipPath id="clip0_53_54861">
<rect width="151" height="216" fill="white"/>
</clipPath>
</defs>
</svg>
