<svg width="415" height="184" viewBox="0 0 415 184" fill="none" xmlns="http://www.w3.org/2000/svg">
<path d="M51.8544 178.096L35.2116 162.18C34.6568 161.625 33.3975 160.848 33.0647 160.122C32.8991 159.599 32.85 159.047 32.921 158.503C32.9919 157.96 33.1811 157.439 33.4752 156.976C33.834 156.548 34.2355 156.158 34.6735 155.811C37.9022 152.656 41.1346 149.503 44.3707 146.352L49.2471 141.593C50.0626 140.799 50.9446 139.579 51.921 138.98C54.7669 137.232 58.1843 142.419 59.721 143.972L69.7566 154.202C71.5873 156.066 75.3431 158.463 72.7801 161.336C69.7178 164.743 65.8733 167.711 62.5059 170.845L57.0082 175.938C55.7877 177.047 53.9292 179.644 51.8544 178.112C51.0001 177.48 49.9239 178.75 50.7893 179.388C54.3731 182.035 57.4021 177.824 59.843 175.561L71.7926 164.465C74.1448 162.285 77.379 159.85 74.4111 156.543C71.4431 153.237 68.3087 150.308 65.2298 147.201C62.1508 144.094 59.2716 140.766 56.054 137.859C52.9418 135.052 50.4453 138.081 48.254 140.217L36.4376 151.745C34.3572 153.775 29.3588 157.065 31.3338 160.521C32.0328 161.741 33.4419 162.74 34.4349 163.7L40.8036 169.802L50.7893 179.366C51.5604 180.115 52.6256 178.834 51.8544 178.096Z" fill="#BCBBC4"/>
<path d="M53.7577 167.1L45.1256 158.49C45.1589 158.884 45.1978 159.272 45.231 159.666L53.8409 151.051L52.6704 151.156L61.2969 159.749C61.2637 159.361 61.2304 158.967 61.1915 158.579L52.5816 167.189C51.8216 167.949 53.1031 169.014 53.8576 168.259L62.4675 159.649C62.6067 159.479 62.6741 159.261 62.6554 159.041C62.6368 158.822 62.5336 158.618 62.3676 158.473C59.494 155.607 56.624 152.737 53.7577 149.863C53.587 149.724 53.3689 149.657 53.1495 149.675C52.93 149.694 52.7264 149.797 52.5816 149.963L43.9717 158.595C43.8379 158.764 43.7736 158.978 43.7922 159.192C43.8108 159.407 43.9107 159.606 44.0716 159.749L52.687 168.359C53.4471 169.136 54.5067 167.854 53.7577 167.1Z" fill="#BCBBC4"/>
<path d="M28.3324 144.349L62.7942 178.811L67.7538 183.771C68.5138 184.531 69.5734 183.249 68.8245 182.495L34.3626 148.039L29.4031 143.107C28.6431 142.347 27.5779 143.628 28.3324 144.377V144.349Z" fill="#BCBBC4"/>
<path d="M37.1751 135.506L71.6368 169.968L76.5964 174.928C77.3564 175.688 78.4216 174.406 77.6671 173.652L43.2053 139.223L38.2457 134.23C37.4913 133.476 36.4261 134.752 37.1751 135.506Z" fill="#BCBBC4"/>
<path d="M42.1625 148.865L63.5819 170.29C64.3419 171.05 65.4071 169.768 64.6526 169.014L43.2277 147.595C42.4732 146.834 41.4081 148.116 42.1625 148.865Z" fill="#BCBBC4"/>
<path d="M67.6485 134.336L33.1923 168.792L28.2327 173.757C27.4727 174.512 28.7542 175.577 29.5031 174.822L63.9871 140.366L68.9467 135.406C69.7067 134.646 68.4252 133.581 67.6707 134.336H67.6485Z" fill="#BCBBC4"/>
<path d="M76.4978 143.179L42.036 177.64L37.0764 182.6C36.3164 183.36 37.5979 184.42 38.3523 183.671L72.8086 149.209L77.7682 144.249C78.5282 143.489 77.2467 142.424 76.4978 143.179Z" fill="#BCBBC4"/>
<path d="M63.138 148.16L41.7131 169.585C40.9531 170.345 42.2346 171.41 42.9891 170.656L64.4084 149.209C65.1684 148.454 63.8869 147.389 63.138 148.138V148.16Z" fill="#BCBBC4"/>
<path d="M285.144 10.706C283.311 12.4112 282.7 15.6933 282.168 18.0403C281.252 22.2217 280.841 26.4981 280.946 30.7775C281.031 34.4446 281.447 38.5457 283.341 41.7789C285.236 45.0121 289.032 46.6134 292.729 46.9556C299.825 47.6035 310.27 44.7065 312.813 37.2133C314.28 32.8861 314.255 27.911 313.834 23.4065C313.504 19.8983 313.002 15.241 310.6 12.4051C308.058 9.42863 302.851 8.62187 299.226 8.21237C294.697 7.70508 289.148 7.65006 285.334 10.5288C284.393 11.2377 285.45 12.7413 286.391 12.0262C289.508 9.67311 294.025 9.61199 297.753 9.91148C301.17 10.1804 305.479 10.7305 308.333 12.8146C310.778 14.5993 311.334 18.5353 311.737 21.304C312.372 25.3253 312.399 29.4191 311.817 33.4484C311.206 37.1766 309.824 39.8292 306.554 41.8522C302.967 44.0211 298.859 45.1784 294.667 45.2015C290.969 45.2015 286.77 44.1564 284.839 40.7154C283.268 37.91 282.926 34.4324 282.804 31.2786C282.666 27.3395 282.984 23.3977 283.751 19.5316C284.215 17.1602 284.692 13.6214 286.575 11.8856C287.412 11.0849 286 9.91758 285.144 10.706Z" fill="#A6838A"/>
<path d="M300.167 16.286C290.62 12.0871 283.592 33.1181 294 36.2046C298.566 37.5554 301.903 32.4153 303.168 28.797C304.678 24.4392 304.653 18.8163 300.179 16.286C299.153 15.6748 298.376 17.3617 299.397 17.9423C302.716 19.8248 302.624 24.1703 301.701 27.4035C300.919 30.1416 298.645 34.8478 295.186 34.5666C290.517 34.1877 290.229 27.7274 291.299 24.4331C292.295 21.3772 295.486 16.2187 299.397 17.9423C300.461 18.419 301.249 16.7566 300.167 16.286Z" fill="#A6838A"/>
<path d="M298.096 0.969408V8.98821C298.096 10.1678 299.929 10.0028 299.929 8.82929V0.804375C299.929 -0.37522 298.096 -0.204075 298.096 0.969408Z" fill="#A6838A"/>
<path d="M286.055 1.97172C286.805 4.64466 287.555 7.31556 288.304 9.98442C288.622 11.1212 290.34 10.4795 290.022 9.37323C289.276 6.70437 288.528 4.03144 287.779 1.35444C287.461 0.223736 285.744 0.865485 286.055 1.96563V1.97172Z" fill="#A6838A"/>
<path d="M308.211 3.48731L306.054 10.9255C305.724 12.0562 307.533 12.3801 307.857 11.2555L310.014 3.81736C310.344 2.68666 308.535 2.36273 308.211 3.48731Z" fill="#A6838A"/>
<path d="M299.923 53.977V45.9521C299.923 44.7725 298.09 44.9376 298.09 46.111V54.1421C298.09 55.3217 299.923 55.1505 299.923 53.977Z" fill="#A6838A"/>
<path d="M287.822 53.4581C288.568 50.7852 289.315 48.1142 290.065 45.4454C290.383 44.3086 288.574 43.9846 288.262 45.1153C287.508 47.7883 286.761 50.4592 286.019 53.128C285.695 54.2649 287.504 54.5888 287.853 53.4581H287.822Z" fill="#A6838A"/>
<path d="M309.946 50.9833C309.225 48.51 308.506 46.0326 307.789 43.5512C307.465 42.4205 305.741 43.0623 306.071 44.1624C306.792 46.6438 307.511 49.1232 308.229 51.6006C308.559 52.7313 310.276 52.0895 309.946 50.9588V50.9833Z" fill="#A6838A"/>
<path d="M321.058 26.1992H313.002C311.823 26.1992 311.994 28.0328 313.161 28.0328H321.192C322.372 28.0328 322.207 26.1992 321.033 26.1992H321.058Z" fill="#A6838A"/>
<path d="M320.263 16.188L312.245 18.431C311.114 18.7489 311.756 20.4663 312.886 20.1546L320.899 17.9054C322.036 17.5876 321.394 15.8702 320.288 16.188H320.263Z" fill="#A6838A"/>
<path d="M319.977 37.6712L312.545 35.5137C311.408 35.1836 311.09 36.9927 312.209 37.3472L319.647 39.5047C320.778 39.8348 321.102 38.0257 319.977 37.7017V37.6712Z" fill="#A6838A"/>
<path d="M273.966 29.3834H281.997C283.177 29.3834 283.006 27.5498 281.832 27.5498H273.807C272.628 27.5498 272.793 29.3834 273.966 29.3834Z" fill="#A6838A"/>
<path d="M274.73 17.2763L282.743 19.5255C283.88 19.8433 284.204 18.0342 283.073 17.7225L275.06 15.4733C273.923 15.1555 273.599 16.9646 274.73 17.2763Z" fill="#A6838A"/>
<path d="M274.498 39.4315L281.93 37.274C283.067 36.944 282.425 35.2265 281.319 35.5566L273.887 37.7141C272.756 38.038 273.398 39.7554 274.498 39.4315Z" fill="#A6838A"/>
<path d="M6.71875 87.5312C6.21875 86.9062 5.9375 86.375 5.875 85.9375C5.8125 85.5 5.78125 84.9375 5.78125 84.25C5.78125 83.5625 5.875 83 6.0625 82.5625C6.3125 82.0625 6.84375 81.8125 7.65625 81.8125C8.15625 81.8125 8.59375 81.9375 8.96875 82.1875C9.34375 82.4375 9.6875 82.7812 10 83.2188C10.375 83.5938 10.6562 84 10.8438 84.4375C11.0312 84.8125 11.1875 85.2188 11.3125 85.6562C12.0625 88.2188 12.7188 90.5312 13.2812 92.5938C13.8438 94.6562 14.3125 96.75 14.6875 98.875C15.125 100.938 15.5 103.125 15.8125 105.438C16.125 107.688 16.4375 110.25 16.75 113.125L17.6875 114.812C18.1875 114.688 18.6875 114.469 19.1875 114.156C19.6875 113.844 20.0938 113.5 20.4062 113.125C20.7188 112.688 21.1875 112 21.8125 111.062C22.5 110.062 23.25 108.969 24.0625 107.781C24.9375 106.531 25.8438 105.25 26.7812 103.938C27.7188 102.625 28.5938 101.375 29.4062 100.188C30.2812 98.9375 31.0625 97.8438 31.75 96.9062C32.4375 95.9688 32.9375 95.25 33.25 94.75C33.75 94.0625 34.1562 93.5938 34.4688 93.3438C34.7812 93.0312 35.3125 92.875 36.0625 92.875C36.6875 92.875 37.4688 93.375 38.4062 94.375C39.4062 95.3125 40.5 96.5625 41.6875 98.125C42.9375 99.625 44.1875 101.312 45.4375 103.188C46.6875 105 47.9062 106.75 49.0938 108.438C50.3438 110.125 51.4688 111.656 52.4688 113.031C53.5312 114.406 54.4375 115.312 55.1875 115.75C55.25 115.75 55.3125 115.781 55.375 115.844C55.4375 115.844 55.5 115.844 55.5625 115.844H55.8438C55.9062 115.844 55.9688 115.812 56.0312 115.75L56.9688 114.812L67 80.2188C67.25 79.4062 67.4375 78.875 67.5625 78.625C67.6875 78.375 68.0625 78.25 68.6875 78.25C69.3125 78.25 69.7812 78.4062 70.0938 78.7188C70.4688 78.9688 70.7812 79.3125 71.0312 79.75C71.2812 80.125 71.4375 80.5625 71.5 81.0625C71.625 81.5625 71.6875 82.0625 71.6875 82.5625C71.6875 83.25 71.5312 84.4062 71.2188 86.0312C70.9688 87.5938 70.5938 89.4062 70.0938 91.4688C69.6562 93.5312 69.0938 95.8125 68.4062 98.3125C67.7812 100.75 67.0625 103.156 66.25 105.531C65.4375 107.906 64.5938 110.219 63.7188 112.469C62.9062 114.656 62.0625 116.625 61.1875 118.375C60.3125 120.125 59.4375 121.531 58.5625 122.594C57.6875 123.594 56.8438 124.094 56.0312 124.094C55.9688 124.094 55.8125 124.062 55.5625 124C55.375 124 55.25 124 55.1875 124C53.3125 122.375 51.5625 120.688 49.9375 118.938C48.375 117.188 46.875 115.406 45.4375 113.594C44 111.719 42.5625 109.844 41.125 107.969C39.75 106.094 38.3125 104.125 36.8125 102.062C36.75 102 36.625 101.844 36.4375 101.594C36.25 101.344 36.125 101.219 36.0625 101.219C35.9375 101.219 35.8438 101.188 35.7812 101.125C35.6562 101.125 35.5938 101.125 35.5938 101.125C35.5938 101.062 35.5625 101.031 35.5 101.031C34.6875 101.031 33.7812 101.625 32.7812 102.812C31.8438 103.938 30.8438 105.344 29.7812 107.031C28.7188 108.719 27.5625 110.562 26.3125 112.562C25.125 114.562 23.9062 116.406 22.6562 118.094C21.4062 119.719 20.125 121.125 18.8125 122.312C17.5625 123.438 16.25 124 14.875 124C14.875 124 14.7812 123.938 14.5938 123.812C14.4062 123.688 14.2188 123.531 14.0312 123.344C13.9062 123.094 13.75 122.875 13.5625 122.688C13.375 122.438 13.25 122.25 13.1875 122.125C13.125 122.062 13.0938 121.938 13.0938 121.75C13.0938 121.5 13.125 121.344 13.1875 121.281L6.71875 87.5312ZM74.2188 107.5C74.2188 105.375 74.8125 103.312 76 101.312C77.1875 99.3125 78.6875 97.5625 80.5 96.0625C82.375 94.5625 84.4062 93.375 86.5938 92.5C88.8438 91.625 90.9688 91.1875 92.9688 91.1875C94.5938 91.1875 96.1875 91.4062 97.75 91.8438C99.375 92.2188 100.812 92.8438 102.062 93.7188C103.312 94.5938 104.312 95.6875 105.062 97C105.875 98.25 106.281 99.75 106.281 101.5C106.281 102.312 106.219 102.969 106.094 103.469C106.031 103.906 105.844 104.312 105.531 104.688C105.219 105 104.812 105.312 104.312 105.625C103.875 105.875 103.312 106.219 102.625 106.656C102.25 106.719 101.688 106.875 100.938 107.125C100.188 107.312 99.3125 107.531 98.3125 107.781C97.375 108.031 96.375 108.281 95.3125 108.531C94.25 108.781 93.2188 109.031 92.2188 109.281C91.2812 109.531 90.4375 109.75 89.6875 109.938C88.9375 110.125 88.375 110.25 88 110.312C87.8125 110.375 87.4062 110.438 86.7812 110.5C86.1562 110.562 85.4688 110.656 84.7188 110.781C84.0312 110.844 83.375 110.938 82.75 111.062C82.125 111.125 81.75 111.188 81.625 111.25C81.4375 111.312 81.2188 111.469 80.9688 111.719C80.7812 111.906 80.6875 112.031 80.6875 112.094C80.6875 113.344 81.0312 114.406 81.7188 115.281C82.4062 116.094 83.2812 116.781 84.3438 117.344C85.4062 117.906 86.5938 118.344 87.9062 118.656C89.2812 118.906 90.625 119.125 91.9375 119.312C93.25 119.438 94.4688 119.5 95.5938 119.5C96.7188 119.5 97.625 119.5 98.3125 119.5C101.438 119.5 104.5 119.344 107.5 119.031C110.5 118.656 113.562 118.469 116.688 118.469V119.219C116.688 119.594 116.625 120 116.5 120.438C116.438 120.812 116.312 121.188 116.125 121.562C115.938 121.875 115.688 122.062 115.375 122.125C113 122.625 110.875 123.031 109 123.344C107.188 123.594 105.469 123.781 103.844 123.906C102.219 123.969 100.531 124 98.7812 124C97.0312 124.062 95.0938 124.094 92.9688 124.094H91.375C90.6875 124.094 89.9375 124.062 89.125 124C88.3125 124 87.5312 124 86.7812 124H85.1875C83.25 123.5 81.5625 122.719 80.125 121.656C78.75 120.531 77.625 119.219 76.75 117.719C75.875 116.219 75.2188 114.594 74.7812 112.844C74.4062 111.094 74.2188 109.312 74.2188 107.5ZM95.2188 96.4375C94.4062 96.4375 93.4688 96.5312 92.4062 96.7188C91.4062 96.8438 90.3438 97.0938 89.2188 97.4688C88.1562 97.7812 87.0938 98.2188 86.0312 98.7812C84.9688 99.2812 84.0312 99.9062 83.2188 100.656C82.4062 101.344 81.7188 102.125 81.1562 103C80.6562 103.875 80.4062 104.844 80.4062 105.906H84.25C85.625 105.906 87.0312 105.844 88.4688 105.719C89.9062 105.594 91.3125 105.406 92.6875 105.156C94.0625 104.844 95.25 104.406 96.25 103.844C97.3125 103.219 98.1562 102.438 98.7812 101.5C99.4688 100.562 99.8125 99.4062 99.8125 98.0312V97.5625L98.875 96.625C98.75 96.625 98.5 96.625 98.125 96.625C97.8125 96.5625 97.4688 96.5312 97.0938 96.5312C96.7188 96.4688 96.3438 96.4375 95.9688 96.4375C95.6562 96.4375 95.4062 96.4375 95.2188 96.4375ZM126.344 123.156C125.844 122.844 125.438 122.438 125.125 121.938C124.812 121.375 124.562 120.781 124.375 120.156C124.188 119.531 124 118.906 123.812 118.281C123.688 117.656 123.625 117.156 123.625 116.781C123.5 116.094 123.344 115.031 123.156 113.594C122.969 112.156 122.75 110.5 122.5 108.625C122.25 106.688 122 104.656 121.75 102.531C121.5 100.406 121.25 98.375 121 96.4375C120.75 94.4375 120.531 92.6562 120.344 91.0938C120.156 89.5312 120.031 88.3438 119.969 87.5312C119.969 87.4062 119.938 87.1562 119.875 86.7812C119.875 86.4062 119.875 86.1562 119.875 86.0312C119.875 85.0938 120.062 84.5 120.438 84.25C120.812 83.9375 121.469 83.7812 122.406 83.7812C123.531 83.7812 124.344 84.2188 124.844 85.0938C125.344 85.9062 125.688 86.9688 125.875 88.2812C126.125 89.5938 126.25 91 126.25 92.5C126.312 94 126.406 95.4062 126.531 96.7188C126.719 98.0312 127 99.125 127.375 100C127.75 100.812 128.406 101.219 129.344 101.219C130.719 101.219 132.094 101.125 133.469 100.938C134.844 100.75 136.219 100.531 137.594 100.281C138.969 99.9688 140.344 99.75 141.719 99.625C143.156 99.4375 144.562 99.3438 145.938 99.3438H146.875C147.375 99.3438 147.875 99.3438 148.375 99.3438C148.938 99.3438 149.469 99.3438 149.969 99.3438H150.906C152.344 100.094 153.562 101.062 154.562 102.25C155.625 103.375 156.5 104.625 157.188 106C157.938 107.312 158.531 108.75 158.969 110.312C159.406 111.812 159.781 113.312 160.094 114.812C159.781 116.25 159.125 117.469 158.125 118.469C157.188 119.469 156.062 120.312 154.75 121C153.438 121.688 152 122.25 150.438 122.688C148.875 123.062 147.281 123.375 145.656 123.625C144.094 123.812 142.594 123.938 141.156 124C139.719 124.062 138.438 124.094 137.312 124.094C136.25 124.094 135.281 124.062 134.406 124C133.594 124 132.781 123.969 131.969 123.906C131.156 123.844 130.281 123.75 129.344 123.625C128.469 123.5 127.469 123.344 126.344 123.156ZM128.969 110.781C128.969 113.469 129.5 115.469 130.562 116.781C131.625 118.031 133.531 118.656 136.281 118.656C136.844 118.656 137.688 118.656 138.812 118.656C139.938 118.594 141.125 118.5 142.375 118.375C143.688 118.25 145.031 118.094 146.406 117.906C147.781 117.656 149 117.344 150.062 116.969C151.188 116.531 152.094 116.031 152.781 115.469C153.469 114.844 153.812 114.062 153.812 113.125C153.812 111.75 153.562 110.562 153.062 109.562C152.562 108.5 151.875 107.625 151 106.938C150.125 106.188 149.125 105.625 148 105.25C146.875 104.875 145.688 104.688 144.438 104.688C143.125 104.688 141.781 104.75 140.406 104.875C139.094 105 137.75 105.188 136.375 105.438C135 105.625 133.688 106 132.438 106.562C131.188 107.062 130.031 107.688 128.969 108.438C128.969 108.688 128.969 109.094 128.969 109.656C128.969 110.219 128.969 110.594 128.969 110.781ZM193.375 110.125C193.375 108.188 193.375 106.188 193.375 104.125C193.375 102 193.469 99.875 193.656 97.75C193.844 95.625 194.094 93.5625 194.406 91.5625C194.781 89.5625 195.344 87.5938 196.094 85.6562C195.344 85.9062 194.781 85.9688 194.406 85.8438C194.031 85.7188 193.75 85.5 193.562 85.1875C193.375 84.875 193.25 84.5312 193.188 84.1562C193.188 83.7188 193.188 83.3438 193.188 83.0312C193.188 82.2188 193.312 81.625 193.562 81.25C193.812 80.875 194.156 80.625 194.594 80.5C195.031 80.3125 195.531 80.2188 196.094 80.2188C196.719 80.1562 197.344 80.125 197.969 80.125C200.219 80.125 202.562 80.3125 205 80.6875C207.5 81.0625 209.969 81.6562 212.406 82.4688C214.844 83.2188 217.156 84.2188 219.344 85.4688C221.531 86.6562 223.469 88.125 225.156 89.875C226.906 91.5625 228.281 93.4688 229.281 95.5938C230.281 97.7188 230.781 100.156 230.781 102.906C230.781 106.219 230.125 109.188 228.812 111.812C227.5 114.438 225.719 116.656 223.469 118.469C221.281 120.219 218.719 121.594 215.781 122.594C212.844 123.594 209.812 124.094 206.688 124.094C204.688 124.094 202.844 123.75 201.156 123.062C199.531 122.375 198.125 121.438 196.938 120.25C195.75 119 194.844 117.5 194.219 115.75C193.656 114 193.375 112.125 193.375 110.125ZM199.75 115.75C200.188 116.5 200.812 117.062 201.625 117.438C202.438 117.812 203.281 118.094 204.156 118.281C205.031 118.469 205.906 118.594 206.781 118.656C207.719 118.656 208.562 118.656 209.312 118.656C211.438 118.656 213.469 118.281 215.406 117.531C217.406 116.719 219.156 115.625 220.656 114.25C222.156 112.875 223.312 111.25 224.125 109.375C225 107.438 225.438 105.375 225.438 103.188C225.438 101.438 225.062 99.8125 224.312 98.3125C223.562 96.75 222.562 95.3125 221.312 94C220.125 92.6875 218.719 91.5312 217.094 90.5312C215.531 89.4688 213.875 88.5938 212.125 87.9062C210.375 87.1562 208.625 86.5938 206.875 86.2188C205.125 85.8438 203.438 85.6562 201.812 85.6562H201.531C200.594 86.5938 199.906 87.875 199.469 89.5C199.094 91.0625 198.844 92.75 198.719 94.5625C198.656 96.3125 198.656 98.0625 198.719 99.8125C198.781 101.5 198.812 102.875 198.812 103.938V105.719C198.812 106.094 198.844 106.781 198.906 107.781C199.031 108.719 199.125 109.75 199.188 110.875C199.25 111.938 199.344 112.938 199.469 113.875C199.594 114.812 199.688 115.438 199.75 115.75ZM234.438 107.5C234.438 105.375 235.031 103.312 236.219 101.312C237.406 99.3125 238.906 97.5625 240.719 96.0625C242.594 94.5625 244.625 93.375 246.812 92.5C249.062 91.625 251.188 91.1875 253.188 91.1875C254.812 91.1875 256.406 91.4062 257.969 91.8438C259.594 92.2188 261.031 92.8438 262.281 93.7188C263.531 94.5938 264.531 95.6875 265.281 97C266.094 98.25 266.5 99.75 266.5 101.5C266.5 102.312 266.438 102.969 266.312 103.469C266.25 103.906 266.062 104.312 265.75 104.688C265.438 105 265.031 105.312 264.531 105.625C264.094 105.875 263.531 106.219 262.844 106.656C262.469 106.719 261.906 106.875 261.156 107.125C260.406 107.312 259.531 107.531 258.531 107.781C257.594 108.031 256.594 108.281 255.531 108.531C254.469 108.781 253.438 109.031 252.438 109.281C251.5 109.531 250.656 109.75 249.906 109.938C249.156 110.125 248.594 110.25 248.219 110.312C248.031 110.375 247.625 110.438 247 110.5C246.375 110.562 245.688 110.656 244.938 110.781C244.25 110.844 243.594 110.938 242.969 111.062C242.344 111.125 241.969 111.188 241.844 111.25C241.656 111.312 241.438 111.469 241.188 111.719C241 111.906 240.906 112.031 240.906 112.094C240.906 113.344 241.25 114.406 241.938 115.281C242.625 116.094 243.5 116.781 244.562 117.344C245.625 117.906 246.812 118.344 248.125 118.656C249.5 118.906 250.844 119.125 252.156 119.312C253.469 119.438 254.688 119.5 255.812 119.5C256.938 119.5 257.844 119.5 258.531 119.5C261.656 119.5 264.719 119.344 267.719 119.031C270.719 118.656 273.781 118.469 276.906 118.469V119.219C276.906 119.594 276.844 120 276.719 120.438C276.656 120.812 276.531 121.188 276.344 121.562C276.156 121.875 275.906 122.062 275.594 122.125C273.219 122.625 271.094 123.031 269.219 123.344C267.406 123.594 265.688 123.781 264.062 123.906C262.438 123.969 260.75 124 259 124C257.25 124.062 255.312 124.094 253.188 124.094H251.594C250.906 124.094 250.156 124.062 249.344 124C248.531 124 247.75 124 247 124H245.406C243.469 123.5 241.781 122.719 240.344 121.656C238.969 120.531 237.844 119.219 236.969 117.719C236.094 116.219 235.438 114.594 235 112.844C234.625 111.094 234.438 109.312 234.438 107.5ZM255.438 96.4375C254.625 96.4375 253.688 96.5312 252.625 96.7188C251.625 96.8438 250.562 97.0938 249.438 97.4688C248.375 97.7812 247.312 98.2188 246.25 98.7812C245.188 99.2812 244.25 99.9062 243.438 100.656C242.625 101.344 241.938 102.125 241.375 103C240.875 103.875 240.625 104.844 240.625 105.906H244.469C245.844 105.906 247.25 105.844 248.688 105.719C250.125 105.594 251.531 105.406 252.906 105.156C254.281 104.844 255.469 104.406 256.469 103.844C257.531 103.219 258.375 102.438 259 101.5C259.688 100.562 260.031 99.4062 260.031 98.0312V97.5625L259.094 96.625C258.969 96.625 258.719 96.625 258.344 96.625C258.031 96.5625 257.688 96.5312 257.312 96.5312C256.938 96.4688 256.562 96.4375 256.188 96.4375C255.875 96.4375 255.625 96.4375 255.438 96.4375ZM288.25 118.281V116.312C288.25 115.5 288.312 114.719 288.438 113.969C288.562 113.219 288.812 112.562 289.188 112C289.562 111.438 290.094 111.156 290.781 111.156V111.25H291.062L292.938 118.469C292.938 118.719 293.062 118.906 293.312 119.031C293.562 119.156 293.812 119.281 294.062 119.406C294.375 119.469 294.656 119.5 294.906 119.5C295.219 119.5 295.469 119.5 295.656 119.5C295.781 119.5 295.938 119.5 296.125 119.5C296.375 119.438 296.531 119.406 296.594 119.406C296.969 119.344 297.688 119.188 298.75 118.938C299.812 118.625 300.906 118.344 302.031 118.094C303.219 117.844 304.312 117.594 305.312 117.344C306.375 117.031 307.125 116.844 307.562 116.781C307.875 116.281 308.344 115.844 308.969 115.469C309.594 115.031 310.219 114.625 310.844 114.25C311.469 113.875 312 113.469 312.438 113.031C312.875 112.594 313.094 112.031 313.094 111.344C313.094 109.781 312.688 108.531 311.875 107.594C311.125 106.656 310.125 105.969 308.875 105.531C307.688 105.031 306.406 104.688 305.031 104.5C303.656 104.312 302.344 104.125 301.094 103.938C300.594 103.875 299.781 103.781 298.656 103.656C297.594 103.469 296.375 103.281 295 103.094C293.625 102.906 292.188 102.719 290.688 102.531C289.188 102.281 287.719 102.094 286.281 101.969C284.906 101.781 283.656 101.625 282.531 101.5C281.469 101.375 280.688 101.281 280.188 101.219C279.812 100.969 279.406 100.531 278.969 99.9062C278.531 99.2812 278.312 98.7812 278.312 98.4062C278.312 97.3438 278.875 96.375 280 95.5C281.188 94.5625 282.656 93.7188 284.406 92.9688C286.156 92.2188 288.125 91.5625 290.312 91C292.562 90.4375 294.75 89.9375 296.875 89.5C299.062 89.0625 301.062 88.75 302.875 88.5625C304.75 88.375 306.188 88.2812 307.188 88.2812C307.938 88.2812 308.625 88.5312 309.25 89.0312C309.938 89.5312 310.281 90.25 310.281 91.1875C310.281 91.9375 310.062 92.5 309.625 92.875C309.25 93.1875 308.75 93.4062 308.125 93.5312C307.562 93.5938 306.969 93.6562 306.344 93.7188C305.781 93.7188 305.25 93.75 304.75 93.8125C303.75 94 302.469 94.25 300.906 94.5625C299.406 94.875 297.906 95.1875 296.406 95.5C294.906 95.8125 293.656 96.0625 292.656 96.25L291.062 96.625V97.6562C292.25 97.6562 293.75 97.6875 295.562 97.75C297.375 97.8125 299.312 97.9688 301.375 98.2188C303.438 98.4688 305.469 98.875 307.469 99.4375C309.531 99.9375 311.375 100.656 313 101.594C314.625 102.469 315.938 103.594 316.938 104.969C318 106.281 318.531 107.906 318.531 109.844C318.531 112.469 317.812 114.688 316.375 116.5C314.938 118.312 313.125 119.781 310.938 120.906C308.75 122.031 306.375 122.844 303.812 123.344C301.25 123.844 298.875 124.094 296.688 124.094C295.812 124.094 294.875 124.031 293.875 123.906C292.875 123.719 291.938 123.406 291.062 122.969C290.25 122.531 289.562 121.938 289 121.188C288.5 120.438 288.25 119.469 288.25 118.281ZM325.75 123.156C325.312 121.906 324.906 120.562 324.531 119.125C324.219 117.625 323.938 116.094 323.688 114.531C323.5 112.969 323.344 111.438 323.219 109.938C323.094 108.438 323.031 107.031 323.031 105.719C323.031 105.531 323.062 105.188 323.125 104.688C323.188 104.125 323.25 103.562 323.312 103C323.438 102.438 323.562 101.906 323.688 101.406C323.812 100.844 323.906 100.469 323.969 100.281C324.031 100.219 324.312 100.156 324.812 100.094C325.312 100.031 325.625 100 325.75 100C326.562 100 327.219 100.438 327.719 101.312C328.219 102.188 328.656 103.312 329.031 104.688C329.406 106.062 329.656 107.594 329.781 109.281C329.969 110.906 330.125 112.5 330.25 114.062C330.375 115.562 330.438 116.906 330.438 118.094C330.438 119.281 330.438 120.094 330.438 120.531C330.438 120.719 330.438 121.031 330.438 121.469C330.5 121.844 330.5 122.25 330.438 122.688C330.375 123.062 330.219 123.375 329.969 123.625C329.781 123.875 329.438 124 328.938 124H328.562C328.438 124 328.25 123.969 328 123.906C327.75 123.781 327.469 123.688 327.156 123.625C326.844 123.5 326.562 123.406 326.312 123.344C326.062 123.281 325.875 123.219 325.75 123.156ZM324.719 81.8125C324.719 80.25 325.719 79.0938 327.719 78.3438C328.156 78.1562 328.531 78.2188 328.844 78.5312C329.219 78.8438 329.5 79.25 329.688 79.75C329.938 80.25 330.094 80.7812 330.156 81.3438C330.281 81.8438 330.344 82.2188 330.344 82.4688C330.344 82.8438 330.25 83.1562 330.062 83.4062C329.875 83.5938 329.625 83.7188 329.312 83.7812C329.062 83.8438 328.781 83.875 328.469 83.875H327.719C326.844 83.875 326.125 83.7812 325.562 83.5938C325 83.4062 324.719 82.8125 324.719 81.8125ZM333.719 146.688C334.469 146.688 335.156 147.031 335.781 147.719C336.469 148.469 337.125 149.312 337.75 150.25C338.375 151.188 338.969 152.125 339.531 153.062C340.094 154.062 340.688 154.75 341.312 155.125C342.625 156.188 344.094 157.062 345.719 157.75C347.406 158.438 349.125 158.969 350.875 159.344C352.625 159.781 354.375 160.094 356.125 160.281C357.938 160.531 359.688 160.656 361.375 160.656C361.5 160.656 361.719 160.625 362.031 160.562C362.406 160.562 362.781 160.562 363.156 160.562C363.531 160.562 363.875 160.531 364.188 160.469C364.562 160.469 364.812 160.469 364.938 160.469C365.875 160.031 366.594 159.438 367.094 158.688C367.656 158 368.031 157.219 368.219 156.344C368.469 155.531 368.625 154.656 368.688 153.719C368.75 152.781 368.781 151.844 368.781 150.906C368.781 150.219 368.719 149.031 368.594 147.344C368.531 145.719 368.406 143.781 368.219 141.531C368.031 139.344 367.781 137.031 367.469 134.594C367.219 132.156 366.844 129.844 366.344 127.656C365.906 125.469 365.344 123.562 364.656 121.938C363.969 120.312 363.188 119.188 362.312 118.562C361.688 119.25 361.062 119.938 360.438 120.625C359.812 121.25 359.094 121.812 358.281 122.312C357.531 122.812 356.75 123.219 355.938 123.531C355.125 123.844 354.219 124 353.219 124C351.219 124 349.094 123.781 346.844 123.344C344.594 122.906 342.5 122.156 340.562 121.094C338.625 120.031 337.031 118.688 335.781 117.062C334.531 115.375 333.906 113.281 333.906 110.781C333.906 108.469 334.531 106.531 335.781 104.969C337.031 103.344 338.562 102.062 340.375 101.125C342.25 100.125 344.281 99.4062 346.469 98.9688C348.656 98.5312 350.719 98.3125 352.656 98.3125C353.281 98.3125 354.031 98.3438 354.906 98.4062C355.844 98.4062 356.781 98.4688 357.719 98.5938C358.656 98.7188 359.531 98.9062 360.344 99.1562C361.156 99.4062 361.812 99.7812 362.312 100.281C362.375 100.406 362.438 100.75 362.5 101.312C362.625 101.812 362.719 102.375 362.781 103C362.906 103.625 363 104.219 363.062 104.781C363.125 105.344 363.156 105.656 363.156 105.719C363.406 106.844 363.75 107.938 364.188 109C364.688 110 365.219 111.062 365.781 112.188C366.344 113.25 366.875 114.312 367.375 115.375C367.875 116.438 368.281 117.5 368.594 118.562C370.281 123.938 371.656 129.281 372.719 134.594C373.781 139.906 374.312 145.375 374.312 151C374.312 151.25 374.281 151.688 374.219 152.312C374.219 153 374.219 153.688 374.219 154.375C374.219 155.125 374.188 155.812 374.125 156.438C374.125 157.125 374.125 157.594 374.125 157.844C374.062 159.469 373.562 160.812 372.625 161.875C371.688 163 370.531 163.844 369.156 164.406C367.844 165.031 366.406 165.469 364.844 165.719C363.344 166.031 362 166.188 360.812 166.188C358.812 166.188 356.719 166 354.531 165.625C352.406 165.312 350.344 164.812 348.344 164.125C346.344 163.438 344.438 162.562 342.625 161.5C340.875 160.5 339.344 159.281 338.031 157.844C336.719 156.406 335.656 154.781 334.844 152.969C334.094 151.156 333.719 149.062 333.719 146.688ZM339.344 111.344C339.344 112.594 339.719 113.688 340.469 114.625C341.219 115.562 342.156 116.344 343.281 116.969C344.406 117.531 345.594 117.969 346.844 118.281C348.094 118.531 349.188 118.656 350.125 118.656C353.688 118.656 356.156 117.781 357.531 116.031C358.906 114.219 359.594 111.594 359.594 108.156C359.594 107.156 359.406 106.375 359.031 105.812C358.656 105.188 358.156 104.75 357.531 104.5C356.906 104.25 356.188 104.094 355.375 104.031C354.562 103.906 353.75 103.844 352.938 103.844C351.812 103.844 350.469 103.969 348.906 104.219C347.344 104.406 345.844 104.781 344.406 105.344C343.031 105.906 341.844 106.688 340.844 107.688C339.844 108.625 339.344 109.844 339.344 111.344ZM396.812 103.844C394.625 103.844 392.688 104.25 391 105.062C389.375 105.812 387.906 106.812 386.594 108.062C385.281 109.312 384.188 110.656 383.312 112.094C382.438 113.469 381.656 114.781 380.969 116.031C380.344 117.281 379.844 118.312 379.469 119.125C379.156 119.938 378.938 120.344 378.812 120.344C377.125 120.344 375.938 119.906 375.25 119.031C374.562 118.156 374.125 117.094 373.938 115.844C373.75 114.531 373.719 113.188 373.844 111.812C374.031 110.375 374.125 109.125 374.125 108.062V106.469C374.125 105.719 374.125 104.938 374.125 104.125C374.188 103.312 374.219 102.562 374.219 101.875V100.281C374.406 99.7812 374.656 99.5 374.969 99.4375C375.281 99.375 375.625 99.3438 376 99.3438C376.562 99.3438 377.031 99.6875 377.406 100.375C377.781 101 378.125 101.781 378.438 102.719C378.75 103.656 379 104.594 379.188 105.531C379.375 106.406 379.531 107.094 379.656 107.594C380.406 107.469 381.094 107.156 381.719 106.656C382.344 106.156 382.969 105.562 383.594 104.875C384.281 104.188 385 103.469 385.75 102.719C386.5 101.969 387.375 101.281 388.375 100.656C389.375 99.9688 390.531 99.4062 391.844 98.9688C393.219 98.5312 394.781 98.3125 396.531 98.3125C400.031 98.3125 402.906 99.0938 405.156 100.656C407.406 102.156 409.125 104.156 410.312 106.656C411.562 109.094 412.406 111.875 412.844 115C413.281 118.062 413.5 121.188 413.5 124.375C411.625 124.375 410.156 124.094 409.094 123.531C408.094 122.906 407.375 122.125 406.938 121.188C406.5 120.188 406.25 119.094 406.188 117.906C406.125 116.656 406.094 115.406 406.094 114.156C406.094 112.844 406 111.562 405.812 110.312C405.688 109.062 405.312 107.969 404.688 107.031C404.125 106.094 403.219 105.344 401.969 104.781C400.781 104.156 399.062 103.844 396.812 103.844Z" fill="#E1E1E1"/>
<path d="M2.71875 82.5312C2.21875 81.9062 1.9375 81.375 1.875 80.9375C1.8125 80.5 1.78125 79.9375 1.78125 79.25C1.78125 78.5625 1.875 78 2.0625 77.5625C2.3125 77.0625 2.84375 76.8125 3.65625 76.8125C4.15625 76.8125 4.59375 76.9375 4.96875 77.1875C5.34375 77.4375 5.6875 77.7812 6 78.2188C6.375 78.5938 6.65625 79 6.84375 79.4375C7.03125 79.8125 7.1875 80.2188 7.3125 80.6562C8.0625 83.2188 8.71875 85.5312 9.28125 87.5938C9.84375 89.6562 10.3125 91.75 10.6875 93.875C11.125 95.9375 11.5 98.125 11.8125 100.438C12.125 102.688 12.4375 105.25 12.75 108.125L13.6875 109.812C14.1875 109.688 14.6875 109.469 15.1875 109.156C15.6875 108.844 16.0938 108.5 16.4062 108.125C16.7188 107.688 17.1875 107 17.8125 106.062C18.5 105.062 19.25 103.969 20.0625 102.781C20.9375 101.531 21.8438 100.25 22.7812 98.9375C23.7188 97.625 24.5938 96.375 25.4062 95.1875C26.2812 93.9375 27.0625 92.8438 27.75 91.9062C28.4375 90.9688 28.9375 90.25 29.25 89.75C29.75 89.0625 30.1562 88.5938 30.4688 88.3438C30.7812 88.0312 31.3125 87.875 32.0625 87.875C32.6875 87.875 33.4688 88.375 34.4062 89.375C35.4062 90.3125 36.5 91.5625 37.6875 93.125C38.9375 94.625 40.1875 96.3125 41.4375 98.1875C42.6875 100 43.9062 101.75 45.0938 103.438C46.3438 105.125 47.4688 106.656 48.4688 108.031C49.5312 109.406 50.4375 110.312 51.1875 110.75C51.25 110.75 51.3125 110.781 51.375 110.844C51.4375 110.844 51.5 110.844 51.5625 110.844H51.8438C51.9062 110.844 51.9688 110.812 52.0312 110.75L52.9688 109.812L63 75.2188C63.25 74.4062 63.4375 73.875 63.5625 73.625C63.6875 73.375 64.0625 73.25 64.6875 73.25C65.3125 73.25 65.7812 73.4062 66.0938 73.7188C66.4688 73.9688 66.7812 74.3125 67.0312 74.75C67.2812 75.125 67.4375 75.5625 67.5 76.0625C67.625 76.5625 67.6875 77.0625 67.6875 77.5625C67.6875 78.25 67.5312 79.4062 67.2188 81.0312C66.9688 82.5938 66.5938 84.4062 66.0938 86.4688C65.6562 88.5312 65.0938 90.8125 64.4062 93.3125C63.7812 95.75 63.0625 98.1562 62.25 100.531C61.4375 102.906 60.5938 105.219 59.7188 107.469C58.9062 109.656 58.0625 111.625 57.1875 113.375C56.3125 115.125 55.4375 116.531 54.5625 117.594C53.6875 118.594 52.8438 119.094 52.0312 119.094C51.9688 119.094 51.8125 119.062 51.5625 119C51.375 119 51.25 119 51.1875 119C49.3125 117.375 47.5625 115.688 45.9375 113.938C44.375 112.188 42.875 110.406 41.4375 108.594C40 106.719 38.5625 104.844 37.125 102.969C35.75 101.094 34.3125 99.125 32.8125 97.0625C32.75 97 32.625 96.8438 32.4375 96.5938C32.25 96.3438 32.125 96.2188 32.0625 96.2188C31.9375 96.2188 31.8438 96.1875 31.7812 96.125C31.6562 96.125 31.5938 96.125 31.5938 96.125C31.5938 96.0625 31.5625 96.0312 31.5 96.0312C30.6875 96.0312 29.7812 96.625 28.7812 97.8125C27.8438 98.9375 26.8438 100.344 25.7812 102.031C24.7188 103.719 23.5625 105.562 22.3125 107.562C21.125 109.562 19.9062 111.406 18.6562 113.094C17.4062 114.719 16.125 116.125 14.8125 117.312C13.5625 118.438 12.25 119 10.875 119C10.875 119 10.7812 118.938 10.5938 118.812C10.4062 118.688 10.2188 118.531 10.0312 118.344C9.90625 118.094 9.75 117.875 9.5625 117.688C9.375 117.438 9.25 117.25 9.1875 117.125C9.125 117.062 9.09375 116.938 9.09375 116.75C9.09375 116.5 9.125 116.344 9.1875 116.281L2.71875 82.5312ZM70.2188 102.5C70.2188 100.375 70.8125 98.3125 72 96.3125C73.1875 94.3125 74.6875 92.5625 76.5 91.0625C78.375 89.5625 80.4062 88.375 82.5938 87.5C84.8438 86.625 86.9688 86.1875 88.9688 86.1875C90.5938 86.1875 92.1875 86.4062 93.75 86.8438C95.375 87.2188 96.8125 87.8438 98.0625 88.7188C99.3125 89.5938 100.312 90.6875 101.062 92C101.875 93.25 102.281 94.75 102.281 96.5C102.281 97.3125 102.219 97.9688 102.094 98.4688C102.031 98.9062 101.844 99.3125 101.531 99.6875C101.219 100 100.812 100.312 100.312 100.625C99.875 100.875 99.3125 101.219 98.625 101.656C98.25 101.719 97.6875 101.875 96.9375 102.125C96.1875 102.312 95.3125 102.531 94.3125 102.781C93.375 103.031 92.375 103.281 91.3125 103.531C90.25 103.781 89.2188 104.031 88.2188 104.281C87.2812 104.531 86.4375 104.75 85.6875 104.938C84.9375 105.125 84.375 105.25 84 105.312C83.8125 105.375 83.4062 105.438 82.7812 105.5C82.1562 105.562 81.4688 105.656 80.7188 105.781C80.0312 105.844 79.375 105.938 78.75 106.062C78.125 106.125 77.75 106.188 77.625 106.25C77.4375 106.312 77.2188 106.469 76.9688 106.719C76.7812 106.906 76.6875 107.031 76.6875 107.094C76.6875 108.344 77.0312 109.406 77.7188 110.281C78.4062 111.094 79.2812 111.781 80.3438 112.344C81.4062 112.906 82.5938 113.344 83.9062 113.656C85.2812 113.906 86.625 114.125 87.9375 114.312C89.25 114.438 90.4688 114.5 91.5938 114.5C92.7188 114.5 93.625 114.5 94.3125 114.5C97.4375 114.5 100.5 114.344 103.5 114.031C106.5 113.656 109.562 113.469 112.688 113.469V114.219C112.688 114.594 112.625 115 112.5 115.438C112.438 115.812 112.312 116.188 112.125 116.562C111.938 116.875 111.688 117.062 111.375 117.125C109 117.625 106.875 118.031 105 118.344C103.188 118.594 101.469 118.781 99.8438 118.906C98.2188 118.969 96.5312 119 94.7812 119C93.0312 119.062 91.0938 119.094 88.9688 119.094H87.375C86.6875 119.094 85.9375 119.062 85.125 119C84.3125 119 83.5312 119 82.7812 119H81.1875C79.25 118.5 77.5625 117.719 76.125 116.656C74.75 115.531 73.625 114.219 72.75 112.719C71.875 111.219 71.2188 109.594 70.7812 107.844C70.4062 106.094 70.2188 104.312 70.2188 102.5ZM91.2188 91.4375C90.4062 91.4375 89.4688 91.5312 88.4062 91.7188C87.4062 91.8438 86.3438 92.0938 85.2188 92.4688C84.1562 92.7812 83.0938 93.2188 82.0312 93.7812C80.9688 94.2812 80.0312 94.9062 79.2188 95.6562C78.4062 96.3438 77.7188 97.125 77.1562 98C76.6562 98.875 76.4062 99.8438 76.4062 100.906H80.25C81.625 100.906 83.0312 100.844 84.4688 100.719C85.9062 100.594 87.3125 100.406 88.6875 100.156C90.0625 99.8438 91.25 99.4062 92.25 98.8438C93.3125 98.2188 94.1562 97.4375 94.7812 96.5C95.4688 95.5625 95.8125 94.4062 95.8125 93.0312V92.5625L94.875 91.625C94.75 91.625 94.5 91.625 94.125 91.625C93.8125 91.5625 93.4688 91.5312 93.0938 91.5312C92.7188 91.4688 92.3438 91.4375 91.9688 91.4375C91.6562 91.4375 91.4062 91.4375 91.2188 91.4375ZM122.344 118.156C121.844 117.844 121.438 117.438 121.125 116.938C120.812 116.375 120.562 115.781 120.375 115.156C120.188 114.531 120 113.906 119.812 113.281C119.688 112.656 119.625 112.156 119.625 111.781C119.5 111.094 119.344 110.031 119.156 108.594C118.969 107.156 118.75 105.5 118.5 103.625C118.25 101.688 118 99.6562 117.75 97.5312C117.5 95.4062 117.25 93.375 117 91.4375C116.75 89.4375 116.531 87.6562 116.344 86.0938C116.156 84.5312 116.031 83.3438 115.969 82.5312C115.969 82.4062 115.938 82.1562 115.875 81.7812C115.875 81.4062 115.875 81.1562 115.875 81.0312C115.875 80.0938 116.062 79.5 116.438 79.25C116.812 78.9375 117.469 78.7812 118.406 78.7812C119.531 78.7812 120.344 79.2188 120.844 80.0938C121.344 80.9062 121.688 81.9688 121.875 83.2812C122.125 84.5938 122.25 86 122.25 87.5C122.312 89 122.406 90.4062 122.531 91.7188C122.719 93.0312 123 94.125 123.375 95C123.75 95.8125 124.406 96.2188 125.344 96.2188C126.719 96.2188 128.094 96.125 129.469 95.9375C130.844 95.75 132.219 95.5312 133.594 95.2812C134.969 94.9688 136.344 94.75 137.719 94.625C139.156 94.4375 140.562 94.3438 141.938 94.3438H142.875C143.375 94.3438 143.875 94.3438 144.375 94.3438C144.938 94.3438 145.469 94.3438 145.969 94.3438H146.906C148.344 95.0938 149.562 96.0625 150.562 97.25C151.625 98.375 152.5 99.625 153.188 101C153.938 102.312 154.531 103.75 154.969 105.312C155.406 106.812 155.781 108.312 156.094 109.812C155.781 111.25 155.125 112.469 154.125 113.469C153.188 114.469 152.062 115.312 150.75 116C149.438 116.688 148 117.25 146.438 117.688C144.875 118.062 143.281 118.375 141.656 118.625C140.094 118.812 138.594 118.938 137.156 119C135.719 119.062 134.438 119.094 133.312 119.094C132.25 119.094 131.281 119.062 130.406 119C129.594 119 128.781 118.969 127.969 118.906C127.156 118.844 126.281 118.75 125.344 118.625C124.469 118.5 123.469 118.344 122.344 118.156ZM124.969 105.781C124.969 108.469 125.5 110.469 126.562 111.781C127.625 113.031 129.531 113.656 132.281 113.656C132.844 113.656 133.688 113.656 134.812 113.656C135.938 113.594 137.125 113.5 138.375 113.375C139.688 113.25 141.031 113.094 142.406 112.906C143.781 112.656 145 112.344 146.062 111.969C147.188 111.531 148.094 111.031 148.781 110.469C149.469 109.844 149.812 109.062 149.812 108.125C149.812 106.75 149.562 105.562 149.062 104.562C148.562 103.5 147.875 102.625 147 101.938C146.125 101.188 145.125 100.625 144 100.25C142.875 99.875 141.688 99.6875 140.438 99.6875C139.125 99.6875 137.781 99.75 136.406 99.875C135.094 100 133.75 100.188 132.375 100.438C131 100.625 129.688 101 128.438 101.562C127.188 102.062 126.031 102.688 124.969 103.438C124.969 103.688 124.969 104.094 124.969 104.656C124.969 105.219 124.969 105.594 124.969 105.781ZM189.375 105.125C189.375 103.188 189.375 101.188 189.375 99.125C189.375 97 189.469 94.875 189.656 92.75C189.844 90.625 190.094 88.5625 190.406 86.5625C190.781 84.5625 191.344 82.5938 192.094 80.6562C191.344 80.9062 190.781 80.9688 190.406 80.8438C190.031 80.7188 189.75 80.5 189.562 80.1875C189.375 79.875 189.25 79.5312 189.188 79.1562C189.188 78.7188 189.188 78.3438 189.188 78.0312C189.188 77.2188 189.312 76.625 189.562 76.25C189.812 75.875 190.156 75.625 190.594 75.5C191.031 75.3125 191.531 75.2188 192.094 75.2188C192.719 75.1562 193.344 75.125 193.969 75.125C196.219 75.125 198.562 75.3125 201 75.6875C203.5 76.0625 205.969 76.6562 208.406 77.4688C210.844 78.2188 213.156 79.2188 215.344 80.4688C217.531 81.6562 219.469 83.125 221.156 84.875C222.906 86.5625 224.281 88.4688 225.281 90.5938C226.281 92.7188 226.781 95.1562 226.781 97.9062C226.781 101.219 226.125 104.188 224.812 106.812C223.5 109.438 221.719 111.656 219.469 113.469C217.281 115.219 214.719 116.594 211.781 117.594C208.844 118.594 205.812 119.094 202.688 119.094C200.688 119.094 198.844 118.75 197.156 118.062C195.531 117.375 194.125 116.438 192.938 115.25C191.75 114 190.844 112.5 190.219 110.75C189.656 109 189.375 107.125 189.375 105.125ZM195.75 110.75C196.188 111.5 196.812 112.062 197.625 112.438C198.438 112.812 199.281 113.094 200.156 113.281C201.031 113.469 201.906 113.594 202.781 113.656C203.719 113.656 204.562 113.656 205.312 113.656C207.438 113.656 209.469 113.281 211.406 112.531C213.406 111.719 215.156 110.625 216.656 109.25C218.156 107.875 219.312 106.25 220.125 104.375C221 102.438 221.438 100.375 221.438 98.1875C221.438 96.4375 221.062 94.8125 220.312 93.3125C219.562 91.75 218.562 90.3125 217.312 89C216.125 87.6875 214.719 86.5312 213.094 85.5312C211.531 84.4688 209.875 83.5938 208.125 82.9062C206.375 82.1562 204.625 81.5938 202.875 81.2188C201.125 80.8438 199.438 80.6562 197.812 80.6562H197.531C196.594 81.5938 195.906 82.875 195.469 84.5C195.094 86.0625 194.844 87.75 194.719 89.5625C194.656 91.3125 194.656 93.0625 194.719 94.8125C194.781 96.5 194.812 97.875 194.812 98.9375V100.719C194.812 101.094 194.844 101.781 194.906 102.781C195.031 103.719 195.125 104.75 195.188 105.875C195.25 106.938 195.344 107.938 195.469 108.875C195.594 109.812 195.688 110.438 195.75 110.75ZM230.438 102.5C230.438 100.375 231.031 98.3125 232.219 96.3125C233.406 94.3125 234.906 92.5625 236.719 91.0625C238.594 89.5625 240.625 88.375 242.812 87.5C245.062 86.625 247.188 86.1875 249.188 86.1875C250.812 86.1875 252.406 86.4062 253.969 86.8438C255.594 87.2188 257.031 87.8438 258.281 88.7188C259.531 89.5938 260.531 90.6875 261.281 92C262.094 93.25 262.5 94.75 262.5 96.5C262.5 97.3125 262.438 97.9688 262.312 98.4688C262.25 98.9062 262.062 99.3125 261.75 99.6875C261.438 100 261.031 100.312 260.531 100.625C260.094 100.875 259.531 101.219 258.844 101.656C258.469 101.719 257.906 101.875 257.156 102.125C256.406 102.312 255.531 102.531 254.531 102.781C253.594 103.031 252.594 103.281 251.531 103.531C250.469 103.781 249.438 104.031 248.438 104.281C247.5 104.531 246.656 104.75 245.906 104.938C245.156 105.125 244.594 105.25 244.219 105.312C244.031 105.375 243.625 105.438 243 105.5C242.375 105.562 241.688 105.656 240.938 105.781C240.25 105.844 239.594 105.938 238.969 106.062C238.344 106.125 237.969 106.188 237.844 106.25C237.656 106.312 237.438 106.469 237.188 106.719C237 106.906 236.906 107.031 236.906 107.094C236.906 108.344 237.25 109.406 237.938 110.281C238.625 111.094 239.5 111.781 240.562 112.344C241.625 112.906 242.812 113.344 244.125 113.656C245.5 113.906 246.844 114.125 248.156 114.312C249.469 114.438 250.688 114.5 251.812 114.5C252.938 114.5 253.844 114.5 254.531 114.5C257.656 114.5 260.719 114.344 263.719 114.031C266.719 113.656 269.781 113.469 272.906 113.469V114.219C272.906 114.594 272.844 115 272.719 115.438C272.656 115.812 272.531 116.188 272.344 116.562C272.156 116.875 271.906 117.062 271.594 117.125C269.219 117.625 267.094 118.031 265.219 118.344C263.406 118.594 261.688 118.781 260.062 118.906C258.438 118.969 256.75 119 255 119C253.25 119.062 251.312 119.094 249.188 119.094H247.594C246.906 119.094 246.156 119.062 245.344 119C244.531 119 243.75 119 243 119H241.406C239.469 118.5 237.781 117.719 236.344 116.656C234.969 115.531 233.844 114.219 232.969 112.719C232.094 111.219 231.438 109.594 231 107.844C230.625 106.094 230.438 104.312 230.438 102.5ZM251.438 91.4375C250.625 91.4375 249.688 91.5312 248.625 91.7188C247.625 91.8438 246.562 92.0938 245.438 92.4688C244.375 92.7812 243.312 93.2188 242.25 93.7812C241.188 94.2812 240.25 94.9062 239.438 95.6562C238.625 96.3438 237.938 97.125 237.375 98C236.875 98.875 236.625 99.8438 236.625 100.906H240.469C241.844 100.906 243.25 100.844 244.688 100.719C246.125 100.594 247.531 100.406 248.906 100.156C250.281 99.8438 251.469 99.4062 252.469 98.8438C253.531 98.2188 254.375 97.4375 255 96.5C255.688 95.5625 256.031 94.4062 256.031 93.0312V92.5625L255.094 91.625C254.969 91.625 254.719 91.625 254.344 91.625C254.031 91.5625 253.688 91.5312 253.312 91.5312C252.938 91.4688 252.562 91.4375 252.188 91.4375C251.875 91.4375 251.625 91.4375 251.438 91.4375ZM284.25 113.281V111.312C284.25 110.5 284.312 109.719 284.438 108.969C284.562 108.219 284.812 107.562 285.188 107C285.562 106.438 286.094 106.156 286.781 106.156V106.25H287.062L288.938 113.469C288.938 113.719 289.062 113.906 289.312 114.031C289.562 114.156 289.812 114.281 290.062 114.406C290.375 114.469 290.656 114.5 290.906 114.5C291.219 114.5 291.469 114.5 291.656 114.5C291.781 114.5 291.938 114.5 292.125 114.5C292.375 114.438 292.531 114.406 292.594 114.406C292.969 114.344 293.688 114.188 294.75 113.938C295.812 113.625 296.906 113.344 298.031 113.094C299.219 112.844 300.312 112.594 301.312 112.344C302.375 112.031 303.125 111.844 303.562 111.781C303.875 111.281 304.344 110.844 304.969 110.469C305.594 110.031 306.219 109.625 306.844 109.25C307.469 108.875 308 108.469 308.438 108.031C308.875 107.594 309.094 107.031 309.094 106.344C309.094 104.781 308.688 103.531 307.875 102.594C307.125 101.656 306.125 100.969 304.875 100.531C303.688 100.031 302.406 99.6875 301.031 99.5C299.656 99.3125 298.344 99.125 297.094 98.9375C296.594 98.875 295.781 98.7812 294.656 98.6562C293.594 98.4688 292.375 98.2812 291 98.0938C289.625 97.9062 288.188 97.7188 286.688 97.5312C285.188 97.2812 283.719 97.0938 282.281 96.9688C280.906 96.7812 279.656 96.625 278.531 96.5C277.469 96.375 276.688 96.2812 276.188 96.2188C275.812 95.9688 275.406 95.5312 274.969 94.9062C274.531 94.2812 274.312 93.7812 274.312 93.4062C274.312 92.3438 274.875 91.375 276 90.5C277.188 89.5625 278.656 88.7188 280.406 87.9688C282.156 87.2188 284.125 86.5625 286.312 86C288.562 85.4375 290.75 84.9375 292.875 84.5C295.062 84.0625 297.062 83.75 298.875 83.5625C300.75 83.375 302.188 83.2812 303.188 83.2812C303.938 83.2812 304.625 83.5312 305.25 84.0312C305.938 84.5312 306.281 85.25 306.281 86.1875C306.281 86.9375 306.062 87.5 305.625 87.875C305.25 88.1875 304.75 88.4062 304.125 88.5312C303.562 88.5938 302.969 88.6562 302.344 88.7188C301.781 88.7188 301.25 88.75 300.75 88.8125C299.75 89 298.469 89.25 296.906 89.5625C295.406 89.875 293.906 90.1875 292.406 90.5C290.906 90.8125 289.656 91.0625 288.656 91.25L287.062 91.625V92.6562C288.25 92.6562 289.75 92.6875 291.562 92.75C293.375 92.8125 295.312 92.9688 297.375 93.2188C299.438 93.4688 301.469 93.875 303.469 94.4375C305.531 94.9375 307.375 95.6562 309 96.5938C310.625 97.4688 311.938 98.5938 312.938 99.9688C314 101.281 314.531 102.906 314.531 104.844C314.531 107.469 313.812 109.688 312.375 111.5C310.938 113.312 309.125 114.781 306.938 115.906C304.75 117.031 302.375 117.844 299.812 118.344C297.25 118.844 294.875 119.094 292.688 119.094C291.812 119.094 290.875 119.031 289.875 118.906C288.875 118.719 287.938 118.406 287.062 117.969C286.25 117.531 285.562 116.938 285 116.188C284.5 115.438 284.25 114.469 284.25 113.281ZM321.75 118.156C321.312 116.906 320.906 115.562 320.531 114.125C320.219 112.625 319.938 111.094 319.688 109.531C319.5 107.969 319.344 106.438 319.219 104.938C319.094 103.438 319.031 102.031 319.031 100.719C319.031 100.531 319.062 100.188 319.125 99.6875C319.188 99.125 319.25 98.5625 319.312 98C319.438 97.4375 319.562 96.9062 319.688 96.4062C319.812 95.8438 319.906 95.4688 319.969 95.2812C320.031 95.2188 320.312 95.1562 320.812 95.0938C321.312 95.0312 321.625 95 321.75 95C322.562 95 323.219 95.4375 323.719 96.3125C324.219 97.1875 324.656 98.3125 325.031 99.6875C325.406 101.062 325.656 102.594 325.781 104.281C325.969 105.906 326.125 107.5 326.25 109.062C326.375 110.562 326.438 111.906 326.438 113.094C326.438 114.281 326.438 115.094 326.438 115.531C326.438 115.719 326.438 116.031 326.438 116.469C326.5 116.844 326.5 117.25 326.438 117.688C326.375 118.062 326.219 118.375 325.969 118.625C325.781 118.875 325.438 119 324.938 119H324.562C324.438 119 324.25 118.969 324 118.906C323.75 118.781 323.469 118.688 323.156 118.625C322.844 118.5 322.562 118.406 322.312 118.344C322.062 118.281 321.875 118.219 321.75 118.156ZM320.719 76.8125C320.719 75.25 321.719 74.0938 323.719 73.3438C324.156 73.1562 324.531 73.2188 324.844 73.5312C325.219 73.8438 325.5 74.25 325.688 74.75C325.938 75.25 326.094 75.7812 326.156 76.3438C326.281 76.8438 326.344 77.2188 326.344 77.4688C326.344 77.8438 326.25 78.1562 326.062 78.4062C325.875 78.5938 325.625 78.7188 325.312 78.7812C325.062 78.8438 324.781 78.875 324.469 78.875H323.719C322.844 78.875 322.125 78.7812 321.562 78.5938C321 78.4062 320.719 77.8125 320.719 76.8125ZM329.719 141.688C330.469 141.688 331.156 142.031 331.781 142.719C332.469 143.469 333.125 144.312 333.75 145.25C334.375 146.188 334.969 147.125 335.531 148.062C336.094 149.062 336.688 149.75 337.312 150.125C338.625 151.188 340.094 152.062 341.719 152.75C343.406 153.438 345.125 153.969 346.875 154.344C348.625 154.781 350.375 155.094 352.125 155.281C353.938 155.531 355.688 155.656 357.375 155.656C357.5 155.656 357.719 155.625 358.031 155.562C358.406 155.562 358.781 155.562 359.156 155.562C359.531 155.562 359.875 155.531 360.188 155.469C360.562 155.469 360.812 155.469 360.938 155.469C361.875 155.031 362.594 154.438 363.094 153.688C363.656 153 364.031 152.219 364.219 151.344C364.469 150.531 364.625 149.656 364.688 148.719C364.75 147.781 364.781 146.844 364.781 145.906C364.781 145.219 364.719 144.031 364.594 142.344C364.531 140.719 364.406 138.781 364.219 136.531C364.031 134.344 363.781 132.031 363.469 129.594C363.219 127.156 362.844 124.844 362.344 122.656C361.906 120.469 361.344 118.562 360.656 116.938C359.969 115.312 359.188 114.188 358.312 113.562C357.688 114.25 357.062 114.938 356.438 115.625C355.812 116.25 355.094 116.812 354.281 117.312C353.531 117.812 352.75 118.219 351.938 118.531C351.125 118.844 350.219 119 349.219 119C347.219 119 345.094 118.781 342.844 118.344C340.594 117.906 338.5 117.156 336.562 116.094C334.625 115.031 333.031 113.688 331.781 112.062C330.531 110.375 329.906 108.281 329.906 105.781C329.906 103.469 330.531 101.531 331.781 99.9688C333.031 98.3438 334.562 97.0625 336.375 96.125C338.25 95.125 340.281 94.4062 342.469 93.9688C344.656 93.5312 346.719 93.3125 348.656 93.3125C349.281 93.3125 350.031 93.3438 350.906 93.4062C351.844 93.4062 352.781 93.4688 353.719 93.5938C354.656 93.7188 355.531 93.9062 356.344 94.1562C357.156 94.4062 357.812 94.7812 358.312 95.2812C358.375 95.4062 358.438 95.75 358.5 96.3125C358.625 96.8125 358.719 97.375 358.781 98C358.906 98.625 359 99.2188 359.062 99.7812C359.125 100.344 359.156 100.656 359.156 100.719C359.406 101.844 359.75 102.938 360.188 104C360.688 105 361.219 106.062 361.781 107.188C362.344 108.25 362.875 109.312 363.375 110.375C363.875 111.438 364.281 112.5 364.594 113.562C366.281 118.938 367.656 124.281 368.719 129.594C369.781 134.906 370.312 140.375 370.312 146C370.312 146.25 370.281 146.688 370.219 147.312C370.219 148 370.219 148.688 370.219 149.375C370.219 150.125 370.188 150.812 370.125 151.438C370.125 152.125 370.125 152.594 370.125 152.844C370.062 154.469 369.562 155.812 368.625 156.875C367.688 158 366.531 158.844 365.156 159.406C363.844 160.031 362.406 160.469 360.844 160.719C359.344 161.031 358 161.188 356.812 161.188C354.812 161.188 352.719 161 350.531 160.625C348.406 160.312 346.344 159.812 344.344 159.125C342.344 158.438 340.438 157.562 338.625 156.5C336.875 155.5 335.344 154.281 334.031 152.844C332.719 151.406 331.656 149.781 330.844 147.969C330.094 146.156 329.719 144.062 329.719 141.688ZM335.344 106.344C335.344 107.594 335.719 108.688 336.469 109.625C337.219 110.562 338.156 111.344 339.281 111.969C340.406 112.531 341.594 112.969 342.844 113.281C344.094 113.531 345.188 113.656 346.125 113.656C349.688 113.656 352.156 112.781 353.531 111.031C354.906 109.219 355.594 106.594 355.594 103.156C355.594 102.156 355.406 101.375 355.031 100.812C354.656 100.188 354.156 99.75 353.531 99.5C352.906 99.25 352.188 99.0938 351.375 99.0312C350.562 98.9062 349.75 98.8438 348.938 98.8438C347.812 98.8438 346.469 98.9688 344.906 99.2188C343.344 99.4062 341.844 99.7812 340.406 100.344C339.031 100.906 337.844 101.688 336.844 102.688C335.844 103.625 335.344 104.844 335.344 106.344ZM392.812 98.8438C390.625 98.8438 388.688 99.25 387 100.062C385.375 100.812 383.906 101.812 382.594 103.062C381.281 104.312 380.188 105.656 379.312 107.094C378.438 108.469 377.656 109.781 376.969 111.031C376.344 112.281 375.844 113.312 375.469 114.125C375.156 114.938 374.938 115.344 374.812 115.344C373.125 115.344 371.938 114.906 371.25 114.031C370.562 113.156 370.125 112.094 369.938 110.844C369.75 109.531 369.719 108.188 369.844 106.812C370.031 105.375 370.125 104.125 370.125 103.062V101.469C370.125 100.719 370.125 99.9375 370.125 99.125C370.188 98.3125 370.219 97.5625 370.219 96.875V95.2812C370.406 94.7812 370.656 94.5 370.969 94.4375C371.281 94.375 371.625 94.3438 372 94.3438C372.562 94.3438 373.031 94.6875 373.406 95.375C373.781 96 374.125 96.7812 374.438 97.7188C374.75 98.6562 375 99.5938 375.188 100.531C375.375 101.406 375.531 102.094 375.656 102.594C376.406 102.469 377.094 102.156 377.719 101.656C378.344 101.156 378.969 100.562 379.594 99.875C380.281 99.1875 381 98.4688 381.75 97.7188C382.5 96.9688 383.375 96.2812 384.375 95.6562C385.375 94.9688 386.531 94.4062 387.844 93.9688C389.219 93.5312 390.781 93.3125 392.531 93.3125C396.031 93.3125 398.906 94.0938 401.156 95.6562C403.406 97.1562 405.125 99.1562 406.312 101.656C407.562 104.094 408.406 106.875 408.844 110C409.281 113.062 409.5 116.188 409.5 119.375C407.625 119.375 406.156 119.094 405.094 118.531C404.094 117.906 403.375 117.125 402.938 116.188C402.5 115.188 402.25 114.094 402.188 112.906C402.125 111.656 402.094 110.406 402.094 109.156C402.094 107.844 402 106.562 401.812 105.312C401.688 104.062 401.312 102.969 400.688 102.031C400.125 101.094 399.219 100.344 397.969 99.7812C396.781 99.1562 395.062 98.8438 392.812 98.8438Z" fill="#4A1520"/>
</svg>
