<svg width="233" height="334" viewBox="0 0 233 334" fill="none" xmlns="http://www.w3.org/2000/svg">
<path d="M211.698 192.78C202.828 193.55 191.228 252.3 195.938 267.99C200.058 281.7 211.698 284.25 211.698 284.25C211.698 284.25 223.348 281.7 227.468 267.99C232.178 252.28 220.578 193.53 211.698 192.78Z" fill="#BBC982"/>
<path d="M208.868 322.62C208.526 322.62 208.198 322.484 207.956 322.242C207.714 322 207.578 321.672 207.578 321.33V220.47C207.578 220.301 207.612 220.133 207.676 219.977C207.741 219.82 207.836 219.678 207.956 219.558C208.076 219.438 208.218 219.343 208.374 219.278C208.531 219.214 208.699 219.18 208.868 219.18C209.038 219.18 209.205 219.214 209.362 219.278C209.518 219.343 209.661 219.438 209.78 219.558C209.9 219.678 209.995 219.82 210.06 219.977C210.125 220.133 210.158 220.301 210.158 220.47V321.33C210.158 321.672 210.022 322 209.78 322.242C209.538 322.484 209.21 322.62 208.868 322.62Z" fill="black"/>
<path d="M208.869 240.501C208.542 240.5 208.227 240.375 207.989 240.15L199.189 231.89C198.963 231.652 198.837 231.336 198.836 231.007C198.835 230.679 198.96 230.362 199.184 230.122C199.409 229.882 199.716 229.737 200.044 229.716C200.372 229.696 200.696 229.801 200.949 230.011L209.749 238.27C209.998 238.504 210.144 238.827 210.155 239.168C210.166 239.509 210.042 239.841 209.809 240.091C209.688 240.219 209.542 240.321 209.381 240.391C209.219 240.462 209.045 240.499 208.869 240.501Z" fill="black"/>
<path d="M208.863 255.91C208.629 255.9 208.401 255.827 208.205 255.699C208.008 255.57 207.85 255.39 207.748 255.179C207.645 254.968 207.602 254.733 207.622 254.499C207.642 254.265 207.726 254.041 207.863 253.85L217.513 240.85C217.608 240.701 217.733 240.573 217.88 240.475C218.027 240.376 218.192 240.309 218.366 240.276C218.54 240.244 218.718 240.248 218.89 240.288C219.063 240.328 219.225 240.402 219.367 240.507C219.509 240.613 219.628 240.746 219.717 240.899C219.805 241.052 219.861 241.221 219.882 241.397C219.902 241.573 219.886 241.75 219.835 241.92C219.783 242.089 219.698 242.246 219.583 242.38L209.933 255.38C209.813 255.55 209.652 255.688 209.465 255.78C209.278 255.873 209.072 255.917 208.863 255.91Z" fill="black"/>
<path d="M209.106 283.03H208.836C208.326 282.92 196.396 280.16 192.106 265.88C187.916 251.88 196.376 203.45 205.036 191.8C205.821 190.553 207.005 189.608 208.396 189.12C208.561 189.039 208.742 188.998 208.926 189H209.286C209.469 188.998 209.651 189.039 209.816 189.12C211.206 189.608 212.391 190.553 213.176 191.8C221.846 203.45 230.296 251.91 226.106 265.88C221.816 280.16 209.886 282.88 209.386 283.03C209.293 283.04 209.199 283.04 209.106 283.03ZM209.106 191.57C208.756 191.65 208.106 191.99 207.106 193.31C198.936 204.31 190.616 251.93 194.576 265.11C195.981 270.18 199.102 274.605 203.406 277.63C205.146 278.854 207.07 279.792 209.106 280.41C211.141 279.792 213.066 278.854 214.806 277.63C219.11 274.605 222.231 270.18 223.636 265.11C227.636 251.93 219.286 204.29 211.116 193.31C210.136 191.99 209.456 191.65 209.106 191.57Z" fill="black"/>
<path d="M163.506 333.306C162.456 333.306 159.656 333.306 159.656 330.846V161.636C159.656 158.516 161.346 156.066 163.506 156.066C165.666 156.066 167.346 158.516 167.346 161.636V330.846C167.346 333.306 164.896 333.306 163.506 333.306ZM162.236 330.656C162.656 330.722 163.081 330.749 163.506 330.736C163.927 330.748 164.348 330.727 164.766 330.676V161.676C164.766 159.846 163.936 158.676 163.506 158.676C163.076 158.676 162.236 159.836 162.236 161.676V330.656Z" fill="black"/>
<path d="M221.982 33.2524C223.392 24.6018 217.523 16.4458 208.872 15.0355C200.222 13.6251 192.066 19.4944 190.655 28.1449C189.245 36.7955 195.114 44.9514 203.765 46.3618C212.415 47.7722 220.571 41.9029 221.982 33.2524Z" fill="#FFFB0E"/>
<path d="M219.354 29.5899C219.305 33.6987 217.651 37.6253 214.745 40.5309C211.84 43.4365 207.913 45.0906 203.804 45.1399C195.224 45.2699 188.374 37.9699 188.244 29.5899C188.114 21.0099 195.424 14.1599 203.804 14.0299C212.374 13.8999 219.224 21.2099 219.354 29.5899C219.354 29.8339 219.451 30.0679 219.624 30.2404C219.796 30.413 220.03 30.5099 220.274 30.5099C220.518 30.5099 220.752 30.413 220.925 30.2404C221.097 30.0679 221.194 29.8339 221.194 29.5899C221.194 25.6897 219.883 21.9028 217.471 18.8376C215.059 15.7724 211.687 13.6069 207.897 12.6891C204.106 11.7713 200.117 12.1543 196.57 13.7768C193.023 15.3992 190.125 18.1668 188.341 21.6349C186.556 25.1031 185.99 29.0703 186.732 32.8993C187.474 36.7282 189.481 40.1966 192.432 42.7471C195.383 45.2976 199.105 46.7821 203.001 46.9622C206.897 47.1422 210.741 46.0073 213.914 43.7399C216.151 42.1161 217.975 39.9896 219.239 37.5319C220.504 35.0741 221.173 32.3538 221.194 29.5899C221.194 29.3459 221.097 29.1119 220.925 28.9394C220.752 28.7668 220.518 28.6699 220.274 28.6699C220.03 28.6699 219.796 28.7668 219.624 28.9394C219.451 29.1119 219.354 29.3459 219.354 29.5899Z" fill="#2B292A"/>
<path d="M180.788 12.35L188.258 18.35C189.178 19.09 190.488 17.79 189.558 17.05L182.088 11.05C181.168 10.32 179.858 11.61 180.788 12.35Z" fill="#2B292A"/>
<path d="M196.485 11.7601C195.051 8.92675 193.618 6.10341 192.185 3.29008C191.645 2.23008 190.055 3.16007 190.595 4.21007L194.895 12.6901C195.435 13.7501 197.025 12.8101 196.485 11.7601Z" fill="#2B292A"/>
<path d="M176.146 36.8L185.616 34.64C186.776 34.38 186.286 32.64 185.126 32.87L175.656 35.03C174.506 35.29 174.996 37.03 176.146 36.8Z" fill="#2B292A"/>
<path d="M185.576 24.4802L176.146 22.3302C174.996 22.0702 174.506 23.8402 175.656 24.1002L185.086 26.2502C186.246 26.5202 186.736 24.7502 185.576 24.4802Z" fill="#2B292A"/>
<path d="M202.883 0.919998V10.92C202.883 11.164 202.98 11.398 203.152 11.5705C203.325 11.7431 203.559 11.84 203.803 11.84C204.047 11.84 204.281 11.7431 204.453 11.5705C204.626 11.398 204.723 11.164 204.723 10.92V0.919998C204.723 0.675999 204.626 0.441988 204.453 0.269455C204.281 0.0969215 204.047 0 203.803 0C203.559 0 203.325 0.0969215 203.152 0.269455C202.98 0.441988 202.883 0.675999 202.883 0.919998Z" fill="#2B292A"/>
<path d="M212.948 12.6897L217.028 4.20973C217.538 3.14973 215.958 2.20973 215.438 3.28973L211.358 11.7597C210.848 12.8197 212.428 13.7597 212.948 12.6897Z" fill="#2B292A"/>
<path d="M182.088 48.0399L189.558 42.0399C190.488 41.2999 189.178 40.0399 188.258 40.7399L180.788 46.7399C179.858 47.4799 181.168 48.7399 182.088 48.0399Z" fill="#2B292A"/>
<path d="M231.959 35.0301L222.489 32.8701C221.339 32.6001 220.849 34.3801 221.999 34.6401L231.469 36.8001C232.629 37.0601 233.119 35.2901 231.959 35.0301Z" fill="#2B292A"/>
<path d="M217.655 41.7602L225.535 48.0402C226.445 48.7702 227.765 47.4801 226.835 46.7401L218.955 40.4802C218.035 39.7402 216.725 41.0402 217.655 41.7802V41.7602Z" fill="#2B292A"/>
<path d="M222.489 26.2199L231.959 24.0599C233.119 23.7999 232.629 22.0599 231.469 22.2899L221.999 24.4799C220.849 24.7399 221.339 26.4799 222.489 26.2499V26.2199Z" fill="#2B292A"/>
<path d="M225.539 11.05L218.009 17.05C217.089 17.79 218.399 19.05 219.309 18.35L226.839 12.35C227.769 11.61 226.449 10.35 225.539 11.05Z" fill="#2B292A"/>
<path d="M217.024 54.8801L212.714 45.9401C212.204 44.8701 210.614 45.8001 211.134 46.8601L215.434 55.8001C215.954 56.8701 217.534 55.9401 217.024 54.8801Z" fill="#2B292A"/>
<path d="M202.883 48.3101V58.1701C202.883 58.4141 202.98 58.6481 203.152 58.8207C203.325 58.9932 203.559 59.0901 203.803 59.0901C204.047 59.0901 204.281 58.9932 204.453 58.8207C204.626 58.6481 204.723 58.4141 204.723 58.1701V48.3101C204.723 48.0661 204.626 47.8321 204.453 47.6596C204.281 47.4871 204.047 47.3901 203.803 47.3901C203.559 47.3901 203.325 47.4871 203.152 47.6596C202.98 47.8321 202.883 48.0661 202.883 48.3101Z" fill="#2B292A"/>
<path d="M192.187 55.7998L196.487 47.2798C197.017 46.2298 195.437 45.2798 194.897 46.3498L190.597 54.8798C190.057 55.8798 191.597 56.8798 192.187 55.7998Z" fill="#2B292A"/>
<path d="M54.054 199.645C54.054 199.645 53.8759 198.754 53.5553 199.084C53.2257 198.719 53.0476 199.663 53.0476 199.663C46.279 207.5 9.05177 253.153 53.2168 260.66V260.794L53.5909 260.723L54.0451 260.794V260.625C97.6135 251.621 60.787 207.26 54.054 199.645Z" fill="#82C99E"/>
<path d="M66.548 225.321C63.0633 216.042 57.7958 207.534 51.0425 200.278C50.0184 199.155 48.3707 200.821 49.386 201.934C52.7212 205.564 55.7034 209.504 58.292 213.699C58.2602 213.723 58.2304 213.75 58.203 213.779L48.6201 223.326V201.061C48.5945 200.768 48.4601 200.496 48.2433 200.297C48.0265 200.098 47.743 199.988 47.449 199.988C47.1549 199.988 46.8715 200.098 46.6546 200.297C46.4378 200.496 46.3034 200.768 46.2778 201.061V223.255L36.7572 213.735L36.6415 213.637C39.2352 209.45 42.217 205.517 45.5475 201.89C46.5717 200.776 44.9152 199.111 43.891 200.233C37.2741 207.408 32.0683 215.765 28.5459 224.867C26.1234 231.279 24.9835 238.493 27.1476 245.137C29.7393 253.153 36.9443 258.185 44.4075 261.293C45.8058 261.872 46.4114 259.601 45.031 259.031C37.8171 256.029 31.2177 251.131 29.0446 243.303C28.1459 239.782 28.0637 236.102 28.8042 232.544L46.2956 250.027V260.082C46.3212 260.375 46.4556 260.647 46.6724 260.846C46.8893 261.045 47.1727 261.155 47.4668 261.155C47.7608 261.155 48.0443 261.045 48.2611 260.846C48.4779 260.647 48.6123 260.375 48.6379 260.082V250.107L66.1205 232.598C66.7873 236.019 66.7449 239.542 65.9958 242.946C64.1077 250.962 57.1432 256.065 49.9026 259.075C48.531 259.645 49.1277 261.916 50.526 261.337C57.9981 258.229 64.7757 253.42 67.6523 245.583C70.0658 239.046 68.8279 231.707 66.548 225.321ZM29.5433 230.033C29.4993 229.984 29.4483 229.942 29.392 229.908C29.904 228.005 30.5285 226.135 31.2622 224.306C32.4409 221.358 33.8278 218.498 35.4124 215.747L46.2778 226.613V246.758L29.5433 230.033ZM65.3724 230.033L48.6201 246.785V226.639L59.4855 215.774C60.9881 218.396 62.3266 221.109 63.4932 223.896C64.3083 225.849 64.9897 227.854 65.5327 229.899C65.4525 229.926 65.4525 229.979 65.3724 230.033Z" fill="#2B292A"/>
<path d="M46.1073 263.67C46.223 269.325 45.9826 274.99 46.1073 280.645C46.1328 280.938 46.2673 281.211 46.4841 281.409C46.7009 281.608 46.9843 281.718 47.2784 281.718C47.5725 281.718 47.8559 281.608 48.0727 281.409C48.2895 281.211 48.424 280.938 48.4496 280.645C48.3249 274.99 48.5742 269.325 48.4496 263.67C48.424 263.377 48.2895 263.104 48.0727 262.906C47.8559 262.707 47.5725 262.597 47.2784 262.597C46.9843 262.597 46.7009 262.707 46.4841 262.906C46.2673 263.104 46.1328 263.377 46.1073 263.67Z" fill="#2B292A"/>
<path d="M145.515 274.69H67.655C67.4861 274.69 67.3188 274.657 67.1629 274.592C67.0069 274.527 66.8654 274.432 66.7464 274.312C66.6274 274.192 66.5333 274.049 66.4696 273.893C66.4058 273.737 66.3737 273.569 66.375 273.4V268.28C66.375 267.941 66.5099 267.615 66.7499 267.375C66.99 267.135 67.3155 267 67.655 267H145.515C145.684 266.999 145.851 267.031 146.008 267.095C146.164 267.158 146.307 267.252 146.427 267.371C146.547 267.49 146.642 267.632 146.707 267.788C146.772 267.944 146.805 268.111 146.805 268.28V273.4C146.805 273.742 146.669 274.07 146.427 274.312C146.185 274.554 145.857 274.69 145.515 274.69ZM68.945 272.11H144.225V269.57H68.945V272.11Z" fill="black"/>
<path d="M145.515 283.05H67.655C67.3155 283.05 66.99 282.915 66.7499 282.675C66.5099 282.435 66.375 282.109 66.375 281.77V276.65C66.3737 276.481 66.4058 276.313 66.4696 276.157C66.5333 276.001 66.6274 275.858 66.7464 275.738C66.8654 275.618 67.0069 275.523 67.1629 275.458C67.3188 275.393 67.4861 275.36 67.655 275.36H145.515C145.684 275.36 145.852 275.393 146.009 275.458C146.165 275.523 146.307 275.618 146.427 275.738C146.547 275.857 146.642 276 146.707 276.156C146.772 276.313 146.805 276.48 146.805 276.65V281.77C146.805 281.939 146.772 282.106 146.707 282.262C146.642 282.418 146.547 282.56 146.427 282.679C146.307 282.798 146.164 282.892 146.008 282.955C145.851 283.019 145.684 283.051 145.515 283.05ZM68.945 280.48H144.225V277.94H68.945V280.48Z" fill="black"/>
<path d="M145.515 291.42H67.655C67.4861 291.42 67.3188 291.387 67.1629 291.322C67.0069 291.257 66.8654 291.161 66.7464 291.042C66.6274 290.922 66.5333 290.779 66.4696 290.623C66.4058 290.466 66.3737 290.299 66.375 290.13V285C66.3737 284.831 66.4058 284.664 66.4696 284.507C66.5333 284.351 66.6274 284.208 66.7464 284.088C66.8654 283.968 67.0069 283.873 67.1629 283.808C67.3188 283.743 67.4861 283.71 67.655 283.71H145.515C145.857 283.71 146.185 283.846 146.427 284.088C146.669 284.33 146.805 284.658 146.805 285V290.11C146.808 290.281 146.776 290.451 146.713 290.61C146.649 290.769 146.554 290.913 146.434 291.035C146.314 291.157 146.171 291.254 146.013 291.32C145.856 291.386 145.686 291.42 145.515 291.42ZM68.945 288.84H144.225V286.31H68.945V288.84Z" fill="black"/>
<path d="M147.88 306.49H65.29C64.9478 306.49 64.6197 306.354 64.3778 306.112C64.1359 305.87 64 305.542 64 305.2V297C64 296.658 64.1359 296.33 64.3778 296.088C64.6197 295.846 64.9478 295.71 65.29 295.71H147.88C148.222 295.71 148.55 295.846 148.792 296.088C149.034 296.33 149.17 296.658 149.17 297V305.16C149.175 305.333 149.146 305.505 149.083 305.666C149.021 305.827 148.927 305.974 148.807 306.098C148.686 306.222 148.542 306.321 148.383 306.388C148.224 306.455 148.053 306.49 147.88 306.49ZM66.57 303.91H146.57V298.33H66.57V303.91Z" fill="black"/>
<path d="M86.0223 320.8H81.0223C80.8533 320.8 80.686 320.767 80.5301 320.702C80.3741 320.637 80.2326 320.542 80.1136 320.422C79.9946 320.302 79.9005 320.16 79.8368 320.003C79.773 319.847 79.7409 319.679 79.7422 319.51V305.2C79.7409 305.031 79.773 304.864 79.8368 304.707C79.9005 304.551 79.9946 304.408 80.1136 304.289C80.2326 304.169 80.3741 304.073 80.5301 304.009C80.686 303.944 80.8533 303.91 81.0223 303.91H86.0223C86.1917 303.91 86.3594 303.944 86.5159 304.008C86.6724 304.073 86.8146 304.168 86.9344 304.288C87.0542 304.408 87.1492 304.55 87.214 304.706C87.2789 304.863 87.3122 305.031 87.3122 305.2V319.51C87.3122 319.852 87.1763 320.18 86.9344 320.422C86.6924 320.664 86.3644 320.8 86.0223 320.8ZM82.2822 318.23H84.7422V306.49H82.2822V318.23Z" fill="black"/>
<path d="M132.173 320.8H127.173C126.831 320.8 126.503 320.664 126.261 320.422C126.019 320.18 125.883 319.852 125.883 319.51V305.2C125.883 305.031 125.916 304.863 125.981 304.706C126.046 304.55 126.141 304.408 126.261 304.288C126.38 304.168 126.523 304.073 126.679 304.008C126.836 303.944 127.003 303.91 127.173 303.91H132.173C132.342 303.91 132.51 303.944 132.666 304.008C132.823 304.073 132.965 304.168 133.085 304.288C133.205 304.408 133.3 304.55 133.365 304.706C133.429 304.863 133.463 305.031 133.463 305.2V319.51C133.463 319.852 133.327 320.18 133.085 320.422C132.843 320.664 132.515 320.8 132.173 320.8ZM128.433 318.23H130.883V306.49H128.433V318.23Z" fill="black"/>
<path d="M89.74 277.39H85.98C85.7855 277.388 85.5998 277.308 85.4632 277.17C85.3266 277.031 85.25 276.845 85.25 276.65V273.4C85.25 273.206 85.3266 273.019 85.4632 272.88C85.5998 272.742 85.7855 272.663 85.98 272.66H89.74C89.9363 272.66 90.1245 272.738 90.2632 272.877C90.402 273.016 90.48 273.204 90.48 273.4V276.65C90.48 276.846 90.402 277.035 90.2632 277.173C90.1245 277.312 89.9363 277.39 89.74 277.39ZM86.74 275.92H89.03V274.13H86.74V275.92Z" fill="black"/>
<path d="M127.138 277.39H123.378C123.184 277.388 122.998 277.308 122.862 277.17C122.725 277.031 122.648 276.845 122.648 276.65V273.4C122.648 273.206 122.725 273.019 122.862 272.88C122.998 272.742 123.184 272.663 123.378 272.66H127.138C127.335 272.66 127.523 272.738 127.662 272.877C127.801 273.016 127.878 273.204 127.878 273.4V276.65C127.878 276.846 127.801 277.035 127.662 277.173C127.523 277.312 127.335 277.39 127.138 277.39ZM124.138 275.92H126.428V274.13H124.138V275.92Z" fill="black"/>
<path d="M89.74 285.75H85.98C85.7864 285.75 85.6007 285.673 85.4638 285.536C85.3269 285.399 85.25 285.213 85.25 285.02V282.27C85.25 282.075 85.3266 281.889 85.4632 281.75C85.5998 281.612 85.7855 281.532 85.98 281.53H89.74C89.9363 281.53 90.1245 281.608 90.2632 281.747C90.402 281.885 90.48 282.074 90.48 282.27V285C90.4813 285.098 90.4632 285.195 90.4266 285.286C90.39 285.377 90.3357 285.46 90.2668 285.53C90.198 285.599 90.116 285.655 90.0255 285.693C89.9351 285.73 89.838 285.75 89.74 285.75ZM86.74 284.28H89.03V283H86.74V284.28Z" fill="black"/>
<path d="M127.138 285.75H123.378C123.185 285.75 122.999 285.673 122.862 285.536C122.725 285.399 122.648 285.213 122.648 285.02V282.27C122.648 282.075 122.725 281.889 122.862 281.75C122.998 281.612 123.184 281.532 123.378 281.53H127.138C127.335 281.53 127.523 281.608 127.662 281.747C127.801 281.885 127.878 282.074 127.878 282.27V285C127.88 285.098 127.862 285.195 127.825 285.286C127.788 285.377 127.734 285.46 127.665 285.53C127.596 285.599 127.514 285.655 127.424 285.693C127.334 285.73 127.237 285.75 127.138 285.75ZM124.138 284.28H126.428V283H124.138V284.28Z" fill="black"/>
<path d="M89.74 297.78H85.98C85.7855 297.777 85.5998 297.698 85.4632 297.56C85.3266 297.421 85.25 297.234 85.25 297.04V290.13C85.25 289.936 85.3269 289.751 85.4638 289.614C85.6007 289.477 85.7864 289.4 85.98 289.4H89.74C89.9345 289.4 90.1213 289.476 90.2598 289.613C90.3983 289.75 90.4774 289.935 90.48 290.13V297C90.4854 297.1 90.4703 297.201 90.4355 297.295C90.4008 297.39 90.3472 297.476 90.2779 297.549C90.2086 297.622 90.1252 297.68 90.0327 297.72C89.9402 297.76 89.8406 297.78 89.74 297.78ZM86.74 296.31H89.03V290.87H86.74V296.31Z" fill="black"/>
<path d="M127.138 297.78H123.378C123.184 297.777 122.998 297.698 122.862 297.56C122.725 297.421 122.648 297.234 122.648 297.04V290.13C122.648 289.936 122.725 289.751 122.862 289.614C122.999 289.477 123.185 289.4 123.378 289.4H127.138C127.333 289.4 127.52 289.476 127.658 289.613C127.797 289.75 127.876 289.935 127.878 290.13V297C127.884 297.1 127.869 297.201 127.834 297.295C127.799 297.39 127.746 297.476 127.676 297.549C127.607 297.622 127.524 297.68 127.431 297.72C127.339 297.76 127.239 297.78 127.138 297.78ZM124.138 296.31H126.428V290.87H124.138V296.31Z" fill="black"/>
<path d="M193.012 317.802C200.301 314.816 203.788 306.486 200.802 299.197C197.816 291.909 189.486 288.421 182.197 291.407C174.909 294.394 171.421 302.723 174.407 310.012C177.394 317.301 185.723 320.788 193.012 317.802Z" fill="#C9A082"/>
<path d="M185.789 330C185.629 330 185.476 329.937 185.364 329.824C185.251 329.711 185.188 329.558 185.188 329.399V298.105C185.188 297.945 185.251 297.792 185.364 297.68C185.476 297.567 185.629 297.503 185.789 297.503C185.948 297.503 186.101 297.567 186.214 297.68C186.327 297.792 186.39 297.945 186.39 298.105V329.399C186.39 329.558 186.327 329.711 186.214 329.824C186.101 329.937 185.948 330 185.789 330Z" fill="black"/>
<path d="M185.79 306.063C185.711 306.064 185.634 306.049 185.561 306.019C185.488 305.99 185.422 305.946 185.366 305.891L181.431 301.979C181.362 301.927 181.306 301.86 181.265 301.784C181.225 301.707 181.201 301.623 181.196 301.537C181.191 301.451 181.205 301.365 181.236 301.284C181.267 301.204 181.316 301.131 181.377 301.071C181.439 301.011 181.513 300.964 181.595 300.935C181.676 300.906 181.763 300.895 181.849 300.903C181.935 300.91 182.018 300.936 182.093 300.979C182.168 301.021 182.233 301.079 182.284 301.149L186.224 305.061C186.336 305.174 186.399 305.326 186.399 305.485C186.399 305.644 186.336 305.797 186.224 305.909C186.166 305.963 186.097 306.005 186.023 306.031C185.948 306.057 185.869 306.068 185.79 306.063Z" fill="black"/>
<path d="M185.789 313.066C185.67 313.066 185.553 313.032 185.453 312.968C185.321 312.879 185.229 312.741 185.199 312.585C185.168 312.428 185.201 312.266 185.29 312.134L190.004 305.14C190.047 305.073 190.103 305.014 190.169 304.969C190.235 304.924 190.309 304.892 190.388 304.876C190.466 304.86 190.547 304.859 190.626 304.875C190.704 304.89 190.779 304.921 190.846 304.966C190.912 305.01 190.969 305.068 191.013 305.135C191.057 305.202 191.087 305.277 191.101 305.356C191.116 305.435 191.114 305.515 191.097 305.594C191.08 305.672 191.047 305.746 191.001 305.811L186.288 312.805C186.232 312.886 186.158 312.952 186.071 312.998C185.984 313.044 185.887 313.067 185.789 313.066Z" fill="black"/>
<path d="M185.785 318.372C182.846 318.372 179.972 317.5 177.528 315.867C175.083 314.234 173.178 311.913 172.053 309.197C170.928 306.481 170.634 303.492 171.207 300.609C171.781 297.726 173.197 295.077 175.275 292.998C177.354 290.92 180.002 289.504 182.886 288.931C185.769 288.357 188.758 288.651 191.474 289.776C194.189 290.901 196.511 292.807 198.144 295.251C199.777 297.695 200.649 300.569 200.649 303.509C200.645 307.45 199.078 311.228 196.292 314.015C193.505 316.801 189.726 318.368 185.785 318.372ZM185.785 289.848C183.084 289.848 180.442 290.649 178.196 292.15C175.95 293.651 174.199 295.785 173.165 298.281C172.131 300.777 171.86 303.524 172.387 306.174C172.914 308.824 174.215 311.258 176.126 313.168C178.036 315.079 180.47 316.38 183.12 316.907C185.77 317.434 188.517 317.163 191.013 316.129C193.509 315.096 195.643 313.345 197.144 311.098C198.645 308.852 199.446 306.21 199.446 303.509C199.442 299.887 198.002 296.414 195.441 293.853C192.88 291.292 189.407 289.852 185.785 289.848Z" fill="black"/>
<path d="M62.64 313H1.44C1.05809 313 0.691836 313.152 0.421783 313.422C0.151731 313.692 0 314.058 0 314.44C0 314.822 0.151731 315.188 0.421783 315.458C0.691836 315.728 1.05809 315.88 1.44 315.88H62.64C63.0219 315.88 63.3882 315.728 63.6582 315.458C63.9283 315.188 64.08 314.822 64.08 314.44C64.08 314.058 63.9283 313.692 63.6582 313.422C63.3882 313.152 63.0219 313 62.64 313Z" fill="black"/>
</svg>
